<?xml version="1.0" encoding="UTF-8"?>
<svg id="_レイヤー_2" data-name="レイヤー 2" xmlns="http://www.w3.org/2000/svg" viewBox="0 0 1700 88.05">
  <g id="_レイヤー_1-2" data-name="レイヤー 1">
    <g>
      <g>
        <path d="M37.81,61.08c1.96-.9,3.86-1.79,5.82-2.86-.06.95-.06,2.41,0,3.64q.06,1.85-1.4,2.69c-3.7,1.96-7.84,3.75-12.1,5.38-.9.39-1.46.62-1.74.84-.34.28-.56.39-.9.39-.28,0-.5-.17-.73-.73-.5-1.46-.95-3.25-1.4-5.26,1.68-.28,3.3-.73,5.26-1.34l1.62-.56v-12.15c-3.53,0-4.59.11-4.93.11-.56,0-.62-.06-.62-.62v-4.03c0-.62.06-.67.62-.67.34,0,1.4.11,4.93.11v-9.86h-.34c-3.75,0-4.93.11-5.26.11-.5,0-.56-.06-.56-.62v-4.09c0-.62.06-.67.56-.67.34,0,1.51.11,5.26.11h5.82c3.81,0,4.98-.11,5.26-.11.56,0,.62.06.62.67v4.09c0,.56-.06.62-.62.62-.28,0-1.46-.11-5.21-.11v9.86c3.08,0,4.14-.11,4.48-.11.56,0,.56.06.56.67v4.03c0,.56,0,.62-.56.62-.34,0-1.4-.11-4.48-.11v9.97ZM48.06,76.09c-5.54,0-7.45.11-7.78.11-.56,0-.62-.06-.62-.62v-3.98c0-.56.06-.62.62-.62.34,0,2.24.11,7.78.11h8.51v-5.49h-3.47c-5.15,0-6.89.11-7.22.11-.56,0-.62-.06-.62-.62v-3.86c0-.56.06-.62.62-.62.34,0,2.07.11,7.22.11h3.47v-4.82h-3.64c-5.1,0-6.94.11-7.28.11-.62,0-.67-.06-.67-.56,0-.34.11-2.13.11-6.22v-12.43c0-3.98-.11-5.71-.11-6.1,0-.56.06-.62.67-.62.34,0,2.18.11,7.28.11h13.33c5.15,0,6.94-.11,7.34-.11.56,0,.62.06.62.62,0,.34-.11,2.13-.11,6.1v12.43c0,4.09.11,5.88.11,6.22,0,.5-.06.56-.62.56-.39,0-2.18-.11-7.34-.11h-4.09v4.82h4.26c5.1,0,6.89-.11,7.22-.11.56,0,.62.06.62.62v3.86c0,.56-.06.62-.62.62-.34,0-2.13-.11-7.22-.11h-4.26v5.49h6.44c5.49,0,7.45-.11,7.73-.11.56,0,.62.06.62.62v3.98c0,.56-.06.62-.62.62-.28,0-2.24-.11-7.73-.11h-20.55ZM56.57,40.64v-5.66h-6.22v5.66h6.22ZM56.57,51.22v-5.99h-6.22v5.99h6.22ZM62.17,34.98v5.66h6.61v-5.66h-6.61ZM68.78,45.23h-6.61v5.99h6.61v-5.99Z" style="fill: #1c1c1c;"/>
        <path d="M96.79,32.46c0-2.35-.06-3.53-.34-4.98,1.96.06,3.58.11,5.43.28.5.06.73.22.73.56s-.17.67-.22.9c-.11.34-.28,1.06-.28,3.19v2.46h.73c4.48,0,5.88-.11,6.22-.11.62,0,.67.06.67.62v3.98c0,.56-.06.62-.67.62-.34,0-1.74-.11-6.22-.11h-.11c2.07,3.19,4.98,6.27,7.73,8.12-.78,1.01-1.46,2.07-1.96,3.3-.34.78-.56,1.18-.9,1.18-.28,0-.62-.28-1.12-.84-1.74-1.79-3.3-3.81-4.59-6.22.11,7.06.28,12.15.28,13.22,0,.62-.06.67-.62.67h-4.26c-.56,0-.62-.06-.62-.67,0-1.01.17-5.54.22-12.1-1.57,3.08-3.81,5.88-6.72,8.57-.5.45-.84.67-1.12.67-.39,0-.67-.39-1.12-1.23-.67-1.29-1.57-2.52-2.41-3.3,4.2-2.91,7.67-6.38,10.36-11.37h-1.85c-4.54,0-5.99.11-6.33.11-.56,0-.62-.06-.62-.62v-3.98c0-.56.06-.62.62-.62.34,0,1.79.11,6.33.11h2.74v-2.41ZM87.16,73.06c-.73-.5-.67-.73-.34-1.12,2.13-2.91,3.58-6.05,4.7-9.91.17-.62.28-.56,1.01-.28l3.53,1.34c.73.28.78.39.62,1.01-1.29,4.37-2.86,7.78-5.04,11.14-.17.28-.28.39-.45.39s-.39-.06-.67-.28l-3.36-2.3ZM106.14,69.76c0,1.12.22,1.85.78,2.18.9.5,2.52.62,5.21.62,3.42,0,5.43-.06,6.66-.84.84-.62,1.34-2.46,1.4-5.04,1.12.67,2.63,1.29,4.2,1.62,1.46.28,1.4.45,1.18,1.96-.5,3.64-1.4,5.04-3.08,5.99-2.07,1.18-4.98,1.4-10.86,1.4-5.15,0-8.01-.34-9.35-1.23-1.23-.84-1.9-1.9-1.9-4.76v-6.27c0-1.68-.11-3.08-.34-4.65,1.85,0,4.09.11,5.71.28.73.11,1.01.34,1.01.62,0,.34-.06.5-.22.9-.22.5-.39,1.29-.39,2.52v4.7ZM126.64,29.83c4.37,0,5.82-.11,6.22-.11.56,0,.62.06.62.62,0,.34-.11,2.3-.11,6.55v14.78c0,4.26.11,6.22.11,6.55,0,.62-.06.67-.62.67-.39,0-1.85-.11-6.22-.11h-7.95c-2.74,0-4.26.06-5.15.06,2.02,1.9,3.86,3.98,5.43,6.33.28.45.28.62-.34,1.01l-3.25,2.02c-.34.22-.56.34-.73.34s-.28-.11-.45-.39c-1.46-2.58-3.47-5.32-5.6-7.28-.34-.39-.28-.62.28-.95l2.97-1.74c0-.45.11-2.41.11-6.5v-14.78c0-4.26-.11-6.16-.11-6.55,0-.56.06-.62.67-.62.34,0,1.74.11,6.16.11h7.95ZM117.23,38.23h10.81v-3.81h-10.81v3.81ZM128.04,46.13v-3.75h-10.81v3.75h10.81ZM128.04,50.27h-10.81v3.92h10.81v-3.92ZM129.49,61.08c.67-.28.84-.22,1.18.22,2.35,2.97,4.42,6.16,6.1,10.08.17.45.11.62-.5,1.01l-3.75,2.18c-.34.22-.56.34-.73.34s-.28-.17-.39-.5c-1.51-4.37-3.3-7.28-5.77-10.53-.39-.5-.34-.62.39-1.01l3.47-1.79Z" style="fill: #1c1c1c;"/>
        <path d="M172.34,39.91c-1.29,9.52-3.64,18.26-7,24.14-2.41,4.2-5.32,6.44-9.52,6.44-4.93,0-9.91-5.26-9.91-14.39,0-5.38,2.3-10.53,6.33-14.56,4.7-4.7,10.64-7.17,18.2-7.17,13.44,0,21.34,8.29,21.34,19.43,0,10.42-5.88,16.97-17.25,20.38-1.18.34-1.68.11-2.41-1.01-.62-.95-1.79-2.24-3.92-3.53,9.46-2.24,16.91-6.16,16.91-16.74,0-6.66-5.04-12.99-12.54-12.99h-.22ZM156.26,45.34c-2.69,3.02-4.37,6.78-4.37,10.36,0,5.15,2.07,8.01,3.81,8.01,1.46,0,2.69-.73,4.2-3.42,2.46-4.54,4.98-12.6,5.94-20.05-3.92.78-7.06,2.35-9.58,5.1Z" style="fill: #1c1c1c;"/>
        <path d="M230.41,51.61c-.34,6.27-1.12,10.02-3.3,14.28-2.24,4.37-6.27,8.46-9.86,10.58-.62.39-1.18.67-1.68.67-.39,0-.78-.17-1.18-.56-1.12-1.12-3.02-2.24-4.98-2.97,5.49-2.97,8.79-5.71,11.14-9.97,2.07-3.7,2.63-6.72,2.86-12.04h-10.64c-2.8,0-5.54.17-8.4.34-.5.06-.67-.34-.73-1.06-.28-1.57-.45-3.7-.45-5.38,3.14.28,6.27.28,9.52.28h25.14c4.37,0,7.62-.11,10.92-.34.56,0,.62.34.62,1.12.06.73.06,3.58,0,4.31,0,.73-.34.95-.84.95-2.91-.11-6.78-.22-10.64-.22h-7.5ZM219.32,38.62c-2.58,0-4.82.11-7.95.22-.73,0-.9-.28-.95-.95-.17-1.34-.22-3.36-.39-5.38,3.92.22,6.78.28,9.3.28h10.3c3.14,0,6.66-.06,9.46-.22.56,0,.67.34.67,1.06.11,1.34.11,2.74,0,4.09,0,.78-.11,1.06-.73,1.06-3.02-.11-6.33-.17-9.41-.17h-10.3ZM243.4,28.88c.28-.17.5-.11.78.17,1.62,1.51,3.42,3.98,4.76,6.5.17.34.17.62-.28.9l-2.52,1.51c-.39.22-.67.11-.9-.28-1.46-2.74-3.02-5.04-5.04-7l3.19-1.79ZM248.72,25.74c.34-.22.5-.11.78.17,1.9,1.79,3.7,4.2,4.76,6.27.17.34.22.67-.28,1.01l-2.35,1.51c-.5.28-.78.06-.95-.28-1.29-2.52-2.86-4.82-4.98-6.94l3.02-1.74Z" style="fill: #1c1c1c;"/>
        <path d="M299.36,43.33c2.74,0,5.88-.06,8.46-.17.67-.06.73.28.78.9.11,1.4.11,3.02,0,4.42-.06.73-.17.95-.95.9-1.9,0-5.32-.06-8.06-.06h-2.3c-.34,8.01-1.57,12.71-4.31,17.25-2.8,4.65-7.34,8.01-13.22,10.42-.78.34-1.23.5-1.57.5s-.62-.17-1.06-.62c-1.68-1.74-2.74-2.52-4.65-3.36,7.95-2.46,12.26-5.32,15.12-9.91,2.18-3.58,3.08-7.45,3.3-14.28h-11.93v2.02c0,3.3,0,6.33.17,9.3.06.62-.34.73-.95.78-1.46.11-3.3.11-4.82,0-.73-.06-1.06-.17-1.01-.78.17-2.91.28-5.66.28-9.18v-2.13h-1.68c-3.02,0-7.5.17-9.24.28-.45,0-.62-.34-.67-1.06-.22-1.18-.28-3.14-.39-5.43,2.35.17,5.99.28,10.3.28h1.68v-4.09c0-3.58-.11-4.98-.67-8.23,2.91.28,5.66.56,6.83.9.62.11.84.39.84.78,0,.34-.17.73-.34,1.18-.39,1.01-.39,1.57-.39,5.38v4.09h12.04l.06-5.49c.06-3.14-.11-5.71-.5-7.67,2.13.22,5.21.56,6.55.95.78.17,1.01.45,1.01.9,0,.22-.06.56-.22,1.01-.39,1.06-.45,2.52-.45,4.93v5.32h1.96ZM302.16,29.77c.28-.11.5-.11.78.22,1.51,1.62,3.14,4.14,4.31,6.78.17.39.11.62-.34.84l-2.3,1.18c-.45.22-.73.11-.95-.34-1.23-2.8-2.63-5.15-4.54-7.28l3.02-1.4ZM307.42,27.37c.34-.17.5-.11.78.22,1.79,1.9,3.42,4.42,4.31,6.55.17.34.17.73-.34.95l-2.24,1.12c-.5.22-.73.06-.9-.28-1.12-2.63-2.58-5.04-4.54-7.28l2.91-1.29Z" style="fill: #1c1c1c;"/>
        <path d="M345.57,63.76c0,3.86.06,7.17.17,11.65.06.73-.22.95-.84.95-1.79.11-3.81.11-5.6,0-.62,0-.84-.22-.78-.9.06-4.03.22-7.67.22-11.48v-13.05c-4.93,4.14-10.92,8.4-15.4,10.75-.28.17-.56.22-.84.22-.45,0-.78-.17-1.18-.56-1.29-1.29-3.14-2.41-4.82-3.3,7.73-3.98,12.49-7.22,17.64-11.48,4.42-3.64,8.46-7.56,11.93-11.7,1.9-2.24,2.63-3.36,3.53-5.77,2.52,1.4,4.98,2.91,6.22,3.92.34.22.45.56.45.84,0,.45-.34.95-.78,1.23-.95.62-1.85,1.46-3.36,3.08-2.18,2.63-4.26,4.82-6.55,7.06v18.54Z" style="fill: #1c1c1c;"/>
        <path d="M374.08,34.98c.22-.28.5-.45.78-.45.22,0,.45.11.73.28,2.86,1.51,7.5,4.93,10.7,7.95.34.34.5.56.5.78s-.11.45-.34.73c-.84,1.12-2.69,3.36-3.47,4.2-.28.28-.45.45-.67.45s-.45-.17-.73-.45c-3.36-3.47-7.39-6.66-11.42-9.13,1.23-1.51,2.86-3.25,3.92-4.37ZM378.95,64.49c6.83-3.53,10.47-5.88,16.13-10.42,6.83-5.54,10.58-9.13,15.34-15.23.34,2.8.84,4.7,1.57,6.55.17.39.28.73.28,1.06,0,.5-.28.95-.9,1.68-2.97,3.47-7.78,7.95-12.88,11.87-4.65,3.64-9.35,6.78-16.91,10.98-2.52,1.51-3.25,2.07-3.75,2.58-.34.34-.67.56-1.01.56-.28,0-.62-.22-.95-.62-1.4-1.57-3.14-3.86-4.48-6.22,2.86-.78,4.59-1.29,7.56-2.8Z" style="fill: #1c1c1c;"/>
        <path d="M451.09,66.17c0,.62-.34.9-1.06,1.01-.73.11-2.41.28-3.98.28-.5,0-.73-.34-.73-.9,0-2.02,0-4.82.06-6.83-4.98,2.58-6.78,4.76-6.78,7.45,0,2.35,1.9,3.86,7.78,3.86,5.15,0,9.63-.5,13.94-1.12.5-.06.73.11.78.62.28,1.29.5,3.25.5,4.59.06.67-.17,1.06-.62,1.06-4.82.62-8.46.73-13.89.73-9.18,0-14.06-2.74-14.06-9.24,0-5.38,3.36-9.3,11.82-13.66-.17-2.86-.84-3.98-3.36-3.86-2.63.11-5.15,1.79-7.73,4.03-2.41,2.35-3.81,3.98-5.6,6.1-.28.34-.45.5-.67.5-.17,0-.39-.17-.62-.39-.78-.78-2.46-2.52-3.19-3.7-.17-.22-.22-.39-.22-.5,0-.22.11-.39.39-.62,4.31-3.86,8.46-8.29,11.7-13.89-2.63.11-5.66.17-8.96.17-.5,0-.67-.28-.78-.9-.17-.9-.39-2.97-.56-4.65,4.26.22,8.62.17,12.88-.06.62-1.51,1.12-2.86,1.68-4.82.22-.95.39-1.9.39-3.42,2.46.39,4.93,1.01,6.38,1.57.45.17.67.56.67.95,0,.28-.11.62-.39.84-.34.28-.67.78-.95,1.34-.34.78-.62,1.51-1.29,3.02,3.42-.39,6.83-.95,10.19-1.74.62-.11.78.06.9.56.28,1.12.5,2.41.56,4.03.06.56-.17.78-.95.9-4.2.62-9.02,1.23-13.1,1.68-1.29,2.07-2.52,4.14-4.2,6.22l.06.11c1.79-1.18,4.09-1.74,5.6-1.74,3.7,0,6.27,1.68,6.83,6.05,2.18-1.01,5.38-2.46,8.23-3.92,1.06-.56,2.86-1.57,4.26-3.02,1.85,1.96,3.3,3.92,3.92,4.93.34.5.45.9.45,1.23,0,.45-.28.67-.84.78-1.18.17-2.3.45-3.42.84-3.64,1.29-7.28,2.52-12.04,4.48v9.02Z" style="fill: #1c1c1c;"/>
        <path d="M498.15,78.77c-.56,0-.62-.06-.62-.62,0-.34.06-2.07.11-5.54-4.48.95-10.02,1.96-14.56,2.63-.9.11-1.74.39-2.02.56-.22.11-.56.34-.9.34s-.62-.34-.78-.9c-.5-1.51-.78-2.86-1.12-4.48,1.96-.06,3.53-.17,5.26-.39.34,0,.67-.06,1.01-.11v-17.58c-3.81.06-5.26.11-5.54.11-.56,0-.62-.06-.62-.62v-3.53c0-.56.06-.62.62-.62.34,0,1.96.11,6.83.11h35.95c4.87,0,6.5-.11,6.83-.11.5,0,.56.06.56.62v3.53c0,.56-.06.62-.56.62-.34,0-1.96-.11-6.83-.11h-18.98v18.76c0,4.31.11,6.38.11,6.72,0,.56-.06.62-.62.62h-4.14ZM513.94,29.49c5.54,0,7.5-.11,7.84-.11.56,0,.62.06.62.67,0,.34-.11,1.57-.11,4.59v5.88c0,3.02.11,4.26.11,4.59,0,.62-.06.67-.62.67-.34,0-2.3-.11-7.84-.11h-20.38c-5.54,0-7.45.11-7.84.11-.56,0-.62-.06-.62-.67,0-.34.11-1.57.11-4.59v-5.88c0-3.02-.11-4.26-.11-4.59,0-.62.06-.67.62-.67.39,0,2.3.11,7.84.11h20.38ZM497.64,55.65v-2.97h-7.9v2.97h7.9ZM497.64,62.14v-2.91h-7.9v2.91h7.9ZM497.64,65.73h-7.9v3.86c2.63-.39,5.38-.78,7.9-1.23v-2.63ZM490.75,35.99h25.98v-2.35h-25.98v2.35ZM516.74,39.35h-25.98v2.41h25.98v-2.41ZM520.54,55.98c.34,0,.73-.11,1.01-.22.28-.11.56-.22.84-.22.39,0,.67.11,1.96,1.29,1.34,1.29,1.51,1.68,1.51,2.07,0,.45-.17.73-.56,1.01-.45.28-.84.95-1.51,2.35-1.23,2.46-2.69,4.76-4.54,6.78,2.74,1.74,6.05,2.97,9.91,3.81-.62.9-1.4,2.13-1.96,3.58-.56,1.51-.67,1.51-2.13,1.06-3.75-1.18-6.89-2.8-9.58-4.82-2.46,1.9-5.26,3.58-8.46,4.93-.56.22-.9.39-1.12.39-.39,0-.62-.39-1.01-1.29-.62-1.34-1.29-2.41-2.07-3.19,3.58-1.06,6.55-2.46,9.02-4.2-2.18-2.46-4.03-5.43-5.49-8.96-.9.06-1.29.06-1.46.06-.56,0-.62-.06-.62-.67v-3.25c0-.56.06-.62.62-.62.34,0,1.74.11,6.16.11h9.46ZM511.47,60.29c1.06,2.24,2.41,4.2,4.09,5.82,1.57-1.68,2.86-3.64,3.86-5.82h-7.95Z" style="fill: #1c1c1c;"/>
        <path d="M551.52,66.62c1.18,2.35,2.74,3.58,5.04,4.54,2.07.67,5.49,1.01,10.36,1.01,7.17,0,15.79-.39,24.19-1.18-.73,1.18-1.18,2.58-1.4,4.09q-.28,1.79-2.07,1.85c-7.17.45-14,.56-19.88.56s-10.36-.39-13.05-1.51c-2.58-1.01-4.37-2.46-5.88-4.87-1.57,1.68-3.14,3.08-5.1,4.76-.62.5-1.01.84-1.29,1.18-.22.28-.34.39-.73.39-.28,0-.56-.22-.78-.67-.78-1.46-1.51-3.19-2.3-5.15,1.4-.67,2.18-1.12,3.25-1.85,1.57-1.01,2.8-2.13,4.2-3.53v-12.43h-2.3c-2.91,0-3.64.11-3.92.11-.62,0-.67-.06-.67-.67v-4.26c0-.56.06-.62.67-.62.28,0,1.01.11,3.92.11h3.19c2.91,0,3.75-.11,4.03-.11.56,0,.62.06.62.62,0,.34-.11,1.96-.11,5.43v12.21ZM543.62,29.27c.34-.22.5-.28.67-.28s.34.06.56.28c2.46,2.3,4.93,5.1,6.94,8.18.34.5.34.62-.34,1.12l-2.97,2.52c-.34.28-.56.45-.73.45s-.28-.11-.45-.39c-2.07-3.42-4.48-6.38-6.89-8.79-.45-.39-.39-.56.22-.95l2.97-2.13ZM575.88,48.31c2.24,0,3.7-.11,4.03-.11.62,0,.67.06.67.62v2.8c0,.56-.06.62-.67.62-.34,0-1.79-.11-4.03-.11h-2.24v3.02c3.19,0,4.09-.06,4.48-.06.56,0,.62.06.62.62,0,.34-.11,1.18-.11,3.53v5.6c.62.06,1.12.06,1.68.06,1.29,0,1.57-.28,1.57-1.57v-18.98h-20.89v17.81c0,4.7.11,6.66.11,7,0,.62-.06.67-.62.67h-4.31c-.56,0-.62-.06-.62-.67,0-.34.11-2.13.11-6.89v-15.12c0-4.26-.11-6.16-.11-6.55,0-.56.06-.62.62-.62.39,0,2.13.11,7.06.11-.56-1.4-1.29-2.86-1.96-4.03-4.87,0-6.66.11-6.94.11-.62,0-.67-.06-.67-.62v-3.47c0-.56.06-.62.67-.62.34,0,2.24.11,7.84.11h6.1c0-1.62-.11-2.97-.34-4.26,2.13.06,4.03.17,5.82.39.56.06.9.34.9.62,0,.45-.17.62-.39.95-.22.39-.28.84-.28,1.9v.39h7.06c5.43,0,7.34-.11,7.67-.11.56,0,.62.06.62.62v3.47c0,.56-.06.62-.62.62-.34,0-2.18-.11-7.34-.11l-.17.39c-.39.95-.84,2.13-1.51,3.64,4.76,0,6.61-.11,6.94-.11.56,0,.62.06.62.62,0,.34-.11,2.63-.11,7.06v8.06c0,3.42.17,6.78.17,8.57,0,2.02-.34,3.36-1.51,4.31-1.12.9-2.97,1.29-6.16,1.29-1.34,0-1.46-.06-1.62-1.29l-.34-1.79c-.62-.06-1.68-.11-4.03-.11h-4.59c-3.08,0-4.03.11-4.37.11-.62,0-.67-.06-.67-.62,0-.34.11-1.18.11-3.53v-3.42c0-2.35-.11-3.19-.11-3.53,0-.56.06-.62.67-.62.34,0,1.29.06,4.31.06v-3.02h-1.57c-2.74,0-4.26.11-4.59.11-.56,0-.62-.06-.62-.62v-2.8c0-.56.06-.62.62-.62.34,0,1.85.11,4.59.11h1.57c-.06-1.18-.11-2.07-.28-3.25,1.68.06,3.25.17,4.7.34.5.06.73.22.73.56,0,.28-.17.5-.28.78-.17.39-.22.73-.22,1.57h2.24ZM566.81,36.05c.62,1.23,1.29,2.63,1.79,4.03h5.71c.67-1.46,1.23-2.91,1.62-4.03h-9.13ZM574.09,58.78h-5.49v4.2h5.49v-4.2Z" style="fill: #1c1c1c;"/>
        <path d="M624.81,37.11c.5-.17.73-.17.84.45.28,1.4.45,3.08.5,4.54,0,.5-.22.62-.67.67-3.02.62-5.77,1.01-9.24,1.51-3.58,9.46-6.89,17.19-10.92,24.02-.22.39-.39.56-.62.56-.17,0-.39-.11-.67-.28-1.29-.78-2.91-1.96-3.86-2.86-.28-.22-.39-.39-.39-.62,0-.17.06-.39.28-.67,4.2-6.94,7.17-12.82,9.69-19.54-2.13.11-3.86.11-5.6.11-1.23,0-1.68,0-3.08-.06-.56,0-.67-.17-.78-.9-.28-1.06-.45-2.91-.56-4.76,2.3.17,3.58.22,5.21.22,2.18,0,3.86-.06,6.44-.28.67-2.35,1.06-4.26,1.46-6.27.34-1.96.34-2.8.34-4.54,2.41.34,4.82.67,6.55,1.18.56.11.9.45.9.84,0,.45-.17.73-.5,1.06-.34.45-.56.95-.9,2.07-.39,1.34-.84,3.08-1.34,4.76,2.18-.22,4.76-.73,6.94-1.23ZM626.37,52.12c-.06-1.51-.11-2.41-.45-3.98,2.74.28,4.2.5,6.1,1.06.5.11.78.39.78.9,0,.11-.11.5-.34,1.18-.22.67-.28,1.34-.22,2.3,0,3.3.17,5.71.62,9.52,4.03,1.62,6.78,2.86,10.08,5.21.56.39.62.62.34,1.18-.84,1.74-1.62,3.14-2.58,4.54-.17.28-.34.39-.5.39s-.34-.11-.56-.34c-2.46-2.13-4.54-3.36-6.83-4.7,0,5.6-4.03,8.18-10.42,8.18s-10.3-3.14-10.3-7.95,4.03-8.18,10.36-8.18c1.06,0,2.63.06,4.42.34-.34-3.58-.45-7-.5-9.63ZM622.4,66.23c-2.8,0-4.98,1.12-4.98,3.25,0,1.79,1.57,2.69,4.76,2.69,3.02,0,4.87-1.62,4.87-3.98,0-.5,0-.78-.06-1.12-1.34-.45-2.86-.84-4.59-.84ZM632.81,39.29c.34-.56.62-.62,1.18-.39,3.3.9,7.73,3.14,10.98,5.26.34.22.5.39.5.62,0,.17-.06.39-.22.67-.56,1.23-1.57,2.97-2.35,4.14-.17.28-.34.39-.5.39s-.28-.06-.5-.22c-3.3-2.24-7.34-4.7-11.59-6.1.95-1.68,1.79-3.36,2.52-4.37Z" style="fill: #1c1c1c;"/>
        <path d="M688.27,43.77h-19.54c-3.81,0-6.44.11-8.4.34-.62,0-.84-.28-.84-.95-.17-1.51-.28-4.14-.28-5.99,3.36.34,5.32.39,9.35.39h16.63c2.91,0,5.88-.11,8.85-.22.9,0,1.18.22,1.12.95,0,2.97-.11,5.88-.11,8.85v13.38c0,4.09.17,8.57.22,10.14,0,.56-.22.73-1.01.78-1.57.11-3.36.11-4.93,0-.9-.06-1.06-.11-1.06-.95v-2.24h-19.26c-3.53,0-6.5.17-9.18.22-.5,0-.73-.22-.78-.84-.17-1.46-.28-3.47-.28-5.82,2.63.17,5.88.28,10.3.28h19.21v-18.31Z" style="fill: #1c1c1c;"/>
        <path d="M739.68,35.32c2.02,0,3.02-.06,3.86-.5.22-.17.39-.22.62-.22.34,0,.62.22.95.45,1.29,1.01,2.58,2.46,3.64,3.92.17.28.28.5.28.73,0,.34-.22.73-.73,1.12-.73.62-1.46,1.46-2.07,2.46-2.3,3.92-4.48,7.06-7.17,10.47,5.38,3.98,10.36,8.34,15.51,13.55.28.28.45.56.45.78s-.11.5-.39.84c-1.06,1.29-2.35,2.63-3.75,3.81-.22.22-.45.34-.67.34-.28,0-.5-.17-.78-.45-4.7-5.49-9.52-9.91-14.56-13.89-6.33,6.61-12.71,11.37-18.82,14.78-.5.22-.9.45-1.29.45-.34,0-.67-.17-.95-.5-1.23-1.51-2.86-2.63-4.7-3.64,8.74-4.42,13.94-8.4,19.71-14.28,4.03-4.2,7.11-8.18,10.53-14.06l-14.45.06c-2.91,0-5.82.11-8.85.34-.45.06-.62-.34-.73-.95-.28-1.18-.5-3.86-.5-5.82,3.02.22,5.82.22,9.46.22h15.4Z" style="fill: #1c1c1c;"/>
        <path d="M780.67,45.45c6.83,2.13,12.26,4.31,17.81,7.62.62.34.9.73.62,1.46-.73,1.85-1.62,3.58-2.41,4.87-.22.39-.45.62-.73.62-.17,0-.39-.06-.62-.28-5.15-3.3-10.19-5.77-14.73-7.17v12.38c0,3.64.11,6.94.22,10.98.06.67-.22.84-1.01.84-1.62.11-3.36.11-4.98,0-.78,0-1.06-.17-1.06-.84.17-4.14.22-7.45.22-11.03v-27.55c0-4.2-.17-6.05-.56-8.29,2.58.17,5.38.45,7,.9.78.17,1.06.5,1.06.95,0,.34-.17.78-.45,1.29-.39.73-.39,2.13-.39,5.26v8.01Z" style="fill: #1c1c1c;"/>
        <path d="M835.72,40.64c-6.83,1.29-12.82,2.46-18.82,3.7-2.13.5-2.69.62-3.53.9-.39.17-.78.45-1.23.45-.39,0-.84-.34-1.06-.84-.73-1.51-1.34-3.47-2.07-6.05,2.86-.11,4.54-.34,8.9-.95,6.89-1.01,19.21-2.86,33.66-4.76.84-.11,1.12.22,1.18.62.28,1.29.56,3.36.62,4.93,0,.67-.34.84-1.06.84-2.63.17-4.42.45-6.83,1.23-9.52,3.25-14.28,9.8-14.28,16.52,0,7.22,5.15,11.14,14.9,11.76.9,0,1.23.22,1.23.84,0,1.46-.22,3.42-.62,4.82-.17.84-.39,1.18-1.06,1.18-9.86,0-20.66-5.66-20.66-17.3,0-7.95,3.98-13.33,10.75-17.75v-.11ZM846.81,46.69c.28-.22.5-.17.84.11,1.74,1.34,3.75,3.58,5.32,5.99.22.34.22.62-.17.9l-2.35,1.74c-.39.28-.67.22-.95-.17-1.68-2.58-3.47-4.7-5.66-6.5l2.97-2.07ZM851.8,43.05c.34-.22.5-.17.84.11,2.07,1.57,4.09,3.81,5.32,5.77.22.34.28.67-.17,1.01l-2.24,1.74c-.45.34-.73.17-.95-.17-1.51-2.41-3.3-4.54-5.6-6.44l2.8-2.02Z" style="fill: #1c1c1c;"/>
        <path d="M883.83,71.72c0,4.48-3.64,8.06-8.12,8.06s-8.12-3.58-8.12-8.06,3.64-8.06,8.12-8.06,8.12,3.58,8.12,8.06ZM871.06,71.72c0,2.63,2.02,4.65,4.65,4.65s4.65-2.02,4.65-4.65-2.02-4.65-4.65-4.65-4.65,2.02-4.65,4.65Z" style="fill: #1c1c1c;"/>
      </g>
      <rect width="1700" height="88.05" style="fill: none;"/>
    </g>
  </g>
</svg>