<?xml version="1.0" encoding="UTF-8"?>
<svg id="_レイヤー_2" data-name="レイヤー 2" xmlns="http://www.w3.org/2000/svg" viewBox="0 0 75 50">
  <g id="_レイヤー_1-2" data-name="レイヤー 1">
    <g>
      <path d="M42.95,18.01c.24-1.92,1.54-2.95,3.29-2.95,1.92,0,3.19,1.04,3.19,2.88,0,1.19-.52,2.08-2.15,3.61-1.47,1.32-2.17,2.1-2.6,2.97h4.8v1.4h-6.62v-1.25c.63-1.32,1.53-2.49,3.05-3.96,1.4-1.34,1.71-1.9,1.71-2.78,0-.94-.55-1.48-1.4-1.48s-1.43.66-1.51,1.93l-1.75-.36Z" style="fill: #231815;"/>
      <g>
        <path d="M22.61,23.05c1.03-1.58,2.45-2.59,4.15-2.59s2.9,1.03,3.24,2.57c1.03-1.56,2.47-2.57,4.18-2.57,2.14,0,3.6,1.42,3.6,3.96v9.5h-3.02v-8.66c0-1.49-.65-2.21-1.82-2.21-1.03,0-2.14.91-2.76,2.23v8.64h-2.98v-8.66c0-1.51-.58-2.21-1.63-2.21s-2.18.89-2.86,2.23v8.64h-2.98v-13.18h2.88v2.3Z" style="fill: #231815;"/>
        <polyline points="61.63 22.84 61.63 6.54 2.38 6.54 2.38 43.44 61.63 43.44 61.63 31.68 73.97 26.3" style="fill: none; stroke: #c91933; stroke-miterlimit: 10;"/>
      </g>
      <rect width="75" height="50" style="fill: none;"/>
    </g>
  </g>
</svg>