<?xml version="1.0" encoding="UTF-8"?>
<svg id="uuid-f396dcc4-b3b2-45ca-85f0-c612ffa53ee2" data-name="レイヤー_2" xmlns="http://www.w3.org/2000/svg" viewBox="0 0 29 29">
  <g id="uuid-5edf71de-dfae-44a5-883e-9e05289c4545" data-name="レイヤー_1">
    <path d="M8.49.1c-1.54.07-2.6.32-3.52.68-.95.37-1.76.87-2.57,1.68-.8.81-1.3,1.62-1.67,2.57-.36.92-.6,1.98-.67,3.52C0,10.1,0,10.59,0,14.53c0,3.94.02,4.43.1,5.98.07,1.54.32,2.6.68,3.52.37.95.87,1.76,1.68,2.57.81.8,1.62,1.3,2.57,1.67.92.36,1.98.6,3.52.67,1.55.07,2.04.08,5.98.08,3.94,0,4.43-.02,5.98-.1,1.54-.07,2.6-.32,3.52-.68.95-.37,1.76-.87,2.57-1.68.8-.81,1.3-1.62,1.67-2.57.36-.92.6-1.98.67-3.52.07-1.55.08-2.04.08-5.98,0-3.94-.03-4.43-.1-5.98-.07-1.54-.32-2.6-.68-3.52-.37-.95-.87-1.76-1.68-2.57-.81-.8-1.62-1.3-2.57-1.67-.92-.36-1.98-.6-3.52-.67C18.9,0,18.41,0,14.47,0c-3.94,0-4.43.02-5.98.1M8.66,26.31c-1.41-.06-2.18-.3-2.69-.49-.68-.26-1.16-.58-1.67-1.08-.51-.51-.82-.99-1.09-1.67-.2-.51-.44-1.28-.5-2.69-.07-1.53-.09-1.99-.1-5.86,0-3.87,0-4.33.07-5.86.06-1.41.3-2.18.49-2.69.26-.68.58-1.16,1.08-1.67.51-.51.99-.82,1.67-1.09.51-.2,1.28-.44,2.69-.5,1.53-.07,1.99-.09,5.86-.1,3.87,0,4.33,0,5.86.07,1.41.06,2.18.3,2.69.49.68.26,1.16.57,1.67,1.08s.82.99,1.09,1.67c.2.51.44,1.28.5,2.69.07,1.53.09,1.99.1,5.86,0,3.87,0,4.33-.07,5.86-.06,1.41-.3,2.18-.49,2.69-.26.68-.58,1.16-1.08,1.67-.51.51-.99.82-1.67,1.09-.51.2-1.28.44-2.69.5-1.53.07-1.99.09-5.86.1-3.87,0-4.33,0-5.86-.07M20.48,6.75c0,.96.78,1.74,1.74,1.74.96,0,1.74-.78,1.74-1.74,0-.96-.78-1.74-1.74-1.74s-1.74.78-1.74,1.74M7.05,14.51c0,4.11,3.35,7.44,7.46,7.43,4.11,0,7.44-3.35,7.43-7.46,0-4.11-3.35-7.44-7.46-7.43-4.11,0-7.44,3.35-7.43,7.46M9.67,14.51c0-2.67,2.16-4.84,4.82-4.84,2.67,0,4.84,2.15,4.84,4.82s-2.15,4.84-4.82,4.84c-2.67,0-4.84-2.15-4.84-4.82" style="fill: #fff;"/>
  </g>
</svg>