<?xml version="1.0" encoding="UTF-8"?><svg id="uuid-c0d3d30e-4c33-48aa-8516-47562b6db963" xmlns="http://www.w3.org/2000/svg" width="66" height="66" viewBox="0 0 66 66"><defs><style>.uuid-0785ca77-4ac6-49ae-9d6b-66aa141c076f{fill:none;stroke:#c91933;stroke-miterlimit:10;stroke-width:2px;}.uuid-8957c8de-420f-4ef6-9eba-e1a6a214e574{fill:#c82937;}</style></defs><g id="uuid-2610e681-ab62-42ca-a38c-74121af9add2"><circle class="uuid-0785ca77-4ac6-49ae-9d6b-66aa141c076f" cx="33" cy="33" r="32"/><path class="uuid-8957c8de-420f-4ef6-9eba-e1a6a214e574" d="M18.06,22.4h3c.53,0,1.01.05,1.43.14.42.1.79.25,1.09.47.3.22.54.49.7.83.16.34.25.75.25,1.22,0,.51-.1.94-.29,1.29-.19.35-.45.63-.77.84-.33.21-.7.37-1.14.46-.43.1-.89.14-1.38.14h-1.26v3.81h-1.64v-9.2ZM20.85,26.42c.27,0,.52-.02.77-.06.24-.04.46-.11.65-.21.19-.1.34-.24.46-.41.11-.17.17-.4.17-.68s-.06-.49-.17-.66c-.11-.17-.26-.3-.45-.4-.19-.1-.4-.16-.64-.19s-.48-.05-.73-.05h-1.2v2.64h1.14Z"/><path class="uuid-8957c8de-420f-4ef6-9eba-e1a6a214e574" d="M24.91,28.46c0-.49.09-.94.27-1.35.18-.4.42-.75.72-1.03.3-.29.66-.51,1.08-.66.42-.16.86-.23,1.33-.23s.91.08,1.33.23c.42.16.78.38,1.08.66.3.29.54.63.72,1.03.18.4.27.85.27,1.35s-.09.94-.27,1.35c-.18.41-.42.76-.72,1.05-.3.29-.66.52-1.08.68-.42.16-.86.25-1.33.25s-.91-.08-1.33-.25c-.42-.16-.78-.39-1.08-.68-.3-.29-.54-.64-.72-1.05-.18-.41-.27-.86-.27-1.35ZM26.5,28.46c0,.24.04.49.11.73.07.24.18.46.33.65.15.19.33.35.56.47.23.12.49.18.81.18s.58-.06.81-.18c.23-.12.41-.28.56-.47.15-.19.26-.41.33-.65.07-.24.11-.49.11-.73s-.04-.48-.11-.72c-.07-.24-.18-.45-.33-.64-.15-.19-.33-.34-.56-.46-.23-.12-.49-.18-.81-.18s-.58.06-.81.18c-.23.12-.41.27-.56.46-.15.19-.26.41-.33.64-.07.24-.11.48-.11.72Z"/><path class="uuid-8957c8de-420f-4ef6-9eba-e1a6a214e574" d="M33.51,23.24c0-.25.09-.47.28-.66.19-.19.42-.28.71-.28s.53.09.72.27c.19.18.29.4.29.67s-.1.49-.29.67c-.2.18-.44.27-.72.27s-.52-.09-.71-.28c-.19-.19-.28-.4-.28-.66ZM33.73,25.36h1.56v6.24h-1.56v-6.24Z"/><path class="uuid-8957c8de-420f-4ef6-9eba-e1a6a214e574" d="M37.63,25.36h1.48v1h.03c.14-.31.38-.59.72-.83s.75-.36,1.22-.36c.41,0,.76.07,1.05.21.29.14.53.33.71.57.19.23.32.5.41.81.09.3.13.62.13.94v3.9h-1.56v-3.46c0-.18-.01-.37-.04-.57-.03-.2-.08-.38-.17-.54-.09-.16-.21-.29-.36-.4-.15-.1-.35-.16-.6-.16s-.47.05-.65.15c-.18.1-.33.23-.45.38-.12.16-.21.34-.27.54-.06.2-.09.41-.09.62v3.43h-1.56v-6.24Z"/><path class="uuid-8957c8de-420f-4ef6-9eba-e1a6a214e574" d="M44.8,26.61v-1.25h1.09v-1.81h1.53v1.81h1.56v1.25h-1.56v2.9c0,.28.05.51.15.69.1.18.32.27.67.27.1,0,.22-.01.34-.03.12-.02.23-.05.33-.1l.05,1.22c-.14.05-.3.09-.49.12-.19.03-.37.05-.55.05-.42,0-.75-.06-1.01-.18-.26-.12-.47-.28-.62-.48-.15-.2-.26-.44-.31-.7-.06-.26-.08-.55-.08-.85v-2.91h-1.09Z"/><path class="uuid-8957c8de-420f-4ef6-9eba-e1a6a214e574" d="M36.71,48.79h-7.39v-1.49l4.51-4.48c.34-.35.63-.72.88-1.1.25-.38.37-.82.37-1.3,0-.3-.05-.57-.16-.81-.11-.24-.25-.45-.43-.62-.18-.17-.39-.3-.64-.39-.25-.09-.51-.14-.78-.14-.58,0-1.05.18-1.42.55-.37.37-.61.84-.7,1.42l-1.52-.26c.06-.43.2-.82.41-1.19.21-.37.47-.69.79-.96.32-.27.69-.48,1.11-.63.42-.15.87-.22,1.35-.22s.92.07,1.35.21c.43.14.81.34,1.14.61s.59.6.79,1.01.3.87.3,1.39c0,.36-.05.7-.14,1.01-.1.31-.23.6-.39.88-.17.28-.36.54-.58.79-.22.25-.46.5-.7.74l-3.68,3.58h5.55v1.39Z"/></g></svg>