<?xml version="1.0" encoding="UTF-8"?>
<svg id="_レイヤー_2" data-name="レイヤー 2" xmlns="http://www.w3.org/2000/svg" viewBox="0 0 50 50">
  <g id="_レイヤー_1-2" data-name="レイヤー 1">
    <g>
      <rect width="50" height="50" style="fill: none;"/>
      <path d="M33.32,16.85c-1.47-.96-2.52-2.49-2.85-4.27-.07-.39-.11-.78-.11-1.19h-4.68v18.76c-.09,2.1-1.81,3.79-3.93,3.79-.66,0-1.28-.17-1.82-.45-1.25-.66-2.11-1.97-2.11-3.48,0-2.17,1.76-3.93,3.93-3.93.41,0,.79.07,1.16.18v-4.78c-.38-.05-.77-.08-1.16-.08-4.75,0-8.61,3.86-8.61,8.61,0,2.91,1.46,5.49,3.68,7.05,1.4.98,3.1,1.56,4.94,1.56,4.75,0,8.61-3.86,8.61-8.61v-9.51c1.84,1.32,4.08,2.09,6.51,2.09v-4.68c-1.31,0-2.52-.39-3.55-1.05h0Z"/>
    </g>
  </g>
</svg>