<?xml version="1.0" encoding="UTF-8"?>
<svg id="_レイヤー_2" data-name="レイヤー 2" xmlns="http://www.w3.org/2000/svg" viewBox="0 0 315.75 160.55">
  <defs>
    <style>
      .cls-1 {
        fill: none;
        stroke: #b91f3a;
        stroke-miterlimit: 10;
        stroke-width: 3px;
      }

      .cls-2 {
        fill: #b91f3a;
      }
    </style>
  </defs>
  <g id="_レイヤー_1-2" data-name="レイヤー 1">
    <g>
      <circle class="cls-1" cx="235.48" cy="80.28" r="78.78"/>
      <g>
        <path class="cls-2" d="M204.72,56.16c1.26-.21,2.91-.39,5.01-.39,2.58,0,4.47.6,5.67,1.68,1.11.96,1.77,2.43,1.77,4.23s-.54,3.27-1.56,4.32c-1.38,1.47-3.63,2.22-6.18,2.22-.78,0-1.5-.03-2.1-.18v8.1h-2.61v-19.98ZM207.33,65.91c.57.15,1.29.21,2.16.21,3.15,0,5.07-1.53,5.07-4.32s-1.89-3.96-4.77-3.96c-1.14,0-2.01.09-2.46.21v7.86Z"/>
        <path class="cls-2" d="M232.26,68.76c0,5.37-3.72,7.71-7.23,7.71-3.93,0-6.96-2.88-6.96-7.47,0-4.86,3.18-7.71,7.2-7.71s6.99,3.03,6.99,7.47ZM220.74,68.91c0,3.18,1.83,5.58,4.41,5.58s4.41-2.37,4.41-5.64c0-2.46-1.23-5.58-4.35-5.58s-4.47,2.88-4.47,5.64Z"/>
        <path class="cls-2" d="M239.67,57.54c.03.9-.63,1.62-1.68,1.62-.93,0-1.59-.72-1.59-1.62s.69-1.65,1.65-1.65,1.62.72,1.62,1.65ZM236.73,76.14v-14.52h2.64v14.52h-2.64Z"/>
        <path class="cls-2" d="M244.29,65.55c0-1.5-.03-2.73-.12-3.93h2.34l.15,2.4h.06c.72-1.38,2.4-2.73,4.8-2.73,2.01,0,5.13,1.2,5.13,6.18v8.67h-2.64v-8.37c0-2.34-.87-4.29-3.36-4.29-1.74,0-3.09,1.23-3.54,2.7-.12.33-.18.78-.18,1.23v8.73h-2.64v-10.59Z"/>
        <path class="cls-2" d="M264.51,57.45v4.17h3.78v2.01h-3.78v7.83c0,1.8.51,2.82,1.98,2.82.69,0,1.2-.09,1.53-.18l.12,1.98c-.51.21-1.32.36-2.34.36-1.23,0-2.22-.39-2.85-1.11-.75-.78-1.02-2.07-1.02-3.78v-7.92h-2.25v-2.01h2.25v-3.48l2.58-.69Z"/>
        <path class="cls-2" d="M227.72,118.84v-2.05l2.62-2.55c6.31-6,9.16-9.19,9.2-12.92,0-2.51-1.22-4.83-4.9-4.83-2.24,0-4.1,1.14-5.24,2.09l-1.06-2.36c1.71-1.44,4.14-2.51,6.99-2.51,5.32,0,7.56,3.65,7.56,7.18,0,4.56-3.3,8.25-8.51,13.26l-1.98,1.82v.08h11.09v2.77h-15.77Z"/>
      </g>
      <line class="cls-1" x1="156.7" y1="80.28" y2="80.28"/>
    </g>
  </g>
</svg>