<?xml version="1.0" encoding="UTF-8"?><svg id="uuid-ade9fbd3-c16e-42c0-9b55-e9f8b07f1155" xmlns="http://www.w3.org/2000/svg" width="66" height="66" viewBox="0 0 66 66"><defs><style>.uuid-61511a29-e192-479b-9d5a-41e6fc99b588{fill:#c81339;}.uuid-b45ea8a3-bcc7-4bd6-bd2f-734514f9289e{fill:none;stroke:#c91933;stroke-miterlimit:10;stroke-width:2px;}.uuid-f4a1d192-8430-49a7-999c-eb2abdd3cfb6{fill:#c82937;}</style></defs><g id="uuid-cb088e03-2c41-4079-b288-b80b1c592eaf"><circle class="uuid-b45ea8a3-bcc7-4bd6-bd2f-734514f9289e" cx="33" cy="33" r="32"/><path class="uuid-f4a1d192-8430-49a7-999c-eb2abdd3cfb6" d="M18.06,22.4h3c.53,0,1.01.05,1.43.14.42.1.79.25,1.09.47.3.22.54.49.7.83.16.34.25.75.25,1.22,0,.51-.1.94-.29,1.29-.19.35-.45.63-.77.84-.33.21-.7.37-1.14.46-.43.1-.89.14-1.38.14h-1.26v3.81h-1.64v-9.2ZM20.85,26.42c.27,0,.52-.02.77-.06.24-.04.46-.11.65-.21.19-.1.34-.24.46-.41.11-.17.17-.4.17-.68s-.06-.49-.17-.66c-.11-.17-.26-.3-.45-.4-.19-.1-.4-.16-.64-.19s-.48-.05-.73-.05h-1.2v2.64h1.14Z"/><path class="uuid-f4a1d192-8430-49a7-999c-eb2abdd3cfb6" d="M24.91,28.46c0-.49.09-.94.27-1.35.18-.4.42-.75.72-1.03.3-.29.66-.51,1.08-.66.42-.16.86-.23,1.33-.23s.91.08,1.33.23c.42.16.78.38,1.08.66.3.29.54.63.72,1.03.18.4.27.85.27,1.35s-.09.94-.27,1.35c-.18.41-.42.76-.72,1.05-.3.29-.66.52-1.08.68-.42.16-.86.25-1.33.25s-.91-.08-1.33-.25c-.42-.16-.78-.39-1.08-.68-.3-.29-.54-.64-.72-1.05-.18-.41-.27-.86-.27-1.35ZM26.5,28.46c0,.24.04.49.11.73.07.24.18.46.33.65.15.19.33.35.56.47.23.12.49.18.81.18s.58-.06.81-.18c.23-.12.41-.28.56-.47.15-.19.26-.41.33-.65.07-.24.11-.49.11-.73s-.04-.48-.11-.72c-.07-.24-.18-.45-.33-.64-.15-.19-.33-.34-.56-.46-.23-.12-.49-.18-.81-.18s-.58.06-.81.18c-.23.12-.41.27-.56.46-.15.19-.26.41-.33.64-.07.24-.11.48-.11.72Z"/><path class="uuid-f4a1d192-8430-49a7-999c-eb2abdd3cfb6" d="M33.51,23.24c0-.25.09-.47.28-.66.19-.19.42-.28.71-.28s.53.09.72.27c.19.18.29.4.29.67s-.1.49-.29.67c-.2.18-.44.27-.72.27s-.52-.09-.71-.28c-.19-.19-.28-.4-.28-.66ZM33.73,25.36h1.56v6.24h-1.56v-6.24Z"/><path class="uuid-f4a1d192-8430-49a7-999c-eb2abdd3cfb6" d="M37.63,25.36h1.48v1h.03c.14-.31.38-.59.72-.83s.75-.36,1.22-.36c.41,0,.76.07,1.05.21.29.14.53.33.71.57.19.23.32.5.41.81.09.3.13.62.13.94v3.9h-1.56v-3.46c0-.18-.01-.37-.04-.57-.03-.2-.08-.38-.17-.54-.09-.16-.21-.29-.36-.4-.15-.1-.35-.16-.6-.16s-.47.05-.65.15c-.18.1-.33.23-.45.38-.12.16-.21.34-.27.54-.06.2-.09.41-.09.62v3.43h-1.56v-6.24Z"/><path class="uuid-f4a1d192-8430-49a7-999c-eb2abdd3cfb6" d="M44.8,26.61v-1.25h1.09v-1.81h1.53v1.81h1.56v1.25h-1.56v2.9c0,.28.05.51.15.69.1.18.32.27.67.27.1,0,.22-.01.34-.03.12-.02.23-.05.33-.1l.05,1.22c-.14.05-.3.09-.49.12-.19.03-.37.05-.55.05-.42,0-.75-.06-1.01-.18-.26-.12-.47-.28-.62-.48-.15-.2-.26-.44-.31-.7-.06-.26-.08-.55-.08-.85v-2.91h-1.09Z"/><path class="uuid-61511a29-e192-479b-9d5a-41e6fc99b588" d="M30.61,46.02c.37,1.09.88,1.62,2.08,1.62s2.19-.83,2.19-2.05c0-1.89-1.74-2.11-3.19-2.11v-1.34c2.34,0,2.9-.66,2.9-1.78,0-1.2-.82-1.84-1.9-1.84-.83,0-1.55.53-1.89,1.31l-1.57-.53c.59-1.44,1.92-2.13,3.43-2.13,1.86,0,3.47.99,3.47,3.09,0,1.18-.78,2.22-1.94,2.56v.03c1.42.24,2.22,1.46,2.22,2.85,0,2.18-1.78,3.28-3.78,3.28-1.73,0-3.14-.75-3.65-2.46l1.62-.5Z"/></g></svg>