<?xml version="1.0" encoding="utf-8"?>
<svg xmlns="http://www.w3.org/2000/svg" version="1.1" viewBox="0 0 566.13 119.74">
  <defs>
    <style>
      /* ローディング 線と花 */
      /* 花 */
      .flower {fill: #c91933; transform: translate(0, 10%);animation: flower 2.4s forwards;animation-delay:
      3.7s;opacity: 0;}
      @keyframes flower {
      40% {opacity: 1;transform: translate(0, 0);}
      60% {opacity: 1;transform: translate(0, 0);}
      100% {opacity: 0;transform: translate(0, -15%);}
      }
      /* 線 */
      .border-left, .border-right {fill: none;stroke: #c91933;stroke-miterlimit: 10;stroke-width:
      4px;animation-duration: 5s;}
      .border-left {stroke-dasharray: 700;stroke-dashoffset: 700;animation-name: border_left;}
      .border-right {opacity: 0;stroke-dashoffset: 0;stroke-dasharray: 700;animation-name:
      border_right;animation-delay: 1.4s;}
      @keyframes border_left {
      20% {stroke-dashoffset: 0;stroke-dasharray: 700;}
      29% {opacity: 1;stroke-dashoffset: 0;stroke-dasharray: 700;}
      30% {opacity: 0;stroke-dasharray: 700;stroke-dashoffset: 700;}
      60% {opacity: 1;stroke-dasharray: 700;stroke-dashoffset: 700;}
      80% {stroke-dashoffset: 0;stroke-dasharray: 700;}
      100% {stroke-dashoffset: 0;stroke-dasharray: 700;}
      }
      @keyframes border_right {
      0% {opacity: 1;}
      20% {stroke-dashoffset: 700;stroke-dasharray: 700;}
      69.9% {opacity: 1;stroke-dasharray: 700;stroke-dashoffset: 700;}
      70% {opacity: 1;stroke-dashoffset: 0;stroke-dasharray: 700;}
      100% {opacity: 1;stroke-dashoffset: 700;stroke-dasharray: 700;}
      }
      /* ローディング 文字 */
      /* 隠す */
      .cover {fill: #fff;}
      /* 文字 */
      .text {fill: #231815;transform: translate(0, 26%);animation: text 2.5s forwards;}
      .text-01 {animation-delay: 3.1s;}
      .text-02 {animation-delay: 3.15s;}
      .text-03 {animation-delay: 3.15s;}
      .text-04 {animation-delay: 3.2s;}
      .text-05 {animation-delay: 3.25s;}
      .text-06 {animation-delay: 3.3s;}
      .text-07 {animation-delay: 3.35s;}
      .text-08 {animation-delay: 3.4s;}
      .text-09 {animation-delay: 3.45s;}
      .text-10 {animation-delay: 3.5s;}
      @keyframes text {
      20% {transform: translate(0, 0);}
      80% {transform: translate(0, 0);}
      100% {transform: translate(0, -25%);}
      }
    </style>
  </defs>
  <g>
    <g class="text text-01">
      <polygon points="188.62 62.72 184.75 59.74 167.65 85.99 171.75 88.61 188.62 62.72" />
      <path
        d="M197.22,85.97h-4.95c0-8.22-1.66-18.06-9.6-21.74l2.08-4.49c8.16,3.78,12.47,12.37,12.47,26.23Z" />
      <rect x="177.97" y="74.21" width="16.59" height="3.91" />
    </g>
    <path class="text text-02"
      d="M213.97,75.73c-1.68-.72-3.88-1.62-4.96-2.04-1.61-.64-2.3-1.65-1.76-2.9.72-1.68,4.1-1.77,7.09,1.59l3.03-3.4s-3.01-3.08-6.86-3.31c-3.8-.23-6.63,1.27-7.68,3.87-1.1,2.72-.35,5.55,2.97,7.03,1.41.63,2.91,1.2,4.78,1.98,1.74.72,2.82,1.33,2.55,2.42-.3,1.24-1.68,1.57-3.53,1.28-2.5-.38-4.44-1.62-5.35-2.67l-3.05,3.48c1.15,1.15,4.25,3.15,8.07,3.43,3.76.28,7.25-1.19,8.19-3.96,1.08-3.17-.55-5.56-3.48-6.81Z" />
    <g class="text text-03">
      <polygon points="232.88 69.48 222.13 69.48 222.13 65.56 232.14 65.56 232.88 69.48" />
      <path
        d="M227.14,77.55c0-4.36,0-16.39,0-16.39l-5.01-1.34v17.88c0,6.43,4,8.88,9.45,8.83l1.39-4.48c-1.12.12-5.83.3-5.83-4.49Z" />
    </g>
    <path class="text text-04"
      d="M238.17,74.27h12.37c.14-2.46-1.73-4.74-4.7-4.78-3.17-.04-5.1,2.51-5.1,6.53,0,4.16,1.93,6.02,4.99,6.25,2.92.22,4.64-1.36,5.39-2.91l3.67,2.89s-2.82,4.17-8.22,4.32c-3.64.1-7.15-1.45-8.91-4.46-2.02-3.45-1.94-8.43.08-11.94,2.5-4.35,7.75-5.68,12.08-3.72,4.68,2.12,5.81,7.52,5.32,11.64h-16.97v-3.82Z" />
    <path class="text text-05"
      d="M271.75,65.63c-7.13.09-12.01,4-12.01,10.43v10.45h4.89v-9.75c0-5.08,3.95-6.85,8.36-6.23l-1.25-4.91Z" />
    <path class="text text-07"
      d="M313.01,75.92c0-1.57.27-3,.8-4.28.53-1.28,1.26-2.38,2.17-3.29.91-.91,1.99-1.61,3.24-2.11,1.25-.5,2.58-.75,3.98-.75s2.73.25,3.98.75c1.25.5,2.33,1.2,3.24,2.11.91.91,1.63,2.01,2.17,3.29.53,1.28.8,2.71.8,4.28s-.27,3.01-.8,4.31c-.53,1.3-1.26,2.41-2.17,3.33-.91.93-1.99,1.65-3.24,2.17-1.25.52-2.58.79-3.98.79s-2.73-.26-3.98-.79c-1.25-.52-2.33-1.25-3.24-2.17-.91-.92-1.63-2.04-2.17-3.33-.53-1.3-.8-2.73-.8-4.31ZM317.77,75.92c0,.77.11,1.55.33,2.32.22.77.55,1.46,1,2.07.44.61,1,1.1,1.68,1.49.68.39,1.48.58,2.42.58s1.74-.19,2.42-.58c.68-.39,1.23-.88,1.68-1.49.44-.61.77-1.3.99-2.07.22-.77.33-1.54.33-2.32s-.11-1.54-.33-2.3c-.22-.76-.55-1.44-.99-2.05-.44-.61-1-1.1-1.68-1.47-.68-.37-1.48-.56-2.42-.56s-1.74.19-2.42.56c-.68.37-1.24.86-1.68,1.47-.44.61-.78,1.29-1,2.05-.22.76-.33,1.53-.33,2.3Z" />
    <g class="text text-06">
      <polygon points="290.56 61.15 285.55 59.81 285.55 85.96 290.56 85.96 290.56 61.15" />
      <polygon points="308.72 61.15 303.72 59.81 303.72 85.96 308.72 85.96 308.72 61.15" />
      <rect x="288.6" y="72" width="16.97" height="3.91" />
    </g>
    <path class="text text-08"
      d="M356.04,66.83l-5.01-1.34v11.61c0,2.99-1.09,5.18-4.41,5.18s-4.4-1.88-4.4-5.06v-10.39l-5.01-1.34v12.64c0,4.83,3.01,8.39,9.41,8.39,6.93,0,9.42-4.13,9.42-8.39v-11.3Z" />
    <path class="text text-09"
      d="M372.56,75.73c-1.68-.72-3.88-1.62-4.96-2.04-1.61-.64-2.3-1.65-1.76-2.9.72-1.68,4.1-1.77,7.09,1.59l3.03-3.4s-2.73-3.11-6.86-3.31c-3.8-.18-6.63,1.27-7.68,3.87-1.1,2.72-.35,5.55,2.97,7.03,1.41.63,2.91,1.2,4.78,1.98,1.74.72,2.82,1.33,2.55,2.42-.3,1.24-1.68,1.57-3.53,1.28-2.5-.38-4.43-1.62-5.35-2.67l-3.05,3.48c1.15,1.15,4.25,3.15,8.07,3.43,3.76.28,7.17-.86,8.11-3.62,1.08-3.17-.47-5.9-3.4-7.15Z" />
    <path class="text text-10"
      d="M381.4,74.27h12.37c.14-2.46-1.73-4.74-4.7-4.78-3.17-.04-5.1,2.51-5.1,6.53,0,4.16,1.93,6.02,4.99,6.25,2.92.22,4.64-1.36,5.39-2.91l3.67,2.89s-2.82,4.17-8.22,4.32c-3.64.1-7.15-1.45-8.91-4.46-2.02-3.45-1.94-8.43.08-11.94,2.5-4.35,7.75-5.68,12.08-3.72,4.68,2.12,5.81,7.52,5.32,11.64h-16.97v-3.82Z" />
  </g>
  <rect class="cover" x="165.28" y="89.92" width="235.57" height="29.82" />
  <rect class="cover" x="165.28" y="29.53" width="235.57" height="29.82" />
  <path class="flower"
    d="M276.35,52.66c.16-.86.25-1.75.25-2.65s-.09-1.79-.25-2.65l-10.63,1.19,8.36-6.68c-1.01-1.47-2.28-2.75-3.75-3.75l-6.68,8.36,1.19-10.63c-.86-.16-1.75-.25-2.65-.25s-1.79.09-2.65.25l1.19,10.63-6.68-8.36c-1.47,1.01-2.75,2.28-3.75,3.75l8.36,6.68-10.63-1.19c-.16.86-.25,1.75-.25,2.65s.09,1.79.25,2.65l10.63-1.19-8.36,6.68c1.01,1.47,2.28,2.75,3.75,3.75l6.68-8.36-1.19,10.63c.86.16,1.75.25,2.65.25s1.79-.09,2.65-.25l-1.19-10.63,6.68,8.36c1.47-1.01,2.75-2.28,3.75-3.75l-8.36-6.68,10.63,1.19Z" />
  <polyline class="border-left" id="borderLeft"
    points="3.09 108.25 136.54 108.25 136.54 44.51 262.11 11.49 427.29 43.59 427.29 108.25 563.04 108.25" />
  <polyline class="border-right" id="borderRight"
    points="563.04 108.25 427.29 108.25 427.29 43.59 262.11 11.49 136.54 44.51 136.54 108.25 3.09 108.25" />
</svg>