<?xml version="1.0" encoding="UTF-8"?><svg id="uuid-103b2934-9136-4879-8fe0-e46b5fab0039" xmlns="http://www.w3.org/2000/svg" width="93.75" height="60" viewBox="0 0 93.75 60"><defs><style>.uuid-956140ce-f8d9-437a-a564-4347641cd85b{fill:#fff;}.uuid-709ee95c-a9fb-4395-b173-075b42f91df1{fill:none;stroke:#fff;stroke-miterlimit:10;}.uuid-845a81de-3f6f-4bc6-a727-3c6a297dfcda{fill:#b11f3a;}</style></defs><g id="uuid-dff2b154-0e83-4224-9ef0-17fef0c4a6e4"><rect class="uuid-845a81de-3f6f-4bc6-a727-3c6a297dfcda" width="93.75" height="60"/><path class="uuid-956140ce-f8d9-437a-a564-4347641cd85b" d="M24.64,47.12c-.09,0-.1,0-.1-.1,0-.16.04-1.94.06-4.09-.23.72-.58,1.41-1.02,2.06-.06.09-.11.14-.14.14s-.06-.04-.09-.14c-.08-.29-.2-.57-.32-.77.63-.74,1.13-1.65,1.47-2.74h-.21c-.66,0-.87.02-.93.02-.09,0-.1,0-.1-.1v-.66c0-.09,0-.1.1-.1.05,0,.27.02.93.02h.29v-.56c0-.56,0-.85-.07-1.22.32,0,.61.03.9.06.09,0,.14.04.14.09,0,.08-.03.13-.05.19-.04.11-.06.25-.06.87v.57c.67,0,.88-.02.94-.02.09,0,.1,0,.1.1v.66c0,.09,0,.1-.1.1-.05,0-.26-.02-.88-.02.26.61.73,1.22,1.19,1.72-.13.19-.23.41-.34.69-.05.1-.07.14-.1.14-.04,0-.07-.04-.13-.13-.29-.41-.53-.86-.7-1.34,0,2.39.06,4.29.06,4.45,0,.09,0,.1-.1.1h-.73ZM26.98,47.07c-.09,0-.1,0-.1-.09,0-.05.02-.65.02-3.4v-1.77c0-1.78-.02-2.38-.02-2.44,0-.09,0-.1.1-.1.06,0,.33.02,1.11.02h1.73c.77,0,1.04-.02,1.1-.02.09,0,.1,0,.1.1,0,.05-.02.66-.02,2.14v2.06c0,2.74.02,3.33.02,3.39,0,.08,0,.09-.1.09h-.74c-.08,0-.09,0-.09-.09v-.41h-2.27v.44c0,.08,0,.09-.11.09h-.73ZM27.81,41.43h2.27v-1.28h-2.27v1.28ZM30.08,43.52v-1.25h-2.27v1.25h2.27ZM30.08,45.68v-1.31h-2.27v1.31h2.27Z"/><path class="uuid-956140ce-f8d9-437a-a564-4347641cd85b" d="M34.99,40.45c.68,0,.9-.02.95-.02.09,0,.1,0,.1.1v.64c0,.1,0,.11-.1.11-.05,0-.27-.02-.95-.02h-1c-.67,0-.9.02-.95.02-.09,0-.1,0-.1-.11v-.64c0-.09,0-.1.1-.1.05,0,.27.02.95.02h1ZM35.78,46.31c1.56-.45,2.1-1.44,2.2-2.89.03-.31.03-.56,0-.85.32.02.6.04.86.09.11.02.17.05.17.12s0,.1-.05.16-.06.15-.1.54c.25,1.49,1.25,2.37,2.37,2.76-.13.16-.27.41-.37.63-.07.15-.1.23-.17.23-.04,0-.1-.03-.21-.08-.85-.45-1.53-1.13-1.92-2.09-.32.91-.91,1.63-1.97,2.11-.1.04-.15.06-.21.06-.07,0-.11-.06-.19-.23-.12-.21-.24-.41-.41-.55,0,.39.02.5.02.54,0,.09,0,.1-.09.1h-.65c-.09,0-.1,0-.1-.1v-.24h-.84v.41c0,.08,0,.09-.1.09h-.65c-.09,0-.1,0-.1-.09,0-.06.02-.27.02-1.36v-.58c0-.57-.02-.78-.02-.85,0-.09,0-.1.1-.1.05,0,.24.02.82.02h.68c.58,0,.77-.02.83-.02.08,0,.09,0,.09.1,0,.05-.02.27-.02.69v1.37ZM34.93,39.22c.58,0,.76-.02.81-.02.09,0,.1,0,.1.1v.6c0,.08,0,.09-.1.09-.05,0-.23-.02-.81-.02h-.73c-.58,0-.76.02-.82.02-.08,0-.09,0-.09-.09v-.6c0-.09,0-.1.09-.1.05,0,.23.02.82.02h.73ZM34.83,41.73c.53,0,.69-.02.75-.02.1,0,.11,0,.11.1v.58c0,.09,0,.1-.11.1-.05,0-.22-.02-.75-.02h-.58c-.55,0-.71.02-.77.02-.09,0-.1,0-.1-.1v-.58c0-.09,0-.1.1-.1.05,0,.22.02.77.02h.58ZM34.83,42.95c.53,0,.69-.02.75-.02.1,0,.11,0,.11.1v.58c0,.09,0,.1-.11.1-.05,0-.22-.02-.75-.02h-.58c-.55,0-.71.02-.77.02-.09,0-.1,0-.1-.1v-.58c0-.09,0-.1.1-.1.05,0,.22.02.77.02h.58ZM34.13,44.92v.96h.84v-.96h-.84ZM40.84,42.79c-.08.17-.1.23-.18.23-.04,0-.1-.02-.2-.05-.81-.31-1.53-.91-1.92-1.84-.32.82-.91,1.45-1.91,1.85-.1.04-.15.06-.2.06-.07,0-.11-.06-.2-.23-.11-.19-.24-.38-.37-.5,1.44-.42,2.05-1.28,2.12-2.57.02-.31.02-.58,0-.83.31.02.59.05.84.09.11.02.18.04.18.11s-.02.1-.06.16c-.05.05-.06.14-.09.46.23,1.48,1.2,2.12,2.33,2.48-.12.13-.25.37-.34.57ZM36.01,44.72c-.11-.08-.1-.1-.04-.17.31-.33.57-.74.75-1.13.04-.09.06-.1.18-.04l.45.23c.12.06.13.08.09.17-.19.44-.43.85-.78,1.26-.04.05-.05.06-.09.06-.03,0-.06-.02-.11-.05l-.45-.34ZM36.2,40.98c-.11-.07-.11-.09-.04-.16.27-.31.5-.7.65-1.1.04-.1.05-.08.17-.04l.47.18c.11.04.12.06.09.15-.18.46-.39.86-.7,1.25-.04.04-.05.06-.08.06s-.06-.02-.11-.05l-.44-.3ZM39.96,43.66c.08-.12.13-.22.17-.34.24.07.49.16.69.27.13.06.16.11.16.15,0,.07-.04.1-.1.13-.05.04-.11.11-.15.17-.17.23-.36.49-.6.74-.09.09-.14.14-.2.14-.06,0-.12-.05-.23-.14-.15-.13-.3-.23-.47-.31.32-.28.56-.56.73-.81ZM39.98,39.91c.08-.12.13-.22.16-.34.23.08.49.19.67.29.12.06.14.08.14.14,0,.06-.04.09-.09.13-.05.04-.1.1-.15.18-.15.23-.31.44-.57.71-.11.11-.16.16-.22.16s-.11-.04-.21-.13c-.16-.13-.32-.23-.46-.29.34-.32.57-.62.71-.85Z"/><path class="uuid-956140ce-f8d9-437a-a564-4347641cd85b" d="M45.1,41.72c-.5.37-1.05.69-1.63.97-.11.05-.17.08-.22.08-.06,0-.09-.06-.16-.23-.11-.23-.23-.42-.4-.59,1.57-.62,2.74-1.58,3.46-2.62.15-.23.23-.38.31-.59.35.04.68.11.97.19.11.03.16.06.16.13,0,.05-.02.11-.09.14-.05.03-.09.05-.13.08,1.02,1.24,2.23,2.03,3.81,2.57-.17.22-.29.43-.39.68-.06.16-.09.23-.15.23-.04,0-.11-.03-.21-.07-.61-.27-1.2-.59-1.72-.95v.67c0,.09,0,.1-.1.1-.05,0-.3-.02-1.02-.02h-1.39c-.72,0-.96.02-1.02.02-.09,0-.1,0-.1-.1v-.68ZM44.52,44.16c-.85,0-1.13.02-1.19.02-.1,0-.11,0-.11-.1v-.68c0-.09,0-.1.11-.1.05,0,.34.02,1.19.02h4.8c.85,0,1.13-.02,1.19-.02.1,0,.11,0,.11.1v.68c0,.09,0,.1-.11.1-.05,0-.34-.02-1.19-.02h-2.78c-.22.56-.5,1.13-.8,1.69.94-.05,1.92-.13,2.77-.23-.21-.25-.41-.5-.66-.77-.06-.07-.05-.11.05-.16l.58-.3c.1-.05.13-.04.19.02.61.64,1.13,1.29,1.67,2.09.04.07.04.11-.04.17l-.62.4c-.05.04-.08.05-.11.05s-.04-.02-.07-.06c-.15-.25-.31-.49-.45-.7-1.49.19-3.33.34-4.86.46-.14,0-.26.04-.32.08-.04.04-.09.05-.15.05s-.11-.05-.13-.13c-.08-.3-.14-.61-.19-.93.33.03.63.02.98,0,.09,0,.19,0,.29,0,.32-.61.58-1.19.79-1.75h-.94ZM47.6,41.65c.6,0,.87,0,.97-.02-.65-.47-1.22-1.02-1.7-1.65-.48.63-1.03,1.18-1.65,1.65.08,0,.33.02.99.02h1.39Z"/><path class="uuid-956140ce-f8d9-437a-a564-4347641cd85b" d="M55.36,40.52c.07-.07.1-.07.18-.04.39.21.77.42,1.13.67.56-.32,1.04-.68,1.45-1.04h-3.21c-.88,0-1.19.02-1.24.02-.08,0-.09,0-.09-.1v-.68c0-.09,0-.1.09-.1.05,0,.36.02,1.24.02h3.77c.12,0,.19,0,.23-.03.05-.03.08-.04.13-.04.07,0,.2.06.42.29.27.26.32.34.32.44,0,.08-.05.13-.16.17-.14.06-.23.13-.33.23-.46.41-1.19.95-1.86,1.35l.32.26c.07.06.07.07-.03.15l-.14.13h2.03c.12,0,.16-.02.21-.04.04-.03.1-.04.13-.04.07,0,.16.02.45.26.28.23.3.28.3.38,0,.07-.04.11-.13.17-.09.05-.17.14-.33.33-.35.44-.73.86-1.23,1.28-.1.09-.15.14-.21.14-.04,0-.1-.04-.22-.14-.17-.14-.44-.31-.62-.4.45-.32.93-.71,1.21-1.06h-1.96v1.49c0,.66,0,1.07,0,1.4,0,.44-.1.68-.29.81-.26.18-.59.23-1.5.23q-.28,0-.35-.29c-.07-.25-.18-.52-.31-.72.46.04.83.05,1.11.05.26,0,.34-.07.34-.32v-2.67h-2.2c-.8,0-1.08.02-1.13.02-.09,0-.1,0-.1-.1v-.7c0-.09,0-.1.1-.1.05,0,.33.02,1.13.02h2.59c-.54-.44-1.11-.79-1.7-1.13-.04-.03-.06-.04-.06-.07s.02-.05.06-.09l.45-.41Z"/><path class="uuid-956140ce-f8d9-437a-a564-4347641cd85b" d="M65.38,41.75c.11-.04.13-.03.17.05.29.53.51,1.1.67,1.63.03.1,0,.14-.11.18l-.48.15c-.1.03-.14.02-.15-.06l-.11-.41c-.21.03-.41.04-.62.06v2.48c0,.83.02,1.13.02,1.18,0,.09,0,.1-.1.1h-.68c-.09,0-.1,0-.1-.1,0-.05.02-.35.02-1.18v-2.4l-.85.05c-.15,0-.28.04-.33.07-.04.03-.08.04-.13.04-.06,0-.09-.06-.11-.15-.04-.22-.08-.42-.13-.76.27.02.51.03.75.02l.5-.68c-.37-.46-.77-.9-1.22-1.31-.04-.04-.05-.05-.05-.08s.03-.06.06-.12l.33-.44c.04-.05.06-.08.09-.08s.04.02.08.05l.23.23c.18-.3.33-.58.49-.91.12-.24.16-.39.21-.56.24.09.56.22.78.33.08.05.12.09.12.14,0,.05-.04.08-.08.12-.07.05-.11.1-.17.22-.29.5-.51.85-.79,1.24.14.15.27.3.4.45.21-.32.41-.66.6-1,.11-.2.21-.42.28-.62.27.13.55.26.76.39.08.04.11.08.11.13,0,.06-.03.1-.1.14-.09.05-.16.15-.3.37-.46.73-.95,1.42-1.37,1.95.35-.02.72-.04,1.07-.06-.08-.2-.16-.39-.25-.57-.04-.09-.03-.11.09-.15l.41-.14ZM62.76,44.46c.02-.17.03-.31.02-.5.27.04.51.06.69.1.11.02.15.06.15.11s-.03.08-.05.14c-.03.04-.04.14-.05.29-.05.52-.19,1.22-.34,1.73-.04.13-.07.2-.13.2-.04,0-.11-.04-.21-.11-.13-.09-.35-.18-.48-.22.22-.59.34-1.15.4-1.73ZM65.61,43.93c.11-.04.13-.02.16.08.16.49.36,1.16.46,1.7.02.1,0,.13-.11.16l-.48.16c-.13.04-.14.02-.16-.07-.09-.55-.27-1.31-.4-1.73-.04-.1-.03-.12.08-.15l.45-.15ZM67.18,41.17c-.19.34-.41.68-.7,1.01-.1.11-.14.16-.2.16-.04,0-.1-.05-.19-.16-.16-.2-.32-.33-.49-.42.7-.76,1.05-1.44,1.29-2.18.07-.23.14-.49.17-.77.34.06.69.14.87.19.12.04.19.08.19.14,0,.07,0,.1-.09.18-.07.06-.16.21-.25.46-.06.18-.13.37-.21.55h1.7c.65,0,.86-.02.91-.02.09,0,.11.02.11.11-.02.25-.02.5-.02.75,0,2.07-.07,3.32-.26,4.51-.14.92-.52,1.35-1.37,1.37-.19,0-.44,0-.67,0q-.27-.02-.33-.31c-.05-.24-.15-.51-.25-.68.49.06.79.09,1.14.08.33,0,.49-.3.58-.77.17-.97.23-2.31.23-4.19h-2.15ZM67.17,42.38c.1-.05.13-.04.18.03.4.5.76,1.12,1.03,1.72.04.09.03.12-.08.17l-.57.34c-.1.06-.14.04-.17-.05-.26-.64-.59-1.21-.95-1.74-.06-.09-.06-.12.05-.18l.5-.29Z"/><polyline class="uuid-709ee95c-a9fb-4395-b173-075b42f91df1" points="57.16 19.56 46.87 14.34 36.59 19.56 36.59 30.11 48.89 30.11 48.89 23.33 52.58 23.33 52.58 30.11 57.16 30.11 57.16 23.06"/></g></svg>