<?xml version="1.0" encoding="UTF-8"?><svg id="uuid-a9afaaf3-3644-4073-9e55-2338fd371e73" xmlns="http://www.w3.org/2000/svg" width="93.75" height="60" viewBox="0 0 93.75 60"><defs><style>.uuid-8e9d53c2-e8ae-4941-a3cd-19d5b3dc49ec{fill:#fff;}.uuid-f4cdc1fa-127b-437e-ace5-d123fb88f882{fill:none;stroke:#fff;stroke-miterlimit:10;}</style></defs><g id="uuid-9fa2471e-dc9b-461d-9a8f-c6faf963769e"><rect width="93.75" height="60"/><polyline class="uuid-f4cdc1fa-127b-437e-ace5-d123fb88f882" points="46.9 25.89 49.08 23.72 52.4 27.04 46.64 31.04 41.17 25.57 35.7 20.1 39.7 14.34 43.02 17.66 40.84 19.84 44.48 23.47"/><path class="uuid-8e9d53c2-e8ae-4941-a3cd-19d5b3dc49ec" d="M18.81,41.17c-.58,0-1.1.03-1.49.05-.12,0-.15-.05-.17-.18-.03-.18-.06-.65-.08-.91.41.04.88.06,1.73.06h3.21c.27,0,.37-.02.5-.09.04-.03.09-.04.14-.04.05,0,.11.02.17.04.24.15.49.38.66.59.04.05.06.1.06.15,0,.08-.04.15-.13.23-.08.08-.13.17-.21.35-.44,1.06-.99,2.05-1.75,2.93-.77.88-1.65,1.63-2.56,2.14-.08.05-.16.08-.24.08-.07,0-.15-.03-.23-.1-.21-.2-.5-.36-.84-.5,1.31-.67,2.12-1.29,2.94-2.25.7-.8,1.16-1.57,1.52-2.57h-3.25Z"/><path class="uuid-8e9d53c2-e8ae-4941-a3cd-19d5b3dc49ec" d="M26.83,40.77c0-.62-.03-.96-.1-1.31.38.04.85.1,1.12.19.11.03.15.08.15.14,0,.05-.02.09-.04.14-.08.17-.1.4-.1.86v1.82c0,.47.02.82.03,1.13,0,.14-.05.18-.2.18h-.72c-.13,0-.18-.04-.17-.15,0-.31.03-.84.03-1.22v-1.76ZM31.07,42.45c0,1.33-.2,2.22-.73,2.94-.44.58-1.22,1.13-1.98,1.41-.07.03-.14.04-.19.04-.07,0-.14-.03-.22-.11-.22-.22-.45-.39-.77-.55.96-.3,1.72-.72,2.2-1.31.41-.51.6-1.26.6-2.4v-1.7c0-.77-.02-1.06-.1-1.47.43.04.86.1,1.17.2.09.03.13.08.13.15,0,.04,0,.1-.04.14-.08.19-.08.42-.08.98v1.67Z"/><path class="uuid-8e9d53c2-e8ae-4941-a3cd-19d5b3dc49ec" d="M36.02,43.62c-.89,0-1.23.11-1.32.11-.11,0-.18-.05-.21-.19-.04-.21-.1-.63-.13-1.09.58.09,1.04.11,1.94.11h2.9c.68,0,1.38-.02,2.07-.03.13,0,.16.02.16.13.02.27.02.58,0,.85,0,.11-.04.14-.16.14-.68,0-1.34-.02-2.01-.02h-3.24Z"/><path class="uuid-8e9d53c2-e8ae-4941-a3cd-19d5b3dc49ec" d="M48.93,40.52c.26,0,.38-.06.5-.14.06-.04.11-.06.15-.06s.1.03.16.07c.2.12.45.36.61.55.05.05.07.11.07.16s-.03.11-.1.17c-.09.08-.18.17-.27.34-.39.77-.81,1.5-1.32,2.18.37.3.71.61.97.91.04.04.05.08.05.13,0,.04-.02.08-.05.12-.13.15-.41.44-.56.57-.04.03-.07.04-.11.04-.03,0-.06-.02-.1-.05-.22-.25-.58-.61-.87-.87-.92.99-1.85,1.69-2.87,2.25-.08.04-.15.08-.23.08-.05,0-.11-.03-.17-.08-.29-.23-.54-.35-.86-.46,1.4-.71,2.3-1.36,3.31-2.44-.34-.28-.75-.56-1.3-.85.2-.22.39-.45.59-.64.04-.04.07-.06.12-.06.03,0,.05.02.09.04.32.15.72.41,1.16.72.43-.56.77-1.14,1.05-1.78l-2.23.04c-.74.95-1.32,1.57-1.93,2.03-.06.04-.12.08-.18.08-.04,0-.1-.02-.14-.06-.23-.16-.46-.29-.76-.41,1.26-1,1.94-1.83,2.55-2.83.29-.49.4-.73.49-1.11.31.11.77.26,1.05.44.07.04.1.09.1.14,0,.06-.04.13-.11.18-.08.05-.14.13-.19.19-.07.13-.13.22-.28.45l1.58-.04ZM50.1,39.28s.08-.03.14.02c.28.22.6.58.85.96.04.05.04.1-.03.14l-.38.28c-.06.04-.11.04-.15-.03-.27-.41-.56-.76-.91-1.04l.48-.33ZM50.91,38.69c.05-.04.08-.03.14.02.33.25.66.61.85.93.04.05.05.11-.03.16l-.36.28c-.07.05-.12.03-.15-.03-.24-.39-.53-.73-.9-1.04l.45-.32Z"/><path class="uuid-8e9d53c2-e8ae-4941-a3cd-19d5b3dc49ec" d="M57.13,44.72c0,.62,0,1.15.03,1.87,0,.12-.04.15-.14.15-.29.02-.61.02-.9,0-.1,0-.14-.04-.13-.14,0-.65.04-1.23.04-1.85v-2.1c-.79.67-1.76,1.35-2.48,1.73-.04.03-.09.04-.14.04-.07,0-.13-.03-.19-.09-.21-.21-.5-.39-.77-.53,1.24-.64,2.01-1.16,2.84-1.85.71-.59,1.36-1.22,1.92-1.88.31-.36.42-.54.57-.93.41.23.8.47,1,.63.05.04.07.09.07.14,0,.07-.05.15-.13.2-.15.1-.3.23-.54.5-.35.42-.68.77-1.05,1.13v2.98Z"/><path class="uuid-8e9d53c2-e8ae-4941-a3cd-19d5b3dc49ec" d="M62.85,40.51c-.13-.5-.23-.76-.43-1.11.36-.05.86-.1,1.21-.1.14,0,.18.04.18.27,0,.2.03.49.13.9l.19.78,2.57-.67c.36-.1.49-.16.58-.24.04-.05.09-.06.13-.06.05,0,.12.03.18.07.18.11.5.39.65.55.05.05.07.11.07.15,0,.06-.04.13-.1.18-.08.09-.13.15-.2.26-.5.98-.99,1.69-1.37,2.12-.04.06-.1.08-.14.08-.06,0-.13-.04-.2-.08-.19-.12-.42-.2-.76-.29.63-.66.91-1.1,1.3-1.82l-2.45.66.54,2.14c.14.55.42,1.53.54,1.95.04.12.02.2-.12.23-.29.11-.47.16-.71.22-.13.02-.17.04-.21-.11-.12-.44-.31-1.31-.48-1.94l-.57-2.21-.74.2c-.4.12-.95.31-1.3.45-.06.03-.11.04-.15.04-.06,0-.12-.04-.16-.13-.13-.24-.25-.55-.38-.92.6-.1,1.05-.21,1.69-.37l.77-.21-.27-1.03Z"/><path class="uuid-8e9d53c2-e8ae-4941-a3cd-19d5b3dc49ec" d="M72.41,40.7c.15.04.17.15.12.28-.1.2-.11.4-.11.61-.02,1.13-.19,1.98-.49,2.65-.23.55-.63,1.13-1.28,1.69-.09.07-.16.12-.23.12-.05,0-.11-.03-.17-.07-.23-.15-.44-.26-.77-.38.7-.53,1.18-1.08,1.49-1.79.25-.61.37-1.11.38-2.55,0-.34-.02-.49-.09-.76.51.06.93.13,1.14.2ZM74.41,44.51c.44-.23.86-.51,1.28-.84.54-.41,1.07-.89,1.58-1.53.04.31.13.61.28.91.03.06.05.11.05.15,0,.06-.04.13-.13.23-.45.46-.86.83-1.33,1.18-.47.36-.97.71-1.6,1.08-.16.11-.18.13-.26.19-.05.04-.12.07-.18.07-.05,0-.12-.03-.19-.07-.2-.13-.4-.37-.54-.55-.05-.08-.08-.14-.08-.19,0-.04,0-.08.04-.13.06-.12.05-.23.05-.68v-2.82c0-.78,0-1.15-.09-1.57.36.05.86.11,1.13.19.12.03.16.08.16.15,0,.05-.03.14-.07.23-.08.17-.08.35-.08,1v3.01Z"/><path class="uuid-f4cdc1fa-127b-437e-ace5-d123fb88f882" d="M48.75,18.97c-.28-1.21-1.27-2.15-2.5-2.37"/><path class="uuid-f4cdc1fa-127b-437e-ace5-d123fb88f882" d="M50.94,18.28c-.35-1.99-1.94-3.55-3.95-3.85"/><path class="uuid-f4cdc1fa-127b-437e-ace5-d123fb88f882" d="M53.18,17.57c-.35-2.83-2.6-5.06-5.44-5.38"/></g></svg>