<?xml version="1.0" encoding="UTF-8"?><svg id="uuid-3e40f714-fa1f-471e-8ecb-d89f11acb7b6" xmlns="http://www.w3.org/2000/svg" width="93.75" height="60" viewBox="0 0 93.75 60"><defs><style>.uuid-2f8851b4-c367-4571-9307-4577006c808f{fill:none;stroke:#000;stroke-miterlimit:10;}.uuid-8325ce1b-3ad5-4a06-a579-434388afe855{fill:#b9dfee;}</style></defs><g id="uuid-9f992d5b-33b3-4a88-82bb-4fa133540dae"><rect class="uuid-8325ce1b-3ad5-4a06-a579-434388afe855" width="93.75" height="60"/><polyline class="uuid-2f8851b4-c367-4571-9307-4577006c808f" points="57.41 22.36 57.41 29.95 36.84 29.95 36.84 19 43.16 14.95 49.61 17.59"/><line class="uuid-2f8851b4-c367-4571-9307-4577006c808f" x1="48.41" y1="23.5" x2="57.41" y2="14.5"/><polyline class="uuid-2f8851b4-c367-4571-9307-4577006c808f" points="51.91 14.5 57.41 14.5 57.41 19.99"/><path d="M14.26,39.87h1.09l3.05,7.08h-1.44l-.66-1.62h-3.07l-.64,1.62h-1.41l3.08-7.08ZM15.86,44.25l-1.09-2.88-1.11,2.88h2.2Z"/><path d="M21.99,43.43c-.11-.14-.25-.26-.44-.37-.19-.1-.39-.16-.61-.16-.19,0-.37.04-.53.12s-.24.21-.24.4.09.32.27.39c.18.08.44.16.77.24.18.04.36.09.55.16.18.07.35.16.5.27.15.11.27.25.36.41.09.16.14.36.14.59,0,.29-.06.54-.17.75s-.26.37-.44.5c-.18.13-.4.22-.64.27-.24.06-.5.08-.75.08-.37,0-.74-.07-1.09-.21-.35-.14-.65-.33-.88-.58l.79-.74c.13.17.31.32.52.43s.45.17.71.17c.09,0,.18,0,.27-.03.09-.02.17-.05.25-.09.08-.04.14-.1.19-.17.05-.07.07-.16.07-.27,0-.2-.09-.34-.27-.43-.18-.09-.46-.17-.83-.26-.18-.04-.35-.09-.52-.16s-.32-.15-.46-.25-.24-.23-.32-.38-.12-.34-.12-.57c0-.27.06-.5.17-.69s.25-.35.44-.48c.18-.12.38-.21.61-.27.23-.06.46-.09.7-.09.35,0,.69.06,1.02.18.33.12.59.3.78.55l-.78.69Z"/><path d="M23.41,43.11v-.96h.84v-1.39h1.18v1.39h1.2v.96h-1.2v2.23c0,.21.04.39.12.53s.25.21.52.21c.08,0,.17,0,.26-.02s.18-.04.25-.08l.04.94c-.11.04-.23.07-.38.1-.15.02-.29.03-.42.03-.32,0-.58-.04-.78-.13-.2-.09-.36-.21-.48-.37-.12-.16-.2-.34-.24-.54-.04-.2-.06-.42-.06-.65v-2.24h-.84Z"/><path d="M32.1,44.61v.16c0,.05,0,.11,0,.16h-3.65c.01.17.06.33.13.47s.18.27.31.37c.13.1.27.18.43.25.16.06.33.09.5.09.3,0,.55-.05.76-.17s.38-.26.51-.46l.8.64c-.47.64-1.16.96-2.06.96-.37,0-.72-.06-1.03-.17-.31-.12-.59-.28-.82-.5-.23-.21-.41-.47-.54-.79-.13-.31-.19-.66-.19-1.05s.06-.74.19-1.05c.13-.32.31-.59.54-.81.23-.22.5-.4.81-.52s.65-.19,1-.19c.33,0,.64.06.92.17.28.11.53.27.74.49.21.22.37.49.48.81s.17.7.17,1.13ZM30.9,44.07c0-.15-.02-.3-.06-.44-.04-.14-.11-.26-.21-.37-.09-.11-.21-.19-.35-.25-.14-.06-.31-.09-.5-.09-.36,0-.67.11-.92.33s-.39.5-.42.83h2.46Z"/><path d="M33.31,42.15h1.15v.8h.02c.13-.28.32-.51.56-.68.24-.17.52-.26.84-.26.05,0,.1,0,.15,0,.05,0,.1.01.14.02v1.1c-.08-.02-.15-.03-.21-.04-.06,0-.11-.01-.17-.01-.27,0-.49.05-.66.15-.17.1-.3.22-.39.36-.09.14-.16.28-.19.43-.03.15-.05.26-.05.35v2.57h-1.2v-4.8Z"/><path d="M39.41,39.87h1.26v2.86h3.31v-2.86h1.26v7.08h-1.26v-3.14h-3.31v3.14h-1.26v-7.08Z"/><path d="M46.54,44.53c0-.38.07-.72.21-1.04.14-.31.32-.58.56-.79.23-.22.51-.39.83-.51.32-.12.66-.18,1.02-.18s.7.06,1.02.18c.32.12.6.29.83.51s.42.49.56.79c.14.31.21.66.21,1.04s-.07.73-.21,1.04-.32.58-.56.8c-.23.22-.51.4-.83.53-.32.13-.66.19-1.02.19s-.7-.06-1.02-.19c-.32-.13-.6-.3-.83-.53-.23-.22-.42-.49-.56-.8s-.21-.66-.21-1.04ZM47.76,44.53c0,.19.03.37.08.56.06.19.14.35.25.5.11.15.26.27.43.36.17.09.38.14.62.14s.45-.05.62-.14.32-.21.43-.36c.11-.15.2-.31.25-.5.06-.19.08-.37.08-.56s-.03-.37-.08-.55c-.06-.18-.14-.35-.25-.5-.11-.15-.26-.27-.43-.36s-.38-.13-.62-.13-.45.04-.62.13c-.17.09-.32.21-.43.36s-.2.31-.25.5c-.06.18-.08.37-.08.55Z"/><path d="M57.34,46.95h-1.14v-.77h-.02c-.11.24-.29.45-.56.63-.26.18-.57.27-.93.27-.31,0-.58-.05-.81-.17-.22-.11-.41-.25-.55-.43-.14-.18-.25-.39-.32-.62-.07-.23-.1-.47-.1-.72v-3h1.2v2.66c0,.14.01.29.03.44s.06.29.13.42c.07.12.16.23.27.3.12.08.27.12.46.12s.35-.04.5-.11c.14-.08.26-.18.35-.29.09-.12.16-.26.21-.42.05-.16.07-.32.07-.48v-2.64h1.2v4.8Z"/><path d="M61.52,43.43c-.11-.14-.25-.26-.44-.37-.19-.1-.39-.16-.61-.16-.19,0-.37.04-.53.12s-.24.21-.24.4.09.32.27.39c.18.08.44.16.77.24.18.04.36.09.55.16.18.07.35.16.5.27.15.11.27.25.36.41.09.16.14.36.14.59,0,.29-.06.54-.17.75s-.26.37-.44.5c-.18.13-.4.22-.64.27-.24.06-.5.08-.75.08-.37,0-.74-.07-1.09-.21-.35-.14-.65-.33-.88-.58l.79-.74c.13.17.31.32.52.43s.45.17.71.17c.09,0,.18,0,.27-.03.09-.02.17-.05.25-.09.08-.04.14-.1.19-.17.05-.07.07-.16.07-.27,0-.2-.09-.34-.27-.43-.18-.09-.46-.17-.83-.26-.18-.04-.35-.09-.52-.16s-.32-.15-.46-.25-.24-.23-.32-.38-.12-.34-.12-.57c0-.27.06-.5.17-.69s.25-.35.44-.48c.18-.12.38-.21.61-.27.23-.06.46-.09.7-.09.35,0,.69.06,1.02.18.33.12.59.3.78.55l-.78.69Z"/><path d="M67.98,44.61v.16c0,.05,0,.11,0,.16h-3.65c.01.17.06.33.13.47s.18.27.31.37c.13.1.27.18.43.25.16.06.33.09.5.09.3,0,.55-.05.76-.17s.38-.26.51-.46l.8.64c-.47.64-1.16.96-2.06.96-.37,0-.72-.06-1.03-.17-.31-.12-.59-.28-.82-.5-.23-.21-.41-.47-.54-.79-.13-.31-.19-.66-.19-1.05s.06-.74.19-1.05c.13-.32.31-.59.54-.81.23-.22.5-.4.81-.52s.65-.19,1-.19c.33,0,.64.06.92.17.28.11.53.27.74.49.21.22.37.49.48.81s.17.7.17,1.13ZM66.78,44.07c0-.15-.02-.3-.06-.44-.04-.14-.11-.26-.21-.37-.09-.11-.21-.19-.35-.25-.14-.06-.31-.09-.5-.09-.36,0-.67.11-.92.33s-.39.5-.42.83h2.46Z"/><path d="M71.75,39.87h1.26v2.86h3.31v-2.86h1.26v7.08h-1.26v-3.14h-3.31v3.14h-1.26v-7.08Z"/><path d="M79.37,39.87h2.31c.41,0,.77.04,1.1.11s.61.19.84.36c.23.17.41.38.54.64.13.26.19.57.19.94,0,.39-.07.72-.22.99-.15.27-.35.48-.6.65-.25.16-.54.28-.88.35s-.69.11-1.06.11h-.97v2.93h-1.26v-7.08ZM81.51,42.96c.21,0,.4-.01.59-.04.19-.03.35-.08.5-.16.15-.08.26-.18.35-.31.09-.13.13-.31.13-.52s-.04-.38-.13-.5c-.09-.13-.2-.23-.34-.3-.14-.07-.31-.12-.49-.15-.18-.02-.37-.03-.56-.03h-.92v2.03h.88Z"/></g></svg>