<?xml version="1.0" encoding="UTF-8"?><svg id="uuid-1113ce74-e075-4bfa-81d5-d5fccb498ad3" xmlns="http://www.w3.org/2000/svg" width="375" height="79.49" viewBox="0 0 375 79.49"><defs><style>.uuid-cbe27425-904d-4032-bd07-f473a09d46f7{fill:#231815;}.uuid-50755f28-ff61-4a9c-a6ff-e8f12a754789{fill:none;}</style></defs><g id="uuid-655a71d2-41b5-49da-8e2b-517cb4436b79"><path class="uuid-cbe27425-904d-4032-bd07-f473a09d46f7" d="M24.23,8.76h-.81v-.76h.91l.16-1.1h-.81v-.76h.91l.27-1.88h.79l-.27,1.88h.93l.27-1.88h.78l-.27,1.88h.81v.76h-.92l-.15,1.1h.81v.76h-.9l-.28,1.88h-.78l.27-1.88h-.94l-.27,1.88h-.78l.27-1.88ZM25.27,6.9l-.15,1.1h.93l.15-1.1h-.93Z"/><path class="uuid-cbe27425-904d-4032-bd07-f473a09d46f7" d="M29.35,4.27h1.13v2.57h2.98v-2.57h1.13v6.37h-1.13v-2.83h-2.98v2.83h-1.13v-6.37Z"/><path class="uuid-cbe27425-904d-4032-bd07-f473a09d46f7" d="M36.07,8.46c0-.34.06-.65.18-.93s.29-.52.5-.72.46-.35.75-.46c.29-.11.59-.16.92-.16s.63.05.92.16c.29.11.54.26.75.46s.38.44.5.72.18.59.18.93-.06.65-.18.94-.29.52-.5.72-.46.36-.75.47-.59.17-.92.17-.63-.06-.92-.17-.54-.27-.75-.47-.38-.44-.5-.72-.18-.59-.18-.94ZM37.17,8.46c0,.17.03.34.08.5s.13.32.23.45c.1.13.23.24.39.32.16.08.34.13.56.13s.4-.04.56-.13c.16-.08.29-.19.39-.32.1-.13.18-.28.23-.45.05-.17.08-.34.08-.5s-.03-.33-.08-.5c-.05-.17-.13-.31-.23-.45-.1-.13-.23-.24-.39-.32s-.34-.12-.56-.12-.4.04-.56.12c-.16.08-.28.19-.39.32-.1.13-.18.28-.23.45s-.08.33-.08.5Z"/><path class="uuid-cbe27425-904d-4032-bd07-f473a09d46f7" d="M46.1,10.64h-1.03v-.69h-.02c-.1.22-.26.41-.5.57-.24.16-.52.25-.84.25-.28,0-.52-.05-.72-.15s-.37-.23-.5-.39-.22-.35-.28-.56c-.06-.21-.09-.43-.09-.65v-2.7h1.08v2.39c0,.13,0,.26.03.4.02.14.06.26.12.37s.14.2.25.27c.1.07.24.11.42.11s.32-.03.45-.1c.13-.07.23-.16.32-.26.08-.11.14-.23.18-.37.04-.14.06-.28.06-.43v-2.38h1.08v4.32Z"/><path class="uuid-cbe27425-904d-4032-bd07-f473a09d46f7" d="M50.17,7.47c-.1-.13-.23-.24-.4-.33-.17-.09-.35-.14-.55-.14-.17,0-.33.04-.48.11-.14.07-.22.19-.22.36s.08.29.24.36.39.14.7.21c.16.04.33.08.49.14.17.06.31.14.45.24.13.1.24.22.33.37.08.15.13.33.13.54,0,.26-.05.49-.15.67-.1.18-.23.33-.4.45-.17.11-.36.2-.58.25-.22.05-.45.08-.68.08-.34,0-.66-.06-.98-.18-.32-.12-.58-.3-.79-.53l.71-.67c.12.16.28.29.47.39.19.1.4.15.64.15.08,0,.16,0,.24-.03.08-.02.16-.05.22-.08.07-.04.12-.09.17-.16.04-.07.06-.15.06-.24,0-.18-.08-.31-.25-.39-.17-.08-.41-.16-.74-.23-.16-.04-.32-.08-.47-.14s-.29-.13-.41-.23c-.12-.09-.22-.21-.29-.35-.07-.14-.11-.31-.11-.51,0-.24.05-.45.15-.62.1-.17.23-.32.39-.43.16-.11.34-.19.55-.25.2-.05.41-.08.63-.08.31,0,.62.05.91.16.3.11.53.27.71.5l-.7.62Z"/><path class="uuid-cbe27425-904d-4032-bd07-f473a09d46f7" d="M56.29,8.53v.14s0,.1,0,.14h-3.29c.01.16.05.3.12.43.07.13.16.24.27.33s.24.17.39.22c.14.05.29.08.45.08.27,0,.5-.05.68-.15.19-.1.34-.24.46-.41l.72.58c-.43.58-1.04.86-1.85.86-.34,0-.64-.05-.93-.16-.28-.11-.53-.25-.73-.45-.21-.19-.37-.43-.49-.71s-.17-.6-.17-.95.06-.67.17-.95c.12-.29.28-.53.48-.73s.45-.36.72-.47.58-.17.9-.17c.3,0,.58.05.83.15.25.1.48.25.66.44.19.2.33.44.44.73.11.29.16.63.16,1.02ZM55.21,8.05c0-.14-.02-.27-.06-.4s-.1-.24-.18-.33c-.08-.1-.19-.17-.32-.23-.13-.06-.28-.08-.46-.08-.32,0-.6.1-.82.29-.23.2-.35.45-.37.75h2.21Z"/><path class="uuid-cbe27425-904d-4032-bd07-f473a09d46f7" d="M64.69,5.76c-.17-.23-.39-.39-.66-.5-.27-.1-.53-.16-.79-.16-.33,0-.63.06-.9.18-.27.12-.5.29-.7.5-.2.21-.35.46-.45.74-.11.28-.16.59-.16.92,0,.35.05.67.15.95.1.29.25.54.44.74.19.21.42.37.68.48.26.11.56.17.89.17s.65-.07.91-.2.48-.31.64-.54l.91.64c-.28.35-.63.63-1.04.82-.41.2-.88.29-1.43.29-.5,0-.96-.08-1.37-.25-.42-.16-.78-.4-1.08-.69-.3-.3-.53-.65-.7-1.06-.17-.41-.25-.87-.25-1.36s.09-.97.26-1.38c.18-.41.42-.76.73-1.05.31-.29.67-.51,1.09-.67.42-.16.88-.23,1.37-.23.2,0,.42.02.64.06.22.04.43.1.64.18s.4.18.58.3.33.26.46.43l-.86.68Z"/><path class="uuid-cbe27425-904d-4032-bd07-f473a09d46f7" d="M66.46,8.46c0-.34.06-.65.18-.93s.29-.52.5-.72.46-.35.75-.46c.29-.11.59-.16.92-.16s.63.05.92.16c.29.11.54.26.75.46s.38.44.5.72.18.59.18.93-.06.65-.18.94-.29.52-.5.72-.46.36-.75.47-.59.17-.92.17-.63-.06-.92-.17-.54-.27-.75-.47-.38-.44-.5-.72-.18-.59-.18-.94ZM67.55,8.46c0,.17.03.34.08.5s.13.32.23.45c.1.13.23.24.39.32.16.08.34.13.56.13s.4-.04.56-.13c.16-.08.29-.19.39-.32.1-.13.18-.28.23-.45.05-.17.08-.34.08-.5s-.03-.33-.08-.5c-.05-.17-.13-.31-.23-.45-.1-.13-.23-.24-.39-.32s-.34-.12-.56-.12-.4.04-.56.12c-.16.08-.28.19-.39.32-.1.13-.18.28-.23.45s-.08.33-.08.5Z"/><path class="uuid-cbe27425-904d-4032-bd07-f473a09d46f7" d="M72.54,6.32h1.03v.69h.02c.1-.22.26-.41.5-.57s.52-.25.84-.25c.28,0,.52.05.72.15.2.1.37.23.5.39.13.16.22.35.28.56.06.21.09.43.09.65v2.7h-1.08v-2.39c0-.13,0-.26-.03-.4-.02-.14-.06-.26-.12-.37-.06-.11-.14-.2-.25-.28-.1-.07-.24-.11-.42-.11s-.32.03-.45.1-.23.16-.31.27c-.08.11-.14.23-.18.37-.04.14-.06.28-.06.43v2.38h-1.08v-4.32Z"/><path class="uuid-cbe27425-904d-4032-bd07-f473a09d46f7" d="M80.54,7.47c-.1-.13-.23-.24-.4-.33-.17-.09-.35-.14-.55-.14-.17,0-.33.04-.48.11-.14.07-.22.19-.22.36s.08.29.24.36.39.14.7.21c.16.04.33.08.49.14.17.06.31.14.45.24.13.1.24.22.33.37.08.15.13.33.13.54,0,.26-.05.49-.15.67-.1.18-.23.33-.4.45-.17.11-.36.2-.58.25-.22.05-.45.08-.68.08-.34,0-.66-.06-.98-.18-.32-.12-.58-.3-.79-.53l.71-.67c.12.16.28.29.47.39.19.1.4.15.64.15.08,0,.16,0,.24-.03.08-.02.16-.05.22-.08.07-.04.12-.09.17-.16.04-.07.06-.15.06-.24,0-.18-.08-.31-.25-.39-.17-.08-.41-.16-.74-.23-.16-.04-.32-.08-.47-.14s-.29-.13-.41-.23c-.12-.09-.22-.21-.29-.35-.07-.14-.11-.31-.11-.51,0-.24.05-.45.15-.62.1-.17.23-.32.39-.43.16-.11.34-.19.55-.25.2-.05.41-.08.63-.08.31,0,.62.05.91.16.3.11.53.27.71.5l-.7.62Z"/><path class="uuid-cbe27425-904d-4032-bd07-f473a09d46f7" d="M86.51,10.64h-1.03v-.69h-.02c-.1.22-.26.41-.5.57-.24.16-.52.25-.84.25-.28,0-.52-.05-.72-.15s-.37-.23-.5-.39-.22-.35-.28-.56c-.06-.21-.09-.43-.09-.65v-2.7h1.08v2.39c0,.13,0,.26.03.4.02.14.06.26.12.37s.14.2.25.27c.1.07.24.11.42.11s.32-.03.45-.1c.13-.07.23-.16.32-.26.08-.11.14-.23.18-.37.04-.14.06-.28.06-.43v-2.38h1.08v4.32Z"/><path class="uuid-cbe27425-904d-4032-bd07-f473a09d46f7" d="M88.17,3.84h1.08v6.8h-1.08V3.84Z"/><path class="uuid-cbe27425-904d-4032-bd07-f473a09d46f7" d="M90.34,7.18v-.86h.76v-1.25h1.06v1.25h1.08v.86h-1.08v2.01c0,.19.04.35.1.48.07.13.22.19.46.19.07,0,.15,0,.23-.02.08-.01.16-.04.22-.07l.04.85c-.1.04-.21.06-.34.09-.13.02-.26.03-.38.03-.29,0-.52-.04-.7-.12-.18-.08-.32-.19-.43-.33-.11-.14-.18-.3-.22-.49-.04-.18-.06-.38-.06-.59v-2.02h-.76Z"/><path class="uuid-cbe27425-904d-4032-bd07-f473a09d46f7" d="M97.16,10.09h-.03c-.11.19-.28.35-.52.47-.24.12-.51.18-.82.18-.17,0-.36-.02-.54-.07-.19-.04-.36-.12-.52-.22-.16-.1-.29-.24-.4-.41-.1-.17-.16-.38-.16-.63,0-.32.09-.58.27-.77.18-.19.42-.34.71-.44.29-.1.61-.17.96-.2.35-.03.69-.05,1.03-.05v-.11c0-.27-.1-.47-.29-.6s-.43-.19-.7-.19c-.23,0-.45.05-.66.14s-.38.21-.52.35l-.56-.66c.25-.23.53-.4.85-.51.32-.11.65-.17.98-.17.38,0,.7.05.95.16.25.11.45.25.59.42.14.17.24.37.3.58.06.22.08.43.08.65v2.63h-1.01v-.55ZM97.14,8.67h-.24c-.17,0-.36,0-.55.02-.19.01-.37.05-.53.1s-.3.12-.41.22c-.11.09-.16.22-.16.38,0,.1.02.19.07.26.04.07.1.12.18.17s.15.07.24.09c.09.02.18.03.27.03.37,0,.65-.1.85-.3.19-.2.29-.47.29-.81v-.15Z"/><path class="uuid-cbe27425-904d-4032-bd07-f473a09d46f7" d="M99.17,7.18v-.86h.76v-1.25h1.06v1.25h1.08v.86h-1.08v2.01c0,.19.04.35.1.48.07.13.22.19.46.19.07,0,.15,0,.23-.02.08-.01.16-.04.22-.07l.04.85c-.1.04-.21.06-.34.09-.13.02-.26.03-.38.03-.29,0-.52-.04-.7-.12-.18-.08-.32-.19-.43-.33-.11-.14-.18-.3-.22-.49-.04-.18-.06-.38-.06-.59v-2.02h-.76Z"/><path class="uuid-cbe27425-904d-4032-bd07-f473a09d46f7" d="M103.08,4.85c0-.17.06-.33.19-.45.13-.13.29-.19.49-.19s.36.06.5.18c.13.12.2.28.2.46s-.07.34-.2.46-.3.18-.5.18-.36-.06-.49-.19c-.13-.13-.19-.28-.19-.46ZM103.23,6.32h1.08v4.32h-1.08v-4.32Z"/><path class="uuid-cbe27425-904d-4032-bd07-f473a09d46f7" d="M105.7,8.46c0-.34.06-.65.18-.93s.29-.52.5-.72.46-.35.75-.46c.29-.11.59-.16.92-.16s.63.05.92.16c.29.11.54.26.75.46s.38.44.5.72.18.59.18.93-.06.65-.18.94-.29.52-.5.72-.46.36-.75.47-.59.17-.92.17-.63-.06-.92-.17-.54-.27-.75-.47-.38-.44-.5-.72-.18-.59-.18-.94ZM106.8,8.46c0,.17.03.34.08.5s.13.32.23.45c.1.13.23.24.39.32.16.08.34.13.56.13s.4-.04.56-.13c.16-.08.29-.19.39-.32.1-.13.18-.28.23-.45.05-.17.08-.34.08-.5s-.03-.33-.08-.5c-.05-.17-.13-.31-.23-.45-.1-.13-.23-.24-.39-.32s-.34-.12-.56-.12-.4.04-.56.12c-.16.08-.28.19-.39.32-.1.13-.18.28-.23.45s-.08.33-.08.5Z"/><path class="uuid-cbe27425-904d-4032-bd07-f473a09d46f7" d="M111.79,6.32h1.03v.69h.02c.1-.22.26-.41.5-.57s.52-.25.84-.25c.28,0,.52.05.72.15.2.1.37.23.5.39.13.16.22.35.28.56.06.21.09.43.09.65v2.7h-1.08v-2.39c0-.13,0-.26-.03-.4-.02-.14-.06-.26-.12-.37-.06-.11-.14-.2-.25-.28-.1-.07-.24-.11-.42-.11s-.32.03-.45.1-.23.16-.31.27c-.08.11-.14.23-.18.37-.04.14-.06.28-.06.43v2.38h-1.08v-4.32Z"/><path class="uuid-cbe27425-904d-4032-bd07-f473a09d46f7" d="M24.23,24.76h-.81v-.76h.91l.16-1.1h-.81v-.76h.91l.27-1.88h.79l-.27,1.88h.93l.27-1.88h.78l-.27,1.88h.81v.76h-.92l-.15,1.1h.81v.76h-.9l-.28,1.88h-.78l.27-1.88h-.94l-.27,1.88h-.78l.27-1.88ZM25.27,22.9l-.15,1.1h.93l.15-1.1h-.93Z"/><path class="uuid-cbe27425-904d-4032-bd07-f473a09d46f7" d="M29.35,20.27h4.22v.99h-3.09v1.62h2.92v.95h-2.92v1.8h3.25v1.01h-4.38v-6.37Z"/><path class="uuid-cbe27425-904d-4032-bd07-f473a09d46f7" d="M37.61,23.47c-.1-.13-.23-.24-.4-.33-.17-.09-.35-.14-.55-.14-.17,0-.33.04-.48.11-.14.07-.22.19-.22.36s.08.29.24.36.39.14.7.21c.16.04.33.08.49.14.17.06.31.14.45.24.13.1.24.22.33.37.08.15.13.33.13.54,0,.26-.05.49-.15.67-.1.18-.23.33-.4.45-.17.11-.36.2-.58.25-.22.05-.45.08-.68.08-.34,0-.66-.06-.98-.18-.32-.12-.58-.3-.79-.53l.71-.67c.12.16.28.29.47.39.19.1.4.15.64.15.08,0,.16,0,.24-.03.08-.02.16-.05.22-.08.07-.04.12-.09.17-.16.04-.07.06-.15.06-.24,0-.18-.08-.31-.25-.39-.17-.08-.41-.16-.74-.23-.16-.04-.32-.08-.47-.14s-.29-.13-.41-.23c-.12-.09-.22-.21-.29-.35-.07-.14-.11-.31-.11-.51,0-.24.05-.45.15-.62.1-.17.23-.32.39-.43.16-.11.34-.19.55-.25.2-.05.41-.08.63-.08.31,0,.62.05.91.16.3.11.53.27.71.5l-.7.62Z"/><path class="uuid-cbe27425-904d-4032-bd07-f473a09d46f7" d="M39.19,23.18v-.86h.76v-1.25h1.06v1.25h1.08v.86h-1.08v2.01c0,.19.04.35.1.48.07.13.22.19.46.19.07,0,.15,0,.23-.02.08-.01.16-.04.22-.07l.04.85c-.1.04-.21.06-.34.09-.13.02-.26.03-.38.03-.29,0-.52-.04-.7-.12-.18-.08-.32-.19-.43-.33-.11-.14-.18-.3-.22-.49-.04-.18-.06-.38-.06-.59v-2.02h-.76Z"/><path class="uuid-cbe27425-904d-4032-bd07-f473a09d46f7" d="M43.1,20.85c0-.17.06-.33.19-.45.13-.13.29-.19.49-.19s.36.06.5.18c.13.12.2.28.2.46s-.07.34-.2.46-.3.18-.5.18-.36-.06-.49-.19c-.13-.13-.19-.28-.19-.46ZM43.26,22.32h1.08v4.32h-1.08v-4.32Z"/><path class="uuid-cbe27425-904d-4032-bd07-f473a09d46f7" d="M51.15,22.19c.28,0,.52.05.72.15.2.1.37.23.5.39s.22.35.28.56c.06.21.09.43.09.65v2.7h-1.08v-2.39c0-.13,0-.26-.03-.4s-.06-.26-.12-.37c-.06-.11-.14-.2-.25-.28-.11-.07-.25-.11-.42-.11s-.31.04-.43.11c-.12.07-.22.17-.3.28-.08.11-.14.24-.17.38-.04.14-.05.28-.05.42v2.36h-1.08v-2.61c0-.27-.06-.49-.19-.67s-.33-.27-.61-.27c-.16,0-.3.03-.42.1s-.22.16-.29.27c-.07.11-.13.23-.17.37-.04.14-.06.28-.06.43v2.38h-1.08v-4.32h1.03v.69h.02c.05-.11.11-.21.19-.31.08-.1.18-.18.29-.26.11-.08.24-.14.38-.18.14-.04.3-.07.48-.07.34,0,.62.08.84.23.22.15.39.35.51.59.14-.26.34-.47.58-.61s.52-.21.85-.21Z"/><path class="uuid-cbe27425-904d-4032-bd07-f473a09d46f7" d="M57.03,26.09h-.03c-.11.19-.28.35-.52.47-.24.12-.51.18-.82.18-.17,0-.36-.02-.54-.07-.19-.04-.36-.12-.52-.22-.16-.1-.29-.24-.4-.41-.1-.17-.16-.38-.16-.63,0-.32.09-.58.27-.77.18-.19.42-.34.71-.44.29-.1.61-.17.96-.2.35-.03.69-.05,1.03-.05v-.11c0-.27-.1-.47-.29-.6s-.43-.19-.7-.19c-.23,0-.45.05-.66.14s-.38.21-.52.35l-.56-.66c.25-.23.53-.4.85-.51.32-.11.65-.17.98-.17.38,0,.7.05.95.16.25.11.45.25.59.42.14.17.24.37.3.58.06.22.08.43.08.65v2.63h-1.01v-.55ZM57.02,24.67h-.24c-.17,0-.36,0-.55.02-.19.01-.37.05-.53.1s-.3.12-.41.22c-.11.09-.16.22-.16.38,0,.1.02.19.07.26.04.07.1.12.18.17s.15.07.24.09c.09.02.18.03.27.03.37,0,.65-.1.85-.3.19-.2.29-.47.29-.81v-.15Z"/><path class="uuid-cbe27425-904d-4032-bd07-f473a09d46f7" d="M59.05,23.18v-.86h.76v-1.25h1.06v1.25h1.08v.86h-1.08v2.01c0,.19.04.35.1.48.07.13.22.19.46.19.07,0,.15,0,.23-.02.08-.01.16-.04.22-.07l.04.85c-.1.04-.21.06-.34.09-.13.02-.26.03-.38.03-.29,0-.52-.04-.7-.12-.18-.08-.32-.19-.43-.33-.11-.14-.18-.3-.22-.49-.04-.18-.06-.38-.06-.59v-2.02h-.76Z"/><path class="uuid-cbe27425-904d-4032-bd07-f473a09d46f7" d="M67.18,24.53v.14s0,.1,0,.14h-3.29c.01.16.05.3.12.43.07.13.16.24.27.33s.24.17.39.22c.14.05.29.08.45.08.27,0,.5-.05.68-.15.19-.1.34-.24.46-.41l.72.58c-.43.58-1.04.86-1.85.86-.34,0-.64-.05-.93-.16-.28-.11-.53-.25-.73-.45-.21-.19-.37-.43-.49-.71s-.17-.6-.17-.95.06-.67.17-.95c.12-.29.28-.53.48-.73s.45-.36.72-.47.58-.17.9-.17c.3,0,.58.05.83.15.25.1.48.25.66.44.19.2.33.44.44.73.11.29.16.63.16,1.02ZM66.1,24.05c0-.14-.02-.27-.06-.4s-.1-.24-.18-.33c-.08-.1-.19-.17-.32-.23-.13-.06-.28-.08-.46-.08-.32,0-.6.1-.82.29-.23.2-.35.45-.37.75h2.21Z"/><path class="uuid-cbe27425-904d-4032-bd07-f473a09d46f7" d="M24.23,40.76h-.81v-.76h.91l.16-1.1h-.81v-.76h.91l.27-1.88h.79l-.27,1.88h.93l.27-1.88h.78l-.27,1.88h.81v.76h-.92l-.15,1.1h.81v.76h-.9l-.28,1.88h-.78l.27-1.88h-.94l-.27,1.88h-.78l.27-1.88ZM25.27,38.9l-.15,1.1h.93l.15-1.1h-.93Z"/><path class="uuid-cbe27425-904d-4032-bd07-f473a09d46f7" d="M29.35,36.27h2.08c.37,0,.7.03.99.1.29.07.55.17.76.32.21.15.37.34.49.58.11.23.17.52.17.85,0,.35-.07.65-.2.89-.13.24-.31.43-.54.58-.22.15-.49.25-.79.32-.3.07-.62.1-.95.1h-.87v2.64h-1.13v-6.37ZM31.27,39.05c.19,0,.36-.01.53-.04.17-.03.32-.07.45-.14.13-.07.24-.16.31-.28s.12-.28.12-.47-.04-.34-.12-.45-.18-.21-.31-.27-.28-.11-.44-.13c-.17-.02-.33-.03-.51-.03h-.83v1.83h.79Z"/><path class="uuid-cbe27425-904d-4032-bd07-f473a09d46f7" d="M35.06,35.84h1.08v6.8h-1.08v-6.8Z"/><path class="uuid-cbe27425-904d-4032-bd07-f473a09d46f7" d="M40.49,42.09h-.03c-.11.19-.28.35-.52.47-.24.12-.51.18-.82.18-.17,0-.36-.02-.54-.07-.19-.04-.36-.12-.52-.22-.16-.1-.29-.24-.4-.41-.1-.17-.16-.38-.16-.63,0-.32.09-.58.27-.77.18-.19.42-.34.71-.44.29-.1.61-.17.96-.2.35-.03.69-.05,1.03-.05v-.11c0-.27-.1-.47-.29-.6s-.43-.19-.7-.19c-.23,0-.45.05-.66.14s-.38.21-.52.35l-.56-.66c.25-.23.53-.4.85-.51.32-.11.65-.17.98-.17.38,0,.7.05.95.16.25.11.45.25.59.42.14.17.24.37.3.58.06.22.08.43.08.65v2.63h-1.01v-.55ZM40.47,40.67h-.24c-.17,0-.36,0-.55.02-.19.01-.37.05-.53.1s-.3.12-.41.22c-.11.09-.16.22-.16.38,0,.1.02.19.07.26.04.07.1.12.18.17s.15.07.24.09c.09.02.18.03.27.03.37,0,.65-.1.85-.3.19-.2.29-.47.29-.81v-.15Z"/><path class="uuid-cbe27425-904d-4032-bd07-f473a09d46f7" d="M43.11,38.32h1.03v.69h.02c.1-.22.26-.41.5-.57s.52-.25.84-.25c.28,0,.52.05.72.15.2.1.37.23.5.39.13.16.22.35.28.56.06.21.09.43.09.65v2.7h-1.08v-2.39c0-.13,0-.26-.03-.4-.02-.14-.06-.26-.12-.37-.06-.11-.14-.2-.25-.28-.1-.07-.24-.11-.42-.11s-.32.03-.45.1-.23.16-.31.27c-.08.11-.14.23-.18.37-.04.14-.06.28-.06.43v2.38h-1.08v-4.32Z"/><path class="uuid-cbe27425-904d-4032-bd07-f473a09d46f7" d="M48.7,38.32h1.03v.69h.02c.1-.22.26-.41.5-.57s.52-.25.84-.25c.28,0,.52.05.72.15.2.1.37.23.5.39.13.16.22.35.28.56.06.21.09.43.09.65v2.7h-1.08v-2.39c0-.13,0-.26-.03-.4-.02-.14-.06-.26-.12-.37-.06-.11-.14-.2-.25-.28-.1-.07-.24-.11-.42-.11s-.32.03-.45.1-.23.16-.31.27c-.08.11-.14.23-.18.37-.04.14-.06.28-.06.43v2.38h-1.08v-4.32Z"/><path class="uuid-cbe27425-904d-4032-bd07-f473a09d46f7" d="M54.13,36.85c0-.17.06-.33.19-.45.13-.13.29-.19.49-.19s.36.06.5.18c.13.12.2.28.2.46s-.07.34-.2.46-.3.18-.5.18-.36-.06-.49-.19c-.13-.13-.19-.28-.19-.46ZM54.28,38.32h1.08v4.32h-1.08v-4.32Z"/><path class="uuid-cbe27425-904d-4032-bd07-f473a09d46f7" d="M57.02,38.32h1.03v.69h.02c.1-.22.26-.41.5-.57s.52-.25.84-.25c.28,0,.52.05.72.15.2.1.37.23.5.39.13.16.22.35.28.56.06.21.09.43.09.65v2.7h-1.08v-2.39c0-.13,0-.26-.03-.4-.02-.14-.06-.26-.12-.37-.06-.11-.14-.2-.25-.28-.1-.07-.24-.11-.42-.11s-.32.03-.45.1-.23.16-.31.27c-.08.11-.14.23-.18.37-.04.14-.06.28-.06.43v2.38h-1.08v-4.32Z"/><path class="uuid-cbe27425-904d-4032-bd07-f473a09d46f7" d="M67.01,38.32v3.93c0,.39-.05.74-.14,1.06-.1.31-.25.58-.45.8-.2.22-.45.39-.76.51-.31.12-.67.18-1.09.18-.17,0-.36-.02-.55-.04-.2-.03-.39-.08-.58-.13-.19-.06-.37-.14-.54-.23s-.33-.19-.47-.31l.62-.84c.21.2.45.35.71.45.26.11.53.16.8.16s.48-.04.65-.11c.18-.08.32-.18.42-.31.1-.13.18-.29.22-.47s.07-.38.07-.6v-.32h-.02c-.16.21-.36.38-.6.49-.24.11-.51.17-.81.17-.32,0-.62-.06-.88-.18-.26-.12-.49-.28-.67-.49-.18-.2-.33-.44-.43-.72-.1-.27-.15-.56-.15-.87s.05-.61.15-.88c.1-.28.24-.52.42-.72.18-.2.4-.37.67-.49.26-.12.55-.18.88-.18.31,0,.59.06.86.19.26.13.47.32.63.58h.02v-.65h1.03ZM64.7,39.07c-.2,0-.37.04-.53.11-.15.07-.28.17-.39.29-.1.12-.19.27-.24.44-.06.17-.08.35-.08.54,0,.17.03.34.08.5.06.16.14.31.24.44.11.13.23.23.39.31.15.08.33.12.52.12s.38-.04.54-.11c.16-.07.29-.17.41-.3.11-.13.2-.27.26-.44.06-.16.09-.34.09-.52s-.03-.36-.09-.53c-.06-.17-.15-.31-.26-.44-.11-.13-.25-.22-.4-.3-.16-.07-.33-.11-.53-.11Z"/><path class="uuid-cbe27425-904d-4032-bd07-f473a09d46f7" d="M24.23,56.76h-.81v-.76h.91l.16-1.1h-.81v-.76h.91l.27-1.88h.79l-.27,1.88h.93l.27-1.88h.78l-.27,1.88h.81v.76h-.92l-.15,1.1h.81v.76h-.9l-.28,1.88h-.78l.27-1.88h-.94l-.27,1.88h-.78l.27-1.88ZM25.27,54.9l-.15,1.1h.93l.15-1.1h-.93Z"/><path class="uuid-cbe27425-904d-4032-bd07-f473a09d46f7" d="M29.35,52.27h1.13v5.36h2.71v1.01h-3.84v-6.37Z"/><path class="uuid-cbe27425-904d-4032-bd07-f473a09d46f7" d="M37.1,58.09h-.03c-.11.19-.28.35-.52.47-.24.12-.51.18-.82.18-.17,0-.36-.02-.54-.07-.19-.04-.36-.12-.52-.22-.16-.1-.29-.24-.4-.41-.1-.17-.16-.38-.16-.63,0-.32.09-.58.27-.77.18-.19.42-.34.71-.44.29-.1.61-.17.96-.2.35-.03.69-.05,1.03-.05v-.11c0-.27-.1-.47-.29-.6s-.43-.19-.7-.19c-.23,0-.45.05-.66.14s-.38.21-.52.35l-.56-.66c.25-.23.53-.4.85-.51.32-.11.65-.17.98-.17.38,0,.7.05.95.16.25.11.45.25.59.42.14.17.24.37.3.58.06.22.08.43.08.65v2.63h-1.01v-.55ZM37.08,56.67h-.24c-.17,0-.36,0-.55.02-.19.01-.37.05-.53.1s-.3.12-.41.22c-.11.09-.16.22-.16.38,0,.1.02.19.07.26.04.07.1.12.18.17s.15.07.24.09c.09.02.18.03.27.03.37,0,.65-.1.85-.3.19-.2.29-.47.29-.81v-.15Z"/><path class="uuid-cbe27425-904d-4032-bd07-f473a09d46f7" d="M39.73,54.32h1.03v.69h.02c.1-.22.26-.41.5-.57s.52-.25.84-.25c.28,0,.52.05.72.15.2.1.37.23.5.39.13.16.22.35.28.56.06.21.09.43.09.65v2.7h-1.08v-2.39c0-.13,0-.26-.03-.4-.02-.14-.06-.26-.12-.37-.06-.11-.14-.2-.25-.28-.1-.07-.24-.11-.42-.11s-.32.03-.45.1-.23.16-.31.27c-.08.11-.14.23-.18.37-.04.14-.06.28-.06.43v2.38h-1.08v-4.32Z"/><path class="uuid-cbe27425-904d-4032-bd07-f473a09d46f7" d="M49.72,58.64h-1.03v-.65h-.02c-.15.25-.36.44-.63.58-.27.13-.55.2-.86.2-.33,0-.62-.06-.89-.18-.26-.12-.48-.29-.67-.5-.18-.21-.32-.45-.42-.73-.1-.28-.15-.58-.15-.9s.05-.62.15-.89c.1-.28.25-.52.43-.72.19-.2.41-.36.67-.48s.54-.18.85-.18c.2,0,.38.02.53.07.16.04.29.1.41.17.12.07.22.14.3.22s.15.15.21.22h.03v-3.03h1.08v6.8ZM46.16,56.46c0,.17.03.34.08.5s.13.32.23.45c.1.13.23.24.39.32.16.08.34.13.55.13.2,0,.38-.04.53-.12s.29-.19.4-.32c.11-.13.2-.28.25-.45.06-.17.09-.33.09-.5s-.03-.34-.09-.5c-.06-.17-.14-.32-.25-.45-.11-.13-.24-.24-.4-.32-.16-.08-.33-.13-.53-.13-.21,0-.39.04-.55.12s-.29.19-.39.32c-.1.13-.18.28-.23.45s-.08.33-.08.5Z"/><path class="uuid-cbe27425-904d-4032-bd07-f473a09d46f7" d="M53.78,52.27h1.13v6.37h-1.13v-6.37Z"/><path class="uuid-cbe27425-904d-4032-bd07-f473a09d46f7" d="M56.63,54.32h1.03v.69h.02c.1-.22.26-.41.5-.57s.52-.25.84-.25c.28,0,.52.05.72.15.2.1.37.23.5.39.13.16.22.35.28.56.06.21.09.43.09.65v2.7h-1.08v-2.39c0-.13,0-.26-.03-.4-.02-.14-.06-.26-.12-.37-.06-.11-.14-.2-.25-.28-.1-.07-.24-.11-.42-.11s-.32.03-.45.1-.23.16-.31.27c-.08.11-.14.23-.18.37-.04.14-.06.28-.06.43v2.38h-1.08v-4.32Z"/><path class="uuid-cbe27425-904d-4032-bd07-f473a09d46f7" d="M62.43,55.18h-.82v-.86h.82v-.64c0-.26.03-.51.08-.74.06-.24.15-.45.29-.63s.31-.32.54-.43c.22-.1.5-.16.84-.16.12,0,.22,0,.3.01s.16.03.25.05l-.07.92c-.06-.02-.12-.03-.19-.04-.07-.01-.14-.02-.22-.02-.16,0-.28.03-.38.09-.1.06-.17.14-.22.23s-.08.2-.1.31c-.02.11-.03.23-.03.33v.7h1v.86h-1v3.46h-1.08v-3.46Z"/><path class="uuid-cbe27425-904d-4032-bd07-f473a09d46f7" d="M65.3,56.46c0-.34.06-.65.18-.93s.29-.52.5-.72.46-.35.75-.46c.29-.11.59-.16.92-.16s.63.05.92.16c.29.11.54.26.75.46s.38.44.5.72.18.59.18.93-.06.65-.18.94-.29.52-.5.72-.46.36-.75.47-.59.17-.92.17-.63-.06-.92-.17-.54-.27-.75-.47-.38-.44-.5-.72-.18-.59-.18-.94ZM66.4,56.46c0,.17.03.34.08.5s.13.32.23.45c.1.13.23.24.39.32.16.08.34.13.56.13s.4-.04.56-.13c.16-.08.29-.19.39-.32.1-.13.18-.28.23-.45.05-.17.08-.34.08-.5s-.03-.33-.08-.5c-.05-.17-.13-.31-.23-.45-.1-.13-.23-.24-.39-.32s-.34-.12-.56-.12-.4.04-.56.12c-.16.08-.28.19-.39.32-.1.13-.18.28-.23.45s-.08.33-.08.5Z"/><path class="uuid-cbe27425-904d-4032-bd07-f473a09d46f7" d="M76.55,54.19c.28,0,.52.05.72.15.2.1.37.23.5.39s.22.35.28.56c.06.21.09.43.09.65v2.7h-1.08v-2.39c0-.13,0-.26-.03-.4s-.06-.26-.12-.37c-.06-.11-.14-.2-.25-.28-.11-.07-.25-.11-.42-.11s-.31.04-.43.11c-.12.07-.22.17-.3.28-.08.11-.14.24-.17.38-.04.14-.05.28-.05.42v2.36h-1.08v-2.61c0-.27-.06-.49-.19-.67s-.33-.27-.61-.27c-.16,0-.3.03-.42.1s-.22.16-.29.27c-.07.11-.13.23-.17.37-.04.14-.06.28-.06.43v2.38h-1.08v-4.32h1.03v.69h.02c.05-.11.11-.21.19-.31.08-.1.18-.18.29-.26.11-.08.24-.14.38-.18.14-.04.3-.07.48-.07.34,0,.62.08.84.23.22.15.39.35.51.59.14-.26.34-.47.58-.61s.52-.21.85-.21Z"/><path class="uuid-cbe27425-904d-4032-bd07-f473a09d46f7" d="M82.44,58.09h-.03c-.11.19-.28.35-.52.47-.24.12-.51.18-.82.18-.17,0-.36-.02-.54-.07-.19-.04-.36-.12-.52-.22-.16-.1-.29-.24-.4-.41-.1-.17-.16-.38-.16-.63,0-.32.09-.58.27-.77.18-.19.42-.34.71-.44.29-.1.61-.17.96-.2.35-.03.69-.05,1.03-.05v-.11c0-.27-.1-.47-.29-.6s-.43-.19-.7-.19c-.23,0-.45.05-.66.14s-.38.21-.52.35l-.56-.66c.25-.23.53-.4.85-.51.32-.11.65-.17.98-.17.38,0,.7.05.95.16.25.11.45.25.59.42.14.17.24.37.3.58.06.22.08.43.08.65v2.63h-1.01v-.55ZM82.42,56.67h-.24c-.17,0-.36,0-.55.02-.19.01-.37.05-.53.1s-.3.12-.41.22c-.11.09-.16.22-.16.38,0,.1.02.19.07.26.04.07.1.12.18.17s.15.07.24.09c.09.02.18.03.27.03.37,0,.65-.1.85-.3.19-.2.29-.47.29-.81v-.15Z"/><path class="uuid-cbe27425-904d-4032-bd07-f473a09d46f7" d="M84.45,55.18v-.86h.76v-1.25h1.06v1.25h1.08v.86h-1.08v2.01c0,.19.04.35.1.48.07.13.22.19.46.19.07,0,.15,0,.23-.02.08-.01.16-.04.22-.07l.04.85c-.1.04-.21.06-.34.09-.13.02-.26.03-.38.03-.29,0-.52-.04-.7-.12-.18-.08-.32-.19-.43-.33-.11-.14-.18-.3-.22-.49-.04-.18-.06-.38-.06-.59v-2.02h-.76Z"/><path class="uuid-cbe27425-904d-4032-bd07-f473a09d46f7" d="M88.36,52.85c0-.17.06-.33.19-.45.13-.13.29-.19.49-.19s.36.06.5.18c.13.12.2.28.2.46s-.07.34-.2.46-.3.18-.5.18-.36-.06-.49-.19c-.13-.13-.19-.28-.19-.46ZM88.51,54.32h1.08v4.32h-1.08v-4.32Z"/><path class="uuid-cbe27425-904d-4032-bd07-f473a09d46f7" d="M90.98,56.46c0-.34.06-.65.18-.93s.29-.52.5-.72.46-.35.75-.46c.29-.11.59-.16.92-.16s.63.05.92.16c.29.11.54.26.75.46s.38.44.5.72.18.59.18.93-.06.65-.18.94-.29.52-.5.72-.46.36-.75.47-.59.17-.92.17-.63-.06-.92-.17-.54-.27-.75-.47-.38-.44-.5-.72-.18-.59-.18-.94ZM92.07,56.46c0,.17.03.34.08.5s.13.32.23.45c.1.13.23.24.39.32.16.08.34.13.56.13s.4-.04.56-.13c.16-.08.29-.19.39-.32.1-.13.18-.28.23-.45.05-.17.08-.34.08-.5s-.03-.33-.08-.5c-.05-.17-.13-.31-.23-.45-.1-.13-.23-.24-.39-.32s-.34-.12-.56-.12-.4.04-.56.12c-.16.08-.28.19-.39.32-.1.13-.18.28-.23.45s-.08.33-.08.5Z"/><path class="uuid-cbe27425-904d-4032-bd07-f473a09d46f7" d="M97.06,54.32h1.03v.69h.02c.1-.22.26-.41.5-.57s.52-.25.84-.25c.28,0,.52.05.72.15.2.1.37.23.5.39.13.16.22.35.28.56.06.21.09.43.09.65v2.7h-1.08v-2.39c0-.13,0-.26-.03-.4-.02-.14-.06-.26-.12-.37-.06-.11-.14-.2-.25-.28-.1-.07-.24-.11-.42-.11s-.32.03-.45.1-.23.16-.31.27c-.08.11-.14.23-.18.37-.04.14-.06.28-.06.43v2.38h-1.08v-4.32Z"/><path class="uuid-cbe27425-904d-4032-bd07-f473a09d46f7" d="M24.23,72.76h-.81v-.76h.91l.16-1.1h-.81v-.76h.91l.27-1.88h.79l-.27,1.88h.93l.27-1.88h.78l-.27,1.88h.81v.76h-.92l-.15,1.1h.81v.76h-.9l-.28,1.88h-.78l.27-1.88h-.94l-.27,1.88h-.78l.27-1.88ZM25.27,70.9l-.15,1.1h.93l.15-1.1h-.93Z"/><path class="uuid-cbe27425-904d-4032-bd07-f473a09d46f7" d="M29.35,68.27h1.77l1.66,4.53h.03l1.64-4.53h1.78v6.37h-1.12v-5.12h-.02l-1.93,5.12h-.79l-1.91-5.12h-.02v5.12h-1.08v-6.37Z"/><path class="uuid-cbe27425-904d-4032-bd07-f473a09d46f7" d="M40.65,74.09h-.03c-.11.19-.28.35-.52.47-.24.12-.51.18-.82.18-.17,0-.36-.02-.54-.07-.19-.04-.36-.12-.52-.22-.16-.1-.29-.24-.4-.41-.1-.17-.16-.38-.16-.63,0-.32.09-.58.27-.77.18-.19.42-.34.71-.44.29-.1.61-.17.96-.2.35-.03.69-.05,1.03-.05v-.11c0-.27-.1-.47-.29-.6s-.43-.19-.7-.19c-.23,0-.45.05-.66.14s-.38.21-.52.35l-.56-.66c.25-.23.53-.4.85-.51.32-.11.65-.17.98-.17.38,0,.7.05.95.16.25.11.45.25.59.42.14.17.24.37.3.58.06.22.08.43.08.65v2.63h-1.01v-.55ZM40.63,72.67h-.24c-.17,0-.36,0-.55.02-.19.01-.37.05-.53.1s-.3.12-.41.22c-.11.09-.16.22-.16.38,0,.1.02.19.07.26.04.07.1.12.18.17s.15.07.24.09c.09.02.18.03.27.03.37,0,.65-.1.85-.3.19-.2.29-.47.29-.81v-.15Z"/><path class="uuid-cbe27425-904d-4032-bd07-f473a09d46f7" d="M43.11,68.85c0-.17.06-.33.19-.45.13-.13.29-.19.49-.19s.36.06.5.18c.13.12.2.28.2.46s-.07.34-.2.46-.3.18-.5.18-.36-.06-.49-.19c-.13-.13-.19-.28-.19-.46ZM43.27,70.32h1.08v4.32h-1.08v-4.32Z"/><path class="uuid-cbe27425-904d-4032-bd07-f473a09d46f7" d="M46,70.32h1.03v.69h.02c.1-.22.26-.41.5-.57s.52-.25.84-.25c.28,0,.52.05.72.15.2.1.37.23.5.39.13.16.22.35.28.56.06.21.09.43.09.65v2.7h-1.08v-2.39c0-.13,0-.26-.03-.4-.02-.14-.06-.26-.12-.37-.06-.11-.14-.2-.25-.28-.1-.07-.24-.11-.42-.11s-.32.03-.45.1-.23.16-.31.27c-.08.11-.14.23-.18.37-.04.14-.06.28-.06.43v2.38h-1.08v-4.32Z"/><path class="uuid-cbe27425-904d-4032-bd07-f473a09d46f7" d="M50.99,71.18v-.86h.76v-1.25h1.06v1.25h1.08v.86h-1.08v2.01c0,.19.04.35.1.48.07.13.22.19.46.19.07,0,.15,0,.23-.02.08-.01.16-.04.22-.07l.04.85c-.1.04-.21.06-.34.09-.13.02-.26.03-.38.03-.29,0-.52-.04-.7-.12-.18-.08-.32-.19-.43-.33-.11-.14-.18-.3-.22-.49-.04-.18-.06-.38-.06-.59v-2.02h-.76Z"/><path class="uuid-cbe27425-904d-4032-bd07-f473a09d46f7" d="M59.12,72.53v.14s0,.1,0,.14h-3.29c.01.16.05.3.12.43.07.13.16.24.27.33s.24.17.39.22c.14.05.29.08.45.08.27,0,.5-.05.68-.15.19-.1.34-.24.46-.41l.72.58c-.43.58-1.04.86-1.85.86-.34,0-.64-.05-.93-.16-.28-.11-.53-.25-.73-.45-.21-.19-.37-.43-.49-.71s-.17-.6-.17-.95.06-.67.17-.95c.12-.29.28-.53.48-.73s.45-.36.72-.47.58-.17.9-.17c.3,0,.58.05.83.15.25.1.48.25.66.44.19.2.33.44.44.73.11.29.16.63.16,1.02ZM58.04,72.05c0-.14-.02-.27-.06-.4s-.1-.24-.18-.33c-.08-.1-.19-.17-.32-.23-.13-.06-.28-.08-.46-.08-.32,0-.6.1-.82.29-.23.2-.35.45-.37.75h2.21Z"/><path class="uuid-cbe27425-904d-4032-bd07-f473a09d46f7" d="M60.52,70.32h1.03v.69h.02c.1-.22.26-.41.5-.57s.52-.25.84-.25c.28,0,.52.05.72.15.2.1.37.23.5.39.13.16.22.35.28.56.06.21.09.43.09.65v2.7h-1.08v-2.39c0-.13,0-.26-.03-.4-.02-.14-.06-.26-.12-.37-.06-.11-.14-.2-.25-.28-.1-.07-.24-.11-.42-.11s-.32.03-.45.1-.23.16-.31.27c-.08.11-.14.23-.18.37-.04.14-.06.28-.06.43v2.38h-1.08v-4.32Z"/><path class="uuid-cbe27425-904d-4032-bd07-f473a09d46f7" d="M68.8,74.09h-.03c-.11.19-.28.35-.52.47-.24.12-.51.18-.82.18-.17,0-.36-.02-.54-.07-.19-.04-.36-.12-.52-.22-.16-.1-.29-.24-.4-.41-.1-.17-.16-.38-.16-.63,0-.32.09-.58.27-.77.18-.19.42-.34.71-.44.29-.1.61-.17.96-.2.35-.03.69-.05,1.03-.05v-.11c0-.27-.1-.47-.29-.6s-.43-.19-.7-.19c-.23,0-.45.05-.66.14s-.38.21-.52.35l-.56-.66c.25-.23.53-.4.85-.51.32-.11.65-.17.98-.17.38,0,.7.05.95.16.25.11.45.25.59.42.14.17.24.37.3.58.06.22.08.43.08.65v2.63h-1.01v-.55ZM68.78,72.67h-.24c-.17,0-.36,0-.55.02-.19.01-.37.05-.53.1s-.3.12-.41.22c-.11.09-.16.22-.16.38,0,.1.02.19.07.26.04.07.1.12.18.17s.15.07.24.09c.09.02.18.03.27.03.37,0,.65-.1.85-.3.19-.2.29-.47.29-.81v-.15Z"/><path class="uuid-cbe27425-904d-4032-bd07-f473a09d46f7" d="M71.42,70.32h1.03v.69h.02c.1-.22.26-.41.5-.57s.52-.25.84-.25c.28,0,.52.05.72.15.2.1.37.23.5.39.13.16.22.35.28.56.06.21.09.43.09.65v2.7h-1.08v-2.39c0-.13,0-.26-.03-.4-.02-.14-.06-.26-.12-.37-.06-.11-.14-.2-.25-.28-.1-.07-.24-.11-.42-.11s-.32.03-.45.1-.23.16-.31.27c-.08.11-.14.23-.18.37-.04.14-.06.28-.06.43v2.38h-1.08v-4.32Z"/><path class="uuid-cbe27425-904d-4032-bd07-f473a09d46f7" d="M79.96,71.52c-.08-.12-.21-.22-.38-.3s-.34-.12-.51-.12c-.2,0-.37.04-.52.12-.15.08-.27.19-.37.32-.1.13-.17.28-.22.45s-.07.33-.07.5.03.33.08.5.13.31.23.45c.1.13.23.24.38.32.15.08.33.12.54.12.17,0,.34-.03.5-.1.17-.07.3-.16.41-.29l.67.68c-.18.19-.41.34-.69.45-.28.1-.58.16-.9.16s-.62-.05-.91-.15c-.28-.1-.53-.25-.75-.45-.21-.2-.38-.44-.5-.72-.12-.28-.18-.6-.18-.96s.06-.66.18-.95c.12-.28.29-.52.5-.72s.45-.35.73-.46c.28-.11.58-.16.9-.16s.63.06.92.18.53.29.71.49l-.74.65Z"/><path class="uuid-cbe27425-904d-4032-bd07-f473a09d46f7" d="M85.83,72.53v.14s0,.1,0,.14h-3.29c.01.16.05.3.12.43.07.13.16.24.27.33s.24.17.39.22c.14.05.29.08.45.08.27,0,.5-.05.68-.15.19-.1.34-.24.46-.41l.72.58c-.43.58-1.04.86-1.85.86-.34,0-.64-.05-.93-.16-.28-.11-.53-.25-.73-.45-.21-.19-.37-.43-.49-.71s-.17-.6-.17-.95.06-.67.17-.95c.12-.29.28-.53.48-.73s.45-.36.72-.47.58-.17.9-.17c.3,0,.58.05.83.15.25.1.48.25.66.44.19.2.33.44.44.73.11.29.16.63.16,1.02ZM84.76,72.05c0-.14-.02-.27-.06-.4s-.1-.24-.18-.33c-.08-.1-.19-.17-.32-.23-.13-.06-.28-.08-.46-.08-.32,0-.6.1-.82.29-.23.2-.35.45-.37.75h2.21Z"/><rect class="uuid-50755f28-ff61-4a9c-a6ff-e8f12a754789" width="375" height="79.49"/></g></svg>