<?xml version="1.0" encoding="UTF-8"?><svg id="uuid-64eab2e3-44a4-49d4-8aac-4306e66de343" xmlns="http://www.w3.org/2000/svg" width="375" height="125.2" viewBox="0 0 375 125.2"><defs><style>.uuid-408de96c-e11c-4637-adb1-956a4ee4137c{fill:none;}.uuid-0ebb2974-8c38-4c6a-b6a2-ad2786a8255f{fill:#b11f3a;}.uuid-8fadd5f2-297f-435c-9a4e-f498df745573{fill:#1c1c1c;}</style></defs><g id="uuid-159b715a-9bf1-4905-ae59-1d11cf0e4ab6"><path class="uuid-8fadd5f2-297f-435c-9a4e-f498df745573" d="M174.56,111.36c-.39.29-.78.54-1.16.76,1.51,1.85,2.23,3.93,2.23,6.02,0,2.38-.58,3.18-2.57,3.18-.29,0-.58,0-.88-.03q-.46-.03-.54-.46c-.12-.49-.27-.92-.49-1.22.75.08,1.41.1,1.77.1.71,0,1.04-.2,1.04-1.63,0-.31-.02-.63-.05-.92-2.01,1.53-3.98,2.57-6.34,3.45-.2.07-.32.12-.41.12-.14,0-.2-.1-.34-.37-.26-.48-.44-.68-.8-.99,3.04-.88,5.37-2.04,7.55-3.76-.1-.27-.2-.54-.34-.82-1.65,1.09-3.38,1.87-5.37,2.57-.2.07-.32.12-.41.12-.12,0-.19-.1-.32-.36-.22-.39-.48-.7-.75-.95,2.6-.58,4.35-1.38,6.19-2.55-.15-.24-.31-.48-.49-.71-1.17.61-2.33,1.07-3.65,1.48-.49.14-.51.12-.7-.2-.27-.51-.44-.7-.78-1,2.24-.48,3.89-1.05,5.32-1.82h-.88c-1.61,0-2.18.03-2.28.03-.19,0-.2-.02-.2-.2v-1.07c0-.19.02-.2.2-.2.1,0,.66.03,2.28.03h4.83c1.63,0,2.19-.03,2.29-.03.17,0,.19.02.19.2v1.07c0,.19-.02.2-.19.2-.1,0-.66-.03-2.24-.03.22.92.49,1.75.83,2.5.32-.31.65-.63,1.05-1.11.29-.32.54-.71.73-1.02.53.36.9.65,1.24.95.19.14.25.24.25.34,0,.14-.12.22-.22.25-.22.08-.39.32-.75.68-.51.49-1.04.97-1.53,1.36.92,1.41,2.16,2.55,3.82,3.52-.36.36-.66.7-.92,1.17-.15.27-.22.39-.34.39-.07,0-.17-.08-.36-.2-2.87-2.11-4.44-4.98-5.42-8.84h-.08ZM178.52,107.25c1.56,0,2.12-.03,2.24-.03.17,0,.19.02.19.19,0,.1-.03.39-.03.82v.7c0,1.44.03,1.72.03,1.82,0,.17-.02.19-.19.19h-1.39c-.17,0-.19-.02-.19-.19v-2.01h-10.81v2.01c0,.17-.02.19-.19.19h-1.39c-.17,0-.19-.02-.19-.19,0-.1.03-.37.03-1.82v-.56c0-.56-.03-.83-.03-.95,0-.17.02-.19.19-.19.12,0,.68.03,2.24.03h3.72v-.03c0-.56-.02-1.02-.12-1.45.61.02,1.24.05,1.84.1.17.02.25.08.25.15,0,.12-.05.2-.1.34-.05.14-.08.36-.08.85v.03h3.98Z"/><path class="uuid-8fadd5f2-297f-435c-9a4e-f498df745573" d="M185.97,110.77c2.62-.88,4.74-1.41,6.12-1.41,3.04,0,5,1.84,5,4.5,0,2.23-.97,3.64-2.99,4.73-1.43.8-2.75,1.07-4.32,1.41-.34.07-.48.05-.59-.27-.2-.48-.63-.99-1.19-1.34,2.24-.37,3.45-.7,4.61-1.26,1.44-.73,2.35-1.82,2.35-3.38s-1.04-2.58-2.92-2.58c-1.53,0-3.55.61-6.14,1.75-.54.27-.97.46-1.17.61-.24.2-.37.25-.46.25-.17,0-.31-.1-.49-.36-.31-.37-.73-1.04-1.09-1.77.75-.08,1.38-.24,3.3-.88ZM195.2,107.17c.08-.07.15-.05.25.03.53.41,1.14,1.09,1.61,1.82.07.1.07.19-.05.27l-.71.53c-.12.08-.2.07-.29-.05-.51-.78-1.05-1.43-1.72-1.97l.9-.63ZM196.72,106.06c.1-.07.15-.05.25.03.63.48,1.24,1.16,1.61,1.75.07.1.08.2-.05.31l-.68.53c-.14.1-.22.05-.29-.05-.46-.73-1-1.38-1.7-1.96l.85-.61Z"/><path class="uuid-8fadd5f2-297f-435c-9a4e-f498df745573" d="M208.7,107.56c.08.07.14.2.14.27,0,.15-.08.25-.24.32-.2.1-.46.25-.82.59-1.46,1.31-3.33,3.06-4.64,4.42-.15.19-.22.29-.22.37,0,.1.07.19.22.31,2.21,1.6,4.5,3.45,6.32,5.35.07.08.12.15.12.22s-.03.12-.12.2c-.39.43-.88.92-1.17,1.17-.1.09-.17.14-.24.14s-.12-.05-.2-.15c-1.97-2.21-3.88-3.98-6.19-5.75-.65-.49-.9-.87-.9-1.43s.31-.94.83-1.5c1.44-1.56,2.86-2.97,4.32-4.57.46-.49.71-.85.92-1.28.75.44,1.39.88,1.87,1.29Z"/><path class="uuid-8fadd5f2-297f-435c-9a4e-f498df745573" d="M216.54,107c.22.08.32.19.32.34,0,.1-.03.17-.12.27-.12.14-.2.37-.31.8-.24,1.16-.37,2.36-.48,3.25-.03.61-.08,1.26-.05,1.87.37-.66.73-1.31,1.19-2.18.15.51.32.82.53,1.1.08.1.1.19.1.27,0,.14-.07.27-.17.43-.37.71-.77,1.43-1,2.18-.05.15-.07.31-.08.51,0,.17-.07.24-.22.27-.2.05-.94.15-1.36.2-.12.02-.2-.1-.24-.22-.27-.73-.51-2.04-.51-3.45,0-1.14.19-2.53.41-4.23.07-.59.14-1.17.14-1.94.77.15,1.41.32,1.85.53ZM222.07,106.71c.34.08.37.17.34.46-.03.24-.03.54-.03.78.12,1.62.24,3.16.24,4.39,0,2.41-.39,4.5-1.29,5.9-.66,1.05-1.73,2.06-2.8,2.74-.12.08-.24.12-.34.12-.12,0-.22-.05-.36-.19-.37-.32-.9-.63-1.44-.78,1.38-.76,2.21-1.38,2.89-2.28.99-1.34,1.43-2.74,1.43-5.42,0-1.21-.08-2.97-.2-4.06-.08-.83-.17-1.26-.36-1.85.75.03,1.44.07,1.94.2Z"/><path class="uuid-8fadd5f2-297f-435c-9a4e-f498df745573" d="M228.81,121.41c-.17,0-.19-.02-.19-.19,0-.31.08-3.67.12-7.72-.44,1.36-1.09,2.67-1.92,3.89-.12.17-.2.25-.27.25s-.12-.08-.17-.27c-.15-.54-.37-1.07-.61-1.45,1.19-1.39,2.12-3.11,2.77-5.17h-.39c-1.24,0-1.65.03-1.75.03-.17,0-.19-.02-.19-.19v-1.24c0-.17.02-.19.19-.19.1,0,.51.03,1.75.03h.54v-1.05c0-1.05-.02-1.6-.14-2.31.61.02,1.16.05,1.7.12.17.02.27.08.27.17,0,.15-.05.24-.1.36-.08.2-.12.48-.12,1.65v1.07c1.26,0,1.67-.03,1.77-.03.17,0,.19.02.19.19v1.24c0,.17-.02.19-.19.19-.1,0-.49-.03-1.67-.03.49,1.16,1.38,2.29,2.24,3.25-.24.36-.44.78-.65,1.31-.08.19-.14.27-.19.27-.07,0-.14-.08-.24-.24-.54-.78-1-1.61-1.33-2.53.02,4.5.12,8.09.12,8.4,0,.17-.02.19-.19.19h-1.38ZM233.23,121.32c-.17,0-.19-.02-.19-.17,0-.1.03-1.22.03-6.43v-3.35c0-3.37-.03-4.49-.03-4.61,0-.17.02-.19.19-.19.12,0,.63.03,2.09.03h3.26c1.46,0,1.97-.03,2.07-.03.17,0,.19.02.19.19,0,.1-.03,1.24-.03,4.05v3.89c0,5.17.03,6.29.03,6.39,0,.15-.02.17-.19.17h-1.39c-.15,0-.17-.02-.17-.17v-.78h-4.28v.83c0,.15-.02.17-.2.17h-1.38ZM234.81,110.67h4.28v-2.41h-4.28v2.41ZM239.1,114.63v-2.36h-4.28v2.36h4.28ZM239.1,118.69v-2.46h-4.28v2.46h4.28Z"/><path class="uuid-8fadd5f2-297f-435c-9a4e-f498df745573" d="M246.93,108.83c1.29,0,1.7-.03,1.8-.03.17,0,.19.02.19.19v1.21c0,.19-.02.2-.19.2-.1,0-.51-.03-1.8-.03h-1.89c-1.27,0-1.7.03-1.78.03-.17,0-.19-.02-.19-.2v-1.21c0-.17.02-.19.19-.19.08,0,.51.03,1.78.03h1.89ZM248.43,119.9c2.94-.85,3.96-2.72,4.15-5.46.05-.6.05-1.05-.02-1.62.6.03,1.14.07,1.63.17.2.03.32.1.32.22s-.02.19-.1.31c-.08.12-.12.29-.19,1.02.48,2.8,2.36,4.47,4.47,5.22-.24.31-.51.76-.7,1.19-.14.29-.19.42-.32.42-.08,0-.19-.05-.39-.15-1.6-.85-2.89-2.12-3.62-3.94-.61,1.72-1.72,3.08-3.72,3.98-.19.07-.29.12-.39.12-.14,0-.2-.12-.36-.42-.22-.39-.46-.76-.76-1.04.02.73.03.95.03,1.02,0,.17-.02.19-.17.19h-1.22c-.17,0-.19-.02-.19-.19v-.46h-1.58v.78c0,.15-.02.17-.19.17h-1.22c-.17,0-.19-.02-.19-.17,0-.12.03-.51.03-2.57v-1.09c0-1.07-.03-1.48-.03-1.6,0-.17.02-.19.19-.19.1,0,.46.03,1.55.03h1.29c1.09,0,1.45-.03,1.56-.03.15,0,.17.02.17.19,0,.1-.03.51-.03,1.31v2.58ZM246.81,106.5c1.09,0,1.43-.03,1.53-.03.17,0,.19.02.19.19v1.14c0,.15-.02.17-.19.17-.1,0-.44-.03-1.53-.03h-1.38c-1.1,0-1.44.03-1.55.03-.15,0-.17-.02-.17-.17v-1.14c0-.17.02-.19.17-.19.1,0,.44.03,1.55.03h1.38ZM246.63,111.24c1,0,1.31-.03,1.41-.03.19,0,.2.02.2.19v1.1c0,.17-.02.19-.2.19-.1,0-.41-.03-1.41-.03h-1.09c-1.04,0-1.34.03-1.44.03-.17,0-.19-.02-.19-.19v-1.1c0-.17.02-.19.19-.19.1,0,.41.03,1.44.03h1.09ZM246.63,113.54c1,0,1.31-.03,1.41-.03.19,0,.2.02.2.19v1.09c0,.17-.02.19-.2.19-.1,0-.41-.03-1.41-.03h-1.09c-1.04,0-1.34.03-1.44.03-.17,0-.19-.02-.19-.19v-1.09c0-.17.02-.19.19-.19.1,0,.41.03,1.44.03h1.09ZM245.3,117.26v1.82h1.58v-1.82h-1.58ZM257.98,113.23c-.15.32-.19.44-.34.44-.07,0-.19-.03-.37-.1-1.53-.59-2.89-1.72-3.62-3.47-.61,1.55-1.72,2.74-3.6,3.48-.19.07-.29.12-.37.12-.14,0-.2-.12-.37-.42-.2-.36-.46-.71-.7-.93,2.72-.8,3.88-2.41,4.01-4.84.03-.58.03-1.09-.02-1.56.59.03,1.12.1,1.58.17.2.03.34.08.34.2s-.03.19-.12.31c-.08.1-.12.25-.17.87.44,2.79,2.26,4,4.4,4.67-.22.25-.48.7-.65,1.07ZM248.85,116.89c-.2-.15-.19-.19-.07-.32.58-.63,1.07-1.39,1.41-2.12.08-.17.12-.19.34-.07l.85.44c.22.12.24.15.17.32-.36.83-.82,1.6-1.48,2.38-.07.08-.1.12-.17.12-.05,0-.12-.03-.2-.1l-.85-.65ZM249.21,109.82c-.2-.14-.2-.17-.08-.31.51-.59.94-1.33,1.22-2.07.07-.19.08-.15.32-.07l.88.34c.2.08.22.12.17.29-.34.87-.73,1.63-1.33,2.36-.07.08-.1.12-.15.12s-.12-.03-.2-.1l-.83-.56ZM256.32,114.88c.15-.22.24-.41.32-.65.46.14.92.31,1.31.51.24.12.31.2.31.29,0,.14-.07.19-.19.25-.1.07-.2.2-.29.32-.32.44-.68.92-1.14,1.39-.17.17-.27.27-.37.27-.12,0-.22-.1-.44-.27-.29-.24-.56-.42-.88-.59.61-.53,1.05-1.05,1.38-1.53ZM256.35,107.81c.15-.22.24-.41.31-.65.44.15.92.36,1.27.54.22.12.27.15.27.25,0,.12-.07.17-.17.25-.08.07-.19.19-.29.34-.29.42-.58.83-1.07,1.34-.2.2-.31.31-.41.31s-.2-.08-.39-.24c-.31-.25-.6-.44-.87-.54.65-.61,1.07-1.17,1.34-1.62Z"/><path class="uuid-8fadd5f2-297f-435c-9a4e-f498df745573" d="M264.6,111.23c-.95.7-1.99,1.31-3.08,1.84-.2.1-.32.15-.41.15-.12,0-.17-.12-.31-.42-.2-.42-.44-.8-.76-1.12,2.96-1.17,5.17-2.97,6.53-4.95.29-.42.44-.71.59-1.1.66.08,1.29.2,1.84.36.2.05.31.12.31.24,0,.1-.03.2-.17.27-.1.05-.17.1-.24.15,1.92,2.35,4.22,3.82,7.19,4.86-.32.41-.54.82-.73,1.28-.12.31-.17.42-.29.42-.08,0-.2-.05-.39-.14-1.16-.51-2.26-1.11-3.25-1.8v1.26c0,.17-.02.19-.19.19-.1,0-.56-.03-1.92-.03h-2.62c-1.36,0-1.82.03-1.92.03-.17,0-.19-.02-.19-.19v-1.29ZM263.51,115.83c-1.6,0-2.14.03-2.24.03-.19,0-.2-.02-.2-.19v-1.27c0-.17.02-.19.2-.19.1,0,.65.03,2.24.03h9.06c1.6,0,2.14-.03,2.24-.03.19,0,.2.02.2.19v1.27c0,.17-.02.19-.2.19-.1,0-.65-.03-2.24-.03h-5.25c-.43,1.05-.94,2.12-1.51,3.2,1.77-.1,3.62-.25,5.24-.42-.39-.48-.78-.95-1.24-1.44-.12-.14-.1-.2.1-.31l1.09-.56c.19-.1.24-.08.36.03,1.16,1.21,2.12,2.43,3.16,3.94.08.14.08.2-.08.32l-1.17.76c-.1.07-.15.1-.2.1s-.08-.03-.14-.12c-.29-.48-.58-.92-.85-1.33-2.82.36-6.29.65-9.18.87-.27.02-.49.08-.61.15-.08.07-.17.1-.29.1s-.2-.08-.24-.24c-.15-.56-.25-1.16-.36-1.75.63.05,1.19.03,1.85,0,.17,0,.36-.02.54-.02.61-1.16,1.1-2.24,1.5-3.3h-1.77ZM269.33,111.09c1.14,0,1.65-.02,1.84-.03-1.22-.88-2.29-1.92-3.21-3.11-.9,1.19-1.94,2.23-3.11,3.11.15.02.63.03,1.87.03h2.62Z"/><path class="uuid-8fadd5f2-297f-435c-9a4e-f498df745573" d="M282.38,106.79c.2.05.31.14.31.27,0,.24-.12.48-.12.71,0,.34.05.75.08,1.14.15,1.19.32,2.04.54,2.92.85-.46,1.46-.78,2.41-1.29.49-.29.9-.58,1.17-.92.54.56.99,1.16,1.24,1.6.07.1.12.24.12.36,0,.17-.1.31-.34.34-.51.08-1.09.29-1.63.51-1.46.59-2.82,1.22-3.99,1.99-1.48.97-2.01,1.77-2.01,2.57,0,1,.75,1.43,2.7,1.43,2.14,0,3.88-.15,5.18-.39.19-.03.27,0,.31.2.08.46.14,1.07.17,1.58.02.19-.1.27-.31.29-1.55.2-2.91.25-5.07.25-3.21,0-4.91-1.05-4.91-3.26,0-1.89,1.24-3.13,3.23-4.39-.41-1.31-.71-2.84-.88-4.15-.12-.9-.24-1.5-.44-1.97.82,0,1.6.05,2.23.2Z"/><path class="uuid-8fadd5f2-297f-435c-9a4e-f498df745573" d="M294.85,107.4c.19.1.25.2.25.34,0,.12-.05.24-.12.37-.12.2-.19.44-.31.94-.56,2.57-.85,4.95-.85,6.19,0,.68,0,1.46.05,2.18.34-.78.7-1.51,1.05-2.36.24.54.37.78.59,1.07.07.08.1.15.1.24s-.03.17-.1.27c-.59,1.34-.8,2.09-.87,2.58-.07.48-.03.73-.02.9.02.12-.05.17-.2.22-.32.12-.82.22-1.27.29-.19.05-.25.03-.34-.2-.48-1.21-.73-3.23-.73-5.18,0-1.63.14-2.99.7-6.44.08-.6.19-1.33.12-2.01.68.17,1.6.44,1.94.61ZM300.7,111.94c-1.16.03-2.35.07-3.5-.02-.22,0-.29-.05-.31-.22-.07-.41-.12-1.02-.12-1.55,1.27.12,2.6.14,3.88.05,0-.61-.02-1.16-.02-1.78-.02-.61-.07-1.05-.22-1.67.99.08,1.5.15,2.06.32.19.05.31.14.31.29,0,.08-.03.14-.1.29-.07.15-.12.37-.14.6-.03.58-.03,1.02-.03,1.8.8-.07,1.68-.19,2.41-.31.2-.05.24.02.27.2.07.31.1.85.1,1.21,0,.15-.07.24-.19.25-.61.15-1.73.29-2.62.36,0,1.9.03,3.09.12,4.56,1,.41,1.87.88,2.82,1.63.15.1.17.15.08.34-.22.44-.49.92-.78,1.31-.05.07-.1.1-.15.1s-.1-.03-.15-.08c-.53-.49-1.09-.92-1.84-1.36-.14,1.43-1.1,2.21-3.11,2.21s-3.04-.92-3.04-2.38,1.26-2.4,2.98-2.4c.44,0,.95.05,1.36.14-.03-1.31-.05-2.55-.07-3.89ZM299.32,117.23c-.8,0-1.27.29-1.27.82s.37.85,1.38.85c.85,0,1.39-.49,1.39-1.1,0-.12,0-.2-.02-.34-.54-.17-1-.22-1.48-.22Z"/><path class="uuid-8fadd5f2-297f-435c-9a4e-f498df745573" d="M308.93,110.02c.32-2.28,1.96-3.64,4.47-3.64,2.65,0,4.37,1.41,4.37,3.59,0,1.19-.51,2.18-2.02,3.45-1.41,1.17-1.61,1.72-1.63,3.3h-1.75v-.41c0-1.68.36-2.45,1.56-3.65,1.22-1.22,1.55-1.82,1.55-2.69,0-1.16-.8-1.89-2.06-1.89-1.34,0-2.19.9-2.29,2.45l-2.19-.51ZM314.44,118.37v2.29h-2.41v-2.29h2.41Z"/><path class="uuid-0ebb2974-8c38-4c6a-b6a2-ad2786a8255f" d="M165.41,48.15h2.07l2.05,7.8h.03l2.34-7.8h1.95l2.29,7.8h.03l2.1-7.8h2.01l-3.1,10.62h-1.83l-2.49-7.96h-.03l-2.49,7.96h-1.83l-3.1-10.62Z"/><path class="uuid-0ebb2974-8c38-4c6a-b6a2-ad2786a8255f" d="M186.17,51.36c.47,0,.87.08,1.21.25s.61.38.83.65c.21.27.37.58.47.93.1.35.15.71.15,1.08v4.5h-1.8v-3.96c0-.21-.02-.43-.04-.65-.03-.23-.09-.43-.19-.62-.1-.18-.23-.34-.4-.46-.18-.12-.41-.18-.7-.18s-.54.06-.75.17c-.21.11-.39.26-.52.44-.14.19-.25.39-.31.62-.07.23-.1.46-.1.71v3.93h-1.8v-11.34h1.8v5.14h.03c.07-.15.17-.3.31-.44.13-.14.29-.27.47-.39.18-.12.38-.21.61-.28.23-.07.48-.11.75-.11Z"/><path class="uuid-0ebb2974-8c38-4c6a-b6a2-ad2786a8255f" d="M196.08,57.85h-.04c-.18.32-.47.58-.87.79-.4.21-.85.31-1.36.31-.29,0-.59-.04-.91-.11-.31-.08-.6-.2-.87-.38-.27-.17-.49-.41-.66-.69-.18-.29-.26-.64-.26-1.06,0-.54.15-.97.46-1.29s.7-.57,1.18-.74,1.01-.28,1.6-.34c.58-.05,1.16-.08,1.72-.08v-.18c0-.45-.16-.78-.49-1-.33-.21-.71-.32-1.16-.32-.38,0-.75.08-1.1.24s-.64.35-.87.58l-.93-1.09c.41-.38.88-.67,1.42-.86.53-.19,1.08-.29,1.63-.29.64,0,1.17.09,1.58.27.42.18.74.42.98.71.24.29.41.61.5.97s.14.72.14,1.08v4.38h-1.68v-.92ZM196.05,55.48h-.4c-.29,0-.6.01-.92.04-.32.02-.62.08-.89.17s-.5.21-.67.36c-.18.16-.27.37-.27.64,0,.17.04.31.11.43.08.12.17.21.29.28s.25.12.41.15c.15.03.3.05.45.05.62,0,1.09-.17,1.41-.5.32-.33.48-.78.48-1.35v-.25Z"/><path class="uuid-0ebb2974-8c38-4c6a-b6a2-ad2786a8255f" d="M199.52,53.01v-1.44h1.26v-2.08h1.77v2.08h1.8v1.44h-1.8v3.34c0,.32.06.58.17.79.11.21.37.32.77.32.12,0,.25-.01.39-.04.14-.02.26-.06.38-.11l.06,1.41c-.16.06-.35.11-.57.14-.22.04-.43.05-.63.05-.48,0-.87-.07-1.17-.2-.3-.13-.54-.32-.71-.55-.18-.24-.3-.5-.36-.81-.06-.3-.1-.63-.1-.98v-3.36h-1.26Z"/><path class="uuid-0ebb2974-8c38-4c6a-b6a2-ad2786a8255f" d="M210.53,49.12c0-.29.11-.54.32-.76.21-.21.49-.32.82-.32s.61.1.83.31c.23.21.34.46.34.77s-.11.57-.34.77-.5.31-.83.31-.6-.11-.82-.32c-.22-.21-.32-.47-.32-.76ZM210.79,51.57h1.8v7.2h-1.8v-7.2Z"/><path class="uuid-0ebb2974-8c38-4c6a-b6a2-ad2786a8255f" d="M219.46,53.49c-.16-.21-.38-.39-.66-.55-.28-.16-.59-.23-.92-.23-.29,0-.56.06-.8.18-.24.12-.36.32-.36.6s.13.48.4.59.65.23,1.16.35c.27.06.54.14.82.24.27.1.52.23.75.4s.41.37.55.62c.14.25.21.54.21.89,0,.44-.08.81-.25,1.12s-.39.55-.66.74c-.27.19-.6.33-.96.41-.37.08-.74.13-1.13.13-.56,0-1.11-.1-1.64-.31-.53-.21-.97-.5-1.32-.88l1.19-1.11c.2.26.46.47.78.64.32.17.68.26,1.06.26.13,0,.26-.02.4-.05.14-.03.26-.08.38-.14.12-.07.21-.15.28-.26.07-.11.1-.25.1-.41,0-.3-.14-.51-.41-.64-.28-.13-.69-.26-1.24-.39-.27-.06-.53-.14-.79-.23-.26-.09-.48-.22-.68-.38-.2-.16-.36-.35-.48-.58-.12-.23-.18-.52-.18-.86,0-.4.08-.74.25-1.04.17-.29.38-.53.65-.71.27-.19.58-.32.92-.41.34-.09.69-.13,1.05-.13.52,0,1.03.09,1.52.27.5.18.89.46,1.18.82l-1.17,1.04Z"/><path class="uuid-0ebb2974-8c38-4c6a-b6a2-ad2786a8255f" d="M227.11,48.15h1.89v4.29h4.96v-4.29h1.89v10.62h-1.89v-4.71h-4.96v4.71h-1.89v-10.62Z"/><path class="uuid-0ebb2974-8c38-4c6a-b6a2-ad2786a8255f" d="M238.4,55.14c0-.57.1-1.09.31-1.55s.48-.86.83-1.19.77-.58,1.25-.76c.48-.18.99-.27,1.53-.27s1.05.09,1.53.27c.48.18.9.43,1.25.76.35.33.63.73.83,1.19.2.46.31.98.31,1.55s-.1,1.09-.31,1.56c-.21.47-.48.87-.83,1.21-.35.33-.77.6-1.25.79-.48.19-.99.29-1.53.29s-1.05-.09-1.53-.29c-.48-.19-.9-.45-1.25-.79s-.63-.74-.83-1.21c-.21-.47-.31-.99-.31-1.56ZM240.23,55.14c0,.28.04.56.13.84.08.28.21.53.38.75s.38.4.65.54c.26.14.57.21.93.21s.67-.07.93-.21c.26-.14.48-.32.65-.54s.3-.47.38-.75c.08-.28.13-.56.13-.84s-.04-.56-.13-.83c-.09-.27-.21-.52-.38-.74s-.38-.4-.65-.53-.57-.2-.93-.2-.67.07-.93.2c-.26.13-.48.31-.65.53s-.3.47-.38.74c-.09.28-.13.55-.13.83Z"/><path class="uuid-0ebb2974-8c38-4c6a-b6a2-ad2786a8255f" d="M255.21,58.77h-1.71v-1.16h-.03c-.16.36-.44.68-.83.95-.4.27-.86.41-1.4.41-.47,0-.87-.08-1.21-.25s-.61-.38-.82-.65c-.22-.27-.37-.58-.47-.93-.1-.35-.15-.71-.15-1.08v-4.5h1.8v3.99c0,.21.02.43.05.66.03.23.09.44.19.62.1.19.24.34.41.46.17.12.41.18.7.18s.53-.06.74-.17c.21-.11.39-.26.52-.44.13-.18.24-.39.31-.62.07-.24.1-.47.1-.71v-3.96h1.8v7.2Z"/><path class="uuid-0ebb2974-8c38-4c6a-b6a2-ad2786a8255f" d="M262.08,53.49c-.16-.21-.38-.39-.66-.55-.28-.16-.59-.23-.92-.23-.29,0-.56.06-.8.18-.24.12-.36.32-.36.6s.13.48.4.59.65.23,1.16.35c.27.06.54.14.82.24.27.1.52.23.75.4s.41.37.55.62c.14.25.21.54.21.89,0,.44-.08.81-.25,1.12s-.39.55-.66.74c-.27.19-.6.33-.96.41-.37.08-.74.13-1.13.13-.56,0-1.11-.1-1.64-.31-.53-.21-.97-.5-1.32-.88l1.19-1.11c.2.26.46.47.78.64.32.17.68.26,1.06.26.13,0,.26-.02.4-.05.14-.03.26-.08.38-.14.12-.07.21-.15.28-.26.07-.11.1-.25.1-.41,0-.3-.14-.51-.41-.64-.28-.13-.69-.26-1.24-.39-.27-.06-.53-.14-.79-.23-.26-.09-.48-.22-.68-.38-.2-.16-.36-.35-.48-.58-.12-.23-.18-.52-.18-.86,0-.4.08-.74.25-1.04.17-.29.38-.53.65-.71.27-.19.58-.32.92-.41.34-.09.69-.13,1.05-.13.52,0,1.03.09,1.52.27.5.18.89.46,1.18.82l-1.17,1.04Z"/><path class="uuid-0ebb2974-8c38-4c6a-b6a2-ad2786a8255f" d="M272.38,55.26v.24c0,.08,0,.16-.02.24h-5.48c.02.26.09.5.2.71.11.21.27.4.46.55.19.16.4.28.65.37.24.09.49.13.75.13.45,0,.83-.08,1.14-.25s.56-.39.77-.68l1.2.96c-.71.96-1.74,1.44-3.09,1.44-.56,0-1.07-.09-1.54-.26s-.88-.42-1.22-.74c-.35-.32-.62-.71-.81-1.18-.2-.46-.29-.99-.29-1.58s.1-1.11.29-1.58c.19-.47.46-.88.8-1.21s.74-.59,1.21-.78c.47-.18.97-.28,1.51-.28.5,0,.96.08,1.39.25.42.17.79.41,1.1.73.31.33.55.73.73,1.21.17.49.26,1.05.26,1.7ZM270.58,54.45c0-.23-.03-.45-.1-.66-.07-.21-.17-.39-.31-.55-.14-.16-.32-.29-.53-.38-.21-.09-.47-.14-.76-.14-.54,0-1,.16-1.37.49s-.58.74-.62,1.25h3.69Z"/><path class="uuid-0ebb2974-8c38-4c6a-b6a2-ad2786a8255f" d="M234.08,68.64c-.28-.38-.65-.66-1.09-.83-.45-.17-.89-.26-1.32-.26-.55,0-1.05.1-1.5.3-.45.2-.84.47-1.16.83-.32.35-.58.76-.75,1.23-.17.47-.26.98-.26,1.53,0,.58.08,1.11.25,1.59s.41.89.73,1.24.69.61,1.13.8c.44.19.94.29,1.49.29s1.07-.11,1.51-.34c.44-.22.79-.52,1.06-.89l1.52,1.07c-.47.59-1.04,1.05-1.73,1.37-.68.33-1.48.49-2.38.49-.83,0-1.59-.14-2.29-.41-.7-.27-1.29-.66-1.79-1.16s-.89-1.08-1.17-1.77c-.28-.68-.42-1.44-.42-2.27s.15-1.62.44-2.3c.29-.68.7-1.27,1.21-1.75.52-.48,1.12-.85,1.82-1.11.7-.26,1.46-.39,2.28-.39.34,0,.69.03,1.06.1.37.07.73.17,1.06.3.34.13.66.3.96.5.3.2.56.44.77.72l-1.44,1.14Z"/><path class="uuid-0ebb2974-8c38-4c6a-b6a2-ad2786a8255f" d="M237.11,73.14c0-.57.1-1.09.31-1.55s.48-.86.83-1.19.77-.58,1.25-.76c.48-.18.99-.27,1.53-.27s1.05.09,1.53.27c.48.18.9.43,1.25.76.35.33.63.73.83,1.19.2.46.31.98.31,1.55s-.1,1.09-.31,1.56c-.21.47-.48.87-.83,1.21-.35.33-.77.6-1.25.79-.48.19-.99.29-1.53.29s-1.05-.09-1.53-.29c-.48-.19-.9-.45-1.25-.79s-.63-.74-.83-1.21c-.21-.47-.31-.99-.31-1.56ZM238.94,73.14c0,.28.04.56.13.84.08.28.21.53.38.75s.38.4.65.54c.26.14.57.21.93.21s.67-.07.93-.21c.26-.14.48-.32.65-.54s.3-.47.38-.75c.08-.28.13-.56.13-.84s-.04-.56-.13-.83c-.09-.27-.21-.52-.38-.74s-.38-.4-.65-.53-.57-.2-.93-.2-.67.07-.93.2c-.26.13-.48.31-.65.53s-.3.47-.38.74c-.09.28-.13.55-.13.83Z"/><path class="uuid-0ebb2974-8c38-4c6a-b6a2-ad2786a8255f" d="M247.34,69.57h1.71v1.16h.03c.16-.36.44-.68.83-.95.4-.28.86-.41,1.4-.41.47,0,.87.08,1.21.25.33.17.61.38.82.65.21.27.37.58.47.93.1.35.15.71.15,1.08v4.5h-1.8v-3.99c0-.21-.02-.43-.04-.66-.03-.23-.1-.44-.2-.62-.1-.18-.24-.34-.41-.46-.17-.12-.41-.18-.7-.18s-.54.06-.75.17-.38.26-.52.44c-.13.18-.24.39-.31.62-.07.24-.1.47-.1.71v3.96h-1.8v-7.2Z"/><path class="uuid-0ebb2974-8c38-4c6a-b6a2-ad2786a8255f" d="M260.77,71.49c-.16-.21-.38-.39-.66-.55-.28-.16-.59-.23-.92-.23-.29,0-.56.06-.8.18-.24.12-.36.32-.36.6s.13.48.4.59.65.23,1.16.35c.27.06.54.14.82.24.27.1.52.23.75.4s.41.37.55.62c.14.25.21.54.21.89,0,.44-.08.81-.25,1.12s-.39.55-.66.74c-.27.19-.6.33-.96.41-.37.08-.74.13-1.13.13-.56,0-1.11-.1-1.64-.31-.53-.21-.97-.5-1.32-.88l1.19-1.11c.2.26.46.47.78.64.32.17.68.26,1.06.26.13,0,.26-.02.4-.05.14-.03.26-.08.38-.14.12-.07.21-.15.28-.26.07-.11.1-.25.1-.41,0-.3-.14-.51-.41-.64-.28-.13-.69-.26-1.24-.39-.27-.06-.53-.14-.79-.23-.26-.09-.48-.22-.68-.38-.2-.16-.36-.35-.48-.58-.12-.23-.18-.52-.18-.86,0-.4.08-.74.25-1.04.17-.29.38-.53.65-.71.27-.19.58-.32.92-.41.34-.09.69-.13,1.05-.13.52,0,1.03.09,1.52.27.5.18.89.46,1.18.82l-1.17,1.04Z"/><path class="uuid-0ebb2974-8c38-4c6a-b6a2-ad2786a8255f" d="M270.82,76.77h-1.71v-1.16h-.03c-.16.36-.44.68-.83.95-.4.27-.86.41-1.4.41-.47,0-.87-.08-1.21-.25s-.61-.38-.82-.65c-.22-.27-.37-.58-.47-.93-.1-.35-.15-.71-.15-1.08v-4.5h1.8v3.99c0,.21.02.43.05.66.03.23.09.44.19.62.1.19.24.34.41.46.17.12.41.18.7.18s.53-.06.74-.17c.21-.11.39-.26.52-.44.13-.18.24-.39.31-.62.07-.24.1-.47.1-.71v-3.96h1.8v7.2Z"/><path class="uuid-0ebb2974-8c38-4c6a-b6a2-ad2786a8255f" d="M273.66,65.43h1.8v11.34h-1.8v-11.34Z"/><path class="uuid-0ebb2974-8c38-4c6a-b6a2-ad2786a8255f" d="M277.38,71.01v-1.44h1.26v-2.08h1.77v2.08h1.8v1.44h-1.8v3.34c0,.32.06.58.17.79.11.21.37.32.77.32.12,0,.25-.01.39-.04.14-.02.26-.06.38-.11l.06,1.41c-.16.06-.35.11-.57.14-.22.04-.43.05-.63.05-.48,0-.87-.07-1.17-.2-.3-.13-.54-.32-.71-.55-.18-.24-.3-.5-.36-.81-.06-.3-.1-.63-.1-.98v-3.36h-1.26Z"/><path class="uuid-0ebb2974-8c38-4c6a-b6a2-ad2786a8255f" d="M288.85,75.85h-.04c-.18.32-.47.58-.87.79-.4.21-.85.31-1.36.31-.29,0-.59-.04-.91-.11-.31-.08-.6-.2-.87-.38-.27-.17-.49-.41-.66-.69-.18-.29-.26-.64-.26-1.06,0-.54.15-.97.46-1.29s.7-.57,1.18-.74,1.01-.28,1.6-.34c.58-.05,1.16-.08,1.72-.08v-.18c0-.45-.16-.78-.49-1-.33-.21-.71-.32-1.16-.32-.38,0-.75.08-1.1.24s-.64.35-.87.58l-.93-1.09c.41-.38.88-.67,1.42-.86.53-.19,1.08-.29,1.63-.29.64,0,1.17.09,1.58.27.42.18.74.42.98.71.24.29.41.61.5.97s.14.72.14,1.08v4.38h-1.68v-.92ZM288.82,73.48h-.4c-.29,0-.6.01-.92.04-.32.02-.62.08-.89.17s-.5.21-.67.36c-.18.16-.27.37-.27.64,0,.17.04.31.11.43.08.12.17.21.29.28s.25.12.41.15c.15.03.3.05.45.05.62,0,1.09-.17,1.41-.5.32-.33.48-.78.48-1.35v-.25Z"/><path class="uuid-0ebb2974-8c38-4c6a-b6a2-ad2786a8255f" d="M292.29,71.01v-1.44h1.26v-2.08h1.77v2.08h1.8v1.44h-1.8v3.34c0,.32.06.58.17.79.11.21.37.32.77.32.12,0,.25-.01.39-.04.14-.02.26-.06.38-.11l.06,1.41c-.16.06-.35.11-.57.14-.22.04-.43.05-.63.05-.48,0-.87-.07-1.17-.2-.3-.13-.54-.32-.71-.55-.18-.24-.3-.5-.36-.81-.06-.3-.1-.63-.1-.98v-3.36h-1.26Z"/><path class="uuid-0ebb2974-8c38-4c6a-b6a2-ad2786a8255f" d="M298.9,67.12c0-.29.11-.54.32-.76.21-.21.49-.32.82-.32s.61.1.83.31c.23.21.34.46.34.77s-.11.57-.34.77-.5.31-.83.31-.6-.11-.82-.32c-.22-.21-.32-.47-.32-.76ZM299.15,69.57h1.8v7.2h-1.8v-7.2Z"/><path class="uuid-0ebb2974-8c38-4c6a-b6a2-ad2786a8255f" d="M303.35,73.14c0-.57.1-1.09.31-1.55s.48-.86.83-1.19.77-.58,1.25-.76c.48-.18.99-.27,1.53-.27s1.05.09,1.53.27c.48.18.9.43,1.25.76.35.33.63.73.83,1.19.2.46.31.98.31,1.55s-.1,1.09-.31,1.56c-.21.47-.48.87-.83,1.21-.35.33-.77.6-1.25.79-.48.19-.99.29-1.53.29s-1.05-.09-1.53-.29c-.48-.19-.9-.45-1.25-.79s-.63-.74-.83-1.21c-.21-.47-.31-.99-.31-1.56ZM305.18,73.14c0,.28.04.56.13.84.08.28.21.53.38.75s.38.4.65.54c.26.14.57.21.93.21s.67-.07.93-.21c.26-.14.48-.32.65-.54s.3-.47.38-.75c.08-.28.13-.56.13-.84s-.04-.56-.13-.83c-.09-.27-.21-.52-.38-.74s-.38-.4-.65-.53-.57-.2-.93-.2-.67.07-.93.2c-.26.13-.48.31-.65.53s-.3.47-.38.74c-.09.28-.13.55-.13.83Z"/><path class="uuid-0ebb2974-8c38-4c6a-b6a2-ad2786a8255f" d="M313.58,69.57h1.71v1.16h.03c.16-.36.44-.68.83-.95.4-.28.86-.41,1.4-.41.47,0,.87.08,1.21.25.33.17.61.38.82.65.21.27.37.58.47.93.1.35.15.71.15,1.08v4.5h-1.8v-3.99c0-.21-.02-.43-.04-.66-.03-.23-.1-.44-.2-.62-.1-.18-.24-.34-.41-.46-.17-.12-.41-.18-.7-.18s-.54.06-.75.17-.38.26-.52.44c-.13.18-.24.39-.31.62-.07.24-.1.47-.1.71v3.96h-1.8v-7.2Z"/><path class="uuid-0ebb2974-8c38-4c6a-b6a2-ad2786a8255f" d="M329.48,73.63v-.57c0-.24.02-.46.05-.64.03-.19.09-.37.17-.54.07-.17.17-.33.3-.5s.28-.33.47-.51l.67-.65c.19-.17.35-.36.49-.57.13-.21.2-.46.2-.76,0-.39-.12-.72-.37-.98-.25-.26-.59-.4-1.04-.4-.23,0-.44.04-.62.13-.19.09-.35.2-.48.35-.14.14-.24.31-.31.5-.07.19-.11.39-.12.58l-1.84-.17c.06-.48.19-.91.38-1.28s.45-.69.76-.95.67-.46,1.06-.59.83-.2,1.29-.2c.43,0,.84.06,1.22.19.38.12.73.31,1.02.55s.53.55.7.91c.17.36.26.78.26,1.25,0,.32-.04.6-.1.84-.07.24-.17.46-.3.66s-.29.39-.47.58-.39.38-.62.58c-.2.17-.36.32-.49.45s-.23.26-.3.39c-.08.13-.13.27-.16.42-.03.15-.04.33-.04.55v.39h-1.77ZM329.18,75.72c0-.32.12-.59.35-.83.23-.23.52-.34.85-.34s.6.11.84.33c.24.22.36.49.36.81s-.12.59-.35.83-.52.34-.85.34c-.16,0-.31-.03-.46-.09s-.27-.14-.38-.24c-.11-.1-.2-.22-.26-.36-.06-.14-.1-.29-.1-.45Z"/><rect class="uuid-408de96c-e11c-4637-adb1-956a4ee4137c" width="375" height="125.2"/></g></svg>