<?xml version="1.0" encoding="UTF-8"?><svg id="uuid-4bf229c4-78f1-4099-94aa-b663f907eb83" xmlns="http://www.w3.org/2000/svg" width="375" height="121.35" viewBox="0 0 375 121.35"><defs><style>.uuid-bbda5e06-d5da-42b5-a98d-cb5749becbb6{fill:none;}.uuid-5905871c-ace8-461f-b035-f4d7557391a8{fill:#1c1c1c;}</style></defs><g id="uuid-3d1c7923-fc26-4906-bf4f-1b52e94dea8d"><path class="uuid-5905871c-ace8-461f-b035-f4d7557391a8" d="M25.32,44.86c-.37.38-.77.76-1.16,1.07-.12.1-.2.14-.25.14-.08,0-.12-.08-.19-.28-.1-.28-.24-.55-.38-.74,1.37-.96,2.54-2.36,3.17-3.71h-1.37c-.9,0-1.19.02-1.26.02-.12,0-.13-.01-.13-.13v-.89c0-.12.01-.13.13-.13.07,0,.36.02,1.26.02h.2v-.41c0-.53,0-.98-.1-1.45.46.01.82.04,1.25.08.12.01.19.07.19.12,0,.11-.04.18-.07.26-.07.14-.08.4-.08.94v.46h.4c.16,0,.22-.04.26-.06.04-.02.11-.07.16-.07.08,0,.23.1.47.35.22.23.3.36.3.46,0,.07-.05.12-.14.19-.08.07-.17.2-.26.38-.29.58-.65,1.16-1.04,1.74.12.18.26.35.43.52.2-.25.37-.49.52-.72.1-.16.19-.37.28-.6.26.16.62.36.85.54.1.08.12.11.12.19,0,.06-.05.11-.12.13-.08.05-.14.11-.28.28-.25.3-.42.53-.67.82.26.2.54.41.83.59-.14.16-.4.48-.52.7-.11.17-.16.25-.23.25-.06,0-.13-.06-.25-.18-.38-.35-.78-.77-1.1-1.18v3.31c0,.9.02,1.32.02,1.38,0,.12-.01.13-.13.13h-.97c-.12,0-.13-.01-.13-.13,0-.07.02-.48.02-1.38v-3.01ZM31.22,40.54c-.04,1.88-.19,3.57-.67,5.06-.48,1.45-1.26,2.57-2.42,3.53-.12.11-.18.17-.24.17-.07,0-.13-.08-.25-.25-.19-.26-.53-.54-.74-.68,1.26-.8,2.04-1.93,2.48-3.29.42-1.28.53-2.76.54-4.53h-.06c-1.08,0-1.44.02-1.51.02-.13,0-.14-.01-.14-.13v-.95c0-.13.01-.14.14-.14.07,0,.43.02,1.51.02h2.57c1.08,0,1.45-.02,1.52-.02.12,0,.14.02.14.16-.02.4-.02.73-.02,1.07-.01,3.09-.12,5.42-.4,7.08-.17,1.02-.62,1.55-1.76,1.55-.38,0-.62.01-.94-.02-.29-.02-.29-.05-.36-.46-.05-.29-.14-.67-.31-.9.62.11.97.12,1.37.12.49,0,.71-.29.79-.83.22-1.31.34-3.38.34-6.56h-1.57Z"/><path class="uuid-5905871c-ace8-461f-b035-f4d7557391a8" d="M41.82,39.82c.04-.26.06-.55.02-.82.6.12,1.07.29,1.42.48.13.06.19.13.19.22,0,.06-.04.13-.08.2-.11.16-.17.26-.24.44-.07.19-.18.48-.34.96,1.9.3,3.2,1.57,3.2,3.48,0,2.13-1.3,3.42-3.68,4.01-.26.06-.35.02-.49-.2-.18-.29-.46-.6-.78-.79,1.63-.33,3.59-1.08,3.59-3.17,0-1.21-.84-2.13-2.16-2.27-.59,1.43-1.12,2.51-1.75,3.5.13.18.29.4.52.61-.31.37-.52.59-.74.73-.05.04-.11.06-.17.06s-.11-.02-.17-.07c-.1-.1-.19-.19-.32-.35-.78.83-1.35,1.14-2,1.14-.91,0-1.57-.74-1.57-1.94s.55-2.4,1.7-3.44c-.13-.46-.25-1.06-.37-1.58-.12-.47-.19-.79-.36-1.13.58.02,1.03.08,1.36.19.19.05.23.13.23.35,0,.19,0,.37.05.68.06.35.1.56.17.85.67-.36,1.63-.61,2.45-.68.13-.38.24-.83.35-1.46ZM37.49,45.92c0,.41.17.73.42.73.36,0,.74-.26,1.25-.88-.35-.67-.64-1.33-.83-1.94-.53.62-.84,1.39-.84,2.09ZM39.99,44.8c.41-.66.76-1.43,1.14-2.42-.56.07-1.27.32-1.81.67.16.58.41,1.26.67,1.75Z"/><path class="uuid-5905871c-ace8-461f-b035-f4d7557391a8" d="M53.37,41.16c-1.46.28-2.75.53-4.03.79-.46.11-.58.13-.76.19-.08.04-.17.1-.26.1-.08,0-.18-.07-.23-.18-.16-.32-.29-.74-.44-1.29.61-.02.97-.07,1.91-.2,1.48-.22,4.11-.61,7.21-1.02.18-.02.24.05.25.13.06.28.12.72.13,1.06,0,.14-.07.18-.23.18-.56.04-.95.1-1.46.26-2.04.7-3.06,2.1-3.06,3.54,0,1.55,1.1,2.39,3.19,2.52.19,0,.26.05.26.18,0,.31-.05.73-.13,1.03-.04.18-.08.25-.23.25-2.11,0-4.43-1.21-4.43-3.71,0-1.7.85-2.85,2.3-3.8v-.02Z"/><path class="uuid-5905871c-ace8-461f-b035-f4d7557391a8" d="M64.44,41.07c-.28,2.04-.78,3.91-1.5,5.17-.52.9-1.14,1.38-2.04,1.38-1.06,0-2.12-1.13-2.12-3.08,0-1.15.49-2.25,1.35-3.12,1.01-1.01,2.28-1.54,3.9-1.54,2.88,0,4.57,1.77,4.57,4.16,0,2.23-1.26,3.63-3.69,4.37-.25.07-.36.02-.52-.22-.13-.2-.38-.48-.84-.76,2.03-.48,3.62-1.32,3.62-3.59,0-1.43-1.08-2.78-2.69-2.78h-.05ZM61,42.23c-.58.65-.94,1.45-.94,2.22,0,1.1.44,1.71.82,1.71.31,0,.58-.16.9-.73.53-.97,1.07-2.7,1.27-4.29-.84.17-1.51.5-2.05,1.09Z"/><path class="uuid-5905871c-ace8-461f-b035-f4d7557391a8" d="M76.44,42.28c-.28.2-.55.38-.82.54,1.07,1.31,1.57,2.77,1.57,4.25,0,1.68-.41,2.24-1.81,2.24-.2,0-.41,0-.62-.02q-.32-.02-.38-.32c-.08-.35-.19-.65-.35-.86.53.06,1,.07,1.25.07.5,0,.73-.14.73-1.15,0-.22-.01-.44-.04-.65-1.42,1.08-2.81,1.81-4.47,2.43-.14.05-.23.08-.29.08-.1,0-.14-.07-.24-.26-.18-.34-.31-.48-.56-.7,2.15-.62,3.79-1.44,5.33-2.65-.07-.19-.14-.38-.24-.58-1.16.77-2.39,1.32-3.79,1.81-.14.05-.23.08-.29.08-.08,0-.13-.07-.23-.25-.16-.28-.34-.49-.53-.67,1.83-.41,3.07-.97,4.37-1.8-.11-.17-.22-.33-.35-.5-.83.43-1.64.75-2.58,1.04-.35.1-.36.08-.49-.14-.19-.36-.31-.49-.55-.71,1.58-.34,2.75-.74,3.75-1.28h-.62c-1.14,0-1.54.02-1.61.02-.13,0-.14-.01-.14-.14v-.76c0-.13.01-.14.14-.14.07,0,.47.02,1.61.02h3.41c1.15,0,1.55-.02,1.62-.02.12,0,.13.01.13.14v.76c0,.13-.01.14-.13.14-.07,0-.47-.02-1.58-.02.16.65.35,1.24.59,1.76.23-.22.46-.44.74-.78.2-.23.38-.5.52-.72.37.25.64.46.88.67.13.1.18.17.18.24,0,.1-.08.16-.16.18-.16.06-.28.23-.53.48-.36.35-.73.68-1.08.96.65,1,1.52,1.8,2.7,2.48-.25.25-.47.49-.65.83-.11.19-.16.28-.24.28-.05,0-.12-.06-.25-.14-2.03-1.49-3.13-3.51-3.83-6.24h-.06ZM79.23,39.38c1.1,0,1.5-.02,1.58-.02.12,0,.13.01.13.13,0,.07-.02.28-.02.58v.49c0,1.02.02,1.21.02,1.28,0,.12-.01.13-.13.13h-.98c-.12,0-.13-.01-.13-.13v-1.42h-7.63v1.42c0,.12-.01.13-.13.13h-.98c-.12,0-.13-.01-.13-.13,0-.07.02-.26.02-1.28v-.4c0-.4-.02-.59-.02-.67,0-.12.01-.13.13-.13.08,0,.48.02,1.58.02h2.63v-.02c0-.4-.01-.72-.08-1.02.43.01.88.04,1.3.07.12.01.18.06.18.11,0,.08-.04.14-.07.24-.04.1-.06.25-.06.6v.02h2.81Z"/><path class="uuid-5905871c-ace8-461f-b035-f4d7557391a8" d="M85.09,41.86c1.85-.62,3.35-1,4.32-1,2.15,0,3.53,1.29,3.53,3.18,0,1.57-.68,2.57-2.11,3.33-1.01.56-1.94.75-3.05,1-.24.05-.34.04-.42-.19-.14-.34-.44-.7-.84-.95,1.58-.26,2.43-.49,3.25-.89,1.02-.52,1.66-1.28,1.66-2.39s-.73-1.82-2.06-1.82c-1.08,0-2.51.43-4.33,1.24-.38.19-.68.32-.83.43-.17.14-.26.18-.32.18-.12,0-.22-.07-.35-.25-.22-.26-.52-.73-.77-1.25.53-.06.97-.17,2.33-.62ZM91.6,39.32c.06-.05.11-.04.18.02.37.29.8.77,1.14,1.28.05.07.05.13-.04.19l-.5.37c-.08.06-.14.05-.2-.04-.36-.55-.74-1.01-1.21-1.39l.64-.44ZM92.67,38.54c.07-.05.11-.04.18.02.44.34.88.82,1.14,1.24.05.07.06.14-.04.22l-.48.37c-.1.07-.16.04-.2-.04-.32-.52-.71-.97-1.2-1.38l.6-.43Z"/><path class="uuid-5905871c-ace8-461f-b035-f4d7557391a8" d="M101.73,39.59c.06.05.1.14.1.19,0,.11-.06.18-.17.23-.14.07-.32.18-.58.42-1.03.92-2.35,2.16-3.27,3.12-.11.13-.16.2-.16.26,0,.07.05.13.16.22,1.56,1.13,3.18,2.43,4.46,3.78.05.06.08.11.08.16s-.02.08-.08.14c-.28.3-.62.65-.83.83-.07.06-.12.1-.17.1s-.08-.04-.14-.11c-1.39-1.56-2.73-2.81-4.37-4.05-.46-.35-.64-.61-.64-1.01s.22-.66.59-1.06c1.02-1.1,2.02-2.1,3.05-3.23.32-.35.5-.6.65-.9.53.31.98.62,1.32.91Z"/><path class="uuid-5905871c-ace8-461f-b035-f4d7557391a8" d="M107.88,39.2c.16.06.23.13.23.24,0,.07-.02.12-.08.19-.08.1-.14.26-.22.56-.17.82-.26,1.67-.34,2.29-.02.43-.06.89-.04,1.32.26-.47.52-.92.84-1.54.11.36.23.58.37.78.06.07.07.13.07.19,0,.1-.05.19-.12.3-.26.5-.54,1.01-.71,1.54-.04.11-.05.22-.06.36,0,.12-.05.17-.16.19-.14.04-.66.11-.96.14-.08.01-.14-.07-.17-.16-.19-.52-.36-1.44-.36-2.43,0-.8.13-1.79.29-2.99.05-.42.1-.83.1-1.37.54.11,1,.23,1.31.37ZM111.78,38.99c.24.06.26.12.24.32-.02.17-.02.38-.02.55.08,1.14.17,2.23.17,3.09,0,1.7-.28,3.18-.91,4.16-.47.74-1.22,1.45-1.98,1.93-.08.06-.17.08-.24.08-.08,0-.16-.04-.25-.13-.26-.23-.64-.44-1.02-.55.97-.54,1.56-.97,2.04-1.61.7-.95,1.01-1.93,1.01-3.83,0-.85-.06-2.1-.14-2.87-.06-.59-.12-.89-.25-1.31.53.02,1.02.05,1.37.14Z"/><path class="uuid-5905871c-ace8-461f-b035-f4d7557391a8" d="M121.14,41.22c-1.46.28-2.75.53-4.03.79-.46.11-.58.13-.76.19-.08.04-.17.1-.26.1-.08,0-.18-.07-.23-.18-.16-.32-.29-.74-.44-1.29.61-.02.97-.07,1.91-.2,1.48-.22,4.11-.61,7.21-1.02.18-.02.24.05.25.13.06.28.12.72.13,1.06,0,.14-.07.18-.23.18-.56.04-.95.1-1.46.26-2.04.7-3.06,2.1-3.06,3.54,0,1.55,1.1,2.39,3.19,2.52.19,0,.26.05.26.18,0,.31-.05.73-.13,1.03-.04.18-.08.25-.23.25-2.11,0-4.43-1.21-4.43-3.71,0-1.7.85-2.85,2.3-3.8v-.02ZM123.51,42.52c.06-.05.11-.04.18.02.37.29.8.77,1.14,1.28.05.07.05.13-.04.19l-.5.37c-.08.06-.14.05-.2-.04-.36-.55-.74-1.01-1.21-1.39l.64-.44ZM124.58,41.74c.07-.05.11-.04.18.02.44.34.88.82,1.14,1.24.05.07.06.14-.04.22l-.48.37c-.1.07-.16.04-.2-.04-.32-.52-.71-.97-1.2-1.38l.6-.43Z"/><path class="uuid-5905871c-ace8-461f-b035-f4d7557391a8" d="M128.93,40.4c-1.08,0-1.45.02-1.52.02-.12,0-.13-.01-.13-.14v-.97c0-.13.01-.14.13-.14.07,0,.44.02,1.52.02h7.22c1.08,0,1.44-.02,1.52-.02.12,0,.13.01.13.14v.97c0,.13-.01.14-.13.14-.08,0-.44-.02-1.52-.02h-2.49c-.18.35-.37.7-.58,1.03v6.02c0,1.1.02,1.66.02,1.73,0,.12-.01.13-.13.13h-1.1c-.12,0-.13-.01-.13-.13,0-.08.02-.62.02-1.73v-4.23c-1.02,1.18-2.25,2.19-3.67,3.02-.13.07-.2.12-.26.12-.08,0-.13-.07-.25-.28-.18-.29-.37-.52-.66-.73,2.3-1.14,4.2-2.89,5.3-4.95h-3.29ZM134.1,42.18s.08-.07.12-.07.06.02.11.07c.97,1.25,2.51,2.41,3.86,3.02-.23.24-.43.54-.6.83-.11.19-.16.28-.23.28-.06,0-.13-.06-.29-.14-1.32-.76-2.64-1.93-3.59-3.15-.08-.11-.07-.14.05-.26l.56-.56Z"/><path class="uuid-5905871c-ace8-461f-b035-f4d7557391a8" d="M149.11,49.19c-.07.11-.14.13-.26.06-1.09-.7-2.15-1.31-3.29-1.82-1.22.95-2.84,1.49-4.93,1.79-.37.04-.38.04-.52-.3-.12-.31-.28-.6-.46-.82,2-.18,3.48-.56,4.57-1.21-.56-.22-1.14-.41-1.76-.58l-.3.4c-.08.1-.14.12-.31.05l-.73-.3c-.2-.08-.19-.13-.11-.24.2-.23.41-.49.59-.74.28-.42.58-.91.86-1.44h-1.21c-1.07,0-1.43.02-1.5.02-.12,0-.13-.01-.13-.13v-.91c0-.12.01-.13.13-.13.07,0,.43.02,1.5.02h1.79c.1-.19.19-.4.28-.6.16-.34.34-.8.42-1.2.43.08.9.19,1.28.31.1.02.16.08.16.16s-.05.14-.14.22c-.1.06-.18.18-.31.46l-.31.66h4.25c1.07,0,1.42-.02,1.5-.02.12,0,.13.01.13.13v.91c0,.12-.01.13-.13.13-.08,0-.43-.02-1.5-.02h-.78c-.36,1.01-.82,1.83-1.39,2.52,1.07.44,2.12.97,3.19,1.55.06.04.08.06.08.11s-.02.1-.07.17l-.58.82ZM148.12,39.69c1.13,0,1.54-.02,1.61-.02.12,0,.13.01.13.12,0,.07-.02.29-.02.61v.49c0,1.06.02,1.24.02,1.31,0,.12-.01.13-.13.13h-1c-.12,0-.13-.01-.13-.13v-1.4h-7.4v1.4c0,.12-.01.13-.13.13h-1c-.12,0-.13-.01-.13-.13,0-.08.02-.25.02-1.31v-.4c0-.42-.02-.64-.02-.71,0-.11.01-.12.13-.12.08,0,.48.02,1.61.02h2.51v-.14c0-.52-.02-.84-.1-1.14.44.01.89.04,1.29.07.13.01.19.05.19.11,0,.08-.04.14-.07.24s-.06.25-.06.72v.14h2.67ZM143.83,44.03c-.24.46-.5.9-.78,1.34.76.2,1.5.43,2.22.7.54-.55.95-1.21,1.26-2.04h-2.7Z"/><path class="uuid-5905871c-ace8-461f-b035-f4d7557391a8" d="M157.6,40.47c.11-.04.16-.04.18.1.06.3.1.66.11.97,0,.11-.05.13-.14.14-.65.13-1.24.22-1.98.32-.77,2.03-1.48,3.68-2.34,5.14-.05.08-.08.12-.13.12-.04,0-.08-.02-.14-.06-.28-.17-.62-.42-.83-.61-.06-.05-.08-.08-.08-.13,0-.04.01-.08.06-.14.9-1.49,1.54-2.75,2.07-4.19-.46.02-.83.02-1.2.02-.26,0-.36,0-.66-.01-.12,0-.14-.04-.17-.19-.06-.23-.1-.62-.12-1.02.49.04.77.05,1.12.05.47,0,.83-.01,1.38-.06.14-.5.23-.91.31-1.34.07-.42.07-.6.07-.97.52.07,1.03.14,1.4.25.12.02.19.1.19.18,0,.1-.04.16-.11.23-.07.1-.12.2-.19.44-.08.29-.18.66-.29,1.02.47-.05,1.02-.16,1.49-.26ZM157.93,43.68c-.01-.32-.02-.52-.1-.85.59.06.9.11,1.31.23.11.02.17.08.17.19,0,.02-.02.11-.07.25-.05.14-.06.29-.05.49,0,.71.04,1.22.13,2.04.86.35,1.45.61,2.16,1.12.12.08.13.13.07.25-.18.37-.35.67-.55.97-.04.06-.07.08-.11.08s-.07-.02-.12-.07c-.53-.46-.97-.72-1.46-1.01,0,1.2-.86,1.75-2.23,1.75s-2.21-.67-2.21-1.7.86-1.75,2.22-1.75c.23,0,.56.01.95.07-.07-.77-.1-1.5-.11-2.06ZM157.08,46.7c-.6,0-1.07.24-1.07.7,0,.38.34.58,1.02.58.65,0,1.04-.35,1.04-.85,0-.11,0-.17-.01-.24-.29-.1-.61-.18-.98-.18ZM159.31,40.93c.07-.12.13-.13.25-.08.71.19,1.66.67,2.35,1.13.07.05.11.08.11.13,0,.04-.01.08-.05.14-.12.26-.34.64-.5.89-.04.06-.07.08-.11.08s-.06-.01-.11-.05c-.71-.48-1.57-1.01-2.48-1.31.2-.36.38-.72.54-.94Z"/><path class="uuid-5905871c-ace8-461f-b035-f4d7557391a8" d="M165.6,41.59c-1.07,0-1.43.02-1.51.02-.12,0-.13-.01-.13-.14v-.97c0-.13.01-.14.13-.14.08,0,.44.02,1.51.02h2.94v-.78c0-.52-.02-.89-.08-1.17.43,0,.9.02,1.31.06.12.01.19.06.19.13,0,.08-.04.16-.07.25-.05.1-.07.25-.07.7v.82h3.15c1.08,0,1.44-.02,1.51-.02.11,0,.12.01.12.14v.97c0,.13-.01.14-.12.14-.07,0-.43-.02-1.51-.02h-4.15c-.01.53-.05,1.02-.1,1.48h2.94c1.01,0,1.34-.02,1.42-.02.12,0,.14.04.14.17-.02.31-.04.64-.05.94-.1,1.79-.24,2.9-.4,3.56-.26,1.14-.73,1.49-1.93,1.49-.22,0-.55,0-.95-.02-.34-.02-.34-.05-.38-.43-.05-.37-.14-.72-.26-.92.62.08,1.16.11,1.48.11.4,0,.6-.19.71-.6.18-.6.31-1.7.37-3.05h-3.26c-.46,2.22-1.48,3.62-3.51,4.83-.16.08-.23.13-.29.13-.08,0-.13-.08-.24-.26-.19-.3-.44-.54-.72-.73,2.76-1.36,3.66-3.01,3.68-6.66h-1.86Z"/><path class="uuid-5905871c-ace8-461f-b035-f4d7557391a8" d="M177.1,46.33c.08-.08.14-.1.18-.1s.08.01.16.07c.89.55,1.68,1.27,2.39,2.2.07.1.08.13.08.18,0,.06-.02.11-.12.19l-.73.62c-.08.07-.13.11-.17.11-.06,0-.11-.02-.17-.12-.64-.92-1.45-1.74-2.27-2.29-.07-.05-.11-.08-.11-.12s.02-.07.08-.14l.67-.6Z"/><path class="uuid-5905871c-ace8-461f-b035-f4d7557391a8" d="M184.5,44.42c0-.35,0-.77.01-1.19-.24.34-.5.66-.77.98-.08.1-.14.14-.2.14s-.11-.07-.16-.22c-.14-.48-.29-.79-.47-1.03,1.15-1.24,1.91-2.65,2.31-3.91.08-.28.17-.55.22-.86.43.12.82.25,1.16.41.12.07.19.11.19.2,0,.08-.04.13-.13.22-.08.06-.14.17-.26.49-.2.55-.43,1.08-.68,1.58v6.12c0,1.21.02,1.81.02,1.87,0,.12-.01.13-.13.13h-1.01c-.12,0-.13-.01-.13-.13,0-.07.02-.66.02-1.87v-2.94ZM193.04,45.47c0,1.27.02,1.86.02,2.34,0,.55-.08.89-.4,1.12-.26.2-.78.3-1.9.3-.38,0-.4.01-.46-.37-.05-.32-.17-.66-.3-.86.49.04.79.04,1.25.04.41,0,.53-.07.53-.44v-7.2h-3.26c-1.15,0-1.56.02-1.63.02-.12,0-.13-.01-.13-.14v-.94c0-.12.01-.13.13-.13.07,0,.48.02,1.63.02h3.72c1.15,0,1.56-.02,1.62-.02.12,0,.13.01.13.13v.94c0,.13-.01.14-.13.14-.05,0-.29-.01-.83-.02v5.08ZM190.71,44.39c0,1.65.02,1.97.02,2.04,0,.12-.01.13-.13.13h-.89c-.12,0-.13-.01-.13-.13v-.5h-1.54v.88c0,.11-.01.12-.13.12h-.89c-.12,0-.13-.01-.13-.12,0-.08.02-.41.02-2.17v-1.16c0-1.07-.02-1.4-.02-1.48,0-.12.01-.13.13-.13.08,0,.34.02,1.13.02h1.32c.79,0,1.04-.02,1.13-.02.12,0,.13.01.13.13,0,.07-.02.4-.02,1.2v1.2ZM188.05,42.95v1.92h1.54v-1.92h-1.54Z"/><path class="uuid-5905871c-ace8-461f-b035-f4d7557391a8" d="M198.91,40.2c.06-.36.12-.83.12-1.33.62.13.96.22,1.44.4.12.04.19.13.19.24,0,.06-.02.12-.08.18-.12.16-.18.29-.24.46-.16.49-.28.94-.43,1.44.32-.04.68-.05.94-.05,1.13,0,1.74.77,1.74,2.22s-.24,2.99-.65,3.85c-.35.77-.92,1.13-1.62,1.13-.58,0-.92-.05-1.19-.13-.14-.05-.22-.16-.22-.34-.04-.38-.06-.72-.23-1.12.54.2.95.26,1.32.26.4,0,.58-.14.77-.64.25-.67.47-1.81.47-2.97,0-.85-.16-1.12-.68-1.12-.29,0-.66.04-1.01.08-.79,2.3-1.48,3.96-2.41,5.64-.07.16-.17.18-.31.11-.22-.11-.68-.4-.83-.53-.06-.06-.1-.11-.1-.18,0-.04.01-.08.05-.13.96-1.67,1.58-2.94,2.19-4.7-.47.07-.85.14-1.18.2-.31.06-.5.13-.66.19-.17.06-.31.04-.38-.16-.11-.28-.24-.71-.37-1.24.53,0,1.06-.04,1.58-.08.5-.05.95-.11,1.42-.18.19-.68.28-1.1.36-1.51ZM203.79,41.01c.08-.05.14-.02.23.06.82.77,1.55,1.76,1.99,2.91.05.11.04.17-.05.24-.2.19-.66.48-.9.6-.12.06-.24.05-.28-.1-.48-1.26-1.1-2.29-1.97-3.11.3-.2.65-.44.97-.61Z"/><path class="uuid-5905871c-ace8-461f-b035-f4d7557391a8" d="M210.31,41.69c.13.06.19.13.19.23,0,.06-.02.12-.06.18-.11.19-.19.41-.24.64-.12.61-.24,1.5-.29,2.18,1.1-1.12,2.54-1.9,4.01-1.9,1.75,0,2.79,1.02,2.79,2.57,0,1.31-.78,2.17-1.81,2.69-.8.41-2.04.7-3.07.83-.26.04-.37.02-.48-.16-.23-.41-.44-.73-.82-1.02,1.34-.08,2.49-.31,3.3-.67.97-.42,1.42-1.04,1.42-1.81,0-.65-.41-1.24-1.44-1.24s-2.33.68-3.45,1.82c-.22.22-.37.42-.52.66-.07.12-.12.12-.28.08-.28-.1-.56-.2-.82-.32-.12-.05-.17-.07-.17-.24.07-1.39.23-2.81.37-3.87.05-.36.11-.67.11-1.08.47.13.97.28,1.25.43ZM210.61,38.66c.06-.06.13-.1.23-.06.89.35,1.63.8,2.35,1.43.06.05.08.08.08.13,0,.04-.02.08-.06.14-.16.25-.41.6-.61.84-.05.06-.1.1-.13.1-.05,0-.08-.02-.14-.08-.67-.59-1.48-1.14-2.42-1.56.29-.43.52-.74.71-.94Z"/><path class="uuid-5905871c-ace8-461f-b035-f4d7557391a8" d="M219.07,40.96c0-.11.01-.12.12-.12.06,0,.34.02,1.1.02.07-.43.13-.86.18-1.3.04-.31.06-.7.05-1.12.37.02.85.07,1.2.14.12.02.18.07.18.14s-.02.14-.1.25c-.07.11-.11.25-.14.55-.06.46-.12.89-.19,1.32h.53c.88,0,1.16-.02,1.24-.02.12,0,.16.04.16.14-.05.34-.07.65-.08.88-.11,1.56-.37,2.82-.82,3.89.36.28.71.58,1.07.9.05.04.07.07.07.11s-.02.08-.07.14l-.44.67c-.1.14-.13.14-.22.07-.34-.31-.64-.59-.95-.84-.49.79-1.13,1.48-1.93,2.1-.13.1-.2.16-.28.16s-.13-.08-.25-.28c-.17-.25-.35-.46-.54-.62.89-.58,1.56-1.22,2.06-2.04-.23-.16-.48-.31-.76-.47l-.06.17c-.05.14-.07.19-.29.12l-.65-.23c-.19-.06-.19-.08-.13-.24.44-1.2.76-2.38.98-3.54-.62.01-.86.02-.92.02-.11,0-.12-.01-.12-.13v-.86ZM221.26,41.93c-.18.91-.4,1.79-.66,2.64.31.17.62.34.92.52.34-.86.54-1.88.65-3.15h-.91ZM228.06,40.33c.13-.06.16-.06.23.04.74.98,1.25,1.91,1.71,3.03.05.12.04.14-.12.23l-.71.34c-.17.08-.2.08-.25-.04-.11-.28-.23-.55-.35-.82-1.33.22-2.84.38-4.2.52-.26.02-.34.07-.41.11-.06.04-.12.07-.19.07-.05,0-.12-.06-.16-.19-.08-.36-.16-.8-.22-1.19.34.02.62.02.89.01.47-1.04.83-2.05,1.1-3.03.11-.34.16-.6.18-.9.47.06.85.13,1.23.24.13.05.19.1.19.18,0,.1-.05.16-.12.23-.07.08-.17.25-.24.47-.36,1.08-.68,1.94-1.04,2.73.84-.07,1.69-.16,2.47-.26-.23-.42-.48-.83-.77-1.25-.07-.12-.06-.14.1-.22l.66-.3ZM225.27,49.2c0,.11-.01.12-.13.12h-.96c-.12,0-.13-.01-.13-.12,0-.08.02-.4.02-2.11v-1c0-1.01-.02-1.34-.02-1.43,0-.12.01-.13.13-.13.08,0,.42.02,1.43.02h2.06c1.01,0,1.36-.02,1.43-.02.13,0,.14.01.14.13,0,.07-.02.42-.02,1.25v1.15c0,1.7.02,2.03.02,2.1,0,.11-.01.12-.14.12h-.98c-.12,0-.13-.01-.13-.12v-.46h-2.71v.49ZM225.27,45.65v1.98h2.71v-1.98h-2.71Z"/><path class="uuid-5905871c-ace8-461f-b035-f4d7557391a8" d="M237.28,39.82c.04-.26.06-.55.02-.82.6.12,1.07.29,1.42.48.13.06.19.13.19.22,0,.06-.04.13-.08.2-.11.16-.17.26-.24.44-.07.19-.18.48-.34.96,1.9.3,3.2,1.57,3.2,3.48,0,2.13-1.3,3.42-3.68,4.01-.26.06-.35.02-.49-.2-.18-.29-.46-.6-.78-.79,1.63-.33,3.59-1.08,3.59-3.17,0-1.21-.84-2.13-2.16-2.27-.59,1.43-1.12,2.51-1.75,3.5.13.18.29.4.52.61-.31.37-.52.59-.74.73-.05.04-.11.06-.17.06s-.11-.02-.17-.07c-.1-.1-.19-.19-.32-.35-.78.83-1.36,1.14-2,1.14-.91,0-1.57-.74-1.57-1.94s.55-2.4,1.7-3.44c-.13-.46-.25-1.06-.37-1.58-.12-.47-.19-.79-.36-1.13.58.02,1.03.08,1.36.19.19.05.23.13.23.35,0,.19,0,.37.05.68.06.35.1.56.17.85.67-.36,1.63-.61,2.45-.68.13-.38.24-.83.35-1.46ZM232.95,45.92c0,.41.17.73.42.73.36,0,.74-.26,1.25-.88-.35-.67-.64-1.33-.83-1.94-.53.62-.84,1.39-.84,2.09ZM235.44,44.8c.41-.66.76-1.43,1.14-2.42-.56.07-1.27.32-1.81.67.16.58.41,1.26.67,1.75Z"/><path class="uuid-5905871c-ace8-461f-b035-f4d7557391a8" d="M248.83,41.16c-1.46.28-2.75.53-4.03.79-.46.11-.58.13-.76.19-.08.04-.17.1-.26.1-.08,0-.18-.07-.23-.18-.16-.32-.29-.74-.44-1.29.61-.02.97-.07,1.91-.2,1.48-.22,4.11-.61,7.21-1.02.18-.02.24.05.25.13.06.28.12.72.13,1.06,0,.14-.07.18-.23.18-.56.04-.95.1-1.46.26-2.04.7-3.06,2.1-3.06,3.54,0,1.55,1.1,2.39,3.19,2.52.19,0,.26.05.26.18,0,.31-.05.73-.13,1.03-.04.18-.08.25-.23.25-2.11,0-4.43-1.21-4.43-3.71,0-1.7.85-2.85,2.3-3.8v-.02Z"/><path class="uuid-5905871c-ace8-461f-b035-f4d7557391a8" d="M256.74,40.48c.11.05.19.13.19.22,0,.07-.04.19-.1.34-.05.14-.11.66-.11,1.17,0,.77.02,1.63.22,2.73.17.95.48,1.76.98,1.76.38,0,.68-.42,1.15-1.67.26.42.53.7.77.92.14.13.14.28.08.44-.46,1.22-1.2,1.87-2.04,1.87-.94,0-1.92-1.1-2.24-3.13-.19-1.14-.29-2.39-.29-3.49,0-.66-.02-1.02-.14-1.57.58.07,1.16.22,1.52.4ZM262.31,41.24s.1-.05.13-.05c.05,0,.08.02.13.07,1.09.95,2.05,2.6,2.35,4.1.04.16-.04.2-.13.26-.31.2-.61.37-.94.48-.14.05-.23.01-.25-.13-.41-1.72-1.02-2.96-2.24-4.19.46-.29.76-.46.95-.55Z"/><path class="uuid-5905871c-ace8-461f-b035-f4d7557391a8" d="M268.63,40.48c.11.05.19.13.19.22,0,.07-.04.19-.1.34-.05.14-.11.66-.11,1.17,0,.77.02,1.63.22,2.73.17.95.48,1.76.98,1.76.38,0,.68-.42,1.15-1.67.26.42.53.7.77.92.14.13.14.28.08.44-.46,1.22-1.2,1.87-2.04,1.87-.94,0-1.92-1.1-2.24-3.13-.19-1.14-.29-2.39-.29-3.49,0-.66-.02-1.02-.14-1.57.58.07,1.16.22,1.52.4ZM274.19,41.24s.1-.05.13-.05c.05,0,.08.02.13.07,1.09.95,2.05,2.6,2.35,4.1.04.16-.04.2-.13.26-.31.2-.61.37-.94.48-.14.05-.23.01-.25-.13-.41-1.72-1.02-2.96-2.24-4.19.46-.29.76-.46.95-.55Z"/><path class="uuid-5905871c-ace8-461f-b035-f4d7557391a8" d="M281.83,40.2c.06-.36.12-.83.12-1.33.62.13.96.22,1.44.4.12.04.19.13.19.24,0,.06-.02.12-.08.18-.12.16-.18.29-.24.46-.16.49-.28.94-.43,1.44.32-.04.68-.05.94-.05,1.13,0,1.74.77,1.74,2.22s-.24,2.99-.65,3.85c-.35.77-.92,1.13-1.62,1.13-.58,0-.92-.05-1.19-.13-.14-.05-.22-.16-.22-.34-.04-.38-.06-.72-.23-1.12.54.2.95.26,1.32.26.4,0,.58-.14.77-.64.25-.67.47-1.81.47-2.97,0-.85-.16-1.12-.68-1.12-.29,0-.66.04-1.01.08-.79,2.3-1.48,3.96-2.41,5.64-.07.16-.17.18-.31.11-.22-.11-.68-.4-.83-.53-.06-.06-.1-.11-.1-.18,0-.04.01-.08.05-.13.96-1.67,1.58-2.94,2.19-4.7-.47.07-.85.14-1.18.2-.31.06-.5.13-.66.19-.17.06-.31.04-.38-.16-.11-.28-.24-.71-.37-1.24.53,0,1.06-.04,1.58-.08.5-.05.95-.11,1.42-.18.19-.68.28-1.1.36-1.51ZM286.71,41.01c.08-.05.14-.02.23.06.82.77,1.55,1.76,1.99,2.91.05.11.04.17-.05.24-.2.19-.66.48-.9.6-.12.06-.24.05-.28-.1-.48-1.26-1.1-2.29-1.97-3.11.3-.2.65-.44.97-.61Z"/><path class="uuid-5905871c-ace8-461f-b035-f4d7557391a8" d="M297.76,38.61c.16-.07.18-.06.23.06.78,1.83,2.25,3.49,3.89,4.43-.22.19-.49.55-.7.9-.11.18-.16.26-.23.26-.06,0-.13-.06-.25-.16-.41-.3-.79-.62-1.14-.97-.02.35-.02.77-.04,1.19-.04,1.28-.12,2.24-.3,3.36-.16.95-.61,1.47-1.79,1.47-.3,0-.53,0-.82-.02-.37-.02-.36-.02-.44-.42-.08-.41-.2-.73-.37-.96.6.08.95.11,1.37.11.5,0,.71-.19.8-.74.12-.7.2-1.62.23-2.97h-2.13c-.23,2.4-1.43,4.1-3.65,5.08-.13.06-.22.1-.29.1-.1,0-.13-.08-.25-.29-.16-.29-.38-.55-.61-.72,2.18-.79,3.24-2.06,3.47-4.17h-.14c-1.13,0-1.51.02-1.58.02-.12,0-.13-.01-.13-.13v-.88c-.37.36-.76.68-1.16,1-.13.1-.2.16-.26.16-.08,0-.13-.08-.25-.26-.19-.3-.47-.6-.67-.73,1.62-1.04,2.78-2.46,3.47-3.96.11-.24.18-.47.24-.77.43.11.92.28,1.25.42.13.06.17.12.17.2,0,.07-.04.12-.1.18-.12.1-.19.2-.28.38-.6,1.3-1.33,2.32-2.19,3.18.17.01.59.02,1.51.02h3.23c1.04,0,1.44-.01,1.56-.02-1.12-1.13-1.98-2.43-2.58-3.8-.05-.13-.02-.14.11-.2l.85-.34Z"/><path class="uuid-5905871c-ace8-461f-b035-f4d7557391a8" d="M307,40.2c.06-.36.12-.83.12-1.33.62.13.96.22,1.44.4.12.04.19.13.19.24,0,.06-.02.12-.08.18-.12.16-.18.29-.24.46-.16.49-.28.94-.43,1.44.32-.04.68-.05.94-.05,1.13,0,1.74.77,1.74,2.22s-.24,2.99-.65,3.85c-.35.77-.92,1.13-1.62,1.13-.58,0-.92-.05-1.19-.13-.14-.05-.22-.16-.22-.34-.04-.38-.06-.72-.23-1.12.54.2.95.26,1.32.26.4,0,.58-.14.77-.64.25-.67.47-1.81.47-2.97,0-.85-.16-1.12-.68-1.12-.29,0-.66.04-1.01.08-.79,2.3-1.48,3.96-2.41,5.64-.07.16-.17.18-.31.11-.22-.11-.68-.4-.83-.53-.06-.06-.1-.11-.1-.18,0-.04.01-.08.05-.13.96-1.67,1.58-2.94,2.19-4.7-.47.07-.85.14-1.18.2-.31.06-.5.13-.66.19-.17.06-.31.04-.38-.16-.11-.28-.24-.71-.37-1.24.53,0,1.06-.04,1.58-.08.5-.05.95-.11,1.42-.18.19-.68.28-1.1.36-1.51ZM311.88,41.01c.08-.05.14-.02.23.06.82.77,1.55,1.76,1.99,2.91.05.11.04.17-.05.24-.2.19-.66.48-.9.6-.12.06-.24.05-.28-.1-.48-1.26-1.1-2.29-1.97-3.11.3-.2.65-.44.97-.61Z"/><path class="uuid-5905871c-ace8-461f-b035-f4d7557391a8" d="M318.4,41.69c.13.06.19.13.19.23,0,.06-.02.12-.06.18-.11.19-.19.41-.24.64-.12.61-.24,1.5-.29,2.18,1.1-1.12,2.54-1.9,4.01-1.9,1.75,0,2.79,1.02,2.79,2.57,0,1.31-.78,2.17-1.81,2.69-.8.41-2.04.7-3.07.83-.26.04-.37.02-.48-.16-.23-.41-.44-.73-.82-1.02,1.34-.08,2.49-.31,3.3-.67.97-.42,1.42-1.04,1.42-1.81,0-.65-.41-1.24-1.44-1.24s-2.33.68-3.45,1.82c-.22.22-.37.42-.52.66-.07.12-.12.12-.28.08-.28-.1-.56-.2-.82-.32-.12-.05-.17-.07-.17-.24.07-1.39.23-2.81.37-3.87.05-.36.11-.67.11-1.08.47.13.97.28,1.25.43ZM318.7,38.66c.06-.06.13-.1.23-.06.89.35,1.63.8,2.35,1.43.06.05.08.08.08.13,0,.04-.02.08-.06.14-.16.25-.41.6-.61.84-.05.06-.1.1-.13.1-.05,0-.08-.02-.14-.08-.67-.59-1.48-1.14-2.42-1.56.29-.43.52-.74.71-.94Z"/><path class="uuid-5905871c-ace8-461f-b035-f4d7557391a8" d="M332.81,40.47c.11-.04.16-.04.18.1.06.3.1.66.11.97,0,.11-.05.13-.14.14-.65.13-1.24.22-1.98.32-.77,2.03-1.48,3.68-2.34,5.14-.05.08-.08.12-.13.12-.04,0-.08-.02-.14-.06-.28-.17-.62-.42-.83-.61-.06-.05-.08-.08-.08-.13,0-.04.01-.08.06-.14.9-1.49,1.54-2.75,2.08-4.19-.46.02-.83.02-1.2.02-.26,0-.36,0-.66-.01-.12,0-.14-.04-.17-.19-.06-.23-.1-.62-.12-1.02.49.04.77.05,1.12.05.47,0,.83-.01,1.38-.06.14-.5.23-.91.31-1.34.07-.42.07-.6.07-.97.52.07,1.03.14,1.4.25.12.02.19.1.19.18,0,.1-.04.16-.11.23-.07.1-.12.2-.19.44-.08.29-.18.66-.29,1.02.47-.05,1.02-.16,1.49-.26ZM333.15,43.68c-.01-.32-.02-.52-.1-.85.59.06.9.11,1.31.23.11.02.17.08.17.19,0,.02-.02.11-.07.25-.05.14-.06.29-.05.49,0,.71.04,1.22.13,2.04.86.35,1.45.61,2.16,1.12.12.08.13.13.07.25-.18.37-.35.67-.55.97-.04.06-.07.08-.11.08s-.07-.02-.12-.07c-.53-.46-.97-.72-1.46-1.01,0,1.2-.86,1.75-2.23,1.75s-2.21-.67-2.21-1.7.86-1.75,2.22-1.75c.23,0,.56.01.95.07-.07-.77-.1-1.5-.11-2.06ZM332.29,46.7c-.6,0-1.07.24-1.07.7,0,.38.34.58,1.02.58.65,0,1.04-.35,1.04-.85,0-.11,0-.17-.01-.24-.29-.1-.61-.18-.98-.18ZM334.52,40.93c.07-.12.13-.13.25-.08.71.19,1.66.67,2.35,1.13.07.05.11.08.11.13,0,.04-.01.08-.05.14-.12.26-.34.64-.5.89-.04.06-.07.08-.11.08s-.06-.01-.11-.05c-.71-.48-1.57-1.01-2.48-1.31.2-.36.38-.72.54-.94Z"/><path class="uuid-5905871c-ace8-461f-b035-f4d7557391a8" d="M341.13,40.48c.11.05.19.13.19.22,0,.07-.04.19-.1.34-.05.14-.11.66-.11,1.17,0,.77.02,1.63.22,2.73.17.95.48,1.76.98,1.76.38,0,.68-.42,1.15-1.67.26.42.53.7.77.92.14.13.14.28.08.44-.46,1.22-1.2,1.87-2.04,1.87-.94,0-1.92-1.1-2.24-3.13-.19-1.14-.29-2.39-.29-3.49,0-.66-.02-1.02-.14-1.57.58.07,1.16.22,1.52.4ZM346.69,41.24s.1-.05.13-.05c.05,0,.08.02.13.07,1.09.95,2.05,2.6,2.35,4.1.04.16-.04.2-.13.26-.31.2-.61.37-.94.48-.14.05-.23.01-.25-.13-.41-1.72-1.02-2.96-2.24-4.19.46-.29.76-.46.95-.55Z"/><path class="uuid-5905871c-ace8-461f-b035-f4d7557391a8" d="M25.33,63.59c-1.07,0-1.43.02-1.51.02-.12,0-.13-.01-.13-.14v-.97c0-.13.01-.14.13-.14.08,0,.44.02,1.51.02h2.94v-.78c0-.52-.02-.89-.08-1.17.43,0,.9.02,1.31.06.12.01.19.06.19.13,0,.08-.04.16-.07.25-.05.1-.07.25-.07.7v.82h3.15c1.08,0,1.44-.02,1.51-.02.11,0,.12.01.12.14v.97c0,.13-.01.14-.12.14-.07,0-.43-.02-1.51-.02h-4.15c-.01.53-.05,1.02-.1,1.48h2.94c1.01,0,1.34-.02,1.42-.02.12,0,.14.04.14.17-.02.31-.04.64-.05.94-.1,1.79-.24,2.9-.4,3.56-.26,1.14-.73,1.49-1.93,1.49-.22,0-.55,0-.95-.02-.34-.02-.34-.05-.38-.43-.05-.37-.14-.72-.26-.92.62.08,1.16.11,1.48.11.4,0,.6-.19.71-.6.18-.6.31-1.7.37-3.05h-3.26c-.46,2.22-1.48,3.62-3.51,4.83-.16.08-.23.13-.29.13-.08,0-.13-.08-.24-.26-.19-.3-.44-.54-.72-.73,2.76-1.36,3.66-3.01,3.68-6.66h-1.86Z"/><path class="uuid-5905871c-ace8-461f-b035-f4d7557391a8" d="M36.27,68.33c.08-.08.14-.1.18-.1s.08.01.16.07c.89.55,1.68,1.27,2.39,2.2.07.1.08.13.08.18,0,.06-.02.11-.12.19l-.73.62c-.08.07-.13.11-.17.11-.06,0-.11-.02-.17-.12-.64-.92-1.45-1.74-2.27-2.29-.07-.05-.11-.08-.11-.12s.02-.07.08-.14l.67-.6Z"/><path class="uuid-5905871c-ace8-461f-b035-f4d7557391a8" d="M46.23,61.16c.14.04.22.1.22.19,0,.17-.08.34-.08.5,0,.24.04.53.06.8.11.84.23,1.44.38,2.06.6-.32,1.03-.55,1.7-.91.35-.2.64-.41.83-.65.38.4.7.82.88,1.13.05.07.08.17.08.25,0,.12-.07.22-.24.24-.36.06-.77.2-1.15.36-1.03.42-1.99.86-2.82,1.4-1.04.68-1.42,1.25-1.42,1.81,0,.7.49,1.01,1.99,1.01,1.34,0,2.65-.11,3.57-.28.13-.02.19,0,.22.14.06.32.1.76.12,1.12.01.13-.07.19-.22.2-1.09.14-2.05.18-3.57.18-2.27,0-3.47-.74-3.47-2.3,0-1.33.88-2.21,2.28-3.09-.29-.92-.5-2-.62-2.93-.08-.64-.17-1.06-.31-1.39.58,0,1.13.04,1.57.14ZM50.15,61.3c.06-.05.11-.04.18.02.37.29.8.77,1.14,1.28.05.07.05.13-.04.19l-.5.37c-.08.06-.14.05-.2-.04-.36-.55-.74-1.01-1.21-1.39l.64-.44ZM51.22,60.52c.07-.05.11-.04.18.02.44.33.88.82,1.14,1.24.05.07.06.14-.04.22l-.48.37c-.1.07-.16.04-.2-.04-.32-.52-.71-.97-1.2-1.38l.6-.43Z"/><path class="uuid-5905871c-ace8-461f-b035-f4d7557391a8" d="M56.14,66.38c.48-.4,1-.61,1.46-.61,1.3,0,1.62,1.12,1.75,2.27.1.88.24,1.27.7,1.27.43,0,.79-.22,1.13-.58.42-.44.91-1.14,1.21-1.96.24.54.48.78.7,1,.1.08.13.17.13.25,0,.07-.01.13-.05.2-.24.5-.64,1.05-1.03,1.49-.6.65-1.38,1.01-2.21,1.01-1.21,0-1.73-.64-1.88-2.33-.11-1.2-.37-1.55-.79-1.55-.52,0-1.03.38-1.51,1.02-.43.58-.94,1.56-1.4,2.66-.07.17-.13.19-.29.14-.32-.13-.65-.3-.92-.52-.07-.05-.11-.11-.11-.16s.02-.11.06-.17c1.75-3.43,2.85-5.72,3.51-7.22.35-.79.5-1.21.6-1.75.56.23,1.02.44,1.34.67.11.07.17.16.17.25,0,.07-.05.16-.13.24-.14.16-.26.34-.37.52-.77,1.48-1.42,2.73-2.07,3.81v.02Z"/><path class="uuid-5905871c-ace8-461f-b035-f4d7557391a8" d="M70.28,62.47c.11-.04.16-.04.18.1.06.3.1.66.11.97,0,.11-.05.13-.14.14-.65.13-1.24.22-1.98.32-.77,2.03-1.48,3.68-2.34,5.14-.05.08-.08.12-.13.12-.04,0-.08-.02-.14-.06-.28-.17-.62-.42-.83-.61-.06-.05-.08-.08-.08-.13,0-.04.01-.08.06-.14.9-1.49,1.54-2.75,2.08-4.19-.46.02-.83.02-1.2.02-.26,0-.36,0-.66-.01-.12,0-.14-.04-.17-.19-.06-.23-.1-.62-.12-1.02.49.04.77.05,1.12.05.47,0,.83-.01,1.38-.06.14-.5.23-.91.31-1.34.07-.42.07-.6.07-.97.52.07,1.03.14,1.4.25.12.02.19.1.19.18,0,.1-.04.16-.11.23-.07.1-.12.2-.19.44-.08.29-.18.66-.29,1.02.47-.05,1.02-.16,1.49-.26ZM70.62,65.68c-.01-.32-.02-.52-.1-.85.59.06.9.11,1.31.23.11.02.17.08.17.19,0,.02-.02.11-.07.25-.05.14-.06.29-.05.49,0,.71.04,1.22.13,2.04.86.35,1.45.61,2.16,1.12.12.08.13.13.07.25-.18.37-.35.67-.55.97-.04.06-.07.08-.11.08s-.07-.02-.12-.07c-.53-.46-.97-.72-1.46-1.01,0,1.2-.86,1.75-2.23,1.75s-2.21-.67-2.21-1.7.86-1.75,2.22-1.75c.23,0,.56.01.95.07-.07-.77-.1-1.5-.11-2.06ZM69.76,68.7c-.6,0-1.07.24-1.07.7,0,.38.34.58,1.02.58.65,0,1.04-.35,1.04-.85,0-.11,0-.17-.01-.24-.29-.1-.61-.18-.98-.18ZM71.99,62.93c.07-.12.13-.13.25-.08.71.19,1.66.67,2.35,1.13.07.05.11.08.11.13,0,.04-.01.08-.05.14-.12.26-.34.64-.5.89-.04.06-.07.08-.11.08s-.06-.01-.11-.05c-.71-.48-1.57-1.01-2.48-1.31.2-.36.38-.72.54-.94Z"/><path class="uuid-5905871c-ace8-461f-b035-f4d7557391a8" d="M77.72,63.59c-1.07,0-1.43.02-1.51.02-.12,0-.13-.01-.13-.14v-.97c0-.13.01-.14.13-.14.08,0,.44.02,1.51.02h2.94v-.78c0-.52-.02-.89-.08-1.17.43,0,.9.02,1.31.06.12.01.19.06.19.13,0,.08-.04.16-.07.25-.05.1-.07.25-.07.7v.82h3.15c1.08,0,1.44-.02,1.51-.02.11,0,.12.01.12.14v.97c0,.13-.01.14-.12.14-.07,0-.43-.02-1.51-.02h-4.15c-.01.53-.05,1.02-.1,1.48h2.94c1.01,0,1.34-.02,1.42-.02.12,0,.14.04.14.17-.02.31-.04.64-.05.94-.1,1.79-.24,2.9-.4,3.56-.26,1.14-.73,1.49-1.93,1.49-.22,0-.55,0-.95-.02-.34-.02-.34-.05-.38-.43-.05-.37-.14-.72-.26-.92.62.08,1.16.11,1.48.11.4,0,.6-.19.71-.6.18-.6.31-1.7.37-3.05h-3.26c-.46,2.22-1.48,3.62-3.51,4.83-.16.08-.23.13-.29.13-.08,0-.13-.08-.24-.26-.19-.3-.44-.54-.72-.73,2.76-1.36,3.66-3.01,3.68-6.66h-1.86Z"/><path class="uuid-5905871c-ace8-461f-b035-f4d7557391a8" d="M91.57,68.27c0,1.1.48,1.54,1.6,1.54,1.4,0,2.18-.54,2.18-1.62,0-.67-.17-1.22-1.08-2.18.48.06.74,0,1.22-.07.08-.02.18-.01.25.05.66.62,1.02,1.44,1.02,2.25,0,1.7-1.39,2.81-3.45,2.81s-3.02-.96-3.02-2.71c0-.25.04-.59.08-1.13-.72-.11-1.2-.22-1.63-.36-.08-.02-.12-.08-.13-.23-.04-.37-.05-.74-.02-1.12.72.26,1.26.4,1.94.47.06-.44.16-1.22.2-1.72-.84-.11-1.27-.18-1.73-.33-.14-.04-.19-.1-.19-.2-.01-.29-.04-.68-.04-1.12.82.26,1.39.37,2.17.46.1-.7.13-1.02.16-1.38.02-.34.02-.68-.01-1.01.55.07,1.18.23,1.44.34.17.06.26.17.26.28,0,.08-.04.16-.1.23-.08.08-.14.24-.22.52-.06.28-.13.68-.19,1.13.48.04.97,0,1.48-.07.08,0,.12.06.12.14.01.29.01.62-.02.9,0,.13-.05.17-.19.18-.53.06-1.07.07-1.6.06-.07.42-.19,1.24-.26,1.71.64.01,1.13,0,1.7-.04.16-.02.19.02.19.13,0,.22-.02.65-.06.9-.01.14-.05.19-.17.19-.6.05-1.22.05-1.83.04-.06.47-.07.76-.07.97Z"/><path class="uuid-5905871c-ace8-461f-b035-f4d7557391a8" d="M100.81,62.56c-.37.55-.79,1.06-1.31,1.55-.13.13-.22.2-.28.2-.07,0-.14-.07-.26-.24-.18-.24-.4-.42-.61-.55.97-.77,1.56-1.56,2.09-2.64.08-.17.16-.36.22-.63.37.06.79.17,1.09.26.11.04.17.1.17.17,0,.08-.04.11-.08.16-.07.07-.16.13-.2.26l-.18.37h5.36c1.18,0,1.57-.02,1.64-.02.13,0,.14.01.14.13v.88c0,.12-.01.13-.14.13-.07,0-.47-.02-1.64-.02h-6ZM100.64,66.64c.12-.11.14-.12.24-.05.52.35,1.06.72,1.61,1.14.24-.28.47-.56.7-.88.12-.18.26-.43.36-.67.36.12.79.32,1.03.49.11.08.16.16.16.22,0,.07-.06.13-.16.19-.11.06-.18.16-.32.35-.25.36-.53.71-.83,1.03.53.43,1.07.9,1.62,1.4.06.05.1.1.1.14s-.02.08-.07.13l-.67.7c-.07.07-.12.11-.17.11-.04,0-.07-.02-.12-.07-.5-.55-1.02-1.07-1.56-1.56-.83.71-1.8,1.32-2.96,1.8-.14.06-.23.1-.3.1-.08,0-.14-.07-.26-.28-.17-.28-.4-.53-.61-.7,1.43-.46,2.43-1.01,3.24-1.69-.5-.41-1.03-.8-1.58-1.17-.11-.07-.11-.1.01-.22l.56-.52ZM100.77,66.02c-1.16,0-1.57.02-1.64.02-.13,0-.14-.01-.14-.13v-.9c0-.12.01-.13.14-.13.07,0,.48.02,1.64.02h4.68c1.19,0,1.58-.02,1.66-.02.12,0,.14.02.14.14-.04.56-.04,1.07-.01,1.55.02.9.1,1.75.23,2.33.16.68.2.98.44.98.14,0,.25-.4.34-1.54.17.2.53.41.83.52.25.1.24.13.18.52-.2,1.38-.52,1.91-1.26,1.91-.67,0-1.27-.54-1.67-1.89-.2-.78-.32-1.82-.32-3.37h-5.23ZM102.4,64.23c-1.14,0-1.52.02-1.58.02-.12,0-.13-.01-.13-.14v-.8c0-.12.01-.13.13-.13.06,0,.44.02,1.58.02h3.38c1.13,0,1.52-.02,1.59-.02.12,0,.13.01.13.13v.8c0,.13-.01.14-.13.14-.07,0-.47-.02-1.59-.02h-3.38Z"/><path class="uuid-5905871c-ace8-461f-b035-f4d7557391a8" d="M119.83,61.04c.14,0,.23-.02.3-.06.05-.02.1-.05.16-.05.1,0,.17.02.49.35.34.35.36.4.36.5,0,.08-.02.14-.14.24-.12.1-.2.22-.38.52-.38.62-.8,1.16-1.28,1.66.64.41,1.4.74,2.35,1.06-.16.19-.3.46-.41.74-.1.23-.12.32-.23.32-.06,0-.14-.04-.28-.08-.89-.35-1.66-.77-2.31-1.27-.65.49-1.39.91-2.24,1.29-.13.06-.23.1-.29.1-.1,0-.13-.1-.23-.32-.12-.24-.25-.48-.38-.65v1.06c0,.73.02,1.05.02,1.13,0,.11-.01.12-.13.12-.08,0-.41-.02-1.32-.02h-.23v.78h.3c1.04,0,1.42-.02,1.49-.02.11,0,.12.01.12.13v.77c0,.12-.01.13-.12.13-.07,0-.44-.02-1.49-.02h-.3c0,1.13.02,1.75.02,1.8,0,.12-.01.13-.13.13h-.89c-.12,0-.13-.01-.13-.13,0-.06.01-.67.02-1.8h-.53c-1.04,0-1.39.02-1.46.02-.12,0-.13-.01-.13-.13v-.77c0-.12.01-.13.13-.13.07,0,.42.02,1.46.02h.53v-.78h-.22c-.91,0-1.24.02-1.31.02-.12,0-.13-.01-.13-.12,0-.08.02-.4.02-1.13v-1.86c0-.72-.02-1.04-.02-1.12,0-.12.01-.13.13-.13.07,0,.4.02,1.31.02h.23v-.77h-.52c-1.01,0-1.34.02-1.42.02-.12,0-.13-.01-.13-.13v-.78c0-.11.01-.12.13-.12.07,0,.41.02,1.42.02h.52c0-.52-.02-.85-.08-1.24.44.01.79.04,1.14.08.13.02.19.06.19.12,0,.07-.02.13-.06.22-.05.11-.08.26-.08.78v.04h.29c1.01,0,1.37-.02,1.44-.02.11,0,.12.01.12.12v.78c0,.12-.01.13-.12.13-.07,0-.43-.02-1.44-.02h-.29v.77h.22c.91,0,1.24-.02,1.32-.02.12,0,.13.01.13.13,0,.07-.02.4-.02,1.12v.78c.89-.31,1.64-.71,2.29-1.16-.58-.59-1.04-1.28-1.43-2.09-.17.01-.25.01-.28.01-.13,0-.14-.01-.14-.13v-.84c0-.12.01-.13.14-.13.07,0,.42.02,1.44.02h2.49ZM112.61,65.08v-.86h-.71v.86h.71ZM112.61,66.8v-.9h-.71v.9h.71ZM113.61,64.22v.86h.71v-.86h-.71ZM114.32,65.9h-.71v.9h.71v-.9ZM119.47,67.2c1.01,0,1.34-.02,1.43-.02.12,0,.13.01.13.13v.85c0,.12-.01.13-.13.13-.08,0-.42-.02-1.43-.02h-.55v1.62h.9c1.12,0,1.49-.02,1.56-.02.11,0,.12.01.12.13v.85c0,.13-.01.14-.12.14-.07,0-.44-.02-1.56-.02h-2.9c-1.12,0-1.48.02-1.55.02-.12,0-.13-.01-.13-.14v-.85c0-.12.01-.13.13-.13.07,0,.43.02,1.55.02h.82v-1.62h-.36c-1.01,0-1.34.02-1.42.02-.12,0-.13-.01-.13-.13v-.85c0-.12.01-.13.13-.13.07,0,.41.02,1.42.02h.36v-.06c0-.61-.01-.9-.08-1.39.43.01.8.05,1.21.08.12.01.18.06.18.13,0,.08-.01.17-.05.25-.07.14-.07.41-.07.91v.07h.55ZM117.36,62.1c.3.53.65,1,1.08,1.4.43-.43.8-.9,1.09-1.4h-2.17Z"/><path class="uuid-5905871c-ace8-461f-b035-f4d7557391a8" d="M125.15,61.72c.2.11.28.18.28.29,0,.08-.02.12-.18.36-.12.22-.18.38-.29.85-.34,1.49-.5,2.96-.5,3.87,0,.59.02.98.07,1.4.25-.55.47-.95.82-1.79.1.3.25.49.42.76.04.06.08.13.08.18,0,.08-.02.13-.06.19-.28.62-.5,1.14-.68,1.81-.02.07-.04.2-.04.37,0,.14.02.24.02.34,0,.08-.05.13-.16.16-.3.08-.64.16-.98.19-.08.01-.13-.05-.16-.13-.34-.84-.55-2.36-.55-3.57,0-1.08.13-2.39.41-3.93.16-.89.22-1.28.22-1.79.54.13.92.25,1.28.44ZM127.71,67.37c.1-.01.12.05.12.18.07.83.65,1.13,1.95,1.13.9,0,1.49-.06,2.29-.16.12-.01.14,0,.17.16.04.25.07.72.07,1.03,0,.14,0,.16-.2.18-.82.1-1.39.13-1.95.13-1.77,0-2.6-.29-3.12-1-.3-.38-.42-1-.42-1.56l1.09-.1ZM127.04,62.89c.01-.14.05-.18.17-.2.71-.13,2.05-.22,2.6-.22.72,0,1.27.02,1.78.07.25.01.28.04.28.16,0,.36,0,.68-.02,1.02-.01.11-.05.16-.16.14-.72-.05-1.34-.07-1.95-.07-.8,0-1.58.07-2.72.28.01-.67.01-.97.04-1.18Z"/><path class="uuid-5905871c-ace8-461f-b035-f4d7557391a8" d="M135.44,64.97c-1.08,0-1.44.02-1.51.02-.12,0-.13-.01-.13-.13v-.82c0-.12.01-.13.13-.13.07,0,.43.02,1.51.02h2.18c.1-.14.18-.3.25-.46.06-.14.12-.25.16-.36-.66.04-1.33.07-2.03.1-.42.01-.6.04-.7.08-.07.04-.12.06-.19.06s-.11-.08-.14-.18c-.07-.32-.13-.67-.18-1.02.52.04.89.04,1.26.02h.43c.38-.52.62-.9.84-1.32.12-.22.18-.36.24-.58.41.08.82.18,1.14.28.11.04.17.11.17.17,0,.08-.08.14-.14.19-.11.08-.2.2-.29.37-.19.31-.34.53-.58.85,1.07-.02,2.11-.07,3.05-.13-.24-.2-.49-.4-.74-.58-.11-.07-.11-.11.05-.2l.59-.34c.13-.08.17-.1.29-.01.85.6,1.62,1.25,2.39,2.05.08.1.07.13-.07.23l-.66.44c-.07.05-.12.07-.16.07s-.06-.02-.11-.07c-.23-.25-.44-.5-.66-.73-.84.07-1.68.13-2.52.18-.06.1-.11.24-.2.48l-.18.4h3.77c1.08,0,1.44-.02,1.51-.02.13,0,.14.01.14.13v.82c0,.12-.01.13-.14.13-.07,0-.43-.02-1.51-.02h-1.48c.82.77,1.98,1.36,3.44,1.73-.17.2-.32.48-.43.78-.08.23-.12.31-.22.31-.06,0-.16-.04-.29-.08-1.7-.62-3.03-1.56-3.9-2.73h-1.54c-.89,1.18-2.17,2.06-3.86,2.71-.14.05-.23.08-.29.08-.1,0-.13-.08-.24-.29-.12-.25-.26-.46-.44-.64,1.46-.44,2.57-1.09,3.36-1.87h-1.37ZM138.55,65.97c.19-.17.38-.36.5-.54.31.19.68.44.85.58.1.08.13.14.13.22s-.11.13-.2.16c-.14.04-.24.1-.42.24-.84.67-2,1.32-3.23,1.63-.32.08-.32.07-.48-.19-.13-.23-.37-.46-.49-.55,1.48-.32,2.61-.9,3.33-1.54ZM140.06,67.06c.2-.16.36-.34.47-.48.29.17.61.4.83.56.1.07.12.13.12.19,0,.07-.06.16-.17.18-.12.04-.24.08-.43.24-1.07.92-2.7,1.67-4.64,2.04-.34.07-.36.05-.49-.25-.11-.25-.26-.52-.4-.65,2.07-.3,3.51-.89,4.71-1.83ZM141.47,68.34c.24-.18.44-.37.59-.59.34.19.64.38.92.6.1.07.13.13.13.2,0,.06-.06.13-.19.16-.11.02-.25.1-.49.28-1.7,1.38-3.53,2.04-6.19,2.39-.35.04-.36.04-.49-.29-.13-.32-.26-.54-.41-.7,2.66-.25,4.5-.85,6.13-2.05Z"/><path class="uuid-5905871c-ace8-461f-b035-f4d7557391a8" d="M148.7,63.92c-.08,1.31-.24,2.48-.49,3.48-.31,1.24-.78,2.4-1.61,3.47-.11.13-.17.2-.23.2s-.11-.06-.2-.2c-.24-.37-.49-.63-.76-.85.82-.96,1.27-1.85,1.6-3.06.25-.91.38-1.85.44-3.03h-.16c-1.02,0-1.37.02-1.44.02-.12,0-.13-.01-.13-.13v-.9c0-.12.01-.12.13-.12.07,0,.42.01,1.44.01h.19c.01-.23.01-.47.01-.73,0-.74-.02-1.12-.08-1.69.43.01.86.04,1.3.07.12.02.18.07.18.13,0,.08-.06.22-.08.34-.04.16-.06.46-.06,1.19,0,.24,0,.47-.01.7h.78c1.03,0,1.38-.01,1.45-.01.12,0,.14.01.14.13-.02.41-.02.76-.02,1.14-.02,2.36-.13,4.27-.35,5.59-.16.94-.62,1.34-1.52,1.34-.24,0-.43,0-.66-.02q-.31-.02-.35-.41c-.04-.31-.11-.6-.22-.86.37.07.67.1,1,.1s.48-.13.58-.74c.17-1.04.28-2.77.31-5.13h-1.18ZM156.15,66.93c0,3.13.02,3.75.02,3.83,0,.13-.01.14-.13.14h-1.01c-.11,0-.12-.01-.12-.14v-.82h-1.77v.91c0,.13-.01.14-.14.14h-.97c-.13,0-.14-.01-.14-.14,0-.07.02-.71.02-3.87v-2.18c0-2.19-.02-2.85-.02-2.94,0-.12.01-.13.14-.13.07,0,.37.02,1.25.02h1.52c.88,0,1.18-.02,1.25-.02.12,0,.13.01.13.13,0,.07-.02.73-.02,2.59v2.48ZM153.14,62.9v5.9h1.77v-5.9h-1.77Z"/><path class="uuid-5905871c-ace8-461f-b035-f4d7557391a8" d="M163.52,63.22c-1.46.28-2.75.53-4.03.79-.46.11-.58.13-.76.19-.08.04-.17.1-.26.1-.08,0-.18-.07-.23-.18-.16-.32-.29-.74-.44-1.29.61-.02.97-.07,1.91-.2,1.48-.22,4.11-.61,7.21-1.02.18-.02.24.05.25.13.06.28.12.72.13,1.06,0,.14-.07.18-.23.18-.56.04-.95.1-1.46.26-2.04.7-3.06,2.1-3.06,3.54,0,1.55,1.1,2.39,3.19,2.52.19,0,.26.05.26.18,0,.31-.05.73-.13,1.03-.04.18-.08.25-.23.25-2.11,0-4.43-1.21-4.43-3.71,0-1.7.85-2.85,2.3-3.8v-.02ZM165.9,64.52c.06-.05.11-.04.18.02.37.29.8.77,1.14,1.28.05.07.05.13-.04.19l-.5.37c-.08.06-.14.05-.2-.04-.36-.55-.74-1.01-1.21-1.39l.64-.44ZM166.96,63.74c.07-.05.11-.04.18.02.44.34.88.82,1.14,1.24.05.07.06.14-.04.22l-.48.37c-.1.07-.16.04-.2-.04-.32-.52-.71-.97-1.2-1.38l.6-.43Z"/><path class="uuid-5905871c-ace8-461f-b035-f4d7557391a8" d="M172.68,61.68c-.11-.26-.22-.5-.42-.77.48-.08.97-.13,1.45-.13.17,0,.26.1.26.22,0,.07-.02.16-.02.23,0,.11.02.23.05.36.08.31.12.42.19.62.94-.18,1.6-.36,2.45-.64.11-.05.17-.04.2.06.07.23.16.56.2.8.02.12-.06.19-.14.22-.8.25-1.54.43-2.35.61.11.3.26.67.42,1.01.97-.2,1.61-.41,2.18-.62.12-.06.18-.04.22.07.11.28.16.5.22.79.02.11.02.17-.1.22-.6.23-1.36.44-2.03.59.52.86.98,1.54,1.57,2.08.12.11.12.16.06.29-.13.28-.3.52-.49.74-.07.08-.12.12-.19.12-.05,0-.1-.02-.17-.07-.19-.16-.43-.26-.71-.38-.61-.26-1.4-.38-2.25-.38-1.13,0-1.79.35-1.79.91,0,.78,1.02,1.03,2.85,1.03.44,0,.89-.05,1.32-.07.12,0,.16.06.14.16-.05.3-.13.77-.24,1.09-.04.12-.08.17-.25.18-.28.02-.56.04-.86.04-2.76,0-4.22-.78-4.22-2.25,0-1.28,1.1-2.09,2.97-2.09.88,0,1.58.1,2.06.3-.28-.32-.67-.9-1-1.42-1.24.19-2.41.34-3.29.36-.13,0-.18-.05-.22-.17-.07-.24-.18-.65-.22-.98,1.2-.02,2.16-.12,3.23-.3-.12-.25-.3-.66-.46-1-1.1.17-1.99.28-2.91.29-.14,0-.22-.05-.24-.17-.04-.13-.12-.58-.19-.96,1.18.01,2.13-.08,2.99-.19-.1-.28-.17-.48-.29-.78Z"/><path class="uuid-5905871c-ace8-461f-b035-f4d7557391a8" d="M183.67,65.39c.67-.38,1.24-.54,1.91-.54,1.75,0,2.97,1.15,2.97,2.88,0,2-1.62,3.29-4.19,3.29-1.51,0-2.42-.65-2.42-1.76,0-.8.76-1.46,1.69-1.46,1.13,0,1.95.6,2.25,1.75.84-.38,1.22-.91,1.22-1.82,0-1.09-.77-1.81-1.88-1.81-1,0-2.1.44-3.07,1.27-.35.31-.68.66-1.04,1.02-.08.08-.14.13-.2.13-.05,0-.11-.04-.18-.11-.25-.22-.52-.53-.71-.78-.07-.1-.04-.18.06-.28.94-.76,1.76-1.52,2.84-2.65.74-.77,1.31-1.37,1.86-2.05-.72.13-1.57.3-2.31.46-.16.04-.31.07-.5.14-.06.02-.18.06-.24.06-.12,0-.2-.06-.26-.2-.14-.28-.25-.61-.42-1.29.36.05.76.05,1.12.02.73-.07,1.79-.23,2.72-.41.3-.06.54-.12.66-.18.06-.04.17-.1.23-.1.12,0,.19.04.28.1.36.28.6.52.8.77.1.11.13.19.13.29,0,.12-.07.23-.2.29-.2.1-.3.18-.53.38-.88.85-1.68,1.69-2.59,2.57v.04ZM183.69,68.81c-.35,0-.58.2-.58.46,0,.37.32.62,1.04.62.22,0,.37-.01.55-.05-.16-.66-.52-1.03-1.02-1.03Z"/><path class="uuid-5905871c-ace8-461f-b035-f4d7557391a8" d="M192.46,68.18c-1.12,0-1.51.02-1.58.02-.12,0-.13-.01-.13-.13v-.84c0-.12.01-.13.13-.13.06,0,.4.02,1.26.02v-1.62h-.35c-1.04,0-1.4.02-1.48.02-.11,0-.12-.01-.12-.13v-.88c0-.12.01-.13.12-.13.07,0,.43.02,1.48.02h.35v-1.2c-.19.2-.4.4-.6.58-.14.11-.22.16-.28.16-.07,0-.13-.07-.26-.24-.18-.23-.35-.4-.54-.53.96-.65,1.63-1.45,2.09-2.23.14-.28.23-.48.3-.72.35.07.72.18,1.03.3.1.04.17.1.17.16s-.04.12-.11.17c-.1.07-.17.17-.28.35-.12.19-.25.4-.4.6h5.45c1.16,0,1.57-.02,1.64-.02.13,0,.14.01.14.13v.86c0,.11-.01.12-.14.12-.06,0-.35-.01-1.09-.02v1.55h.19c1.04,0,1.4-.02,1.48-.02.11,0,.12.01.12.13v.88c0,.12-.01.13-.12.13-.07,0-.43-.02-1.48-.02h-.19v1.62c.82,0,1.14-.02,1.2-.02.12,0,.13.01.13.13v.84c0,.12-.01.13-.13.13-.07,0-.46-.02-1.58-.02h-6.42ZM190.47,70.67c-.08-.05-.12-.1-.12-.13s.02-.06.07-.11c.58-.54,1.03-1.15,1.35-1.85.05-.12.07-.12.24-.05l.7.29c.16.07.16.1.11.22-.36.79-.86,1.51-1.42,2.1-.04.05-.07.07-.11.07s-.07-.02-.14-.07l-.68-.47ZM194.16,64.41v-1.55h-.92v1.55h.92ZM194.16,67.12v-1.62h-.92v1.62h.92ZM194.6,68.78c.14-.01.18-.01.2.12.16.62.23,1.3.28,1.99.01.12-.01.16-.16.17l-.86.07c-.19.02-.2,0-.2-.12-.01-.68-.07-1.37-.2-1.98-.02-.14,0-.17.18-.18l.77-.07ZM196.15,64.41v-1.55h-.95v1.55h.95ZM196.15,67.12v-1.62h-.95v1.62h.95ZM196.93,68.72c.16-.02.18-.01.23.1.28.62.47,1.27.61,1.91.02.13.01.16-.14.19l-.85.17c-.18.04-.2.04-.23-.1-.12-.67-.28-1.34-.5-1.93-.05-.12-.02-.14.14-.18l.74-.16ZM198.16,64.41v-1.55h-.96v1.55h.96ZM198.16,67.12v-1.62h-.96v1.62h.96ZM199.21,68.51c.14-.07.18-.06.26.04.5.59.94,1.2,1.29,1.9.06.11.05.13-.11.22l-.76.42c-.14.07-.18.06-.24-.05-.35-.73-.72-1.35-1.21-2-.07-.1-.06-.12.1-.19l.66-.32Z"/><path class="uuid-5905871c-ace8-461f-b035-f4d7557391a8" d="M204.33,62.06c0-.77-.02-1.15-.1-1.69.44.01.8.04,1.21.08.12.01.19.07.19.12,0,.11-.04.17-.07.25-.07.14-.08.4-.08,1.21v2.25h.1c.92,0,1.22-.02,1.29-.02.12,0,.13.01.13.13v.85c0,.11-.01.12-.13.12-.07,0-.36-.02-1.22-.02.5.83.97,1.42,1.62,2.08-.18.22-.35.5-.48.79-.07.14-.12.22-.17.22s-.11-.06-.19-.18c-.35-.5-.68-1.06-.97-1.71,0,2.38.08,4.52.08,4.7,0,.12-.01.13-.14.13h-.98c-.12,0-.13-.01-.13-.13,0-.18.06-2.16.08-4.4-.36.97-.84,1.89-1.45,2.73-.1.12-.16.19-.22.19-.05,0-.1-.06-.14-.2-.11-.34-.29-.71-.43-.88.86-1,1.49-2.07,1.93-3.33h-.22c-.94,0-1.24.02-1.31.02-.12,0-.13-.01-.13-.12v-.85c0-.12.01-.13.13-.13.07,0,.37.02,1.31.02h.49v-2.23ZM203.18,61.24c.14-.06.16-.05.22.07.31.71.5,1.32.65,2.01.02.12,0,.16-.16.22l-.52.19c-.18.07-.19.06-.22-.07-.13-.72-.34-1.37-.61-2-.05-.13-.02-.16.13-.22l.5-.2ZM206.26,61.64c.02-.12.06-.34.07-.52.32.11.7.23.91.34.1.05.13.08.13.14s-.02.1-.07.12c-.07.05-.11.13-.14.26-.14.49-.32.97-.55,1.52-.07.18-.11.25-.18.25-.05,0-.12-.04-.24-.11-.18-.1-.37-.17-.48-.2.25-.62.44-1.3.55-1.81ZM210.62,67.07v-4.8c0-.85-.01-1.22-.1-1.82.46.01.85.04,1.27.08.11.01.18.06.18.13,0,.08-.04.14-.07.24-.06.14-.07.44-.07,1.33v4.59c.7-.14.97-.23,1.08-.25s.11-.01.13.12l.14.94c.01.11.01.12-.12.14-.08.02-.41.07-1.24.24v1.12c0,1.33.02,2.01.02,2.08,0,.12-.01.13-.13.13h-1c-.12,0-.13-.01-.13-.13,0-.07.02-.73.02-2.06v-.89l-1.64.32c-1.04.2-1.43.29-1.55.31-.12.02-.14.01-.16-.1l-.16-.95c-.02-.13-.01-.13.11-.16.12-.02.52-.06,1.56-.26l1.83-.36ZM207.98,64.01c.06-.06.08-.08.11-.08.04,0,.06.02.12.07.55.38,1.18.95,1.65,1.54.08.11.08.13-.04.25l-.59.59c-.13.12-.16.12-.24.02-.49-.62-1.03-1.19-1.58-1.63-.05-.05-.08-.07-.08-.1,0-.04.04-.07.1-.13l.55-.53ZM208.3,61.28c.11-.1.12-.12.23-.05.6.42,1.21.93,1.69,1.52.07.08.07.13-.04.23l-.58.56c-.13.13-.16.14-.23.04-.49-.62-1.1-1.19-1.63-1.57-.08-.06-.1-.12.02-.23l.53-.5Z"/><path class="uuid-5905871c-ace8-461f-b035-f4d7557391a8" d="M220.27,63.07c-.28,2.04-.78,3.91-1.5,5.17-.52.9-1.14,1.38-2.04,1.38-1.06,0-2.12-1.13-2.12-3.08,0-1.15.49-2.25,1.35-3.12,1.01-1.01,2.28-1.54,3.9-1.54,2.88,0,4.57,1.77,4.57,4.16,0,2.23-1.26,3.63-3.69,4.37-.25.07-.36.02-.52-.22-.13-.2-.38-.48-.84-.76,2.03-.48,3.62-1.32,3.62-3.59,0-1.43-1.08-2.78-2.69-2.78h-.05ZM216.82,64.23c-.58.65-.94,1.45-.94,2.22,0,1.1.44,1.71.82,1.71.31,0,.58-.16.9-.73.53-.97,1.07-2.7,1.27-4.29-.84.17-1.51.5-2.05,1.09Z"/><path class="uuid-5905871c-ace8-461f-b035-f4d7557391a8" d="M227.87,71.37c-.12,0-.13-.01-.13-.13,0-.22.06-2.59.08-5.45-.31.96-.77,1.88-1.35,2.75-.08.12-.14.18-.19.18s-.08-.06-.12-.19c-.11-.38-.26-.76-.43-1.02.84-.98,1.5-2.2,1.95-3.65h-.28c-.88,0-1.16.02-1.24.02-.12,0-.13-.01-.13-.13v-.88c0-.12.01-.13.13-.13.07,0,.36.02,1.24.02h.38v-.74c0-.74-.01-1.13-.1-1.63.43.01.82.04,1.2.08.12.01.19.06.19.12,0,.11-.04.17-.07.25-.06.14-.08.33-.08,1.16v.76c.89,0,1.18-.02,1.25-.02.12,0,.13.01.13.13v.88c0,.12-.01.13-.13.13-.07,0-.35-.02-1.18-.02.35.82.97,1.62,1.58,2.29-.17.25-.31.55-.46.92-.06.13-.1.19-.13.19-.05,0-.1-.06-.17-.17-.38-.55-.71-1.14-.94-1.79.01,3.18.08,5.71.08,5.92,0,.12-.01.13-.13.13h-.97ZM230.99,71.31c-.12,0-.13-.01-.13-.12,0-.07.02-.86.02-4.53v-2.36c0-2.37-.02-3.17-.02-3.25,0-.12.01-.13.13-.13.08,0,.44.02,1.48.02h2.3c1.03,0,1.39-.02,1.46-.02.12,0,.13.01.13.13,0,.07-.02.88-.02,2.85v2.75c0,3.65.02,4.44.02,4.51,0,.11-.01.12-.13.12h-.98c-.11,0-.12-.01-.12-.12v-.55h-3.02v.59c0,.11-.01.12-.14.12h-.97ZM232.11,63.79h3.02v-1.7h-3.02v1.7ZM235.13,66.58v-1.67h-3.02v1.67h3.02ZM235.13,69.45v-1.74h-3.02v1.74h3.02Z"/><path class="uuid-5905871c-ace8-461f-b035-f4d7557391a8" d="M240.69,62.49c.91,0,1.2-.02,1.27-.02.12,0,.13.01.13.13v.85c0,.13-.01.14-.13.14-.07,0-.36-.02-1.27-.02h-1.33c-.9,0-1.2.02-1.26.02-.12,0-.13-.01-.13-.14v-.85c0-.12.01-.13.13-.13.06,0,.36.02,1.26.02h1.33ZM241.75,70.3c2.07-.6,2.79-1.92,2.93-3.85.04-.42.04-.74-.01-1.14.42.02.8.05,1.15.12.14.02.23.07.23.16s-.01.13-.07.22-.08.2-.13.72c.34,1.98,1.67,3.15,3.15,3.68-.17.22-.36.54-.49.84-.1.2-.13.3-.23.3-.06,0-.13-.04-.28-.11-1.13-.6-2.04-1.5-2.55-2.78-.43,1.21-1.21,2.17-2.63,2.81-.13.05-.2.08-.28.08-.1,0-.14-.08-.25-.3-.16-.28-.32-.54-.54-.73.01.52.02.67.02.72,0,.12-.01.13-.12.13h-.86c-.12,0-.13-.01-.13-.13v-.32h-1.12v.55c0,.11-.01.12-.13.12h-.86c-.12,0-.13-.01-.13-.12,0-.08.02-.36.02-1.81v-.77c0-.75-.02-1.04-.02-1.13,0-.12.01-.13.13-.13.07,0,.32.02,1.09.02h.91c.77,0,1.02-.02,1.1-.02.11,0,.12.01.12.13,0,.07-.02.36-.02.92v1.82ZM240.61,60.85c.77,0,1.01-.02,1.08-.02.12,0,.13.01.13.13v.8c0,.11-.01.12-.13.12-.07,0-.31-.02-1.08-.02h-.97c-.78,0-1.02.02-1.09.02-.11,0-.12-.01-.12-.12v-.8c0-.12.01-.13.12-.13.07,0,.31.02,1.09.02h.97ZM240.47,64.19c.71,0,.92-.02,1-.02.13,0,.14.01.14.13v.78c0,.12-.01.13-.14.13-.07,0-.29-.02-1-.02h-.77c-.73,0-.95.02-1.02.02-.12,0-.13-.01-.13-.13v-.78c0-.12.01-.13.13-.13.07,0,.29.02,1.02.02h.77ZM240.47,65.81c.71,0,.92-.02,1-.02.13,0,.14.01.14.13v.77c0,.12-.01.13-.14.13-.07,0-.29-.02-1-.02h-.77c-.73,0-.95.02-1.02.02-.12,0-.13-.01-.13-.13v-.77c0-.12.01-.13.13-.13.07,0,.29.02,1.02.02h.77ZM239.54,68.44v1.28h1.12v-1.28h-1.12ZM248.49,65.6c-.11.23-.13.31-.24.31-.05,0-.13-.02-.26-.07-1.08-.42-2.04-1.21-2.55-2.45-.43,1.09-1.21,1.93-2.54,2.46-.13.05-.2.08-.26.08-.1,0-.14-.08-.26-.3-.14-.25-.32-.5-.49-.66,1.92-.56,2.73-1.7,2.83-3.42.02-.41.02-.77-.01-1.1.42.02.79.07,1.12.12.14.02.24.06.24.14s-.02.13-.08.22c-.06.07-.08.18-.12.61.31,1.97,1.59,2.82,3.11,3.3-.16.18-.34.49-.46.76ZM242.05,68.18c-.14-.11-.13-.13-.05-.23.41-.44.76-.98,1-1.5.06-.12.08-.13.24-.05l.6.31c.16.08.17.11.12.23-.25.59-.58,1.13-1.04,1.68-.05.06-.07.08-.12.08-.04,0-.08-.02-.14-.07l-.6-.46ZM242.3,63.19c-.14-.1-.14-.12-.06-.22.36-.42.66-.94.86-1.46.05-.13.06-.11.23-.05l.62.24c.14.06.16.08.12.2-.24.61-.52,1.15-.94,1.67-.05.06-.07.08-.11.08s-.08-.02-.14-.07l-.59-.4ZM247.31,66.76c.11-.16.17-.29.23-.46.32.1.65.22.92.36.17.08.22.14.22.2,0,.1-.05.13-.13.18-.07.05-.14.14-.2.23-.23.31-.48.65-.8.98-.12.12-.19.19-.26.19-.08,0-.16-.07-.31-.19-.2-.17-.4-.3-.62-.42.43-.37.74-.74.97-1.08ZM247.33,61.77c.11-.16.17-.29.22-.46.31.11.65.25.9.38.16.08.19.11.19.18,0,.08-.05.12-.12.18-.06.05-.13.13-.2.24-.2.3-.41.59-.76.95-.14.14-.22.22-.29.22s-.14-.06-.28-.17c-.22-.18-.42-.31-.61-.38.46-.43.76-.83.95-1.14Z"/><path class="uuid-5905871c-ace8-461f-b035-f4d7557391a8" d="M253.19,64.18c-.67.49-1.4.92-2.17,1.29-.14.07-.23.11-.29.11-.08,0-.12-.08-.22-.3-.14-.3-.31-.56-.54-.79,2.09-.83,3.65-2.1,4.61-3.49.2-.3.31-.5.42-.78.47.06.91.14,1.3.25.14.04.22.08.22.17,0,.07-.02.14-.12.19-.07.04-.12.07-.17.11,1.35,1.66,2.97,2.7,5.07,3.43-.23.29-.38.58-.52.9-.08.22-.12.3-.2.3-.06,0-.14-.04-.28-.1-.82-.36-1.6-.78-2.29-1.27v.89c0,.12-.01.13-.13.13-.07,0-.4-.02-1.35-.02h-1.85c-.96,0-1.28.02-1.36.02-.12,0-.13-.01-.13-.13v-.91ZM252.42,67.43c-1.13,0-1.51.02-1.58.02-.13,0-.14-.01-.14-.13v-.9c0-.12.01-.13.14-.13.07,0,.46.02,1.58.02h6.39c1.13,0,1.51-.02,1.58-.02.13,0,.14.01.14.13v.9c0,.12-.01.13-.14.13-.07,0-.46-.02-1.58-.02h-3.71c-.3.74-.66,1.5-1.07,2.25,1.25-.07,2.55-.18,3.69-.3-.28-.34-.55-.67-.88-1.02-.08-.1-.07-.14.07-.22l.77-.4c.13-.07.17-.06.25.02.82.85,1.5,1.71,2.23,2.78.06.1.06.14-.06.23l-.83.54c-.07.05-.11.07-.14.07s-.06-.02-.1-.08c-.2-.34-.41-.65-.6-.94-1.99.25-4.44.46-6.48.61-.19.01-.35.06-.43.11-.06.05-.12.07-.2.07s-.14-.06-.17-.17c-.11-.4-.18-.82-.25-1.24.44.04.84.02,1.31,0,.12,0,.25-.01.38-.01.43-.82.78-1.58,1.06-2.33h-1.25ZM256.52,64.09c.8,0,1.16-.01,1.29-.02-.86-.62-1.62-1.36-2.27-2.2-.64.84-1.37,1.57-2.19,2.2.11.01.44.02,1.32.02h1.85Z"/><path class="uuid-5905871c-ace8-461f-b035-f4d7557391a8" d="M268.09,63.22c-1.46.28-2.75.53-4.03.79-.46.11-.58.13-.76.19-.08.04-.17.1-.26.1-.08,0-.18-.07-.23-.18-.16-.32-.29-.74-.44-1.29.61-.02.97-.07,1.91-.2,1.48-.22,4.11-.61,7.21-1.02.18-.02.24.05.25.13.06.28.12.72.13,1.06,0,.14-.07.18-.23.18-.56.04-.95.1-1.46.26-2.04.7-3.06,2.1-3.06,3.54,0,1.55,1.1,2.39,3.19,2.52.19,0,.26.05.26.18,0,.31-.05.73-.13,1.03-.04.18-.08.25-.23.25-2.11,0-4.43-1.21-4.43-3.71,0-1.7.85-2.85,2.3-3.8v-.02ZM270.47,64.52c.06-.05.11-.04.18.02.37.29.8.77,1.14,1.28.05.07.05.13-.04.19l-.5.37c-.08.06-.14.05-.2-.04-.36-.55-.74-1.01-1.21-1.39l.64-.44ZM271.54,63.74c.07-.05.11-.04.18.02.44.34.88.82,1.14,1.24.05.07.06.14-.04.22l-.48.37c-.1.07-.16.04-.2-.04-.32-.52-.71-.97-1.2-1.38l.6-.43Z"/><path class="uuid-5905871c-ace8-461f-b035-f4d7557391a8" d="M278.94,61.57c-.02-.35-.05-.52-.14-.88.54.04,1.12.11,1.4.17.2.04.34.12.34.23,0,.1-.04.16-.11.28-.04.07-.07.19-.1.35-.01.16-.01.31-.02.77,1.29-.05,2.53-.06,3.68-.06.14,0,.17.02.18.18.01.3.01.61,0,.91,0,.13-.06.17-.2.16-1.25-.04-2.41-.04-3.66-.02,0,.73,0,1.5.01,2.23.12.32.18.79.18,1.19,0,1.39-.56,2.84-2.14,3.87-.2.13-.36.23-.47.23s-.24-.08-.36-.18c-.28-.23-.6-.38-.91-.48,1.4-.62,2.24-1.63,2.46-2.64-.24.35-.73.48-1.13.48-.95,0-1.67-.68-1.67-1.83s.84-1.8,1.81-1.8c.36,0,.72.07.91.24,0-.42-.01-.83-.01-1.22-1.51.08-3.2.23-4.15.36-.26.04-.46.14-.56.14-.12,0-.17-.05-.2-.17-.1-.24-.2-.72-.3-1.21.44.05.83,0,1.46-.05.73-.06,2.28-.16,3.72-.24-.01-.37-.01-.67-.02-1ZM277.4,66.42c0,.53.34.82.77.82s.82-.28.82-.83c0-.49-.31-.77-.79-.77-.37,0-.79.25-.79.78Z"/><path class="uuid-5905871c-ace8-461f-b035-f4d7557391a8" d="M289.04,69.88c0,.96-.78,1.73-1.74,1.73s-1.74-.77-1.74-1.73.78-1.73,1.74-1.73,1.74.77,1.74,1.73ZM286.3,69.88c0,.56.43,1,1,1s1-.43,1-1-.43-1-1-1-1,.43-1,1Z"/><path class="uuid-5905871c-ace8-461f-b035-f4d7557391a8" d="M299.21,69.59c.83.42,1.93.67,3.27.8-.2.19-.4.44-.59.74-.12.18-.17.23-.28.23-.05,0-.12,0-.29-.02-1.07-.16-2.4-.62-3.27-1.18-.11-.07-.11-.12.06-.18l.91-.43h-4.03c.43.17.68.29,1.02.44.12.04.17.1.17.17s-.07.12-.18.14c-.13.02-.29.11-.49.22-.73.37-1.7.68-2.73.84-.1.01-.18.02-.24.02-.14,0-.18-.05-.3-.25-.17-.3-.36-.53-.54-.7,1.09-.11,2.04-.32,2.7-.59.17-.07.35-.16.54-.3-1,0-1.38.02-1.45.02-.12,0-.13-.01-.13-.14,0-.07.02-.41.02-1.18v-2.05c0-.78-.02-1.1-.02-1.19,0-.12.01-.13.13-.13.08,0,.48.02,1.57.02-.04-.05-.07-.11-.11-.19-.12-.2-.29-.44-.42-.55,1.73-.3,2.7-.82,3.11-1.92h-1.01c-.23.28-.48.53-.77.76-.14.11-.22.17-.28.17-.08,0-.14-.08-.28-.24-.16-.17-.35-.31-.53-.4.68-.49,1.21-1.04,1.57-1.68.08-.14.17-.34.23-.54.37.06.67.12.95.19.14.04.2.07.2.13,0,.07-.02.11-.11.17-.1.06-.16.16-.24.32l-.13.23h3.55c.16,0,.24-.01.3-.05.05-.02.11-.05.17-.05.08,0,.16.04.44.24.32.22.4.32.4.42,0,.07-.04.12-.1.16-.08.05-.14.1-.22.22-.2.33-.38.58-.59.85-.13.17-.19.24-.29.24-.07,0-.17-.04-.32-.11-.26-.12-.5-.2-.67-.24.26-.25.53-.56.68-.79h-1.77c.53,1.39,2.18,1.88,3.79,2.03-.14.19-.26.52-.34.78-.11.37-.12.37-.48.3-.34-.06-.65-.14-.95-.24-.01.16-.02.49-.02,1.09v2.05c0,.77.02,1.1.02,1.18,0,.13-.01.14-.13.14-.07,0-.49-.02-1.61-.02l.08.04ZM294.96,63.44q.08.4-.25.58c-.59.31-1.28.59-1.87.8-.16.06-.26.11-.32.17-.06.06-.11.1-.17.1-.07,0-.12-.04-.17-.13-.16-.29-.3-.67-.42-1.02.3-.06.58-.12.89-.22.7-.23,1.54-.55,2.23-.96.01.2.05.44.08.68ZM292.73,60.73c.11-.11.13-.12.25-.07.52.22,1.13.56,1.65.94.06.05.08.07.08.11,0,.02-.02.06-.08.12l-.52.59c-.11.13-.16.14-.25.06-.53-.42-1.09-.78-1.63-1.01-.06-.04-.1-.06-.1-.1s.02-.07.08-.13l.5-.5ZM294.53,65.77v.5h5.15v-.5h-5.15ZM299.68,67.48v-.5h-5.15v.5h5.15ZM299.68,68.19h-5.15v.52h5.15v-.52ZM299.08,64.91c.58,0,.96,0,1.22-.01-.86-.36-1.57-.89-2-1.64-.43.8-1.24,1.33-2.4,1.66h3.18Z"/><path class="uuid-5905871c-ace8-461f-b035-f4d7557391a8" d="M305.9,62.06c0-.77-.02-1.15-.1-1.69.44.01.8.04,1.21.08.12.01.19.07.19.12,0,.11-.04.17-.07.25-.07.14-.08.4-.08,1.21v2.25h.1c.92,0,1.22-.02,1.29-.02.12,0,.13.01.13.13v.85c0,.11-.01.12-.13.12-.07,0-.36-.02-1.22-.02.5.83.97,1.42,1.62,2.08-.18.22-.35.5-.48.79-.07.14-.12.22-.17.22s-.11-.06-.19-.18c-.35-.5-.68-1.06-.97-1.71,0,2.38.08,4.52.08,4.7,0,.12-.01.13-.14.13h-.98c-.12,0-.13-.01-.13-.13,0-.18.06-2.16.08-4.4-.36.97-.84,1.89-1.45,2.73-.1.12-.16.19-.22.19-.05,0-.1-.06-.14-.2-.11-.34-.29-.71-.43-.88.86-1,1.49-2.07,1.93-3.33h-.22c-.94,0-1.24.02-1.31.02-.12,0-.13-.01-.13-.12v-.85c0-.12.01-.13.13-.13.07,0,.37.02,1.31.02h.49v-2.23ZM304.75,61.24c.14-.06.16-.05.22.07.31.71.5,1.32.65,2.01.02.12,0,.16-.16.22l-.52.19c-.18.07-.19.06-.22-.07-.13-.72-.34-1.37-.61-2-.05-.13-.02-.16.13-.22l.5-.2ZM307.84,61.64c.02-.12.06-.34.07-.52.32.11.7.23.91.34.1.05.13.08.13.14s-.02.1-.07.12c-.07.05-.11.13-.14.26-.14.49-.32.97-.55,1.52-.07.18-.11.25-.18.25-.05,0-.12-.04-.24-.11-.18-.1-.37-.17-.48-.2.25-.62.44-1.3.55-1.81ZM312.19,67.07v-4.8c0-.85-.01-1.22-.1-1.82.46.01.85.04,1.27.08.11.01.18.06.18.13,0,.08-.04.14-.07.24-.06.14-.07.44-.07,1.33v4.59c.7-.14.97-.23,1.08-.25s.11-.01.13.12l.14.94c.01.11.01.12-.12.14-.08.02-.41.07-1.24.24v1.12c0,1.33.02,2.01.02,2.08,0,.12-.01.13-.13.13h-1c-.12,0-.13-.01-.13-.13,0-.07.02-.73.02-2.06v-.89l-1.64.32c-1.04.2-1.43.29-1.55.31-.12.02-.14.01-.16-.1l-.16-.95c-.02-.13-.01-.13.11-.16.12-.02.52-.06,1.56-.26l1.83-.36ZM309.55,64.01c.06-.06.08-.08.11-.08.04,0,.06.02.12.07.55.38,1.18.95,1.65,1.54.08.11.08.13-.04.25l-.59.59c-.13.12-.16.12-.24.02-.49-.62-1.03-1.19-1.58-1.63-.05-.05-.08-.07-.08-.1,0-.04.04-.07.1-.13l.55-.53ZM309.87,61.28c.11-.1.12-.12.23-.05.6.42,1.21.93,1.69,1.52.07.08.07.13-.04.23l-.58.56c-.13.13-.16.14-.23.04-.49-.62-1.1-1.19-1.63-1.57-.08-.06-.1-.12.02-.23l.53-.5Z"/><path class="uuid-5905871c-ace8-461f-b035-f4d7557391a8" d="M321.49,62.52c.13-.04.18.02.19.12.04.26.07.61.08.86.01.16-.02.19-.18.23-.74.2-1.36.34-2.09.46-.82,2.66-1.43,4.5-2.19,6.49-.06.17-.13.16-.26.12-.12-.05-.71-.3-.96-.44-.1-.06-.13-.16-.1-.24.91-2.1,1.49-3.68,2.07-5.69-.7.07-1.54.13-2.1.13-.18,0-.23-.04-.25-.19-.05-.25-.11-.66-.17-1.09.25.04.4.04.89.04.6,0,1.25-.04,1.94-.12.12-.48.22-1.01.3-1.5.05-.36.07-.72.07-1.1.64.1,1.13.18,1.51.34.1.04.13.12.13.19,0,.05,0,.11-.06.19-.1.17-.19.29-.25.48-.12.43-.2.84-.29,1.14.47-.08,1.12-.24,1.7-.41ZM321.02,68.25c.12,0,.17.05.18.17.1.88.68,1.13,1.83,1.13.67,0,1.54-.11,2.01-.17.1-.01.13.01.14.11.05.31.1.72.1,1.04.01.14,0,.18-.19.19-.41.06-1.13.13-1.67.13-1.54,0-2.35-.22-2.89-.78-.38-.38-.52-.95-.54-1.64.37-.1.86-.18,1.02-.18ZM320.89,65.07c0-.17.04-.2.22-.24.76-.16,1.64-.28,2.34-.28.47,0,.98.05,1.4.12.17.02.2.04.2.18.02.3.02.63.01.96,0,.2-.06.25-.23.22-.42-.08-.97-.14-1.49-.14-.72,0-1.63.12-2.41.28-.02-.42-.05-.85-.05-1.09ZM323.66,61.65c.06-.05.11-.04.18.02.37.29.8.77,1.14,1.28.05.07.05.13-.04.19l-.5.37c-.08.06-.14.05-.2-.04-.36-.55-.74-1.01-1.21-1.39l.64-.44ZM324.73,60.87c.07-.05.11-.04.18.02.44.34.88.82,1.14,1.24.05.07.06.14-.04.22l-.48.37c-.1.07-.16.04-.2-.04-.32-.52-.71-.97-1.2-1.38l.6-.43Z"/><path class="uuid-5905871c-ace8-461f-b035-f4d7557391a8" d="M329.66,70.08c0,.08-.04.12-.16.17-.36.16-.58.22-.83.25-.14.02-.2-.01-.28-.16-.38-.77-.71-2.47-.71-3.72,0-.97.11-2.08.36-3.84.07-.55.13-1.09.13-1.79.55.13.95.26,1.26.42.19.1.26.18.26.26,0,.05,0,.11-.07.24-.06.16-.14.48-.23.89-.23,1.29-.46,2.54-.46,3.6,0,.77.02,1.45.12,1.89.3-.63.52-1.04.8-1.71.17.46.28.61.4.8.07.08.11.16.11.23,0,.08-.02.16-.14.4-.32.72-.42,1.04-.54,1.46-.02.1-.04.23-.04.31v.29ZM333.81,64.65c-.64.05-1.09.07-1.44.07-.25.01-.56.01-1.01,0-.17,0-.26-.06-.28-.19-.05-.24-.07-.56-.13-1.09.44.05,1.04.06,1.49.06.34,0,.9-.01,1.33-.05-.02-.6-.02-1.14-.07-1.6-.05-.42-.08-.66-.2-.98.71.02,1.27.08,1.55.17.13.04.19.1.19.19,0,.08-.04.16-.08.24-.04.07-.06.26-.06.5v1.33c.52-.07,1.03-.16,1.54-.26.14-.04.2-.01.22.11.05.3.07.59.1.9.01.16-.05.2-.16.22-.58.11-1.1.18-1.66.24v1.85c.02,1.12-.17,2.07-.52,2.78-.37.79-.97,1.43-1.72,1.86-.13.08-.22.11-.3.11-.1,0-.14,0-.24-.11-.22-.19-.53-.4-.94-.59,1.13-.6,1.67-1.15,2.03-1.99.26-.61.38-1.43.37-2.67v-1.09Z"/><path class="uuid-5905871c-ace8-461f-b035-f4d7557391a8" d="M344.28,63.22c-1.46.28-2.75.53-4.03.79-.46.11-.58.13-.76.19-.08.04-.17.1-.26.1-.08,0-.18-.07-.23-.18-.16-.32-.29-.74-.44-1.29.61-.02.97-.07,1.91-.2,1.48-.22,4.11-.61,7.21-1.02.18-.02.24.05.25.13.06.28.12.72.13,1.06,0,.14-.07.18-.23.18-.56.04-.95.1-1.46.26-2.04.7-3.06,2.1-3.06,3.54,0,1.55,1.1,2.39,3.19,2.52.19,0,.26.05.26.18,0,.31-.05.73-.13,1.03-.04.18-.08.25-.23.25-2.11,0-4.43-1.21-4.43-3.71,0-1.7.85-2.85,2.3-3.8v-.02ZM346.66,64.52c.06-.05.11-.04.18.02.37.29.8.77,1.14,1.28.05.07.05.13-.04.19l-.5.37c-.08.06-.14.05-.2-.04-.36-.55-.74-1.01-1.21-1.39l.64-.44ZM347.72,63.74c.07-.05.11-.04.18.02.44.34.88.82,1.14,1.24.05.07.06.14-.04.22l-.48.37c-.1.07-.16.04-.2-.04-.32-.52-.71-.97-1.2-1.38l.6-.43Z"/><path class="uuid-5905871c-ace8-461f-b035-f4d7557391a8" d="M26.52,83.48c.13.07.18.14.18.24,0,.08-.04.17-.08.26-.08.14-.13.31-.22.66-.4,1.81-.6,3.49-.6,4.37,0,.48,0,1.03.04,1.54.24-.55.49-1.07.74-1.67.17.38.26.55.42.76.05.06.07.11.07.17s-.02.12-.07.19c-.42.95-.56,1.48-.61,1.82-.05.34-.02.52-.01.64.01.08-.04.12-.14.16-.23.08-.58.16-.9.2-.13.04-.18.02-.24-.14-.34-.85-.52-2.28-.52-3.66,0-1.15.1-2.11.49-4.54.06-.42.13-.94.08-1.42.48.12,1.13.31,1.37.43ZM30.65,86.69c-.82.02-1.66.05-2.47-.01-.16,0-.2-.04-.22-.16-.05-.29-.08-.72-.08-1.09.9.08,1.83.1,2.73.04,0-.43-.01-.82-.01-1.26-.01-.43-.05-.74-.16-1.17.7.06,1.06.11,1.45.23.13.04.22.1.22.2,0,.06-.02.1-.07.2-.05.11-.08.26-.1.42-.02.41-.02.72-.02,1.27.56-.05,1.19-.13,1.7-.22.14-.04.17.01.19.14.05.22.07.6.07.85,0,.11-.05.17-.13.18-.43.11-1.22.2-1.85.25,0,1.34.02,2.18.08,3.21.71.29,1.32.62,1.99,1.15.11.07.12.11.06.24-.16.31-.35.65-.55.92-.04.05-.07.07-.11.07s-.07-.02-.11-.06c-.37-.35-.77-.65-1.3-.96-.1,1.01-.78,1.56-2.19,1.56s-2.15-.65-2.15-1.68.89-1.69,2.1-1.69c.31,0,.67.04.96.1-.02-.92-.04-1.8-.05-2.75ZM29.67,90.42c-.56,0-.9.2-.9.58s.26.6.97.6c.6,0,.98-.35.98-.78,0-.08,0-.14-.01-.24-.38-.12-.71-.16-1.04-.16Z"/><path class="uuid-5905871c-ace8-461f-b035-f4d7557391a8" d="M42.42,82.61c.16-.07.18-.06.23.06.78,1.83,2.25,3.49,3.89,4.43-.22.19-.49.55-.7.9-.11.18-.16.26-.23.26-.06,0-.13-.06-.25-.16-.41-.3-.79-.62-1.14-.97-.02.35-.02.77-.04,1.19-.04,1.28-.12,2.24-.3,3.36-.16.95-.61,1.47-1.79,1.47-.3,0-.53,0-.82-.02-.37-.02-.36-.02-.44-.42-.08-.41-.2-.73-.37-.96.6.08.95.11,1.37.11.5,0,.71-.19.8-.74.12-.7.2-1.62.23-2.97h-2.13c-.23,2.4-1.43,4.1-3.65,5.08-.13.06-.22.1-.29.1-.1,0-.13-.08-.25-.29-.16-.29-.38-.55-.61-.72,2.18-.79,3.24-2.06,3.47-4.17h-.14c-1.13,0-1.51.02-1.58.02-.12,0-.13-.01-.13-.13v-.88c-.37.36-.76.68-1.16,1-.13.1-.2.16-.26.16-.08,0-.13-.08-.25-.26-.19-.3-.47-.6-.67-.73,1.62-1.04,2.78-2.46,3.47-3.96.11-.24.18-.47.24-.77.43.11.92.28,1.25.42.13.06.17.12.17.2,0,.07-.04.12-.1.18-.12.1-.19.2-.28.38-.6,1.3-1.33,2.32-2.19,3.18.17.01.59.02,1.51.02h3.23c1.04,0,1.44-.01,1.56-.02-1.12-1.13-1.98-2.43-2.58-3.8-.05-.13-.02-.14.11-.2l.85-.34Z"/><path class="uuid-5905871c-ace8-461f-b035-f4d7557391a8" d="M51.38,84.2c.06-.36.12-.83.12-1.33.62.13.96.22,1.44.4.12.04.19.13.19.24,0,.06-.02.12-.08.18-.12.16-.18.29-.24.46-.16.49-.28.94-.43,1.44.32-.04.68-.05.94-.05,1.13,0,1.74.77,1.74,2.22s-.24,2.99-.65,3.85c-.35.77-.92,1.13-1.62,1.13-.58,0-.92-.05-1.19-.13-.14-.05-.22-.16-.22-.34-.04-.38-.06-.72-.23-1.12.54.2.95.26,1.32.26.4,0,.58-.14.77-.64.25-.67.47-1.81.47-2.97,0-.85-.16-1.12-.68-1.12-.29,0-.66.04-1.01.08-.79,2.3-1.48,3.96-2.41,5.64-.07.16-.17.18-.31.11-.22-.11-.68-.4-.83-.53-.06-.06-.1-.11-.1-.18,0-.04.01-.08.05-.13.96-1.67,1.58-2.94,2.19-4.7-.47.07-.85.14-1.18.2-.31.06-.5.13-.66.19-.17.06-.31.04-.38-.16-.11-.28-.24-.71-.37-1.24.53,0,1.06-.04,1.58-.08.5-.05.95-.11,1.42-.18.19-.68.28-1.1.36-1.51ZM56.26,85.01c.08-.05.14-.02.23.06.82.77,1.55,1.76,1.99,2.91.05.11.04.17-.05.24-.2.19-.66.48-.9.6-.12.06-.24.05-.28-.1-.48-1.26-1.1-2.29-1.97-3.11.3-.2.65-.44.97-.61Z"/><path class="uuid-5905871c-ace8-461f-b035-f4d7557391a8" d="M62.5,85.69c.13.06.19.13.19.23,0,.06-.02.12-.06.18-.11.19-.19.41-.24.64-.12.61-.24,1.5-.29,2.18,1.1-1.12,2.54-1.9,4.01-1.9,1.75,0,2.79,1.02,2.79,2.57,0,1.31-.78,2.17-1.81,2.69-.8.41-2.04.7-3.07.83-.26.04-.37.02-.48-.16-.23-.41-.44-.73-.82-1.02,1.34-.08,2.49-.31,3.3-.67.97-.42,1.42-1.04,1.42-1.81,0-.65-.41-1.24-1.44-1.24s-2.33.68-3.45,1.82c-.22.22-.37.42-.52.66-.07.12-.12.12-.28.08-.28-.1-.56-.2-.82-.32-.12-.05-.17-.07-.17-.24.07-1.39.23-2.81.37-3.87.05-.36.11-.67.11-1.08.47.13.97.28,1.25.43ZM62.8,82.66c.06-.06.13-.1.23-.06.89.35,1.63.8,2.35,1.43.06.05.08.08.08.13,0,.04-.02.08-.06.14-.16.25-.41.6-.61.84-.05.06-.1.1-.13.1-.05,0-.08-.02-.14-.08-.67-.59-1.48-1.14-2.42-1.56.29-.43.52-.74.71-.94Z"/><path class="uuid-5905871c-ace8-461f-b035-f4d7557391a8" d="M76.63,84.47c.11-.04.16-.04.18.1.06.3.1.66.11.97,0,.11-.05.13-.14.14-.65.13-1.24.22-1.98.32-.77,2.03-1.48,3.68-2.34,5.14-.05.08-.08.12-.13.12-.04,0-.08-.02-.14-.06-.28-.17-.62-.42-.83-.61-.06-.05-.08-.08-.08-.13,0-.04.01-.08.06-.14.9-1.49,1.54-2.75,2.07-4.19-.46.02-.83.02-1.2.02-.26,0-.36,0-.66-.01-.12,0-.14-.04-.17-.19-.06-.23-.1-.62-.12-1.02.49.04.77.05,1.12.05.47,0,.83-.01,1.38-.06.14-.5.23-.91.31-1.34.07-.42.07-.6.07-.97.52.07,1.03.14,1.4.25.12.02.19.1.19.18,0,.1-.04.16-.11.23-.07.1-.12.2-.19.44-.08.29-.18.66-.29,1.02.47-.05,1.02-.16,1.49-.26ZM76.97,87.68c-.01-.32-.02-.52-.1-.85.59.06.9.11,1.31.23.11.02.17.08.17.19,0,.02-.02.11-.07.25-.05.14-.06.29-.05.49,0,.71.04,1.22.13,2.04.86.35,1.45.61,2.16,1.12.12.08.13.13.07.25-.18.37-.35.67-.55.97-.04.06-.07.08-.11.08s-.07-.02-.12-.07c-.53-.46-.97-.72-1.46-1.01,0,1.2-.86,1.75-2.23,1.75s-2.21-.67-2.21-1.7.86-1.75,2.22-1.75c.23,0,.56.01.95.07-.07-.77-.1-1.5-.11-2.06ZM76.11,90.7c-.6,0-1.07.24-1.07.7,0,.38.34.58,1.02.58.65,0,1.04-.35,1.04-.85,0-.11,0-.17-.01-.24-.29-.1-.61-.18-.98-.18ZM78.35,84.93c.07-.12.13-.13.25-.08.71.19,1.66.67,2.35,1.13.07.05.11.08.11.13,0,.04-.01.08-.05.14-.12.26-.34.64-.5.89-.04.06-.07.08-.11.08s-.06-.01-.11-.05c-.71-.48-1.57-1.01-2.48-1.31.2-.36.38-.72.54-.94Z"/><path class="uuid-5905871c-ace8-461f-b035-f4d7557391a8" d="M84.67,84.48c.11.05.19.13.19.22,0,.07-.04.19-.1.34-.05.14-.11.66-.11,1.17,0,.77.02,1.63.22,2.73.17.95.48,1.76.98,1.76.38,0,.68-.42,1.15-1.67.26.42.53.7.77.92.14.13.14.28.08.44-.46,1.22-1.2,1.87-2.04,1.87-.94,0-1.92-1.1-2.24-3.13-.19-1.14-.29-2.39-.29-3.49,0-.66-.02-1.02-.14-1.57.58.07,1.16.22,1.52.4ZM90.23,85.24s.1-.05.13-.05c.05,0,.08.02.13.07,1.09.95,2.05,2.6,2.35,4.1.04.16-.04.2-.13.26-.31.2-.61.37-.94.48-.14.05-.23.01-.25-.13-.41-1.72-1.02-2.96-2.24-4.19.46-.29.76-.46.95-.55Z"/><path class="uuid-5905871c-ace8-461f-b035-f4d7557391a8" d="M95.3,90.33c.08-.08.14-.1.18-.1s.08.01.16.07c.89.55,1.68,1.27,2.39,2.2.07.1.08.13.08.18,0,.06-.02.11-.12.19l-.73.62c-.08.07-.13.11-.17.11-.06,0-.11-.02-.17-.12-.64-.92-1.45-1.74-2.27-2.29-.07-.05-.11-.08-.11-.12s.02-.07.08-.14l.67-.6Z"/><path class="uuid-5905871c-ace8-461f-b035-f4d7557391a8" d="M106.99,86.28c-.28.2-.55.38-.82.54,1.07,1.31,1.57,2.77,1.57,4.25,0,1.68-.41,2.24-1.81,2.24-.2,0-.41,0-.62-.02q-.32-.02-.38-.32c-.08-.35-.19-.65-.35-.86.53.06,1,.07,1.25.07.5,0,.73-.14.73-1.15,0-.22-.01-.44-.04-.65-1.42,1.08-2.81,1.81-4.47,2.43-.14.05-.23.08-.29.08-.1,0-.14-.07-.24-.26-.18-.34-.31-.48-.56-.7,2.15-.62,3.79-1.44,5.33-2.65-.07-.19-.14-.38-.24-.58-1.16.77-2.39,1.32-3.79,1.81-.14.05-.23.08-.29.08-.08,0-.13-.07-.23-.25-.16-.28-.34-.49-.53-.67,1.83-.41,3.07-.97,4.37-1.8-.11-.17-.22-.33-.35-.5-.83.43-1.64.75-2.58,1.04-.35.1-.36.08-.49-.14-.19-.36-.31-.49-.55-.71,1.58-.34,2.75-.74,3.75-1.28h-.62c-1.14,0-1.54.02-1.61.02-.13,0-.14-.01-.14-.14v-.76c0-.13.01-.14.14-.14.07,0,.47.02,1.61.02h3.41c1.15,0,1.55-.02,1.62-.02.12,0,.13.01.13.14v.76c0,.13-.01.14-.13.14-.07,0-.47-.02-1.58-.02.16.65.35,1.24.59,1.76.23-.22.46-.44.74-.78.2-.23.38-.5.52-.72.37.25.64.46.88.67.13.1.18.17.18.24,0,.1-.08.16-.16.18-.16.06-.28.23-.53.48-.36.35-.73.68-1.08.96.65,1,1.52,1.8,2.7,2.48-.25.25-.47.49-.65.83-.11.19-.16.28-.24.28-.05,0-.12-.06-.25-.14-2.03-1.49-3.13-3.51-3.83-6.24h-.06ZM109.78,83.38c1.1,0,1.5-.02,1.58-.02.12,0,.13.01.13.13,0,.07-.02.28-.02.58v.49c0,1.02.02,1.21.02,1.28,0,.12-.01.13-.13.13h-.98c-.12,0-.13-.01-.13-.13v-1.42h-7.63v1.42c0,.12-.01.13-.13.13h-.98c-.12,0-.13-.01-.13-.13,0-.07.02-.26.02-1.28v-.4c0-.4-.02-.59-.02-.67,0-.12.01-.13.13-.13.08,0,.48.02,1.58.02h2.63v-.02c0-.4-.01-.72-.08-1.02.43.01.88.04,1.3.07.12.01.18.06.18.11,0,.08-.04.14-.07.24-.04.1-.06.25-.06.6v.02h2.81Z"/><path class="uuid-5905871c-ace8-461f-b035-f4d7557391a8" d="M115.35,85.86c1.85-.62,3.35-1,4.32-1,2.15,0,3.53,1.29,3.53,3.18,0,1.57-.68,2.57-2.11,3.33-1.01.56-1.94.75-3.05,1-.24.05-.34.04-.42-.19-.14-.34-.44-.7-.84-.95,1.58-.26,2.43-.49,3.25-.89,1.02-.52,1.66-1.28,1.66-2.39s-.73-1.82-2.06-1.82c-1.08,0-2.51.43-4.33,1.24-.38.19-.68.32-.83.43-.17.14-.26.18-.32.18-.12,0-.22-.07-.35-.25-.22-.26-.52-.73-.77-1.25.53-.06.97-.17,2.33-.62ZM121.87,83.32c.06-.05.11-.04.18.02.37.29.8.77,1.14,1.28.05.07.05.13-.04.19l-.5.37c-.08.06-.14.05-.2-.04-.36-.55-.74-1.01-1.21-1.39l.64-.44ZM122.93,82.54c.07-.05.11-.04.18.02.44.34.88.82,1.14,1.24.05.07.06.14-.04.22l-.48.37c-.1.07-.16.04-.2-.04-.32-.52-.71-.97-1.2-1.38l.6-.43Z"/><path class="uuid-5905871c-ace8-461f-b035-f4d7557391a8" d="M131.71,83.59c.06.05.1.14.1.19,0,.11-.06.18-.17.23-.14.07-.32.18-.58.42-1.03.92-2.35,2.16-3.27,3.12-.11.13-.16.2-.16.26,0,.07.05.13.16.22,1.56,1.13,3.18,2.43,4.46,3.78.05.06.08.11.08.16s-.02.08-.08.14c-.28.3-.62.65-.83.83-.07.06-.12.1-.17.1s-.08-.04-.14-.11c-1.39-1.56-2.73-2.81-4.37-4.05-.46-.35-.64-.61-.64-1.01s.22-.66.59-1.06c1.02-1.1,2.02-2.1,3.05-3.23.32-.35.5-.6.65-.9.53.31.98.62,1.32.91Z"/><path class="uuid-5905871c-ace8-461f-b035-f4d7557391a8" d="M137.58,83.2c.16.06.23.13.23.24,0,.07-.02.12-.08.19-.08.1-.14.26-.22.56-.17.82-.26,1.67-.34,2.29-.02.43-.06.89-.04,1.32.26-.47.52-.92.84-1.54.11.36.23.58.37.78.06.07.07.13.07.19,0,.1-.05.19-.12.3-.26.5-.54,1.01-.71,1.54-.04.11-.05.22-.06.36,0,.12-.05.17-.16.19-.14.04-.66.11-.96.14-.08.01-.14-.07-.17-.16-.19-.52-.36-1.44-.36-2.43,0-.8.13-1.79.29-2.99.05-.42.1-.83.1-1.37.54.11,1,.23,1.31.37ZM141.48,82.99c.24.06.26.12.24.32-.02.17-.02.38-.02.55.08,1.14.17,2.23.17,3.09,0,1.7-.28,3.18-.91,4.16-.47.74-1.22,1.45-1.98,1.93-.08.06-.17.08-.24.08-.08,0-.16-.04-.25-.13-.26-.23-.64-.44-1.02-.55.97-.54,1.56-.97,2.04-1.61.7-.95,1.01-1.93,1.01-3.83,0-.85-.06-2.1-.14-2.87-.06-.59-.12-.89-.25-1.31.53.02,1.02.05,1.37.14Z"/><path class="uuid-5905871c-ace8-461f-b035-f4d7557391a8" d="M150.57,85.07c-.28,2.04-.78,3.91-1.5,5.17-.52.9-1.14,1.38-2.04,1.38-1.06,0-2.12-1.13-2.12-3.08,0-1.15.49-2.25,1.35-3.12,1.01-1.01,2.28-1.54,3.9-1.54,2.88,0,4.57,1.77,4.57,4.16,0,2.23-1.26,3.63-3.69,4.37-.25.07-.36.02-.52-.22-.13-.2-.38-.48-.84-.76,2.03-.48,3.62-1.32,3.62-3.59,0-1.43-1.08-2.78-2.69-2.78h-.05ZM147.12,86.23c-.58.65-.94,1.45-.94,2.22,0,1.1.44,1.71.82,1.71.31,0,.58-.16.9-.73.53-.97,1.07-2.7,1.27-4.29-.84.17-1.51.5-2.05,1.09Z"/><path class="uuid-5905871c-ace8-461f-b035-f4d7557391a8" d="M156.93,89.83c.02-.23.04-.41.01-.67.3.04.73.12.92.17.14.04.2.08.2.14s-.02.11-.06.17c-.04.06-.05.2-.07.4-.08.71-.23,1.56-.42,2.23-.06.18-.08.26-.16.26-.06,0-.14-.05-.29-.13-.17-.11-.44-.22-.64-.28.26-.78.43-1.51.49-2.29ZM160.36,86.27c.16-.07.16-.05.22.07.35.72.58,1.44.78,2.16.04.13,0,.14-.16.22l-.55.24c-.14.06-.18.04-.2-.1l-.14-.56-.76.07v3.3c0,1.1.02,1.51.02,1.57,0,.12-.01.13-.13.13h-.91c-.12,0-.13-.01-.13-.13,0-.07.02-.47.02-1.57v-3.2l-1.02.07c-.2.01-.35.05-.44.1-.06.02-.11.06-.18.06-.08,0-.12-.08-.14-.2-.06-.28-.12-.62-.17-1.01.34.02.64.04.91.04.24-.31.48-.64.71-.96-.48-.59-1-1.15-1.56-1.69-.11-.08-.07-.12.01-.25l.41-.62c.05-.07.08-.11.12-.11.02,0,.06.02.11.07.1.11.2.22.31.31.24-.4.44-.78.65-1.22.16-.32.22-.52.28-.74.31.12.74.29,1.04.44.12.06.16.12.16.19,0,.06-.05.11-.11.16-.1.07-.14.13-.23.29-.38.66-.68,1.14-1.06,1.67.17.19.34.37.49.56.28-.43.54-.86.8-1.31.14-.26.26-.56.36-.83.36.17.73.35,1.01.52.11.06.14.11.14.18,0,.08-.04.13-.13.18-.12.07-.22.2-.4.49-.62.97-1.27,1.91-1.83,2.63.44-.02.9-.05,1.36-.08-.08-.24-.18-.47-.28-.7-.05-.12-.04-.13.13-.2l.49-.22ZM160.51,89.16c.14-.05.17-.02.2.11.19.6.38,1.37.48,2.06.01.13,0,.16-.14.22l-.56.2c-.18.06-.2.05-.22-.07-.07-.78-.26-1.54-.43-2.15-.04-.13,0-.14.13-.19l.54-.18ZM161.5,93.05c-.12,0-.13-.01-.13-.13,0-.08.02-.66.02-4.58v-2.15c0-2.13-.02-2.73-.02-2.81,0-.12.01-.13.13-.13.08,0,.43.02,1.46.02h2.4c1.03,0,1.38-.02,1.46-.02.12,0,.13.01.13.13,0,.07-.02.64-.02,2.42v2.34c0,4.09.02,4.64.02,4.71,0,.12-.01.13-.13.13h-.91c-.11,0-.12-.01-.12-.13v-.54h-3.25v.6c0,.12-.01.13-.13.13h-.91ZM162.55,87.26h1.03v-2.91h-1.03v2.91ZM163.58,91.26v-2.92h-1.03v2.92h1.03ZM164.71,84.35v2.91h1.09v-2.91h-1.09ZM165.8,91.26v-2.92h-1.09v2.92h1.09Z"/><path class="uuid-5905871c-ace8-461f-b035-f4d7557391a8" d="M172.29,84.2c.06-.36.12-.83.12-1.33.62.13.96.22,1.44.4.12.04.19.13.19.24,0,.06-.02.12-.08.18-.12.16-.18.29-.24.46-.16.49-.28.94-.43,1.44.32-.04.68-.05.94-.05,1.13,0,1.74.77,1.74,2.22s-.24,2.99-.65,3.85c-.35.77-.92,1.13-1.62,1.13-.58,0-.92-.05-1.19-.13-.14-.05-.22-.16-.22-.34-.04-.38-.06-.72-.23-1.12.54.2.95.26,1.32.26.4,0,.58-.14.77-.64.25-.67.47-1.81.47-2.97,0-.85-.16-1.12-.68-1.12-.29,0-.66.04-1.01.08-.79,2.3-1.48,3.96-2.41,5.64-.07.16-.17.18-.31.11-.22-.11-.68-.4-.83-.53-.06-.06-.1-.11-.1-.18,0-.04.01-.08.05-.13.96-1.67,1.58-2.94,2.19-4.7-.47.07-.85.14-1.18.2-.31.06-.5.13-.66.19-.17.06-.31.04-.38-.16-.11-.28-.24-.71-.37-1.24.53,0,1.06-.04,1.58-.08.5-.05.95-.11,1.42-.18.19-.68.28-1.1.36-1.51ZM177.17,85.01c.08-.05.14-.02.23.06.82.77,1.55,1.76,1.99,2.91.05.11.04.17-.05.24-.2.19-.66.48-.9.6-.12.06-.24.05-.28-.1-.48-1.26-1.1-2.29-1.97-3.11.3-.2.65-.44.97-.61Z"/><path class="uuid-5905871c-ace8-461f-b035-f4d7557391a8" d="M186.08,84.47c.11-.04.16-.04.18.1.06.3.1.66.11.97,0,.11-.05.13-.14.14-.65.13-1.24.22-1.98.32-.77,2.03-1.48,3.68-2.34,5.14-.05.08-.08.12-.13.12-.04,0-.08-.02-.14-.06-.28-.17-.62-.42-.83-.61-.06-.05-.08-.08-.08-.13,0-.04.01-.08.06-.14.9-1.49,1.54-2.75,2.08-4.19-.46.02-.83.02-1.2.02-.26,0-.36,0-.66-.01-.12,0-.14-.04-.17-.19-.06-.23-.1-.62-.12-1.02.49.04.77.05,1.12.05.47,0,.83-.01,1.38-.06.14-.5.23-.91.31-1.34.07-.42.07-.6.07-.97.52.07,1.03.14,1.4.25.12.02.19.1.19.18,0,.1-.04.16-.11.23-.07.1-.12.2-.19.44-.08.29-.18.66-.29,1.02.47-.05,1.02-.16,1.49-.26ZM186.42,87.68c-.01-.32-.02-.52-.1-.85.59.06.9.11,1.31.23.11.02.17.08.17.19,0,.02-.02.11-.07.25-.05.14-.06.29-.05.49,0,.71.04,1.22.13,2.04.86.35,1.45.61,2.16,1.12.12.08.13.13.07.25-.18.37-.35.67-.55.97-.04.06-.07.08-.11.08s-.07-.02-.12-.07c-.53-.46-.97-.72-1.46-1.01,0,1.2-.86,1.75-2.23,1.75s-2.21-.67-2.21-1.7.86-1.75,2.22-1.75c.23,0,.56.01.95.07-.07-.77-.1-1.5-.11-2.06ZM185.56,90.7c-.6,0-1.07.24-1.07.7,0,.38.34.58,1.02.58.65,0,1.04-.35,1.04-.85,0-.11,0-.17-.01-.24-.29-.1-.61-.18-.98-.18ZM187.8,84.93c.07-.12.13-.13.25-.08.71.19,1.66.67,2.35,1.13.07.05.11.08.11.13,0,.04-.01.08-.05.14-.12.26-.34.64-.5.89-.04.06-.07.08-.11.08s-.06-.01-.11-.05c-.71-.48-1.57-1.01-2.48-1.31.2-.36.38-.72.54-.94Z"/><path class="uuid-5905871c-ace8-461f-b035-f4d7557391a8" d="M195.26,90.34c.32.47.76.84,1.34,1.16-.17.18-.37.41-.54.65-.12.18-.18.25-.25.25s-.14-.06-.28-.17c-.35-.29-.65-.6-.89-.95-.41.8-1.07,1.46-1.87,1.94-.14.07-.23.11-.29.11-.08,0-.13-.07-.24-.26-.16-.28-.35-.49-.54-.66,1.15-.47,1.79-1.12,2.12-1.94l.05-.13h-.46c-.97,0-1.3.02-1.37.02-.11,0-.12-.01-.12-.13v-.79c0-.12.01-.13.12-.13.07,0,.4.02,1.37.02h.68c.04-.31.05-.67.06-1.1h-.71c-.13.23-.29.46-.46.67-.11.13-.17.2-.24.2-.06,0-.13-.07-.28-.2-.18-.18-.38-.34-.58-.44.52-.55.86-1.08,1.1-1.7.05-.11.08-.24.12-.43.34.07.64.14.94.23.12.04.18.08.18.16,0,.06-.01.08-.1.17-.1.1-.14.16-.2.32l-.02.05h1.24c.97,0,1.28-.02,1.36-.02.13,0,.14.01.14.13v.77c0,.12-.01.13-.14.13-.07,0-.37-.02-1.27-.02-.01.4-.04.77-.07,1.1h.2c.98,0,1.31-.02,1.37-.02.12,0,.13.01.13.13v.79c0,.12-.01.13-.13.13-.06,0-.38-.02-1.37-.02h-.12ZM193.65,84.89c0,.3.02.4.13.46.14.08.36.11.86.11.58,0,.91-.04,1.07-.19.16-.16.23-.36.26-.98.2.13.46.24.73.32q.3.11.26.41c-.1.67-.26.92-.55,1.13-.34.22-.96.29-1.81.29s-1.44-.04-1.74-.23c-.26-.16-.36-.42-.36-.83v-1.78c0-.52-.01-.82-.06-1.13.37.01.73.05,1.13.1.14.02.22.07.22.13,0,.07-.02.13-.07.19-.05.07-.07.16-.07.58v.24c.6-.18,1.12-.37,1.63-.62.23-.11.36-.2.53-.34.29.24.53.47.73.7.08.08.1.12.1.18,0,.07-.07.12-.18.13-.12.01-.26.07-.46.14-.84.35-1.54.59-2.35.8v.19ZM198.7,84.22c.06-.05.1-.07.12-.07.04,0,.06.02.12.07.24.2.5.44.77.7.37-.29.72-.6,1.08-1h-1.99c-1.02,0-1.37.02-1.44.02-.12,0-.13-.01-.13-.12v-.83c0-.12.01-.13.13-.13.07,0,.42.02,1.44.02h2.47c.17,0,.26-.01.34-.05.05-.02.08-.04.14-.04.08,0,.17.02.49.32.32.31.35.41.35.5s-.05.16-.16.2c-.14.07-.2.14-.36.32-.5.55-1.08,1.07-1.64,1.51l.23.25c.08.1.08.13-.04.22l-.13.08h1.13c.18,0,.28-.02.34-.05.06-.02.1-.04.14-.04.07,0,.17.04.43.26.25.22.32.32.32.46,0,.08-.04.13-.08.18-.08.08-.16.23-.25.41-.12.25-.3.58-.47.84-.12.19-.18.26-.28.26-.06,0-.13-.04-.25-.08-.17-.08-.47-.19-.77-.25.26-.31.48-.65.65-.95h-1.08v1.7h.74c.64,0,.91-.02.98-.02.12,0,.13.01.13.13v.83c0,.12-.01.13-.13.13-.07,0-.35-.02-.98-.02h-.74v1.92c.47.12,1.06.18,1.78.18.25,0,.49-.01.8-.04-.07.2-.14.47-.18.76-.05.38-.06.38-.43.4-.34.01-.66-.01-.98-.04-1.75-.11-2.63-.74-3.17-1.71-.23.64-.53,1.2-.94,1.73-.12.14-.17.22-.24.22-.06,0-.13-.06-.26-.19-.2-.19-.49-.38-.67-.49,1.02-1.08,1.38-2.15,1.51-3.8.02-.31.02-.54.01-.85.36.05.72.11,1.02.17.16.04.23.07.23.14s-.02.12-.07.19c-.05.08-.06.18-.08.44-.05.47-.11.89-.19,1.3.2.43.44.77.76,1.04v-4.1h-.54c-1.07,0-1.44.02-1.51.02-.12,0-.13-.01-.13-.13v-.83c0-.12.01-.13.13-.13.07,0,.44.02,1.51.02h.82c-.41-.48-.95-1.03-1.42-1.4-.1-.07-.08-.13.04-.22l.6-.38Z"/><path class="uuid-5905871c-ace8-461f-b035-f4d7557391a8" d="M207.78,82.78c.78,0,1.13-.02,1.2-.02.11,0,.12.01.12.13,0,.07-.02.43-.02,1.19v1.56c0,.74.02,1.1.02,1.17,0,.12-.01.13-.12.13-.07,0-.42-.02-1.2-.02h-1.92v3.74c0,1.65.02,2.47.02,2.55,0,.12-.01.13-.13.13h-1.02c-.12,0-.13-.01-.13-.13,0-.08.02-.9.02-2.55v-5.19c0-1.66-.02-2.5-.02-2.58,0-.12.01-.13.13-.13.08,0,.53.02,1.4.02h1.64ZM205.86,83.69v.71h2.04v-.71h-2.04ZM207.9,85.22h-2.04v.82h2.04v-.82ZM207.47,92.2c-.12,0-.13,0-.13-.12,0-.07.02-.37.02-1.96v-.86c0-.88-.02-1.19-.02-1.27,0-.12.01-.13.13-.13.08,0,.37.02,1.27.02h1.57c.9,0,1.19-.02,1.27-.02.12,0,.13.01.13.13,0,.07-.02.38-.02,1.04v.92c0,1.51.02,1.8.02,1.87,0,.13-.01.14-.13.14h-.88c-.13,0-.14-.01-.14-.14v-.4h-2.07v.65c0,.12-.01.12-.14.12h-.88ZM208.49,90.42h2.07v-1.51h-2.07v1.51ZM214.54,89.4c0,.84.05,1.8.05,2.39s-.07.85-.35,1.1c-.26.24-.6.32-1.67.32-.38,0-.38.01-.46-.37-.06-.35-.16-.64-.28-.89.36.05.66.06.97.06.4,0,.49-.11.49-.47v-4.63h-1.92c-.94,0-1.25.02-1.32.02-.13,0-.14-.01-.14-.13,0-.08.02-.36.02-1.08v-1.75c0-.72-.02-1.01-.02-1.09,0-.12.01-.13.14-.13.07,0,.38.02,1.32.02h1.73c.92,0,1.25-.02,1.32-.02.12,0,.13.01.13.13,0,.07-.02.58-.02,1.6v4.92ZM211.12,83.69v.71h2.18v-.71h-2.18ZM213.3,86.04v-.82h-2.18v.82h2.18Z"/><path class="uuid-5905871c-ace8-461f-b035-f4d7557391a8" d="M222.27,85.15c.79-.25,1.4-.34,2.11-.34,1.55,0,2.53.9,2.53,2.22,0,1.55-1.14,2.49-3.09,2.49-.24,0-.37,0-.53-.01-.22-.01-.28-.07-.32-.22-.14-.44-.28-.78-.59-1.15.53.08.88.12,1.33.12,1.1,0,1.8-.49,1.8-1.33,0-.63-.48-.98-1.25-.98-.64,0-1.14.13-1.77.34-.7.24-1.25.46-1.98.79.64,1.8,1.24,3.48,1.86,5.34.05.16.06.2-.11.29-.3.16-.65.28-1.03.38-.08.01-.12-.01-.16-.13-.56-1.91-1.08-3.53-1.73-5.33-.46.22-.84.4-1.14.54-.3.14-.43.23-.62.37-.08.07-.17.12-.23.12-.07,0-.19-.06-.29-.18-.3-.36-.5-.78-.73-1.18.54-.1.74-.16,1.18-.31.26-.1.67-.24,1.39-.55-.14-.43-.31-.91-.55-1.55-.08-.22-.24-.58-.55-1,.52-.11,1.14-.18,1.61-.18.11,0,.18.08.18.25,0,.16.02.24.05.4.07.26.11.44.24.92.08.3.16.48.22.64.77-.3,1.51-.58,2.18-.78ZM221.97,82.72c.06-.04.1-.05.13-.05s.07.01.13.05c.38.25.94.66,1.3,1.09.04.05.06.08.06.13s-.02.08-.06.13c-.22.24-.49.47-.79.66-.04.02-.07.05-.11.05-.02,0-.06-.02-.1-.06-.42-.48-.86-.93-1.49-1.32.34-.26.67-.53.92-.68Z"/><path class="uuid-5905871c-ace8-461f-b035-f4d7557391a8" d="M229.97,84.4c-1.08,0-1.45.02-1.52.02-.12,0-.13-.01-.13-.14v-.97c0-.13.01-.14.13-.14.07,0,.44.02,1.52.02h7.22c1.08,0,1.44-.02,1.52-.02.12,0,.13.01.13.14v.97c0,.13-.01.14-.13.14-.08,0-.44-.02-1.52-.02h-2.49c-.18.35-.37.7-.58,1.03v6.02c0,1.1.02,1.66.02,1.73,0,.12-.01.13-.13.13h-1.1c-.12,0-.13-.01-.13-.13,0-.08.02-.62.02-1.73v-4.23c-1.02,1.18-2.25,2.19-3.67,3.02-.13.07-.2.12-.26.12-.08,0-.13-.07-.25-.28-.18-.29-.37-.52-.66-.73,2.3-1.14,4.2-2.89,5.3-4.95h-3.29ZM235.14,86.18s.08-.07.12-.07.06.02.11.07c.97,1.25,2.51,2.41,3.86,3.02-.23.24-.43.54-.6.83-.11.19-.16.28-.23.28-.06,0-.13-.06-.29-.14-1.32-.76-2.64-1.93-3.59-3.15-.08-.11-.07-.14.05-.26l.56-.56Z"/><path class="uuid-5905871c-ace8-461f-b035-f4d7557391a8" d="M249.86,93.19c-.07.11-.14.13-.26.06-1.09-.7-2.15-1.31-3.29-1.82-1.22.95-2.84,1.49-4.93,1.79-.37.04-.38.04-.52-.3-.12-.31-.28-.6-.46-.82,2-.18,3.48-.56,4.57-1.21-.56-.22-1.14-.41-1.76-.58l-.3.4c-.08.1-.14.12-.31.05l-.73-.3c-.2-.08-.19-.13-.11-.24.2-.23.41-.49.59-.74.28-.42.58-.91.86-1.44h-1.21c-1.07,0-1.43.02-1.5.02-.12,0-.13-.01-.13-.13v-.91c0-.12.01-.13.13-.13.07,0,.43.02,1.5.02h1.79c.1-.19.19-.4.28-.6.16-.34.34-.8.42-1.2.43.08.9.19,1.28.31.1.02.16.08.16.16s-.05.14-.14.22c-.1.06-.18.18-.31.46l-.31.66h4.25c1.07,0,1.42-.02,1.5-.02.12,0,.13.01.13.13v.91c0,.12-.01.13-.13.13-.08,0-.43-.02-1.5-.02h-.78c-.36,1.01-.82,1.83-1.39,2.52,1.07.44,2.12.97,3.19,1.55.06.04.08.06.08.11s-.02.1-.07.17l-.58.82ZM248.88,83.69c1.13,0,1.54-.02,1.61-.02.12,0,.13.01.13.12,0,.07-.02.29-.02.61v.49c0,1.06.02,1.24.02,1.31,0,.12-.01.13-.13.13h-1c-.12,0-.13-.01-.13-.13v-1.4h-7.4v1.4c0,.12-.01.13-.13.13h-1c-.12,0-.13-.01-.13-.13,0-.08.02-.25.02-1.31v-.4c0-.42-.02-.64-.02-.71,0-.11.01-.12.13-.12.08,0,.48.02,1.61.02h2.51v-.14c0-.52-.02-.84-.1-1.14.44.01.89.04,1.29.07.13.01.19.05.19.11,0,.08-.04.14-.07.24s-.06.25-.06.72v.14h2.67ZM244.58,88.03c-.24.46-.5.9-.78,1.34.76.2,1.5.43,2.22.7.54-.55.95-1.21,1.26-2.04h-2.7Z"/><path class="uuid-5905871c-ace8-461f-b035-f4d7557391a8" d="M258.07,84.47c.11-.04.16-.04.18.1.06.3.1.66.11.97,0,.11-.05.13-.14.14-.65.13-1.24.22-1.98.32-.77,2.03-1.48,3.68-2.34,5.14-.05.08-.08.12-.13.12-.04,0-.08-.02-.14-.06-.28-.17-.62-.42-.83-.61-.06-.05-.08-.08-.08-.13,0-.04.01-.08.06-.14.9-1.49,1.54-2.75,2.07-4.19-.46.02-.83.02-1.2.02-.26,0-.36,0-.66-.01-.12,0-.14-.04-.17-.19-.06-.23-.1-.62-.12-1.02.49.04.77.05,1.12.05.47,0,.83-.01,1.38-.06.14-.5.23-.91.31-1.34.07-.42.07-.6.07-.97.52.07,1.03.14,1.4.25.12.02.19.1.19.18,0,.1-.04.16-.11.23-.07.1-.12.2-.19.44-.08.29-.18.66-.29,1.02.47-.05,1.02-.16,1.49-.26ZM258.4,87.68c-.01-.32-.02-.52-.1-.85.59.06.9.11,1.31.23.11.02.17.08.17.19,0,.02-.02.11-.07.25-.05.14-.06.29-.05.49,0,.71.04,1.22.13,2.04.86.35,1.45.61,2.16,1.12.12.08.13.13.07.25-.18.37-.35.67-.55.97-.04.06-.07.08-.11.08s-.07-.02-.12-.07c-.53-.46-.97-.72-1.46-1.01,0,1.2-.86,1.75-2.23,1.75s-2.21-.67-2.21-1.7.86-1.75,2.22-1.75c.23,0,.56.01.95.07-.07-.77-.1-1.5-.11-2.06ZM257.55,90.7c-.6,0-1.07.24-1.07.7,0,.38.34.58,1.02.58.65,0,1.04-.35,1.04-.85,0-.11,0-.17-.01-.24-.29-.1-.61-.18-.98-.18ZM259.78,84.93c.07-.12.13-.13.25-.08.71.19,1.66.67,2.35,1.13.07.05.11.08.11.13,0,.04-.01.08-.05.14-.12.26-.34.64-.5.89-.04.06-.07.08-.11.08s-.06-.01-.11-.05c-.71-.48-1.57-1.01-2.48-1.31.2-.36.38-.72.54-.94Z"/><path class="uuid-5905871c-ace8-461f-b035-f4d7557391a8" d="M263.87,92.8c-.17-.1-.17-.13-.08-.23.53-.58,1-1.31,1.28-2.03.05-.13.08-.12.25-.06l.7.26c.14.06.18.07.13.19-.31.88-.74,1.62-1.26,2.25-.04.06-.06.08-.11.08-.04,0-.08-.01-.16-.06l-.76-.42ZM268.24,83.92c0-.65-.02-1.01-.1-1.55.44.01.92.04,1.33.1.12.01.18.05.18.12,0,.08-.01.14-.05.24-.06.12-.08.3-.08.84v.1h2.71c1.1,0,1.49-.02,1.56-.02.12,0,.13.01.13.13v.96c0,.11-.01.12-.13.12-.07,0-.46-.02-1.56-.02h-2.71v1.08h1.6c1.16,0,1.58-.02,1.67-.02.12,0,.13.01.13.12,0,.07-.02.38-.02,1.08v1.67c0,.7.02,1,.02,1.07,0,.12-.01.13-.13.13-.08,0-.5-.02-1.67-.02h-3.98c-1.18,0-1.59.02-1.67.02-.12,0-.13-.01-.13-.13,0-.08.02-.37.02-1.07v-1.67c0-.7-.02-1-.02-1.08,0-.11.01-.12.13-.12.07,0,.49.02,1.67.02h1.1v-2.09ZM266.63,88.88h4.99v-1.74h-4.99v1.74ZM268.05,90.68c.16-.01.18,0,.2.13.17.65.26,1.43.32,2.16.01.12-.01.17-.17.18l-.89.05c-.17.01-.2,0-.2-.12-.01-.72-.1-1.51-.22-2.17-.02-.12.01-.16.17-.17l.78-.06ZM270.35,90.57c.16-.04.17-.01.22.11.28.61.55,1.46.71,2.13.02.13.01.16-.14.19l-.85.18c-.18.02-.2.02-.23-.1-.12-.72-.36-1.55-.61-2.17-.05-.11-.02-.13.14-.17l.77-.18ZM272.76,90.4c.16-.06.18-.07.26.04.48.62.94,1.45,1.26,2.17.05.11.05.14-.11.22l-.8.33c-.16.05-.18.06-.22-.05-.29-.78-.7-1.55-1.16-2.25-.07-.1-.04-.13.11-.19l.66-.26Z"/><path class="uuid-5905871c-ace8-461f-b035-f4d7557391a8" d="M278.13,83.72c.2.11.28.18.28.29,0,.08-.02.12-.18.36-.12.22-.18.38-.29.85-.34,1.49-.5,2.96-.5,3.87,0,.59.02.98.07,1.4.25-.55.47-.95.82-1.79.1.3.25.49.42.76.04.06.08.13.08.18,0,.08-.02.13-.06.19-.28.62-.5,1.14-.68,1.81-.02.07-.04.2-.04.37,0,.14.02.24.02.34,0,.08-.05.13-.16.16-.3.08-.64.16-.98.19-.08.01-.13-.05-.16-.13-.34-.84-.55-2.36-.55-3.57,0-1.08.13-2.39.41-3.93.16-.89.22-1.28.22-1.79.54.13.92.25,1.28.44ZM280.7,89.37c.1-.01.12.05.12.18.07.83.65,1.13,1.95,1.13.9,0,1.49-.06,2.29-.16.12-.01.14,0,.17.16.04.25.07.72.07,1.03,0,.14,0,.16-.2.18-.82.1-1.39.13-1.96.13-1.77,0-2.6-.29-3.12-1-.3-.38-.42-1-.42-1.56l1.09-.1ZM280.02,84.89c.01-.14.05-.18.17-.2.71-.13,2.05-.22,2.6-.22.72,0,1.27.02,1.77.07.25.01.28.04.28.16,0,.36,0,.68-.02,1.02-.01.11-.05.16-.16.14-.72-.05-1.34-.07-1.95-.07-.8,0-1.58.07-2.72.28.01-.67.01-.97.04-1.18Z"/><path class="uuid-5905871c-ace8-461f-b035-f4d7557391a8" d="M288.2,90.33c.08-.08.14-.1.18-.1s.08.01.16.07c.89.55,1.68,1.27,2.39,2.2.07.1.08.13.08.18,0,.06-.02.11-.12.19l-.73.62c-.08.07-.13.11-.17.11-.06,0-.11-.02-.17-.12-.64-.92-1.45-1.74-2.27-2.29-.07-.05-.11-.08-.11-.12s.02-.07.08-.14l.67-.6Z"/><path class="uuid-5905871c-ace8-461f-b035-f4d7557391a8" d="M300.81,84.08c.43,0,.65-.01.83-.11.05-.04.08-.05.13-.05.07,0,.13.05.2.1.28.22.55.53.78.84.04.06.06.11.06.16,0,.07-.05.16-.16.24-.16.13-.31.31-.44.53-.49.84-.96,1.51-1.54,2.24,1.15.85,2.22,1.79,3.32,2.9.06.06.1.12.1.17s-.02.11-.08.18c-.23.28-.5.56-.8.82-.05.05-.1.07-.14.07-.06,0-.11-.04-.17-.1-1.01-1.18-2.04-2.12-3.12-2.97-1.36,1.42-2.72,2.43-4.03,3.17-.11.05-.19.1-.28.1-.07,0-.14-.04-.2-.11-.26-.32-.61-.56-1.01-.78,1.87-.95,2.99-1.8,4.22-3.06.86-.9,1.52-1.75,2.25-3.01h-3.09c-.62.01-1.25.04-1.9.08-.1.01-.13-.07-.16-.2-.06-.25-.11-.83-.11-1.25.65.05,1.25.05,2.03.05h3.3Z"/><path class="uuid-5905871c-ace8-461f-b035-f4d7557391a8" d="M312.74,84.44c.35-.01.5-.08.66-.18.08-.06.14-.08.2-.08s.13.04.22.1c.26.16.6.48.82.73.07.07.1.14.1.22s-.04.14-.13.23c-.12.11-.24.23-.36.46-.52,1.02-1.08,2-1.76,2.9.49.4.95.82,1.29,1.21.05.05.07.11.07.17,0,.05-.02.11-.07.16-.17.2-.54.59-.74.76-.05.04-.1.06-.14.06-.04,0-.08-.02-.13-.07-.29-.34-.77-.82-1.16-1.16-1.22,1.32-2.46,2.25-3.83,3-.11.06-.2.11-.3.11-.07,0-.14-.04-.23-.11-.38-.31-.72-.47-1.14-.61,1.86-.95,3.06-1.81,4.41-3.25-.46-.37-1-.74-1.73-1.13.26-.29.52-.6.79-.85.05-.05.1-.08.16-.08.04,0,.07.02.12.05.43.2.96.55,1.55.96.58-.74,1.02-1.52,1.4-2.37l-2.97.06c-.98,1.26-1.76,2.09-2.57,2.7-.08.06-.16.11-.24.11-.06,0-.13-.02-.19-.08-.3-.22-.61-.38-1.01-.55,1.68-1.33,2.58-2.43,3.39-3.77.38-.65.54-.97.65-1.48.41.14,1.03.35,1.4.59.1.05.13.12.13.19,0,.08-.06.18-.14.24-.11.07-.19.17-.25.25-.1.17-.17.29-.37.6l2.11-.05Z"/><path class="uuid-5905871c-ace8-461f-b035-f4d7557391a8" d="M318.19,86.29c.13-.06.22-.05.31.08.42.53.8,1.14,1.03,1.78.02.08.05.13.05.18,0,.07-.05.11-.14.17-.29.17-.49.26-.77.37-.17.06-.24,0-.3-.17-.28-.7-.65-1.36-1.13-1.93.41-.23.7-.36.95-.48ZM324.77,86.45c.1.07.16.13.16.2s-.04.13-.13.22c-.18.16-.26.4-.36.61-.52,1.22-1.14,2.31-1.81,3.19-.79,1.01-1.45,1.64-2.47,2.31-.1.07-.19.13-.29.13-.06,0-.13-.02-.19-.08-.3-.24-.58-.37-1.02-.5,1.44-.95,2.16-1.56,2.88-2.5.6-.78,1.27-1.96,1.62-2.89.16-.44.23-.71.28-1.27.5.16,1.04.37,1.34.58ZM320.61,85.71c.13-.06.22-.05.31.1.32.42.73,1.18.92,1.75.06.18.04.24-.12.32-.23.13-.49.25-.83.37-.13.05-.18-.01-.24-.18-.28-.71-.55-1.28-1.01-1.92.48-.23.76-.36.96-.44Z"/><path class="uuid-5905871c-ace8-461f-b035-f4d7557391a8" d="M329.63,85.44c-.78,0-1.46.04-1.98.06-.16.01-.2-.07-.23-.24-.04-.24-.08-.86-.11-1.21.54.06,1.18.08,2.3.08h4.28c.36,0,.49-.02.66-.12.06-.04.12-.05.18-.05.07,0,.14.02.23.06.32.2.65.5.88.79.06.07.08.13.08.2,0,.11-.06.2-.17.3-.11.11-.17.23-.28.47-.59,1.42-1.32,2.74-2.33,3.9-1.03,1.17-2.19,2.17-3.41,2.85-.11.07-.22.11-.32.11-.1,0-.2-.04-.3-.13-.28-.26-.67-.48-1.12-.66,1.75-.89,2.82-1.71,3.92-3,.94-1.07,1.55-2.09,2.03-3.42h-4.33Z"/><path class="uuid-5905871c-ace8-461f-b035-f4d7557391a8" d="M341.28,84.2c.06-.36.12-.83.12-1.33.62.13.96.22,1.44.4.12.04.19.13.19.24,0,.06-.02.12-.08.18-.12.16-.18.29-.24.46-.16.49-.28.94-.43,1.44.32-.04.68-.05.96-.05,1.12,0,1.72.78,1.72,2.31,0,1.29-.24,2.89-.65,3.75-.35.77-.92,1.13-1.62,1.13-.58,0-.98-.06-1.25-.18-.14-.06-.22-.16-.22-.34-.04-.38-.06-.72-.23-1.12.54.25,1.01.31,1.38.31.4,0,.58-.14.77-.64.25-.67.47-1.81.47-2.99,0-.84-.16-1.1-.68-1.1-.29,0-.66.04-1.01.08-.79,2.3-1.48,3.96-2.41,5.64-.07.16-.17.18-.31.11-.22-.11-.68-.4-.83-.53-.06-.06-.1-.11-.1-.18,0-.04.01-.08.05-.13.96-1.67,1.58-2.94,2.19-4.7-.47.07-.85.14-1.18.2-.31.06-.5.13-.66.19-.17.06-.31.04-.38-.16-.11-.28-.24-.71-.37-1.24.53,0,1.06-.04,1.58-.08.5-.05.95-.11,1.42-.18.19-.68.28-1.1.36-1.51ZM346.03,85.01c.08-.05.14-.02.23.06.82.77,1.55,1.76,1.99,2.91.05.11.04.17-.05.24-.2.19-.66.48-.9.6-.12.06-.24.05-.28-.1-.48-1.26-1.1-2.29-1.97-3.11.3-.2.65-.44.97-.61ZM346.36,83.33c.06-.05.11-.04.18.02.37.29.8.77,1.14,1.28.05.07.05.13-.04.19l-.5.37c-.08.06-.14.05-.2-.04-.36-.55-.74-1.01-1.21-1.39l.64-.44ZM347.42,82.55c.07-.05.11-.04.18.02.44.34.88.82,1.14,1.24.05.07.06.14-.04.22l-.48.37c-.1.07-.16.04-.2-.04-.32-.52-.71-.97-1.2-1.38l.6-.43Z"/><path class="uuid-5905871c-ace8-461f-b035-f4d7557391a8" d="M25.56,106.59c-1.09,0-1.46.02-1.54.02-.12,0-.13-.01-.13-.13v-.88c0-.12.01-.13.13-.13.07,0,.44.02,1.54.02h3.36l.04-.19c.05-.34.07-.7.07-.98.44.02.94.07,1.3.13.11.01.17.07.17.14,0,.06-.04.12-.1.19-.08.1-.12.2-.16.43l-.06.28h2.43c1.09,0,1.46-.02,1.54-.02.12,0,.13.01.13.13v.88c0,.12-.01.13-.13.13-.07,0-.44-.02-1.54-.02h-2.65c-.06.28-.12.54-.19.8h1.48c1.08,0,1.46-.02,1.55-.02.12,0,.13.01.13.13,0,.07-.02.46-.02,1.29v2.75c0,.85.02,1.22.02,1.28,0,.13-.01.14-.13.14-.08,0-.47-.02-1.55-.02h-2.7c-1.09,0-1.46.02-1.54.02-.13,0-.14-.01-.14-.14,0-.06.02-.43.02-1.28v-2.75c0-.84-.02-1.22-.02-1.29,0-.12.01-.13.14-.13.07,0,.44.02,1.52.02l.18-.8h-3.15ZM24.49,109.01c0-.67-.02-1.03-.1-1.47.46.01.88.04,1.3.08.12.01.19.07.19.13,0,.08-.04.16-.07.25-.06.13-.07.4-.07.98v4.67h6.72c1.19,0,1.6-.02,1.67-.02.12,0,.13.01.13.13v.88c0,.12-.01.13-.13.13-.07,0-.48-.02-1.67-.02h-6.72v.42c0,.12-.01.13-.14.13h-1c-.12,0-.13-.01-.13-.13,0-.07.02-.44.02-1.28v-4.87ZM28.1,108.97h3.6v-.68h-3.6v.68ZM31.7,110.5v-.68h-3.6v.68h3.6ZM31.7,111.36h-3.6v.68h3.6v-.68Z"/><path class="uuid-5905871c-ace8-461f-b035-f4d7557391a8" d="M38.12,111.44c0,1.15.04,1.8.04,2.4,0,.66-.12.97-.4,1.19-.26.19-.52.26-1.28.26q-.38.01-.46-.36c-.07-.36-.2-.67-.3-.86.29.04.48.04.92.04.25,0,.3-.08.3-.42v-2.31l-.48.16c-.22.08-.35.16-.42.2-.06.05-.13.07-.2.07s-.13-.04-.16-.14c-.07-.31-.13-.71-.18-1.13.35-.04.68-.11,1.1-.23l.34-.1v-2.35h-.19c-.74,0-.97.02-1.04.02-.11,0-.12-.01-.12-.13v-.88c0-.12.01-.13.12-.13.07,0,.3.02,1.04.02h.19v-.64c0-.77-.02-1.15-.1-1.7.44.01.83.04,1.22.1.12.01.2.06.2.12,0,.1-.05.17-.08.25-.07.14-.07.4-.07,1.21v.66c.62,0,.84-.02.91-.02.12,0,.13.01.13.13v.88c0,.12-.01.13-.13.13-.07,0-.29-.02-.91-.02v1.93c.28-.12.58-.24.88-.38-.04.23-.06.58-.07.9-.01.24-.01.26-.22.35l-.59.26v.53ZM46.45,111.36c0,.13-.01.14-.12.14-.07,0-.43-.01-1.35-.02-.26.71-.61,1.28-1.01,1.75.76.32,1.48.68,2.16,1.09.06.04.1.06.1.1s-.04.07-.08.14l-.52.7c-.07.1-.11.12-.14.12s-.06-.01-.11-.05c-.76-.52-1.49-.94-2.27-1.29-.97.72-2.19,1.08-3.6,1.25-.1.01-.19.02-.24.02-.11,0-.16-.08-.25-.34-.1-.24-.25-.5-.43-.7,1.43-.11,2.48-.35,3.27-.76-.34-.13-.68-.25-1.04-.37l-.1.11c-.14.19-.2.28-.46.16l-.54-.24c-.14-.06-.2-.11-.2-.16,0-.04.02-.07.07-.13.2-.24.47-.58.66-.85.11-.17.23-.35.35-.55-.96.01-1.33.02-1.39.02-.11,0-.12-.01-.12-.14v-.78c0-.11.01-.12.12-.12.07,0,.48.02,1.64.02h.29l.1-.18c.11-.25.24-.55.32-.92h-.64c-1.16,0-1.56.02-1.63.02-.12,0-.13-.01-.13-.13v-.79c0-.13.01-.14.13-.14.07,0,.47.02,1.63.02h2.35c.17-.35.3-.72.41-1.07.05-.16.08-.34.1-.55.43.05.73.1,1.09.17.12.02.2.05.2.13s-.07.13-.11.17c-.06.06-.1.13-.14.25-.14.35-.24.59-.4.9h.28c1.15,0,1.56-.02,1.63-.02.11,0,.12.01.12.14v.79c0,.12-.01.13-.12.13-.07,0-.48-.02-1.63-.02h-2.66l.73.22c.1.04.14.08.14.17s-.05.14-.14.22c-.07.06-.16.16-.3.44l-.04.06h2.25c1.16,0,1.57-.02,1.64-.02.11,0,.12-.02.12.12v.78ZM41.2,106.7c-1.14,0-1.54.02-1.61.02-.12,0-.13-.01-.13-.13v-.77c0-.11.01-.12.13-.12.07,0,.47.02,1.61.02h.83v-.32c0-.43-.01-.68-.07-.97.44.01.82.04,1.21.07.13.01.2.06.2.12s-.02.11-.07.19c-.05.1-.07.26-.07.58v.34h1.21c1.13,0,1.52-.02,1.6-.02.12,0,.13.01.13.12v.77c0,.12-.01.13-.13.13-.07,0-.47-.02-1.6-.02h-3.24ZM41.07,108.27c-.13.04-.18.04-.22-.1-.1-.41-.22-.74-.34-1.03-.05-.12-.04-.16.11-.19l.68-.17c.16-.04.19-.04.24.06.14.28.28.62.41,1.04.04.12.01.17-.13.2l-.76.18ZM41.91,111.48c-.17.3-.32.58-.49.84.48.14.96.3,1.44.48.36-.37.64-.8.85-1.32h-1.8Z"/><path class="uuid-5905871c-ace8-461f-b035-f4d7557391a8" d="M50.61,108.6c-.6.05-1.21.1-2.02.1-.2,0-.26-.07-.29-.25-.04-.23-.08-.62-.13-1.04.31.05.62.06.94.06.5,0,1.02-.05,1.52-.1,0-.4.01-.85.01-1.37,0-.31-.01-.66-.08-.97.6.04,1.1.12,1.43.22.14.04.24.12.24.23,0,.05-.02.11-.07.19-.08.16-.14.31-.17.47-.04.31-.05.61-.06,1,.53-.11,1.02-.26,1.54-.44.11-.04.19-.01.2.11.05.3.07.62.07.94,0,.12-.04.16-.16.19-.79.25-1,.31-1.71.46-.01.58-.01,1.16-.02,1.74,1.13-.48,2.18-.67,2.95-.66,1.49.01,2.55.96,2.55,2.4,0,1.54-.98,2.43-2.6,2.43-.35,0-.73-.05-.98-.11-.19-.05-.26-.17-.26-.36-.02-.26-.11-.67-.36-1.02.58.19,1.06.22,1.5.22.67,0,1.29-.38,1.29-1.24,0-.78-.48-1.21-1.32-1.21-.68,0-1.51.18-2.75.82.01.5.02.91.05,1.44.04.53.1,1.28.1,1.56,0,.17.02.35-.18.4-.26.07-.65.13-.89.14-.13.01-.18-.08-.29-.24-.32-.44-.95-1.02-1.7-1.54-.13.07-.28.17-.38.26-.06.06-.14.08-.2.08-.1,0-.19-.07-.26-.19-.13-.22-.37-.72-.55-1.12.31-.07.71-.2,1.1-.42.52-.29,1.08-.61,1.96-1.12v-2.05ZM49.49,112.73c.34.18.74.38,1.13.54.1.02.13.01.12-.1-.02-.31-.05-.86-.07-1.26-.34.23-.74.5-1.18.82ZM55.22,106.43c.08-.13.12-.17.2-.14,1.1.32,1.92.83,2.54,1.46.05.05.07.08.07.12s-.02.07-.05.12c-.16.24-.47.61-.65.85-.04.05-.2.06-.24,0-.64-.71-1.48-1.15-2.43-1.47.16-.32.35-.64.55-.94Z"/><path class="uuid-5905871c-ace8-461f-b035-f4d7557391a8" d="M62.35,110.12c-.78.43-1.61.82-2.47,1.13-.13.05-.22.07-.28.07-.11,0-.14-.08-.23-.31-.11-.29-.28-.58-.46-.77,2.12-.61,3.5-1.34,4.71-2.41.24-.2.37-.4.48-.58.24.04.46.08.67.13-.04-.02-.07-.07-.11-.12-.18-.19-.4-.36-.61-.47l.29-.3s-.06.01-.11.01c-.07,0-.37-.02-1.37-.02h-.1c.2.35.38.73.55,1.16.05.12.04.16-.11.19l-.84.19c-.18.05-.2.05-.24-.08-.13-.5-.32-1.03-.54-1.46h-.47c-.29.44-.62.84-.96,1.16-.13.12-.19.18-.26.18-.06,0-.12-.07-.25-.23-.17-.22-.41-.43-.6-.54.72-.61,1.2-1.26,1.61-2.09.11-.18.18-.37.25-.66.41.06.79.14,1.12.2.12.04.18.07.18.14s-.04.12-.12.19c-.07.06-.11.12-.19.29-.06.11-.11.22-.16.32h1.13c1,0,1.3-.02,1.37-.02.13,0,.14.01.14.14v.79s0,.07-.01.1c.42-.48.7-.96.9-1.46.08-.17.17-.4.23-.65.35.05.79.12,1.04.19.12.04.19.07.19.14,0,.08-.05.13-.12.22-.06.06-.11.18-.22.42l-.06.13h1.77c1.14,0,1.52-.02,1.6-.02.13,0,.14.01.14.14v.79c0,.12-.01.13-.14.13-.07,0-.46-.02-1.6-.02h-.4c.2.35.36.7.52,1.1.05.12.02.14-.13.18l-.8.2c-.19.05-.2.04-.24-.1-.14-.5-.32-.97-.53-1.39h-.72c-.17.26-.37.54-.61.8-.07.08-.12.13-.17.17l.17.05c.12.04.22.1.22.17,0,.08-.02.12-.16.18,1.14,1.02,2.77,1.8,4.99,2.23-.2.25-.36.53-.5.85-.1.23-.13.31-.24.31-.06,0-.14-.02-.28-.06-.88-.26-1.73-.61-2.5-1.02v.61c0,.12-.01.13-.13.13-.07,0-.36-.02-1.28-.02h-1.55c-.94,0-1.22.02-1.3.02-.12,0-.13-.01-.13-.13v-.66ZM61.07,115.31c-.12,0-.13-.01-.13-.13,0-.07.02-.34.02-1.73v-.7c0-.71-.02-1-.02-1.08,0-.11.01-.12.13-.12.08,0,.49.02,1.64.02h3.74c1.15,0,1.56-.02,1.64-.02.12,0,.13.01.13.12,0,.07-.02.37-.02.92v.82c0,1.38.02,1.64.02,1.72,0,.11-.01.12-.13.12h-1.01c-.12,0-.13-.01-.13-.12v-.32h-4.75v.37c0,.12-.01.13-.13.13h-1.01ZM62.21,113.83h4.75v-1.27h-4.75v1.27ZM66.26,109.91c-.7-.41-1.3-.85-1.76-1.34-.53.49-1.13.94-1.77,1.33.19.01.52.01,1.06.01h2.48Z"/><path class="uuid-5905871c-ace8-461f-b035-f4d7557391a8" d="M74.25,108.05c.92-.14,1.6-.28,2.09-.38.2-.06.32-.1.48-.19.11-.06.16-.08.26-.08.07,0,.11.02.2.08.22.13.49.36.71.64.08.08.13.2.13.28,0,.11-.07.2-.22.28-.17.08-.25.17-.38.28-.89.84-1.38,1.34-2.18,2.21.16-.05.31-.06.43-.06.56,0,1.1.36,1.31,1.21.24.98.43,1.18,1.32,1.18.71,0,1.27-.08,1.86-.22.13-.02.19.05.22.18.05.25.08.66.08,1.06,0,.12-.06.17-.22.19-.53.1-1.19.16-1.76.16-1.76,0-2.34-.47-2.59-1.66-.19-.82-.34-1.15-.76-1.15-.31,0-.68.17-1.13.6-.54.55-1.42,1.61-1.82,2.11-.04.05-.1.08-.17.08-.04,0-.08-.01-.13-.05-.31-.22-.62-.52-.84-.73-.04-.04-.06-.08-.06-.12,0-.06.04-.13.1-.19.77-.78,1.5-1.52,2.27-2.3.47-.48,1.09-1.18,2.37-2.55-.9.24-1.7.43-2.49.64-.37.11-.55.17-.65.22-.1.05-.17.07-.25.07s-.14-.06-.2-.2c-.16-.3-.3-.74-.48-1.34,1.03,0,1.51-.05,2.51-.2ZM77.6,105.48c.12.02.17.1.13.26-.07.29-.22.74-.32.98-.04.1-.11.16-.2.13-1.06-.2-2.46-.62-3.35-1.01-.07-.02-.14-.08-.11-.22.07-.28.23-.67.41-1.12,1.2.44,2.29.73,3.44.96Z"/><path class="uuid-5905871c-ace8-461f-b035-f4d7557391a8" d="M83.45,106.48c.11.05.19.13.19.22,0,.07-.04.19-.1.34-.05.14-.11.66-.11,1.17,0,.77.02,1.63.22,2.73.17.95.48,1.76.98,1.76.38,0,.68-.42,1.15-1.67.26.42.53.7.77.92.14.13.14.28.08.44-.46,1.22-1.2,1.87-2.04,1.87-.94,0-1.92-1.1-2.24-3.13-.19-1.14-.29-2.39-.29-3.49,0-.66-.02-1.02-.14-1.57.58.07,1.16.22,1.52.4ZM89.02,107.24s.1-.05.13-.05c.05,0,.08.02.13.07,1.09.95,2.05,2.6,2.35,4.1.04.16-.04.2-.13.26-.31.2-.61.37-.94.48-.14.05-.23.01-.25-.13-.41-1.72-1.02-2.96-2.24-4.19.46-.29.76-.46.95-.55Z"/><path class="uuid-5905871c-ace8-461f-b035-f4d7557391a8" d="M98.56,106.52c.13-.04.18.02.19.12.04.26.07.61.08.86.01.16-.02.19-.18.23-.74.2-1.35.34-2.09.46-.82,2.66-1.43,4.5-2.19,6.49-.06.17-.13.16-.26.12-.12-.05-.71-.3-.96-.44-.1-.06-.13-.16-.1-.24.91-2.1,1.49-3.68,2.07-5.69-.7.07-1.54.13-2.1.13-.18,0-.23-.04-.25-.19-.05-.25-.11-.66-.17-1.09.25.04.4.04.89.04.6,0,1.25-.04,1.94-.12.12-.48.22-1.01.3-1.5.05-.36.07-.72.07-1.1.64.1,1.13.18,1.51.34.1.04.13.12.13.19,0,.05,0,.11-.06.19-.1.17-.19.29-.25.48-.12.43-.2.84-.29,1.14.47-.08,1.12-.24,1.7-.41ZM98.09,112.25c.12,0,.17.05.18.17.1.88.68,1.13,1.83,1.13.67,0,1.54-.11,2.02-.17.1-.01.13.01.14.11.05.31.1.72.1,1.04.01.14,0,.18-.19.19-.41.06-1.19.13-1.63.13-1.57,0-2.39-.22-2.93-.78-.38-.38-.52-.95-.54-1.64.37-.1.86-.18,1.02-.18ZM97.96,109.07c0-.17.04-.2.22-.24.76-.16,1.64-.28,2.34-.28.47,0,.98.05,1.4.12.17.02.2.04.2.18.02.3.02.63.01.96,0,.2-.06.25-.23.22-.42-.08-.97-.14-1.49-.14-.72,0-1.63.12-2.41.28-.02-.42-.05-.85-.05-1.09Z"/><path class="uuid-5905871c-ace8-461f-b035-f4d7557391a8" d="M106.68,105.17c.2.05.29.11.29.23,0,.13-.07.28-.12.4-.06.17-.11.54-.17,1.46-.12,1.85-.18,3.07-.18,4.64,0,1.21.14,1.49,1.1,1.49,1.07,0,2.73-.65,4.2-2.21.05.46.16.85.28,1.14.06.13.1.22.1.29,0,.11-.05.2-.24.37-1.3,1.19-2.99,1.8-4.55,1.8s-2.25-.61-2.25-2.45c0-2.01.11-3.74.17-5.18.02-.71.06-1.48-.12-2.2.55.06,1.13.12,1.5.22Z"/><path class="uuid-5905871c-ace8-461f-b035-f4d7557391a8" d="M118.16,110.35c-.83.02-1.64.02-2.47-.05-.13,0-.18-.05-.19-.2-.05-.26-.07-.74-.07-1.02.89.11,1.8.13,2.7.1-.01-.46-.01-.92-.02-1.38-1.15.04-2.02.04-2.87-.06-.13,0-.19-.05-.2-.17-.04-.3-.06-.59-.08-1.08,1.04.12,2.09.12,3.14.12,0-.44-.01-.76-.02-1.16-.02-.28-.05-.49-.14-.8.64.04,1.15.11,1.51.22.14.05.22.22.13.36-.08.17-.17.37-.18.58-.01.24-.01.41-.02.77,1.12-.08,1.92-.22,2.63-.36.14-.04.19,0,.2.14.05.34.06.66.06.88,0,.16-.04.18-.13.19-.85.14-1.62.24-2.77.31,0,.48.01.92.01,1.36.91-.06,1.49-.18,2.35-.31.14-.04.18-.01.19.1.01.23.04.62.04.98,0,.12-.05.16-.18.17-.79.13-1.34.22-2.35.29.02.55.05,1.14.08,1.69,1.15.32,2.13.76,3.18,1.45.12.11.12.14.08.29-.08.23-.34.67-.53.89-.05.07-.1.1-.16.1-.04,0-.08-.01-.13-.06-.73-.58-1.48-1-2.39-1.37-.01,1.29-.79,1.82-2.44,1.82-1.56,0-2.45-.68-2.45-1.68s.95-1.7,2.4-1.7c.3,0,.59,0,1.15.05-.02-.53-.05-1.02-.06-1.43ZM117.13,112.78c-.88,0-1.3.25-1.3.64,0,.31.36.54,1.19.54.48,0,.92-.14,1.09-.36.1-.13.13-.34.13-.67-.35-.08-.78-.14-1.12-.14Z"/><path class="uuid-5905871c-ace8-461f-b035-f4d7557391a8" d="M129.7,105.57c-.02-.35-.05-.52-.14-.88.54.04,1.12.11,1.4.17.2.04.34.12.34.23,0,.1-.04.16-.11.28-.04.07-.07.19-.1.35-.01.16-.01.31-.02.77,1.29-.05,2.53-.06,3.68-.06.14,0,.17.02.18.18.01.3.01.61,0,.91,0,.13-.06.17-.2.16-1.25-.04-2.41-.04-3.66-.02,0,.73,0,1.5.01,2.23.12.32.18.79.18,1.19,0,1.39-.56,2.84-2.14,3.87-.2.13-.36.23-.47.23s-.24-.08-.36-.18c-.28-.23-.6-.38-.91-.48,1.4-.62,2.24-1.63,2.46-2.64-.24.35-.73.48-1.13.48-.95,0-1.67-.68-1.67-1.83s.84-1.8,1.81-1.8c.36,0,.72.07.91.24,0-.42-.01-.83-.01-1.22-1.51.08-3.2.23-4.15.36-.26.04-.46.14-.56.14-.12,0-.17-.05-.2-.17-.1-.24-.2-.72-.3-1.21.44.05.83,0,1.46-.05.73-.06,2.28-.16,3.72-.24-.01-.37-.01-.67-.02-1ZM128.17,110.42c0,.53.34.82.77.82s.82-.28.82-.83c0-.49-.31-.77-.79-.77-.37,0-.79.25-.79.78Z"/><path class="uuid-5905871c-ace8-461f-b035-f4d7557391a8" d="M140.05,112.06h-1.21l-.34-7.14h1.87l-.32,7.14ZM140.28,113.22v1.62h-1.7v-1.62h1.7Z"/><rect class="uuid-bbda5e06-d5da-42b5-a98d-cb5749becbb6" width="375" height="121.35"/></g></svg>