<?xml version="1.0" encoding="UTF-8"?><svg id="uuid-c582649e-ec21-450c-9db5-75670008b9cb" xmlns="http://www.w3.org/2000/svg" width="375" height="152.59" viewBox="0 0 375 152.59"><defs><style>.uuid-ca032479-6d58-4394-a58d-7ae23b96a3df{fill:#231815;}.uuid-442f232a-a054-419c-8ab8-bb177943ed62{fill:none;}.uuid-9a405f24-31bb-4a2b-80d9-e250c98f7933{fill:#b11f3a;}</style></defs><g id="uuid-73ea42d2-89b1-42f8-a071-de2dc21cc174"><path class="uuid-9a405f24-31bb-4a2b-80d9-e250c98f7933" d="M163.01,74.32c.14-.74.22-1.5.22-2.28s-.08-1.54-.22-2.28l-9.14,1.03,7.19-5.74c-.87-1.26-1.96-2.36-3.23-3.23l-5.74,7.19,1.03-9.14c-.74-.14-1.5-.22-2.28-.22s-1.54.08-2.28.22l1.03,9.14-5.74-7.19c-1.26.87-2.36,1.96-3.23,3.23l7.19,5.74-9.14-1.03c-.14.74-.22,1.5-.22,2.28s.08,1.54.22,2.28l9.14-1.03-7.19,5.74c.87,1.26,1.96,2.36,3.23,3.23l5.74-7.19-1.03,9.14c.74.14,1.5.22,2.28.22s1.54-.08,2.28-.22l-1.03-9.14,5.74,7.19c1.26-.87,2.36-1.96,3.23-3.23l-7.19-5.74,9.14,1.03Z"/><polygon class="uuid-ca032479-6d58-4394-a58d-7ae23b96a3df" points="87.59 82.97 84.26 80.4 69.56 102.97 73.09 105.22 87.59 82.97"/><path class="uuid-ca032479-6d58-4394-a58d-7ae23b96a3df" d="M94.98,102.95h-4.25c0-7.07-1.43-15.53-8.25-18.69l1.79-3.86c7.01,3.25,10.72,10.64,10.72,22.55Z"/><rect class="uuid-ca032479-6d58-4394-a58d-7ae23b96a3df" x="78.43" y="92.84" width="14.26" height="3.36"/><polygon class="uuid-ca032479-6d58-4394-a58d-7ae23b96a3df" points="125.64 88.77 116.4 88.77 116.4 85.41 125 85.41 125.64 88.77"/><path class="uuid-ca032479-6d58-4394-a58d-7ae23b96a3df" d="M120.7,95.71c0-3.75,0-14.09,0-14.09l-4.3-1.15v15.37c0,5.53,3.44,7.63,8.13,7.59l1.19-3.85c-.96.1-5.01.26-5.01-3.86Z"/><path class="uuid-ca032479-6d58-4394-a58d-7ae23b96a3df" d="M159.06,85.47c-6.13.08-10.32,3.43-10.32,8.97v8.99h4.21v-8.38c0-4.37,3.4-5.88,7.19-5.35l-1.07-4.22Z"/><path class="uuid-ca032479-6d58-4394-a58d-7ae23b96a3df" d="M130.19,92.9h10.63c.12-2.11-1.48-4.08-4.04-4.11-2.73-.03-4.38,2.15-4.38,5.61,0,3.58,1.66,5.17,4.29,5.37,2.51.19,3.99-1.17,4.63-2.5l3.16,2.48s-2.42,3.59-7.06,3.72c-3.13.09-6.15-1.24-7.66-3.83-1.73-2.97-1.67-7.25.07-10.27,2.15-3.74,6.67-4.89,10.39-3.2,4.03,1.82,4.99,6.47,4.57,10.01h-14.59v-3.28Z"/><path class="uuid-ca032479-6d58-4394-a58d-7ae23b96a3df" d="M109.39,94.15c-1.45-.62-3.34-1.39-4.26-1.76-1.39-.55-1.98-1.42-1.51-2.49.62-1.44,3.53-1.53,6.09,1.36l2.61-2.92s-2.58-2.65-5.9-2.84c-3.26-.19-5.7,1.09-6.6,3.33-.95,2.33-.3,4.77,2.55,6.04,1.21.54,2.5,1.03,4.11,1.7,1.49.62,2.43,1.14,2.19,2.08-.26,1.07-1.44,1.35-3.04,1.1-2.15-.33-3.81-1.39-4.6-2.3l-2.62,3c.99.99,3.66,2.7,6.94,2.95,3.23.24,6.23-1.03,7.04-3.4.92-2.72-.47-4.78-2.99-5.85Z"/><path class="uuid-ca032479-6d58-4394-a58d-7ae23b96a3df" d="M194.52,94.31c0-1.35.23-2.58.69-3.68.46-1.1,1.08-2.05,1.86-2.83.78-.78,1.71-1.39,2.78-1.81,1.07-.43,2.21-.64,3.42-.64s2.35.21,3.42.64c1.07.43,2,1.03,2.78,1.81.78.78,1.4,1.73,1.86,2.83.46,1.1.69,2.33.69,3.68s-.23,2.59-.69,3.7c-.46,1.11-1.08,2.07-1.86,2.86-.78.8-1.71,1.42-2.78,1.87-1.07.45-2.21.68-3.42.68s-2.35-.23-3.42-.68c-1.07-.45-2-1.07-2.78-1.87-.78-.79-1.4-1.75-1.86-2.86-.46-1.11-.69-2.35-.69-3.7ZM198.62,94.31c0,.66.1,1.33.29,1.99.19.67.47,1.26.86,1.78.38.52.86.95,1.44,1.28.58.33,1.27.5,2.08.5s1.5-.16,2.08-.5c.58-.33,1.06-.76,1.44-1.28.38-.52.66-1.11.85-1.78.19-.66.29-1.33.29-1.99s-.1-1.32-.29-1.98c-.19-.65-.47-1.24-.85-1.76-.38-.52-.86-.94-1.44-1.26-.58-.32-1.28-.48-2.08-.48s-1.5.16-2.08.48c-.58.32-1.06.74-1.44,1.26-.38.52-.67,1.11-.86,1.76-.19.65-.29,1.31-.29,1.98Z"/><polygon class="uuid-ca032479-6d58-4394-a58d-7ae23b96a3df" points="175.22 81.62 170.92 80.47 170.92 102.94 175.22 102.94 175.22 81.62"/><polygon class="uuid-ca032479-6d58-4394-a58d-7ae23b96a3df" points="190.84 81.62 186.54 80.47 186.54 102.94 190.84 102.94 190.84 81.62"/><rect class="uuid-ca032479-6d58-4394-a58d-7ae23b96a3df" x="173.54" y="90.94" width="14.59" height="3.36"/><path class="uuid-ca032479-6d58-4394-a58d-7ae23b96a3df" d="M245.72,94.15c-1.45-.62-3.34-1.39-4.26-1.76-1.39-.55-1.98-1.42-1.51-2.49.62-1.44,3.53-1.53,6.09,1.36l2.61-2.92s-2.35-2.67-5.9-2.84c-3.27-.15-5.7,1.09-6.6,3.33-.95,2.33-.3,4.77,2.55,6.04,1.21.54,2.5,1.03,4.11,1.7,1.49.62,2.43,1.14,2.19,2.08-.26,1.07-1.44,1.35-3.04,1.1-2.15-.33-3.81-1.39-4.6-2.3l-2.62,3c.99.99,3.66,2.7,6.94,2.95s6.16-.74,6.97-3.11c.92-2.72-.4-5.07-2.92-6.14Z"/><path class="uuid-ca032479-6d58-4394-a58d-7ae23b96a3df" d="M253.32,92.9h10.63c.12-2.11-1.48-4.08-4.04-4.11-2.73-.03-4.38,2.15-4.38,5.61,0,3.58,1.66,5.17,4.29,5.37,2.51.19,3.99-1.17,4.63-2.5l3.16,2.48s-2.42,3.59-7.06,3.72c-3.13.09-6.15-1.24-7.66-3.83-1.73-2.97-1.67-7.25.07-10.27,2.15-3.74,6.67-4.89,10.39-3.2,4.03,1.82,4.99,6.47,4.57,10.01h-14.59v-3.28Z"/><path class="uuid-ca032479-6d58-4394-a58d-7ae23b96a3df" d="M231.52,86.5l-4.3-1.15v9.98c0,2.57-.94,4.45-3.79,4.45s-3.79-1.62-3.79-4.35v-8.93l-4.3-1.15v10.86c0,4.15,2.59,7.21,8.09,7.21,5.96,0,8.09-3.55,8.09-7.21v-9.71Z"/><path class="uuid-ca032479-6d58-4394-a58d-7ae23b96a3df" d="M104.74,128.7c-.53,3.9-1.49,7.47-2.86,9.88-.99,1.72-2.18,2.64-3.9,2.64-2.02,0-4.06-2.15-4.06-5.89,0-2.2.94-4.31,2.59-5.96,1.93-1.92,4.35-2.93,7.45-2.93,5.5,0,8.73,3.39,8.73,7.95,0,4.26-2.41,6.94-7.06,8.34-.48.14-.69.04-.99-.41-.25-.39-.73-.92-1.6-1.44,3.87-.92,6.92-2.52,6.92-6.85,0-2.73-2.06-5.32-5.13-5.32h-.09ZM98.17,130.93c-1.1,1.24-1.79,2.77-1.79,4.24,0,2.11.85,3.28,1.56,3.28.6,0,1.1-.3,1.72-1.4,1.01-1.86,2.04-5.16,2.43-8.21-1.6.32-2.89.96-3.92,2.09Z"/><path class="uuid-ca032479-6d58-4394-a58d-7ae23b96a3df" d="M133.45,128.8c-.62.46-1.23.86-1.82,1.21,2.39,2.92,3.51,6.2,3.51,9.5,0,3.76-.91,5.02-4.05,5.02-.46,0-.91,0-1.4-.05q-.72-.05-.86-.72c-.19-.78-.43-1.45-.78-1.93,1.18.13,2.23.16,2.79.16,1.13,0,1.64-.32,1.64-2.58,0-.48-.03-.99-.08-1.45-3.17,2.41-6.28,4.05-10.01,5.45-.32.11-.51.19-.64.19-.21,0-.32-.16-.54-.59-.4-.75-.7-1.07-1.26-1.56,4.8-1.4,8.48-3.22,11.91-5.93-.16-.43-.32-.86-.54-1.29-2.6,1.72-5.34,2.95-8.48,4.05-.32.11-.51.19-.64.19-.19,0-.29-.16-.51-.56-.35-.62-.75-1.1-1.18-1.5,4.1-.91,6.87-2.17,9.76-4.02-.24-.38-.48-.75-.78-1.13-1.85.97-3.67,1.69-5.77,2.33-.78.21-.81.19-1.1-.32-.43-.8-.7-1.1-1.23-1.58,3.54-.75,6.14-1.66,8.4-2.87h-1.39c-2.55,0-3.43.05-3.59.05-.29,0-.32-.03-.32-.32v-1.69c0-.29.03-.32.32-.32.16,0,1.05.05,3.59.05h7.62c2.58,0,3.46-.05,3.62-.05.27,0,.29.03.29.32v1.69c0,.29-.03.32-.29.32-.16,0-1.05-.05-3.54-.05.35,1.45.78,2.76,1.31,3.94.51-.48,1.02-.99,1.66-1.74.46-.51.86-1.13,1.15-1.61.83.56,1.42,1.02,1.96,1.5.29.21.4.38.4.54,0,.21-.19.35-.35.4-.35.13-.62.51-1.18,1.07-.8.78-1.64,1.53-2.41,2.15,1.45,2.23,3.41,4.02,6.04,5.55-.56.56-1.05,1.1-1.45,1.85-.24.43-.35.62-.54.62-.11,0-.27-.13-.56-.32-4.53-3.33-7-7.86-8.56-13.95h-.13ZM139.7,122.31c2.47,0,3.35-.05,3.54-.05.27,0,.29.03.29.29,0,.16-.05.62-.05,1.29v1.1c0,2.28.05,2.71.05,2.87,0,.27-.03.29-.29.29h-2.2c-.27,0-.29-.03-.29-.29v-3.17h-17.06v3.17c0,.27-.03.29-.3.29h-2.2c-.27,0-.3-.03-.3-.29,0-.16.05-.59.05-2.87v-.89c0-.88-.05-1.31-.05-1.5,0-.27.03-.29.3-.29.19,0,1.07.05,3.54.05h5.88v-.05c0-.89-.03-1.61-.19-2.28.97.03,1.96.08,2.9.16.27.03.4.13.4.24,0,.19-.08.32-.16.54s-.13.56-.13,1.34v.05h6.28Z"/><path class="uuid-ca032479-6d58-4394-a58d-7ae23b96a3df" d="M153.2,127.86c4.13-1.4,7.48-2.23,9.66-2.23,4.8,0,7.89,2.9,7.89,7.11,0,3.51-1.53,5.74-4.72,7.46-2.25,1.26-4.35,1.69-6.81,2.23-.54.11-.75.08-.94-.43-.32-.75-.99-1.56-1.88-2.12,3.54-.59,5.45-1.1,7.27-1.99,2.28-1.15,3.7-2.87,3.7-5.34s-1.64-4.08-4.61-4.08c-2.41,0-5.61.97-9.68,2.76-.86.43-1.53.72-1.85.97-.38.32-.59.4-.72.4-.27,0-.48-.16-.78-.56-.48-.59-1.15-1.64-1.72-2.79,1.18-.13,2.17-.38,5.2-1.39ZM167.77,122.17c.13-.11.24-.08.4.05.83.64,1.8,1.72,2.55,2.87.11.16.11.29-.08.43l-1.13.83c-.19.13-.32.11-.46-.08-.8-1.23-1.66-2.25-2.71-3.11l1.42-.99ZM170.16,120.43c.16-.11.24-.08.4.05.99.75,1.96,1.82,2.55,2.76.11.16.13.32-.08.48l-1.07.83c-.21.16-.35.08-.46-.08-.72-1.15-1.58-2.17-2.68-3.08l1.34-.97Z"/><path class="uuid-ca032479-6d58-4394-a58d-7ae23b96a3df" d="M190.78,122.79c.13.11.21.32.21.43,0,.24-.13.4-.38.51-.32.16-.72.4-1.29.94-2.31,2.07-5.26,4.83-7.32,6.97-.24.29-.35.46-.35.59,0,.16.11.29.35.48,3.49,2.52,7.11,5.45,9.98,8.45.11.13.19.24.19.35s-.05.19-.19.32c-.62.67-1.4,1.45-1.85,1.85-.16.13-.27.21-.38.21s-.19-.08-.32-.24c-3.11-3.49-6.12-6.28-9.76-9.07-1.02-.78-1.42-1.37-1.42-2.25s.48-1.48,1.31-2.36c2.28-2.47,4.51-4.69,6.81-7.22.72-.78,1.13-1.34,1.45-2.01,1.18.7,2.2,1.4,2.95,2.04Z"/><path class="uuid-ca032479-6d58-4394-a58d-7ae23b96a3df" d="M204.82,121.9c.35.13.51.29.51.54,0,.16-.05.27-.19.43-.19.21-.32.59-.48,1.26-.38,1.82-.59,3.73-.75,5.12-.05.97-.13,1.99-.08,2.95.59-1.05,1.15-2.07,1.88-3.43.24.8.51,1.29.83,1.74.13.16.16.29.16.43,0,.21-.11.43-.27.67-.59,1.13-1.21,2.25-1.58,3.43-.08.24-.11.48-.13.8,0,.27-.11.38-.35.43-.32.08-1.48.24-2.15.32-.19.03-.32-.16-.38-.35-.43-1.15-.8-3.22-.8-5.45,0-1.8.29-4,.64-6.68.11-.94.21-1.85.21-3.06,1.21.24,2.23.51,2.92.83ZM213.53,121.45c.54.13.59.27.54.72-.05.38-.05.86-.05,1.23.19,2.55.38,4.99.38,6.92,0,3.81-.62,7.11-2.04,9.31-1.05,1.66-2.74,3.25-4.43,4.32-.19.13-.38.19-.54.19-.19,0-.35-.08-.56-.29-.59-.51-1.42-.99-2.28-1.23,2.17-1.21,3.49-2.17,4.56-3.59,1.56-2.12,2.25-4.32,2.25-8.56,0-1.9-.13-4.69-.32-6.41-.13-1.31-.27-1.99-.56-2.92,1.18.05,2.28.11,3.06.32Z"/><path class="uuid-ca032479-6d58-4394-a58d-7ae23b96a3df" d="M225.9,144.65c-.27,0-.29-.03-.29-.29,0-.48.13-5.79.19-12.18-.7,2.15-1.72,4.21-3.03,6.14-.19.27-.32.4-.43.4s-.19-.13-.27-.43c-.24-.86-.59-1.69-.97-2.28,1.88-2.2,3.35-4.91,4.37-8.15h-.62c-1.96,0-2.6.05-2.76.05-.27,0-.29-.03-.29-.3v-1.96c0-.27.03-.29.29-.29.16,0,.8.05,2.76.05h.86v-1.66c0-1.66-.03-2.52-.21-3.65.97.03,1.82.08,2.68.19.27.03.43.13.43.27,0,.24-.08.38-.16.56-.13.32-.19.75-.19,2.6v1.69c1.98,0,2.63-.05,2.79-.05.27,0,.3.03.3.29v1.96c0,.27-.03.3-.3.3-.16,0-.78-.05-2.63-.05.78,1.82,2.17,3.62,3.54,5.12-.38.56-.7,1.23-1.02,2.07-.13.29-.21.43-.29.43-.11,0-.21-.13-.38-.38-.86-1.23-1.58-2.55-2.09-4,.03,7.11.19,12.77.19,13.25,0,.27-.03.29-.29.29h-2.17ZM232.88,144.52c-.27,0-.29-.03-.29-.27,0-.16.05-1.93.05-10.14v-5.29c0-5.31-.05-7.08-.05-7.27,0-.27.03-.29.29-.29.19,0,.99.05,3.3.05h5.15c2.31,0,3.11-.05,3.27-.05.27,0,.29.03.29.29,0,.16-.05,1.96-.05,6.38v6.14c0,8.16.05,9.93.05,10.09,0,.24-.03.27-.29.27h-2.2c-.24,0-.27-.03-.27-.27v-1.23h-6.76v1.31c0,.24-.03.27-.32.27h-2.17ZM235.37,127.7h6.76v-3.81h-6.76v3.81ZM242.13,133.95v-3.73h-6.76v3.73h6.76ZM242.13,140.36v-3.89h-6.76v3.89h6.76Z"/><path class="uuid-ca032479-6d58-4394-a58d-7ae23b96a3df" d="M256.25,124.8c2.04,0,2.68-.05,2.84-.05.27,0,.29.03.29.29v1.91c0,.29-.03.32-.29.32-.16,0-.8-.05-2.84-.05h-2.98c-2.01,0-2.68.05-2.82.05-.27,0-.29-.03-.29-.32v-1.91c0-.27.03-.29.29-.29.13,0,.8.05,2.82.05h2.98ZM258.61,142.26c4.64-1.34,6.25-4.29,6.55-8.61.08-.94.08-1.66-.03-2.55.94.05,1.8.11,2.58.27.32.05.51.16.51.35s-.03.29-.16.48c-.13.19-.19.46-.29,1.61.75,4.43,3.73,7.05,7.06,8.24-.38.48-.81,1.21-1.1,1.88-.21.46-.29.67-.51.67-.13,0-.29-.08-.62-.24-2.52-1.34-4.56-3.35-5.71-6.22-.97,2.71-2.71,4.86-5.87,6.28-.3.11-.46.19-.62.19-.21,0-.32-.19-.56-.67-.35-.62-.72-1.21-1.21-1.64.03,1.15.05,1.5.05,1.61,0,.27-.03.29-.27.29h-1.93c-.27,0-.29-.03-.29-.29v-.72h-2.49v1.23c0,.24-.03.27-.3.27h-1.93c-.27,0-.29-.03-.29-.27,0-.19.05-.8.05-4.05v-1.72c0-1.69-.05-2.33-.05-2.52,0-.27.03-.29.29-.29.16,0,.72.05,2.44.05h2.04c1.72,0,2.28-.05,2.47-.05.24,0,.27.03.27.29,0,.16-.05.8-.05,2.07v4.08ZM256.07,121.13c1.72,0,2.25-.05,2.41-.05.27,0,.29.03.29.29v1.8c0,.24-.03.27-.29.27-.16,0-.7-.05-2.41-.05h-2.17c-1.74,0-2.28.05-2.44.05-.24,0-.27-.03-.27-.27v-1.8c0-.27.03-.29.27-.29.16,0,.7.05,2.44.05h2.17ZM255.77,128.61c1.58,0,2.07-.05,2.23-.05.29,0,.32.03.32.29v1.74c0,.27-.03.3-.32.3-.16,0-.64-.05-2.23-.05h-1.72c-1.64,0-2.12.05-2.28.05-.27,0-.29-.03-.29-.3v-1.74c0-.27.03-.29.29-.29.16,0,.64.05,2.28.05h1.72ZM255.77,132.23c1.58,0,2.07-.05,2.23-.05.29,0,.32.03.32.29v1.72c0,.27-.03.29-.32.29-.16,0-.64-.05-2.23-.05h-1.72c-1.64,0-2.12.05-2.28.05-.27,0-.29-.03-.29-.29v-1.72c0-.27.03-.29.29-.29.16,0,.64.05,2.28.05h1.72ZM253.68,138.11v2.87h2.49v-2.87h-2.49ZM273.69,131.75c-.24.51-.29.7-.54.7-.11,0-.29-.05-.59-.16-2.41-.94-4.56-2.71-5.71-5.47-.97,2.44-2.71,4.32-5.69,5.5-.29.11-.46.19-.59.19-.21,0-.32-.19-.59-.67-.32-.56-.72-1.13-1.1-1.48,4.29-1.26,6.12-3.81,6.33-7.64.05-.91.05-1.72-.03-2.47.94.05,1.77.16,2.49.27.32.05.54.13.54.32s-.05.29-.19.48c-.13.16-.19.4-.27,1.37.7,4.4,3.57,6.3,6.95,7.38-.35.4-.75,1.1-1.02,1.69ZM259.29,137.52c-.32-.24-.3-.29-.11-.51.91-.99,1.69-2.2,2.23-3.35.13-.27.19-.29.54-.11l1.34.7c.35.19.38.24.27.51-.56,1.31-1.29,2.52-2.33,3.76-.11.13-.16.19-.27.19-.08,0-.19-.05-.32-.16l-1.34-1.02ZM259.85,126.36c-.32-.21-.32-.27-.13-.48.8-.94,1.48-2.09,1.93-3.27.11-.29.13-.24.51-.11l1.4.54c.32.13.35.19.27.46-.54,1.37-1.15,2.58-2.09,3.73-.11.13-.16.19-.24.19s-.19-.05-.32-.16l-1.31-.89ZM271.06,134.35c.24-.35.38-.64.51-1.02.72.21,1.45.48,2.07.8.38.19.48.32.48.46,0,.21-.11.29-.29.4-.16.11-.32.32-.46.51-.51.7-1.07,1.45-1.8,2.2-.27.27-.43.43-.59.43-.19,0-.35-.16-.7-.43-.46-.38-.89-.67-1.4-.94.97-.83,1.66-1.66,2.17-2.41ZM271.11,123.19c.24-.35.38-.64.48-1.02.7.24,1.45.56,2.01.86.35.19.43.24.43.4,0,.19-.11.27-.27.4-.13.11-.29.29-.46.54-.46.67-.91,1.31-1.69,2.12-.32.32-.48.48-.64.48s-.32-.13-.62-.38c-.48-.4-.94-.7-1.37-.86,1.02-.97,1.69-1.85,2.12-2.55Z"/><path class="uuid-ca032479-6d58-4394-a58d-7ae23b96a3df" d="M285.91,128.58c-1.5,1.1-3.14,2.07-4.86,2.9-.32.16-.51.24-.64.24-.19,0-.27-.19-.48-.67-.32-.67-.7-1.26-1.21-1.77,4.67-1.85,8.15-4.69,10.3-7.81.46-.67.7-1.13.94-1.74,1.05.13,2.04.32,2.9.56.32.08.48.19.48.38,0,.16-.05.32-.27.43-.16.08-.27.16-.38.24,3.03,3.7,6.65,6.04,11.35,7.67-.51.64-.86,1.29-1.15,2.01-.19.48-.27.67-.46.67-.13,0-.32-.08-.62-.21-1.82-.8-3.57-1.74-5.12-2.84v1.99c0,.27-.03.29-.29.29-.16,0-.89-.05-3.03-.05h-4.13c-2.15,0-2.87.05-3.03.05-.27,0-.29-.03-.29-.29v-2.04ZM284.19,135.85c-2.52,0-3.38.05-3.54.05-.29,0-.32-.03-.32-.29v-2.01c0-.27.03-.29.32-.29.16,0,1.02.05,3.54.05h14.3c2.52,0,3.38-.05,3.54-.05.29,0,.32.03.32.29v2.01c0,.27-.03.29-.32.29-.16,0-1.02-.05-3.54-.05h-8.29c-.67,1.66-1.48,3.35-2.39,5.04,2.79-.16,5.71-.4,8.26-.67-.62-.75-1.23-1.5-1.96-2.28-.19-.21-.16-.32.16-.48l1.72-.88c.29-.16.38-.13.56.05,1.82,1.9,3.35,3.84,4.99,6.22.13.21.13.32-.13.51l-1.85,1.21c-.16.11-.24.16-.32.16s-.13-.05-.21-.19c-.46-.75-.91-1.45-1.34-2.09-4.45.56-9.93,1.02-14.49,1.37-.43.03-.78.13-.97.24-.13.11-.27.16-.46.16s-.32-.13-.38-.38c-.24-.89-.4-1.82-.56-2.76.99.08,1.88.05,2.92,0,.27,0,.56-.03.86-.03.97-1.82,1.74-3.54,2.36-5.2h-2.79ZM293.36,128.37c1.8,0,2.6-.03,2.9-.05-1.93-1.4-3.62-3.03-5.07-4.91-1.42,1.88-3.06,3.51-4.91,4.91.24.03.99.05,2.95.05h4.13Z"/><rect class="uuid-442f232a-a054-419c-8ab8-bb177943ed62" width="375" height="152.59"/></g></svg>