<?xml version="1.0" encoding="UTF-8"?><svg id="uuid-27e36bb9-b6cb-4657-9098-3f6c1d2245a2" xmlns="http://www.w3.org/2000/svg" width="375" height="72.6" viewBox="0 0 375 72.6"><defs><style>.uuid-357e481d-9e1e-4151-ac4b-cf43d4d022b1{fill:none;}.uuid-43653d3f-9964-44e4-bfe9-26d2bae866b9{fill:#1c1c1c;}</style></defs><g id="uuid-06c13d86-3cc5-4c1d-8bc7-f5ef3625b72a"><path class="uuid-43653d3f-9964-44e4-bfe9-26d2bae866b9" d="M37.21,61.79c-.2,2.12-.98,3.78-2.35,4.97s-3.19,1.78-5.46,1.78c-1.59,0-2.98-.38-4.19-1.13-1.21-.75-2.14-1.82-2.8-3.21-.66-1.38-1-2.99-1.03-4.83v-1.86c0-1.88.33-3.53,1-4.96.67-1.43,1.62-2.53,2.86-3.31,1.24-.77,2.68-1.16,4.31-1.16,2.2,0,3.96.59,5.3,1.78s2.12,2.87,2.34,5.05h-3.45c-.16-1.43-.58-2.46-1.25-3.1-.67-.63-1.65-.95-2.95-.95-1.5,0-2.66.55-3.47,1.65s-1.22,2.71-1.24,4.84v1.77c0,2.15.38,3.79,1.16,4.93.77,1.13,1.9,1.7,3.38,1.7,1.36,0,2.38-.3,3.06-.92.68-.61,1.12-1.63,1.3-3.05h3.45Z"/><path class="uuid-43653d3f-9964-44e4-bfe9-26d2bae866b9" d="M40.79,60.74c0-1.45.29-2.75.86-3.92s1.38-2.05,2.42-2.68c1.04-.62,2.23-.94,3.58-.94,2,0,3.62.64,4.86,1.93s1.92,2.99,2.02,5.11v.78c.01,1.46-.27,2.76-.83,3.91s-1.36,2.04-2.41,2.67c-1.04.63-2.25.94-3.62.94-2.09,0-3.76-.69-5.01-2.08-1.25-1.39-1.88-3.24-1.88-5.56v-.16ZM44.12,61.03c0,1.52.31,2.71.94,3.58s1.5,1.29,2.62,1.29,1.99-.44,2.62-1.31c.62-.88.94-2.16.94-3.84,0-1.49-.32-2.68-.96-3.55s-1.52-1.31-2.62-1.31-1.95.43-2.58,1.29c-.64.86-.96,2.15-.96,3.86Z"/><path class="uuid-43653d3f-9964-44e4-bfe9-26d2bae866b9" d="M61.77,53.48l.1,1.71c1.09-1.32,2.53-1.98,4.31-1.98,3.08,0,4.65,1.76,4.7,5.29v9.78h-3.32v-9.58c0-.94-.2-1.63-.61-2.08s-1.07-.68-1.99-.68c-1.34,0-2.34.61-2.99,1.82v10.53h-3.32v-14.79h3.13Z"/><path class="uuid-43653d3f-9964-44e4-bfe9-26d2bae866b9" d="M79.75,49.89v3.6h2.61v2.46h-2.61v8.26c0,.57.11.97.33,1.22.22.25.62.38,1.2.38.38,0,.77-.04,1.16-.14v2.57c-.76.21-1.49.31-2.19.31-2.55,0-3.83-1.41-3.83-4.22v-8.38h-2.43v-2.46h2.43v-3.6h3.32Z"/><path class="uuid-43653d3f-9964-44e4-bfe9-26d2bae866b9" d="M95.03,68.28c-.15-.28-.27-.74-.38-1.38-1.06,1.1-2.35,1.65-3.88,1.65s-2.7-.42-3.64-1.27c-.94-.85-1.41-1.9-1.41-3.14,0-1.58.59-2.79,1.76-3.63,1.17-.84,2.85-1.26,5.02-1.26h2.04v-.97c0-.77-.21-1.38-.64-1.84-.43-.46-1.08-.69-1.96-.69-.76,0-1.38.19-1.86.57-.48.38-.72.86-.72,1.44h-3.32c0-.81.27-1.57.81-2.28.54-.71,1.27-1.26,2.19-1.66.93-.4,1.96-.6,3.1-.6,1.73,0,3.11.44,4.14,1.31,1.03.87,1.56,2.09,1.59,3.67v6.67c0,1.33.19,2.39.56,3.19v.23h-3.39ZM91.38,65.88c.66,0,1.27-.16,1.85-.48.58-.32,1.01-.75,1.31-1.29v-2.79h-1.79c-1.23,0-2.16.21-2.78.64-.62.43-.93,1.04-.93,1.82,0,.64.21,1.15.64,1.52.42.38.99.57,1.7.57Z"/><path class="uuid-43653d3f-9964-44e4-bfe9-26d2bae866b9" d="M108.56,65.9c.83,0,1.52-.24,2.06-.72.55-.48.84-1.08.88-1.79h3.13c-.04.92-.32,1.78-.86,2.58-.54.8-1.27,1.43-2.19,1.89-.92.46-1.91.7-2.98.7-2.07,0-3.71-.67-4.92-2.01-1.21-1.34-1.82-3.19-1.82-5.55v-.34c0-2.25.6-4.05,1.8-5.41s2.84-2.03,4.92-2.03c1.76,0,3.19.51,4.3,1.54s1.69,2.37,1.74,4.04h-3.13c-.04-.85-.33-1.54-.87-2.09-.54-.55-1.23-.82-2.07-.82-1.08,0-1.9.39-2.49,1.17-.58.78-.88,1.96-.89,3.55v.53c0,1.6.29,2.8.87,3.59.58.79,1.42,1.18,2.51,1.18Z"/><path class="uuid-43653d3f-9964-44e4-bfe9-26d2bae866b9" d="M122.91,49.89v3.6h2.61v2.46h-2.61v8.26c0,.57.11.97.33,1.22.22.25.62.38,1.2.38.38,0,.77-.04,1.16-.14v2.57c-.76.21-1.49.31-2.19.31-2.55,0-3.83-1.41-3.83-4.22v-8.38h-2.43v-2.46h2.43v-3.6h3.32Z"/><path class="uuid-43653d3f-9964-44e4-bfe9-26d2bae866b9" d="M307.36,57.7c-.6.05-1.21.1-2.02.1-.2,0-.26-.07-.29-.25-.04-.23-.08-.62-.13-1.04.31.05.62.06.94.06.5,0,1.02-.05,1.52-.1,0-.4.01-.85.01-1.37,0-.31-.01-.66-.08-.97.6.04,1.1.12,1.43.22.14.04.24.12.24.23,0,.05-.02.11-.07.19-.08.16-.14.31-.17.47-.04.31-.05.61-.06,1,.53-.11,1.02-.26,1.54-.44.11-.04.19-.01.2.11.05.3.07.62.07.94,0,.12-.04.16-.16.19-.79.25-1,.31-1.71.46-.01.58-.01,1.16-.02,1.74,1.13-.48,2.18-.67,2.95-.66,1.49.01,2.55.96,2.55,2.4,0,1.54-.98,2.44-2.6,2.44-.35,0-.73-.05-.98-.11-.19-.05-.26-.17-.26-.36-.02-.26-.11-.67-.36-1.02.58.19,1.06.22,1.5.22.67,0,1.3-.38,1.3-1.24,0-.78-.48-1.21-1.32-1.21-.68,0-1.51.18-2.75.82.01.5.02.91.05,1.44.04.53.1,1.28.1,1.56,0,.17.02.35-.18.4-.26.07-.65.13-.89.14-.13.01-.18-.08-.29-.24-.32-.44-.95-1.02-1.7-1.54-.13.07-.28.17-.38.26-.06.06-.14.08-.2.08-.1,0-.19-.07-.26-.19-.13-.21-.37-.72-.55-1.12.31-.07.71-.2,1.1-.42.52-.29,1.08-.61,1.95-1.12v-2.05ZM306.25,61.83c.34.18.74.38,1.13.54.1.02.13.01.12-.1-.02-.31-.05-.86-.07-1.26-.34.23-.74.5-1.18.82ZM311.98,55.53c.08-.13.12-.17.2-.14,1.1.32,1.92.83,2.54,1.46.05.05.07.08.07.12s-.02.07-.05.12c-.16.24-.47.61-.65.85-.04.05-.2.06-.24,0-.64-.71-1.48-1.15-2.43-1.48.16-.32.35-.64.55-.94Z"/><path class="uuid-43653d3f-9964-44e4-bfe9-26d2bae866b9" d="M320.65,53.88c.78,0,1.13-.02,1.2-.02.11,0,.12.01.12.13,0,.07-.02.43-.02,1.19v1.56c0,.74.02,1.1.02,1.17,0,.12-.01.13-.12.13-.07,0-.42-.02-1.2-.02h-1.92v3.74c0,1.66.02,2.47.02,2.55,0,.12-.01.13-.13.13h-1.02c-.12,0-.13-.01-.13-.13,0-.08.02-.9.02-2.55v-5.19c0-1.66-.02-2.5-.02-2.58,0-.12.01-.13.13-.13.08,0,.53.02,1.4.02h1.64ZM318.73,54.79v.71h2.04v-.71h-2.04ZM320.77,56.32h-2.04v.82h2.04v-.82ZM320.34,63.3c-.12,0-.13,0-.13-.12,0-.07.02-.37.02-1.96v-.86c0-.88-.02-1.19-.02-1.27,0-.12.01-.13.13-.13.08,0,.37.02,1.27.02h1.57c.9,0,1.19-.02,1.27-.02.12,0,.13.01.13.13,0,.07-.02.38-.02,1.04v.92c0,1.51.02,1.8.02,1.87,0,.13-.01.14-.13.14h-.88c-.13,0-.14-.01-.14-.14v-.4h-2.07v.65c0,.12-.01.12-.14.12h-.88ZM321.36,61.51h2.07v-1.51h-2.07v1.51ZM327.4,60.5c0,.84.05,1.8.05,2.39s-.07.85-.35,1.1c-.26.24-.6.32-1.67.32-.38,0-.38.01-.46-.37-.06-.35-.16-.63-.28-.89.36.05.66.06.97.06.4,0,.49-.11.49-.47v-4.63h-1.92c-.94,0-1.25.02-1.32.02-.13,0-.14-.01-.14-.13,0-.08.02-.36.02-1.08v-1.75c0-.72-.02-1.01-.02-1.09,0-.12.01-.13.14-.13.07,0,.38.02,1.32.02h1.73c.92,0,1.25-.02,1.32-.02.12,0,.13.01.13.13,0,.07-.02.58-.02,1.59v4.92ZM323.98,54.79v.71h2.18v-.71h-2.18ZM326.17,57.14v-.82h-2.18v.82h2.18Z"/><path class="uuid-43653d3f-9964-44e4-bfe9-26d2bae866b9" d="M333.17,57.42c-.7.54-1.44,1.01-2.22,1.42-.14.07-.22.12-.28.12-.08,0-.13-.08-.23-.3-.16-.32-.35-.59-.56-.8,2.21-1,3.63-2.24,4.62-3.67.22-.31.35-.54.47-.85.47.07.91.14,1.26.23.14.05.22.08.22.19,0,.06-.02.12-.12.18-.04.02-.07.05-.1.08,1.43,1.82,3.09,2.94,5.12,3.66-.2.25-.38.58-.5.91-.07.23-.12.31-.22.31-.06,0-.16-.04-.29-.11-.85-.38-1.63-.83-2.34-1.34v.84c0,.12-.01.13-.13.13-.07,0-.4-.02-1.36-.02h-1.86c-.96,0-1.27.02-1.35.02-.12,0-.13-.01-.13-.13v-.86ZM332.03,64.42c-.12,0-.13-.01-.13-.13,0-.07.02-.4.02-2.13v-1.03c0-1.03-.02-1.38-.02-1.45,0-.12.01-.13.13-.13.07,0,.49.02,1.64.02h3.84c1.15,0,1.57-.02,1.64-.02.13,0,.14.01.14.13,0,.07-.02.42-.02,1.27v1.18c0,1.73.02,2.05.02,2.11,0,.12-.01.13-.14.13h-1.02c-.12,0-.13-.01-.13-.13v-.4h-4.81v.46c0,.12-.01.13-.14.13h-1.02ZM333.19,62.74h4.81v-2.09h-4.81v2.09ZM336.51,57.28c.71,0,1.07-.01,1.24-.01-.86-.66-1.59-1.43-2.21-2.28-.62.86-1.37,1.61-2.18,2.27.14.01.48.02,1.3.02h1.86Z"/><path class="uuid-43653d3f-9964-44e4-bfe9-26d2bae866b9" d="M346.17,56.09c-.02-.61-.05-.8-.17-1.27.6.05,1.14.13,1.44.2.13.02.25.14.25.25,0,.08-.04.17-.07.25-.07.18-.11.34-.12.53-.01.29-.01.74-.02,1.15.83-.11,2.1-.24,2.96-.34.01-.6.01-1.25.01-1.69s-.04-.91-.16-1.37c.73.08,1.15.14,1.45.24.17.05.23.11.23.23,0,.1-.05.19-.07.24-.06.19-.11.34-.12.54-.02.65-.04,1.12-.05,1.68.97-.07,1.69-.11,2.34-.13.1,0,.14.01.14.12.01.32.02.66,0,.98,0,.16-.02.17-.16.17-.79,0-1.6.04-2.39.1-.04.79-.07,1.38-.14,1.85-.13.94-.67,1.33-1.57,1.33-.22,0-.49,0-.74-.04-.19-.01-.24-.1-.24-.31-.02-.4-.1-.7-.26-1.08.4.11.72.14,1.02.14.32,0,.5-.1.56-.52.05-.37.07-.8.08-1.27-.96.07-2,.19-2.93.34-.01,1.31-.02,2.03.02,2.71.07.98.34,1.17,1.8,1.17,1.07,0,2.22-.11,3.11-.24.18-.01.22.01.24.16.05.25.07.78.07,1.01,0,.14-.05.2-.16.22-.55.08-2.04.18-3.01.18-2.42,0-3.13-.5-3.27-2.07-.06-.65-.08-1.66-.08-2.93-.61.08-1,.16-1.45.25-.13.04-.32.08-.54.18-.16.07-.24.02-.31-.13-.14-.3-.28-.79-.34-1.2.25,0,.77-.05,1.28-.12.34-.05.91-.16,1.35-.23v-1.28Z"/><rect class="uuid-357e481d-9e1e-4151-ac4b-cf43d4d022b1" width="375" height="72.6"/></g></svg>