<?xml version="1.0" encoding="UTF-8"?><svg id="uuid-5d562d0a-ac87-4b9f-9745-6a935f162451" xmlns="http://www.w3.org/2000/svg" width="376.05" height="520.67" viewBox="0 0 376.05 520.67"><defs><style>.uuid-17b542c6-ac22-4db0-b746-d933312d2e41{fill:#fff;}.uuid-58dfa060-ee7f-4444-b781-dbe303caa3ae{stroke:#000;stroke-miterlimit:10;}.uuid-f0109865-e9a7-41dc-8853-a8f4b0c9c713{fill:#b11f3a;}</style></defs><g id="uuid-c5dd179d-5eae-4308-84f1-4f49a679afc4"><rect class="uuid-58dfa060-ee7f-4444-b781-dbe303caa3ae" x=".5" y=".5" width="375.05" height="519.67"/><path class="uuid-f0109865-e9a7-41dc-8853-a8f4b0c9c713" d="M152.49,206.31c.1-.54.16-1.09.16-1.65s-.06-1.12-.16-1.65l-6.62.74,5.21-4.16c-.63-.92-1.42-1.71-2.34-2.34l-4.16,5.21.74-6.62c-.54-.1-1.09-.16-1.65-.16s-1.12.06-1.65.16l.74,6.62-4.16-5.21c-.92.63-1.71,1.42-2.34,2.34l5.21,4.16-6.62-.74c-.1.54-.16,1.09-.16,1.65s.06,1.12.16,1.65l6.62-.74-5.21,4.16c.63.92,1.42,1.71,2.34,2.34l4.16-5.21-.74,6.62c.54.1,1.09.16,1.65.16s1.12-.06,1.65-.16l-.74-6.62,4.16,5.21c.92-.63,1.71-1.42,2.34-2.34l-5.21-4.16,6.62.74Z"/><polygon class="uuid-17b542c6-ac22-4db0-b746-d933312d2e41" points="97.88 212.58 95.47 210.72 84.83 227.06 87.38 228.69 97.88 212.58"/><path class="uuid-17b542c6-ac22-4db0-b746-d933312d2e41" d="M103.23,227.05h-3.08c0-5.12-1.04-11.24-5.97-13.53l1.29-2.8c5.08,2.35,7.76,7.7,7.76,16.33Z"/><rect class="uuid-17b542c6-ac22-4db0-b746-d933312d2e41" x="91.25" y="219.73" width="10.57" height="2.43"/><polygon class="uuid-17b542c6-ac22-4db0-b746-d933312d2e41" points="125.43 216.78 118.74 216.78 118.74 214.35 124.97 214.35 125.43 216.78"/><path class="uuid-17b542c6-ac22-4db0-b746-d933312d2e41" d="M121.86,221.81c0-2.71,0-10.2,0-10.2l-3.12-.83v11.13c0,4,2.49,5.52,5.88,5.5l.86-2.79c-.7.07-3.63.18-3.63-2.8Z"/><path class="uuid-17b542c6-ac22-4db0-b746-d933312d2e41" d="M149.63,214.39c-4.44.06-7.48,2.49-7.48,6.49v6.51h3.05v-6.07c0-3.16,2.46-4.26,5.2-3.88l-.78-3.06Z"/><path class="uuid-17b542c6-ac22-4db0-b746-d933312d2e41" d="M128.73,219.77h7.7c.09-1.53-1.07-2.95-2.93-2.97-1.97-.02-3.17,1.56-3.17,4.06,0,2.59,1.2,3.74,3.11,3.89,1.82.14,2.89-.84,3.35-1.81l2.29,1.8s-1.75,2.6-5.11,2.69c-2.26.06-4.45-.9-5.54-2.77-1.25-2.15-1.21-5.25.05-7.43,1.56-2.71,4.83-3.54,7.52-2.32,2.92,1.32,3.62,4.68,3.31,7.25h-10.56v-2.38Z"/><path class="uuid-17b542c6-ac22-4db0-b746-d933312d2e41" d="M113.66,220.68c-1.05-.45-2.42-1.01-3.08-1.27-1-.4-1.43-1.03-1.1-1.81.45-1.04,2.55-1.1,4.41.99l1.89-2.12s-1.87-1.92-4.27-2.06c-2.36-.14-4.12.79-4.78,2.41-.69,1.69-.22,3.46,1.85,4.38.88.39,1.81.75,2.98,1.23,1.08.45,1.76.83,1.59,1.51-.19.77-1.04.97-2.2.8-1.55-.24-2.76-1.01-3.33-1.66l-1.9,2.17c.72.72,2.65,1.96,5.02,2.14s4.51-.74,5.1-2.46c.67-1.97-.34-3.46-2.17-4.24Z"/><path class="uuid-17b542c6-ac22-4db0-b746-d933312d2e41" d="M77.3,222.56c-.75,1.59-1.64,2.1-2.81,2.1-1.73,0-2.85-1.34-2.85-3.61,0-1.45.64-2.94,1.61-3.96,1.14-1.19,2.77-1.99,5.02-1.83,3.38.23,5.26,2.39,5.34,4.89.08,2.45-1.33,5.05-4.81,5.54l-1.09-1.99c1.06-.02,3.3-.42,3.62-3.02.23-1.87-.76-3.17-2.61-3.31-.28,2.14-.72,3.74-1.42,5.2ZM73.67,220.97c.01,1.45,1.13,2.29,1.86.33.42-1.13.81-2.69.95-3.92-1.93.47-2.83,2.35-2.82,3.59Z"/><polygon class="uuid-17b542c6-ac22-4db0-b746-d933312d2e41" points="27.99 211.6 24.88 210.77 24.88 220.07 27.99 220.07 27.99 211.6"/><path class="uuid-17b542c6-ac22-4db0-b746-d933312d2e41" d="M33.1,217.45v-6.68l3.12.83s0,3.2,0,4.57c0,6.65-1.43,9.5-8.22,11.21l-1.35-2.73c4.35-.71,6.45-2.15,6.45-7.21Z"/><path class="uuid-17b542c6-ac22-4db0-b746-d933312d2e41" d="M44.9,210.77l3.12.83c0,3.41.13,8.22-2.11,11.11-1.7,2.19-3.66,3.58-7,4.67l-1.35-2.73c3.19-.82,5.28-2.39,6.37-4.58,1.33-2.66.97-5.86.97-9.3Z"/><path class="uuid-17b542c6-ac22-4db0-b746-d933312d2e41" d="M60.15,215.45c-1-1.06-1.81-1.35-2.67-1.35s-1.61.23-2.82,1.57c-1.61,1.78-4.27,4.58-4.27,4.58l2.15,2.24c.95-1.15,2.46-2.85,3.5-4.03.49-.56.89-1.12,1.49-1.13.62-.01,1.03.4,1.49.86,2.83,2.84,4.34,4.35,7.87,7.97l2.03-2.19s-6.33-5.93-8.78-8.52Z"/><path class="uuid-17b542c6-ac22-4db0-b746-d933312d2e41" d="M63.88,213.11l-1.32,1.43c1.06.85,2,1.75,2.8,2.7l1.38-1.5c-.86-1-1.94-1.94-2.86-2.63Z"/><path class="uuid-17b542c6-ac22-4db0-b746-d933312d2e41" d="M66.09,210.93l-1.32,1.43c1.06.85,2,1.75,2.8,2.7l1.38-1.5c-.86-1-1.94-1.94-2.86-2.63Z"/><path class="uuid-17b542c6-ac22-4db0-b746-d933312d2e41" d="M27.06,304.56c-.08,1.6-.34,2.82-.92,3.96-.08.16-.13.24-.2.24-.06,0-.13-.07-.24-.19-.24-.28-.53-.5-.78-.64.86-1.25.98-2.91.98-5.08,0-1.31-.02-1.93-.02-2,0-.12.01-.13.13-.13.08,0,.35.02,1.21.02h1.5c.85,0,1.14-.02,1.2-.02.12,0,.13.01.13.13,0,.07-.02.4-.02,1.12v1.83c0,.73.02,1.02.02,1.09,0,.13-.01.14-.13.14h-.92c-.12,0-.13-.01-.13-.14v-.32h-1.8ZM28.86,298.54c1,0,1.32-.02,1.39-.02.12,0,.13.01.13.13v.88c0,.13-.01.14-.13.14-.07,0-.4-.02-1.39-.02h-2.01c-.98,0-1.32.02-1.39.02-.12,0-.13-.01-.13-.14v-.88c0-.12.01-.13.13-.13.07,0,.41.02,1.39.02h2.01ZM27.1,301.81v1.69h1.76v-1.69h-1.76ZM32.1,302.92c-.02,1.37-.13,2.28-.42,3.18-.3.94-.79,1.73-1.48,2.44-.12.13-.18.19-.25.19-.06,0-.12-.06-.24-.2-.22-.25-.48-.48-.76-.65.77-.64,1.32-1.44,1.61-2.39.2-.68.34-1.46.34-3.11v-1.46c0-.72-.02-1.31-.08-1.96.42.07.78.16,1.14.29.73-.17,1.66-.49,2.33-.85.28-.13.43-.25.64-.42.28.23.56.54.79.85.07.08.1.14.1.24,0,.07-.08.12-.19.13-.13.01-.25.06-.46.14-1.02.42-2.05.77-3.06,1v1.48h2.19c1.18,0,1.57-.02,1.64-.02.12,0,.13.01.13.13v.89c0,.12-.01.13-.13.13-.07,0-.41-.01-1.28-.02v4.35c0,.96.02,1.43.02,1.5,0,.11-.01.12-.12.12h-.98c-.11,0-.12-.01-.12-.12,0-.08.01-.54.01-1.5v-4.35h-1.37Z"/><path class="uuid-17b542c6-ac22-4db0-b746-d933312d2e41" d="M45.96,304.48c-.28.24-.58.48-.88.7-.14.11-.23.17-.3.17-.08,0-.14-.07-.25-.24-.18-.3-.4-.52-.6-.68.77-.47,1.44-1,2-1.58-.01-.24-.04-.46-.07-.73.24.01.47.01.7.04.34-.43.62-.89.86-1.38h-1.4c-1.08,0-1.45.02-1.52.02-.12,0-.13-.01-.13-.13v-.91c0-.12.01-.13.13-.13.07,0,.44.02,1.52.02h1.88c.08-.25.16-.5.23-.77.1-.36.13-.65.13-.97.5.06.89.12,1.26.19.14.04.2.11.2.19s-.05.16-.11.23c-.08.1-.14.22-.22.47-.06.23-.13.44-.2.66h4.04c1.08,0,1.44-.02,1.51-.02.12,0,.13.01.13.13v.91c0,.12-.01.13-.13.13-.07,0-.43-.02-1.51-.02h-4.49c-.41.91-.94,1.74-1.57,2.48-.01.18,0,.38,0,.65v3.27c0,1.01.02,1.51.02,1.57,0,.12-.01.13-.13.13h-1.01c-.12,0-.13-.01-.13-.13,0-.07.02-.56.02-1.57v-2.69ZM49.41,308.41c-1.16,0-1.56.02-1.63.02-.12,0-.13-.01-.13-.13v-.91c0-.12.01-.13.13-.13.07,0,.47.02,1.63.02h1.1v-2.58h-.67c-1.09,0-1.46.02-1.54.02-.12,0-.13-.01-.13-.13v-.89c0-.12.01-.13.13-.13.07,0,.44.02,1.54.02h.67v-.35c0-.85-.01-1.22-.08-1.81.46.01.86.04,1.27.08.12.01.19.07.19.12,0,.1-.04.16-.07.25-.06.14-.07.44-.07,1.33v.37h.85c1.09,0,1.46-.02,1.54-.02.12,0,.13.01.13.13v.89c0,.12-.01.13-.13.13-.07,0-.44-.02-1.54-.02h-.85v2.58h1.37c1.15,0,1.55-.02,1.63-.02.11,0,.12.01.12.13v.91c0,.12-.01.13-.12.13-.08,0-.48-.02-1.63-.02h-3.71Z"/><path class="uuid-17b542c6-ac22-4db0-b746-d933312d2e41" d="M65.85,305.16c.38-.16.76-.33,1.16-.55-.02.22-.02.49-.01.74q.02.38-.31.55c-.74.37-1.6.72-2.39,1.02-.2.08-.35.14-.4.19-.05.05-.13.08-.2.08s-.13-.04-.18-.14c-.12-.31-.22-.66-.32-1.07.38-.07.76-.16,1.19-.3l.28-.08v-3.41h-.1c-.78,0-1.02.02-1.09.02-.12,0-.12-.01-.12-.13v-.91c0-.12,0-.13.12-.13.07,0,.31.02,1.09.02h.1v-1.13c0-.79-.01-1.28-.1-1.76.47.01.84.04,1.24.08.12.01.19.07.19.14,0,.08-.04.14-.07.24-.06.14-.07.44-.07,1.14v1.28c.68,0,.91-.02.98-.02.11,0,.12.01.12.13v.91c0,.12-.01.13-.12.13-.07,0-.3-.02-.98-.02v2.96ZM68.87,306.83c0,.31.06.46.23.54.17.1.54.13,1.73.13,1.29,0,1.69-.06,1.93-.25.19-.17.25-.41.29-1.35.24.14.52.29.86.38q.3.08.26.4c-.11,1.04-.25,1.37-.65,1.62-.41.28-.98.4-2.84.4-1.63,0-2.23-.14-2.53-.34-.29-.18-.46-.54-.46-1.19v-3.74c-.61.22-.86.32-.96.35-.12.04-.13.02-.16-.1l-.16-.94c-.02-.12-.01-.12.1-.16.1-.02.41-.1,1.18-.35v-1.32c.01-.66-.01-1.22-.07-1.7.41.01.79.04,1.15.07.17.02.24.07.24.13,0,.1-.02.14-.07.25-.06.12-.07.38-.07,1.14v1.03l1.15-.38v-1.74c0-.72-.02-1.09-.1-1.7.46.01.83.04,1.22.1.12.01.19.06.19.13,0,.08-.04.14-.07.24-.06.14-.07.44-.07,1.08v1.51l.92-.31c1.13-.37,1.49-.53,1.57-.54.08-.01.13.02.13.12l-.04,1.54c-.02,1.21-.12,2.1-.29,2.71-.18.7-.52.91-1.03.91-.14,0-.29,0-.44-.02q-.26-.02-.32-.4c-.04-.28-.13-.62-.25-.86.25.06.47.08.64.08.2,0,.29-.06.36-.44.08-.46.13-.92.14-2.1l-1.39.48v2.09c0,1.2.02,1.79.02,1.86,0,.12-.01.13-.13.13h-.96c-.12,0-.13-.01-.13-.13,0-.08.02-.66.02-1.86v-1.69l-1.15.4v3.8Z"/><path class="uuid-17b542c6-ac22-4db0-b746-d933312d2e41" d="M83.94,300.88c0,.59-.46,1.03-1.03,1.03s-1.02-.44-1.02-1.03c0-.55.43-1.02,1.02-1.02s1.03.47,1.03,1.02ZM83.94,305.96c0,.59-.46,1.03-1.03,1.03s-1.02-.44-1.02-1.03c0-.55.43-1.02,1.02-1.02s1.03.47,1.03,1.02Z"/><path class="uuid-17b542c6-ac22-4db0-b746-d933312d2e41" d="M101.77,300.13h-9.26v-1.29h9.26v1.29ZM101.77,302.41h-3.85v5.58h-1.58v-5.58h-3.83v-1.3h9.26v1.3Z"/><path class="uuid-17b542c6-ac22-4db0-b746-d933312d2e41" d="M110,303.38c0,3.39-1.03,4.77-2.9,4.77s-2.87-1.35-2.87-4.75,1.04-4.73,2.89-4.73,2.88,1.32,2.88,4.7ZM105.78,303.39c0,2.7.37,3.57,1.32,3.57s1.35-.89,1.35-3.57-.37-3.53-1.33-3.53-1.34.82-1.34,3.53Z"/><path class="uuid-17b542c6-ac22-4db0-b746-d933312d2e41" d="M116.29,300.71c-.14-.67-.53-.9-.96-.9-1.09,0-1.61,1.14-1.65,3.24.42-.72,1.1-1.08,1.87-1.08,1.42,0,2.39,1.12,2.39,2.96,0,1.98-1.15,3.21-2.79,3.21-1.76,0-2.94-1.29-2.94-4.39,0-3.62,1.22-5.09,3.17-5.09,1.21,0,1.98.53,2.39,1.5l-1.46.54ZM115.13,307c.84,0,1.29-.68,1.29-2.02,0-1.22-.43-1.86-1.24-1.86-.6,0-1.13.41-1.5,1.16,0,1.93.58,2.71,1.44,2.71Z"/><path class="uuid-17b542c6-ac22-4db0-b746-d933312d2e41" d="M125.24,300.03h-3.62l-.07,1.85c-.01.28-.04.6-.07.86.32-.48.89-.79,1.57-.79,1.51,0,2.58,1.19,2.58,3,0,1.93-1.2,3.2-2.93,3.2-1.44,0-2.46-.65-2.78-1.99l1.46-.44c.17.89.64,1.27,1.31,1.27.86,0,1.4-.74,1.4-2.01,0-1.19-.49-1.86-1.33-1.86-.61,0-1.09.37-1.3,1.03l-1.25-.18.18-5.13h4.85v1.2Z"/><path class="uuid-17b542c6-ac22-4db0-b746-d933312d2e41" d="M131.52,304.94h-3.5v-1.17h3.5v1.17Z"/><path class="uuid-17b542c6-ac22-4db0-b746-d933312d2e41" d="M139.67,303.38c0,3.39-1.03,4.77-2.9,4.77s-2.87-1.35-2.87-4.75,1.04-4.73,2.89-4.73,2.88,1.32,2.88,4.7ZM135.45,303.39c0,2.7.37,3.57,1.32,3.57s1.36-.89,1.36-3.57-.37-3.53-1.33-3.53-1.34.82-1.34,3.53Z"/><path class="uuid-17b542c6-ac22-4db0-b746-d933312d2e41" d="M147.63,303.38c0,3.39-1.03,4.77-2.9,4.77s-2.87-1.35-2.87-4.75,1.04-4.73,2.89-4.73,2.88,1.32,2.88,4.7ZM143.41,303.39c0,2.7.37,3.57,1.32,3.57s1.35-.89,1.35-3.57-.37-3.53-1.33-3.53-1.34.82-1.34,3.53Z"/><path class="uuid-17b542c6-ac22-4db0-b746-d933312d2e41" d="M153.03,306.82h1.72v1.16h-4.94v-1.16h1.8v-6.52c-.46.31-1.03.6-1.69.82l-.24-1.26c.79-.23,1.5-.61,2.13-1.08h1.22v8.05Z"/><path class="uuid-17b542c6-ac22-4db0-b746-d933312d2e41" d="M156.93,300.65c.35-1.3,1.38-1.98,2.77-1.98,1.67,0,2.75.97,2.75,2.3,0,1.08-.65,1.87-1.75,2.06v.08c1.24.26,1.93,1.09,1.93,2.3,0,1.62-1.18,2.72-2.93,2.72-1.51,0-2.51-.61-2.91-2.03l1.47-.43c.2.92.64,1.29,1.43,1.29.86,0,1.4-.58,1.4-1.55,0-1.04-.49-1.66-1.77-1.66h-.7v-1.22h.64c1.2,0,1.68-.52,1.68-1.44,0-.84-.49-1.28-1.26-1.28-.64,0-1.15.4-1.27,1.26l-1.48-.44Z"/><path class="uuid-17b542c6-ac22-4db0-b746-d933312d2e41" d="M94.55,317.62c0-.78-.01-1.15-.1-1.7.44.01.89.05,1.28.08.12.01.18.06.18.12,0,.11-.04.18-.07.26-.07.14-.08.35-.08,1.21v.71h.26c1.01,0,1.33-.02,1.4-.02.12,0,.13.01.13.13v.9c0,.12-.01.13-.13.13-.07,0-.4-.02-1.4-.02h-.18c.4.9,1.1,1.86,1.85,2.53-.18.23-.34.54-.46.85-.05.13-.1.19-.14.19s-.1-.06-.19-.17c-.47-.56-.89-1.21-1.17-1.91.01,3.14.08,5.61.08,5.85,0,.12-.01.13-.13.13h-1.04c-.12,0-.13-.01-.13-.13,0-.25.06-2.66.08-5.58-.37,1.12-.97,2.17-1.66,3.09-.08.11-.14.17-.19.17-.06,0-.1-.06-.14-.2-.11-.35-.28-.74-.41-.96.91-1.01,1.69-2.28,2.24-3.87h-.44c-1.01,0-1.34.02-1.42.02-.12,0-.13-.01-.13-.13v-.9c0-.12.01-.13.13-.13.07,0,.41.02,1.42.02h.56v-.68ZM99.61,324.82c0,.34.04.44.19.52.11.05.38.08.77.08.49,0,.8-.08.97-.25.19-.17.3-.5.35-1.86.24.17.62.34.94.42q.3.1.28.42c-.1,1.42-.29,1.79-.65,2.1-.36.31-.95.44-1.95.44-.86,0-1.33-.05-1.63-.18-.31-.16-.54-.35-.54-1.14v-7.23c0-1.03-.02-1.61-.07-2.06.46.01.94.06,1.3.11.14.01.23.07.23.14,0,.1-.04.17-.07.25-.07.14-.1.41-.1,1.61v6.63Z"/><path class="uuid-17b542c6-ac22-4db0-b746-d933312d2e41" d="M109.19,321.41c0,.53.04,1.16.04,1.66s-.05.79-.18.95c-.12.17-.36.25-.68.28-.31.02-.31.01-.35-.29-.04-.35-.08-.54-.22-.74.1.01.18.02.26.02.13,0,.18-.05.18-.31v-3.84h-.48v5.7c0,1.26.02,1.87.02,1.94,0,.11-.01.12-.12.12h-.86c-.13,0-.14-.01-.14-.12,0-.08.02-.68.02-1.94v-5.7h-.44v3.83c0,.89.02,1.32.02,1.39,0,.11-.01.12-.14.12h-.72c-.11,0-.12-.01-.12-.12,0-.08.02-.48.02-1.42v-3.31c0-.95-.02-1.36-.02-1.43,0-.13.01-.14.12-.14.08,0,.35.02,1.15.02h.13v-.42c0-.72-.01-1.13-.08-1.71.46.01.71.04,1.13.08.11.01.17.07.17.12,0,.1-.05.19-.07.3-.04.17-.06.44-.06,1.2v.43h.18c.8,0,1.07-.02,1.14-.02.12,0,.13.01.13.14,0,.07-.02.54-.02,1.51v1.7ZM113.98,325.32c0,.17.02.22.08.26.06.04.18.06.42.06.29,0,.4-.05.48-.16.1-.14.12-.4.12-1.2.18.13.52.28.73.34.31.1.32.1.3.42-.05.79-.18,1.12-.4,1.33-.24.24-.59.37-1.34.37-.58,0-.96-.06-1.2-.19-.2-.11-.32-.35-.32-.79v-2.53h-.77c-.08,1.96-.83,2.97-2.51,3.57-.16.05-.24.1-.31.1-.1,0-.14-.06-.25-.25-.16-.28-.32-.48-.53-.65,1.81-.41,2.4-1.03,2.48-2.77-.88.01-1.21.02-1.27.02-.12,0-.13-.01-.13-.13v-.76c0-.12.01-.13.13-.13.07,0,.46.02,1.58.02h.74v-2.12h-.61c-.98,0-1.31.02-1.38.02-.12,0-.13-.01-.13-.13,0-.08.02-.36.02-1.01v-1.5c0-.66-.02-.94-.02-1.01,0-.13.01-.14.13-.14.07,0,.4.02,1.38.02h2.4c1,0,1.32-.02,1.4-.02.12,0,.13.01.13.14,0,.07-.02.35-.02,1.01v1.5c0,.65.02.94.02,1.01,0,.12-.01.13-.13.13-.08,0-.41-.02-1.4-.02h-.64v2.12h1.15c1.12,0,1.51-.02,1.58-.02.12,0,.13.01.13.13v.76c0,.12-.01.13-.13.13-.07,0-.47-.02-1.58-.02h-.35v2.09ZM110.76,322.05c-.16.07-.19.07-.24-.05-.16-.4-.35-.83-.56-1.16-.06-.11-.05-.13.1-.19l.59-.26c.14-.06.16-.05.24.06.23.32.42.73.59,1.12.05.12.02.16-.11.22l-.6.28ZM111.03,317.27v.6h3.18v-.6h-3.18ZM114.2,318.69h-3.18v.61h3.18v-.61ZM114.17,320.84c.06-.14.13-.32.17-.52.37.11.66.23.9.36.1.05.16.1.16.14s-.04.11-.1.14c-.07.05-.12.13-.18.23-.13.22-.26.49-.42.74-.1.13-.13.19-.22.19-.06,0-.14-.04-.29-.11-.19-.1-.41-.17-.58-.2.23-.35.41-.67.55-.98Z"/><path class="uuid-17b542c6-ac22-4db0-b746-d933312d2e41" d="M119.41,318.69c-1.07,0-1.43.02-1.5.02-.12,0-.13-.01-.13-.13v-.96c0-.13.01-.14.13-.14.07,0,.43.02,1.5.02h2.95v-.42c0-.52-.02-.83-.08-1.13.43.01.88.02,1.31.07.11.01.19.05.19.11,0,.08-.04.14-.07.24-.04.11-.06.25-.06.7v.43h3.14c1.07,0,1.43-.02,1.5-.02.12,0,.13.01.13.14v.96c0,.12-.01.13-.13.13-.07,0-.43-.02-1.5-.02h-7.38ZM127.36,323.34c0,.43.01.78.01,1.17,0,.35-.07.6-.29.79-.23.19-.56.29-1.67.3-.37,0-.38,0-.44-.29-.06-.35-.18-.7-.3-.91.37.02.68.04,1,.04s.4-.08.4-.4v-2.63h-2.43v3.57c0,1.14.02,1.7.02,1.77,0,.11-.01.12-.13.12h-1.06c-.13,0-.14-.01-.14-.12,0-.08.02-.64.02-1.77v-3.57h-2.22v2.75c0,.91.02,1.27.02,1.34,0,.12-.01.13-.13.13h-1.07c-.11,0-.12-.01-.12-.13,0-.07.02-.42.02-1.37v-2.5c0-.84-.02-1.21-.02-1.29,0-.12.01-.13.12-.13.07,0,.49.02,1.67.02h1.73v-.18c0-.5-.01-.8-.06-1.12.43.01.85.02,1.28.07.12.01.19.06.19.13s-.04.14-.07.23c-.04.11-.06.25-.06.66v.2h1.95c1.18,0,1.6-.02,1.67-.02.12,0,.13.01.13.13,0,.08-.02.52-.02,1.4v1.58Z"/><path class="uuid-17b542c6-ac22-4db0-b746-d933312d2e41" d="M132.16,318.22c-1.04,0-1.4.02-1.48.02-.12,0-.13-.01-.13-.13v-.86c0-.12.01-.13.13-.13.07,0,.43.02,1.48.02h3.06c0-.53-.02-.83-.1-1.25.44.01.88.04,1.3.08.12.01.19.07.19.12,0,.11-.04.18-.07.26-.06.13-.07.35-.07.78h3.29c1.04,0,1.4-.02,1.47-.02.11,0,.12.01.12.13v.86c0,.12-.01.13-.12.13-.07,0-.43-.02-1.47-.02h-3.29v.73h1.86c1.18,0,1.6-.02,1.67-.02.13,0,.14.01.14.14,0,.07-.02.38-.02,1.13v1.98c0,.74.02,1.06.02,1.13,0,.12-.01.13-.14.13-.07,0-.49-.02-1.67-.02h-1c1.16,1.01,2.72,1.7,4.4,2.13-.22.25-.38.52-.52.83-.1.23-.13.31-.23.31-.06,0-.14-.04-.28-.08-1.56-.56-3.17-1.43-4.28-2.69.01,1.48.08,2.66.08,2.84,0,.12-.01.13-.13.13h-1.08c-.12,0-.13-.01-.13-.13,0-.18.07-1.33.08-2.79-1.04,1.19-2.42,2.06-3.97,2.64-.13.05-.23.08-.29.08-.1,0-.14-.07-.24-.29-.14-.32-.31-.54-.5-.75,1.64-.48,3.02-1.18,4.11-2.23h-.78c-1.18,0-1.59.02-1.67.02-.12,0-.13-.01-.13-.13,0-.08.02-.38.02-1.13v-1.98c0-.74-.02-1.06-.02-1.13,0-.13.01-.14.13-.14.07,0,.49.02,1.67.02h1.63v-.73h-3.06ZM135.22,320.73v-.84h-2.19v.84h2.19ZM135.22,322.49v-.85h-2.19v.85h2.19ZM136.47,319.89v.84h2.42v-.84h-2.42ZM138.89,321.64h-2.42v.85h2.42v-.85Z"/><path class="uuid-17b542c6-ac22-4db0-b746-d933312d2e41" d="M145.22,325.08h6.98c1.16,0,1.57-.02,1.64-.02.12,0,.13.01.13.13v.96c0,.12-.01.13-.13.13-.07,0-.48-.02-1.64-.02h-6.98v.52c0,.12-.01.13-.14.13h-1.02c-.12,0-.13-.01-.13-.13,0-.07.02-.89.02-2.52v-5.18c0-1.64-.02-2.45-.02-2.52,0-.13.01-.14.13-.14.07,0,.48.02,1.61.02h6.45c1.12,0,1.5-.02,1.57-.02.13,0,.14.01.14.14v.95c0,.12-.01.13-.14.13-.07,0-.46-.02-1.57-.02h-6.9v7.47ZM147.06,318.86c.11-.11.12-.12.23-.05.79.5,1.58,1.07,2.39,1.68.32-.44.62-.94.9-1.49.17-.34.29-.68.34-.97.41.12.77.26,1.15.46.12.06.18.11.18.2,0,.08-.06.14-.14.22-.11.11-.19.28-.34.55-.36.67-.72,1.27-1.13,1.81.72.59,1.43,1.21,2.15,1.87.06.05.08.08.08.12s-.02.08-.1.16l-.66.72c-.05.06-.1.08-.13.08s-.07-.01-.11-.06c-.67-.7-1.36-1.33-2.04-1.93-.8.85-1.75,1.57-2.96,2.24-.14.07-.22.12-.29.12-.08,0-.14-.08-.26-.26-.17-.25-.38-.47-.65-.65,1.34-.66,2.38-1.37,3.23-2.25-.78-.62-1.57-1.21-2.39-1.78-.06-.04-.08-.07-.08-.1,0-.04.04-.08.1-.14l.54-.55Z"/><path class="uuid-17b542c6-ac22-4db0-b746-d933312d2e41" d="M159.15,318.01c0-.85-.02-1.22-.1-1.82.47.01.9.04,1.31.08.12.01.19.07.19.13,0,.08-.04.16-.07.24-.06.16-.07.46-.07,1.33v6.67c0,1.28.02,1.93.02,2,0,.12-.01.13-.13.13h-1.04c-.12,0-.13-.01-.13-.13,0-.08.02-.72.02-2v-.68c-.7.41-1.4.76-1.99,1.04-.19.1-.31.16-.36.2-.06.06-.12.11-.19.11-.06,0-.11-.06-.16-.16-.12-.3-.3-.8-.38-1.24.37-.07.61-.14,1.03-.3.68-.26,1.36-.56,2.05-.96v-2.6h-1.26c-1.09,0-1.45.02-1.52.02-.13,0-.14-.01-.14-.13v-.95c0-.12.01-.13.14-.13.07,0,.43.02,1.52.02h1.26v-.89ZM163.18,324.53c0,.47.02.61.16.71.13.1.3.13.79.13.62,0,1-.08,1.2-.26.22-.19.3-.76.32-1.8.29.22.58.34.89.43q.3.08.28.41c-.07,1.26-.35,1.73-.72,2-.35.26-.92.4-1.85.4-1.16,0-1.6-.07-1.93-.3-.26-.18-.4-.37-.4-1.07v-7.05c0-.8,0-1.37-.07-1.93.46.01.86.04,1.26.08.14.01.23.06.23.17s-.05.17-.08.24c-.05.12-.07.46-.07,1.42v1.76c.72-.47,1.37-.98,1.85-1.42.23-.2.42-.41.59-.67.32.29.61.56.86.86.08.1.1.14.1.23,0,.07-.08.11-.18.14-.14.05-.29.16-.58.4-.7.56-1.68,1.24-2.64,1.78v3.35Z"/><path class="uuid-17b542c6-ac22-4db0-b746-d933312d2e41" d="M173.77,324.81h1.83v1.18h-5.24v-1.18h1.93v-6.5c-.48.31-1.1.61-1.82.82l-.25-1.27c.85-.23,1.62-.61,2.29-1.08h1.26v8.04Z"/><path class="uuid-17b542c6-ac22-4db0-b746-d933312d2e41" d="M178.95,318.65c.37-1.3,1.46-1.98,2.94-1.98,1.76,0,2.91.97,2.91,2.3,0,1.08-.7,1.87-1.86,2.06v.08c1.31.26,2.05,1.09,2.05,2.3,0,1.62-1.25,2.72-3.11,2.72-1.61,0-2.66-.61-3.09-2.03l1.54-.43c.23.91.7,1.28,1.55,1.28.91,0,1.52-.59,1.52-1.54,0-1.02-.55-1.64-1.92-1.64h-.73v-1.24h.67c1.26,0,1.81-.54,1.81-1.44,0-.82-.55-1.27-1.37-1.27-.68,0-1.24.4-1.38,1.25l-1.54-.44Z"/><path class="uuid-17b542c6-ac22-4db0-b746-d933312d2e41" d="M190.25,323.37c-1.08,0-1.45.02-1.52.02-.13,0-.14-.01-.14-.13v-.84c0-.12.01-.13.14-.13.07,0,.44.02,1.52.02h2.79c-.01-.4-.02-.75-.08-1.21.43.01.86.04,1.27.08.12.01.18.08.18.14,0,.11-.06.2-.07.31-.04.14-.05.34-.05.67h2.95c1.08,0,1.45-.02,1.52-.02.12,0,.13.01.13.13v.84c0,.12-.01.13-.13.13-.07,0-.44-.02-1.52-.02h-2.06c1.08.91,2.35,1.52,4.13,2-.19.24-.37.53-.5.84-.08.22-.13.3-.24.3-.06,0-.14-.04-.28-.08-1.7-.64-2.97-1.46-4.02-2.63,0,1.68.05,2.72.05,2.99,0,.12-.01.13-.13.13h-1.03c-.13,0-.14-.01-.14-.13,0-.26.05-1.26.06-2.94-.92,1.1-2.29,1.99-3.86,2.6-.13.06-.23.1-.29.1-.1,0-.13-.08-.23-.29-.13-.29-.32-.6-.5-.77,1.64-.5,2.9-1.16,3.96-2.12h-1.9ZM195.8,316.96c.12,0,.19-.01.25-.04.06-.02.12-.05.17-.05.1,0,.2.05.47.31.3.31.37.42.37.5,0,.1-.04.14-.14.2-.12.06-.2.14-.43.35-.56.54-1.1,1-1.64,1.39,1.24.54,2.66.79,4.43.98-.2.28-.32.48-.43.82-.12.36-.14.37-.5.32-1.85-.24-3.35-.71-4.61-1.43-1.2.65-2.57,1.08-4.51,1.45-.37.05-.38.05-.49-.32-.08-.3-.2-.53-.34-.72,1.74-.28,3.13-.59,4.31-1.1-.47-.37-.89-.78-1.3-1.25-.54.41-1.14.78-1.79,1.1-.13.06-.22.1-.28.1-.08,0-.13-.07-.24-.26-.16-.26-.32-.49-.52-.66,1.49-.62,2.6-1.4,3.38-2.36.11-.14.23-.35.32-.54.44.08.79.17,1.16.26.11.04.17.1.17.17,0,.08-.06.13-.17.2-.08.05-.16.12-.31.34-.06.08-.12.16-.19.23h2.85ZM192.37,317.92c.44.46.9.83,1.39,1.14.5-.31.96-.68,1.4-1.14h-2.79Z"/><path class="uuid-17b542c6-ac22-4db0-b746-d933312d2e41" d="M203.04,318.22c-1.04,0-1.4.02-1.48.02-.12,0-.13-.01-.13-.13v-.86c0-.12.01-.13.13-.13.07,0,.43.02,1.48.02h3.06c0-.53-.02-.83-.1-1.25.44.01.88.04,1.3.08.12.01.19.07.19.12,0,.11-.04.18-.07.26-.06.13-.07.35-.07.78h3.29c1.04,0,1.4-.02,1.48-.02.11,0,.12.01.12.13v.86c0,.12-.01.13-.12.13-.07,0-.43-.02-1.48-.02h-3.29v.73h1.86c1.18,0,1.6-.02,1.67-.02.13,0,.14.01.14.14,0,.07-.02.38-.02,1.13v1.98c0,.74.02,1.06.02,1.13,0,.12-.01.13-.14.13-.07,0-.49-.02-1.67-.02h-1c1.16,1.01,2.72,1.7,4.4,2.13-.22.25-.38.52-.52.83-.1.23-.13.31-.23.31-.06,0-.14-.04-.28-.08-1.56-.56-3.17-1.43-4.28-2.69.01,1.48.08,2.66.08,2.84,0,.12-.01.13-.13.13h-1.08c-.12,0-.13-.01-.13-.13,0-.18.07-1.33.08-2.79-1.04,1.19-2.42,2.06-3.97,2.64-.13.05-.23.08-.29.08-.1,0-.14-.07-.24-.29-.14-.32-.31-.54-.5-.75,1.64-.48,3.02-1.18,4.11-2.23h-.78c-1.18,0-1.6.02-1.67.02-.12,0-.13-.01-.13-.13,0-.08.02-.38.02-1.13v-1.98c0-.74-.02-1.06-.02-1.13,0-.13.01-.14.13-.14.07,0,.49.02,1.67.02h1.63v-.73h-3.06ZM206.1,320.73v-.84h-2.2v.84h2.2ZM206.1,322.49v-.85h-2.2v.85h2.2ZM207.34,319.89v.84h2.42v-.84h-2.42ZM209.76,321.64h-2.42v.85h2.42v-.85Z"/><path class="uuid-17b542c6-ac22-4db0-b746-d933312d2e41" d="M219.4,324.81h1.83v1.18h-5.24v-1.18h1.93v-6.5c-.48.31-1.1.61-1.82.82l-.25-1.27c.85-.23,1.62-.61,2.29-1.08h1.26v8.04Z"/><path class="uuid-17b542c6-ac22-4db0-b746-d933312d2e41" d="M228.52,318.71c-.17-.66-.58-.89-1.06-.89-1.15,0-1.74,1.14-1.79,3.23.43-.73,1.16-1.09,2.01-1.09,1.5,0,2.53,1.12,2.53,2.97,0,1.98-1.21,3.21-2.96,3.21-1.86,0-3.11-1.29-3.11-4.39,0-3.62,1.3-5.09,3.36-5.09,1.28,0,2.09.53,2.52,1.5l-1.51.54ZM227.25,324.99c.9,0,1.42-.68,1.42-2,0-1.22-.48-1.86-1.34-1.86-.65,0-1.24.41-1.63,1.16,0,1.92.64,2.7,1.56,2.7Z"/><path class="uuid-17b542c6-ac22-4db0-b746-d933312d2e41" d="M235.07,318.08c-1.07,0-1.44.02-1.51.02-.12,0-.13-.01-.13-.14v-1.01c0-.12.01-.13.13-.13.07,0,.44.02,1.51.02h7.3c1.08,0,1.44-.02,1.51-.02.12,0,.13.01.13.13v1.01c0,.13-.01.14-.13.14-.07,0-.43-.02-1.51-.02h-2.76v4.85c0,1.27.04,1.85.04,2.34,0,.56-.12.9-.46,1.13-.3.2-1.02.3-2.22.29q-.37,0-.44-.38c-.08-.41-.2-.76-.35-1.01.54.06,1.03.11,1.54.1.4-.01.53-.11.53-.47v-6.84h-3.18Z"/><path class="uuid-17b542c6-ac22-4db0-b746-d933312d2e41" d="M247.01,326.79c-.12,0-.13-.01-.13-.13,0-.08.02-.85.02-4.44v-2.35c0-2.36-.02-3.14-.02-3.23,0-.12.01-.13.13-.13.08,0,.5.02,1.67.02h4.44c1.16,0,1.58-.02,1.67-.02.12,0,.13.01.13.13,0,.07-.02.85-.02,2.83v2.72c0,3.59.02,4.34.02,4.41,0,.12-.01.13-.13.13h-1.07c-.12,0-.13-.01-.13-.13v-.65h-5.37v.7c0,.12-.01.13-.14.13h-1.06ZM248.21,319.27h5.37v-1.57h-5.37v1.57ZM253.58,322v-1.59h-5.37v1.59h5.37ZM253.58,324.8v-1.66h-5.37v1.66h5.37Z"/><path class="uuid-17b542c6-ac22-4db0-b746-d933312d2e41" d="M262.63,324.81h1.83v1.18h-5.24v-1.18h1.93v-6.5c-.48.31-1.1.61-1.82.82l-.25-1.27c.85-.23,1.62-.61,2.29-1.08h1.26v8.04Z"/><path class="uuid-17b542c6-ac22-4db0-b746-d933312d2e41" d="M270.66,322.94h-3.5v-1.17h3.5v1.17Z"/><path class="uuid-17b542c6-ac22-4db0-b746-d933312d2e41" d="M276.87,324.81h1.83v1.18h-5.24v-1.18h1.93v-6.5c-.48.31-1.1.61-1.82.82l-.25-1.27c.85-.23,1.62-.61,2.29-1.08h1.26v8.04Z"/><path class="uuid-17b542c6-ac22-4db0-b746-d933312d2e41" d="M27.59,340.02c.16-.06.19-.04.26.05.29.38.53.77.7,1.13.06.11.06.12-.11.18l-.84.28h4.79c.24-.41.44-.76.61-1.15.06-.16.13-.35.19-.6.41.1.8.22,1.14.35.11.05.16.08.16.16,0,.1-.04.14-.11.2-.08.06-.18.16-.25.29-.17.28-.3.52-.46.76h.24c1.1,0,1.5-.02,1.58-.02.12,0,.13.01.13.13,0,.07-.02.3-.02.64v.53c0,1.06.02,1.25.02,1.32,0,.12-.01.13-.13.13h-.96c-.12,0-.13-.01-.13-.13v-1.56h-7.71v1.55c0,.13-.01.14-.13.14h-.96c-.12,0-.13-.01-.13-.14,0-.07.02-.26.02-1.32v-.43c0-.42-.02-.63-.02-.72,0-.12.01-.13.13-.13.08,0,.48.02,1.58.02h.28s-.04-.04-.06-.1c-.16-.38-.38-.78-.61-1.1-.07-.11-.06-.13.08-.18l.72-.25ZM31.87,343.41c1.08,0,1.46-.02,1.55-.02.11,0,.12.01.12.14,0,.06-.02.26-.02.82v1.06c0,.55.02.76.02.83,0,.12-.01.13-.12.13-.08,0-.47-.02-1.55-.02h-.91c-.11.3-.23.56-.34.8h2.28c1.17,0,1.59-.01,1.68-.01.12,0,.12.01.12.13,0,.07-.01.36-.01.92v.77c0,1.42.01,1.68.01,1.75,0,.11,0,.12-.12.12h-1.01c-.12,0-.13-.01-.13-.12v-.36h-5.78v.41c0,.12-.01.13-.12.13h-1.02c-.12,0-.13-.01-.13-.13,0-.07.02-.34.02-1.78v-.65c0-.71-.02-1-.02-1.07,0-.12.01-.13.13-.13.08,0,.5.01,1.68.01h1.16c.12-.25.24-.53.34-.8h-.49c-1.09,0-1.48.02-1.55.02-.11,0-.12-.01-.12-.13,0-.08.02-.28.02-.83v-1.06c0-.55-.02-.75-.02-.82,0-.13.01-.14.12-.14.07,0,.46.02,1.55.02h2.66ZM27.66,349.3h5.78v-1.1h-5.78v1.1ZM28.77,345.39h3.56v-1.04h-3.56v1.04ZM30.46,339.88c.14-.05.18-.02.24.08.2.32.43.78.6,1.2.05.1.04.12-.13.17l-.8.24c-.18.05-.19.04-.24-.1-.17-.4-.35-.8-.56-1.17-.07-.12-.04-.13.11-.18l.79-.24Z"/><path class="uuid-17b542c6-ac22-4db0-b746-d933312d2e41" d="M39.59,347.96c-1.08,0-1.44.02-1.51.02-.13,0-.14-.01-.14-.13v-.71c0-.13.01-.14.14-.14.07,0,.43.02,1.51.02h2.96v-.65h-1.69c-1.16,0-1.58.02-1.66.02-.12,0-.12-.01-.12-.13v-.68c0-.13,0-.14.12-.14.07,0,.49.02,1.66.02h1.69v-.64h-2.25c-1.15,0-1.54.02-1.61.02-.13,0-.14-.01-.14-.12v-.71c0-.12.01-.13.14-.13.07,0,.46.02,1.61.02h.73c-.13-.29-.25-.53-.38-.75-.06-.11-.07-.16.08-.2l.78-.22h-1.92c-1.08,0-1.44.02-1.51.02-.13,0-.14-.01-.14-.13v-.74c0-.13.01-.14.14-.14.07,0,.43.02,1.51.02h.08c-.19-.38-.41-.68-.68-1.03-.07-.08-.05-.13.1-.2l.7-.32c.12-.06.16-.05.23.05.29.35.59.76.8,1.16.06.11.06.12-.1.2l-.29.14h1.12v-.79c0-.42,0-.71-.07-1.04.37.01.84.04,1.16.07.1.01.14.05.14.11,0,.07-.02.13-.05.2-.04.08-.07.26-.07.66v.79h.97v-.78c0-.43,0-.72-.07-1.06.36.01.83.04,1.15.08.11.01.16.05.16.11s-.02.13-.05.19c-.04.08-.07.26-.07.66v.79h.74c.22-.34.38-.64.55-.98.08-.18.16-.36.2-.65.42.08.84.2,1.16.31.11.04.16.1.16.16,0,.1-.05.14-.12.2-.08.07-.14.14-.2.23-.16.25-.32.49-.49.73h.17c1.08,0,1.44-.02,1.51-.02.12,0,.13.01.13.14v.74c0,.12-.01.13-.13.13-.07,0-.43-.02-1.51-.02h-2.1c.31.06.59.12.95.22.1.02.16.07.16.14,0,.08-.06.14-.13.18-.06.04-.12.17-.17.25l-.22.38h.78c1.15,0,1.54-.02,1.61-.02.12,0,.13.01.13.13v.71c0,.11-.01.12-.13.12-.07,0-.46-.02-1.61-.02h-2.42v.64h1.91c1.18,0,1.58-.02,1.66-.02.12,0,.13.01.13.14v.68c0,.12-.01.13-.13.13-.07,0-.48-.02-1.66-.02h-1.91v.65h3.15c1.08,0,1.44-.02,1.51-.02.12,0,.13.01.13.14v.71c0,.12-.01.13-.13.13-.07,0-.43-.02-1.51-.02h-2.13c1.01.71,2.27,1.18,3.99,1.56-.16.19-.32.44-.47.77-.1.23-.14.31-.26.31-.06,0-.14-.02-.28-.06-1.62-.47-3.05-1.26-4.03-2.15,0,1.43.06,2.17.06,2.38,0,.12-.01.13-.13.13h-1.02c-.11,0-.12-.01-.12-.13,0-.2.04-.9.05-2.33-1.01.96-2.25,1.63-3.85,2.15-.13.05-.22.07-.28.07-.11,0-.16-.08-.26-.31-.16-.31-.32-.56-.48-.72,1.6-.4,2.82-.89,3.83-1.67h-1.94ZM44.22,343.91c.11-.2.2-.41.32-.7.06-.13.08-.25.13-.48h-3.06s.06.05.1.1c.18.3.37.66.54,1.08h1.97Z"/><path class="uuid-17b542c6-ac22-4db0-b746-d933312d2e41" d="M54.35,345.87c0,2.99.02,3.53.02,3.6,0,.12-.01.13-.13.13h-.86c-.11,0-.12-.01-.12-.13v-.53h-1.1v.95c0,.12-.01.13-.12.13h-.89c-.12,0-.13-.01-.13-.13,0-.07.02-.68.02-3.69v-2.62c0-2.17-.02-2.81-.02-2.88,0-.12.01-.13.13-.13.08,0,.31.02,1.03.02h1.03c.72,0,.95-.02,1.03-.02.12,0,.13.01.13.13,0,.07-.02.66-.02,2.42v2.75ZM52.16,341.68v2.48h1.1v-2.48h-1.1ZM53.26,347.85v-2.59h-1.1v2.59h1.1ZM56.45,344.66c-1.14,0-1.54.02-1.61.02-.13,0-.14-.01-.14-.14v-.83c0-.12.01-.13.14-.13.07,0,.47.02,1.61.02h.86v-1.24h-.56c-1.07,0-1.44.02-1.51.02-.13,0-.14-.01-.14-.13v-.84c0-.13.01-.14.14-.14.07,0,.44.02,1.51.02h.56c-.01-.62-.02-.94-.08-1.36.47.01.79.04,1.24.08.12.01.19.06.19.12,0,.1-.04.16-.07.25-.06.13-.06.36-.06.9h.8c1.09,0,1.45-.02,1.52-.02.12,0,.13.01.13.14v.84c0,.12-.01.13-.13.13-.07,0-.43-.02-1.52-.02h-.8v1.24h1.27c1.14,0,1.54-.02,1.61-.02.13,0,.14.01.14.13v.83c0,.13-.01.14-.14.14-.07,0-.47-.02-1.61-.02h-3.35ZM56.5,346.91c-1.14,0-1.52.02-1.6.02-.13,0-.14-.01-.14-.13v-.84c0-.12.01-.13.14-.13.07,0,.46.02,1.6.02h2.36c-.01-.49-.05-.78-.08-1.06.46.02.89.06,1.21.11.13.02.2.07.2.13,0,.08-.02.13-.06.2-.05.1-.06.24-.06.61.82,0,1.14-.02,1.2-.02.13,0,.14.01.14.13v.84c0,.12-.01.13-.14.13-.06,0-.38-.01-1.2-.02v1.19c0,.55.01,1.07.01,1.48,0,.44-.08.78-.42,1.02-.26.18-.66.26-1.56.26-.36,0-.37,0-.46-.36-.08-.36-.2-.64-.36-.88.42.04.78.05,1.18.05.29,0,.4-.1.4-.37v-2.39h-2.36ZM56.3,347.25c.12-.07.16-.07.25.01.41.42.77.88,1.1,1.38.07.11.06.14-.06.23l-.73.5c-.07.05-.11.07-.14.07s-.06-.02-.1-.08c-.36-.61-.71-1.07-1.06-1.48-.08-.1-.08-.13.06-.22l.67-.42Z"/><path class="uuid-17b542c6-ac22-4db0-b746-d933312d2e41" d="M66.99,340.29c.78,0,1.14-.02,1.21-.02.11,0,.12.01.12.14,0,.07-.02.42-.02,1.14v1.49c0,.73.02,1.07.02,1.14,0,.13-.01.14-.12.14-.07,0-.43-.02-1.21-.02h-1.94v3.89c0,1.66.02,2.47.02,2.55,0,.12-.01.13-.13.13h-1.02c-.12,0-.13-.01-.13-.13,0-.08.02-.9.02-2.55v-5.19c0-1.67-.02-2.51-.02-2.58,0-.13.01-.14.13-.14.08,0,.54.02,1.42.02h1.66ZM65.05,341.19v.71h2.07v-.71h-2.07ZM67.12,342.71h-2.07v.72h2.07v-.72ZM66.67,350.04c-.12,0-.13-.01-.13-.14,0-.07.02-.4.02-2.17v-1.06c0-1.06-.02-1.42-.02-1.5,0-.12.01-.13.13-.13.08,0,.37.02,1.28.02h1.62c.91,0,1.2-.02,1.28-.02.12,0,.13.01.13.13,0,.07-.02.43-.02,1.29v1.19c0,1.74.02,2.06.02,2.12,0,.12-.01.13-.13.13h-.86c-.12,0-.13-.01-.13-.13v-.37h-2.19v.49c0,.13-.01.14-.14.14h-.85ZM67.66,346.79h2.19v-.8h-2.19v.8ZM69.86,348.5v-.84h-2.19v.84h2.19ZM73.8,346.92c0,.84.05,1.8.05,2.39s-.08.86-.35,1.1c-.25.23-.59.32-1.71.32-.36,0-.36.01-.43-.37-.07-.34-.17-.64-.29-.88.37.05.76.06,1.01.06.4,0,.49-.11.49-.47v-4.79h-1.97c-.94,0-1.25.02-1.32.02-.12,0-.13-.01-.13-.14,0-.07.02-.35.02-1.05v-1.66c0-.7-.02-.98-.02-1.06,0-.13.01-.14.13-.14.07,0,.38.02,1.32.02h1.76c.94,0,1.26-.02,1.33-.02.12,0,.13.01.13.14,0,.07-.02.56-.02,1.58v4.93ZM70.35,341.19v.71h2.22v-.71h-2.22ZM72.57,343.43v-.72h-2.22v.72h2.22Z"/><path class="uuid-17b542c6-ac22-4db0-b746-d933312d2e41" d="M84.04,342.88c0,.59-.46,1.03-1.03,1.03s-1.02-.44-1.02-1.03c0-.55.43-1.02,1.02-1.02s1.03.47,1.03,1.02ZM84.04,347.96c0,.59-.46,1.03-1.03,1.03s-1.02-.44-1.02-1.03c0-.55.43-1.02,1.02-1.02s1.03.47,1.03,1.02Z"/><path class="uuid-17b542c6-ac22-4db0-b746-d933312d2e41" d="M93.46,348.12c.17.61.46.88.96.88,1.02,0,1.61-.86,1.67-3.26-.4.74-1.03,1.09-1.87,1.09-1.39,0-2.43-1.14-2.43-2.95,0-1.98,1.08-3.2,2.76-3.2,1.81,0,2.97,1.31,2.97,4.39,0,3.66-1.15,5.08-3.12,5.08-1.25,0-2.04-.49-2.41-1.47l1.48-.55ZM94.6,341.83c-.89,0-1.3.77-1.3,2.02,0,1.16.49,1.83,1.26,1.83.66,0,1.13-.41,1.45-1.15-.01-1.79-.43-2.7-1.42-2.7Z"/><path class="uuid-17b542c6-ac22-4db0-b746-d933312d2e41" d="M101.61,345.05h-1.72v-1.66h1.72v1.66ZM101.61,349.98h-1.72v-1.66h1.72v1.66Z"/><path class="uuid-17b542c6-ac22-4db0-b746-d933312d2e41" d="M109.72,345.38c0,3.39-1.03,4.77-2.9,4.77s-2.87-1.35-2.87-4.75,1.04-4.73,2.89-4.73,2.88,1.32,2.88,4.7ZM105.49,345.39c0,2.7.37,3.57,1.32,3.57s1.35-.89,1.35-3.57-.37-3.53-1.33-3.53-1.34.82-1.34,3.53Z"/><path class="uuid-17b542c6-ac22-4db0-b746-d933312d2e41" d="M117.68,345.38c0,3.39-1.03,4.77-2.9,4.77s-2.87-1.35-2.87-4.75,1.04-4.73,2.89-4.73,2.88,1.32,2.88,4.7ZM113.46,345.39c0,2.7.37,3.57,1.32,3.57s1.36-.89,1.36-3.57-.37-3.53-1.33-3.53-1.34.82-1.34,3.53Z"/><path class="uuid-17b542c6-ac22-4db0-b746-d933312d2e41" d="M127.78,346.94h-3.5v-1.17h3.5v1.17Z"/><path class="uuid-17b542c6-ac22-4db0-b746-d933312d2e41" d="M138.14,348.82h1.71v1.16h-4.94v-1.16h1.8v-6.52c-.46.31-1.03.6-1.69.82l-.24-1.26c.79-.23,1.5-.61,2.13-1.08h1.22v8.05Z"/><path class="uuid-17b542c6-ac22-4db0-b746-d933312d2e41" d="M147.83,347.61c0,1.52-1.16,2.54-2.95,2.54s-2.96-.95-2.96-2.49c0-1.06.55-1.68,1.77-2.28-1.14-.59-1.56-1.32-1.56-2.34,0-1.32,1.09-2.36,2.73-2.36s2.76.96,2.76,2.32c0,.98-.53,1.64-1.61,2.09,1.32.62,1.81,1.34,1.81,2.53ZM144.61,345.83c-.85.47-1.26.96-1.26,1.73,0,.89.59,1.49,1.52,1.49s1.54-.53,1.54-1.39c0-.72-.35-1.13-1.45-1.66l-.35-.17ZM145.14,344.64c.8-.42,1.08-.89,1.08-1.59,0-.78-.58-1.27-1.34-1.27s-1.32.47-1.32,1.25c0,.62.3,1.02,1.25,1.46l.34.16Z"/><path class="uuid-17b542c6-ac22-4db0-b746-d933312d2e41" d="M151.76,345.05h-1.72v-1.66h1.72v1.66ZM151.76,349.98h-1.72v-1.66h1.72v1.66Z"/><path class="uuid-17b542c6-ac22-4db0-b746-d933312d2e41" d="M159.87,345.38c0,3.39-1.03,4.77-2.9,4.77s-2.87-1.35-2.87-4.75,1.04-4.73,2.89-4.73,2.88,1.32,2.88,4.7ZM155.65,345.39c0,2.7.37,3.57,1.32,3.57s1.35-.89,1.35-3.57-.37-3.53-1.33-3.53-1.34.82-1.34,3.53Z"/><path class="uuid-17b542c6-ac22-4db0-b746-d933312d2e41" d="M167.83,345.38c0,3.39-1.03,4.77-2.9,4.77s-2.87-1.35-2.87-4.75,1.04-4.73,2.89-4.73,2.88,1.32,2.88,4.7ZM163.61,345.39c0,2.7.37,3.57,1.32,3.57s1.36-.89,1.36-3.57-.37-3.53-1.33-3.53-1.34.82-1.34,3.53Z"/><path class="uuid-17b542c6-ac22-4db0-b746-d933312d2e41" d="M27.88,365.29c-1.16,0-1.56.02-1.63.02-.13,0-.14-.01-.14-.13v-.78c0-.12.01-.13.14-.13.07,0,.47.02,1.63.02h5.37c1.18,0,1.57-.02,1.64-.02.12,0,.13.01.13.13v.78c0,.12-.01.13-.13.13-.07,0-.47-.02-1.64-.02h-2.17v.48h2.94c1.1,0,1.49-.02,1.57-.02.12,0,.13.01.13.13,0,.07-.02.29-.02.6v.62c0,.96.02,1.15.02,1.22,0,.12-.01.13-.13.13h-.94c-.12,0-.13-.01-.13-.13v-1.64h-3.44v1.02c0,.79.02,1.13.02,1.2,0,.11-.01.12-.13.12h-.98c-.12,0-.13-.01-.13-.12,0-.07.02-.43.02-1.2v-1.02h-3.32v1.64c0,.12-.01.13-.13.13h-.94c-.11,0-.12-.01-.12-.13,0-.08.01-.26.01-1.22v-.53c0-.41-.01-.62-.01-.7,0-.12.01-.13.12-.13.08,0,.47.02,1.57.02h2.82v-.48h-2ZM32.56,369.28c1.21,0,1.8-.02,1.88-.02.12,0,.13.01.13.14,0,.07-.02.31-.02,1.09v1.37c0,.7.02,1.02.02,1.09,0,.12-.01.13-.13.13-.08,0-.67-.02-1.88-.02h-1.52v.18c0,.32.07.37.23.42.31.06.82.07,1.6.07,1.04,0,1.52-.06,1.76-.25.19-.16.26-.29.3-1.21.22.12.54.26.85.35.31.08.31.1.29.42-.1.78-.31,1.15-.68,1.39-.38.24-1.06.37-2.5.37-1.16,0-1.98-.05-2.4-.19-.37-.13-.61-.38-.61-1.1v-.44h-2.21v.49c0,.12-.01.13-.13.13h-.95c-.11,0-.12-.01-.12-.13,0-.08.02-.37.02-1.1v-1.93c0-.72-.02-1.04-.02-1.12,0-.13.01-.14.12-.14.08,0,.66.02,1.8.02h4.17ZM28.5,367.1c.48,0,.6-.01.67-.01.12,0,.13.01.13.11v.48c0,.07-.01.08-.13.08-.07,0-.19-.01-.67-.01h-.58c-.48,0-.6.01-.67.01-.12,0-.13-.01-.13-.1v-.48c0-.08.01-.1.13-.1.07,0,.19.01.67.01h.58ZM28.5,368.15c.48,0,.6-.01.67-.01.12,0,.13.01.13.11v.46c0,.1-.01.11-.13.11-.07,0-.19-.01-.67-.01h-.58c-.48,0-.6.01-.67.01-.12,0-.13-.01-.13-.11v-.47c0-.08.01-.1.13-.1.07,0,.19.01.67.01h.58ZM29.87,370.74v-.6h-2.21v.6h2.21ZM29.87,372.2v-.62h-2.21v.62h2.21ZM31.03,370.14v.6h2.33v-.6h-2.33ZM33.36,371.57h-2.33v.62h2.33v-.62ZM33.1,367.07c.52,0,.64-.01.71-.01.12,0,.13.01.13.11v.47c0,.1-.01.11-.13.11-.07,0-.19-.02-.71-.02h-.59c-.52,0-.64.02-.71.02-.12,0-.13-.01-.13-.12v-.47c0-.08.01-.1.13-.1.07,0,.19.01.71.01h.59ZM33.1,368.13c.52,0,.64-.01.71-.01.12,0,.13.01.13.11v.47c0,.08-.01.1-.13.1-.07,0-.19-.01-.71-.01h-.59c-.52,0-.64.01-.71.01-.12,0-.13-.01-.13-.1v-.48c0-.08.01-.1.13-.1.07,0,.19.01.71.01h.59Z"/><path class="uuid-17b542c6-ac22-4db0-b746-d933312d2e41" d="M40.98,366.03c.91,0,1.21-.02,1.28-.02.12,0,.13.01.13.13v.85c0,.13-.01.14-.13.14-.07,0-.37-.02-1.28-.02h-1.64c-.91,0-1.21.02-1.28.02-.11,0-.12-.01-.12-.14v-.85c0-.12.01-.13.12-.13.07,0,.37.02,1.28.02h1.64ZM42.03,372.84c0,1.39.02,1.66.02,1.73,0,.12-.01.13-.13.13h-.88c-.12,0-.13-.01-.13-.13v-.32h-1.33v.55c0,.11-.01.12-.13.12h-.88c-.13,0-.14-.01-.14-.12,0-.08.02-.36.02-1.81v-.8c0-.75-.02-1.04-.02-1.13,0-.12.01-.13.14-.13.07,0,.32.02,1.09.02h1.15c.78,0,1.02-.02,1.1-.02.12,0,.13.01.13.13,0,.07-.02.36-.02.92v.86ZM40.85,364.39c.77,0,1.01-.02,1.08-.02.13,0,.14.01.14.13v.79c0,.12-.01.13-.14.13-.07,0-.31-.02-1.08-.02h-1.15c-.78,0-1.02.02-1.09.02-.12,0-.13-.01-.13-.13v-.79c0-.12.01-.13.13-.13.07,0,.31.02,1.09.02h1.15ZM40.75,367.72c.73,0,.94-.02,1.01-.02.13,0,.14.01.14.13v.78c0,.12-.01.13-.14.13-.07,0-.28-.02-1.01-.02h-1.02c-.73,0-.95.02-1.02.02-.12,0-.13-.01-.13-.13v-.78c0-.12.01-.13.13-.13.07,0,.29.02,1.02.02h1.02ZM40.75,369.33c.73,0,.94-.02,1.01-.02.13,0,.14.01.14.13v.77c0,.12-.01.13-.14.13-.07,0-.28-.02-1.01-.02h-1.02c-.73,0-.95.02-1.02.02-.12,0-.13-.01-.13-.13v-.77c0-.12.01-.13.13-.13.07,0,.29.02,1.02.02h1.02ZM39.58,371.94v1.32h1.33v-1.32h-1.33ZM44.11,368.72c-1.12,0-1.49.02-1.56.02-.12,0-.13-.01-.13-.13v-.91c0-.11.01-.12.13-.12.07,0,.44.02,1.56.02h.78v-1.59c-.54.1-1.09.18-1.66.25-.29.04-.29.02-.38-.26-.11-.36-.26-.64-.42-.82,1.73-.12,3.33-.47,4.55-.91.24-.08.43-.18.61-.3.26.28.54.61.72.86.06.08.08.13.08.2,0,.08-.07.13-.24.13-.12,0-.31.05-.47.1-.48.17-1,.32-1.54.46v1.88h.98c1.12,0,1.5-.02,1.57-.02.12,0,.13.01.13.12v.91c0,.12-.01.13-.13.13-.07,0-.46-.02-1.57-.02h-.98v1.62h.5c1.01,0,1.37-.02,1.44-.02.12,0,.13.01.13.13,0,.07-.02.41-.02,1.17v1.08c0,1.64.02,1.96.02,2.03,0,.11-.01.12-.13.12h-.98c-.12,0-.13-.01-.13-.12v-.43h-2.85v.49c0,.11-.01.12-.13.12h-.98c-.12,0-.13-.01-.13-.12,0-.08.02-.4.02-2.05v-.94c0-.95-.02-1.28-.02-1.35,0-.12.01-.13.13-.13.08,0,.43.02,1.44.02h.44v-1.62h-.78ZM44.13,373.23h2.85v-1.81h-2.85v1.81Z"/><path class="uuid-17b542c6-ac22-4db0-b746-d933312d2e41" d="M52.65,368.05c-1.08,0-1.45.02-1.52.02-.13,0-.14-.01-.14-.14v-.74c0-.12.01-.13.14-.13.07,0,.44.02,1.52.02h.62c-.1-.29-.22-.56-.34-.78-.07-.12-.06-.17.13-.24l.64-.23c.16-.06.18-.06.24.05.2.36.41.78.55,1.2h1.04v-1.49c-1.04.1-1.96.14-2.96.19q-.32.01-.47-.3c-.12-.28-.26-.52-.42-.68,1.67-.04,2.9-.11,4.23-.25.89-.1,1.7-.22,2.41-.36.46-.1.7-.17,1.01-.28.35.19.71.44.96.66.08.08.12.14.12.2,0,.1-.08.14-.23.14-.13,0-.32.04-.64.11-.77.18-1.75.32-2.83.44v1.61h1.14c.19-.38.37-.78.5-1.15.07-.2.1-.34.12-.54.44.08.74.16,1.1.25.1.02.16.08.16.16,0,.08-.05.13-.12.18-.07.05-.13.14-.18.25-.13.29-.25.55-.41.85h.7c1.09,0,1.46-.02,1.54-.02.12,0,.13.01.13.13v.74c0,.13-.01.14-.13.14-.07,0-.44-.02-1.54-.02h-2.03c1.15.78,2.39,1.19,4.05,1.61-.18.22-.34.47-.46.72-.12.24-.16.32-.25.32-.06,0-.14-.02-.28-.07-.28-.08-.54-.18-.8-.28,0,.19-.01.53-.01,1.1v1.18c0,1.71.02,2.04.02,2.11,0,.12-.01.13-.13.13h-.96c-.13,0-.14-.01-.14-.13v-.37h-5.09v.4c0,.12-.01.13-.13.13h-.96c-.12,0-.13-.01-.13-.13,0-.07.02-.4.02-2.12v-1.02c0-.71-.01-1.08-.02-1.27-.25.1-.52.19-.79.28-.13.04-.2.06-.26.06-.11,0-.14-.07-.26-.3-.13-.26-.29-.48-.47-.66,1.61-.38,2.88-.86,3.92-1.68h-1.93ZM59.27,370.07c-1.02-.44-1.88-.97-2.57-1.64.01.53.05,1.04.05,1.22,0,.12-.01.13-.13.13h-.98c-.11,0-.12-.01-.12-.13,0-.18.04-.71.05-1.22-.67.68-1.49,1.21-2.42,1.64h6.13ZM53.67,371.78h1.88v-.8h-1.88v.8ZM55.56,373.48v-.84h-1.88v.84h1.88ZM56.72,370.97v.8h2.04v-.8h-2.04ZM58.76,373.48v-.84h-2.04v.84h2.04Z"/><path class="uuid-17b542c6-ac22-4db0-b746-d933312d2e41" d="M65.46,369.74c-1.07,0-1.43.02-1.5.02-.12,0-.12-.01-.12-.13v-.93c0-.12,0-.13.12-.13.07,0,.43.02,1.5.02h7.46c1.07,0,1.43-.02,1.5-.02.12,0,.12.01.12.13v.93c0,.12,0,.13-.12.13-.07,0-.43-.02-1.5-.02h-4.76c-.12.3-.25.6-.38.89h3.54c1.09,0,1.46-.02,1.54-.02.13,0,.16.04.16.16l-.14,1.21c-.1.77-.23,1.33-.42,1.85-.28.74-.85.97-1.7.97-.41,0-.68,0-1.04-.02q-.37-.02-.48-.41c-.08-.31-.22-.65-.35-.86.66.07,1.13.11,1.68.11.35,0,.59-.08.71-.43.12-.36.22-.83.3-1.44h-4.37c-.13.22-.26.43-.4.62-.06.1-.1.12-.26.08l-.96-.2c-.19-.04-.23-.08-.14-.2.52-.67,1-1.51,1.33-2.29h-1.29ZM70.96,364.34c1.15,0,1.55-.02,1.63-.02.12,0,.13.01.13.14,0,.07-.02.34-.02.97v1.27c0,.65.02.92.02,1,0,.11-.01.12-.13.12-.08,0-.48-.02-1.63-.02h-3.6c-1.15,0-1.56.02-1.63.02-.12,0-.13-.01-.13-.12,0-.08.02-.35.02-1v-1.27c0-.64-.02-.9-.02-.97,0-.13.01-.14.13-.14.07,0,.48.02,1.63.02h3.6ZM71.48,365.41h-4.62v1.33h4.62v-1.33Z"/><path class="uuid-17b542c6-ac22-4db0-b746-d933312d2e41" d="M84.4,366.88c0,.59-.46,1.03-1.03,1.03s-1.02-.44-1.02-1.03c0-.55.43-1.02,1.02-1.02s1.03.47,1.03,1.02ZM84.4,371.96c0,.59-.46,1.03-1.03,1.03s-1.02-.44-1.02-1.03c0-.55.43-1.02,1.02-1.02s1.03.47,1.03,1.02Z"/><path class="uuid-17b542c6-ac22-4db0-b746-d933312d2e41" d="M97.93,369.38c0,3.39-1.03,4.77-2.9,4.77s-2.87-1.35-2.87-4.75,1.04-4.73,2.89-4.73,2.88,1.32,2.88,4.7ZM93.7,369.39c0,2.7.37,3.57,1.32,3.57s1.35-.89,1.35-3.57-.37-3.53-1.33-3.53-1.34.82-1.34,3.53Z"/><path class="uuid-17b542c6-ac22-4db0-b746-d933312d2e41" d="M103.33,372.82h1.72v1.16h-4.94v-1.16h1.8v-6.52c-.46.31-1.03.6-1.69.82l-.24-1.26c.79-.23,1.5-.61,2.13-1.08h1.22v8.05Z"/><path class="uuid-17b542c6-ac22-4db0-b746-d933312d2e41" d="M110.72,372.82h1.71v1.16h-4.94v-1.16h1.8v-6.52c-.46.31-1.03.6-1.69.82l-.24-1.26c.79-.23,1.5-.61,2.13-1.08h1.22v8.05Z"/><path class="uuid-17b542c6-ac22-4db0-b746-d933312d2e41" d="M117.55,370.94h-3.5v-1.17h3.5v1.17Z"/><path class="uuid-17b542c6-ac22-4db0-b746-d933312d2e41" d="M119.3,367.21c.2-1.64,1.32-2.53,2.82-2.53,1.64,0,2.73.89,2.73,2.47,0,1.02-.44,1.79-1.85,3.09-1.26,1.13-1.86,1.8-2.23,2.54h4.11v1.2h-5.67v-1.07c.54-1.13,1.31-2.14,2.61-3.39,1.2-1.15,1.46-1.63,1.46-2.39,0-.8-.47-1.27-1.2-1.27s-1.22.56-1.29,1.66l-1.5-.31Z"/><path class="uuid-17b542c6-ac22-4db0-b746-d933312d2e41" d="M130.47,372.82h1.71v1.16h-4.94v-1.16h1.8v-6.52c-.46.31-1.03.6-1.69.82l-.24-1.26c.79-.23,1.5-.61,2.13-1.08h1.22v8.05Z"/><path class="uuid-17b542c6-ac22-4db0-b746-d933312d2e41" d="M138.8,370.78h1.14v1.13h-1.14v2.08h-1.38v-2.08h-3.49v-1.06l2.97-6.08h1.9v6.01ZM137.42,368.76c0-.97.04-1.88.07-2.81h-.17c-.3.79-.65,1.6-1.02,2.4l-1.13,2.42h2.24v-2.01Z"/><path class="uuid-17b542c6-ac22-4db0-b746-d933312d2e41" d="M145.59,370.94h-3.5v-1.17h3.5v1.17Z"/><path class="uuid-17b542c6-ac22-4db0-b746-d933312d2e41" d="M153.74,369.38c0,3.39-1.03,4.77-2.9,4.77s-2.87-1.35-2.87-4.75,1.04-4.73,2.89-4.73,2.88,1.32,2.88,4.7ZM149.52,369.39c0,2.7.37,3.57,1.32,3.57s1.36-.89,1.36-3.57-.37-3.53-1.33-3.53-1.34.82-1.34,3.53Z"/><path class="uuid-17b542c6-ac22-4db0-b746-d933312d2e41" d="M160.56,370.78h1.14v1.13h-1.14v2.08h-1.38v-2.08h-3.49v-1.06l2.97-6.08h1.89v6.01ZM159.19,368.76c0-.97.04-1.88.07-2.81h-.17c-.3.79-.65,1.6-1.02,2.4l-1.13,2.42h2.24v-2.01Z"/><path class="uuid-17b542c6-ac22-4db0-b746-d933312d2e41" d="M168.96,366.03h-3.62l-.07,1.85c-.01.28-.04.6-.07.86.32-.48.89-.79,1.57-.79,1.51,0,2.58,1.19,2.58,3,0,1.93-1.2,3.2-2.93,3.2-1.44,0-2.46-.65-2.78-1.99l1.46-.44c.17.89.64,1.27,1.31,1.27.86,0,1.4-.74,1.4-2.01,0-1.19-.49-1.86-1.33-1.86-.61,0-1.09.37-1.29,1.03l-1.25-.18.18-5.13h4.85v1.2Z"/><path class="uuid-17b542c6-ac22-4db0-b746-d933312d2e41" d="M176.69,366.03h-3.62l-.07,1.85c-.01.28-.04.6-.07.86.32-.48.89-.79,1.57-.79,1.51,0,2.58,1.19,2.58,3,0,1.93-1.2,3.2-2.93,3.2-1.44,0-2.46-.65-2.78-1.99l1.46-.44c.17.89.64,1.27,1.31,1.27.86,0,1.4-.74,1.4-2.01,0-1.19-.49-1.86-1.33-1.86-.61,0-1.09.37-1.3,1.03l-1.25-.18.18-5.13h4.85v1.2Z"/><path class="uuid-17b542c6-ac22-4db0-b746-d933312d2e41" d="M31.06,457.8c-.06.77-.34,1.37-.85,1.81-.51.44-1.18.66-2.01.66-.91,0-1.63-.31-2.15-.92-.52-.62-.78-1.46-.78-2.53v-.44c0-.68.12-1.29.36-1.81.24-.52.58-.92,1.03-1.2.45-.28.97-.42,1.56-.42.82,0,1.48.22,1.98.66.5.44.79,1.06.87,1.85h-1.46c-.04-.46-.16-.79-.38-1-.22-.21-.55-.31-1-.31-.49,0-.85.17-1.1.53-.24.35-.37.89-.37,1.63v.54c0,.77.12,1.33.35,1.69.23.35.6.53,1.1.53.45,0,.79-.1,1.01-.31.22-.21.35-.53.38-.96h1.46Z"/><path class="uuid-17b542c6-ac22-4db0-b746-d933312d2e41" d="M32.58,457.48c0-.52.1-.99.3-1.4.2-.41.49-.73.87-.95.38-.22.82-.34,1.32-.34.71,0,1.29.22,1.75.65.45.44.7,1.03.75,1.78v.36c0,.81-.22,1.46-.67,1.95-.45.49-1.06.73-1.82.73s-1.37-.24-1.82-.73-.68-1.15-.68-1.99v-.06ZM33.99,457.58c0,.5.09.88.28,1.15.19.27.46.4.81.4s.61-.13.8-.39c.19-.26.29-.68.29-1.26,0-.49-.1-.87-.29-1.14-.19-.27-.46-.41-.81-.41s-.61.13-.8.4c-.19.27-.28.69-.28,1.25Z"/><path class="uuid-17b542c6-ac22-4db0-b746-d933312d2e41" d="M44.06,457.57c0,.81-.18,1.47-.55,1.96-.37.49-.87.73-1.5.73-.53,0-.96-.19-1.29-.56v2.49h-1.41v-7.31h1.31l.05.52c.34-.41.79-.62,1.34-.62.65,0,1.16.24,1.52.72.36.48.54,1.14.54,1.99v.07ZM42.65,457.47c0-.49-.09-.87-.26-1.14-.17-.27-.43-.4-.76-.4-.44,0-.75.17-.91.51v2.16c.17.35.48.52.92.52.67,0,1.01-.55,1.01-1.65Z"/><path class="uuid-17b542c6-ac22-4db0-b746-d933312d2e41" d="M47.61,458.17l.98-3.29h1.51l-2.12,6.1-.12.28c-.32.69-.84,1.04-1.56,1.04-.21,0-.41-.03-.62-.09v-1.07h.21c.27,0,.47-.04.6-.12.13-.08.23-.22.31-.4l.17-.44-1.85-5.3h1.52l.98,3.29Z"/><path class="uuid-17b542c6-ac22-4db0-b746-d933312d2e41" d="M54.5,456.21c-.19-.03-.36-.04-.51-.04-.53,0-.88.18-1.05.54v3.46h-1.41v-5.28h1.33l.04.63c.28-.48.68-.73,1.18-.73.16,0,.3.02.44.06l-.02,1.36Z"/><path class="uuid-17b542c6-ac22-4db0-b746-d933312d2e41" d="M55.96,453.52c0-.21.07-.39.21-.52s.33-.21.58-.21.43.07.58.21.21.31.21.52-.07.39-.22.53-.34.21-.57.21-.43-.07-.57-.21-.22-.31-.22-.53ZM57.46,460.17h-1.42v-5.28h1.42v5.28Z"/><path class="uuid-17b542c6-ac22-4db0-b746-d933312d2e41" d="M59.22,457.49c0-.81.19-1.46.58-1.96.39-.5.91-.74,1.56-.74.58,0,1.03.2,1.35.6l.06-.5h1.28v5.11c0,.46-.1.86-.31,1.21s-.51.6-.89.78c-.38.18-.83.27-1.34.27-.39,0-.76-.08-1.13-.23-.37-.15-.65-.35-.83-.6l.62-.86c.35.39.78.59,1.28.59.37,0,.67-.1.87-.3.21-.2.31-.48.31-.85v-.28c-.33.37-.75.55-1.28.55-.63,0-1.15-.25-1.54-.74-.39-.5-.59-1.16-.59-1.98v-.06ZM60.63,457.59c0,.48.1.86.29,1.13.19.27.46.41.79.41.43,0,.74-.16.92-.48v-2.22c-.19-.32-.49-.48-.91-.48-.34,0-.6.14-.8.42-.19.28-.29.69-.29,1.24Z"/><path class="uuid-17b542c6-ac22-4db0-b746-d933312d2e41" d="M67.38,455.46c.37-.45.84-.67,1.41-.67,1.15,0,1.73.67,1.74,2v3.38h-1.41v-3.35c0-.3-.06-.53-.2-.67-.13-.15-.35-.22-.65-.22-.41,0-.71.16-.9.48v3.76h-1.41v-7.5h1.41v2.79Z"/><path class="uuid-17b542c6-ac22-4db0-b746-d933312d2e41" d="M74.13,453.59v1.3h.9v1.04h-.9v2.64c0,.2.04.33.11.42.08.08.22.13.43.13.16,0,.29-.01.42-.04v1.07c-.28.08-.56.13-.85.13-.99,0-1.49-.5-1.51-1.5v-2.85h-.77v-1.04h.77v-1.3h1.41Z"/><path class="uuid-17b542c6-ac22-4db0-b746-d933312d2e41" d="M79.87,457.28c0-.75.1-1.46.3-2.13.2-.67.49-1.27.88-1.79.39-.52.81-.88,1.26-1.08l.27.76c-.48.35-.85.89-1.11,1.63-.27.73-.4,1.59-.4,2.58v.15c0,.99.13,1.85.4,2.59.26.74.64,1.29,1.12,1.66l-.27.75c-.44-.2-.85-.55-1.24-1.05-.38-.5-.67-1.08-.88-1.74-.2-.66-.31-1.34-.32-2.06v-.26Z"/><path class="uuid-17b542c6-ac22-4db0-b746-d933312d2e41" d="M85.88,459.13c.26,0,.47-.07.63-.21.16-.14.25-.33.25-.57h1.32c0,.36-.1.69-.29.98-.19.3-.46.53-.79.69-.33.16-.7.25-1.11.25-.75,0-1.35-.24-1.79-.72s-.65-1.14-.65-1.99v-.09c0-.81.22-1.46.65-1.95.43-.48,1.03-.73,1.78-.73.66,0,1.19.19,1.59.56.4.38.6.88.61,1.5h-1.32c0-.27-.09-.5-.25-.67s-.38-.26-.64-.26c-.33,0-.58.12-.74.36-.17.24-.25.63-.25,1.17v.15c0,.54.08.94.25,1.17.17.24.42.36.76.36Z"/><path class="uuid-17b542c6-ac22-4db0-b746-d933312d2e41" d="M91.72,457.39c0,.74-.11,1.44-.32,2.12-.21.68-.52,1.28-.91,1.8-.4.52-.82.88-1.27,1.07l-.27-.75c.46-.35.83-.89,1.09-1.61.27-.73.41-1.56.42-2.51v-.26c0-.97-.13-1.83-.4-2.57s-.64-1.3-1.11-1.67l.27-.75c.44.19.86.54,1.25,1.04.39.5.7,1.09.91,1.76.22.67.33,1.37.34,2.09v.22Z"/><path class="uuid-17b542c6-ac22-4db0-b746-d933312d2e41" d="M100.91,458.7h-2.57l-.49,1.46h-1.56l2.65-7.11h1.36l2.66,7.11h-1.56l-.49-1.46ZM98.74,457.52h1.78l-.89-2.66-.88,2.66Z"/><path class="uuid-17b542c6-ac22-4db0-b746-d933312d2e41" d="M107.22,458.71c0-.17-.09-.31-.26-.41-.17-.1-.45-.19-.82-.27-1.26-.26-1.88-.8-1.88-1.6,0-.47.19-.86.58-1.17s.9-.47,1.53-.47c.67,0,1.21.16,1.61.47.4.32.6.73.6,1.23h-1.41c0-.2-.06-.37-.2-.5-.13-.13-.33-.2-.61-.2-.24,0-.42.05-.55.16s-.2.24-.2.41c0,.16.07.28.22.38s.4.18.75.25c.35.07.65.15.89.24.75.27,1.12.75,1.12,1.42,0,.48-.21.87-.62,1.17-.41.3-.95.45-1.6.45-.44,0-.84-.08-1.18-.24-.34-.16-.61-.38-.81-.65s-.29-.57-.29-.89h1.34c.01.25.11.44.28.58.17.13.4.2.69.2.27,0,.47-.05.61-.15.14-.1.21-.24.21-.4Z"/><path class="uuid-17b542c6-ac22-4db0-b746-d933312d2e41" d="M112.11,453.59v1.3h.9v1.04h-.9v2.64c0,.2.04.33.11.42.08.08.22.13.43.13.16,0,.29-.01.42-.04v1.07c-.28.08-.56.13-.85.13-.99,0-1.49-.5-1.51-1.5v-2.85h-.77v-1.04h.77v-1.3h1.41Z"/><path class="uuid-17b542c6-ac22-4db0-b746-d933312d2e41" d="M116.97,460.27c-.77,0-1.41-.24-1.89-.71-.49-.48-.73-1.11-.73-1.9v-.14c0-.53.1-1,.31-1.42.21-.42.5-.74.87-.97.38-.23.81-.34,1.29-.34.72,0,1.29.23,1.71.68.42.46.62,1.1.62,1.94v.58h-3.36c.05.35.18.62.41.83.23.21.52.31.87.31.54,0,.97-.2,1.27-.59l.69.78c-.21.3-.5.53-.86.7s-.76.25-1.2.25ZM116.81,455.92c-.28,0-.51.1-.68.29s-.29.46-.33.81h1.96v-.11c0-.31-.09-.56-.25-.73s-.39-.26-.69-.26Z"/><path class="uuid-17b542c6-ac22-4db0-b746-d933312d2e41" d="M123.81,456.21c-.19-.03-.36-.04-.51-.04-.53,0-.88.18-1.05.54v3.46h-1.41v-5.28h1.33l.04.63c.28-.48.68-.73,1.18-.73.16,0,.3.02.44.06l-.02,1.36Z"/><path class="uuid-17b542c6-ac22-4db0-b746-d933312d2e41" d="M134.36,460.17h-1.46v-3.05h-2.86v3.05h-1.46v-7.11h1.46v2.88h2.86v-2.88h1.46v7.11Z"/><path class="uuid-17b542c6-ac22-4db0-b746-d933312d2e41" d="M136.21,457.48c0-.52.1-.99.3-1.4s.49-.73.87-.95.82-.34,1.32-.34c.71,0,1.29.22,1.75.65.45.44.7,1.03.75,1.78v.36c0,.81-.22,1.46-.67,1.95-.45.49-1.06.73-1.82.73s-1.37-.24-1.82-.73-.68-1.15-.68-1.99v-.06ZM137.62,457.58c0,.5.09.88.28,1.15s.46.4.81.4.61-.13.8-.39c.19-.26.29-.68.29-1.26,0-.49-.1-.87-.29-1.14-.19-.27-.46-.41-.81-.41s-.61.13-.8.4-.28.69-.28,1.25Z"/><path class="uuid-17b542c6-ac22-4db0-b746-d933312d2e41" d="M146.08,459.63c-.35.42-.83.63-1.45.63-.57,0-1-.16-1.3-.49-.3-.33-.45-.8-.46-1.43v-3.46h1.41v3.42c0,.55.25.83.75.83s.81-.17.99-.5v-3.74h1.42v5.28h-1.33l-.04-.54Z"/><path class="uuid-17b542c6-ac22-4db0-b746-d933312d2e41" d="M152.21,458.71c0-.17-.09-.31-.26-.41-.17-.1-.44-.19-.82-.27-1.26-.26-1.88-.8-1.88-1.6,0-.47.19-.86.58-1.17s.9-.47,1.53-.47c.67,0,1.21.16,1.61.47.4.32.6.73.6,1.23h-1.41c0-.2-.07-.37-.2-.5-.13-.13-.33-.2-.61-.2-.24,0-.42.05-.55.16s-.2.24-.2.41c0,.16.07.28.22.38s.4.18.75.25c.35.07.65.15.89.24.75.27,1.12.75,1.12,1.42,0,.48-.21.87-.62,1.17-.41.3-.95.45-1.6.45-.44,0-.84-.08-1.18-.24-.34-.16-.61-.38-.81-.65s-.29-.57-.29-.89h1.34c.01.25.11.44.28.58.17.13.4.2.69.2.27,0,.47-.05.61-.15.14-.1.21-.24.21-.4Z"/><path class="uuid-17b542c6-ac22-4db0-b746-d933312d2e41" d="M157.7,460.27c-.77,0-1.41-.24-1.89-.71-.49-.48-.73-1.11-.73-1.9v-.14c0-.53.1-1,.31-1.42.21-.42.5-.74.87-.97.38-.23.81-.34,1.29-.34.72,0,1.29.23,1.71.68.42.46.62,1.1.62,1.94v.58h-3.36c.05.35.18.62.41.83.23.21.52.31.87.31.54,0,.97-.2,1.27-.59l.69.78c-.21.3-.5.53-.86.7s-.76.25-1.2.25ZM157.54,455.92c-.28,0-.51.1-.68.29-.17.19-.29.46-.33.81h1.96v-.11c0-.31-.09-.56-.25-.73-.16-.17-.39-.26-.69-.26Z"/><path class="uuid-17b542c6-ac22-4db0-b746-d933312d2e41" d="M168.77,458.7h-2.57l-.49,1.46h-1.56l2.65-7.11h1.36l2.66,7.11h-1.56l-.49-1.46ZM166.6,457.52h1.78l-.89-2.66-.88,2.66Z"/><path class="uuid-17b542c6-ac22-4db0-b746-d933312d2e41" d="M173.76,460.17h-1.42v-7.5h1.42v7.5Z"/><path class="uuid-17b542c6-ac22-4db0-b746-d933312d2e41" d="M177.2,460.17h-1.42v-7.5h1.42v7.5Z"/><path class="uuid-17b542c6-ac22-4db0-b746-d933312d2e41" d="M185.08,457.56h-1.17v2.6h-1.46v-7.11h2.64c.84,0,1.49.19,1.94.56.46.38.68.9.68,1.59,0,.48-.11.89-.32,1.21s-.53.58-.95.77l1.54,2.91v.07h-1.57l-1.33-2.6ZM183.91,456.38h1.18c.37,0,.65-.09.85-.28.2-.19.3-.45.3-.77s-.1-.6-.29-.79c-.19-.19-.48-.29-.88-.29h-1.18v2.13Z"/><path class="uuid-17b542c6-ac22-4db0-b746-d933312d2e41" d="M189.53,453.52c0-.21.07-.39.21-.52s.33-.21.58-.21.43.07.58.21.21.31.21.52-.07.39-.22.53-.34.21-.57.21-.43-.07-.57-.21-.22-.31-.22-.53ZM191.02,460.17h-1.42v-5.28h1.42v5.28Z"/><path class="uuid-17b542c6-ac22-4db0-b746-d933312d2e41" d="M192.78,457.49c0-.81.19-1.46.58-1.96.39-.5.91-.74,1.56-.74.58,0,1.03.2,1.35.6l.06-.5h1.28v5.11c0,.46-.1.86-.31,1.21s-.51.6-.89.78c-.38.18-.83.27-1.34.27-.39,0-.76-.08-1.13-.23s-.65-.35-.83-.6l.62-.86c.35.39.78.59,1.28.59.37,0,.67-.1.87-.3.21-.2.31-.48.31-.85v-.28c-.33.37-.75.55-1.28.55-.63,0-1.15-.25-1.54-.74-.39-.5-.59-1.16-.59-1.98v-.06ZM194.19,457.59c0,.48.1.86.29,1.13.19.27.46.41.79.41.43,0,.74-.16.92-.48v-2.22c-.19-.32-.49-.48-.91-.48-.34,0-.6.14-.8.42s-.29.69-.29,1.24Z"/><path class="uuid-17b542c6-ac22-4db0-b746-d933312d2e41" d="M200.95,455.46c.37-.45.84-.67,1.41-.67,1.15,0,1.73.67,1.74,2v3.38h-1.41v-3.35c0-.3-.07-.53-.2-.67-.13-.15-.35-.22-.65-.22-.41,0-.71.16-.9.48v3.76h-1.41v-7.5h1.41v2.79Z"/><path class="uuid-17b542c6-ac22-4db0-b746-d933312d2e41" d="M207.69,453.59v1.3h.9v1.04h-.9v2.64c0,.2.04.33.11.42.08.08.22.13.43.13.16,0,.29-.01.42-.04v1.07c-.28.08-.56.13-.85.13-.99,0-1.49-.5-1.51-1.5v-2.85h-.77v-1.04h.77v-1.3h1.41Z"/><path class="uuid-17b542c6-ac22-4db0-b746-d933312d2e41" d="M216.09,457.56h-1.17v2.6h-1.46v-7.11h2.64c.84,0,1.49.19,1.94.56.46.38.68.9.68,1.59,0,.48-.1.89-.31,1.21s-.53.58-.95.77l1.54,2.91v.07h-1.57l-1.33-2.6ZM214.93,456.38h1.18c.37,0,.65-.09.85-.28s.3-.45.3-.77-.1-.6-.29-.79c-.19-.19-.48-.29-.88-.29h-1.18v2.13Z"/><path class="uuid-17b542c6-ac22-4db0-b746-d933312d2e41" d="M222.91,460.27c-.77,0-1.41-.24-1.89-.71-.49-.48-.73-1.11-.73-1.9v-.14c0-.53.1-1,.31-1.42.21-.42.5-.74.87-.97.38-.23.8-.34,1.29-.34.72,0,1.29.23,1.71.68.42.46.62,1.1.62,1.94v.58h-3.36c.05.35.18.62.41.83.23.21.52.31.87.31.54,0,.97-.2,1.27-.59l.69.78c-.21.3-.5.53-.86.7s-.76.25-1.2.25ZM222.75,455.92c-.28,0-.51.1-.68.29s-.29.46-.33.81h1.96v-.11c0-.31-.09-.56-.25-.73s-.39-.26-.69-.26Z"/><path class="uuid-17b542c6-ac22-4db0-b746-d933312d2e41" d="M229.56,458.71c0-.17-.08-.31-.26-.41-.17-.1-.45-.19-.82-.27-1.26-.26-1.88-.8-1.88-1.6,0-.47.19-.86.58-1.17.39-.31.9-.47,1.53-.47.67,0,1.21.16,1.61.47.4.32.6.73.6,1.23h-1.41c0-.2-.06-.37-.2-.5-.13-.13-.33-.2-.61-.2-.24,0-.42.05-.55.16-.13.11-.2.24-.2.41,0,.16.07.28.22.38.15.1.4.18.75.25.35.07.65.15.89.24.75.27,1.12.75,1.12,1.42,0,.48-.21.87-.62,1.17-.41.3-.95.45-1.6.45-.44,0-.84-.08-1.18-.24-.34-.16-.61-.38-.81-.65s-.29-.57-.29-.89h1.34c.01.25.11.44.28.58.17.13.4.2.69.2.27,0,.47-.05.61-.15.14-.1.21-.24.21-.4Z"/><path class="uuid-17b542c6-ac22-4db0-b746-d933312d2e41" d="M235.05,460.27c-.77,0-1.41-.24-1.89-.71-.49-.48-.73-1.11-.73-1.9v-.14c0-.53.1-1,.31-1.42.21-.42.5-.74.87-.97.38-.23.81-.34,1.29-.34.72,0,1.29.23,1.71.68.42.46.62,1.1.62,1.94v.58h-3.36c.05.35.18.62.41.83.23.21.52.31.87.31.54,0,.97-.2,1.27-.59l.69.78c-.21.3-.5.53-.86.7s-.76.25-1.2.25ZM234.89,455.92c-.28,0-.51.1-.68.29-.17.19-.29.46-.33.81h1.96v-.11c0-.31-.09-.56-.25-.73-.16-.17-.39-.26-.69-.26Z"/><path class="uuid-17b542c6-ac22-4db0-b746-d933312d2e41" d="M241.89,456.21c-.19-.03-.36-.04-.51-.04-.53,0-.88.18-1.05.54v3.46h-1.41v-5.28h1.33l.04.63c.28-.48.68-.73,1.18-.73.16,0,.3.02.44.06l-.02,1.36Z"/><path class="uuid-17b542c6-ac22-4db0-b746-d933312d2e41" d="M245.6,458.44l.98-3.56h1.47l-1.78,5.28h-1.35l-1.78-5.28h1.47l.98,3.56Z"/><path class="uuid-17b542c6-ac22-4db0-b746-d933312d2e41" d="M251.75,460.27c-.77,0-1.41-.24-1.89-.71-.49-.48-.73-1.11-.73-1.9v-.14c0-.53.1-1,.31-1.42.21-.42.5-.74.87-.97.38-.23.81-.34,1.29-.34.72,0,1.29.23,1.71.68.42.46.62,1.1.62,1.94v.58h-3.36c.05.35.18.62.41.83.23.21.52.31.87.31.54,0,.97-.2,1.27-.59l.69.78c-.21.3-.5.53-.86.7s-.76.25-1.2.25ZM251.59,455.92c-.28,0-.51.1-.68.29s-.29.46-.33.81h1.96v-.11c0-.31-.09-.56-.25-.73s-.39-.26-.69-.26Z"/><path class="uuid-17b542c6-ac22-4db0-b746-d933312d2e41" d="M255.39,457.49c0-.82.19-1.48.55-1.97.37-.49.87-.73,1.52-.73.51,0,.94.19,1.27.58v-2.7h1.42v7.5h-1.27l-.07-.56c-.35.44-.8.66-1.36.66-.62,0-1.12-.25-1.5-.73-.38-.49-.56-1.17-.56-2.04ZM256.8,457.59c0,.5.09.88.26,1.14.17.27.42.4.75.4.44,0,.74-.18.92-.55v-2.09c-.18-.37-.48-.55-.91-.55-.68,0-1.02.55-1.02,1.66Z"/><path class="uuid-f0109865-e9a7-41dc-8853-a8f4b0c9c713" d="M92.26,97.53c.1-.54.16-1.09.16-1.65s-.06-1.12-.16-1.65l-6.62.74,5.21-4.16c-.63-.92-1.42-1.71-2.34-2.34l-4.16,5.21.74-6.62c-.54-.1-1.09-.16-1.65-.16s-1.12.06-1.65.16l.74,6.62-4.16-5.21c-.92.63-1.71,1.42-2.34,2.34l5.21,4.16-6.62-.74c-.1.54-.16,1.09-.16,1.65s.06,1.12.16,1.65l6.62-.74-5.21,4.16c.63.92,1.42,1.71,2.34,2.34l4.16-5.21-.74,6.62c.54.1,1.09.16,1.65.16s1.12-.06,1.65-.16l-.74-6.62,4.16,5.21c.92-.63,1.71-1.42,2.34-2.34l-5.21-4.16,6.62.74Z"/><path class="uuid-17b542c6-ac22-4db0-b746-d933312d2e41" d="M35.2,101.94l-10.65,16.35,2.56,1.63,4.26-6.53h8.14c.28,1.63.38,3.31.38,4.89h3.08c0-8.63-2.68-13.99-7.76-16.34ZM32.94,110.96l3.11-4.78c1.37,1.26,2.27,2.93,2.86,4.78h-5.97Z"/><path class="uuid-17b542c6-ac22-4db0-b746-d933312d2e41" d="M61.6,113.03c0-1.14,0-3.11,0-5.03h3.58l-.46-2.44h-3.12c0-1.58,0-2.75,0-2.75l-3.12-.83v11.14c0,4.01,2.49,5.53,5.89,5.5l.86-2.79c-.7.07-3.63.18-3.63-2.8Z"/><path class="uuid-17b542c6-ac22-4db0-b746-d933312d2e41" d="M81.91,112.11v6.51h3.05v-6.07c0-3.17,2.46-4.26,5.21-3.88l-.78-3.06c-4.44.06-7.48,2.49-7.48,6.5Z"/><path class="uuid-17b542c6-ac22-4db0-b746-d933312d2e41" d="M75.73,106.12c-2.7-1.22-5.97-.39-7.53,2.32-1.26,2.19-1.31,5.29-.05,7.44,1.1,1.87,3.28,2.84,5.55,2.78,3.36-.09,5.12-2.69,5.12-2.69l-2.29-1.8c-.46.97-1.54,1.95-3.36,1.81-1.56-.12-2.64-.91-2.99-2.6h8.86c.31-2.57-.39-5.93-3.31-7.25ZM76.18,110.99h-6.02c.31-1.86,1.42-2.99,3.09-2.97,1.85.02,3.01,1.44,2.93,2.97Z"/><path class="uuid-17b542c6-ac22-4db0-b746-d933312d2e41" d="M53.4,111.9c-1.05-.45-2.42-1.01-3.09-1.27-1.01-.4-1.43-1.03-1.1-1.81.45-1.04,2.56-1.11,4.41.99l1.89-2.12s-1.87-1.92-4.28-2.06c-2.36-.14-4.13.79-4.79,2.41-.69,1.69-.22,3.46,1.85,4.38.88.39,1.81.75,2.98,1.23,1.08.45,1.76.83,1.59,1.51-.19.77-1.04.98-2.2.8-1.56-.24-2.76-1.01-3.33-1.67l-1.9,2.17c.72.72,2.65,1.96,5.03,2.14,2.34.18,4.52-.74,5.1-2.46.67-1.97-.34-3.46-2.17-4.24Z"/><path class="uuid-17b542c6-ac22-4db0-b746-d933312d2e41" d="M125.93,107.3c-.57-.57-1.24-1.01-2.02-1.32-.78-.31-1.6-.46-2.48-.46s-1.7.15-2.48.46c-.78.31-1.45.75-2.02,1.32-.57.57-1.02,1.25-1.35,2.05-.33.8-.5,1.69-.5,2.67s.17,1.87.5,2.68c.33.81.78,1.5,1.35,2.08.57.58,1.24,1.03,2.02,1.35.78.33,1.6.49,2.48.49s1.7-.16,2.48-.49c.78-.33,1.45-.78,2.02-1.35.57-.58,1.02-1.27,1.35-2.08.33-.81.5-1.7.5-2.68s-.17-1.87-.5-2.67c-.33-.8-.78-1.48-1.35-2.05ZM124.6,113.46c-.14.48-.34.91-.62,1.29-.28.38-.62.69-1.05.93-.42.24-.92.36-1.51.36s-1.09-.12-1.51-.36c-.42-.24-.77-.55-1.05-.93-.28-.38-.48-.81-.62-1.29-.14-.48-.21-.96-.21-1.44s.07-.96.21-1.43c.14-.47.34-.9.62-1.28.28-.38.62-.68,1.05-.91.42-.23.92-.35,1.51-.35s1.09.12,1.51.35c.42.23.77.54,1.05.91.28.38.48.8.62,1.28.14.47.21.95.21,1.43s-.07.96-.21,1.44Z"/><polygon class="uuid-17b542c6-ac22-4db0-b746-d933312d2e41" points="109.3 109.58 101.11 109.58 101.11 102.82 97.99 101.99 97.99 118.27 101.11 118.27 101.11 112.01 109.3 112.01 109.3 118.27 112.42 118.27 112.42 102.82 109.3 101.99 109.3 109.58"/><path class="uuid-17b542c6-ac22-4db0-b746-d933312d2e41" d="M152.18,111.9c-1.05-.45-2.42-1.01-3.09-1.27-1.01-.4-1.43-1.03-1.1-1.81.45-1.04,2.56-1.11,4.41.99l1.89-2.12s-1.7-1.94-4.28-2.06c-2.37-.11-4.13.79-4.79,2.41-.69,1.69-.22,3.46,1.85,4.38.88.39,1.81.75,2.98,1.23,1.08.45,1.76.83,1.59,1.51-.19.77-1.04.98-2.2.8-1.56-.24-2.76-1.01-3.33-1.67l-1.9,2.17c.72.72,2.65,1.96,5.03,2.14,2.34.18,4.47-.53,5.05-2.25.67-1.97-.29-3.67-2.12-4.45Z"/><path class="uuid-17b542c6-ac22-4db0-b746-d933312d2e41" d="M164.95,106.12c-2.7-1.22-5.97-.39-7.53,2.32-1.26,2.19-1.31,5.29-.05,7.44,1.1,1.87,3.28,2.84,5.55,2.78,3.36-.09,5.12-2.69,5.12-2.69l-2.29-1.8c-.46.97-1.54,1.95-3.36,1.81-1.55-.12-2.64-.91-2.99-2.6h8.86c.31-2.57-.39-5.93-3.31-7.25ZM165.39,110.99h-6.02c.31-1.86,1.42-2.99,3.09-2.97,1.85.02,3.01,1.44,2.93,2.97Z"/><path class="uuid-17b542c6-ac22-4db0-b746-d933312d2e41" d="M138.78,112.75c0,1.86-.68,3.23-2.75,3.23s-2.74-1.17-2.74-3.15v-6.47l-3.12-.83v7.87c0,3.01,1.87,5.23,5.86,5.23,4.32,0,5.86-2.57,5.86-5.23v-7.04l-3.12-.83v7.23Z"/><path class="uuid-f0109865-e9a7-41dc-8853-a8f4b0c9c713" d="M92.26,150.5c.1-.54.16-1.09.16-1.65s-.06-1.12-.16-1.65l-6.62.74,5.21-4.16c-.63-.92-1.42-1.71-2.34-2.34l-4.16,5.21.74-6.62c-.54-.1-1.09-.16-1.65-.16s-1.12.06-1.65.16l.74,6.62-4.16-5.21c-.92.63-1.71,1.42-2.34,2.34l5.21,4.16-6.62-.74c-.1.54-.16,1.09-.16,1.65s.06,1.12.16,1.65l6.62-.74-5.21,4.16c.63.92,1.42,1.71,2.34,2.34l4.16-5.21-.74,6.62c.54.1,1.09.16,1.65.16s1.12-.06,1.65-.16l-.74-6.62,4.16,5.21c.92-.63,1.71-1.42,2.34-2.34l-5.21-4.16,6.62.74Z"/><path class="uuid-17b542c6-ac22-4db0-b746-d933312d2e41" d="M35.2,154.91l-10.65,16.35,2.56,1.63,4.26-6.53h8.14c.28,1.63.38,3.31.38,4.89h3.08c0-8.63-2.68-13.99-7.76-16.34ZM32.94,163.93l3.11-4.78c1.37,1.26,2.27,2.93,2.86,4.78h-5.97Z"/><path class="uuid-17b542c6-ac22-4db0-b746-d933312d2e41" d="M61.6,166.01c0-1.14,0-3.11,0-5.03h3.58l-.46-2.44h-3.12c0-1.58,0-2.75,0-2.75l-3.12-.83v11.14c0,4.01,2.49,5.53,5.89,5.5l.86-2.79c-.7.07-3.63.18-3.63-2.8Z"/><path class="uuid-17b542c6-ac22-4db0-b746-d933312d2e41" d="M81.91,165.08v6.51h3.05v-6.07c0-3.17,2.46-4.26,5.21-3.88l-.78-3.06c-4.44.06-7.48,2.49-7.48,6.5Z"/><path class="uuid-17b542c6-ac22-4db0-b746-d933312d2e41" d="M75.73,159.09c-2.7-1.22-5.97-.39-7.53,2.32-1.26,2.19-1.31,5.29-.05,7.44,1.1,1.87,3.28,2.84,5.55,2.78,3.36-.09,5.12-2.69,5.12-2.69l-2.29-1.8c-.46.97-1.54,1.95-3.36,1.81-1.56-.12-2.64-.91-2.99-2.6h8.86c.31-2.57-.39-5.93-3.31-7.25ZM76.18,163.97h-6.02c.31-1.86,1.42-2.99,3.09-2.97,1.85.02,3.01,1.44,2.93,2.97Z"/><path class="uuid-17b542c6-ac22-4db0-b746-d933312d2e41" d="M53.4,164.88c-1.05-.45-2.42-1.01-3.09-1.27-1.01-.4-1.43-1.03-1.1-1.81.45-1.04,2.56-1.11,4.41.99l1.89-2.12s-1.87-1.92-4.28-2.06c-2.36-.14-4.13.79-4.79,2.41-.69,1.69-.22,3.46,1.85,4.38.88.39,1.81.75,2.98,1.23,1.08.45,1.76.83,1.59,1.51-.19.77-1.04.98-2.2.8-1.56-.24-2.76-1.01-3.33-1.67l-1.9,2.17c.72.72,2.65,1.96,5.03,2.14,2.34.18,4.52-.74,5.1-2.46.67-1.97-.34-3.46-2.17-4.24Z"/></g></svg>