<?xml version="1.0" encoding="UTF-8"?>
    <svg id="uuid-a904badd-9208-4ee5-ba00-d44478995fa0" xmlns="http://www.w3.org/2000/svg" width="375" height="194.45" viewBox="0 0 375 194.45">

    <defs>
    <style>
            .uuid-d7c13fd4-9a6a-4a7c-85bf-66f732c5ffd5,.uuid-f2a40cb3-94d1-4172-b548-868b393b983f{fill:none;}.uuid-f2a40cb3-94d1-4172-b548-868b393b983f{stroke:#000;stroke-miterlimit:10;stroke-width:2px;}

            @keyframes fadeIn { from{opacity:0} to{opacity:1} }
            @keyframes fadeUp {
                from{opacity:0; transform:translateY(10px)}
                to{opacity:1; transform:translateY(0)}
            }
            .line { opacity:0; animation: fadeIn 0.5s ease forwards; }
            .text { opacity:0; transform:translateY(20px);
                        animation: fadeUp 0.5s ease forwards;
                        animation-delay: 0.2s; }
        </style>
    </defs>

    <g class="line">
        <polyline class="uuid-f2a40cb3-94d1-4172-b548-868b393b983f" points="287.97 177.41 287.97 106.91 188.13 74.83 88.28 106.91 88.28 172.8"/>
    
    <g class="text">
        <path d="M108.98,115.27l7.08,18.83,7.07-18.83h5.52v24.56h-4.25v-8.1l.42-10.83-7.25,18.93h-3.05l-7.24-18.91.42,10.81v8.1h-4.25v-24.56h5.53Z"/>
        <path d="M134.94,130.53c0-1.79.35-3.4,1.06-4.83.71-1.43,1.7-2.54,2.99-3.31,1.28-.77,2.76-1.16,4.42-1.16,2.46,0,4.46.79,6,2.38,1.53,1.59,2.36,3.69,2.49,6.31l.02.96c0,1.8-.35,3.41-1.04,4.82-.69,1.42-1.68,2.51-2.97,3.29s-2.77,1.16-4.46,1.16c-2.58,0-4.64-.86-6.18-2.57s-2.32-4-2.32-6.86v-.2ZM139.04,130.89c0,1.88.39,3.35,1.16,4.41.78,1.06,1.86,1.59,3.24,1.59s2.46-.54,3.23-1.62c.77-1.08,1.16-2.66,1.16-4.74,0-1.84-.4-3.31-1.19-4.39s-1.87-1.62-3.23-1.62-2.4.53-3.19,1.59-1.18,2.65-1.18,4.77Z"/>
        <path d="M157.03,130.57c0-2.81.65-5.07,1.96-6.77,1.3-1.7,3.05-2.56,5.25-2.56,1.93,0,3.5.67,4.69,2.02v-9.34h4.1v25.91h-3.71l-.2-1.89c-1.23,1.48-2.86,2.23-4.91,2.23s-3.87-.86-5.19-2.58c-1.32-1.72-1.98-4.06-1.98-7.02ZM161.13,130.92c0,1.86.36,3.3,1.07,4.34.71,1.04,1.73,1.56,3.04,1.56,1.68,0,2.9-.75,3.68-2.24v-7.79c-.75-1.46-1.97-2.19-3.64-2.19-1.33,0-2.35.53-3.07,1.58-.72,1.05-1.08,2.63-1.08,4.75Z"/>
        <path d="M187.64,140.17c-2.6,0-4.7-.82-6.32-2.45-1.61-1.64-2.42-3.81-2.42-6.54v-.51c0-1.82.35-3.45,1.05-4.88.7-1.43,1.69-2.55,2.96-3.35,1.27-.8,2.69-1.2,4.25-1.2,2.49,0,4.41.79,5.76,2.38,1.35,1.59,2.03,3.83,2.03,6.73v1.65h-11.93c.12,1.51.63,2.7,1.51,3.58.88.88,1.99,1.32,3.33,1.32,1.88,0,3.41-.76,4.59-2.28l2.21,2.11c-.73,1.09-1.71,1.94-2.93,2.54-1.22.6-2.59.9-4.11.9ZM187.16,124.53c-1.12,0-2.03.39-2.72,1.18-.69.79-1.13,1.88-1.32,3.29h7.81v-.3c-.09-1.37-.46-2.41-1.1-3.11-.64-.7-1.53-1.05-2.67-1.05Z"/>
        <path d="M204.97,139.83h-4.1v-25.91h4.1v25.91Z"/>
        <path d="M189.41,171.99h-4.25v-10.9h-10.98v10.9h-4.27v-24.56h4.27v10.22h10.98v-10.22h4.25v24.56Z"/>
        <path d="M195.7,162.69c0-1.79.35-3.4,1.06-4.83.71-1.43,1.7-2.54,2.99-3.31,1.28-.77,2.76-1.16,4.42-1.16,2.46,0,4.46.79,6,2.38,1.53,1.59,2.36,3.69,2.49,6.31l.02.96c0,1.8-.35,3.41-1.04,4.82-.69,1.42-1.68,2.51-2.97,3.29s-2.77,1.16-4.46,1.16c-2.58,0-4.64-.86-6.18-2.57s-2.32-4-2.32-6.86v-.2ZM199.8,163.05c0,1.88.39,3.35,1.16,4.41.78,1.06,1.86,1.59,3.24,1.59s2.46-.54,3.23-1.62c.77-1.08,1.16-2.66,1.16-4.74,0-1.84-.4-3.31-1.19-4.39s-1.87-1.62-3.23-1.62-2.4.53-3.19,1.59-1.18,2.65-1.18,4.77Z"/>
        <path d="M229.53,170.2c-1.2,1.42-2.91,2.13-5.13,2.13-1.98,0-3.48-.58-4.5-1.74-1.02-1.16-1.53-2.83-1.53-5.03v-11.82h4.1v11.77c0,2.32.96,3.48,2.88,3.48s3.33-.71,4.03-2.14v-13.11h4.1v18.25h-3.86l-.1-1.79Z"/>
        <path d="M250.21,167.03c0-.73-.3-1.29-.9-1.67-.6-.38-1.6-.72-2.99-1.01-1.39-.29-2.56-.66-3.49-1.11-2.05-.99-3.07-2.42-3.07-4.3,0-1.57.66-2.89,1.99-3.95,1.33-1.06,3.01-1.59,5.06-1.59,2.18,0,3.94.54,5.29,1.62s2.02,2.48,2.02,4.2h-4.1c0-.79-.29-1.44-.88-1.96-.58-.52-1.36-.78-2.33-.78-.9,0-1.63.21-2.2.62-.57.42-.85.97-.85,1.67,0,.63.26,1.12.79,1.47.53.35,1.6.7,3.21,1.05,1.61.35,2.87.78,3.79,1.27s1.6,1.08,2.04,1.76c.44.69.67,1.52.67,2.5,0,1.64-.68,2.97-2.04,3.99-1.36,1.02-3.14,1.53-5.35,1.53-1.5,0-2.83-.27-4-.81-1.17-.54-2.08-1.28-2.73-2.23-.65-.94-.98-1.96-.98-3.05h3.98c.06.97.42,1.71,1.1,2.23.67.52,1.57.78,2.68.78s1.9-.2,2.46-.62c.56-.41.84-.95.84-1.61Z"/>
        <path d="M268.02,172.32c-2.6,0-4.7-.82-6.32-2.45-1.61-1.64-2.42-3.81-2.42-6.54v-.51c0-1.82.35-3.45,1.05-4.88.7-1.43,1.69-2.55,2.96-3.35,1.27-.8,2.69-1.2,4.25-1.2,2.49,0,4.41.79,5.76,2.38,1.35,1.59,2.03,3.83,2.03,6.73v1.65h-11.93c.12,1.51.63,2.7,1.51,3.58.88.88,1.99,1.32,3.33,1.32,1.88,0,3.41-.76,4.59-2.28l2.21,2.11c-.73,1.09-1.71,1.94-2.93,2.54-1.22.6-2.59.9-4.11.9ZM267.53,156.69c-1.12,0-2.03.39-2.72,1.18-.69.79-1.13,1.88-1.32,3.29h7.81v-.3c-.09-1.37-.46-2.41-1.1-3.11-.64-.7-1.53-1.05-2.67-1.05Z"/>
        <path d="M204.44,64.37l2.14.7c.86.28,1.8.56,2.55.77.1.03.11.1.07.25-.07.28-.17.59-.28.86-.07.19-.12.2-.29.14-.8-.27-1.68-.58-2.44-.82l-2.15-.7-.57,1.73c-.12.36-.07.56.11.71.22.16.54.32,1.21.54.68.22,1.52.45,2.07.52.1.03.12.09.08.22-.04.21-.15.56-.26.92-.06.2-.13.21-.31.17-.43-.08-1.24-.29-2.17-.59-1-.33-1.52-.63-1.89-.96-.45-.41-.54-.93-.3-1.65l.67-2.04-.73-.24c-1.01-.33-1.87-.57-2.41-.72-.15-.04-.16-.13-.12-.28.04-.27.18-.73.28-1.12.68.29,1.59.59,2.65.94l.72.24.59-1.82c-1.1-.36-1.6-.52-2.01-.63-.15-.05-.18-.12-.13-.27.08-.36.19-.73.3-1.08.54.23,1.44.53,2.32.82l2.32.76c.91.3,1.65.51,2.28.69.14.04.15.11.11.25-.08.28-.17.58-.26.86-.05.16-.12.19-.31.12-.68-.22-1.45-.49-2.21-.74l-1.06-.35-.59,1.81Z"/>
        <path d="M217.33,69.11c-.49,1.26-.9,1.98-1.64,2.71-.75.75-1.85,1.31-2.73,1.51-.15.04-.29.06-.39.03-.08-.03-.15-.09-.2-.19-.15-.31-.47-.66-.82-.94,1.33-.24,2.19-.58,2.95-1.3.67-.62.99-1.2,1.39-2.28l-2.18-.71c-.57-.19-1.15-.34-1.75-.49-.11-.02-.11-.11-.08-.27.05-.34.16-.79.27-1.13.62.27,1.27.48,1.93.7l5.16,1.69c.9.29,1.57.49,2.26.66.11.04.1.11.05.27-.04.15-.23.74-.29.88-.05.15-.13.17-.24.14-.59-.22-1.37-.5-2.17-.76l-1.54-.5ZM215.93,65.7c-.53-.17-1-.3-1.65-.49-.15-.05-.17-.12-.13-.26.06-.29.18-.7.28-1.13.79.31,1.37.51,1.89.68l2.11.69c.64.21,1.37.44,1.96.59.11.04.11.11.07.26-.07.28-.16.57-.27.84-.05.16-.09.21-.22.17-.61-.23-1.29-.46-1.92-.67l-2.11-.69ZM221.52,65.32c.07-.02.11.01.15.09.23.42.43,1.04.54,1.65.01.08,0,.14-.12.17l-.62.14c-.1.02-.15-.02-.17-.12-.11-.66-.28-1.24-.56-1.77l.77-.15ZM222.82,65.03c.08-.02.11.01.15.09.27.5.48,1.11.56,1.61.01.08,0,.15-.12.19l-.58.15c-.12.02-.17-.04-.18-.12-.1-.6-.26-1.18-.56-1.76l.74-.15Z"/>
        <path d="M227.41,69.48c.18.12.15.27.03.41-.21.21-.3.46-.39.74-.49,1.43-1.07,2.45-1.72,3.17-.53.6-1.28,1.18-2.34,1.63-.15.05-.26.08-.35.05-.07-.02-.13-.08-.19-.16-.22-.29-.45-.52-.82-.8,1.12-.38,1.96-.89,2.65-1.66.58-.68.93-1.26,1.54-3.09.14-.44.18-.63.2-1,.63.29,1.13.55,1.38.73ZM228.38,75.17c.66-.11,1.31-.3,1.98-.54.86-.3,1.74-.69,2.65-1.3-.09.42-.09.83-.02,1.28,0,.09.02.16,0,.22-.03.08-.1.15-.27.23-.77.4-1.45.7-2.19.95-.75.26-1.54.5-2.5.71-.25.07-.28.08-.41.13-.09.04-.18.04-.26.02-.07-.02-.14-.08-.21-.17-.2-.26-.36-.64-.46-.93-.04-.13-.05-.21-.02-.28.02-.06.04-.1.1-.16.13-.12.16-.27.35-.85l1.18-3.6c.33-1,.48-1.47.54-2.04.44.21,1.05.49,1.36.71.14.08.17.17.14.26-.02.07-.09.16-.19.26-.17.18-.25.41-.52,1.24l-1.25,3.84Z"/>
        <path d="M237.36,74.83c.54-.6.9-1.13,1.07-1.53.52.4.97.77,1.23,1.05.09.08.1.16.08.23-.03.08-.1.15-.19.19-.17.08-.31.22-.63.57-1.18,1.31-2.24,2.26-3.72,3.06-.14.08-.26.11-.38.07-.09-.03-.16-.09-.23-.2-.17-.26-.48-.56-.85-.82,1.56-.67,2.81-1.71,3.61-2.61ZM242.16,74.67c.07-.03.14-.03.18-.02.06.02.1.06.14.15.84,1.66,1.32,3.47,1.5,5.16.02.07.01.12,0,.18-.02.07-.08.12-.17.15-.27.1-.72.22-1.15.3-.17.02-.24-.03-.24-.19-.22-2.2-.63-3.82-1.38-5.4.5-.14.89-.26,1.12-.32Z"/>
        <path d="M254.48,78.28c.54.18.72.2.9.16.06-.02.12-.02.18,0,.09.03.17.11.21.2.17.25.41.65.54.96.04.08.04.14.02.2-.03.09-.1.16-.2.21-.2.1-.32.3-.44.48-.74,1.07-1.54,2.09-2.55,2.9-1,.82-2.5,1.54-3.88,1.85-.08.02-.15.03-.21,0-.08-.03-.13-.09-.2-.19-.28-.36-.57-.6-.98-.89,1.91-.37,3.07-.87,4.22-1.79.96-.77,1.69-1.63,2.38-2.77l-5-1.63-.32.96c-.15.46-.28.94-.42,1.4-.06.18-.11.21-.26.16-.35-.09-.72-.21-1.06-.35-.15-.05-.17-.09-.13-.23.2-.58.34-.96.49-1.42l.3-.93c.12-.37.26-.78.34-1.12.02-.11.11-.13.21-.1.53.2,1.16.42,1.73.61l1.17.38.15-.45c.2-.61.35-1.08.39-1.57.55.23,1.07.46,1.37.64.21.12.24.27.09.42-.11.14-.27.36-.43.84l-.18.55,1.54.5Z"/>
        <path d="M265.33,81.1c.41.14.62.19.83.16.06-.02.1-.02.14,0,.07.02.11.09.17.16.2.29.36.68.48,1.05.02.07.02.12,0,.17-.02.07-.09.13-.22.18-.19.08-.4.2-.59.37-.73.65-1.39,1.15-2.17,1.67.84,1.18,1.56,2.41,2.27,3.82.04.08.05.15.04.19s-.06.1-.14.15c-.3.19-.66.38-1.02.53-.06.03-.11.04-.16.02-.06-.02-.09-.07-.13-.14-.6-1.44-1.29-2.67-2.06-3.82-1.74.93-3.37,1.48-4.85,1.77-.12.01-.21.03-.29,0-.07-.02-.13-.08-.16-.17-.15-.39-.41-.73-.72-1.06,2.09-.32,3.42-.79,5-1.61,1.11-.59,2.01-1.2,3.1-2.18l-2.97-.96c-.6-.2-1.2-.37-1.84-.52-.1-.02-.1-.11-.08-.24.02-.26.16-.83.29-1.23.6.25,1.18.44,1.93.68l3.16,1.03Z"/>
        <path d="M91.74,85.57c-.66.21-1.35.47-2.01.73-.13.06-.21-.01-.26-.11-.19-.29-.44-.85-.6-1.18.8-.19,1.44-.37,2.37-.66l4.95-1.56c.48-.15.67-.24.77-.32.05-.04.14-.13.19-.15.09-.03.21.01.32.08.32.14.62.31.92.51.08.05.14.11.16.18.03.09,0,.19-.08.29-.1.13-.15.28-.21.43-.28.99-.75,2.01-1.33,2.86-.05.09-.12.15-.21.18-.09.03-.21.02-.31-.03-.36-.14-.69-.18-1.11-.17.71-.98,1.11-1.65,1.43-2.67l-4.98,1.57ZM93.8,89.87c.18-.96.06-1.78-.29-2.9-.13-.43-.24-.68-.46-1.05.58-.12,1.21-.23,1.56-.25.16-.01.23.05.26.16.02.07.02.15,0,.23-.03.19,0,.31.04.51.32,1.13.52,2.19.32,3.38-.18,1.01-.61,2.04-1.38,2.95-.08.1-.17.18-.29.22-.08.03-.17.02-.26-.03-.35-.15-.75-.23-1.23-.26,1.05-1.05,1.51-1.88,1.72-2.96Z"/>
        <path d="M106.66,79.84c.42-.13.62-.21.76-.35.04-.05.07-.07.11-.09.07-.02.14,0,.23.03.33.12.69.34,1,.57.05.05.09.09.1.13.02.07,0,.17-.08.28-.11.17-.21.39-.27.64-.22.96-.47,1.74-.8,2.62,1.36.47,2.67,1.05,4.07,1.79.08.04.13.09.14.13.01.05,0,.11-.03.2-.14.33-.31.69-.53,1.03-.03.06-.07.1-.12.11-.06.02-.11,0-.19-.04-1.32-.82-2.6-1.42-3.9-1.92-.87,1.77-1.88,3.16-2.92,4.26-.09.08-.16.15-.24.18-.07.02-.15,0-.23-.04-.35-.23-.76-.36-1.2-.44,1.51-1.48,2.33-2.63,3.13-4.22.56-1.13.94-2.14,1.26-3.58l-2.97.95c-.6.19-1.19.4-1.8.64-.09.04-.15-.03-.21-.15-.13-.22-.35-.76-.48-1.17.64-.15,1.21-.33,1.96-.57l3.17-1Z"/>
        <path d="M119.04,76.33c.33-.12.46-.23.58-.37.06-.08.11-.12.17-.14s.14,0,.24.03c.3.07.72.28,1,.46.09.05.14.11.16.18.02.07,0,.15-.06.26-.08.14-.16.29-.21.55-.19,1.14-.43,2.25-.82,3.32.59.23,1.16.5,1.61.77.06.03.1.08.12.14.01.05,0,.11-.02.17-.1.25-.34.73-.49.95-.04.05-.07.09-.12.1-.03.01-.09,0-.15-.03-.38-.24-.98-.55-1.47-.77-.78,1.64-1.68,2.91-2.77,4.04-.09.09-.16.17-.26.19-.07.02-.15,0-.25-.04-.46-.18-.83-.23-1.28-.24,1.5-1.47,2.39-2.67,3.26-4.46-.55-.22-1.18-.41-2-.56.17-.36.31-.73.5-1.06.03-.06.07-.11.12-.13.03-.01.08,0,.13.01.48.06,1.09.24,1.78.45.33-.89.52-1.77.63-2.71l-2.84.96c-.56,1.51-1.06,2.54-1.65,3.37-.06.08-.12.15-.2.18-.06.02-.13.02-.21-.02-.35-.12-.7-.18-1.14-.23,1.21-1.79,1.74-3.12,2.12-4.65.17-.74.23-1.1.18-1.61.44.02,1.1.02,1.53.14.11.02.16.08.18.14.03.08,0,.19-.07.27-.08.1-.13.22-.17.32-.04.19-.07.33-.18.69l2.01-.68Z"/>
        <path d="M127.06,78.31c-1.14.36-1.54.64-1.65.67-.14.04-.25,0-.34-.16-.14-.25-.38-.77-.61-1.34.79-.12,1.37-.28,2.53-.64l3.71-1.17c.88-.28,1.76-.58,2.64-.87.17-.07.21-.04.26.1.13.34.25.73.34,1.08.04.14.01.2-.15.24-.87.26-1.73.52-2.58.79l-4.15,1.31Z"/>
        <path d="M137.89,72.88c.09-.8.08-1.44-.02-1.87.65.02,1.24.07,1.61.14.12.01.17.07.2.14.03.08,0,.18-.04.27-.09.17-.13.36-.18.83-.2,1.75-.51,3.14-1.25,4.65-.07.15-.15.24-.27.27-.09.03-.18.02-.3-.03-.29-.11-.72-.18-1.17-.18.87-1.45,1.29-3.03,1.42-4.22ZM141.71,69.96c.04-.06.09-.11.14-.12.06-.02.11-.01.2.04,1.65.86,3.09,2.06,4.22,3.32.05.05.08.09.1.15.02.07,0,.14-.06.22-.16.24-.46.6-.76.91-.13.12-.22.12-.31-.02-1.46-1.66-2.74-2.74-4.26-3.59.33-.41.57-.72.73-.91Z"/>
        <path d="M153.83,65.72c.54-.17.7-.26.82-.4.04-.05.09-.09.14-.11.09-.03.2-.01.29.04.28.1.71.29,1,.47.08.04.12.09.13.15.03.09,0,.19-.04.29-.1.2-.08.43-.08.65.02,1.3-.03,2.59-.39,3.85-.34,1.25-1.14,2.7-2.09,3.76-.05.07-.1.11-.16.13-.08.03-.16,0-.28-.04-.43-.13-.81-.16-1.32-.16,1.34-1.41,1.99-2.49,2.39-3.91.34-1.18.43-2.31.33-3.64l-5.01,1.58.3.97c.15.46.32.93.47,1.38.06.18.03.23-.12.28-.34.13-.71.25-1.06.33-.15.05-.2.02-.24-.12-.17-.59-.28-.98-.43-1.44l-.29-.93c-.12-.37-.25-.78-.38-1.11-.04-.1.01-.17.11-.2.55-.15,1.19-.34,1.76-.52l1.18-.37-.14-.45c-.19-.61-.34-1.08-.6-1.5.58-.13,1.14-.24,1.48-.28.25-.03.35.08.32.29,0,.18-.01.45.14.93l.17.55,1.54-.49Z"/>
        <path d="M164.29,61.71c.42-.13.62-.21.76-.35.04-.05.07-.07.11-.09.07-.02.14,0,.22.03.33.12.69.34,1,.57.05.05.09.09.1.13.02.07,0,.16-.08.28-.11.17-.21.39-.27.64-.22.96-.47,1.74-.8,2.62,1.36.47,2.67,1.05,4.07,1.79.08.04.13.09.14.13.01.05,0,.11-.03.2-.14.33-.31.69-.53,1.03-.03.06-.07.1-.12.11-.06.02-.11,0-.19-.04-1.32-.83-2.6-1.42-3.9-1.92-.87,1.77-1.88,3.16-2.92,4.26-.09.08-.16.15-.24.18-.07.02-.15,0-.23-.04-.35-.23-.76-.36-1.2-.44,1.51-1.48,2.33-2.63,3.13-4.22.56-1.13.93-2.14,1.26-3.58l-2.97.95c-.6.19-1.19.4-1.8.64-.09.04-.15-.03-.21-.15-.13-.22-.35-.76-.48-1.17.64-.15,1.21-.33,1.96-.57l3.17-1Z"/>
        <path d="M175.74,59.15c.35,2.04.43,3.99.12,5.42-.22,1.02-.68,1.67-1.54,1.94-1.01.32-2.38-.44-2.97-2.32-.35-1.11-.21-2.32.36-3.41.66-1.27,1.73-2.16,3.28-2.65,2.77-.87,4.93.32,5.65,2.62.67,2.14-.11,3.87-2.23,5.31-.22.15-.34.13-.56-.05-.19-.16-.51-.34-1.04-.47,1.8-1.07,3.08-2.36,2.4-4.54-.43-1.37-1.88-2.35-3.42-1.86h-.05ZM172.78,61.31c-.36.8-.46,1.68-.23,2.42.33,1.06.94,1.51,1.3,1.4.3-.09.51-.32.64-.98.21-1.09.21-2.92-.08-4.51-.76.42-1.3.94-1.64,1.67Z"/>
        </g>

        <rect class="uuid-d7c13fd4-9a6a-4a7c-85bf-66f732c5ffd5" y="0" width="375" height="194.45"/></g>
    </svg>