<?xml version="1.0" encoding="UTF-8"?>
<svg id="_レイヤー_2" data-name="レイヤー 2" xmlns="http://www.w3.org/2000/svg" viewBox="0 0 50 50">
  <g id="_レイヤー_1-2" data-name="レイヤー 1">
    <g>
      <rect width="50" height="50" style="fill: none;"/>
      <path d="M18.8,10.14c-1.59.08-2.68.33-3.63.7-.98.38-1.82.9-2.65,1.73-.83.83-1.34,1.67-1.72,2.65-.37.95-.62,2.04-.69,3.63-.07,1.6-.09,2.11-.08,6.17,0,4.06.03,4.57.1,6.17.08,1.59.33,2.68.7,3.63.38.98.9,1.82,1.73,2.65.83.83,1.67,1.34,2.65,1.72.95.37,2.04.62,3.63.69,1.6.07,2.11.09,6.17.08,4.06,0,4.57-.03,6.17-.1,1.59-.08,2.68-.33,3.63-.7.98-.38,1.82-.9,2.65-1.73.83-.83,1.34-1.67,1.72-2.65.37-.95.62-2.04.69-3.63.07-1.6.09-2.11.08-6.17,0-4.06-.03-4.57-.1-6.17-.08-1.59-.33-2.68-.7-3.63-.38-.98-.9-1.82-1.73-2.65-.83-.83-1.67-1.34-2.65-1.72-.95-.37-2.04-.62-3.63-.69-1.6-.07-2.11-.09-6.17-.08-4.06,0-4.57.03-6.17.1M18.98,37.19c-1.46-.06-2.25-.31-2.78-.51-.7-.27-1.2-.59-1.72-1.12-.52-.52-.85-1.02-1.12-1.72-.21-.53-.45-1.32-.52-2.78-.07-1.58-.09-2.05-.1-6.05,0-3.99,0-4.47.08-6.05.06-1.46.31-2.25.51-2.78.27-.7.59-1.2,1.12-1.72.52-.53,1.02-.85,1.72-1.12.53-.21,1.32-.45,2.78-.52,1.58-.07,2.05-.09,6.05-.1,4,0,4.47,0,6.05.08,1.46.06,2.25.3,2.78.51.7.27,1.2.59,1.72,1.12.52.52.85,1.02,1.12,1.72.21.53.45,1.32.52,2.78.08,1.58.09,2.05.1,6.05,0,4,0,4.47-.08,6.05-.06,1.46-.31,2.25-.51,2.78-.27.7-.59,1.2-1.12,1.72-.52.52-1.02.85-1.72,1.12-.53.21-1.32.45-2.78.52-1.58.07-2.05.09-6.05.1-3.99,0-4.47,0-6.05-.08M31.18,17c0,.99.81,1.79,1.8,1.79.99,0,1.79-.81,1.79-1.8,0-.99-.81-1.79-1.8-1.79-.99,0-1.79.81-1.79,1.8M17.32,25.01c0,4.24,3.46,7.68,7.7,7.67,4.24,0,7.68-3.45,7.67-7.7,0-4.24-3.46-7.68-7.7-7.67-4.24,0-7.68,3.46-7.67,7.7M20.01,25.01c0-2.75,2.22-4.99,4.98-5,2.75,0,4.99,2.22,5,4.98,0,2.76-2.22,4.99-4.98,5-2.75,0-4.99-2.22-5-4.98"/>
    </g>
  </g>
</svg>