<?xml version="1.0" encoding="UTF-8"?>
<svg id="_レイヤー_2" data-name="レイヤー 2" xmlns="http://www.w3.org/2000/svg" viewBox="0 0 75 50">
  <g id="_レイヤー_1-2" data-name="レイヤー 1">
    <g>
      <path d="M35.08,18.09c-2.28,0-3.07.05-3.22.05-.24,0-.26-.02-.26-.26v-1.78c0-.24.02-.26.26-.26.14,0,.94.05,3.22.05h6.7c2.3,0,3.1-.05,3.24-.05.24,0,.26.02.26.26v1.78c0,.24-.02.26-.26.26-.14,0-.94-.05-3.24-.05h-2.3v8.4h2.88c2.33,0,3.14-.05,3.26-.05.24,0,.26.02.26.29v1.8c0,.24-.02.26-.26.26-.12,0-.94-.05-3.26-.05h-2.88v3.53c0,2.83.05,3.96.05,4.1,0,.22-.02.24-.26.24h-2.06c-.24,0-.26-.02-.26-.24,0-.17.05-1.27.05-4.1v-3.53h-2.35c-1.94,0-2.83.05-3.14.05,0,.19,0,.38.02.58q.05.72-.6,1.03c-1.51.74-3.26,1.46-4.87,2.06-.41.14-.7.29-.79.36-.12.1-.26.19-.41.19s-.24-.07-.36-.31c-.24-.6-.43-1.27-.65-2.11.84-.14,1.51-.31,2.38-.6l.67-.22v-6.77h-.26c-1.61,0-2.09.05-2.23.05-.22,0-.24-.02-.24-.26v-1.82c0-.24.02-.26.24-.26.14,0,.62.05,2.23.05h.26v-2.14c0-1.7-.02-2.45-.19-3.62.94.02,1.68.07,2.47.14.24.02.38.14.38.26,0,.17-.07.31-.14.48-.12.31-.14.91-.14,2.69v2.18c1.42,0,1.9-.05,2.04-.05.22,0,.24.02.24.26v1.82c0,.24-.02.26-.24.26-.14,0-.62-.05-2.04-.05v5.86c.6-.24,1.22-.53,1.85-.84v-1.3c0-.26.02-.29.24-.29.14,0,.94.05,3.29.05h2.35v-8.4h-1.9ZM33.49,19.39c.26-.12.29-.1.43.14.77,1.44,1.34,3.02,1.73,4.63.05.26.02.29-.29.41l-1.46.55c-.31.14-.38.12-.43-.14-.36-1.61-.94-3.38-1.61-4.66-.12-.24-.1-.26.22-.38l1.42-.55ZM42.4,20.47c.1-.29.19-.74.26-1.25.65.19,1.68.53,2.14.72.19.07.29.17.29.34,0,.14-.12.24-.22.34-.1.1-.22.34-.31.55-.43,1.15-1.01,2.42-1.66,3.6-.22.38-.29.55-.46.55-.12,0-.29-.1-.58-.24-.48-.26-.96-.46-1.32-.53.74-1.27,1.44-2.86,1.85-4.08Z" style="fill: #231815;"/>
      <polyline points="59.2 29.22 59.2 47.34 28.71 47.34 28.71 41 9.07 41 9.07 2.93 59.2 2.93 59.2 17.08 72.97 24.71" style="fill: none; stroke: #c91933; stroke-miterlimit: 10;"/>
      <rect width="75" height="50" style="fill: none;"/>
    </g>
  </g>
</svg>