<?xml version="1.0" encoding="UTF-8"?><svg id="uuid-1a0a1a7d-a14d-4f6b-9425-82440fef71f2" xmlns="http://www.w3.org/2000/svg" width="375" height="41.73" viewBox="0 0 375 41.73"><defs><style>.uuid-0f56c08b-4003-4fc6-9786-fb522736b093{fill:none;}.uuid-e173f7b0-8f6d-4af8-a843-b93f2aad43f1{fill:#b11f3a;}</style></defs><g id="uuid-9eb978cb-8486-46d5-bb3c-33548d0d2c29"><path class="uuid-e173f7b0-8f6d-4af8-a843-b93f2aad43f1" d="M230.6,8.57l-.18,2.06h1.77v1.41h-1.88l-.19,2.2h-.74l.19-2.2h-1.58l-.19,2.2h-.73l.18-2.2h-1.67v-1.41h1.79l.18-2.06h-1.74v-1.41h1.86l.19-2.2h.74l-.19,2.2h1.58l.18-2.2h.74l-.18,2.2h1.69v1.41h-1.82ZM228.3,8.57l-.18,2.06h1.57l.18-2.06h-1.56Z"/><path class="uuid-e173f7b0-8f6d-4af8-a843-b93f2aad43f1" d="M237.95,9.31c-.66-.5-2.18-1.12-2.85-1.31l.53-1.07c1.2.45,1.9.74,2.9,1.36l-.59,1.02ZM241.98,11.22c-1.59,1.5-2.62,2.1-4.75,3.32-.17.25-.23.37-.36.37-.06,0-.1-.03-.25-.23l-.88-1.16c1.34-.33,2.55-1.04,3.69-1.81,1.64-1.11,3.4-2.94,4.38-4.58l.78,1.11c-.71,1.11-1.64,2.07-2.61,2.98ZM239.41,6.31c-.64-.43-2.19-1.18-2.9-1.44l.52-1.03c.29.13.74.31,1.45.66.92.45,1.17.64,1.43.83l-.5.98Z"/><path class="uuid-e173f7b0-8f6d-4af8-a843-b93f2aad43f1" d="M253.81,13.66h-4.34c-.93,0-1.9.03-2.91.1v-.98c.94.04,1.55.06,1.98.06h3.16l.57-4.08h-2.05c-.97,0-1.27.01-2,.09v-1.02c.94.09,1.6.09,1.81.09h3.41l-.71,4.93c1.07,0,1.65-.04,2.57-.1v.94c-.48-.01-.89-.03-1.49-.03Z"/><path class="uuid-e173f7b0-8f6d-4af8-a843-b93f2aad43f1" d="M263.8,9.95h-2.91c-.17,0-2.07,0-3.35.15v-1.39c.95.14,2.1.15,3.35.15h2.91c1.12,0,2.24-.01,3.35-.15v1.39c-1.11-.14-2.6-.15-3.35-.15Z"/><path class="uuid-e173f7b0-8f6d-4af8-a843-b93f2aad43f1" d="M277.73,13.91c-.64-1.17-2-2.61-3.36-3.47-1.65,1.97-3.18,2.81-4.61,3.51l-.99-1.09c1.2-.46,2.96-1.22,4.45-2.92.56-.64,1.71-2.24,2.28-3.78h-2.85c-.28,0-2.06.08-2.32.13-.08.01-.14.03-.22.04v-1.34c.45.06,1.62.1,2.09.1h2.55c1.41,0,1.56-.1,1.91-.38l.99,1.04c-.55.36-.61.39-.78.7-1.32,2.41-1.39,2.52-1.76,3.04,1.59,1.06,2.9,2.39,3.64,3.47l-1.03.94ZM279.09,6.77c-.52-.59-.65-.73-1.2-1.2l.6-.66c.18.15.55.43.74.65.38.43.43.47.5.55l-.64.66ZM279.8,5.16c-.18-.2-.62-.73-1.21-1.16l.6-.62c.43.32.73.59,1.23,1.11l-.62.67Z"/><path class="uuid-e173f7b0-8f6d-4af8-a843-b93f2aad43f1" d="M289.96,6.92c-1.01,2.93-2.51,6.07-6.11,7.98l-1.13-.92c.97-.42,2.44-1.08,3.96-3.07,1.43-1.88,1.77-3.42,1.93-4.19h-3.89c-.62.97-1.35,1.97-2.51,3l-1.04-.74c.36-.28,1.25-.95,2.24-2.46.46-.71,1.08-1.73,1.23-2.47l1.39.61c.09.04.18.09.18.18,0,.13-.15.2-.2.22-.17.05-.22.04-.37.19-.15.15-.14.2-.33.52h2.01c1.54,0,1.73-.08,2.07-.25l.94.99c-.2.22-.22.23-.37.39Z"/><path class="uuid-e173f7b0-8f6d-4af8-a843-b93f2aad43f1" d="M300.9,13.61c.05-.27.05-.32.09-.76h-6.2c0,.19,0,.52.03.74h-1.45c.04-.33.1-.88.1-1.65.01-1.23.01-1.37.01-1.51v-2.65c0-.39-.04-2.34-.06-2.67.75.08,2.34.1,3.13.1h2.74c.9,0,2.25-.01,3.13-.06-.05.66-.08,2.16-.08,2.88v2.52c0,.25.04,1.35.04,1.58.01.9.06,1.21.11,1.5h-1.59ZM301.04,6.37h-6.26v5.34h6.26v-5.34Z"/><path class="uuid-e173f7b0-8f6d-4af8-a843-b93f2aad43f1" d="M311.86,9.95h-2.91c-.17,0-2.07,0-3.35.15v-1.39c.95.14,2.1.15,3.35.15h2.91c1.12,0,2.24-.01,3.35-.15v1.39c-1.11-.14-2.6-.15-3.35-.15Z"/><path class="uuid-e173f7b0-8f6d-4af8-a843-b93f2aad43f1" d="M327.73,8.41c-.18.15-.31.36-.61.83-1.3,2-1.35,2.07-1.81,2.56l-1.15-.61c.93-.98,1.53-1.92,1.93-2.72l-3.7.37v2.79c0,.22,0,.78.22,1.13.23.38,1.09.41,1.54.41.52,0,1.44-.05,2.32-.17.41-.05.6-.1.89-.19l.03,1.29c-1.09.14-2.2.22-3.31.22-.81,0-2.07-.01-2.56-.69-.37-.53-.37-.95-.37-1.92v-2.74c-.45.05-1.15.1-1.59.17-.78.1-1.07.18-1.37.24l-.18-1.41c.78.04,2.32-.04,3.14-.09,0-1.51-.06-2.56-.11-3.3l1.49.17c.08,0,.34.04.34.24,0,.06-.03.11-.08.15-.08.06-.22.14-.29.19-.04.6-.1,1.43-.1,2.46l1.97-.13c.71-.05,1.43-.1,2.11-.24.22-.05.38-.13.67-.29l1.09.99c-.08.05-.45.25-.52.31ZM327.23,6.47c-.14-.11-.73-.64-.85-.74-.2-.15-.36-.25-.55-.38l.56-.65c.53.3,1.06.65,1.45,1.12l-.61.65ZM328.53,5.6c-.74-.74-1.04-.97-1.31-1.17l.56-.56c.46.25.85.53,1.34,1.08l-.59.65Z"/><path class="uuid-e173f7b0-8f6d-4af8-a843-b93f2aad43f1" d="M332.55,10.09c-.2-.48-.52-1.23-1.12-2.01l.95-.32c.47.65.79,1.21,1.12,1.97l-.95.36ZM339.27,8.01c-.13.04-.19.09-.24.15-.04.06-.41,1.3-.5,1.54-1.29,3.3-3.19,4.34-4.61,5.04l-.84-.78c.88-.37,2.3-.97,3.47-2.63,1.09-1.57,1.32-3.17,1.48-4.12l.99.37c.25.09.39.18.39.28,0,.09-.06.13-.15.15ZM335.04,9.54c-.18-.5-.46-1.25-1.08-2.04l.95-.33c.56.79.84,1.42,1.08,2.06l-.95.3Z"/><path class="uuid-e173f7b0-8f6d-4af8-a843-b93f2aad43f1" d="M348.2,11.47c-.69-.69-1.83-1.83-3.77-2.63v2.11c0,.75.05,2.98.14,3.63h-1.54c.09-.64.1-1.6.1-1.87.01-.29.05-1.58.05-1.84v-3.32c0-.5-.04-1.86-.08-2.33-.03-.33-.06-.56-.13-.84l1.69.11c.08,0,.24.03.24.19,0,.13-.14.22-.42.38-.05.79-.06,1.58-.06,2.35v1.41l.6-1.13c1.76.8,3.46,2.09,4.01,2.77l-.84,1Z"/><path class="uuid-e173f7b0-8f6d-4af8-a843-b93f2aad43f1" d="M133.35,27.19h-7.59v5.69h8.87v2.56h-12.09v-18.48h12v2.59h-8.79v5.1h7.59v2.54Z"/><path class="uuid-e173f7b0-8f6d-4af8-a843-b93f2aad43f1" d="M141.15,21.7l.09,1.59c1.02-1.23,2.35-1.84,4-1.84,2.86,0,4.32,1.64,4.37,4.91v9.08h-3.08v-8.9c0-.87-.19-1.52-.57-1.94-.38-.42-.99-.63-1.85-.63-1.24,0-2.17.56-2.78,1.69v9.78h-3.08v-13.74h2.91Z"/><path class="uuid-e173f7b0-8f6d-4af8-a843-b93f2aad43f1" d="M157.98,18.36v3.34h2.42v2.29h-2.42v7.67c0,.52.1.9.31,1.14.21.23.58.35,1.11.35.36,0,.71-.04,1.08-.13v2.39c-.7.19-1.38.29-2.03.29-2.37,0-3.55-1.31-3.55-3.92v-7.78h-2.26v-2.29h2.26v-3.34h3.08Z"/><path class="uuid-e173f7b0-8f6d-4af8-a843-b93f2aad43f1" d="M171.26,24.52c-.41-.07-.83-.1-1.26-.1-1.41,0-2.37.54-2.86,1.62v9.39h-3.08v-13.74h2.95l.08,1.54c.74-1.19,1.78-1.79,3.1-1.79.44,0,.8.06,1.09.18v2.89Z"/><path class="uuid-e173f7b0-8f6d-4af8-a843-b93f2aad43f1" d="M182.82,35.44c-.14-.26-.25-.69-.36-1.28-.98,1.02-2.18,1.54-3.61,1.54s-2.51-.39-3.38-1.18c-.87-.79-1.31-1.76-1.31-2.92,0-1.46.54-2.59,1.63-3.37,1.09-.78,2.64-1.17,4.67-1.17h1.89v-.9c0-.71-.2-1.28-.6-1.71-.4-.43-1-.64-1.82-.64-.7,0-1.28.18-1.73.53-.45.35-.67.8-.67,1.34h-3.08c0-.75.25-1.46.75-2.11.5-.66,1.18-1.17,2.04-1.54s1.82-.56,2.88-.56c1.61,0,2.89.4,3.85,1.21.96.81,1.45,1.94,1.47,3.41v6.2c0,1.24.17,2.22.52,2.96v.22h-3.15ZM179.43,33.22c.61,0,1.18-.15,1.72-.44s.94-.69,1.21-1.19v-2.59h-1.66c-1.14,0-2,.2-2.58.6-.58.4-.86.96-.86,1.69,0,.59.2,1.06.59,1.42.39.35.92.53,1.58.53Z"/><path class="uuid-e173f7b0-8f6d-4af8-a843-b93f2aad43f1" d="M192.87,21.7l.09,1.59c1.02-1.23,2.35-1.84,4-1.84,2.86,0,4.32,1.64,4.37,4.91v9.08h-3.08v-8.9c0-.87-.19-1.52-.56-1.94-.38-.42-.99-.63-1.85-.63-1.24,0-2.17.56-2.78,1.69v9.78h-3.08v-13.74h2.91Z"/><path class="uuid-e173f7b0-8f6d-4af8-a843-b93f2aad43f1" d="M211.46,33.23c.77,0,1.41-.22,1.92-.67s.78-1,.81-1.66h2.91c-.03.85-.3,1.65-.8,2.39-.5.74-1.18,1.33-2.03,1.76s-1.78.65-2.77.65c-1.92,0-3.44-.62-4.57-1.87s-1.69-2.96-1.69-5.15v-.32c0-2.09.56-3.76,1.68-5.02,1.12-1.26,2.64-1.88,4.57-1.88,1.63,0,2.96.48,3.99,1.43,1.03.95,1.57,2.2,1.62,3.75h-2.91c-.03-.79-.3-1.43-.81-1.94-.5-.51-1.14-.76-1.92-.76-1,0-1.77.36-2.31,1.08-.54.72-.82,1.82-.83,3.29v.5c0,1.49.27,2.6.81,3.33.54.73,1.31,1.1,2.33,1.1Z"/><path class="uuid-e173f7b0-8f6d-4af8-a843-b93f2aad43f1" d="M226.86,35.69c-1.96,0-3.54-.62-4.75-1.85-1.21-1.23-1.82-2.87-1.82-4.92v-.38c0-1.37.26-2.6.79-3.67.53-1.08,1.27-1.92,2.23-2.52s2.02-.9,3.2-.9c1.87,0,3.32.6,4.34,1.79s1.53,2.88,1.53,5.07v1.24h-8.98c.09,1.13.47,2.03,1.14,2.69s1.5.99,2.51.99c1.41,0,2.56-.57,3.45-1.71l1.66,1.59c-.55.82-1.28,1.46-2.2,1.91-.92.45-1.95.68-3.09.68ZM226.49,23.92c-.85,0-1.53.3-2.05.89s-.85,1.42-1,2.48h5.88v-.23c-.07-1.03-.34-1.81-.83-2.34-.48-.53-1.15-.79-2.01-.79Z"/><rect class="uuid-0f56c08b-4003-4fc6-9786-fb522736b093" width="375" height="41.73"/></g></svg>