<?xml version="1.0" encoding="UTF-8"?><svg id="uuid-668273f2-db9a-4da5-9651-51542f692f23" xmlns="http://www.w3.org/2000/svg" width="375" height="47.5" viewBox="0 0 375 47.5"><defs><style>.uuid-467f64d3-0514-4609-88cd-cfdcb5eedb13{fill:none;}.uuid-7f41a6b2-637e-4e27-a967-526ac27c2809{fill:#b11f3a;}</style></defs><g id="uuid-c92eb5a9-c822-4d81-a7b1-6d74ae9142b7"><path class="uuid-7f41a6b2-637e-4e27-a967-526ac27c2809" d="M236.78,36.25l-.17,1.94h1.67v1.33h-1.78l-.18,2.07h-.7l.18-2.07h-1.49l-.18,2.07h-.68l.17-2.07h-1.57v-1.33h1.69l.17-1.94h-1.64v-1.33h1.75l.18-2.08h.7l-.18,2.08h1.49l.17-2.08h.7l-.17,2.08h1.6v1.33h-1.72ZM234.61,36.25l-.17,1.94h1.48l.17-1.94h-1.48Z"/><path class="uuid-7f41a6b2-637e-4e27-a967-526ac27c2809" d="M245.23,33.21v1.27c0,.16.04,1.09.05,1.3-.17,0-.25-.01-.97-.05-.13,0-.73-.02-.85-.02h-1.56v4.27c0,.73.05,1.79.12,2.52h-1.37c.1-1.19.13-2.33.13-2.6v-6.39c0-.4-.02-1.37-.05-1.69.42.05.65.07,1.76.07h1.21c.47,0,1.16-.02,1.6-.06-.06.76-.07,1.38-.07,1.39ZM244.11,32.72h-2.22v.67h2.22v-.67ZM244.11,34.22h-2.22v.7h2.22v-.7ZM246.63,40.79h-2.27c.01.17.02.34.05.48h-1.26c.04-.34.06-1.31.06-1.69v-1.45c0-.25-.01-1.07-.06-1.69.49.04,1.24.06,1.74.06h1.62c.26,0,1.62-.04,1.86-.06,0,.01-.05,1.25-.05,1.56v1.27c0,.68.06,1.37.08,1.6-.42-.04-1.38-.07-1.78-.07ZM247.16,37.38h-2.81v.85h2.81v-.85ZM247.16,39.02h-2.81v.88h2.81v-.88ZM250.74,33.74v7.6c.05.79-.48.97-.68,1.03-.31.1-.5.11-1.49.12l-.62-1.22c.52.07.89.12,1.14.12.18,0,.54,0,.54-.67v-5.01h-1.71c-.29,0-.92.01-1.69.06.05-.64.06-1.28.06-1.44v-1.22c0-.28-.02-1.04-.04-1.3.55.06,1.38.07,1.4.07h1.44c.61,0,.9-.02,1.74-.1-.06.67-.08,1.45-.08,1.96ZM249.62,32.72h-2.23v.67h2.23v-.67ZM249.62,34.22h-2.23v.7h2.23v-.7Z"/><path class="uuid-7f41a6b2-637e-4e27-a967-526ac27c2809" d="M262.52,36.37h-3.01l.72.24c.06.02.13.06.13.13,0,.12-.18.16-.3.18-.06.13-.23.5-.34.76h1.54c.52,0,1.63-.02,2.43-.07v1.01c-.47-.02-.59-.02-1.61-.05-.18.88-.43,1.33-.68,1.73.68.34,1.28.72,1.87,1.19l-.67.95c-.13-.11-.2-.16-.84-.64-.28-.22-.61-.42-1.07-.67-1.2,1.06-2.36,1.19-4.01,1.35l-.59-1.02c1.8-.02,2.79-.17,3.66-.79-.67-.29-1.18-.44-1.38-.52-.11.16-.19.26-.35.46l-1.12-.47c.47-.46.82-1,1.14-1.57-1.08.02-1.2.02-1.67.05v-1.01c.79.04,1.98.06,2.12.06.1-.19.41-.88.52-1.3-.11,0-1.12.04-2.22.11v.76c-.28.14-.61.32-1.37.7v3.48c0,.72-.2,1.06-1.81,1.01l-.59-1.18c.36.07.64.1.86.1.43,0,.49-.13.49-.5v-2.43c-.55.23-.65.26-.91.37-.02.12-.05.29-.16.29-.05,0-.11-.02-.14-.16l-.3-1.09c.83-.26,1.2-.4,1.51-.52v-2.34h-.74c-.38,0-.43,0-.64.04v-1.1c.16.04.2.04.6.04h.76c0-.4,0-.86-.01-.89-.05-1.02-.05-1.13-.06-1.39l1.22.05c.06,0,.18.01.18.11,0,.11-.08.17-.23.28,0,.29-.04,1.58-.02,1.85.73,0,.8,0,1.36-.05v1.1c-.22-.01-.6-.04-1.37-.02v1.92c.31-.13.68-.29.96-.42v-1.01c.65.07,1.32.07,1.98.07-.13-.54-.29-1.01-.65-1.76-.25.01-.72.04-.94.05v-1.02c.71.05,1.69.07,2.16.07h.47c0-.92,0-.98-.01-1.3l1.27.14s.14.01.14.11c0,.08-.06.13-.22.22-.04.37-.05.49-.05.83h.54c.47,0,1.45-.02,2.16-.07v1.02c-.17-.01-.84-.04-1.07-.05-.08.29-.28.92-.65,1.72.24,0,1.81-.11,2.16-.12v1.04c-.17,0-.26-.02-1.19-.02ZM258.95,33.73h-.18c.26.56.44,1.02.64,1.74h1.18c.18-.53.31-1.01.44-1.74h-2.08ZM259.31,38.55c-.1.17-.38.7-.44.8,1.08.34,1.2.37,1.61.53.31-.49.44-.91.53-1.33h-1.69Z"/><path class="uuid-7f41a6b2-637e-4e27-a967-526ac27c2809" d="M267.6,40.42c-.34,1.08-.86,1.7-1.21,2.1l-1.07-.67c.67-.61,1.09-1.3,1.28-2.21l1.1.41c.13.05.23.1.23.18,0,.16-.28.18-.34.19ZM268.76,38.83c.02-.16.02-.2.04-.38h-1.74c.01.17.01.22.02.38h-1.18c.05-.55.1-1.03.1-2.16v-2.63c0-.32,0-.47-.06-2.06.3.02.74.06,1.45.06h1.2c.43,0,.68,0,1.31-.06-.02.72-.05,1.37-.05,2.03v2.58c0,.76.04,1.5.1,2.24h-1.19ZM268.82,33h-1.79v1.75h1.79v-1.75ZM268.82,35.71h-1.79v1.76h1.79v-1.76ZM268.91,42.27c.02-.47.02-1.39-.4-2.25l1.09-.24c.22.52.47,1.25.52,2.17l-1.21.32ZM275.23,35.05c-.46.56-1.31.52-1.69.49l-.54-1.13c.36.05.5.06.67.06.65,0,.9-.11,1.04-1.55h-1.68c-.14,1.07-.54,1.9-1.77,2.79.1,0,.86.02.96.02h2.3s1.19-.04,1.32-.05c-.01.24-.05.88-.05,1.1v.83c0,.62,0,.73.06,1.62h-1.13v-.38s-3.02,0-3.02,0l.04.38h-1.14c.01-.35.05-1.32.05-1.62v-.89c0-.14-.02-.79-.02-.94l-.74-.67c.52-.16,1.8-.56,2.1-2.21-.41,0-.68.01-1.69.06v-1.03c.76.05,1.09.06,2.15.06h1.6c.42,0,1.65-.05,1.88-.06-.05.79-.22,2.53-.68,3.09ZM271.61,42.13c-.04-.46-.12-1.3-.62-2.1l1.06-.29c.46.59.71,1.38.79,2.12l-1.22.26ZM274.76,36.62h-3.08v1.37h3.08v-1.37ZM275.08,42.38c-.47-.96-.95-1.66-1.75-2.45l1.01-.54c.8.71,1.28,1.26,1.77,2.21l-1.03.78Z"/><path class="uuid-7f41a6b2-637e-4e27-a967-526ac27c2809" d="M280.71,39.09h-1.49c.01.55.01.62.05.89h-1.24c.06-.9.11-1.79.11-2.69v-2.89c0-.16-.02-2.01-.02-2.29.28,0,1.2.01,1.37.01h1.76c.18,0,1-.01,1.31-.01,0,.6-.01,1.5-.01,2.11v2.64c0,.71.01,1.3.04,2.28-.78-.02-1.27-.05-1.87-.05ZM281.41,33.12h-2.18v2h2.18v-2ZM281.41,36.09h-2.18v2.04h2.18v-2.04ZM287.1,42.44h-.82l-.64-1.25c.6.13,1.07.13,1.14.13.48,0,.56-.18.56-.56v-2.05h-2.99c-.56,2.76-2.54,3.54-3.32,3.85l-.97-.9c3.3-1.06,3.41-3.24,3.41-6.75,0-.64,0-1.83-.06-3,.56.02.95.05,1.45.05h2.06c.24,0,.55-.01.79-.02.52-.04.58-.02.72-.02-.02.91-.05,2.24-.05,2.84v3.78c0,.32.05,1.74.05,2.03,0,1.1,0,1.88-1.34,1.88ZM287.36,35.77h-2.78c-.01.92-.02,1.29-.07,1.92h2.85v-1.92ZM287.36,32.9h-2.78v1.85h2.78v-1.85Z"/><path class="uuid-7f41a6b2-637e-4e27-a967-526ac27c2809" d="M143.63,21.21V4.15h5.85c1.93,0,3.4.39,4.41,1.16s1.51,1.93,1.51,3.46c0,.78-.21,1.48-.63,2.11s-1.04,1.11-1.85,1.45c.92.25,1.63.72,2.14,1.41s.76,1.52.76,2.49c0,1.6-.51,2.83-1.54,3.69s-2.5,1.29-4.41,1.29h-6.22ZM146.59,11.33h2.91c.92,0,1.64-.21,2.16-.63s.78-1.01.78-1.78c0-.84-.24-1.45-.72-1.83s-1.23-.56-2.24-.56h-2.88v4.79ZM146.59,13.51v5.33h3.29c.93,0,1.66-.23,2.18-.69s.79-1.1.79-1.92c0-1.77-.91-2.68-2.72-2.72h-3.54Z"/><path class="uuid-7f41a6b2-637e-4e27-a967-526ac27c2809" d="M165.27,21.45c-1.8,0-3.27-.57-4.39-1.71s-1.68-2.65-1.68-4.54v-.35c0-1.27.24-2.4.73-3.39s1.17-1.77,2.06-2.33,1.87-.83,2.95-.83c1.73,0,3.06.55,4,1.65s1.41,2.66,1.41,4.68v1.15h-8.29c.09,1.05.44,1.88,1.05,2.48s1.38.91,2.31.91c1.3,0,2.37-.53,3.19-1.58l1.54,1.46c-.51.76-1.19,1.35-2.03,1.76s-1.8.63-2.85.63ZM164.93,10.58c-.78,0-1.41.27-1.89.82s-.79,1.31-.92,2.29h5.43v-.21c-.06-.95-.32-1.67-.76-2.16s-1.06-.73-1.85-.73Z"/><path class="uuid-7f41a6b2-637e-4e27-a967-526ac27c2809" d="M173.42,14.78c0-1.95.45-3.52,1.36-4.71s2.12-1.78,3.64-1.78c1.34,0,2.43.47,3.26,1.41V3.21h2.85v18h-2.58l-.14-1.31c-.85,1.03-1.99,1.55-3.41,1.55s-2.69-.6-3.6-1.79-1.38-2.82-1.38-4.88ZM176.26,15.03c0,1.29.25,2.29.74,3.02s1.2,1.08,2.12,1.08c1.16,0,2.02-.52,2.55-1.56v-5.41c-.52-1.02-1.37-1.52-2.53-1.52-.92,0-1.63.37-2.13,1.1s-.75,1.83-.75,3.3Z"/><path class="uuid-7f41a6b2-637e-4e27-a967-526ac27c2809" d="M202.66,14.65h-3.3v6.56h-2.96V4.15h6c1.97,0,3.49.44,4.56,1.33s1.61,2.16,1.61,3.83c0,1.14-.28,2.1-.83,2.87-.55.77-1.32,1.36-2.3,1.78l3.83,7.11v.15h-3.18l-3.42-6.56ZM199.35,12.26h3.05c1,0,1.78-.25,2.34-.76s.84-1.19.84-2.07-.26-1.62-.78-2.12-1.29-.76-2.33-.77h-3.13v5.72Z"/><path class="uuid-7f41a6b2-637e-4e27-a967-526ac27c2809" d="M211.69,14.76c0-1.24.25-2.36.74-3.36s1.18-1.76,2.07-2.3,1.91-.8,3.07-.8c1.71,0,3.1.55,4.17,1.65s1.64,2.56,1.73,4.38v.67c.01,1.25-.23,2.37-.71,3.35s-1.17,1.75-2.06,2.29-1.93.81-3.1.81c-1.79,0-3.22-.6-4.29-1.79s-1.61-2.78-1.61-4.76v-.14ZM214.53,15c0,1.3.27,2.33.81,3.06s1.29,1.11,2.25,1.11,1.71-.38,2.24-1.12.8-1.85.8-3.29c0-1.28-.28-2.3-.83-3.05s-1.3-1.12-2.24-1.12-1.67.37-2.21,1.11-.82,1.84-.82,3.31Z"/><path class="uuid-7f41a6b2-637e-4e27-a967-526ac27c2809" d="M226.58,14.76c0-1.24.25-2.36.74-3.36s1.18-1.76,2.07-2.3,1.91-.8,3.07-.8c1.71,0,3.1.55,4.17,1.65s1.64,2.56,1.73,4.38v.67c.01,1.25-.23,2.37-.71,3.35s-1.17,1.75-2.06,2.29-1.93.81-3.1.81c-1.79,0-3.22-.6-4.29-1.79s-1.61-2.78-1.61-4.76v-.14ZM229.42,15c0,1.3.27,2.33.81,3.06s1.29,1.11,2.25,1.11,1.71-.38,2.24-1.12.8-1.85.8-3.29c0-1.28-.28-2.3-.83-3.05s-1.3-1.12-2.24-1.12-1.67.37-2.21,1.11-.82,1.84-.82,3.31Z"/><path class="uuid-7f41a6b2-637e-4e27-a967-526ac27c2809" d="M244.72,8.53l.08,1.32c.89-1.04,2.11-1.56,3.66-1.56,1.7,0,2.86.65,3.48,1.95.92-1.3,2.22-1.95,3.89-1.95,1.4,0,2.44.39,3.12,1.16s1.03,1.91,1.05,3.42v8.33h-2.85v-8.25c0-.8-.18-1.39-.53-1.77s-.93-.56-1.75-.56c-.65,0-1.18.17-1.59.52s-.7.8-.86,1.37v8.7s-2.84,0-2.84,0v-8.34c-.04-1.49-.8-2.24-2.29-2.24-1.14,0-1.95.46-2.43,1.39v9.19h-2.85v-12.68h2.68Z"/><rect class="uuid-467f64d3-0514-4609-88cd-cfdcb5eedb13" width="375" height="47.5"/></g></svg>