<?xml version="1.0" encoding="UTF-8"?><svg id="uuid-821fd3eb-eaa2-488c-a3a4-9dd9949aab3a" xmlns="http://www.w3.org/2000/svg" width="375" height="155.91" viewBox="0 0 375 155.91"><defs><style>.uuid-c7af6abe-7c42-42e4-99ce-32c38c1ed984,.uuid-a8eeb531-35b0-4e8c-ad9d-d84343efda99{fill:none;}.uuid-56fd3b3c-7725-4e3a-ac07-a2933c7f07cf{fill:#b11f3a;}.uuid-1f8766d8-a95a-40f4-996d-03f547549c43{fill:#1c1c1c;}.uuid-a8eeb531-35b0-4e8c-ad9d-d84343efda99{stroke:#b11f3a;stroke-miterlimit:10;}</style></defs><g id="uuid-d02eab68-185a-4f45-a821-cd72b3592447"><circle class="uuid-a8eeb531-35b0-4e8c-ad9d-d84343efda99" cx="69.58" cy="39.58" r="24.61"/><path class="uuid-56fd3b3c-7725-4e3a-ac07-a2933c7f07cf" d="M58.71,30.63h2.08c.37,0,.7.03.99.1s.55.17.76.32c.21.15.37.34.49.58.11.23.17.52.17.85,0,.35-.07.65-.2.89-.13.24-.31.43-.54.58-.23.15-.49.25-.79.32-.3.07-.62.1-.95.1h-.87v2.64h-1.13v-6.37ZM60.63,33.41c.19,0,.36-.01.53-.04.17-.03.32-.08.45-.14s.24-.16.31-.28c.08-.12.12-.28.12-.47s-.04-.34-.12-.45c-.08-.12-.18-.21-.31-.27-.13-.07-.28-.11-.44-.13-.17-.02-.33-.03-.51-.03h-.83v1.83h.79Z"/><path class="uuid-56fd3b3c-7725-4e3a-ac07-a2933c7f07cf" d="M64.12,34.83c0-.34.06-.65.18-.93.12-.28.29-.52.5-.72.21-.2.46-.35.75-.46.29-.11.59-.16.92-.16s.63.05.92.16c.29.11.54.26.75.46.21.2.38.44.5.72.12.28.18.59.18.93s-.06.65-.18.94c-.12.28-.29.52-.5.72-.21.2-.46.36-.75.47s-.59.17-.92.17-.63-.06-.92-.17-.54-.27-.75-.47c-.21-.2-.38-.44-.5-.72-.12-.28-.18-.59-.18-.94ZM65.22,34.83c0,.17.03.34.08.5.05.17.13.32.23.45.1.13.23.24.39.32.16.08.34.13.56.13s.4-.04.56-.13c.16-.08.28-.19.39-.32.1-.13.18-.28.23-.45s.08-.34.08-.5-.03-.33-.08-.5c-.05-.16-.13-.31-.23-.45-.1-.13-.23-.24-.39-.32-.16-.08-.34-.12-.56-.12s-.4.04-.56.12c-.16.08-.29.19-.39.32-.1.13-.18.28-.23.45-.05.17-.08.33-.08.5Z"/><path class="uuid-56fd3b3c-7725-4e3a-ac07-a2933c7f07cf" d="M70.07,31.22c0-.17.06-.33.19-.45.13-.13.29-.19.49-.19s.36.06.5.18c.14.12.2.28.2.46s-.07.34-.2.46c-.13.12-.3.18-.5.18s-.36-.06-.49-.19-.19-.28-.19-.45ZM70.23,32.68h1.08v4.32h-1.08v-4.32Z"/><path class="uuid-56fd3b3c-7725-4e3a-ac07-a2933c7f07cf" d="M73.05,32.68h1.03v.69h.02c.1-.22.26-.41.5-.57.24-.16.52-.25.84-.25.28,0,.52.05.72.15.2.1.37.23.5.39.13.16.22.35.28.56.06.21.09.43.09.65v2.7h-1.08v-2.39c0-.13,0-.26-.03-.4-.02-.14-.06-.26-.12-.37-.06-.11-.14-.2-.25-.27s-.24-.11-.42-.11-.32.03-.45.1-.23.16-.31.27c-.08.11-.14.23-.18.37-.04.14-.06.28-.06.43v2.38h-1.08v-4.32Z"/><path class="uuid-56fd3b3c-7725-4e3a-ac07-a2933c7f07cf" d="M78.13,33.55v-.86h.76v-1.25h1.06v1.25h1.08v.86h-1.08v2.01c0,.19.03.35.1.48.07.13.22.19.46.19.07,0,.15,0,.23-.02.08-.01.16-.04.23-.07l.04.85c-.1.04-.21.06-.34.09s-.26.03-.38.03c-.29,0-.52-.04-.7-.12-.18-.08-.32-.19-.43-.33-.1-.14-.18-.3-.22-.49s-.06-.38-.06-.59v-2.02h-.76Z"/><path class="uuid-56fd3b3c-7725-4e3a-ac07-a2933c7f07cf" d="M68.29,46.75h.47c.31,0,.6-.03.9-.08.29-.06.55-.15.77-.29.22-.14.41-.33.54-.56s.21-.53.21-.88c0-.28-.05-.52-.15-.75s-.24-.41-.42-.56c-.18-.15-.38-.27-.61-.36s-.47-.13-.73-.13c-.46,0-.85.12-1.17.35-.32.23-.56.56-.73.98l-1.35-.47c.27-.65.69-1.17,1.28-1.54.59-.37,1.26-.56,2.03-.56.45,0,.87.06,1.28.19.4.13.76.31,1.06.56s.54.55.72.92c.18.37.27.79.27,1.27,0,.31-.05.59-.15.86-.1.27-.23.51-.4.72-.17.21-.37.4-.6.55-.23.15-.49.27-.76.34v.03c.32.06.61.17.88.32.27.15.5.34.7.57s.35.49.46.79c.11.3.17.62.17.96,0,.54-.1,1.02-.3,1.43-.2.41-.47.76-.8,1.03-.33.27-.72.48-1.16.63s-.89.21-1.35.21c-.86,0-1.61-.19-2.26-.58-.65-.39-1.13-.99-1.42-1.81l1.38-.46c.16.47.44.85.83,1.15s.87.44,1.45.44c.28,0,.54-.04.8-.13.26-.09.49-.22.7-.39.2-.17.37-.39.49-.64.12-.25.18-.56.18-.9,0-.38-.08-.69-.25-.95s-.37-.46-.63-.62-.55-.27-.88-.34c-.33-.07-.65-.1-.96-.1h-.46v-1.21Z"/><path class="uuid-1f8766d8-a95a-40f4-996d-03f547549c43" d="M109.99,27.57c-1.06,0-1.42.01-1.49.01-.12,0-.12-.01-.12-.12v-.78c0-.12,0-.13.12-.13.07,0,.43.02,1.49.02h3.05v-.59h-2.04c-1.16,0-1.56.02-1.63.02-.12,0-.13-.01-.13-.14v-.68c0-.13.01-.14.13-.14.07,0,.47.02,1.63.02h2.04v-.6h-1.46c-1.18,0-1.59.02-1.67.02-.13,0-.14-.01-.14-.13,0-.07.02-.35.02-1.07v-1.59c0-.67-.02-.96-.02-1.03,0-.13.01-.14.14-.14.07,0,.49.02,1.67.02h1.46v-.56h-3.05c-1.07,0-1.43.02-1.5.02-.11,0-.12-.01-.12-.13v-.76c0-.12.01-.13.12-.13.07,0,.43.02,1.5.02h3.05v-.6c-1.08.07-2.13.11-3.18.12q-.25,0-.35-.3c-.1-.28-.22-.46-.37-.66,1.5,0,2.82-.05,4.09-.13,1.16-.08,2.1-.22,2.83-.34.52-.08.73-.14,1.01-.23.25.2.54.49.74.73.07.07.1.12.1.2,0,.1-.11.14-.24.14-.14,0-.38.02-.72.07-.84.14-1.74.22-2.71.29v.7h3.23c1.07,0,1.43-.02,1.5-.02.12,0,.12.01.12.13v.76c0,.12,0,.13-.12.13-.07,0-.43-.02-1.5-.02h-3.23v.56h1.64c1.18,0,1.59-.02,1.67-.02.13,0,.14.01.14.14,0,.07-.02.36-.02,1.03v1.59c0,.72.02,1,.02,1.07,0,.12-.01.13-.14.13-.07,0-.49-.02-1.67-.02h-1.64v.6h2.22c1.16,0,1.56-.02,1.63-.02.13,0,.14.01.14.14v.68c0,.13-.01.14-.14.14-.07,0-.47-.02-1.63-.02h-2.22v.59h3.25c1.05,0,1.42-.02,1.49-.02.11,0,.12.01.12.13v.78c0,.11-.01.12-.12.12-.07,0-.43-.01-1.49-.01h-7.5ZM113.04,22.09v-.67h-2.09v.67h2.09ZM113.04,23.6v-.7h-2.09v.7h2.09ZM114.24,21.42v.67h2.24v-.67h-2.24ZM116.48,22.9h-2.24v.7h2.24v-.7Z"/><path class="uuid-1f8766d8-a95a-40f4-996d-03f547549c43" d="M123.62,20.07c0,1.97-.11,3.3-.3,4.44-.18,1.04-.48,1.94-.97,2.91-.08.16-.13.23-.19.23s-.13-.07-.24-.22c-.24-.3-.52-.55-.76-.7.48-.78.8-1.65.97-2.69.16-.92.25-2.22.25-3.99s-.02-2.47-.02-2.54c0-.13.01-.14.13-.14.06,0,.48.02,1.62.02h6.26c1.14,0,1.54-.02,1.61-.02.11,0,.12.01.12.14v.83c0,.12-.01.13-.12.13-.07,0-.47-.01-1.61-.01h-6.75v1.61ZM125.39,25.78c-1.17,0-1.58.02-1.65.02-.11,0-.12-.01-.12-.13v-.73c0-.12.01-.13.12-.13.07,0,.48.02,1.65.02h1.94c-.01-.16-.04-.31-.05-.5.19.02.38.04.58.05.36-.17.65-.34,1-.59h-2.67c-1.14,0-1.52.02-1.59.02-.12,0-.13-.01-.13-.13v-.67c0-.13.01-.14.13-.14.07,0,.46.02,1.59.02h3.77c.07,0,.13-.01.18-.02.05-.01.1-.04.16-.04.08,0,.18.02.46.24.23.18.31.25.31.35,0,.07-.04.12-.16.17-.1.05-.17.08-.34.2-.6.37-1.18.7-1.85,1.04h1.74c1.18,0,1.58-.02,1.64-.02.12,0,.13.01.13.13v.73c0,.12-.01.13-.13.13-.06,0-.47-.02-1.64-.02h-1.89v.1c0,.28.01.65.01.9,0,.3-.08.61-.36.82-.26.19-.67.28-1.7.28q-.35,0-.41-.28c-.1-.37-.19-.64-.32-.84.41.04.86.06,1.1.06.38,0,.47-.1.47-.42v-.61h-1.96ZM129.33,19.02c1.12,0,1.51-.02,1.58-.02.12,0,.13.01.13.14,0,.07-.02.32-.02.95v1.16c0,.64.02.89.02.96,0,.12-.01.13-.13.13-.07,0-.47-.02-1.58-.02h-3c-1.12,0-1.5.02-1.57.02-.13,0-.14-.01-.14-.13,0-.08.02-.32.02-.96v-1.16c0-.62-.02-.88-.02-.95,0-.13.01-.14.14-.14.07,0,.46.02,1.57.02h3ZM125.8,19.79v.5h4.03v-.5h-4.03ZM129.83,21.03h-4.03v.52h4.03v-.52Z"/><path class="uuid-1f8766d8-a95a-40f4-996d-03f547549c43" d="M142.87,16.93c.12-.07.17-.06.25.01.19.16.53.49.74.78.08.11.05.14-.06.23l-.28.18c.7,0,.96-.02,1.02-.02.12,0,.13.01.13.12v.8c0,.12-.01.13-.13.13-.07,0-.47-.02-1.61-.02h-1.17c.1.82.25,1.58.5,2.27.24-.36.42-.72.58-1.06.07-.19.17-.47.23-.74.36.11.7.24.97.37.1.05.14.12.14.17,0,.07-.05.12-.11.18-.07.07-.12.14-.24.36-.29.6-.62,1.21-1.05,1.79.32.49.67.76.89.76.3,0,.42-.34.56-1.15.18.17.42.31.6.4.23.11.31.16.31.28,0,.06-.02.14-.06.26-.3,1.01-.7,1.45-1.38,1.45-.58,0-1.17-.41-1.69-1.1-.28.28-.58.55-.91.79-.14.1-.23.16-.29.16-.07,0-.13-.07-.26-.23-.14-.16-.25-.26-.4-.38-.01.06-.05.06-.13.06s-.31-.02-1.02-.02h-1.13c-.71,0-.94.02-1.02.02-.12,0-.13-.01-.13-.13,0-.08.02-.26.02-.77v-.79c0-.5-.02-.68-.02-.77,0-.12.01-.13.13-.13.08,0,.31.02,1.02.02h1.13c.71,0,.94-.02,1.02-.02.12,0,.13.01.13.13,0,.07-.02.26-.02.77v.79c0,.36.01.55.01.66.52-.31.95-.67,1.32-1.07-.44-.92-.7-2.13-.85-3.31h-4.27v.8c0,.66-.08,1.8-.22,2.41-.17.76-.38,1.4-.8,2.1-.1.17-.14.24-.22.24-.05,0-.12-.06-.25-.18-.26-.24-.53-.41-.77-.52.48-.66.71-1.19.86-1.91.16-.66.23-1.44.23-2.55,0-.84-.02-1.24-.02-1.31,0-.11.01-.12.14-.12.07,0,.47.02,1.62.02h3.59c-.05-.43-.07-.88-.14-1.22.42.01.86.05,1.21.08.12.01.18.06.18.13,0,.08-.04.16-.06.22-.04.13-.02.37-.01.79h1.15c-.18-.23-.42-.49-.55-.62-.05-.04-.06-.07-.06-.11s.02-.08.1-.12l.55-.35ZM134.37,27.02c-.14-.08-.14-.13-.07-.23.49-.55.94-1.3,1.21-2,.05-.13.07-.13.24-.06l.71.31c.16.07.17.1.13.22-.31.79-.72,1.5-1.22,2.16-.07.1-.11.1-.24.02l-.76-.42ZM139.12,19.7c.72,0,1.01-.02,1.08-.02.11,0,.12.01.12.14v.7c0,.12-.01.13-.12.13-.07,0-.36-.02-1.08-.02h-1.22c-.71,0-1,.02-1.07.02-.12,0-.13-.01-.13-.13v-.7c0-.13.01-.14.13-.14.07,0,.36.02,1.07.02h1.22ZM138.27,26.08c0,.24.05.4.19.48.19.1.71.11,1.21.11.88,0,1.21.01,1.46-.13.2-.11.3-.46.31-1.03.24.16.52.26.86.36q.31.1.28.42c-.1.66-.32.98-.66,1.18-.44.24-1.1.29-2.35.29-1.06,0-1.73-.06-2.07-.24-.28-.16-.44-.41-.44-1.04v-1.06c0-.34,0-.56-.06-.91.4,0,.84.02,1.19.07.14.02.22.06.22.11,0,.07-.01.11-.06.2-.05.11-.07.23-.07.43v.77ZM139.15,22.02h-1.43v.88h1.43v-.88ZM139.53,24.07c.12-.08.16-.08.25-.01.46.37.77.72,1.13,1.19.07.08.08.11-.04.19l-.62.48c-.07.06-.12.08-.16.08s-.06-.02-.1-.08c-.31-.47-.66-.86-1.04-1.25-.1-.1-.1-.11.05-.22l.53-.38ZM143.23,24.55c.07-.04.11-.06.14-.06s.06.02.11.07c.56.61,1.02,1.26,1.42,2,.06.12.06.14-.1.24l-.74.46c-.16.1-.19.11-.24-.01-.34-.79-.73-1.45-1.28-2.07-.1-.1-.08-.13.06-.22l.64-.41Z"/><path class="uuid-1f8766d8-a95a-40f4-996d-03f547549c43" d="M150.79,17.6c.14.04.22.1.22.19,0,.17-.08.34-.08.5,0,.24.04.53.06.8.11.84.23,1.44.38,2.06.6-.32,1.03-.55,1.7-.91.35-.2.64-.41.83-.65.38.4.7.82.88,1.13.05.07.08.17.08.25,0,.12-.07.22-.24.24-.36.06-.77.2-1.15.36-1.03.42-1.99.86-2.82,1.4-1.04.68-1.42,1.25-1.42,1.81,0,.71.53,1.01,1.91,1.01,1.51,0,2.73-.11,3.66-.28.13-.02.19,0,.22.14.06.32.1.76.12,1.12.01.13-.07.19-.22.2-1.09.14-2.05.18-3.57.18-2.27,0-3.47-.74-3.47-2.3,0-1.33.88-2.21,2.28-3.09-.29-.92-.5-2-.62-2.93-.08-.64-.17-1.06-.31-1.39.58,0,1.13.04,1.57.14Z"/><path class="uuid-1f8766d8-a95a-40f4-996d-03f547549c43" d="M159.71,19c-1.08,0-1.45.02-1.52.02-.12,0-.13-.01-.13-.13v-.84c0-.12.01-.13.13-.13.07,0,.44.02,1.52.02h2.91v-.04c0-.4-.01-.71-.08-1,.44,0,.86.02,1.27.06.12.01.19.06.19.12,0,.08-.05.14-.08.24-.02.1-.05.25-.05.58v.04h3.07c1.08,0,1.45-.02,1.52-.02.12,0,.13.01.13.13v.84c0,.12-.01.13-.13.13-.07,0-.44-.02-1.52-.02h-7.23ZM168.16,25.15c0,.65.02,1.15.02,1.52,0,.32-.05.65-.29.86-.22.19-.49.25-1.35.25-.37,0-.38-.02-.44-.37-.05-.29-.14-.59-.25-.79.36.04.52.05.77.05.19,0,.3-.08.3-.34v-2.63h-7.17v2.69c0,.89.02,1.3.02,1.36,0,.12-.01.13-.13.13h-1.03c-.12,0-.13-.01-.13-.13,0-.07.02-.43.02-1.36v-2.33c0-.84-.02-1.2-.02-1.27,0-.12.01-.13.13-.13.08,0,.48.02,1.62.02h6.21c1.14,0,1.54-.02,1.62-.02.12,0,.13.01.13.13,0,.07-.02.49-.02,1.37v.98ZM164.77,19.58c1.09,0,1.48-.02,1.55-.02.12,0,.13.01.13.13,0,.08-.02.26-.02.78v.73c0,.49.02.68.02.76,0,.12-.01.13-.13.13-.07,0-.46-.02-1.55-.02h-2.89c-1.09,0-1.47.02-1.55.02-.12,0-.13-.01-.13-.13,0-.07.02-.26.02-.76v-.73c0-.52-.02-.7-.02-.78,0-.12.01-.13.13-.13.07,0,.46.02,1.55.02h2.89ZM161.07,27.08c-.12,0-.13-.01-.13-.13,0-.08.02-.28.02-1.38v-.44c0-.46-.02-.68-.02-.76,0-.12.01-.13.13-.13.07,0,.38.02,1.3.02h1.87c.9,0,1.21-.02,1.29-.02.12,0,.13.01.13.13,0,.07-.02.29-.02.64v.53c0,1.08.02,1.27.02,1.34,0,.12-.01.13-.13.13h-.89c-.13,0-.14-.01-.14-.13v-.25h-2.43v.32c0,.12-.01.13-.13.13h-.86ZM165.25,20.43h-3.86v.79h3.86v-.79ZM162.06,25.83h2.43v-.77h-2.43v.77Z"/><path class="uuid-1f8766d8-a95a-40f4-996d-03f547549c43" d="M174.74,20.77c.16-.06.18-.06.24.06.35.72.59,1.44.78,2.16.04.13,0,.14-.14.22l-.56.24c-.14.06-.18.04-.2-.1l-.13-.54c-.3.04-.6.07-.89.1v3.3c0,1.1.02,1.51.02,1.57,0,.12-.01.13-.13.13h-.9c-.12,0-.13-.01-.13-.13,0-.07.02-.47.02-1.57v-3.2l-1.04.07c-.2.01-.34.05-.43.1-.05.02-.12.06-.19.06s-.11-.08-.13-.2c-.06-.29-.12-.62-.17-1.01.35.02.67.04.98.02.23-.29.44-.6.67-.91-.48-.6-1.02-1.18-1.58-1.73-.11-.08-.07-.12.01-.25l.4-.62c.05-.07.08-.11.12-.11.02,0,.06.02.11.07.1.11.2.2.3.3.25-.4.46-.78.65-1.22.16-.32.22-.52.28-.74.32.12.74.29,1.03.44.13.07.17.12.17.19,0,.06-.05.11-.11.16-.1.07-.14.13-.23.29-.37.66-.68,1.14-1.06,1.67.19.2.37.41.54.61.28-.42.54-.86.79-1.3.14-.26.26-.56.36-.83.37.16.73.35,1.01.52.11.06.14.11.14.18,0,.08-.06.13-.13.18-.12.07-.22.2-.4.48-.6.96-1.25,1.87-1.8,2.58.47-.02.95-.05,1.44-.08-.1-.25-.19-.49-.3-.73-.05-.12-.04-.13.13-.2l.47-.2ZM171.23,24.37c.02-.23.04-.41.01-.67.3.04.74.13.94.17.13.04.19.08.19.14s-.02.11-.06.17-.05.2-.07.4c-.07.71-.22,1.56-.42,2.23-.06.19-.1.26-.18.26-.05,0-.12-.05-.23-.11-.19-.12-.48-.24-.66-.3.26-.78.42-1.51.48-2.29ZM180.57,20.67c.13,0,.18-.01.24-.04.06-.02.08-.04.16-.04s.17.04.47.36c.23.24.29.34.29.42,0,.07-.02.13-.08.2-.08.08-.16.18-.23.41-.37,1.29-.79,2.35-1.4,3.26.55.53,1.21.97,1.99,1.33-.24.28-.42.55-.56.9-.08.19-.12.28-.2.28-.06,0-.14-.05-.29-.13-.62-.41-1.19-.88-1.69-1.43-.53.56-1.18,1.06-1.98,1.52-.14.08-.23.13-.3.13s-.13-.07-.25-.24c-.17-.25-.4-.46-.62-.64.98-.43,1.78-1.03,2.41-1.73-.5-.76-.91-1.64-1.22-2.73-.23,2.1-.72,3.51-1.8,5.06-.1.12-.16.18-.23.18-.06,0-.13-.06-.25-.19-.19-.23-.42-.41-.67-.56.4-.42.73-.9,1-1.44l-.66.23c-.17.06-.19.05-.2-.07-.05-.58-.16-1.32-.3-1.79-.04-.13,0-.16.14-.19l.5-.14c.14-.04.16-.02.2.11.13.4.3,1.16.36,1.76.76-1.56,1.03-3.61,1.06-6.28v-.54c-.66.01-.9.02-.96.02-.13,0-.14-.01-.14-.13v-.9c0-.12.01-.13.14-.13.07,0,.41.02,1.46.02h2.41c.16,0,.25-.02.3-.05s.08-.04.14-.04c.08,0,.17.04.49.35.24.23.3.34.3.41,0,.06-.05.16-.13.24-.1.08-.13.17-.17.31-.12.53-.29,1.2-.49,1.92h.78ZM177.51,18.65c.14,2.33.65,4.22,1.69,5.67.49-.78.84-1.67,1.07-2.6h-.79l-.08.28c-.05.13-.07.17-.24.13l-.71-.12c-.22-.04-.25-.06-.19-.24.37-1.14.65-2.22.84-3.12h-1.58Z"/><path class="uuid-1f8766d8-a95a-40f4-996d-03f547549c43" d="M192.67,16.93c.12-.07.17-.06.25.01.19.16.53.49.74.78.08.11.05.14-.06.23l-.28.18c.7,0,.96-.02,1.02-.02.12,0,.13.01.13.12v.8c0,.12-.01.13-.13.13-.07,0-.47-.02-1.61-.02h-1.18c.1.82.25,1.58.5,2.27.24-.36.42-.72.58-1.06.07-.19.17-.47.23-.74.36.11.7.24.97.37.1.05.14.12.14.17,0,.07-.05.12-.11.18-.07.07-.12.14-.24.36-.29.6-.62,1.21-1.06,1.79.32.49.67.76.89.76.3,0,.42-.34.56-1.15.18.17.42.31.6.4.23.11.31.16.31.28,0,.06-.02.14-.06.26-.3,1.01-.7,1.45-1.38,1.45-.58,0-1.18-.41-1.69-1.1-.28.28-.58.55-.91.79-.14.1-.23.16-.29.16-.07,0-.13-.07-.26-.23-.14-.16-.25-.26-.4-.38-.01.06-.05.06-.13.06s-.31-.02-1.02-.02h-1.13c-.71,0-.94.02-1.02.02-.12,0-.13-.01-.13-.13,0-.08.02-.26.02-.77v-.79c0-.5-.02-.68-.02-.77,0-.12.01-.13.13-.13.08,0,.31.02,1.02.02h1.13c.71,0,.94-.02,1.02-.02.12,0,.13.01.13.13,0,.07-.02.26-.02.77v.79c0,.36.01.55.01.66.52-.31.95-.67,1.32-1.07-.44-.92-.7-2.13-.85-3.31h-4.27v.8c0,.66-.08,1.8-.22,2.41-.17.76-.38,1.4-.8,2.1-.1.17-.14.24-.22.24-.05,0-.12-.06-.25-.18-.26-.24-.53-.41-.77-.52.48-.66.71-1.19.86-1.91.16-.66.23-1.44.23-2.55,0-.84-.02-1.24-.02-1.31,0-.11.01-.12.14-.12.07,0,.47.02,1.62.02h3.59c-.05-.43-.07-.88-.14-1.22.42.01.86.05,1.21.08.12.01.18.06.18.13,0,.08-.04.16-.06.22-.04.13-.02.37-.01.79h1.15c-.18-.23-.42-.49-.55-.62-.05-.04-.06-.07-.06-.11s.02-.08.1-.12l.55-.35ZM184.17,27.02c-.14-.08-.14-.13-.07-.23.49-.55.94-1.3,1.21-2,.05-.13.07-.13.24-.06l.71.31c.16.07.17.1.13.22-.31.79-.72,1.5-1.22,2.16-.07.1-.11.1-.24.02l-.75-.42ZM188.92,19.7c.72,0,1.01-.02,1.08-.02.11,0,.12.01.12.14v.7c0,.12-.01.13-.12.13-.07,0-.36-.02-1.08-.02h-1.22c-.71,0-1,.02-1.07.02-.12,0-.13-.01-.13-.13v-.7c0-.13.01-.14.13-.14.07,0,.36.02,1.07.02h1.22ZM188.07,26.08c0,.24.05.4.19.48.19.1.71.11,1.21.11.88,0,1.21.01,1.46-.13.2-.11.3-.46.31-1.03.24.16.52.26.86.36q.31.1.28.42c-.1.66-.32.98-.66,1.18-.44.24-1.1.29-2.35.29-1.06,0-1.73-.06-2.08-.24-.28-.16-.44-.41-.44-1.04v-1.06c0-.34,0-.56-.06-.91.4,0,.84.02,1.19.07.14.02.22.06.22.11,0,.07-.01.11-.06.2-.05.11-.07.23-.07.43v.77ZM188.96,22.02h-1.43v.88h1.43v-.88ZM189.33,24.07c.12-.08.16-.08.25-.01.46.37.77.72,1.13,1.19.07.08.08.11-.04.19l-.62.48c-.07.06-.12.08-.16.08s-.06-.02-.1-.08c-.31-.47-.66-.86-1.04-1.25-.1-.1-.1-.11.05-.22l.53-.38ZM193.03,24.55c.07-.04.11-.06.14-.06s.06.02.11.07c.56.61,1.02,1.26,1.42,2,.06.12.06.14-.1.24l-.74.46c-.16.1-.19.11-.24-.01-.34-.79-.73-1.45-1.28-2.07-.1-.1-.08-.13.06-.22l.63-.41Z"/><path class="uuid-1f8766d8-a95a-40f4-996d-03f547549c43" d="M200.24,18.76c.06-.36.12-.83.12-1.33.62.13.96.22,1.44.4.12.04.19.13.19.24,0,.06-.02.12-.08.18-.12.16-.18.29-.24.46-.16.49-.28.94-.43,1.44.32-.04.68-.05.96-.05,1.12,0,1.72.78,1.72,2.31,0,1.29-.24,2.89-.65,3.75-.35.77-.92,1.13-1.62,1.13-.58,0-.98-.06-1.25-.18-.14-.06-.22-.16-.22-.34-.04-.38-.06-.72-.23-1.12.54.25,1.01.31,1.38.31.4,0,.58-.14.77-.64.25-.67.47-1.81.47-2.99,0-.84-.16-1.1-.68-1.1-.29,0-.66.04-1.01.08-.79,2.3-1.47,3.96-2.41,5.64-.07.16-.17.18-.31.11-.22-.11-.68-.4-.83-.53-.06-.06-.1-.11-.1-.18,0-.04.01-.08.05-.13.96-1.67,1.58-2.94,2.19-4.7-.47.07-.85.14-1.17.2-.31.06-.5.13-.66.19-.17.06-.31.04-.38-.16-.11-.28-.24-.71-.37-1.24.53,0,1.05-.04,1.58-.08.5-.05.95-.11,1.42-.18.19-.68.28-1.1.36-1.51ZM204.99,19.56c.08-.05.14-.02.23.06.82.77,1.55,1.76,1.99,2.91.05.11.04.17-.05.24-.2.19-.66.48-.9.6-.12.06-.24.05-.28-.1-.48-1.26-1.1-2.29-1.97-3.11.3-.2.65-.44.97-.61ZM205.31,17.88c.06-.05.11-.04.18.02.37.29.8.77,1.14,1.28.05.07.05.13-.04.19l-.5.37c-.08.06-.14.05-.2-.04-.36-.55-.74-1.01-1.21-1.39l.63-.44ZM206.38,17.1c.07-.05.11-.04.18.02.44.34.88.82,1.14,1.24.05.07.06.14-.04.22l-.48.37c-.1.07-.16.04-.2-.04-.32-.52-.71-.97-1.2-1.38l.6-.43Z"/><path class="uuid-1f8766d8-a95a-40f4-996d-03f547549c43" d="M219.03,25.1c0,.55.02,1.07.02,1.49,0,.44-.07.78-.41,1.02-.26.18-.78.26-1.59.26-.36,0-.37.01-.46-.37-.07-.32-.22-.7-.37-.9.42.04.88.05,1.28.02.26-.01.34-.11.34-.37v-2.37h-2.36c-1.14,0-1.52.02-1.59.02-.12,0-.13-.01-.13-.13v-.61s-.13.07-.23.12c-.26.14-.55.28-.84.42v2c0,1.37.02,2.05.02,2.11,0,.12-.01.13-.14.13h-.96c-.12,0-.13-.01-.13-.13,0-.07.02-.74.02-2.1v-1.46l-.84.36c-.19.08-.34.17-.4.24-.05.06-.13.11-.2.11-.08,0-.13-.02-.18-.13-.14-.34-.3-.83-.4-1.16.38-.07.71-.17,1.12-.32.3-.1.6-.2.9-.32v-2.46h-.71c-.07.47-.16.94-.28,1.38-.05.2-.07.29-.14.29-.06,0-.14-.05-.28-.12-.19-.08-.46-.19-.66-.24.32-1.04.46-2.18.5-3.14.01-.23.01-.5-.01-.77.31.04.67.08.97.14.14.04.19.07.19.14s-.02.12-.06.19c-.04.08-.05.22-.06.41l-.05.59h.58v-.67c0-.85-.02-1.21-.1-1.81.46.01.82.04,1.24.08.12.01.19.06.19.12,0,.1-.04.16-.07.25-.06.14-.07.44-.07,1.33v.7c.66,0,.91-.02.97-.02.13,0,.14.01.14.12v.92c0,.07-.01.11-.04.12.1,0,.5.02,1.59.02h.88v-1.2h-.49c-1.07,0-1.42.02-1.49.02-.13,0-.14-.01-.14-.13v-.85c0-.12.01-.13.14-.13.07,0,.42.02,1.49.02h.49c-.01-.7-.04-1.03-.11-1.37.47.01.84.05,1.26.1.12.01.19.05.19.12,0,.08-.04.16-.07.24-.05.13-.08.32-.08.91h.84c1.08,0,1.44-.02,1.51-.02.12,0,.13.01.13.13v.85c0,.12-.01.13-.13.13-.07,0-.43-.02-1.51-.02h-.84v1.2h1.32c1.14,0,1.54-.02,1.6-.02.12,0,.13.01.13.12v.85c0,.12-.01.13-.13.13-.06,0-.46-.02-1.6-.02h-3.38c-1.15,0-1.55.02-1.62.02-.12,0-.13-.01-.13-.13v-.85c0-.06,0-.08.02-.11-.08,0-.34-.01-.95-.02v1.96c.35-.17.72-.34,1.1-.54,0,.23.01.53.04.79h.06c.07,0,.46.02,1.59.02h2.36c-.01-.44-.02-.73-.08-.96.43.02.91.07,1.22.13.12.02.19.08.19.14,0,.08-.04.14-.07.2-.05.08-.07.19-.07.48.89,0,1.22-.02,1.28-.02.12,0,.13.01.13.13v.88c0,.12-.01.13-.13.13-.06,0-.4-.01-1.28-.02v1.22ZM215.13,24.26c.13-.07.17-.07.25.01.42.4.8.89,1.16,1.39.07.11.06.13-.07.23l-.72.52c-.07.05-.11.07-.14.07s-.06-.04-.08-.1c-.34-.59-.67-1.04-1.1-1.5-.08-.11-.07-.13.06-.22l.65-.41Z"/><path class="uuid-1f8766d8-a95a-40f4-996d-03f547549c43" d="M223.71,24.57c0-.37.01-.88.02-1.31-.18.18-.36.37-.55.54-.11.11-.18.16-.24.16-.07,0-.11-.08-.16-.26-.1-.35-.2-.64-.35-.86.9-.77,1.54-1.54,2.06-2.45.12-.2.22-.43.31-.66.32.2.55.36.84.58.01-.17.01-.38.01-.7v-.86c0-.31-.01-.55-.05-.8-.11.07-.2.17-.31.31-.53.7-1.18,1.32-1.92,1.96-.12.1-.19.16-.25.16-.08,0-.14-.1-.22-.29-.13-.35-.29-.61-.44-.78.76-.48,1.38-1.08,1.97-1.81.13-.17.26-.4.35-.56.31.18.55.36.85.61.1.08.16.13.16.22t-.01.05l.85.07c.11.01.17.05.17.11,0,.08-.04.13-.07.22-.04.07-.06.18-.06.53v1.09h.53v-1.64c0-.54-.01-.8-.07-1.13.43.01.68.04,1.07.06.11.01.17.05.17.11,0,.08-.05.13-.07.22-.04.1-.06.23-.06.74v1.64h.53v-1.07c0-.38-.02-.64-.06-.95.38.01.76.04,1.03.07.11.01.16.05.16.12s-.02.11-.06.18c-.04.08-.06.19-.06.56v.88c0,.62.02.95.02,1.02.52-.94.78-1.83.98-2.77.06-.28.11-.62.12-.95.35.05.8.16,1.05.22.13.05.2.1.2.17,0,.1-.05.16-.11.24-.08.11-.12.25-.19.55-.08.36-.18.71-.29,1.06h.86c.86,0,1.13-.02,1.2-.02.12,0,.13.01.13.14v.85c0,.12-.01.13-.13.13-.05,0-.18-.01-.49-.01-.06,1.75-.36,3.19-.94,4.41.43.7,1.01,1.32,1.75,1.91-.2.28-.33.5-.49.91-.06.18-.11.26-.18.26-.05,0-.13-.06-.24-.17-.6-.59-1.08-1.19-1.48-1.82-.5.73-1.13,1.38-1.89,1.98-.13.1-.2.16-.26.16-.07,0-.12-.07-.22-.23-.17-.29-.37-.49-.58-.66,1.02-.7,1.79-1.48,2.34-2.4-.35-.78-.59-1.61-.76-2.51-.1.13-.14.19-.19.19-.06,0-.12-.07-.22-.24-.06-.08-.12-.17-.19-.24v.68c0,.12-.01.13-.13.13-.07,0-.35-.02-1.15-.02h-.08v.9c.8,0,1.06-.02,1.13-.02.12,0,.13.01.13.13v.76c0,.12-.01.13-.13.13-.07,0-.32-.02-1.13-.02v.98c.46-.08.95-.19,1.44-.32-.05.19-.1.38-.11.61q-.04.4-.4.48c-.9.24-1.91.46-2.76.61-.22.04-.42.11-.52.16-.06.04-.11.07-.19.07-.06,0-.11-.05-.14-.22-.07-.3-.11-.6-.17-1.02.44-.02.84-.06,1.21-.11.17-.02.34-.04.53-.07v-1.18h-.11c-.82,0-1.07.02-1.14.02-.12,0-.13-.01-.13-.13v-.76c0-.12.01-.13.13-.13.07,0,.32.02,1.14.02h.11v-.9h-.22c-.85,0-1.13.02-1.2.02-.13,0-.14-.01-.14-.13v-.78c0-.12.01-.13.14-.13.07,0,.35.02,1.2.02h1.4c.62,0,.92-.01,1.07-.01l-.12-.11c.16-.23.3-.46.43-.68-.11,0-.41-.02-1.26-.02h-1.44c-.85,0-1.15.02-1.22.02s-.08,0-.12-.02c-.08.06-.16.16-.26.34-.16.25-.32.52-.52.79v4.45c0,.96.02,1.42.02,1.48,0,.12-.01.13-.13.13h-.95c-.12,0-.13-.01-.13-.13,0-.06.02-.52.02-1.48v-1.76ZM231.18,20.22c-.08.2-.17.4-.26.59.13.94.32,1.76.62,2.52.3-.89.47-1.91.53-3.11h-.89Z"/><path class="uuid-1f8766d8-a95a-40f4-996d-03f547549c43" d="M241.37,19.62c-.28,2.04-.78,3.91-1.5,5.17-.52.9-1.14,1.38-2.04,1.38-1.06,0-2.12-1.13-2.12-3.08,0-1.15.49-2.25,1.36-3.12,1.01-1.01,2.28-1.54,3.9-1.54,2.88,0,4.57,1.78,4.57,4.16,0,2.23-1.26,3.63-3.69,4.37-.25.07-.36.02-.52-.22-.13-.2-.38-.48-.84-.76,2.03-.48,3.62-1.32,3.62-3.59,0-1.43-1.08-2.78-2.69-2.78h-.05ZM237.93,20.78c-.58.65-.94,1.45-.94,2.22,0,1.1.44,1.71.82,1.71.31,0,.58-.16.9-.73.53-.97,1.07-2.7,1.27-4.29-.84.17-1.51.5-2.05,1.09Z"/><path class="uuid-1f8766d8-a95a-40f4-996d-03f547549c43" d="M250.89,18.81c0-.85-.01-1.22-.1-1.81.47.01.9.04,1.31.08.12.01.19.06.19.12,0,.08-.04.16-.06.24-.07.16-.08.46-.08,1.33v6.92c0,1.34.02,2.02.02,2.09,0,.12-.01.13-.13.13h-1.04c-.12,0-.13-.01-.13-.13,0-.07.02-.74.02-2.07v-.92c-.66.3-1.36.58-2.06.83-.22.07-.4.16-.48.22-.07.06-.12.08-.18.08s-.11-.05-.16-.17c-.11-.31-.23-.7-.35-1.15.31-.05.58-.1.86-.17v-4.22c0-.85-.02-1.22-.1-1.82.46.01.85.04,1.27.08.11.01.18.06.18.13,0,.08-.04.16-.06.25-.06.14-.08.44-.08,1.33v3.86c.4-.14.77-.28,1.15-.44v-4.79ZM257.14,17.93c.23,0,.32-.01.38-.05.06-.04.12-.05.18-.05.08,0,.2.08.5.4.2.2.26.34.26.42s-.05.22-.11.29c-.1.12-.18.38-.25.77-.34,1.83-.86,3.38-1.69,4.73.65.82,1.49,1.54,2.55,2.18-.23.25-.43.55-.59.88-.08.18-.14.26-.22.26-.06,0-.13-.05-.25-.12-.9-.64-1.66-1.33-2.28-2.11-.65.8-1.44,1.52-2.39,2.19-.13.08-.22.13-.29.13-.1,0-.16-.1-.24-.29-.13-.3-.32-.55-.55-.74,1.14-.68,2.03-1.46,2.72-2.35-.89-1.46-1.4-3.21-1.61-5.4-.37,0-.53.01-.56.01-.13,0-.14-.01-.14-.14v-.9c0-.12.01-.13.14-.13.06,0,.41.02,1.45.02h2.96ZM254.5,19.06c.17,1.69.53,3.06,1.15,4.23.66-1.21,1.04-2.61,1.28-4.23h-2.43Z"/><path class="uuid-1f8766d8-a95a-40f4-996d-03f547549c43" d="M261.44,24.45c.02-.26.04-.48.02-.77.37.06.71.12.92.19.14.05.2.1.2.14,0,.07-.02.13-.06.18-.04.06-.07.24-.1.44-.08.67-.2,1.48-.4,2.16-.06.19-.08.29-.16.29-.06,0-.14-.06-.28-.14-.16-.1-.52-.26-.67-.31.28-.64.44-1.37.5-2.18ZM261.95,23.11c-.2.01-.37.05-.46.1-.06.04-.11.05-.18.05-.08,0-.13-.07-.16-.19-.06-.31-.11-.64-.14-1.02.34.04.59.05.89.05.23-.3.46-.61.67-.92-.47-.62-1-1.21-1.56-1.75-.05-.05-.06-.08-.06-.11,0-.05.04-.08.08-.16l.46-.59c.1-.12.13-.13.22-.04l.29.3c.25-.41.53-.89.73-1.34.11-.24.16-.4.22-.64.35.13.7.28,1,.43.11.06.16.12.16.19s-.05.12-.11.16c-.1.06-.14.13-.23.29-.37.64-.65,1.13-1.04,1.69.17.2.33.4.49.6.29-.46.56-.92.83-1.39.13-.25.24-.48.33-.76.31.13.71.28,1,.44.11.06.14.1.14.17,0,.08-.04.13-.13.19-.12.08-.19.19-.37.47-.64,1.02-1.28,1.95-1.87,2.71.43-.02.86-.06,1.3-.1-.08-.24-.18-.48-.28-.71-.05-.11-.02-.14.12-.2l.54-.23c.13-.06.16-.04.2.08.33.68.54,1.38.72,2.11v-1.86c0-1.26-.02-1.85-.02-1.93,0-.12.01-.13.13-.13.07,0,.46.02,1.52.02h.64v-.91c0-.44-.01-.76-.08-1.2.44.01.78.05,1.2.08.11.01.18.07.18.13,0,.1-.05.17-.07.25-.06.14-.06.32-.06.73v.91h.77c1.07,0,1.45-.02,1.52-.02.12,0,.13.01.13.13,0,.07-.02.73-.02,2v3.3c0,1,.02,1.57.02,1.94,0,.49-.07.82-.32,1.03-.24.23-.47.3-1.63.31q-.38,0-.44-.37c-.07-.3-.17-.59-.3-.82.46.04.8.05,1.1.05.34,0,.43-.07.43-.42v-2.23c-.14.25-.3.52-.38.77-.05.13-.08.19-.14.19-.05,0-.11-.06-.2-.19-.5-.77-.84-1.61-1.05-2.75-.17,1.01-.48,1.82-.97,2.79-.07.13-.13.2-.19.2s-.12-.07-.18-.2c-.12-.28-.29-.53-.44-.74v1.91c0,1.15.02,1.7.02,1.76,0,.13-.01.14-.12.14h-.91c-.12,0-.13-.01-.13-.14,0-.06.02-.65.02-1.91v-2.65s-.06.05-.12.07l-.59.22c-.17.06-.19.06-.22-.08l-.13-.54-.68.07v3.29c0,1.1.02,1.51.02,1.57,0,.12-.01.13-.13.13h-.91c-.12,0-.13-.01-.13-.13,0-.07.02-.47.02-1.57v-3.18l-.92.07ZM264.9,23.67c.16-.05.17-.02.2.1.19.66.32,1.43.42,2.19.02.16,0,.16-.14.2l-.59.18c-.18.06-.2.02-.22-.11-.06-.86-.16-1.57-.32-2.24-.02-.12-.01-.14.13-.18l.52-.14ZM266.85,20.17v3.74c.64-.91,1.02-2.09,1.15-3.74h-1.15ZM270.43,20.17h-1.29c.14,1.51.61,2.65,1.29,3.57v-3.57Z"/><path class="uuid-1f8766d8-a95a-40f4-996d-03f547549c43" d="M275.52,23.24c0-.43,0-.9.01-1.39-.26.38-.55.76-.86,1.13-.1.11-.16.16-.2.16-.06,0-.1-.06-.14-.19-.11-.41-.3-.79-.48-1.07,1.1-1.13,1.9-2.61,2.41-4.08.1-.29.17-.56.2-.86.47.12.85.23,1.21.37.13.05.19.1.19.18s-.04.13-.13.22c-.08.07-.14.18-.24.48-.22.54-.44,1.07-.71,1.6v6.19c0,1.16.02,1.75.02,1.81,0,.12-.01.13-.13.13h-1.04c-.12,0-.13-.01-.13-.13,0-.07.02-.65.02-1.81v-2.72ZM279.38,20.76c-1.15,0-1.56.02-1.63.02-.12,0-.13-.01-.13-.13v-.95c0-.12.01-.13.13-.13.07,0,.48.02,1.63.02h2.53v-.9c0-.78-.01-1.22-.08-1.7.44.01.89.04,1.32.08.12.01.19.07.19.13,0,.11-.05.18-.08.26-.06.14-.08.38-.08,1.19v.94c1.03,0,1.4-.02,1.48-.02.12,0,.13.01.13.13v.95c0,.12-.01.13-.13.13-.07,0-.44-.02-1.48-.02v3.32c0,.84.04,1.64.04,2.3,0,.61-.08.86-.4,1.12-.25.2-.76.28-1.92.28q-.37,0-.46-.37c-.1-.38-.2-.7-.36-.94.47.04,1.02.06,1.38.05.34,0,.46-.11.46-.4v-5.36h-2.53ZM279.73,24.85c-.07.05-.12.07-.14.07-.04,0-.06-.04-.1-.11-.42-.89-.85-1.66-1.39-2.36-.08-.11-.07-.12.08-.22l.76-.43c.12-.07.14-.05.23.04.55.68,1.01,1.4,1.45,2.28.06.11.02.13-.11.22l-.78.52Z"/><path class="uuid-1f8766d8-a95a-40f4-996d-03f547549c43" d="M290.36,18.23c-.11-.26-.22-.5-.42-.77.48-.08.97-.13,1.45-.13.17,0,.26.1.26.22,0,.07-.02.16-.02.23,0,.11.02.23.05.36.08.31.12.42.19.62.94-.18,1.6-.36,2.45-.64.11-.05.17-.04.2.06.07.23.16.56.2.8.02.12-.06.19-.14.22-.8.25-1.54.43-2.35.61.11.3.26.67.42,1.01.97-.2,1.61-.41,2.18-.62.12-.06.18-.04.22.07.11.28.16.5.22.79.02.11.02.17-.1.22-.6.23-1.36.44-2.03.59.52.86.98,1.54,1.57,2.08.12.11.12.16.06.29-.13.28-.3.52-.49.74-.07.08-.12.12-.19.12-.05,0-.1-.02-.17-.07-.19-.16-.43-.26-.71-.38-.61-.26-1.4-.38-2.25-.38-1.13,0-1.79.35-1.79.91,0,.78,1.02,1.03,2.85,1.03.44,0,.89-.05,1.32-.07.12,0,.16.06.14.16-.05.3-.13.77-.24,1.09-.04.12-.08.17-.25.18-.28.02-.56.04-.86.04-2.76,0-4.22-.78-4.22-2.25,0-1.28,1.1-2.09,2.97-2.09.88,0,1.58.1,2.06.3-.28-.32-.67-.9-1-1.42-1.24.19-2.41.34-3.29.36-.13,0-.18-.05-.22-.17-.07-.24-.18-.65-.22-.98,1.2-.02,2.16-.12,3.23-.3-.12-.25-.3-.66-.46-1-1.1.17-1.99.28-2.91.29-.14,0-.22-.05-.24-.17-.04-.13-.12-.58-.19-.96,1.17.01,2.13-.08,2.99-.19-.1-.28-.17-.48-.29-.78Z"/><path class="uuid-1f8766d8-a95a-40f4-996d-03f547549c43" d="M299.11,22.2c.59-.6,1.17-1.21,1.74-1.81.48-.5.71-.64,1.08-.64s.6.1,1.04.49c1.52,1.36,3.36,2.66,5.37,3.9.16.07.18.19.11.32-.22.43-.42.77-.62,1.04-.06.08-.12.13-.18.13-.05,0-.08-.01-.13-.05-1.91-1.32-3.59-2.65-5.31-4.19-.07-.06-.13-.08-.19-.08-.08,0-.13.04-.19.1-.59.61-1.13,1.26-1.96,2.17-.32.36-.42.52-.48.61-.06.1-.13.16-.22.16-.05,0-.11-.02-.17-.08-.32-.26-.68-.61-1.12-1.06.48-.3.77-.54,1.22-1.02ZM307.59,19.43c0,.72-.58,1.28-1.29,1.28s-1.29-.56-1.29-1.28.58-1.28,1.29-1.28,1.29.56,1.29,1.28ZM305.58,19.43c0,.41.3.71.71.71s.71-.3.71-.71-.3-.71-.71-.71-.71.3-.71.71Z"/><path class="uuid-1f8766d8-a95a-40f4-996d-03f547549c43" d="M313.4,25.77c-.78,0-1.57.01-2.16.06-.12,0-.16-.07-.18-.23-.05-.28-.07-.68-.11-1.32.86.06,1.73.07,2.48.07h4.37c1.33,0,2.15-.04,2.7-.06.16,0,.19.06.19.22.02.34.02.71,0,1.04,0,.18-.02.25-.18.25-.58-.02-1.81-.04-2.63-.04h-4.49ZM314.5,20.67c-.75,0-1.28.02-1.83.05-.12,0-.16-.07-.17-.25-.06-.37-.07-.78-.07-1.27.75.06,1.32.07,2.04.07h2.37c.92,0,1.64-.04,2.16-.06.1,0,.13.06.13.2.02.35.02.72,0,1.07-.01.17-.04.23-.16.23-.56-.02-1.33-.04-2.1-.04h-2.38Z"/><path class="uuid-1f8766d8-a95a-40f4-996d-03f547549c43" d="M324.37,18.56c.05-.06.11-.1.17-.1.05,0,.1.02.16.06.61.32,1.61,1.06,2.29,1.7.07.07.11.12.11.17s-.02.1-.07.16c-.18.24-.58.72-.74.9-.06.06-.1.1-.14.1s-.1-.04-.16-.1c-.72-.74-1.58-1.43-2.45-1.95.26-.32.61-.7.84-.94ZM325.41,24.88c1.46-.76,2.24-1.26,3.45-2.23,1.46-1.19,2.27-1.95,3.29-3.26.07.6.18,1.01.34,1.4.04.08.06.16.06.23,0,.11-.06.2-.19.36-.64.74-1.67,1.7-2.76,2.54-1,.78-2,1.45-3.62,2.35-.54.32-.7.44-.8.55-.07.07-.14.12-.22.12-.06,0-.13-.05-.2-.13-.3-.34-.67-.83-.96-1.33.61-.17.98-.28,1.62-.6Z"/><path class="uuid-1f8766d8-a95a-40f4-996d-03f547549c43" d="M109.55,42.73c.06-.08.12-.14.23-.12.9.3,1.62.68,2.3,1.18.08.06.13.11.13.18,0,.04-.02.08-.05.13-.13.32-.34.64-.53.91-.06.07-.11.12-.16.12s-.08-.02-.14-.07c-.77-.56-1.55-.96-2.42-1.31.3-.48.49-.83.64-1.02ZM111.49,47.18c1.14-.6,2.12-1.16,3.29-2.07.96-.73,2.24-1.88,3.45-3.35.07.53.17.83.35,1.34.04.08.06.16.06.23,0,.1-.04.18-.13.28-1.12,1.2-1.87,1.86-3.05,2.77-1.04.79-2.16,1.48-3.59,2.25-.29.16-.58.29-.7.41-.07.07-.13.1-.19.1-.08,0-.17-.05-.24-.14-.25-.25-.58-.72-.89-1.22.5-.1.92-.23,1.63-.59ZM111,39.98c.08-.14.16-.17.3-.1.77.31,1.59.76,2.25,1.33.07.05.1.11.1.16s-.01.1-.05.16c-.17.3-.41.68-.61.9-.04.06-.08.07-.12.07-.06,0-.12-.04-.18-.08-.62-.52-1.56-1.13-2.33-1.48.2-.31.43-.65.64-.96Z"/><path class="uuid-1f8766d8-a95a-40f4-996d-03f547549c43" d="M127.18,47.42c.48,0,1.01-.01,1.46-.01.2-.01.25.02.26.22.01.23.01.53,0,.76-.01.23-.05.24-.23.24-.54,0-1.12-.01-1.67-.01h-4.41c-.49,0-.96,0-1.55.02-.13,0-.18-.06-.2-.24-.05-.25-.06-.64-.06-1.01.68.05,1.13.05,1.73.05h2.78l.41-2.91h-1.93c-.47,0-1.01.02-1.32.04-.14.01-.19-.02-.22-.23-.04-.25-.06-.64-.08-1.03.8.04,1.16.06,1.67.06h1.66c.43,0,.54-.04.71-.11.05-.04.1-.05.13-.05.06,0,.12.04.18.07.22.16.54.42.73.66.07.07.11.14.11.22s-.04.14-.11.22c-.16.17-.19.3-.24.6l-.37,2.46h.56Z"/><path class="uuid-1f8766d8-a95a-40f4-996d-03f547549c43" d="M133.66,43.71c-.6,0-1.2.01-1.8.05-.11,0-.16-.07-.18-.23-.07-.3-.1-.74-.13-1.21.68.07,1.42.1,2.21.1h4.11c.2,0,.44-.02.64-.13.06-.05.11-.07.16-.07.06,0,.12.04.18.08.29.23.61.53.8.74.08.08.12.17.12.25,0,.07-.04.16-.13.23-.19.16-.28.29-.41.56-1.2,2.55-2.58,4.05-4.89,5.3-.1.05-.17.08-.24.08-.08,0-.17-.05-.26-.14-.32-.29-.71-.47-1.12-.62,2.22-1.03,4.17-2.69,5.04-5h-4.09ZM134.46,41.13c-.54,0-1.14.01-1.64.05-.12,0-.16-.07-.17-.26-.04-.25-.06-.78-.06-1.15.73.07,1.09.08,1.97.08h2.16c.78,0,1.42-.04,1.88-.06.11,0,.14.06.14.19.02.3.02.64,0,.94,0,.2-.04.25-.22.24-.4,0-.96-.02-1.69-.02h-2.38Z"/><path class="uuid-1f8766d8-a95a-40f4-996d-03f547549c43" d="M145.73,41.04c-.12-.6-.25-1.03-.48-1.5.52-.04,1.04-.07,1.56-.04.16.01.24.06.24.18,0,.13-.07.35.02.86l.18,1.01.98-.17c.68-.12,1.52-.26,2.15-.43.06,0,.11.05.13.13.1.31.17.62.24,1.03,0,.08-.06.12-.18.13-.55.1-1.4.23-2,.34l-1.06.19.3,1.54,1.74-.3c.85-.14,1.44-.28,1.88-.4.16-.04.19.01.2.13.08.3.16.6.2.96,0,.11-.06.19-.18.2-.36.05-1.08.17-1.93.31l-1.65.29.28,1.33c.17.8.37,1.57.53,2.17.01.06-.05.1-.16.13-.25.08-.77.2-1.09.25-.16.01-.23-.05-.24-.14-.08-.44-.22-1.28-.38-2.05l-.3-1.42-1.63.29c-.82.14-1.49.29-1.94.41-.13.05-.23.01-.28-.13-.12-.35-.24-.8-.34-1.19.73-.08,1.37-.18,2.23-.32l1.68-.28-.3-1.55-1.13.18c-.66.11-1.46.28-1.79.36-.12.04-.18,0-.23-.12-.11-.28-.26-.86-.34-1.2.65-.05,1.31-.13,2.13-.26l1.09-.17-.16-.77Z"/><path class="uuid-1f8766d8-a95a-40f4-996d-03f547549c43" d="M155.69,42.84c.13-.06.22-.05.31.08.42.53.8,1.14,1.03,1.77.02.08.05.13.05.18,0,.07-.05.11-.14.17-.29.17-.49.26-.77.37-.17.06-.24,0-.3-.17-.28-.7-.65-1.36-1.13-1.93.41-.23.7-.36.95-.48ZM162.27,43c.1.07.16.13.16.2s-.04.13-.13.22c-.18.16-.26.4-.36.61-.52,1.22-1.14,2.31-1.81,3.19-.79,1.01-1.45,1.64-2.47,2.31-.1.07-.19.13-.29.13-.06,0-.13-.02-.19-.08-.3-.24-.58-.37-1.02-.5,1.44-.95,2.16-1.56,2.88-2.49.6-.78,1.27-1.96,1.62-2.89.16-.44.23-.71.28-1.27.5.16,1.04.37,1.34.58ZM158.11,42.27c.13-.06.22-.05.31.1.32.42.73,1.18.92,1.75.06.18.04.24-.12.32-.23.13-.49.25-.83.37-.13.05-.18-.01-.24-.18-.28-.71-.55-1.28-1.01-1.92.48-.23.76-.36.96-.44Z"/><path class="uuid-1f8766d8-a95a-40f4-996d-03f547549c43" d="M169.78,43.47c0-.38-.01-.86-.02-1.21-.01-.16-.02-.31-.06-.55-.79.14-1.92.32-2.84.38-.18.02-.25-.13-.3-.26-.12-.24-.29-.49-.61-.83,1.5-.07,2.43-.23,3.56-.44.83-.18,1.43-.31,1.98-.52.56-.22.77-.34,1.03-.54.41.3.79.6.98.84.1.1.16.2.16.34s-.12.16-.31.17c-.25.04-.5.14-.76.2-.73.2-1.46.38-2.17.53.31.04.59.08.78.16.1.02.16.08.16.17,0,.06-.04.12-.07.2-.05.11-.07.23-.08.41-.01.26-.01.54-.01.95h1.49c.76,0,1.78-.06,2.31-.08.12,0,.12.06.13.19.02.31.01.68,0,.96-.01.17-.01.22-.16.22-.76-.02-1.45-.04-2.33-.04h-1.48c-.1,1.02-.26,1.74-.6,2.41-.42.89-1.13,1.73-1.91,2.24-.07.05-.13.08-.2.08-.06,0-.13-.02-.22-.07-.43-.23-.88-.37-1.27-.46,1.2-.71,1.75-1.32,2.24-2.22.31-.61.48-1.25.53-1.99h-2.13c-.43,0-1.32,0-1.91.05-.16.01-.19-.08-.23-.28-.06-.23-.12-.72-.12-1.09.85.07,1.74.08,2.33.08h2.11Z"/><path class="uuid-1f8766d8-a95a-40f4-996d-03f547549c43" d="M177.85,40.56c.05-.06.11-.1.17-.1.05,0,.1.02.16.06.61.32,1.61,1.06,2.29,1.7.07.07.11.12.11.17s-.02.1-.07.16c-.18.24-.58.72-.74.9-.06.06-.1.1-.14.1s-.1-.04-.16-.1c-.72-.74-1.58-1.43-2.45-1.95.26-.32.61-.7.84-.94ZM178.89,46.88c1.46-.76,2.24-1.26,3.45-2.23,1.46-1.19,2.27-1.95,3.29-3.26.07.6.18,1.01.34,1.4.04.08.06.16.06.23,0,.11-.06.2-.19.36-.63.74-1.67,1.7-2.76,2.54-1,.78-2,1.45-3.62,2.35-.54.32-.7.44-.8.55-.07.07-.14.12-.22.12-.06,0-.13-.05-.2-.13-.3-.34-.67-.83-.96-1.33.61-.17.98-.28,1.62-.6Z"/><path class="uuid-1f8766d8-a95a-40f4-996d-03f547549c43" d="M192.07,48.43c0,.96-.78,1.73-1.74,1.73s-1.74-.77-1.74-1.73.78-1.73,1.74-1.73,1.74.77,1.74,1.73ZM189.33,48.43c0,.56.43,1,1,1s1-.43,1-1-.43-1-1-1-1,.43-1,1Z"/><path class="uuid-1f8766d8-a95a-40f4-996d-03f547549c43" d="M198.89,41.99c-.78,0-1.46.04-1.98.06-.16.01-.2-.07-.23-.24-.04-.24-.08-.86-.11-1.21.54.06,1.17.08,2.3.08h4.28c.36,0,.49-.02.66-.12.06-.04.12-.05.18-.05.07,0,.14.02.23.06.32.2.65.5.88.79.06.07.08.13.08.2,0,.11-.06.2-.17.3-.11.11-.17.23-.28.47-.59,1.42-1.32,2.73-2.33,3.9-1.03,1.18-2.2,2.17-3.41,2.85-.11.07-.22.11-.32.11-.1,0-.2-.04-.3-.13-.28-.26-.67-.48-1.12-.66,1.75-.89,2.82-1.72,3.92-3,.94-1.07,1.55-2.09,2.03-3.42h-4.33Z"/><path class="uuid-1f8766d8-a95a-40f4-996d-03f547549c43" d="M210.19,43.71c-.6,0-1.2.01-1.8.05-.11,0-.16-.07-.18-.23-.07-.3-.1-.74-.13-1.21.68.07,1.42.1,2.21.1h4.11c.2,0,.44-.02.64-.13.06-.05.11-.07.16-.07.06,0,.12.04.18.08.29.23.61.53.8.74.08.08.12.17.12.25,0,.07-.04.16-.13.23-.19.16-.28.29-.41.56-1.2,2.55-2.58,4.05-4.89,5.3-.1.05-.17.08-.24.08-.08,0-.17-.05-.26-.14-.32-.29-.71-.47-1.12-.62,2.22-1.03,4.17-2.69,5.04-5h-4.09ZM211,41.13c-.54,0-1.14.01-1.64.05-.12,0-.16-.07-.17-.26-.04-.25-.06-.78-.06-1.15.73.07,1.09.08,1.97.08h2.16c.78,0,1.42-.04,1.88-.06.11,0,.14.06.14.19.02.3.02.64,0,.94,0,.2-.04.25-.22.24-.4,0-.96-.02-1.69-.02h-2.37Z"/><path class="uuid-1f8766d8-a95a-40f4-996d-03f547549c43" d="M220.58,42.84c.13-.06.22-.05.31.08.42.53.8,1.14,1.03,1.77.02.08.05.13.05.18,0,.07-.05.11-.14.17-.29.17-.49.26-.77.37-.17.06-.24,0-.3-.17-.28-.7-.65-1.36-1.13-1.93.41-.23.7-.36.95-.48ZM227.16,43c.1.07.16.13.16.2s-.04.13-.13.22c-.18.16-.26.4-.36.61-.52,1.22-1.14,2.31-1.81,3.19-.79,1.01-1.45,1.64-2.47,2.31-.1.07-.19.13-.29.13-.06,0-.13-.02-.19-.08-.3-.24-.58-.37-1.02-.5,1.44-.95,2.16-1.56,2.88-2.49.6-.78,1.27-1.96,1.62-2.89.16-.44.23-.71.28-1.27.5.16,1.04.37,1.34.58ZM223,42.27c.13-.06.22-.05.31.1.32.42.73,1.18.92,1.75.06.18.04.24-.12.32-.23.13-.49.25-.83.37-.13.05-.18-.01-.24-.18-.28-.71-.55-1.28-1.01-1.92.48-.23.75-.36.96-.44Z"/><path class="uuid-1f8766d8-a95a-40f4-996d-03f547549c43" d="M233.19,42.81c1.46.46,2.63.92,3.81,1.63.13.07.19.16.13.31-.16.4-.35.77-.52,1.04-.05.08-.1.13-.16.13-.04,0-.08-.01-.13-.06-1.1-.71-2.18-1.24-3.15-1.54v2.65c0,.78.02,1.49.05,2.35.01.14-.05.18-.22.18-.35.02-.72.02-1.07,0-.17,0-.23-.04-.23-.18.04-.89.05-1.6.05-2.36v-5.9c0-.9-.04-1.29-.12-1.77.55.04,1.15.1,1.5.19.17.04.23.11.23.2,0,.07-.04.17-.1.28-.08.16-.08.46-.08,1.13v1.72Z"/><path class="uuid-1f8766d8-a95a-40f4-996d-03f547549c43" d="M244.94,41.77c-1.46.28-2.75.53-4.03.79-.46.11-.58.13-.76.19-.08.04-.17.1-.26.1-.08,0-.18-.07-.23-.18-.16-.32-.29-.74-.44-1.3.61-.02.97-.07,1.91-.2,1.48-.22,4.11-.61,7.21-1.02.18-.02.24.05.25.13.06.28.12.72.13,1.06,0,.14-.07.18-.23.18-.56.04-.95.1-1.46.26-2.04.7-3.06,2.1-3.06,3.54,0,1.55,1.1,2.39,3.19,2.52.19,0,.26.05.26.18,0,.31-.05.73-.13,1.03-.04.18-.08.25-.23.25-2.11,0-4.42-1.21-4.42-3.71,0-1.7.85-2.85,2.3-3.8v-.02ZM247.32,43.07c.06-.05.11-.04.18.02.37.29.8.77,1.14,1.28.05.07.05.13-.04.19l-.5.37c-.08.06-.14.05-.2-.04-.36-.55-.74-1.01-1.21-1.39l.64-.44ZM248.39,42.29c.07-.05.11-.04.18.02.44.34.88.82,1.14,1.24.05.07.06.14-.04.22l-.48.37c-.1.07-.16.04-.2-.04-.32-.52-.71-.97-1.2-1.38l.6-.43Z"/><path class="uuid-1f8766d8-a95a-40f4-996d-03f547549c43" d="M252.53,42.73c.06-.08.12-.14.23-.12.9.3,1.62.68,2.3,1.18.08.06.13.11.13.18,0,.04-.02.08-.05.13-.13.32-.34.64-.53.91-.06.07-.11.12-.16.12s-.08-.02-.14-.07c-.77-.56-1.55-.96-2.42-1.31.3-.48.49-.83.64-1.02ZM254.47,47.18c1.14-.6,2.12-1.16,3.29-2.07.96-.73,2.24-1.88,3.45-3.35.07.53.17.83.35,1.34.04.08.06.16.06.23,0,.1-.04.18-.13.28-1.12,1.2-1.87,1.86-3.05,2.77-1.04.79-2.16,1.48-3.59,2.25-.29.16-.58.29-.7.41-.07.07-.13.1-.19.1-.08,0-.17-.05-.24-.14-.25-.25-.58-.72-.89-1.22.5-.1.92-.23,1.63-.59ZM253.98,39.98c.08-.14.16-.17.3-.1.77.31,1.59.76,2.25,1.33.07.05.1.11.1.16s-.01.1-.05.16c-.17.3-.41.68-.61.9-.04.06-.08.07-.12.07-.06,0-.12-.04-.18-.08-.62-.52-1.56-1.13-2.33-1.48.2-.31.43-.65.64-.96Z"/><path class="uuid-1f8766d8-a95a-40f4-996d-03f547549c43" d="M264.86,40.56c.05-.06.11-.1.17-.1.05,0,.1.02.16.06.61.32,1.61,1.06,2.29,1.7.07.07.11.12.11.17s-.02.1-.07.16c-.18.24-.58.72-.74.9-.06.06-.1.1-.14.1s-.1-.04-.16-.1c-.72-.74-1.58-1.43-2.45-1.95.26-.32.61-.7.84-.94ZM265.91,46.88c1.46-.76,2.24-1.26,3.45-2.23,1.46-1.19,2.27-1.95,3.29-3.26.07.6.18,1.01.34,1.4.04.08.06.16.06.23,0,.11-.06.2-.19.36-.63.74-1.67,1.7-2.76,2.54-1,.78-2,1.45-3.62,2.35-.54.32-.7.44-.8.55-.07.07-.14.12-.22.12-.06,0-.13-.05-.2-.13-.3-.34-.67-.83-.96-1.33.61-.17.98-.28,1.62-.6Z"/><path class="uuid-1f8766d8-a95a-40f4-996d-03f547549c43" d="M277.85,42.15c-.78,0-1.46.04-1.98.06-.16.01-.2-.07-.23-.24-.04-.24-.08-.86-.11-1.21.54.06,1.17.08,2.3.08h4.28c.36,0,.49-.02.66-.12.07-.05.14-.07.2-.07.07,0,.14.02.2.08.31.25.61.54.82.83.06.08.1.16.1.24,0,.07-.04.14-.12.23-.11.11-.17.23-.28.47-.59,1.42-1.32,2.73-2.33,3.9-1.03,1.18-2.2,2.17-3.41,2.85-.11.07-.22.11-.32.11-.1,0-.2-.04-.3-.13-.28-.26-.67-.48-1.12-.66,1.75-.89,2.82-1.72,3.92-3,.94-1.07,1.55-2.09,2.03-3.42h-4.33ZM286.14,39.84c0,.72-.58,1.28-1.29,1.28s-1.29-.56-1.29-1.28.58-1.28,1.29-1.28,1.29.56,1.29,1.28ZM284.14,39.84c0,.41.3.71.71.71s.71-.3.71-.71-.3-.71-.71-.71-.71.3-.71.71Z"/><path class="uuid-1f8766d8-a95a-40f4-996d-03f547549c43" d="M290.28,41.37c.2.06.23.2.16.37-.13.26-.14.53-.14.82-.02,1.5-.25,2.64-.65,3.53-.31.73-.84,1.51-1.7,2.25-.12.1-.22.16-.31.16-.07,0-.14-.04-.23-.1-.3-.2-.59-.35-1.02-.5.94-.71,1.57-1.44,1.99-2.39.34-.82.49-1.48.5-3.39,0-.46-.02-.65-.12-1.01.68.08,1.24.17,1.52.26ZM292.94,46.44c.59-.31,1.14-.68,1.7-1.12.72-.55,1.43-1.19,2.1-2.04.05.42.17.82.37,1.21.04.08.07.14.07.2,0,.08-.05.17-.18.3-.6.61-1.15,1.1-1.78,1.57-.62.48-1.29.95-2.13,1.44-.22.14-.24.17-.35.25-.07.06-.16.1-.24.1-.07,0-.16-.04-.25-.1-.26-.18-.54-.49-.72-.73-.07-.11-.11-.18-.11-.25,0-.06.01-.11.05-.18.08-.16.07-.3.07-.91v-3.75c0-1.04,0-1.54-.12-2.09.48.06,1.14.14,1.5.25.16.04.22.11.22.2,0,.07-.04.18-.1.3-.11.23-.11.47-.11,1.33v4.01Z"/><path class="uuid-1f8766d8-a95a-40f4-996d-03f547549c43" d="M304.23,41.02c.11-.04.16-.04.18.1.06.3.1.66.11.97,0,.11-.05.13-.14.14-.65.13-1.24.22-1.98.32-.77,2.03-1.48,3.68-2.34,5.15-.05.08-.08.12-.13.12-.04,0-.08-.02-.14-.06-.28-.17-.62-.42-.83-.61-.06-.05-.08-.08-.08-.13,0-.04.01-.08.06-.14.9-1.49,1.54-2.75,2.08-4.19-.46.02-.83.02-1.2.02-.26,0-.36,0-.66-.01-.12,0-.14-.04-.17-.19-.06-.23-.1-.62-.12-1.02.49.04.77.05,1.12.05.47,0,.83-.01,1.38-.06.14-.5.23-.91.31-1.34.07-.42.07-.6.07-.97.52.07,1.03.14,1.4.25.12.02.19.1.19.18,0,.1-.04.16-.11.23-.07.1-.12.2-.19.44-.08.29-.18.66-.29,1.02.47-.05,1.02-.16,1.49-.26ZM304.57,44.23c-.01-.32-.02-.52-.1-.85.59.06.9.11,1.31.23.11.02.17.08.17.19,0,.02-.02.11-.07.25-.05.14-.06.29-.05.49,0,.71.04,1.22.13,2.04.86.35,1.45.61,2.16,1.12.12.08.13.13.07.25-.18.37-.35.67-.55.97-.04.06-.07.08-.11.08s-.07-.02-.12-.07c-.53-.46-.97-.72-1.46-1.01,0,1.2-.86,1.75-2.23,1.75s-2.21-.67-2.21-1.7.86-1.75,2.22-1.75c.23,0,.56.01.95.07-.07-.77-.1-1.5-.11-2.06ZM303.72,47.26c-.6,0-1.07.24-1.07.7,0,.38.33.58,1.02.58.65,0,1.04-.35,1.04-.85,0-.11,0-.17-.01-.24-.29-.1-.61-.18-.98-.18ZM305.95,41.49c.07-.12.13-.13.25-.08.71.19,1.66.67,2.35,1.13.07.05.11.08.11.13,0,.04-.01.08-.05.14-.12.26-.34.64-.5.89-.04.06-.07.08-.11.08s-.06-.01-.11-.05c-.71-.48-1.57-1.01-2.48-1.31.2-.36.38-.72.54-.94Z"/><path class="uuid-1f8766d8-a95a-40f4-996d-03f547549c43" d="M316.79,44.13c-.07,1.34-.24,2.15-.71,3.06-.48.94-1.34,1.81-2.11,2.27-.13.08-.25.14-.36.14-.08,0-.17-.04-.25-.12-.24-.24-.65-.48-1.07-.64,1.17-.64,1.88-1.22,2.39-2.13.44-.79.56-1.44.61-2.58h-2.28c-.6,0-1.19.04-1.8.07-.11.01-.14-.07-.16-.23-.06-.34-.1-.79-.1-1.15.67.06,1.34.06,2.04.06h5.39c.94,0,1.63-.02,2.34-.07.12,0,.13.07.13.24.01.16.01.77,0,.92,0,.16-.07.2-.18.2-.62-.02-1.45-.05-2.28-.05h-1.61ZM314.41,41.34c-.55,0-1.03.02-1.7.05-.16,0-.19-.06-.2-.2-.04-.29-.05-.72-.08-1.15.84.05,1.45.06,1.99.06h2.21c.67,0,1.43-.01,2.03-.05.12,0,.14.07.14.23.02.29.02.59,0,.88,0,.17-.02.23-.16.23-.65-.02-1.36-.04-2.02-.04h-2.21ZM319.57,39.26c.06-.04.11-.02.17.04.35.32.73.85,1.02,1.39.04.07.04.13-.06.19l-.54.32c-.08.05-.14.02-.19-.06-.31-.59-.65-1.08-1.08-1.5l.68-.38ZM320.71,38.58c.07-.05.11-.02.17.04.41.38.79.9,1.02,1.34.04.07.05.14-.06.22l-.5.32c-.11.06-.17.01-.2-.06-.28-.54-.61-1.03-1.07-1.49l.65-.37Z"/><path class="uuid-1f8766d8-a95a-40f4-996d-03f547549c43" d="M331.39,42.35c.59,0,1.26-.01,1.81-.04.14-.01.16.06.17.19.02.3.02.65,0,.95-.01.16-.04.2-.2.19-.41,0-1.14-.01-1.73-.01h-.49c-.07,1.71-.34,2.72-.92,3.69-.6,1-1.57,1.71-2.83,2.23-.17.07-.26.11-.34.11s-.13-.04-.23-.13c-.36-.37-.59-.54-1-.72,1.7-.53,2.63-1.14,3.24-2.12.47-.77.66-1.6.71-3.06h-2.55v.43c0,.71,0,1.35.04,1.99.01.13-.07.16-.2.17-.31.02-.71.02-1.03,0-.16-.01-.23-.04-.22-.17.04-.62.06-1.21.06-1.97v-.46h-.36c-.65,0-1.61.04-1.98.06-.1,0-.13-.07-.14-.23-.05-.25-.06-.67-.08-1.16.5.04,1.28.06,2.21.06h.36v-.88c0-.77-.02-1.07-.14-1.76.62.06,1.21.12,1.46.19.13.02.18.08.18.17,0,.07-.04.16-.07.25-.08.22-.08.34-.08,1.15v.88h2.58v-1.18c.02-.67-.01-1.22-.1-1.64.46.05,1.12.12,1.4.2.17.04.22.1.22.19,0,.05-.01.12-.05.22-.08.23-.1.54-.1,1.06v1.14h.42ZM331.99,39.45c.06-.02.11-.02.17.05.32.35.67.89.92,1.45.04.08.02.13-.07.18l-.49.25c-.1.05-.16.02-.2-.07-.26-.6-.56-1.1-.97-1.56l.65-.3ZM333.12,38.93c.07-.04.11-.02.17.05.38.41.73.95.92,1.4.04.07.04.16-.07.2l-.48.24c-.11.05-.16.01-.19-.06-.24-.56-.55-1.08-.97-1.56l.62-.28Z"/><path class="uuid-1f8766d8-a95a-40f4-996d-03f547549c43" d="M115.09,68.73c0,.83.01,1.54.04,2.49.01.16-.05.2-.18.2-.38.02-.82.02-1.2,0-.13,0-.18-.05-.17-.19.01-.86.05-1.64.05-2.46v-2.79c-1.06.89-2.34,1.8-3.3,2.3-.06.04-.12.05-.18.05-.1,0-.17-.04-.25-.12-.28-.28-.67-.52-1.03-.71,1.66-.85,2.67-1.55,3.78-2.46.95-.78,1.81-1.62,2.55-2.51.41-.48.56-.72.76-1.24.54.3,1.07.62,1.33.84.07.05.1.12.1.18,0,.1-.07.2-.17.26-.2.13-.4.31-.72.66-.47.56-.91,1.03-1.4,1.51v3.97Z"/><path class="uuid-1f8766d8-a95a-40f4-996d-03f547549c43" d="M120.8,62.56c.05-.06.11-.1.17-.1.05,0,.1.02.16.06.61.32,1.61,1.06,2.29,1.7.07.07.11.12.11.17s-.02.1-.07.16c-.18.24-.58.72-.74.9-.06.06-.1.1-.14.1s-.1-.04-.16-.1c-.72-.74-1.58-1.43-2.45-1.95.26-.32.61-.7.84-.94ZM121.84,68.88c1.46-.76,2.24-1.26,3.45-2.23,1.46-1.19,2.27-1.95,3.29-3.26.07.6.18,1.01.34,1.4.04.08.06.16.06.23,0,.11-.06.2-.19.36-.63.74-1.67,1.7-2.76,2.54-1,.78-2,1.45-3.62,2.35-.54.32-.7.44-.8.55-.07.07-.14.12-.22.12-.06,0-.13-.05-.2-.13-.3-.34-.67-.83-.96-1.33.61-.17.98-.28,1.62-.6Z"/><path class="uuid-1f8766d8-a95a-40f4-996d-03f547549c43" d="M136.68,63.77c-1.46.28-2.75.53-4.03.79-.46.11-.58.13-.76.19-.08.04-.17.1-.26.1-.08,0-.18-.07-.23-.18-.16-.32-.29-.74-.44-1.3.61-.02.97-.07,1.91-.2,1.48-.22,4.11-.61,7.21-1.02.18-.02.24.05.25.13.06.28.12.72.13,1.06,0,.14-.07.18-.23.18-.56.04-.95.1-1.46.26-2.04.7-3.06,2.1-3.06,3.54,0,1.55,1.1,2.39,3.19,2.52.19,0,.26.05.26.18,0,.31-.05.73-.13,1.03-.04.18-.08.25-.23.25-2.11,0-4.42-1.21-4.42-3.71,0-1.7.85-2.85,2.3-3.8v-.02ZM139.05,65.07c.06-.05.11-.04.18.02.37.29.8.77,1.14,1.28.05.07.05.13-.04.19l-.5.37c-.08.06-.14.05-.2-.04-.36-.55-.74-1.01-1.21-1.39l.64-.44ZM140.12,64.29c.07-.05.11-.04.18.02.44.34.88.82,1.14,1.24.05.07.06.14-.04.22l-.48.37c-.1.07-.16.04-.2-.04-.32-.52-.71-.97-1.2-1.38l.6-.43Z"/><path class="uuid-1f8766d8-a95a-40f4-996d-03f547549c43" d="M144.27,67.19c0-.43.01-.95.02-1.46-.22.31-.46.61-.7.9-.08.11-.16.16-.2.16-.06,0-.11-.07-.14-.22-.1-.4-.25-.77-.43-1.01.97-1.09,1.7-2.43,2.17-3.84.1-.28.16-.56.18-.85.41.11.82.23,1.15.36.13.06.2.1.2.18s-.04.14-.13.22c-.08.06-.14.17-.25.48-.19.55-.42,1.08-.66,1.6v6.25c0,1.18.02,1.76.02,1.82,0,.12-.01.13-.13.13h-1c-.12,0-.13-.01-.13-.13,0-.07.02-.65.02-1.82v-2.76ZM148.04,63.41c-1.19,0-1.58.02-1.66.02-.12,0-.13-.01-.13-.13v-.9c0-.12.01-.13.13-.13.07,0,.47.02,1.66.02h1.31v-.07c0-.61-.01-.92-.07-1.27.43.01.84.02,1.22.07.12.01.2.06.2.13,0,.08-.04.17-.07.24-.05.11-.08.29-.08.83v.07h1.69c1.18,0,1.58-.02,1.64-.02.13,0,.14.01.14.13v.9c0,.12-.01.13-.14.13-.06,0-.47-.02-1.64-.02h-1.69v.92h1.08c1.14,0,1.55-.02,1.62-.02.12,0,.13.01.13.13,0,.07-.02.32-.02.96v1.22c0,.62.02.89.02.96,0,.12-.01.13-.13.13-.07,0-.48-.02-1.62-.02h-1.21c-.06.48-.14.89-.28,1.22-.11.26-.22.5-.35.73,1.15.58,2.6.82,4.44.89-.14.23-.28.54-.36.86q-.07.37-.46.35c-1.8-.13-3.21-.52-4.35-1.2-.52.46-1.26.86-2.39,1.22-.12.04-.2.06-.26.06-.12,0-.17-.08-.26-.3-.13-.31-.29-.56-.48-.76,1.15-.25,1.9-.55,2.41-.94-.43-.37-.82-.82-1.15-1.31-.07-.11-.06-.13.08-.22l.61-.35c.13-.07.17-.07.24.02.29.4.6.73.95,1.02.08-.14.14-.29.22-.44.1-.25.17-.54.22-.88h-.9c-1.14,0-1.55.02-1.61.02-.12,0-.13-.01-.13-.13,0-.07.02-.34.02-.96v-1.22c0-.64-.02-.88-.02-.96,0-.12.01-.13.13-.13.06,0,.47.02,1.61.02h1.01v-.92h-1.31ZM147.78,65.37v1.31h1.55c.01-.38.02-.83.02-1.31h-1.57ZM152.18,66.68v-1.31h-1.63l-.04,1.31h1.67Z"/><path class="uuid-1f8766d8-a95a-40f4-996d-03f547549c43" d="M157.51,63.03c.11.05.19.13.19.22,0,.07-.04.19-.1.34-.05.14-.11.66-.11,1.18,0,.77.02,1.63.22,2.73.17.95.48,1.76.98,1.76.38,0,.68-.42,1.15-1.67.26.42.53.7.77.92.14.13.14.28.08.44-.46,1.22-1.2,1.87-2.04,1.87-.94,0-1.92-1.1-2.24-3.13-.19-1.14-.29-2.39-.29-3.49,0-.66-.02-1.02-.14-1.57.58.07,1.16.22,1.52.4ZM163.07,63.79s.1-.05.13-.05c.05,0,.08.02.13.07,1.09.95,2.05,2.6,2.35,4.1.04.16-.04.2-.13.26-.31.2-.61.37-.94.48-.14.05-.23.01-.25-.13-.41-1.71-1.02-2.96-2.24-4.19.46-.29.76-.46.95-.55Z"/><path class="uuid-1f8766d8-a95a-40f4-996d-03f547549c43" d="M178.09,65.93c0,.12-.01.13-.12.13-.07,0-.36-.01-1.17-.02.43.58.92,1.03,1.52,1.38-.14.17-.31.46-.44.77-.07.17-.12.25-.19.25-.06,0-.13-.06-.25-.16-.79-.68-1.4-1.39-1.88-2.25h-1.97c-.38.7-.86,1.32-1.44,1.86.07,0,.4.02,1.36.02h.17c0-.1.01-.19.02-.3.02-.44.02-.67-.01-.98.46.04.73.06,1.04.11.16.02.23.08.23.17,0,.06-.04.1-.08.16-.08.11-.08.28-.1.59l-.02.26h.67c.92,0,1.25-.02,1.32-.02.11,0,.13.02.13.14-.02.28-.04.53-.05.89-.04.91-.14,1.81-.33,2.22-.28.6-.92.62-1.42.62-.2,0-.4,0-.53-.01-.12-.01-.17-.12-.19-.29-.06-.35-.16-.66-.25-.84.36.06.59.08.92.08.26,0,.4-.05.48-.23.13-.3.17-.83.19-1.6h-1.08c-.31,1.4-1.06,2.29-2.53,2.87-.14.05-.23.08-.29.08-.08,0-.13-.06-.23-.22-.16-.28-.34-.47-.54-.64,1.44-.38,2.16-.97,2.47-2.1-.96,0-1.28.02-1.36.02-.11,0-.12-.01-.12-.13v-.78l-.35.3c-.12.1-.19.14-.25.14-.07,0-.12-.08-.22-.25-.11-.19-.22-.36-.34-.49v1.18c0,.55.02,1.19.02,1.68s-.05.79-.3,1.01c-.19.14-.47.22-.96.24q-.37.02-.46-.35c-.07-.31-.18-.6-.3-.82.28.02.5.04.7.02.16-.01.28-.11.28-.4v-2.27h-1.13c-.08,1.7-.3,2.72-.66,3.63-.05.14-.1.2-.16.2s-.12-.05-.2-.16c-.23-.29-.49-.52-.68-.62.52-1.08.74-2.53.74-5.67v-1.96c0-1.25-.02-1.9-.02-1.98,0-.12.01-.13.13-.13.08,0,.29.02.97.02h.92c.71,0,.91-.02,1-.02.12,0,.13.01.13.13,0,.07-.02.73-.02,1.98v4.08c.59-.38,1.08-.88,1.49-1.46-.76.01-1.03.02-1.09.02-.12,0-.13-.01-.13-.13v-.78c0-.12.01-.13.13-.13.07,0,.4,0,1.34.02h.31c.13-.29.25-.61.36-.95h-.13c-1.1,0-1.49.02-1.56.02-.12,0-.13-.01-.13-.13v-.74c0-.13.01-.14.13-.14.07,0,.46.02,1.56.02h.41c.08-.35.13-.71.17-1.04.07-.61.07-.83.05-1.15.43.02.8.06,1.14.11.14.02.2.07.2.16,0,.07-.05.13-.08.2-.07.12-.12.31-.18.72-.05.34-.11.68-.19,1.01h.68c.25-.42.43-.83.59-1.2.1-.2.16-.37.19-.59.36.1.66.2.96.32.11.05.17.11.17.18s-.04.12-.11.18c-.1.08-.16.17-.24.31-.12.23-.29.52-.48.79.77,0,1.08-.02,1.14-.02.12,0,.13.01.13.14v.74c0,.12-.01.13-.13.13-.07,0-.46-.02-1.56-.02h-.24c.13.35.26.67.42.96h.44c.95-.04,1.27-.04,1.34-.04.11,0,.12.01.12.13v.78ZM169.85,66.9v-1.71h-1.07v.24c0,.54,0,1.03-.01,1.48h1.08ZM168.78,62.47v1.63h1.07v-1.63h-1.07ZM172.34,63.02c-.16.06-.18.06-.23-.08-.13-.43-.31-.78-.52-1.12-.07-.12-.05-.16.11-.22l.6-.22c.12-.04.17-.04.24.08.24.37.4.68.58,1.12.05.12.01.16-.13.2l-.65.23ZM175.09,65.07c-.12-.3-.23-.62-.32-.97h-.4c-.1.34-.2.66-.32.97h1.04Z"/><path class="uuid-1f8766d8-a95a-40f4-996d-03f547549c43" d="M181.41,68.28c-1.07,0-1.44.02-1.51.02-.12,0-.13-.01-.13-.13v-.96c0-.12.01-.13.13-.13.07,0,.44.02,1.51.02h3.05v-1.44h-1.99c-1.18,0-1.57.02-1.64.02-.12,0-.13-.01-.13-.14v-.96c0-.11.01-.12.13-.12.07,0,.47.02,1.64.02h1.99v-1.43c-1.01.12-2.01.2-3.07.28q-.38.01-.49-.35c-.1-.31-.23-.6-.36-.82,1.54-.05,2.72-.13,4.02-.31,1.14-.16,1.97-.32,2.61-.49.42-.11.76-.24,1.07-.37.32.29.64.61.85.89.07.08.11.13.11.23,0,.06-.07.12-.2.12-.16.01-.3.02-.56.1-.84.23-1.71.41-2.67.55v1.61h2.04c1.16,0,1.56-.02,1.63-.02.12,0,.13.01.13.12v.96c0,.13-.01.14-.13.14-.07,0-.47-.02-1.63-.02h-2.04v1.44h2.99c1.07,0,1.44-.02,1.51-.02.12,0,.13.01.13.13v.96c0,.12-.01.13-.13.13-.07,0-.44-.02-1.51-.02h-2.99v.4c0,.56.04,1.12.04,1.63s-.08.8-.38,1.06c-.28.22-.83.3-2.05.3-.36.01-.38.01-.46-.37-.07-.36-.18-.71-.32-.95.55.07,1,.07,1.38.07.41,0,.5-.14.5-.44v-1.69h-3.05Z"/><path class="uuid-1f8766d8-a95a-40f4-996d-03f547549c43" d="M195.63,68.82c0,1.1.48,1.54,1.6,1.54,1.4,0,2.18-.54,2.18-1.62,0-.67-.17-1.22-1.08-2.18.48.06.74,0,1.22-.07.08-.02.18-.01.25.05.66.62,1.02,1.44,1.02,2.25,0,1.7-1.39,2.81-3.45,2.81s-3.02-.96-3.02-2.71c0-.25.04-.59.08-1.13-.72-.11-1.2-.22-1.63-.36-.08-.02-.12-.08-.13-.23-.04-.37-.05-.74-.02-1.12.72.26,1.26.4,1.94.47.06-.44.16-1.22.2-1.71-.84-.11-1.27-.18-1.73-.34-.14-.04-.19-.1-.19-.2-.01-.29-.04-.68-.04-1.12.82.26,1.39.37,2.17.46.1-.7.13-1.02.16-1.38.02-.34.02-.68-.01-1.01.55.07,1.18.23,1.44.34.17.06.26.17.26.28,0,.08-.04.16-.1.23-.08.08-.14.24-.22.52-.06.28-.13.68-.19,1.13.48.04.97,0,1.48-.07.08,0,.12.06.12.14.01.29.01.62-.02.9,0,.13-.05.17-.19.18-.53.06-1.07.07-1.6.06-.07.42-.19,1.24-.26,1.71.64.01,1.13,0,1.7-.04.16-.02.19.02.19.13,0,.22-.02.65-.06.9-.01.14-.05.19-.17.19-.6.05-1.22.05-1.83.04-.06.47-.07.76-.07.97Z"/><path class="uuid-1f8766d8-a95a-40f4-996d-03f547549c43" d="M213.28,66.41c0,2.83-2.29,5.11-5.11,5.11s-5.11-2.28-5.11-5.11,2.29-5.11,5.11-5.11,5.11,2.29,5.11,5.11ZM203.47,66.41c0,2.61,2.1,4.7,4.7,4.7s4.7-2.09,4.7-4.7-2.1-4.7-4.7-4.7-4.7,2.1-4.7,4.7ZM211.44,66.41c0,1.8-1.46,3.26-3.26,3.26s-3.26-1.46-3.26-3.26,1.46-3.26,3.26-3.26,3.26,1.46,3.26,3.26ZM205.31,66.41c0,1.61,1.26,2.87,2.87,2.87s2.87-1.26,2.87-2.87-1.26-2.87-2.87-2.87-2.87,1.26-2.87,2.87Z"/><rect class="uuid-c7af6abe-7c42-42e4-99ce-32c38c1ed984" width="375" height="155.91"/></g></svg>