<?xml version="1.0" encoding="UTF-8"?><svg id="uuid-805fd254-8725-42c2-93e9-5203c57d1bd9" xmlns="http://www.w3.org/2000/svg" width="375" height="40" viewBox="0 0 375 40"><defs><style>.uuid-f2205baa-bfa1-4c3a-881d-c9ed352e9b05{fill:none;}.uuid-7a9e8376-fd1b-4a87-8431-91d96e4cba4d{fill:#b11f3a;}</style></defs><g id="uuid-d02bbf07-e0a6-4197-84e4-7f80f6fda657"><rect class="uuid-f2205baa-bfa1-4c3a-881d-c9ed352e9b05" width="375" height="40"/><path class="uuid-7a9e8376-fd1b-4a87-8431-91d96e4cba4d" d="M114.94,7.55l-.17,1.94h1.67v1.33h-1.78l-.18,2.07h-.7l.18-2.07h-1.49l-.18,2.07h-.68l.17-2.07h-1.57v-1.33h1.69l.17-1.94h-1.64v-1.33h1.75l.18-2.08h.7l-.18,2.08h1.49l.17-2.08h.7l-.17,2.08h1.6v1.33h-1.72ZM112.77,7.55l-.17,1.94h1.48l.17-1.94h-1.48Z"/><path class="uuid-7a9e8376-fd1b-4a87-8431-91d96e4cba4d" d="M122.3,5.71c-.05.2-.08.35-.42,1.66-.3,1.21-1.09,3.23-2.43,4.87l-1.21-.6c.94-.86,1.76-2.49,1.92-2.87.29-.65.9-2.51.96-3.97l1.39.4c.19.06.25.11.25.2,0,.08-.1.23-.46.31ZM127.4,11.86c-.19-1.7-1.12-4.27-2.83-6.38l1-.65c2,2.52,2.99,5.49,3.15,6.55l-1.32.48ZM127.25,5.39c-.07-.07-.12-.12-.54-.53-.16-.16-.4-.36-.68-.6l.6-.64c.55.37.92.77,1.25,1.16l-.62.6ZM128.43,4.63c-.18-.26-.79-.89-1.19-1.13l.61-.59c.54.34.96.85,1.18,1.15l-.6.56Z"/><path class="uuid-7a9e8376-fd1b-4a87-8431-91d96e4cba4d" d="M135.09,4.85s-.29.18-.32.22c-.01,3.71-.48,6.15-2.96,7.54l-.95-1.01c.47-.2,1.43-.6,2.13-2.12.22-.47.36-1.02.43-1.73.07-.62.07-1.12.07-1.4,0-1.15-.08-1.74-.14-2.12l1.42.19c.3.04.4.06.4.25,0,.08-.02.13-.07.18ZM137.3,12.46l-.85-.64c.05-.25.07-1.03.07-1.33.01-.4.02-1.04.02-1.43v-2.45c0-.19-.06-2.23-.08-2.6l1.34.14c.16.01.32.07.32.24,0,.1-.05.16-.13.22-.11.08-.12.1-.2.17-.07.53-.08,2.06-.08,2.64v3.33c.31-.17,1.08-.59,2.01-1.62.6-.66.88-1.14,1.21-1.8l.8.96c-1.54,2.42-3.39,3.54-4.44,4.16Z"/><path class="uuid-7a9e8376-fd1b-4a87-8431-91d96e4cba4d" d="M150.16,12.16c.02-.18.02-.26.04-.62h-3.25c-.83,0-2.58.04-3.32.13v-1.31c1.28.06,2.57.11,3.86.11h2.78v-4.58h-2.9c-.46,0-2.45.04-2.85.05-.41.02-.7.06-1.02.1v-1.29c.4.04.61.05.92.06.32.02,1.79.04,2.09.04h2.81c.6,0,1.64-.02,2.24-.04-.05.48-.07,1.88-.07,2.4v2.03c0,.68.05,2.33.14,2.94h-1.46Z"/><path class="uuid-7a9e8376-fd1b-4a87-8431-91d96e4cba4d" d="M160.8,11.84h-3.12c-1.06,0-2.1.02-3.15.12v-1.37c1.07.1,2.64.12,3.15.12h3.12c.07,0,1.85,0,3.18-.12v1.37c-1.3-.12-2.84-.12-3.18-.12ZM160.48,6.07h-2.28c-.72,0-1.62.02-2.31.11v-1.27c.79.08,1.93.11,2.31.11h2.28c.78,0,1.57-.02,2.34-.11v1.27c-1-.11-2.29-.11-2.34-.11Z"/><path class="uuid-7a9e8376-fd1b-4a87-8431-91d96e4cba4d" d="M172.06,8.84h-2.75c-.16,0-1.95,0-3.15.14v-1.31c.9.13,1.98.14,3.15.14h2.75c1.06,0,2.11-.01,3.15-.14v1.31c-1.04-.13-2.45-.14-3.15-.14Z"/><path class="uuid-7a9e8376-fd1b-4a87-8431-91d96e4cba4d" d="M45.89,29.16h7.75v2.37h-10.71V14.47h2.96v14.7Z"/><path class="uuid-7a9e8376-fd1b-4a87-8431-91d96e4cba4d" d="M56.84,15.56c0-.44.14-.8.42-1.09s.67-.43,1.19-.43.91.14,1.2.43.42.65.42,1.09-.14.79-.42,1.07-.68.43-1.2.43-.91-.14-1.19-.43-.42-.64-.42-1.07ZM59.87,31.53h-2.85v-12.68h2.85v12.68Z"/><path class="uuid-7a9e8376-fd1b-4a87-8431-91d96e4cba4d" d="M68.66,27.92l2.68-9.07h2.94l-4.39,12.68h-2.47l-4.43-12.68h2.95l2.72,9.07Z"/><path class="uuid-7a9e8376-fd1b-4a87-8431-91d96e4cba4d" d="M77.26,15.56c0-.44.14-.8.42-1.09s.67-.43,1.19-.43.91.14,1.2.43.42.65.42,1.09-.14.79-.42,1.07-.68.43-1.2.43-.91-.14-1.19-.43-.42-.64-.42-1.07ZM80.28,31.53h-2.85v-12.68h2.85v12.68Z"/><path class="uuid-7a9e8376-fd1b-4a87-8431-91d96e4cba4d" d="M87.26,18.85l.08,1.46c.94-1.13,2.17-1.7,3.69-1.7,2.64,0,3.98,1.51,4.03,4.54v8.38h-2.85v-8.21c0-.8-.17-1.4-.52-1.79s-.92-.58-1.71-.58c-1.15,0-2,.52-2.57,1.56v9.02h-2.85v-12.68h2.68Z"/><path class="uuid-7a9e8376-fd1b-4a87-8431-91d96e4cba4d" d="M98.71,25.1c0-1.97.46-3.54,1.39-4.72s2.15-1.76,3.69-1.76c1.45,0,2.58.5,3.41,1.51l.13-1.28h2.57v12.29c0,1.66-.52,2.98-1.55,3.94s-2.43,1.44-4.19,1.44c-.93,0-1.84-.19-2.72-.58s-1.56-.89-2.02-1.52l1.35-1.71c.88,1.04,1.95,1.56,3.23,1.56.95,0,1.69-.26,2.24-.77s.82-1.26.82-2.26v-.86c-.82.91-1.91,1.37-3.28,1.37-1.48,0-2.7-.59-3.64-1.77s-1.41-2.81-1.41-4.9ZM101.54,25.34c0,1.27.26,2.28.78,3.01s1.24,1.1,2.16,1.1c1.15,0,2-.49,2.55-1.48v-5.58c-.54-.96-1.38-1.44-2.53-1.44-.94,0-1.67.37-2.19,1.11s-.78,1.84-.78,3.28Z"/></g></svg>