<?xml version="1.0" encoding="UTF-8"?><svg id="uuid-0040c01d-371e-4f4b-a8bd-5f2de945b550" xmlns="http://www.w3.org/2000/svg" width="375" height="40" viewBox="0 0 375 40"><defs><style>.uuid-197a44f0-fb28-4c26-bdd6-f5c2a848efed{fill:#231815;}.uuid-df845ff8-0d79-4a75-a528-2f86bd401c91{fill:#fff;}.uuid-0d0e60f4-c13f-4eef-b27a-bccdd7925f04,.uuid-3d376c4c-d18b-4f96-8ec0-103b7994b6f7{fill:#b11f3a;}.uuid-3d376c4c-d18b-4f96-8ec0-103b7994b6f7{stroke:#b11f3a;stroke-miterlimit:10;stroke-width:.52px;}</style></defs><g id="uuid-b07b8bd0-1b97-4309-99f4-ba91bf6266b5"><rect class="uuid-df845ff8-0d79-4a75-a528-2f86bd401c91" width="375" height="40"/><path class="uuid-197a44f0-fb28-4c26-bdd6-f5c2a848efed" d="M110.03,6.11h4.22v.99h-3.09v1.62h2.93v.95h-2.93v1.8h3.25v1.01h-4.38v-6.37Z"/><path class="uuid-197a44f0-fb28-4c26-bdd6-f5c2a848efed" d="M115.98,8.16h1.03v.69h.02c.1-.22.26-.41.5-.57s.52-.25.84-.25c.28,0,.52.05.72.15.2.1.37.23.5.39s.22.35.28.56c.06.21.09.43.09.65v2.7h-1.08v-2.39c0-.13,0-.26-.03-.4s-.06-.26-.12-.37c-.06-.11-.14-.2-.25-.28-.1-.07-.24-.11-.42-.11s-.32.03-.45.1-.23.16-.31.27c-.08.11-.14.23-.18.37-.04.14-.06.28-.06.43v2.38h-1.08v-4.32Z"/><path class="uuid-197a44f0-fb28-4c26-bdd6-f5c2a848efed" d="M121.1,9.03v-.86h.76v-1.25h1.06v1.25h1.08v.86h-1.08v2.01c0,.19.03.35.1.48.07.13.22.19.46.19.07,0,.15,0,.23-.02.08-.01.16-.04.23-.07l.04.85c-.1.04-.21.06-.34.09-.13.02-.26.03-.38.03-.29,0-.52-.04-.7-.12-.18-.08-.32-.19-.43-.33-.1-.14-.18-.3-.22-.49-.04-.18-.06-.38-.06-.59v-2.02h-.76Z"/><path class="uuid-197a44f0-fb28-4c26-bdd6-f5c2a848efed" d="M125.34,8.16h1.04v.72h.02c.12-.25.29-.46.5-.61.22-.16.47-.23.76-.23.04,0,.09,0,.14,0,.05,0,.09.01.13.02v.99c-.07-.02-.13-.03-.18-.04-.05,0-.1,0-.15,0-.25,0-.44.04-.59.13s-.27.2-.35.32-.14.25-.17.39c-.03.13-.04.24-.04.31v2.31h-1.08v-4.32Z"/><path class="uuid-197a44f0-fb28-4c26-bdd6-f5c2a848efed" d="M131.84,11.94h-.03c-.11.19-.28.35-.52.47-.24.12-.51.18-.82.18-.17,0-.36-.02-.54-.07-.19-.04-.36-.12-.52-.22-.16-.1-.29-.24-.4-.41s-.16-.38-.16-.63c0-.32.09-.58.27-.77.18-.19.42-.34.71-.44.29-.1.61-.17.96-.2.35-.03.69-.05,1.03-.05v-.11c0-.27-.1-.47-.29-.6-.2-.13-.43-.19-.7-.19-.23,0-.45.05-.66.14s-.38.21-.52.35l-.56-.66c.25-.23.53-.4.85-.51.32-.11.65-.17.98-.17.38,0,.7.05.95.16.25.11.45.25.59.42.14.17.24.37.3.58.06.22.09.43.09.65v2.63h-1.01v-.55ZM131.83,10.51h-.24c-.17,0-.36,0-.55.02-.19.01-.37.05-.53.1-.16.05-.3.12-.4.22-.11.09-.16.22-.16.38,0,.1.02.19.07.26.05.07.1.12.18.17.07.04.15.07.24.09.09.02.18.03.27.03.37,0,.65-.1.85-.3s.29-.47.29-.81v-.15Z"/><path class="uuid-197a44f0-fb28-4c26-bdd6-f5c2a848efed" d="M134.6,8.16h1.03v.69h.02c.1-.22.26-.41.5-.57s.52-.25.84-.25c.28,0,.52.05.72.15.2.1.37.23.5.39s.22.35.28.56c.06.21.09.43.09.65v2.7h-1.08v-2.39c0-.13,0-.26-.03-.4s-.06-.26-.12-.37c-.06-.11-.14-.2-.25-.28-.1-.07-.24-.11-.42-.11s-.32.03-.45.1-.23.16-.31.27c-.08.11-.14.23-.18.37-.04.14-.06.28-.06.43v2.38h-1.08v-4.32Z"/><path class="uuid-197a44f0-fb28-4c26-bdd6-f5c2a848efed" d="M143.28,9.36c-.08-.12-.21-.22-.38-.3-.17-.08-.34-.12-.51-.12-.2,0-.37.04-.52.12s-.27.19-.37.32c-.1.13-.17.28-.22.45-.05.17-.07.33-.07.5s.03.33.08.5c.05.17.13.31.23.45.1.13.23.24.38.32s.33.12.54.12c.17,0,.34-.03.5-.1.17-.07.3-.16.4-.29l.68.68c-.18.19-.41.34-.69.45-.28.1-.58.16-.9.16s-.62-.05-.9-.15c-.29-.1-.53-.25-.75-.45-.21-.2-.38-.44-.5-.72-.12-.28-.18-.6-.18-.96s.06-.66.18-.95c.12-.28.29-.52.5-.72s.45-.35.73-.46c.28-.11.58-.16.9-.16s.63.06.92.18c.3.12.53.29.71.49l-.74.65Z"/><path class="uuid-197a44f0-fb28-4c26-bdd6-f5c2a848efed" d="M149.29,10.38v.14s0,.1,0,.14h-3.29c.01.16.05.3.12.43.07.13.16.24.27.33.11.09.24.17.39.22.14.05.29.08.45.08.27,0,.5-.05.68-.15.19-.1.34-.24.46-.41l.72.58c-.43.58-1.04.86-1.85.86-.34,0-.65-.05-.93-.16-.28-.11-.53-.25-.73-.45-.21-.19-.37-.43-.49-.71-.12-.28-.18-.6-.18-.95s.06-.67.18-.95c.12-.29.28-.53.48-.73.2-.2.45-.36.72-.47.28-.11.58-.17.9-.17.3,0,.58.05.83.15.25.1.48.25.66.44s.33.44.44.73c.1.29.16.63.16,1.02ZM148.21,9.89c0-.14-.02-.27-.06-.4s-.1-.24-.18-.33c-.08-.1-.19-.17-.32-.23-.13-.06-.28-.08-.45-.08-.32,0-.6.1-.82.29-.23.2-.35.45-.37.75h2.21Z"/><path class="uuid-197a44f0-fb28-4c26-bdd6-f5c2a848efed" d="M152.69,8.16h1.17l.9,3.1h.02l.93-3.1h1.15l.94,3.1h.02l.92-3.1h1.12l-1.49,4.32h-1.1l-.98-3.02h-.02l-.97,3.02h-1.1l-1.5-4.32Z"/><path class="uuid-197a44f0-fb28-4c26-bdd6-f5c2a848efed" d="M160.92,6.7c0-.17.06-.33.19-.45s.29-.19.49-.19.36.06.5.18c.14.12.2.28.2.46s-.07.34-.2.46c-.13.12-.3.18-.5.18s-.36-.06-.49-.19c-.13-.13-.19-.28-.19-.46ZM161.07,8.16h1.08v4.32h-1.08v-4.32Z"/><path class="uuid-197a44f0-fb28-4c26-bdd6-f5c2a848efed" d="M163.37,9.03v-.86h.76v-1.25h1.06v1.25h1.08v.86h-1.08v2.01c0,.19.03.35.1.48.07.13.22.19.46.19.07,0,.15,0,.23-.02.08-.01.16-.04.23-.07l.04.85c-.1.04-.21.06-.34.09-.13.02-.26.03-.38.03-.29,0-.52-.04-.7-.12-.18-.08-.32-.19-.43-.33-.1-.14-.18-.3-.22-.49-.04-.18-.06-.38-.06-.59v-2.02h-.76Z"/><path class="uuid-197a44f0-fb28-4c26-bdd6-f5c2a848efed" d="M170,8.04c.28,0,.52.05.72.15.2.1.37.23.5.39s.22.35.28.56c.06.21.09.43.09.65v2.7h-1.08v-2.38c0-.13,0-.26-.03-.39s-.06-.26-.11-.37c-.06-.11-.14-.2-.24-.27s-.24-.11-.42-.11-.32.03-.45.1-.23.15-.31.27-.15.24-.19.37c-.04.14-.06.28-.06.42v2.36h-1.08v-6.8h1.08v3.09h.02c.04-.09.1-.18.18-.27.08-.09.18-.17.28-.23.11-.07.23-.12.37-.17.14-.04.29-.06.45-.06Z"/><path class="uuid-197a44f0-fb28-4c26-bdd6-f5c2a848efed" d="M178.23,8.04c.28,0,.52.05.72.15.2.1.37.23.5.39s.22.35.28.56c.06.21.09.43.09.65v2.7h-1.08v-2.38c0-.13,0-.26-.03-.39s-.06-.26-.11-.37c-.06-.11-.14-.2-.24-.27s-.24-.11-.42-.11-.32.03-.45.1-.23.15-.31.27-.15.24-.19.37c-.04.14-.06.28-.06.42v2.36h-1.08v-6.8h1.08v3.09h.02c.04-.09.1-.18.18-.27.08-.09.18-.17.28-.23.11-.07.23-.12.37-.17.14-.04.29-.06.45-.06Z"/><path class="uuid-197a44f0-fb28-4c26-bdd6-f5c2a848efed" d="M184.25,11.94h-.03c-.11.19-.28.35-.52.47-.24.12-.51.18-.82.18-.17,0-.36-.02-.54-.07-.19-.04-.36-.12-.52-.22-.16-.1-.29-.24-.4-.41s-.16-.38-.16-.63c0-.32.09-.58.27-.77.18-.19.42-.34.71-.44.29-.1.61-.17.96-.2.35-.03.69-.05,1.03-.05v-.11c0-.27-.1-.47-.29-.6-.2-.13-.43-.19-.7-.19-.23,0-.45.05-.66.14s-.38.21-.52.35l-.56-.66c.25-.23.53-.4.85-.51.32-.11.65-.17.98-.17.38,0,.7.05.95.16.25.11.45.25.59.42.14.17.24.37.3.58.06.22.09.43.09.65v2.63h-1.01v-.55ZM184.23,10.51h-.24c-.17,0-.36,0-.55.02-.19.01-.37.05-.53.1-.16.05-.3.12-.4.22-.11.09-.16.22-.16.38,0,.1.02.19.07.26.05.07.1.12.18.17.07.04.15.07.24.09.09.02.18.03.27.03.37,0,.65-.1.85-.3s.29-.47.29-.81v-.15Z"/><path class="uuid-197a44f0-fb28-4c26-bdd6-f5c2a848efed" d="M187.01,8.16h1.03v.69h.02c.1-.22.26-.41.5-.57s.52-.25.84-.25c.28,0,.52.05.72.15.2.1.37.23.5.39s.22.35.28.56c.06.21.09.43.09.65v2.7h-1.08v-2.39c0-.13,0-.26-.03-.4s-.06-.26-.12-.37c-.06-.11-.14-.2-.25-.28-.1-.07-.24-.11-.42-.11s-.32.03-.45.1-.23.16-.31.27c-.08.11-.14.23-.18.37-.04.14-.06.28-.06.43v2.38h-1.08v-4.32Z"/><path class="uuid-197a44f0-fb28-4c26-bdd6-f5c2a848efed" d="M197.14,12.48h-1.03v-.65h-.02c-.15.25-.36.44-.63.58-.27.13-.55.2-.86.2-.33,0-.63-.06-.89-.18s-.48-.29-.67-.5-.32-.45-.42-.73c-.1-.28-.15-.58-.15-.9s.05-.62.15-.89c.1-.28.25-.52.43-.72.19-.2.41-.36.67-.48.26-.12.54-.18.85-.18.2,0,.38.02.53.07.16.04.29.1.41.17.12.07.22.14.3.22s.15.15.21.22h.03v-3.03h1.08v6.8ZM193.58,10.31c0,.17.03.34.08.5.05.17.13.32.23.45s.23.24.39.32c.16.08.34.13.55.13.2,0,.38-.04.53-.12.16-.08.29-.19.4-.32.11-.13.19-.28.25-.45.06-.17.09-.33.09-.5s-.03-.34-.09-.5c-.06-.17-.14-.32-.25-.45-.11-.13-.24-.24-.4-.32-.16-.08-.33-.13-.53-.13-.21,0-.39.04-.55.12-.16.08-.29.19-.39.32s-.18.28-.23.45c-.05.17-.08.33-.08.5Z"/><path class="uuid-197a44f0-fb28-4c26-bdd6-f5c2a848efed" d="M200.81,8.16h1.17l.9,3.1h.02l.93-3.1h1.15l.94,3.1h.02l.92-3.1h1.12l-1.49,4.32h-1.1l-.98-3.02h-.02l-.97,3.02h-1.1l-1.5-4.32Z"/><path class="uuid-197a44f0-fb28-4c26-bdd6-f5c2a848efed" d="M211.83,11.94h-.03c-.11.19-.28.35-.52.47-.24.12-.51.18-.82.18-.17,0-.36-.02-.54-.07-.19-.04-.36-.12-.52-.22-.16-.1-.29-.24-.4-.41s-.16-.38-.16-.63c0-.32.09-.58.27-.77.18-.19.42-.34.71-.44.29-.1.61-.17.96-.2.35-.03.69-.05,1.03-.05v-.11c0-.27-.1-.47-.29-.6-.2-.13-.43-.19-.7-.19-.23,0-.45.05-.66.14s-.38.21-.52.35l-.56-.66c.25-.23.53-.4.85-.51.32-.11.65-.17.98-.17.38,0,.7.05.95.16.25.11.45.25.59.42.14.17.24.37.3.58.06.22.09.43.09.65v2.63h-1.01v-.55ZM211.81,10.51h-.24c-.17,0-.36,0-.55.02-.19.01-.37.05-.53.1-.16.05-.3.12-.4.22-.11.09-.16.22-.16.38,0,.1.02.19.07.26.05.07.1.12.18.17.07.04.15.07.24.09.09.02.18.03.27.03.37,0,.65-.1.85-.3s.29-.47.29-.81v-.15Z"/><path class="uuid-197a44f0-fb28-4c26-bdd6-f5c2a848efed" d="M216.98,9.32c-.1-.13-.23-.24-.4-.33-.17-.09-.35-.14-.55-.14-.17,0-.33.04-.48.11-.14.07-.22.19-.22.36s.08.29.24.36c.16.07.39.14.7.21.16.04.33.08.49.14.16.06.31.14.45.24.14.1.24.22.33.37.08.15.13.33.13.54,0,.26-.05.49-.15.67-.1.18-.23.33-.4.45-.17.11-.36.2-.58.25s-.45.08-.68.08c-.34,0-.66-.06-.98-.18-.32-.12-.58-.3-.79-.53l.71-.67c.12.16.28.29.47.39.19.1.41.15.64.15.08,0,.16,0,.24-.03.08-.02.16-.05.23-.08s.12-.09.17-.16c.04-.07.06-.15.06-.24,0-.18-.08-.31-.25-.39-.17-.08-.41-.16-.74-.23-.16-.04-.32-.08-.47-.14-.15-.06-.29-.13-.41-.23-.12-.09-.22-.21-.29-.35-.07-.14-.11-.31-.11-.51,0-.24.05-.45.15-.62.1-.17.23-.32.39-.43.16-.11.35-.19.55-.25.2-.05.41-.08.63-.08.31,0,.62.05.91.16.3.11.53.27.71.5l-.7.62Z"/><path class="uuid-197a44f0-fb28-4c26-bdd6-f5c2a848efed" d="M221.56,8.04c.28,0,.52.05.72.15.2.1.37.23.5.39s.22.35.28.56c.06.21.09.43.09.65v2.7h-1.08v-2.38c0-.13,0-.26-.03-.39s-.06-.26-.11-.37c-.06-.11-.14-.2-.24-.27s-.24-.11-.42-.11-.32.03-.45.1-.23.15-.31.27-.15.24-.19.37c-.04.14-.06.28-.06.42v2.36h-1.08v-6.8h1.08v3.09h.02c.04-.09.1-.18.18-.27.08-.09.18-.17.28-.23.11-.07.23-.12.37-.17.14-.04.29-.06.45-.06Z"/><path class="uuid-197a44f0-fb28-4c26-bdd6-f5c2a848efed" d="M228.48,5.68v3.03h.03c.05-.07.12-.15.21-.22s.18-.15.3-.22c.12-.07.25-.12.41-.17s.33-.07.53-.07c.31,0,.59.06.85.18s.48.28.67.48.33.44.43.72c.1.28.15.57.15.89s-.05.62-.15.9c-.1.28-.24.52-.42.73s-.41.37-.67.5c-.26.12-.56.18-.89.18-.31,0-.59-.07-.86-.2s-.48-.32-.63-.58h-.02v.65h-1.03v-6.8h1.08ZM230.95,10.31c0-.17-.03-.33-.08-.5-.05-.17-.13-.31-.23-.45s-.23-.24-.39-.32c-.16-.08-.34-.12-.55-.12-.2,0-.38.04-.53.13-.16.08-.29.19-.4.32-.11.13-.19.28-.25.45s-.09.34-.09.5.03.33.09.5.14.31.25.45c.11.13.24.24.4.32.16.08.33.12.53.12.21,0,.39-.04.55-.13.16-.08.29-.19.39-.32s.18-.28.23-.45c.05-.17.08-.34.08-.5Z"/><path class="uuid-197a44f0-fb28-4c26-bdd6-f5c2a848efed" d="M236.25,11.94h-.03c-.11.19-.28.35-.52.47-.24.12-.51.18-.82.18-.17,0-.36-.02-.54-.07-.19-.04-.36-.12-.52-.22-.16-.1-.29-.24-.4-.41s-.16-.38-.16-.63c0-.32.09-.58.27-.77.18-.19.42-.34.71-.44.29-.1.61-.17.96-.2.35-.03.69-.05,1.03-.05v-.11c0-.27-.1-.47-.29-.6-.2-.13-.43-.19-.7-.19-.23,0-.45.05-.66.14s-.38.21-.52.35l-.56-.66c.25-.23.53-.4.85-.51.32-.11.65-.17.98-.17.38,0,.7.05.95.16.25.11.45.25.59.42.14.17.24.37.3.58.06.22.09.43.09.65v2.63h-1.01v-.55ZM236.23,10.51h-.24c-.17,0-.36,0-.55.02-.19.01-.37.05-.53.1-.16.05-.3.12-.4.22-.11.09-.16.22-.16.38,0,.1.02.19.07.26.05.07.1.12.18.17.07.04.15.07.24.09.09.02.18.03.27.03.37,0,.65-.1.85-.3s.29-.47.29-.81v-.15Z"/><path class="uuid-197a44f0-fb28-4c26-bdd6-f5c2a848efed" d="M241.4,9.32c-.1-.13-.23-.24-.4-.33-.17-.09-.35-.14-.55-.14-.17,0-.33.04-.48.11-.14.07-.22.19-.22.36s.08.29.24.36c.16.07.39.14.7.21.16.04.33.08.49.14.16.06.31.14.45.24.14.1.24.22.33.37.08.15.13.33.13.54,0,.26-.05.49-.15.67-.1.18-.23.33-.4.45-.17.11-.36.2-.58.25s-.45.08-.68.08c-.34,0-.66-.06-.98-.18-.32-.12-.58-.3-.79-.53l.71-.67c.12.16.28.29.47.39.19.1.41.15.64.15.08,0,.16,0,.24-.03.08-.02.16-.05.23-.08s.12-.09.17-.16c.04-.07.06-.15.06-.24,0-.18-.08-.31-.25-.39-.17-.08-.41-.16-.74-.23-.16-.04-.32-.08-.47-.14-.15-.06-.29-.13-.41-.23-.12-.09-.22-.21-.29-.35-.07-.14-.11-.31-.11-.51,0-.24.05-.45.15-.62.1-.17.23-.32.39-.43.16-.11.35-.19.55-.25.2-.05.41-.08.63-.08.31,0,.62.05.91.16.3.11.53.27.71.5l-.7.62Z"/><path class="uuid-197a44f0-fb28-4c26-bdd6-f5c2a848efed" d="M243.41,6.7c0-.17.06-.33.19-.45s.29-.19.49-.19.36.06.5.18c.14.12.2.28.2.46s-.07.34-.2.46c-.13.12-.3.18-.5.18s-.36-.06-.49-.19c-.13-.13-.19-.28-.19-.46ZM243.56,8.16h1.08v4.32h-1.08v-4.32Z"/><path class="uuid-197a44f0-fb28-4c26-bdd6-f5c2a848efed" d="M246.43,8.16h1.03v.69h.02c.1-.22.26-.41.5-.57s.52-.25.84-.25c.28,0,.52.05.72.15.2.1.37.23.5.39s.22.35.28.56c.06.21.09.43.09.65v2.7h-1.08v-2.39c0-.13,0-.26-.03-.4s-.06-.26-.12-.37c-.06-.11-.14-.2-.25-.28-.1-.07-.24-.11-.42-.11s-.32.03-.45.1-.23.16-.31.27c-.08.11-.14.23-.18.37-.04.14-.06.28-.06.43v2.38h-1.08v-4.32Z"/><path class="uuid-197a44f0-fb28-4c26-bdd6-f5c2a848efed" d="M112.66,27.94h-.03c-.11.19-.28.35-.52.47-.24.12-.51.18-.82.18-.17,0-.36-.02-.54-.07-.19-.04-.36-.12-.52-.22-.16-.1-.29-.24-.4-.41s-.16-.38-.16-.63c0-.32.09-.58.27-.77.18-.19.42-.34.71-.44.29-.1.61-.17.96-.2.35-.03.69-.05,1.03-.05v-.11c0-.27-.1-.47-.29-.6-.2-.13-.43-.19-.7-.19-.23,0-.45.05-.66.14s-.38.21-.52.35l-.56-.66c.25-.23.53-.4.85-.51.32-.11.65-.17.98-.17.38,0,.7.05.95.16.25.11.45.25.59.42.14.17.24.37.3.58.06.22.09.43.09.65v2.63h-1.01v-.55ZM112.64,26.51h-.24c-.17,0-.36,0-.55.02-.19.01-.37.05-.53.1-.16.05-.3.12-.4.22-.11.09-.16.22-.16.38,0,.1.02.19.07.26.05.07.1.12.18.17.07.04.15.07.24.09.09.02.18.03.27.03.37,0,.65-.1.85-.3s.29-.47.29-.81v-.15Z"/><path class="uuid-197a44f0-fb28-4c26-bdd6-f5c2a848efed" d="M115.41,24.16h1.03v.69h.02c.1-.22.26-.41.5-.57s.52-.25.84-.25c.28,0,.52.05.72.15.2.1.37.23.5.39s.22.35.28.56c.06.21.09.43.09.65v2.7h-1.08v-2.39c0-.13,0-.26-.03-.4s-.06-.26-.12-.37c-.06-.11-.14-.2-.25-.28-.1-.07-.24-.11-.42-.11s-.32.03-.45.1-.23.16-.31.27c-.08.11-.14.23-.18.37-.04.14-.06.28-.06.43v2.38h-1.08v-4.32Z"/><path class="uuid-197a44f0-fb28-4c26-bdd6-f5c2a848efed" d="M125.54,28.48h-1.03v-.65h-.02c-.15.25-.36.44-.63.58-.27.13-.55.2-.86.2-.33,0-.63-.06-.89-.18s-.48-.29-.67-.5-.32-.45-.42-.73c-.1-.28-.15-.58-.15-.9s.05-.62.15-.89c.1-.28.25-.52.43-.72.19-.2.41-.36.67-.48.26-.12.54-.18.85-.18.2,0,.38.02.53.07.16.04.29.1.41.17.12.07.22.14.3.22s.15.15.21.22h.03v-3.03h1.08v6.8ZM121.99,26.31c0,.17.03.34.08.5.05.17.13.32.23.45s.23.24.39.32c.16.08.34.13.55.13.2,0,.38-.04.53-.12.16-.08.29-.19.4-.32.11-.13.19-.28.25-.45.06-.17.09-.33.09-.5s-.03-.34-.09-.5c-.06-.17-.14-.32-.25-.45-.11-.13-.24-.24-.4-.32-.16-.08-.33-.13-.53-.13-.21,0-.39.04-.55.12-.16.08-.29.19-.39.32s-.18.28-.23.45c-.05.17-.08.33-.08.5Z"/><path class="uuid-197a44f0-fb28-4c26-bdd6-f5c2a848efed" d="M132.19,25.32c-.1-.13-.23-.24-.4-.33-.17-.09-.35-.14-.55-.14-.17,0-.33.04-.48.11-.14.07-.22.19-.22.36s.08.29.24.36c.16.07.39.14.7.21.16.04.33.08.49.14.16.06.31.14.45.24.14.1.24.22.33.37.08.15.13.33.13.54,0,.26-.05.49-.15.67-.1.18-.23.33-.4.45-.17.11-.36.2-.58.25s-.45.08-.68.08c-.34,0-.66-.06-.98-.18-.32-.12-.58-.3-.79-.53l.71-.67c.12.16.28.29.47.39.19.1.41.15.64.15.08,0,.16,0,.24-.03.08-.02.16-.05.23-.08s.12-.09.17-.16c.04-.07.06-.15.06-.24,0-.18-.08-.31-.25-.39-.17-.08-.41-.16-.74-.23-.16-.04-.32-.08-.47-.14-.15-.06-.29-.13-.41-.23-.12-.09-.22-.21-.29-.35-.07-.14-.11-.31-.11-.51,0-.24.05-.45.15-.62.1-.17.23-.32.39-.43.16-.11.35-.19.55-.25.2-.05.41-.08.63-.08.31,0,.62.05.91.16.3.11.53.27.71.5l-.7.62Z"/><path class="uuid-197a44f0-fb28-4c26-bdd6-f5c2a848efed" d="M136.76,24.04c.28,0,.52.05.72.15.2.1.37.23.5.39s.22.35.28.56c.06.21.09.43.09.65v2.7h-1.08v-2.38c0-.13,0-.26-.03-.39s-.06-.26-.11-.37c-.06-.11-.14-.2-.24-.27s-.24-.11-.42-.11-.32.03-.45.1-.23.15-.31.27-.15.24-.19.37c-.04.14-.06.28-.06.42v2.36h-1.08v-6.8h1.08v3.09h.02c.04-.09.1-.18.18-.27.08-.09.18-.17.28-.23.11-.07.23-.12.37-.17.14-.04.29-.06.45-.06Z"/><path class="uuid-197a44f0-fb28-4c26-bdd6-f5c2a848efed" d="M139.85,26.31c0-.34.06-.65.18-.93s.29-.52.5-.72.46-.35.75-.46c.29-.11.59-.16.92-.16s.63.05.92.16c.29.11.54.26.75.46.21.2.38.44.5.72.12.28.18.59.18.93s-.06.65-.18.94c-.12.28-.29.52-.5.72-.21.2-.46.36-.75.47s-.59.17-.92.17-.63-.06-.92-.17-.54-.27-.75-.47-.38-.44-.5-.72-.18-.59-.18-.94ZM140.95,26.31c0,.17.03.34.08.5.05.17.13.32.23.45s.23.24.39.32c.16.08.34.13.56.13s.4-.04.56-.13c.16-.08.28-.19.39-.32s.18-.28.23-.45.08-.34.08-.5-.03-.33-.08-.5-.13-.31-.23-.45-.23-.24-.39-.32c-.16-.08-.34-.12-.56-.12s-.4.04-.56.12c-.16.08-.29.19-.39.32s-.18.28-.23.45c-.05.17-.08.33-.08.5Z"/><path class="uuid-197a44f0-fb28-4c26-bdd6-f5c2a848efed" d="M150.21,26.38v.14s0,.1,0,.14h-3.29c.01.16.05.3.12.43.07.13.16.24.27.33.11.09.24.17.39.22.14.05.29.08.45.08.27,0,.5-.05.68-.15.19-.1.34-.24.46-.41l.72.58c-.43.58-1.04.86-1.85.86-.34,0-.65-.05-.93-.16-.28-.11-.53-.25-.73-.45-.21-.19-.37-.43-.49-.71-.12-.28-.18-.6-.18-.95s.06-.67.18-.95c.12-.29.28-.53.48-.73.2-.2.45-.36.72-.47.28-.11.58-.17.9-.17.3,0,.58.05.83.15.25.1.48.25.66.44s.33.44.44.73c.1.29.16.63.16,1.02ZM149.13,25.89c0-.14-.02-.27-.06-.4s-.1-.24-.18-.33c-.08-.1-.19-.17-.32-.23-.13-.06-.28-.08-.45-.08-.32,0-.6.1-.82.29-.23.2-.35.45-.37.75h2.21Z"/><path class="uuid-197a44f0-fb28-4c26-bdd6-f5c2a848efed" d="M157.17,25.36c-.08-.12-.21-.22-.38-.3-.17-.08-.34-.12-.51-.12-.2,0-.37.04-.52.12s-.27.19-.37.32c-.1.13-.17.28-.22.45-.05.17-.07.33-.07.5s.03.33.08.5c.05.17.13.31.23.45.1.13.23.24.38.32s.33.12.54.12c.17,0,.34-.03.5-.1.17-.07.3-.16.4-.29l.68.68c-.18.19-.41.34-.69.45-.28.1-.58.16-.9.16s-.62-.05-.9-.15c-.29-.1-.53-.25-.75-.45-.21-.2-.38-.44-.5-.72-.12-.28-.18-.6-.18-.96s.06-.66.18-.95c.12-.28.29-.52.5-.72s.45-.35.73-.46c.28-.11.58-.16.9-.16s.63.06.92.18c.3.12.53.29.71.49l-.74.65Z"/><path class="uuid-197a44f0-fb28-4c26-bdd6-f5c2a848efed" d="M159.16,21.68h1.08v6.8h-1.08v-6.8Z"/><path class="uuid-197a44f0-fb28-4c26-bdd6-f5c2a848efed" d="M161.79,26.31c0-.34.06-.65.18-.93s.29-.52.5-.72.46-.35.75-.46c.29-.11.59-.16.92-.16s.63.05.92.16c.29.11.54.26.75.46.21.2.38.44.5.72.12.28.18.59.18.93s-.06.65-.18.94c-.12.28-.29.52-.5.72-.21.2-.46.36-.75.47s-.59.17-.92.17-.63-.06-.92-.17-.54-.27-.75-.47-.38-.44-.5-.72-.18-.59-.18-.94ZM162.89,26.31c0,.17.03.34.08.5.05.17.13.32.23.45s.23.24.39.32c.16.08.34.13.56.13s.4-.04.56-.13c.16-.08.28-.19.39-.32s.18-.28.23-.45.08-.34.08-.5-.03-.33-.08-.5-.13-.31-.23-.45-.23-.24-.39-.32c-.16-.08-.34-.12-.56-.12s-.4.04-.56.12c-.16.08-.29.19-.39.32s-.18.28-.23.45c-.05.17-.08.33-.08.5Z"/><path class="uuid-197a44f0-fb28-4c26-bdd6-f5c2a848efed" d="M170.39,25.32c-.1-.13-.23-.24-.4-.33-.17-.09-.35-.14-.55-.14-.17,0-.33.04-.48.11-.14.07-.22.19-.22.36s.08.29.24.36c.16.07.39.14.7.21.16.04.33.08.49.14.16.06.31.14.45.24.14.1.24.22.33.37.08.15.13.33.13.54,0,.26-.05.49-.15.67-.1.18-.23.33-.4.45-.17.11-.36.2-.58.25s-.45.08-.68.08c-.34,0-.66-.06-.98-.18-.32-.12-.58-.3-.79-.53l.71-.67c.12.16.28.29.47.39.19.1.41.15.64.15.08,0,.16,0,.24-.03.08-.02.16-.05.23-.08s.12-.09.17-.16c.04-.07.06-.15.06-.24,0-.18-.08-.31-.25-.39-.17-.08-.41-.16-.74-.23-.16-.04-.32-.08-.47-.14-.15-.06-.29-.13-.41-.23-.12-.09-.22-.21-.29-.35-.07-.14-.11-.31-.11-.51,0-.24.05-.45.15-.62.1-.17.23-.32.39-.43.16-.11.35-.19.55-.25.2-.05.41-.08.63-.08.31,0,.62.05.91.16.3.11.53.27.71.5l-.7.62Z"/><path class="uuid-197a44f0-fb28-4c26-bdd6-f5c2a848efed" d="M176.65,26.38v.14s0,.1,0,.14h-3.29c.01.16.05.3.12.43.07.13.16.24.27.33.11.09.24.17.39.22.14.05.29.08.45.08.27,0,.5-.05.68-.15.19-.1.34-.24.46-.41l.72.58c-.43.58-1.04.86-1.85.86-.34,0-.65-.05-.93-.16-.28-.11-.53-.25-.73-.45-.21-.19-.37-.43-.49-.71-.12-.28-.18-.6-.18-.95s.06-.67.18-.95c.12-.29.28-.53.48-.73.2-.2.45-.36.72-.47.28-.11.58-.17.9-.17.3,0,.58.05.83.15.25.1.48.25.66.44s.33.44.44.73c.1.29.16.63.16,1.02ZM175.57,25.89c0-.14-.02-.27-.06-.4s-.1-.24-.18-.33c-.08-.1-.19-.17-.32-.23-.13-.06-.28-.08-.45-.08-.32,0-.6.1-.82.29-.23.2-.35.45-.37.75h2.21Z"/><path class="uuid-197a44f0-fb28-4c26-bdd6-f5c2a848efed" d="M177.61,25.03v-.86h.76v-1.25h1.06v1.25h1.08v.86h-1.08v2.01c0,.19.03.35.1.48.07.13.22.19.46.19.07,0,.15,0,.23-.02.08-.01.16-.04.23-.07l.04.85c-.1.04-.21.06-.34.09-.13.02-.26.03-.38.03-.29,0-.52-.04-.7-.12-.18-.08-.32-.19-.43-.33-.1-.14-.18-.3-.22-.49-.04-.18-.06-.38-.06-.59v-2.02h-.76Z"/><path class="uuid-0d0e60f4-c13f-4eef-b27a-bccdd7925f04" d="M72.76,28.62h-2.99V10.22l-4.18,3.49-1.78-2.09,6.27-5.08h2.69v22.09Z"/><path class="uuid-3d376c4c-d18b-4f96-8ec0-103b7994b6f7" d="M83.39,28.42h-1.85v-13.25h8.27v1.63h-6.42v4.12h6.01v1.59h-6.01v5.91Z"/></g></svg>