<?xml version="1.0" encoding="UTF-8"?><svg id="uuid-ebe9d4cf-f694-45a6-9f7d-720be6b83701" xmlns="http://www.w3.org/2000/svg" width="375" height="42.2" viewBox="0 0 375 42.2"><defs><style>.uuid-eacfe873-97d8-402f-9b04-c3bf3561b310{fill:none;}.uuid-0f2f4bf1-a2f9-4558-8ff4-96e5faba6f6d{fill:#b11f3a;}</style></defs><g id="uuid-4e406086-c339-40ce-b4c1-426c9dc8accb"><path class="uuid-0f2f4bf1-a2f9-4558-8ff4-96e5faba6f6d" d="M113.21,10.77l-.18,2.06h1.77v1.41h-1.88l-.19,2.2h-.74l.19-2.2h-1.58l-.19,2.2h-.73l.18-2.2h-1.67v-1.41h1.79l.18-2.06h-1.74v-1.41h1.86l.19-2.2h.74l-.19,2.2h1.58l.18-2.2h.74l-.18,2.2h1.69v1.41h-1.82ZM110.9,10.77l-.18,2.06h1.57l.18-2.06h-1.57Z"/><path class="uuid-0f2f4bf1-a2f9-4558-8ff4-96e5faba6f6d" d="M127.41,15.27c-.46-.34-1.02-1.01-1.5-1.54-.32-.37-.83-.95-.95-1.12l-2.28-2.9c-.24-.31-.42-.52-.71-.52s-.71.41-.78.48l-1.64,1.77c-.94,1.01-1.02,1.15-1.41,1.62-.04.05-.09.12-.11.13l-1.2-1.02c.32-.24,1.21-.92,1.71-1.44l1.81-1.92c.29-.32.92-.97,1.57-.97.7,0,1.12.36,1.51.85l2.53,3.14c.05.06,1.5,1.67,2.6,2.41l-1.13,1.03ZM127.24,9.46c-.76,0-1.39-.62-1.39-1.39s.62-1.39,1.39-1.39,1.39.62,1.39,1.39-.62,1.39-1.39,1.39ZM127.25,7.42c-.34,0-.62.28-.62.62s.28.62.62.62.61-.28.61-.62-.27-.62-.61-.62Z"/><path class="uuid-0f2f4bf1-a2f9-4558-8ff4-96e5faba6f6d" d="M137.46,15.32h-3.31c-1.12,0-2.23.03-3.35.13v-1.45c1.13.1,2.8.13,3.35.13h3.31c.08,0,1.96,0,3.37-.13v1.45c-1.37-.13-3.02-.13-3.37-.13ZM137.11,9.2h-2.42c-.76,0-1.72.03-2.46.11v-1.35c.84.09,2.05.11,2.46.11h2.42c.83,0,1.67-.03,2.48-.11v1.35c-1.06-.11-2.43-.11-2.48-.11Z"/><path class="uuid-0f2f4bf1-a2f9-4558-8ff4-96e5faba6f6d" d="M145.06,16.1c-.03.05-.09.25-.11.29-.03.05-.08.08-.14.08-.09,0-.13-.05-.27-.31l-.69-1.32c1.96-.27,6.54-2.27,8.96-5.38l.51,1.23c-2.49,2.94-6.5,4.66-8.26,5.41ZM146.83,9.53c-.84-.8-2.15-1.49-2.77-1.76l.7-1.14c1.9.9,2.47,1.45,2.8,1.77l-.73,1.13Z"/><path class="uuid-0f2f4bf1-a2f9-4558-8ff4-96e5faba6f6d" d="M159.03,11.51c-.66-.5-2.18-1.12-2.85-1.31l.53-1.07c1.2.45,1.9.74,2.9,1.36l-.59,1.02ZM163.06,13.41c-1.59,1.5-2.62,2.1-4.75,3.32-.17.25-.23.37-.36.37-.06,0-.1-.03-.25-.23l-.88-1.16c1.34-.33,2.55-1.04,3.69-1.81,1.64-1.11,3.4-2.94,4.38-4.58l.78,1.11c-.71,1.11-1.64,2.07-2.61,2.98ZM160.49,8.5c-.64-.43-2.19-1.18-2.9-1.44l.52-1.03c.29.13.74.31,1.45.66.92.45,1.17.64,1.43.83l-.5.98Z"/><path class="uuid-0f2f4bf1-a2f9-4558-8ff4-96e5faba6f6d" d="M175.27,15.86h-4.34c-.93,0-1.9.03-2.91.1v-.98c.94.04,1.55.06,1.99.06h3.16l.57-4.08h-2.05c-.97,0-1.27.01-2,.09v-1.02c.94.09,1.6.09,1.81.09h3.41l-.71,4.92c1.07,0,1.65-.04,2.57-.1v.94c-.48-.01-.89-.03-1.49-.03Z"/><path class="uuid-0f2f4bf1-a2f9-4558-8ff4-96e5faba6f6d" d="M187.84,11.37c-.47,1.07-1.29,2.32-2.11,3.16-1.02,1.03-2,1.57-3.92,2.42l-1.02-1.13c1.12-.14,2.15-.66,3.07-1.3,1.58-1.09,2.72-2.98,3.02-4.07h-4.03c-.95,0-2.71.05-3.63.15v-1.37c.2.04.36.08.67.1.61.04,1.79.05,2.3.05h3.04c.41,0,1.29-.03,1.65-.06.43-.05.6-.14.8-.28l.99,1c-.42.41-.7,1.03-.84,1.34ZM184.87,7.6h-2.05c-.69,0-1.39.03-2.07.11v-1.26c.71.09,1.76.12,2.07.12h2.05c.7,0,1.4-.03,2.1-.12v1.26c-.9-.11-2.01-.11-2.1-.11Z"/><path class="uuid-0f2f4bf1-a2f9-4558-8ff4-96e5faba6f6d" d="M198.52,12.23l-1.31.25.09.36c.11.48.92,3.13,1.21,3.79l-1.59.34c.01-.81-.48-2.85-.76-3.97l-.08-.3-1.48.28c-.87.17-2.34.45-2.99.74l-.29-1.41c.8.04,2.34-.24,3.21-.39l1.29-.23-.51-2-.76.15c-.76.15-1.88.43-2.56.71l-.33-1.32c.33-.01.75-.05,1.37-.14,1-.15,1.12-.17,1.3-.2l.74-.15s-.43-1.69-.87-2.43l1.54-.15c.27-.03.36.05.36.15,0,.13-.1.24-.28.43.17.75.2.93.41,1.77l.65-.13c1.01-.2,1.68-.43,2.29-.65l.31,1.23c-.78.09-1.54.19-2.3.34l-.71.14.51,2.02,1.23-.22c.9-.15,1.81-.38,2.67-.69l.34,1.3c-1.27.15-1.95.23-2.69.37Z"/><path class="uuid-0f2f4bf1-a2f9-4558-8ff4-96e5faba6f6d" d="M205.39,12.28c-.2-.48-.52-1.23-1.12-2.01l.95-.32c.47.65.79,1.21,1.12,1.97l-.95.36ZM212.11,10.21c-.13.04-.19.09-.24.15-.04.06-.41,1.3-.5,1.54-1.29,3.3-3.19,4.34-4.61,5.04l-.84-.78c.88-.37,2.3-.97,3.47-2.63,1.09-1.57,1.32-3.17,1.48-4.12l.99.37c.25.09.39.18.39.28,0,.09-.06.13-.15.15ZM207.89,11.73c-.18-.5-.46-1.25-1.08-2.04l.95-.33c.56.79.84,1.43,1.08,2.06l-.95.31Z"/><path class="uuid-0f2f4bf1-a2f9-4558-8ff4-96e5faba6f6d" d="M222.2,11.62h-.48c-.03.62-.08,1.77-1.04,3.14-1.02,1.42-2.23,1.97-2.81,2.24l-1.34-.94c.59-.14,1.99-.48,3.05-1.88.8-1.07.85-2.01.88-2.56h-1.63c-1.15,0-2.28.03-3.42.11v-1.26c1.18.09,2.9.11,3.42.11h1.65c0-.67-.01-1.46-.08-2.14-1.34.39-2.07.55-3.21.69l-.81-1.16c.87-.01,1.88-.04,3.69-.6.97-.29,1.93-.62,2.79-1.16l.97.81c.06.06.14.14.14.24,0,.14-.13.14-.17.14-.06,0-.09-.01-.31-.05-.29.1-1.54.57-1.79.66.03,1.68.04,1.86.04,2.56h.46c1.15,0,2.3-.03,3.45-.1v1.25c-1.49-.11-3.32-.11-3.45-.11Z"/><path class="uuid-0f2f4bf1-a2f9-4558-8ff4-96e5faba6f6d" d="M228.76,16.1c-.03.05-.09.25-.11.29-.03.05-.08.08-.14.08-.09,0-.13-.05-.27-.31l-.69-1.32c1.96-.27,6.54-2.27,8.96-5.38l.51,1.23c-2.49,2.94-6.5,4.66-8.26,5.41ZM230.53,9.53c-.84-.8-2.15-1.49-2.77-1.76l.7-1.14c1.9.9,2.47,1.45,2.8,1.77l-.73,1.13Z"/><path class="uuid-0f2f4bf1-a2f9-4558-8ff4-96e5faba6f6d" d="M31.24,28.45l-2.09,2.22v5.76h-3.21v-18.48h3.21v8.67l1.78-2.2,5.41-6.47h3.88l-6.87,8.19,7.26,10.3h-3.81l-5.56-7.99Z"/><path class="uuid-0f2f4bf1-a2f9-4558-8ff4-96e5faba6f6d" d="M43.17,19.13c0-.47.15-.87.45-1.18s.73-.47,1.29-.47.99.16,1.29.47.46.71.46,1.18-.15.85-.46,1.16-.74.46-1.29.46-.99-.15-1.29-.46-.45-.7-.45-1.16ZM46.45,36.44h-3.08v-13.74h3.08v13.74Z"/><path class="uuid-0f2f4bf1-a2f9-4558-8ff4-96e5faba6f6d" d="M55.34,19.36v3.34h2.42v2.29h-2.42v7.67c0,.52.1.9.31,1.14s.58.35,1.11.35c.36,0,.72-.04,1.08-.13v2.39c-.7.19-1.38.29-2.03.29-2.37,0-3.55-1.31-3.55-3.92v-7.78h-2.26v-2.29h2.26v-3.34h3.08Z"/><path class="uuid-0f2f4bf1-a2f9-4558-8ff4-96e5faba6f6d" d="M66.82,34.23c.77,0,1.41-.22,1.92-.67s.78-1,.81-1.66h2.91c-.03.85-.3,1.65-.8,2.39s-1.18,1.33-2.03,1.76-1.78.65-2.77.65c-1.92,0-3.44-.62-4.57-1.87s-1.69-2.96-1.69-5.15v-.32c0-2.09.56-3.76,1.68-5.02s2.64-1.89,4.57-1.89c1.63,0,2.96.48,3.99,1.43s1.57,2.2,1.62,3.75h-2.91c-.03-.79-.3-1.43-.81-1.94s-1.14-.76-1.92-.76c-1,0-1.77.36-2.31,1.09s-.82,1.82-.83,3.29v.5c0,1.49.27,2.6.81,3.33s1.31,1.1,2.33,1.1Z"/><path class="uuid-0f2f4bf1-a2f9-4558-8ff4-96e5faba6f6d" d="M79.31,24.2c1.01-1.17,2.28-1.75,3.82-1.75,2.93,0,4.41,1.67,4.46,5.01v8.98h-3.08v-8.86c0-.95-.21-1.62-.62-2.01s-1.01-.59-1.81-.59c-1.24,0-2.16.55-2.77,1.65v9.81h-3.08v-19.5h3.08v7.26Z"/><path class="uuid-0f2f4bf1-a2f9-4558-8ff4-96e5faba6f6d" d="M97.66,36.69c-1.96,0-3.54-.62-4.75-1.85s-1.82-2.87-1.82-4.92v-.38c0-1.37.26-2.6.79-3.68s1.27-1.92,2.23-2.52,2.02-.9,3.2-.9c1.87,0,3.32.6,4.34,1.79s1.53,2.88,1.53,5.07v1.24h-8.98c.09,1.13.47,2.03,1.14,2.69s1.5.99,2.51.99c1.41,0,2.56-.57,3.45-1.71l1.66,1.59c-.55.82-1.28,1.46-2.2,1.91s-1.95.68-3.09.68ZM97.29,24.92c-.85,0-1.53.3-2.05.89s-.85,1.42-1,2.48h5.88v-.23c-.07-1.03-.34-1.81-.83-2.34s-1.15-.79-2.01-.79Z"/><path class="uuid-0f2f4bf1-a2f9-4558-8ff4-96e5faba6f6d" d="M109.81,22.7l.09,1.59c1.02-1.23,2.35-1.84,4-1.84,2.86,0,4.32,1.64,4.37,4.91v9.08h-3.08v-8.9c0-.87-.19-1.52-.56-1.94s-.99-.63-1.85-.63c-1.24,0-2.17.56-2.78,1.69v9.78h-3.08v-13.74h2.91Z"/><rect class="uuid-eacfe873-97d8-402f-9b04-c3bf3561b310" width="375" height="42.2"/></g></svg>