<?xml version="1.0" encoding="UTF-8"?><svg id="uuid-b46fda3c-dc3a-4dda-9179-fe3da30948e6" xmlns="http://www.w3.org/2000/svg" width="375" height="65.11" viewBox="0 0 375 65.11"><defs><style>.uuid-261f843a-f6cf-43e1-b8b3-cc9b51209416{fill:#231815;}.uuid-6711785b-dbff-494b-84fd-2967616b08fe{fill:none;}</style></defs><g id="uuid-e085fb79-78a8-4d73-9c08-381d4a1ccefe"><path class="uuid-261f843a-f6cf-43e1-b8b3-cc9b51209416" d="M267.07,8.34h-.81v-.76h.91l.16-1.1h-.81v-.76h.91l.27-1.88h.79l-.27,1.88h.93l.27-1.88h.78l-.27,1.88h.81v.76h-.92l-.15,1.1h.81v.76h-.9l-.28,1.88h-.78l.27-1.88h-.94l-.27,1.88h-.78l.27-1.88ZM268.11,6.48l-.15,1.1h.93l.15-1.1h-.93Z"/><path class="uuid-261f843a-f6cf-43e1-b8b3-cc9b51209416" d="M272.19,3.84h2.48c.24,0,.48.03.71.09.23.06.44.15.63.28.18.13.33.3.45.5s.17.45.17.74c0,.36-.1.66-.31.89s-.47.4-.8.5v.02c.4.05.73.21.99.47s.39.6.39,1.04c0,.35-.07.64-.21.88-.14.24-.32.43-.54.57-.22.14-.48.25-.77.31-.29.06-.59.09-.89.09h-2.29V3.84ZM273.32,6.44h1.01c.38,0,.67-.07.86-.22.2-.15.3-.36.3-.64s-.1-.49-.31-.61c-.2-.12-.52-.18-.95-.18h-.91v1.66ZM273.32,9.26h1.02c.14,0,.3-.01.47-.03.17-.02.32-.06.46-.13.14-.07.26-.16.35-.29.09-.13.14-.29.14-.5,0-.34-.11-.57-.34-.7-.23-.13-.57-.2-1.04-.2h-1.06v1.85Z"/><path class="uuid-261f843a-f6cf-43e1-b8b3-cc9b51209416" d="M281,9.67h-.03c-.11.19-.28.35-.52.47s-.51.18-.82.18c-.17,0-.36-.02-.54-.07-.19-.04-.36-.12-.52-.22-.16-.1-.29-.24-.4-.41-.11-.17-.16-.38-.16-.63,0-.32.09-.58.28-.77.18-.19.42-.34.71-.44.29-.1.61-.17.96-.2.35-.03.69-.05,1.03-.05v-.11c0-.27-.1-.47-.29-.6s-.43-.19-.7-.19c-.23,0-.45.05-.66.14s-.38.21-.52.35l-.56-.66c.25-.23.53-.4.85-.51.32-.11.65-.17.98-.17.38,0,.7.05.95.16.25.11.45.25.59.42.14.17.24.37.3.58.06.22.08.43.08.65v2.63h-1.01v-.55ZM280.98,8.25h-.24c-.17,0-.36,0-.55.02-.19.01-.37.05-.53.1s-.3.12-.41.22c-.11.09-.16.22-.16.38,0,.1.02.19.07.26.05.07.1.12.18.17s.15.07.24.09c.09.02.18.03.27.03.37,0,.65-.1.85-.3.19-.2.29-.47.29-.81v-.15Z"/><path class="uuid-261f843a-f6cf-43e1-b8b3-cc9b51209416" d="M283.63,3.41h1.08v6.8h-1.08V3.41Z"/><path class="uuid-261f843a-f6cf-43e1-b8b3-cc9b51209416" d="M289.33,7.09c-.08-.12-.21-.22-.38-.3-.17-.08-.34-.12-.51-.12-.2,0-.37.04-.52.12-.15.08-.27.19-.37.32-.1.13-.17.28-.22.45-.05.17-.07.33-.07.5s.03.33.08.5.13.31.23.45.23.24.38.32c.15.08.33.12.54.12.17,0,.34-.03.5-.1.17-.07.3-.16.41-.29l.67.68c-.18.19-.41.34-.69.45-.28.1-.58.16-.9.16s-.62-.05-.9-.15c-.29-.1-.53-.25-.75-.45-.21-.2-.38-.44-.5-.72-.12-.28-.18-.6-.18-.96s.06-.66.18-.95c.12-.28.29-.52.5-.72s.46-.35.73-.46c.28-.11.58-.16.9-.16s.63.06.92.18.53.29.71.49l-.74.65Z"/><path class="uuid-261f843a-f6cf-43e1-b8b3-cc9b51209416" d="M290.83,8.04c0-.34.06-.65.18-.93s.29-.52.5-.72.46-.35.75-.46c.29-.11.59-.16.92-.16s.63.05.92.16c.29.11.54.26.75.46.21.2.38.44.5.72s.18.59.18.93-.06.65-.18.94-.29.52-.5.72c-.21.2-.46.36-.75.47s-.59.17-.92.17-.63-.06-.92-.17-.54-.27-.75-.47-.38-.44-.5-.72-.18-.59-.18-.94ZM291.93,8.04c0,.17.03.34.08.5s.13.32.23.45c.1.13.23.24.39.32.16.08.34.13.56.13s.4-.04.56-.13c.16-.08.29-.19.39-.32.1-.13.18-.28.23-.45s.08-.34.08-.5-.03-.33-.08-.5-.13-.31-.23-.45c-.1-.13-.23-.24-.39-.32s-.34-.12-.56-.12-.4.04-.56.12-.29.19-.39.32c-.1.13-.18.28-.23.45s-.08.33-.08.5Z"/><path class="uuid-261f843a-f6cf-43e1-b8b3-cc9b51209416" d="M296.92,5.9h1.03v.69h.02c.1-.22.26-.41.5-.57.24-.17.52-.25.84-.25.28,0,.52.05.72.15.2.1.37.23.5.39s.22.35.28.56.09.43.09.65v2.7h-1.08v-2.39c0-.13,0-.26-.03-.4-.02-.14-.06-.26-.12-.37-.06-.11-.14-.2-.25-.28-.1-.07-.24-.11-.42-.11s-.32.03-.45.1-.23.16-.31.27c-.08.11-.14.23-.18.37-.04.14-.06.28-.06.43v2.38h-1.08v-4.32Z"/><path class="uuid-261f843a-f6cf-43e1-b8b3-cc9b51209416" d="M301.74,5.9h1.2l1.21,3.14h.02l1.07-3.14h1.12l-2.04,5.25c-.08.2-.16.37-.25.53-.09.15-.2.28-.32.39-.13.1-.27.18-.45.24-.17.05-.38.08-.62.08-.09,0-.18,0-.27-.01s-.19-.03-.28-.05l.09-.94c.07.02.14.04.21.05.07,0,.13.01.19.01.11,0,.21-.01.29-.04.08-.03.14-.07.2-.13.05-.06.1-.13.14-.21s.09-.18.13-.3l.22-.55-1.85-4.32Z"/><path class="uuid-261f843a-f6cf-43e1-b8b3-cc9b51209416" d="M267.07,24.34h-.81v-.76h.91l.16-1.1h-.81v-.76h.91l.27-1.88h.79l-.27,1.88h.93l.27-1.88h.78l-.27,1.88h.81v.76h-.92l-.15,1.1h.81v.76h-.9l-.28,1.88h-.78l.27-1.88h-.94l-.27,1.88h-.78l.27-1.88ZM268.11,22.48l-.15,1.1h.93l.15-1.1h-.93Z"/><path class="uuid-261f843a-f6cf-43e1-b8b3-cc9b51209416" d="M272.19,19.84h2.08c.37,0,.7.03.99.1.29.07.55.17.76.32.21.15.37.34.49.58s.17.52.17.85c0,.35-.07.65-.2.89s-.31.43-.54.58c-.22.15-.49.25-.79.32-.3.07-.62.1-.95.1h-.87v2.64h-1.13v-6.37ZM274.12,22.63c.19,0,.36-.01.53-.04.17-.03.32-.07.45-.14s.24-.16.32-.28.12-.28.12-.47-.04-.34-.12-.45-.18-.21-.31-.27-.28-.11-.44-.13c-.17-.02-.33-.03-.51-.03h-.83v1.83h.79Z"/><path class="uuid-261f843a-f6cf-43e1-b8b3-cc9b51209416" d="M281.86,24.11v.14s0,.1,0,.14h-3.29c.01.16.05.3.12.43s.16.24.27.33.24.17.39.22c.14.05.29.08.45.08.27,0,.5-.05.68-.15.19-.1.34-.24.46-.41l.72.58c-.43.58-1.04.86-1.85.86-.34,0-.64-.05-.93-.16-.28-.11-.53-.25-.73-.45-.21-.19-.37-.43-.49-.71-.12-.28-.17-.6-.17-.95s.06-.67.17-.95c.12-.29.28-.53.48-.73.2-.2.45-.36.72-.47.28-.11.58-.17.91-.17.3,0,.58.05.83.15.25.1.48.25.66.44.19.2.33.44.44.73.11.29.16.63.16,1.02ZM280.78,23.62c0-.14-.02-.27-.06-.4s-.1-.24-.18-.33c-.08-.1-.19-.17-.32-.23-.13-.06-.28-.08-.46-.08-.32,0-.6.1-.82.29-.22.2-.35.45-.37.75h2.21Z"/><path class="uuid-261f843a-f6cf-43e1-b8b3-cc9b51209416" d="M283.27,21.9h1.03v.69h.02c.1-.22.26-.41.5-.57.24-.17.52-.25.84-.25.28,0,.52.05.72.15.2.1.37.23.5.39s.22.35.28.56c.06.21.09.43.09.65v2.7h-1.08v-2.39c0-.13,0-.26-.03-.4-.02-.14-.06-.26-.12-.37-.06-.11-.14-.2-.25-.28-.11-.07-.24-.11-.42-.11s-.32.03-.45.1-.23.16-.31.27c-.08.11-.14.23-.18.37-.04.14-.06.28-.06.43v2.38h-1.08v-4.32Z"/><path class="uuid-261f843a-f6cf-43e1-b8b3-cc9b51209416" d="M288.7,20.43c0-.17.06-.33.19-.45s.29-.19.49-.19.37.06.5.18c.13.12.2.28.2.46s-.07.34-.2.46-.3.18-.5.18-.36-.06-.49-.19c-.13-.13-.19-.28-.19-.46ZM288.85,21.9h1.08v4.32h-1.08v-4.32Z"/><path class="uuid-261f843a-f6cf-43e1-b8b3-cc9b51209416" d="M291.59,21.9h1.03v.69h.02c.1-.22.26-.41.5-.57.24-.17.52-.25.84-.25.28,0,.52.05.72.15.2.1.37.23.5.39s.22.35.28.56c.06.21.09.43.09.65v2.7h-1.08v-2.39c0-.13,0-.26-.03-.4-.02-.14-.06-.26-.12-.37-.06-.11-.14-.2-.25-.28-.11-.07-.24-.11-.42-.11s-.32.03-.45.1-.23.16-.31.27c-.08.11-.14.23-.18.37-.04.14-.06.28-.06.43v2.38h-1.08v-4.32Z"/><path class="uuid-261f843a-f6cf-43e1-b8b3-cc9b51209416" d="M299.59,23.05c-.1-.13-.23-.24-.4-.33-.17-.09-.35-.14-.55-.14-.17,0-.33.04-.48.11-.14.07-.22.19-.22.36s.08.29.24.36.39.14.7.21c.16.04.33.08.49.14.16.06.31.14.45.24.14.1.25.22.33.37.08.15.13.33.13.54,0,.26-.05.49-.15.67-.1.18-.23.33-.4.45-.17.11-.36.2-.58.25-.22.05-.45.08-.68.08-.34,0-.66-.06-.98-.18s-.58-.3-.79-.53l.71-.67c.12.16.28.29.47.39.19.1.41.15.64.15.08,0,.16,0,.24-.03.08-.02.16-.05.22-.08.07-.04.12-.09.17-.16.04-.07.06-.15.06-.24,0-.18-.08-.31-.25-.39-.17-.08-.41-.16-.74-.23-.16-.04-.32-.08-.47-.14-.15-.06-.29-.13-.41-.23-.12-.09-.22-.21-.29-.35-.07-.14-.11-.31-.11-.51,0-.24.05-.45.15-.62.1-.17.23-.32.39-.43.16-.11.34-.19.55-.25.2-.05.41-.08.63-.08.31,0,.62.05.91.16.3.11.53.27.71.5l-.7.62Z"/><path class="uuid-261f843a-f6cf-43e1-b8b3-cc9b51209416" d="M305.56,26.22h-1.03v-.69h-.02c-.1.22-.26.41-.5.57-.24.16-.52.25-.84.25-.28,0-.52-.05-.72-.15s-.37-.23-.5-.39-.22-.35-.28-.56c-.06-.21-.09-.43-.09-.65v-2.7h1.08v2.39c0,.13,0,.26.03.4.02.14.06.26.12.37.06.11.14.2.25.27.11.07.25.11.42.11s.32-.03.45-.1c.13-.07.23-.16.32-.26.08-.11.14-.23.18-.37.04-.14.06-.28.06-.43v-2.38h1.08v4.32Z"/><path class="uuid-261f843a-f6cf-43e1-b8b3-cc9b51209416" d="M307.21,19.41h1.08v6.8h-1.08v-6.8Z"/><path class="uuid-261f843a-f6cf-43e1-b8b3-cc9b51209416" d="M312.64,25.67h-.03c-.11.19-.28.35-.52.47s-.51.18-.82.18c-.17,0-.36-.02-.54-.07-.19-.04-.36-.12-.52-.22-.16-.1-.29-.24-.4-.41-.11-.17-.16-.38-.16-.63,0-.32.09-.58.28-.77.18-.19.42-.34.71-.44.29-.1.61-.17.96-.2.35-.03.69-.05,1.03-.05v-.11c0-.27-.1-.47-.29-.6s-.43-.19-.7-.19c-.23,0-.45.05-.66.14s-.38.21-.52.35l-.56-.66c.25-.23.53-.4.85-.51.32-.11.65-.17.98-.17.38,0,.7.05.95.16.25.11.45.25.59.42.14.17.24.37.3.58.06.22.08.43.08.65v2.63h-1.01v-.55ZM312.62,24.25h-.24c-.17,0-.36,0-.55.02-.19.01-.37.05-.53.1s-.3.12-.41.22c-.11.09-.16.22-.16.38,0,.1.02.19.07.26.05.07.1.12.18.17s.15.07.24.09c.09.02.18.03.27.03.37,0,.65-.1.85-.3.19-.2.29-.47.29-.81v-.15Z"/><path class="uuid-261f843a-f6cf-43e1-b8b3-cc9b51209416" d="M317.66,19.84h1.13v2.75h.03l2.66-2.75h1.53l-2.98,2.94,3.18,3.43h-1.59l-2.8-3.2h-.03v3.2h-1.13v-6.37Z"/><path class="uuid-261f843a-f6cf-43e1-b8b3-cc9b51209416" d="M324.1,20.43c0-.17.06-.33.19-.45s.29-.19.49-.19.36.06.5.18c.14.12.2.28.2.46s-.07.34-.2.46c-.13.12-.3.18-.5.18s-.36-.06-.49-.19c-.13-.13-.19-.28-.19-.46ZM324.25,21.9h1.08v4.32h-1.08v-4.32Z"/><path class="uuid-261f843a-f6cf-43e1-b8b3-cc9b51209416" d="M326.41,22.76v-.86h.76v-1.25h1.06v1.25h1.08v.86h-1.08v2.01c0,.19.03.35.1.48.07.13.22.19.46.19.07,0,.15,0,.23-.02.08-.01.16-.04.22-.07l.04.85c-.1.04-.21.06-.34.09-.13.02-.26.03-.38.03-.29,0-.52-.04-.7-.12s-.32-.19-.43-.33c-.1-.14-.18-.3-.22-.49-.04-.18-.06-.38-.06-.59v-2.02h-.76Z"/><path class="uuid-261f843a-f6cf-43e1-b8b3-cc9b51209416" d="M333.37,23.09c-.08-.12-.21-.22-.38-.3-.17-.08-.34-.12-.51-.12-.2,0-.37.04-.52.12-.15.08-.27.19-.37.32-.1.13-.17.28-.22.45-.05.17-.07.33-.07.5s.03.33.08.5.13.31.23.45.23.24.38.32c.15.08.33.12.54.12.17,0,.34-.03.5-.1.17-.07.3-.16.41-.29l.67.68c-.18.19-.41.34-.69.45-.28.1-.58.16-.9.16s-.62-.05-.9-.15c-.29-.1-.53-.25-.75-.45-.21-.2-.38-.44-.5-.72-.12-.28-.18-.6-.18-.96s.06-.66.18-.95c.12-.28.29-.52.5-.72s.46-.35.73-.46c.28-.11.58-.16.9-.16s.63.06.92.18.53.29.71.49l-.74.65Z"/><path class="uuid-261f843a-f6cf-43e1-b8b3-cc9b51209416" d="M337.59,21.77c.28,0,.52.05.72.15.2.1.37.23.5.39s.22.35.28.56.09.43.09.65v2.7h-1.08v-2.38c0-.13,0-.26-.03-.39-.02-.13-.06-.26-.11-.37-.06-.11-.14-.2-.24-.27-.11-.07-.25-.11-.42-.11s-.32.03-.45.1-.23.15-.31.27-.15.24-.19.37c-.04.14-.06.28-.06.42v2.36h-1.08v-6.8h1.08v3.09h.02c.04-.09.1-.18.18-.27s.18-.17.28-.23c.11-.07.23-.12.37-.17s.29-.06.45-.06Z"/><path class="uuid-261f843a-f6cf-43e1-b8b3-cc9b51209416" d="M344.93,24.11v.14s0,.1,0,.14h-3.29c.01.16.05.3.12.43s.16.24.27.33.24.17.39.22c.14.05.29.08.45.08.27,0,.5-.05.68-.15.19-.1.34-.24.46-.41l.72.58c-.43.58-1.04.86-1.85.86-.34,0-.64-.05-.93-.16-.28-.11-.53-.25-.73-.45-.21-.19-.37-.43-.49-.71-.12-.28-.17-.6-.17-.95s.06-.67.17-.95c.12-.29.28-.53.48-.73.2-.2.45-.36.72-.47.28-.11.58-.17.91-.17.3,0,.58.05.83.15.25.1.48.25.66.44.19.2.33.44.44.73.11.29.16.63.16,1.02ZM343.85,23.62c0-.14-.02-.27-.06-.4s-.1-.24-.18-.33c-.08-.1-.19-.17-.32-.23-.13-.06-.28-.08-.46-.08-.32,0-.6.1-.82.29-.22.2-.35.45-.37.75h2.21Z"/><path class="uuid-261f843a-f6cf-43e1-b8b3-cc9b51209416" d="M346.34,21.9h1.03v.69h.02c.1-.22.26-.41.5-.57.24-.17.52-.25.84-.25.28,0,.52.05.72.15.2.1.37.23.5.39s.22.35.28.56c.06.21.09.43.09.65v2.7h-1.08v-2.39c0-.13,0-.26-.03-.4-.02-.14-.06-.26-.12-.37-.06-.11-.14-.2-.25-.28-.11-.07-.24-.11-.42-.11s-.32.03-.45.1-.23.16-.31.27c-.08.11-.14.23-.18.37-.04.14-.06.28-.06.43v2.38h-1.08v-4.32Z"/><path class="uuid-261f843a-f6cf-43e1-b8b3-cc9b51209416" d="M267.07,40.34h-.81v-.76h.91l.16-1.1h-.81v-.76h.91l.27-1.88h.79l-.27,1.88h.93l.27-1.88h.78l-.27,1.88h.81v.76h-.92l-.15,1.1h.81v.76h-.9l-.28,1.88h-.78l.27-1.88h-.94l-.27,1.88h-.78l.27-1.88ZM268.11,38.48l-.15,1.1h.93l.15-1.1h-.93Z"/><path class="uuid-261f843a-f6cf-43e1-b8b3-cc9b51209416" d="M272.19,35.84h2.26c.41,0,.83.05,1.25.16s.8.29,1.13.54.61.58.82.98.31.91.31,1.51c0,.56-.1,1.04-.31,1.44-.21.4-.48.73-.82.99s-.71.45-1.13.57-.84.18-1.25.18h-2.26v-6.37ZM274.27,41.23c.29,0,.59-.03.88-.1.29-.07.56-.19.8-.35s.43-.39.58-.67c.15-.28.22-.64.22-1.07,0-.46-.08-.83-.22-1.12-.15-.29-.34-.51-.58-.67-.24-.16-.5-.27-.8-.33-.29-.06-.59-.09-.88-.09h-.94v4.41h.94Z"/><path class="uuid-261f843a-f6cf-43e1-b8b3-cc9b51209416" d="M283.34,42.22h-1.03v-.69h-.02c-.1.22-.26.41-.5.57-.24.16-.52.25-.84.25-.28,0-.52-.05-.72-.15s-.37-.23-.5-.39-.22-.35-.28-.56c-.06-.21-.09-.43-.09-.65v-2.7h1.08v2.39c0,.13,0,.26.03.4.02.14.06.26.12.37.06.11.14.2.25.27.11.07.25.11.42.11s.32-.03.45-.1c.13-.07.23-.16.32-.26.08-.11.14-.23.18-.37.04-.14.06-.28.06-.43v-2.38h1.08v4.32Z"/><path class="uuid-261f843a-f6cf-43e1-b8b3-cc9b51209416" d="M284.99,35.41h1.08v6.8h-1.08v-6.8Z"/><path class="uuid-261f843a-f6cf-43e1-b8b3-cc9b51209416" d="M287.73,35.41h1.08v6.8h-1.08v-6.8Z"/><path class="uuid-261f843a-f6cf-43e1-b8b3-cc9b51209416" d="M295.78,39.09c-.08-.12-.21-.22-.38-.3-.17-.08-.34-.12-.51-.12-.2,0-.37.04-.52.12-.15.08-.27.19-.37.32-.1.13-.17.28-.22.45-.05.17-.07.33-.07.5s.03.33.08.5.13.31.23.45.23.24.38.32c.15.08.33.12.54.12.17,0,.34-.03.5-.1.17-.07.3-.16.41-.29l.67.68c-.18.19-.41.34-.69.45-.28.1-.58.16-.9.16s-.62-.05-.9-.15c-.29-.1-.53-.25-.75-.45-.21-.2-.38-.44-.5-.72-.12-.28-.18-.6-.18-.96s.06-.66.18-.95c.12-.28.29-.52.5-.72s.46-.35.73-.46c.28-.11.58-.16.9-.16s.63.06.92.18.53.29.71.49l-.74.65Z"/><path class="uuid-261f843a-f6cf-43e1-b8b3-cc9b51209416" d="M297.28,40.04c0-.34.06-.65.18-.93s.29-.52.5-.72.46-.35.75-.46c.29-.11.59-.16.92-.16s.63.05.92.16c.29.11.54.26.75.46s.38.44.5.72c.12.28.18.59.18.93s-.06.65-.18.94c-.12.28-.29.52-.5.72s-.46.36-.75.47-.59.17-.92.17-.63-.06-.92-.17-.54-.27-.75-.47-.38-.44-.5-.72-.18-.59-.18-.94ZM298.37,40.04c0,.17.03.34.08.5.05.17.13.32.23.45.1.13.23.24.39.32.16.08.34.13.56.13s.4-.04.56-.13c.16-.08.28-.19.39-.32.1-.13.18-.28.23-.45s.08-.34.08-.5-.03-.33-.08-.5-.13-.31-.23-.45c-.1-.13-.23-.24-.39-.32-.16-.08-.34-.12-.56-.12s-.4.04-.56.12c-.16.08-.29.19-.39.32-.1.13-.18.28-.23.45-.05.17-.08.33-.08.5Z"/><path class="uuid-261f843a-f6cf-43e1-b8b3-cc9b51209416" d="M303.38,35.41h1.08v6.8h-1.08v-6.8Z"/><path class="uuid-261f843a-f6cf-43e1-b8b3-cc9b51209416" d="M305.88,40.04c0-.34.06-.65.18-.93s.29-.52.5-.72.46-.35.75-.46c.29-.11.59-.16.92-.16s.63.05.92.16c.29.11.54.26.75.46.21.2.38.44.5.72s.18.59.18.93-.06.65-.18.94-.29.52-.5.72c-.21.2-.46.36-.75.47s-.59.17-.92.17-.63-.06-.92-.17-.54-.27-.75-.47-.38-.44-.5-.72-.18-.59-.18-.94ZM306.98,40.04c0,.17.03.34.08.5s.13.32.23.45c.1.13.23.24.39.32.16.08.34.13.56.13s.4-.04.56-.13c.16-.08.29-.19.39-.32.1-.13.18-.28.23-.45s.08-.34.08-.5-.03-.33-.08-.5-.13-.31-.23-.45c-.1-.13-.23-.24-.39-.32s-.34-.12-.56-.12-.4.04-.56.12-.29.19-.39.32c-.1.13-.18.28-.23.45s-.08.33-.08.5Z"/><path class="uuid-261f843a-f6cf-43e1-b8b3-cc9b51209416" d="M311.97,37.9h1.04v.72h.02c.12-.25.29-.46.5-.61s.47-.23.76-.23c.04,0,.09,0,.14,0,.05,0,.09.01.13.02v.99c-.07-.02-.13-.03-.18-.04-.05,0-.1,0-.15,0-.25,0-.44.04-.59.13-.15.09-.27.2-.35.32s-.14.25-.17.39c-.03.13-.04.24-.04.31v2.31h-1.08v-4.32Z"/><path class="uuid-261f843a-f6cf-43e1-b8b3-cc9b51209416" d="M267.07,56.34h-.81v-.76h.91l.16-1.1h-.81v-.76h.91l.27-1.88h.79l-.27,1.88h.93l.27-1.88h.78l-.27,1.88h.81v.76h-.92l-.15,1.1h.81v.76h-.9l-.28,1.88h-.78l.27-1.88h-.94l-.27,1.88h-.78l.27-1.88ZM268.11,54.48l-.15,1.1h.93l.15-1.1h-.93Z"/><path class="uuid-261f843a-f6cf-43e1-b8b3-cc9b51209416" d="M272.19,51.84h1.5l2.96,4.77h.02v-4.77h1.13v6.37h-1.44l-3.02-4.92h-.02v4.92h-1.13v-6.37Z"/><path class="uuid-261f843a-f6cf-43e1-b8b3-cc9b51209416" d="M282.22,57.67h-.03c-.11.19-.28.35-.52.47-.24.12-.51.18-.82.18-.17,0-.36-.02-.54-.07-.19-.04-.36-.12-.52-.22-.16-.1-.29-.24-.4-.41-.1-.17-.16-.38-.16-.63,0-.32.09-.58.27-.77s.42-.34.71-.44c.29-.1.61-.17.96-.2s.69-.05,1.03-.05v-.11c0-.27-.1-.47-.29-.6-.2-.13-.43-.19-.7-.19-.23,0-.45.05-.66.14s-.38.21-.52.35l-.56-.66c.25-.23.53-.4.85-.51.32-.11.65-.17.98-.17.38,0,.7.05.95.16.25.11.45.25.59.42.14.17.24.37.3.58.06.22.09.43.09.65v2.63h-1.01v-.55ZM282.21,56.25h-.24c-.17,0-.36,0-.55.02-.19.01-.37.05-.53.1-.16.05-.3.12-.4.22-.11.09-.16.22-.16.38,0,.1.02.19.07.26.04.07.1.12.18.17.07.04.15.07.24.09.09.02.18.03.27.03.37,0,.65-.1.85-.3.19-.2.29-.47.29-.81v-.15Z"/><path class="uuid-261f843a-f6cf-43e1-b8b3-cc9b51209416" d="M284.23,54.76v-.86h.76v-1.25h1.06v1.25h1.08v.86h-1.08v2.01c0,.19.03.35.1.48s.22.19.46.19c.07,0,.15,0,.23-.02.08-.01.16-.04.23-.07l.04.85c-.1.04-.21.06-.34.09-.13.02-.26.03-.38.03-.29,0-.52-.04-.7-.12-.18-.08-.32-.19-.43-.33-.11-.14-.18-.3-.22-.49-.04-.18-.06-.38-.06-.59v-2.02h-.76Z"/><path class="uuid-261f843a-f6cf-43e1-b8b3-cc9b51209416" d="M292.24,58.22h-1.03v-.69h-.02c-.1.22-.26.41-.5.57-.24.16-.52.25-.84.25-.28,0-.52-.05-.72-.15s-.37-.23-.5-.39-.22-.35-.28-.56c-.06-.21-.09-.43-.09-.65v-2.7h1.08v2.39c0,.13,0,.26.03.4.02.14.06.26.12.37.06.11.14.2.25.27.11.07.25.11.42.11s.32-.03.45-.1c.13-.07.23-.16.32-.26.08-.11.14-.23.18-.37.04-.14.06-.28.06-.43v-2.38h1.08v4.32Z"/><path class="uuid-261f843a-f6cf-43e1-b8b3-cc9b51209416" d="M293.89,53.9h1.04v.72h.02c.12-.25.29-.46.5-.61.22-.16.47-.23.76-.23.04,0,.09,0,.13,0s.09.01.13.02v.99c-.07-.02-.13-.03-.18-.04s-.1,0-.15,0c-.25,0-.44.04-.59.13-.15.09-.27.2-.35.32s-.14.25-.17.39-.04.24-.04.31v2.31h-1.08v-4.32Z"/><path class="uuid-261f843a-f6cf-43e1-b8b3-cc9b51209416" d="M300.25,57.67h-.03c-.11.19-.28.35-.52.47-.24.12-.51.18-.82.18-.17,0-.36-.02-.54-.07-.19-.04-.36-.12-.52-.22-.16-.1-.29-.24-.4-.41-.1-.17-.16-.38-.16-.63,0-.32.09-.58.27-.77s.42-.34.71-.44c.29-.1.61-.17.96-.2s.69-.05,1.03-.05v-.11c0-.27-.1-.47-.29-.6-.2-.13-.43-.19-.7-.19-.23,0-.45.05-.66.14s-.38.21-.52.35l-.56-.66c.25-.23.53-.4.85-.51.32-.11.65-.17.98-.17.38,0,.7.05.95.16.25.11.45.25.59.42.14.17.24.37.3.58.06.22.09.43.09.65v2.63h-1.01v-.55ZM300.24,56.25h-.24c-.17,0-.36,0-.55.02-.19.01-.37.05-.53.1-.16.05-.3.12-.4.22-.11.09-.16.22-.16.38,0,.1.02.19.07.26.04.07.1.12.18.17.07.04.15.07.24.09.09.02.18.03.27.03.37,0,.65-.1.85-.3.19-.2.29-.47.29-.81v-.15Z"/><path class="uuid-261f843a-f6cf-43e1-b8b3-cc9b51209416" d="M302.89,51.41h1.08v6.8h-1.08v-6.8Z"/><rect class="uuid-6711785b-dbff-494b-84fd-2967616b08fe" width="375" height="65.11"/></g></svg>