<?xml version="1.0" encoding="UTF-8"?><svg id="uuid-164ef2d1-418c-43c4-9148-2774cbedcdac" xmlns="http://www.w3.org/2000/svg" width="280" height="100" viewBox="0 0 280 100"><defs><style>.uuid-abd3d63c-d4aa-494e-841d-ded8cbf6611f{fill:none;}.uuid-63cbf31a-cdbf-45e2-9de7-6bbd4274af3f{fill:#1c1c1c;}</style></defs><g id="uuid-4ab2549c-4074-49d1-8a54-844026aafe8c"><path class="uuid-63cbf31a-cdbf-45e2-9de7-6bbd4274af3f" d="M28.74,39.45c.78.66,1.85,1.01,3.71,1.01s3.02-.05,4.56-.23c-.17.28-.29.56-.34.88q-.08.4-.46.41c-1.2.08-2.23.12-3.78.12s-3.05-.18-4.1-1.1c-.08-.07-.17-.13-.24-.22-.35.47-.77.9-1.26,1.33-.13.11-.2.17-.26.17-.07,0-.12-.08-.22-.24-.18-.31-.4-.55-.62-.74.64-.47,1.15-.94,1.56-1.46-.35-.5-.66-1.1-.94-1.83-.08-.19-.08-.23.07-.31l.59-.31c.2-.11.22-.06.3.14.17.53.36.96.58,1.33.3-.64.5-1.39.62-2.31h-1.03l-.19.29c-.05.07-.08.11-.14.11-.08,0-.22-.06-.5-.19-.36-.17-.48-.22-.48-.29,0-.04.02-.08.07-.14.79-1.1,1.37-2.15,1.83-3.14h-.79c-.78,0-1.02.02-1.09.02-.12,0-.13-.01-.13-.13v-.89c0-.13.01-.14.13-.14.07,0,.31.02,1.09.02h1.31c.12,0,.22-.01.26-.02.05-.01.1-.04.14-.04.07,0,.16.05.4.35.2.26.31.41.31.52s-.05.14-.12.2c-.13.07-.23.28-.32.44-.28.5-.64,1.2-1.09,1.97h.58c.12,0,.2-.01.28-.06.07-.04.1-.06.16-.06.1,0,.19.07.43.35.24.25.29.34.29.43s-.04.14-.13.24c-.08.1-.11.23-.14.42-.17,1.21-.46,2.21-.94,3.08l.06.05ZM31.36,39.23c-1.14,0-1.54.02-1.61.02-.12,0-.13-.01-.13-.14v-.73c0-.13.01-.14.13-.14.07,0,.47.02,1.61.02h.96v-.67h-.53c-1.08,0-1.46.02-1.54.02-.12,0-.13-.01-.13-.13v-.7c0-.12.01-.13.13-.13.07,0,.46.02,1.54.02h.53v-.67h-.65c-.94,0-1.24.02-1.31.02-.12,0-.13-.01-.13-.13v-.67c0-.12.01-.13.13-.13.07,0,.37.02,1.31.02h.65v-.67h-1.08c-1.1,0-1.47.02-1.55.02-.12,0-.13-.01-.13-.14v-.71c0-.12.01-.13.13-.13.07,0,.44.02,1.55.02h1.08v-.66h-.44c-1.07,0-1.42.02-1.49.02-.12,0-.13-.01-.13-.13v-.7c0-.12.01-.13.13-.13.07,0,.42.02,1.49.02h.44c-.01-.42-.04-.7-.08-.97.46.01.78.04,1.17.08.12.01.19.05.19.12s-.04.12-.07.19c-.05.08-.07.2-.07.58h.7c1.1,0,1.63-.02,1.7-.02.13,0,.14.01.14.13,0,.07-.02.43-.02,1.19v.28c.37,0,.74-.02.8-.02.12,0,.13.01.13.13v.72c0,.12-.01.13-.13.13-.06,0-.43-.01-.8-.02v.29c0,.76.02,1.1.02,1.16,0,.12-.01.13-.14.13-.07,0-.6-.02-1.7-.02h-.7v.67h1.01c1.08,0,1.45-.02,1.52-.02.13,0,.14.01.14.13v.7c0,.12-.01.13-.14.13-.07,0-.44-.02-1.52-.02h-1.01v.67h1.42c1.15,0,1.55-.02,1.62-.02.12,0,.13.01.13.14v.73c0,.13-.01.14-.13.14-.07,0-.47-.02-1.62-.02h-1.42c.01.53.02.78.02.83,0,.13-.01.14-.13.14h-.91c-.13,0-.14-.01-.14-.14,0-.02.01-.3.01-.83h-.95ZM33.46,32.84v.66h1.4v-.66h-1.4ZM34.86,34.44h-1.4v.67h1.4v-.67Z"/><path class="uuid-63cbf31a-cdbf-45e2-9de7-6bbd4274af3f" d="M39.31,34.27c0-.11.01-.13.12-.13-.05-.02-.12-.1-.22-.22-.18-.22-.4-.4-.58-.49.72-.61,1.2-1.22,1.55-1.94.08-.18.14-.34.2-.56.4.05.83.12,1.07.18.12.01.18.05.18.14,0,.07-.04.11-.11.17-.06.05-.12.12-.19.28-.04.08-.08.16-.12.23h1.32c1.01,0,1.32-.02,1.39-.02.12,0,.13.01.13.14v.76c.31-.4.58-.83.77-1.28.08-.19.14-.35.2-.59.38.05.68.1.97.17.13.02.18.05.18.13s-.04.12-.08.17c-.08.07-.11.13-.17.3l-.11.23h1.83c1.22,0,1.66-.02,1.73-.02.12,0,.13.01.13.14v.71c0,.12-.01.13-.13.13-.07,0-.5-.02-1.73-.02h-.23c.13.19.24.4.35.62.05.11.04.14-.12.18l-.74.16c-.17.04-.19.02-.24-.1-.1-.29-.24-.59-.41-.86h-.95c-.18.3-.41.59-.66.88-.12.13-.18.19-.24.19-.07,0-.14-.07-.3-.22-.19-.18-.35-.29-.54-.38.14-.14.28-.29.41-.44h-.06c-.07,0-.37-.02-1.28-.02.13.22.24.44.36.68.06.12.04.16-.12.18l-.74.14c-.18.04-.22.04-.25-.1-.08-.3-.22-.62-.36-.91h-.85c-.25.38-.54.74-.92,1.09-.11.11-.18.17-.24.19.13.01.43.02,1.09.02h1.28c.82,0,1.08-.02,1.15-.02.12,0,.13.01.13.13v.71c0,.12-.01.13-.13.13-.07,0-.34-.02-1.15-.02h-.06v1.07c.43-.1.89-.22,1.38-.36-.05.19-.08.38-.1.59q-.01.4-.38.48c-.98.29-1.83.49-2.77.7-.19.05-.32.1-.4.14-.07.05-.13.07-.2.07s-.13-.05-.17-.16c-.12-.31-.22-.66-.29-.98.4-.04.72-.07,1.13-.14l.7-.11v-1.3h-.12c-.83,0-1.08.02-1.15.02-.13,0-.14-.01-.14-.13v-.71ZM45.52,35.51c.06-.05.1-.07.13-.07s.06.02.12.07c.34.29.7.65,1,1.02.08.11.07.13-.06.24l-.48.37c-.06.05-.1.07-.13.07-.02,0-.05-.02-.1-.08-.31-.43-.61-.77-.96-1.06-.04-.02-.07-.05-.08-.1-.13.61-.43,1.06-.91,1.42.23.01.44.04.67.06.11.01.17.07.17.14s-.02.12-.06.22c-.02.08-.05.17-.05.38h2.99c1.09,0,1.46-.02,1.54-.02.12,0,.13.01.13.12v.78c0,.12-.01.13-.13.13-.07,0-.44-.02-1.54-.02h-2c1,.71,2.25,1.15,4.04,1.49-.18.23-.35.5-.48.77-.18.35-.18.34-.54.24-1.6-.44-3.01-1.15-4.03-2.06,0,1.21.05,2.03.05,2.23,0,.12-.01.13-.13.13h-1.03c-.11,0-.12-.01-.12-.13,0-.2.04-.96.05-2.19-1.03.96-2.35,1.62-3.87,2.05q-.37.1-.55-.25c-.13-.25-.31-.53-.47-.68,1.73-.36,2.88-.8,3.89-1.58h-1.87c-1.09,0-1.46.02-1.54.02-.12,0-.13-.01-.13-.13v-.78c0-.11.01-.12.13-.12.07,0,.44.02,1.54.02h2.85c0-.17,0-.32-.02-.5-.06-.01-.12-.08-.24-.2-.2-.22-.37-.35-.61-.46,1.09-.55,1.33-1.01,1.33-2.41,0-.26-.02-.42-.02-.5,0-.12.01-.13.13-.13.08,0,.34.02,1.18.02h1.36c.85,0,1.12-.02,1.2-.02.12,0,.13.01.13.13,0,.08-.02.35-.02.9v1.07c0,.26,0,.38.06.43.08.07.14.07.31.07.19,0,.29-.05.38-.17.07-.1.11-.31.12-1.04.17.11.35.19.61.28.31.11.3.12.28.42-.05.61-.13.97-.37,1.21-.23.2-.6.29-1.16.29-.5,0-.76-.02-.97-.16-.19-.12-.32-.36-.32-.76v-1.74h-1.81c-.01.41-.04.71-.1,1.02.02-.02.04-.04.1-.08l.46-.35Z"/><path class="uuid-63cbf31a-cdbf-45e2-9de7-6bbd4274af3f" d="M53.99,41.29c-1.16,0-1.55.02-1.62.02-.12,0-.13-.01-.13-.13v-1c0-.12.01-.13.13-.13.07,0,.46.02,1.62.02h2.13v-4.03h-2.88c-1.08,0-1.45.02-1.52.02-.12,0-.13-.01-.13-.13v-.98c0-.13.01-.14.13-.14.07,0,.44.02,1.52.02h2.88v-2.19c0-.74-.01-1.06-.1-1.46.44.01.96.04,1.37.08.11.01.18.06.18.13,0,.08-.02.16-.06.24-.06.16-.07.38-.07.94v2.27h3.03c1.08,0,1.45-.02,1.52-.02.12,0,.13.01.13.14v.98c0,.12-.01.13-.13.13-.07,0-.44-.02-1.52-.02h-3.03v4.03h2.27c1.15,0,1.55-.02,1.62-.02.12,0,.13.01.13.13v1c0,.12-.01.13-.13.13-.07,0-.47-.02-1.62-.02h-5.72Z"/><path class="uuid-63cbf31a-cdbf-45e2-9de7-6bbd4274af3f" d="M67.38,31.65c.14.04.22.1.22.19,0,.17-.08.34-.08.5,0,.24.04.53.06.8.11.84.23,1.44.38,2.06.6-.32,1.03-.55,1.7-.91.35-.2.64-.41.83-.65.38.4.7.82.88,1.13.05.07.08.17.08.25,0,.12-.07.22-.24.24-.36.06-.77.2-1.15.36-1.03.42-1.99.86-2.82,1.4-1.04.68-1.42,1.25-1.42,1.81,0,.71.53,1.01,1.91,1.01,1.51,0,2.73-.11,3.66-.28.13-.02.19,0,.22.14.06.32.1.76.12,1.12.01.13-.07.19-.22.2-1.09.14-2.05.18-3.57.18-2.27,0-3.47-.74-3.47-2.3,0-1.33.88-2.21,2.28-3.09-.29-.92-.5-2-.62-2.93-.08-.64-.17-1.06-.31-1.39.58,0,1.13.04,1.57.14Z"/><path class="uuid-63cbf31a-cdbf-45e2-9de7-6bbd4274af3f" d="M81.41,34.49h-4.19c-.82,0-1.38.02-1.8.07-.13,0-.18-.06-.18-.2-.04-.32-.06-.89-.06-1.28.72.07,1.14.08,2,.08h3.56c.62,0,1.26-.02,1.9-.05.19,0,.25.05.24.2,0,.64-.02,1.26-.02,1.9v2.87c0,.88.04,1.83.05,2.17,0,.12-.05.16-.22.17-.34.02-.72.02-1.06,0-.19-.01-.23-.02-.23-.2v-.48h-4.13c-.76,0-1.39.04-1.97.05-.11,0-.16-.05-.17-.18-.04-.31-.06-.74-.06-1.25.56.04,1.26.06,2.21.06h4.11v-3.92Z"/><path class="uuid-63cbf31a-cdbf-45e2-9de7-6bbd4274af3f" d="M88.27,37.31c-1.19,0-1.64.14-1.76.14-.14,0-.24-.07-.28-.25-.06-.28-.13-.84-.18-1.45.78.12,1.38.14,2.59.14h3.86c.91,0,1.83-.02,2.76-.04.18-.01.22.02.22.17.02.36.02.77,0,1.13,0,.14-.05.19-.22.18-.9-.01-1.79-.02-2.67-.02h-4.32Z"/><path class="uuid-63cbf31a-cdbf-45e2-9de7-6bbd4274af3f" d="M103.67,36.17c-.07,1.34-.24,2.15-.71,3.06-.48.94-1.34,1.81-2.11,2.27-.13.08-.25.14-.36.14-.08,0-.17-.04-.25-.12-.24-.24-.65-.48-1.07-.64,1.17-.64,1.88-1.22,2.39-2.13.44-.79.56-1.44.61-2.58h-2.28c-.6,0-1.19.04-1.8.07-.11.01-.14-.07-.16-.23-.06-.34-.1-.79-.1-1.15.67.06,1.34.06,2.04.06h5.39c.94,0,1.63-.02,2.34-.07.12,0,.13.07.13.24.01.16.01.77,0,.92,0,.16-.07.2-.18.2-.62-.02-1.45-.05-2.28-.05h-1.61ZM101.29,33.38c-.55,0-1.03.02-1.7.05-.16,0-.19-.06-.2-.2-.04-.29-.05-.72-.08-1.15.84.05,1.45.06,1.99.06h2.21c.67,0,1.43-.01,2.03-.05.12,0,.14.07.14.23.02.29.02.59,0,.88,0,.17-.02.23-.16.23-.65-.02-1.35-.04-2.02-.04h-2.21ZM106.45,31.3c.06-.04.11-.02.17.04.35.32.73.85,1.02,1.39.04.07.04.13-.06.19l-.54.32c-.08.05-.14.02-.19-.06-.31-.59-.65-1.08-1.08-1.5l.68-.38ZM107.59,30.63c.07-.05.11-.02.17.04.41.38.79.9,1.02,1.34.04.07.05.14-.06.22l-.5.32c-.11.06-.17.01-.2-.06-.28-.54-.61-1.03-1.07-1.49l.65-.37Z"/><path class="uuid-63cbf31a-cdbf-45e2-9de7-6bbd4274af3f" d="M114.61,39.44c0,.58.02,1.34.04,1.96.01.14-.06.2-.2.22-.31.02-.66.02-.97,0-.13-.01-.2-.07-.19-.22.01-.68.04-1.28.04-1.92v-2.05c-.82.68-1.87,1.42-2.48,1.73-.05.04-.11.05-.16.05-.08,0-.18-.05-.24-.12-.22-.25-.54-.49-.86-.6,1.88-.98,3.51-2.24,4.98-3.9.28-.32.48-.62.64-1.03.41.24.91.55,1.1.72.08.07.13.16.13.22,0,.08-.06.17-.18.23-.16.08-.43.37-.54.49-.31.36-.67.76-1.09,1.16v3.07Z"/><path class="uuid-63cbf31a-cdbf-45e2-9de7-6bbd4274af3f" d="M124.85,39.42c0,1.07.04,1.86.04,2.16,0,.11-.08.16-.23.16-.32.02-.71.02-1.03,0-.14,0-.23-.05-.23-.17,0-.34.06-1.14.06-2.13v-1.55c-1.07.78-1.97,1.34-3.3,2-.07.04-.14.06-.2.06-.07,0-.16-.04-.24-.13-.29-.3-.54-.55-.96-.73,1.66-.76,2.77-1.39,3.86-2.16,1-.71,1.7-1.31,2.33-1.94l-2.77.06c-.65.02-1.09.05-1.58.08-.13,0-.18-.07-.2-.23-.06-.28-.1-.72-.13-1.18.52.06,1.02.11,1.67.1l3.48-.04c.44,0,.67-.05.85-.13.07-.04.13-.05.18-.05.07,0,.13.02.2.1.19.16.47.53.6.71.05.07.07.14.07.2,0,.1-.06.17-.18.22-.13.06-.25.14-.38.28-.61.62-1.25,1.22-1.9,1.77v2.54ZM122.9,31.23c.07-.11.13-.14.25-.11.86.25,1.97.74,2.54,1.04.08.05.13.08.13.13,0,.04-.01.07-.05.12-.13.26-.29.56-.49.89-.05.08-.1.12-.16.12-.04,0-.08-.01-.13-.05-.6-.37-1.64-.88-2.67-1.19.24-.38.46-.78.58-.96ZM126.14,36.65c.08-.11.12-.1.24-.05.83.34,1.77.85,2.61,1.46.07.05.11.08.11.14,0,.04-.01.08-.05.14-.19.31-.35.58-.59.86-.05.06-.1.1-.14.1s-.1-.04-.17-.08c-.76-.61-1.52-1.08-2.7-1.66.26-.38.53-.74.68-.92Z"/><path class="uuid-63cbf31a-cdbf-45e2-9de7-6bbd4274af3f" d="M133.34,37.31c-1.19,0-1.64.14-1.76.14-.14,0-.24-.07-.28-.25-.06-.28-.13-.84-.18-1.45.78.12,1.38.14,2.59.14h3.86c.91,0,1.83-.02,2.76-.04.18-.01.22.02.22.17.02.36.02.77,0,1.13,0,.14-.05.19-.22.18-.9-.01-1.79-.02-2.67-.02h-4.32Z"/><path class="uuid-63cbf31a-cdbf-45e2-9de7-6bbd4274af3f" d="M150.04,33.04c.35-.01.5-.08.66-.18.08-.06.14-.08.2-.08s.13.04.22.1c.26.16.6.48.82.73.07.07.1.14.1.22s-.04.14-.13.23c-.12.11-.24.23-.36.46-.52,1.02-1.08,2-1.76,2.9.49.4.95.82,1.29,1.21.05.05.07.11.07.17,0,.05-.02.11-.07.16-.17.2-.54.59-.74.76-.05.04-.1.06-.14.06-.04,0-.08-.02-.13-.07-.29-.34-.77-.82-1.16-1.16-1.22,1.32-2.46,2.25-3.83,3-.11.06-.2.11-.3.11-.07,0-.14-.04-.23-.11-.38-.31-.72-.47-1.14-.61,1.86-.95,3.06-1.81,4.41-3.25-.46-.37-1-.74-1.73-1.13.26-.29.52-.6.79-.85.05-.05.1-.08.16-.08.04,0,.07.02.12.05.43.2.96.55,1.55.96.58-.74,1.02-1.52,1.4-2.37l-2.97.06c-.98,1.26-1.76,2.09-2.57,2.7-.08.06-.16.11-.24.11-.06,0-.13-.02-.19-.08-.3-.22-.61-.38-1.01-.55,1.68-1.33,2.58-2.43,3.39-3.77.38-.65.54-.97.65-1.48.41.14,1.03.35,1.4.59.1.05.13.12.13.19,0,.08-.06.18-.14.24-.11.07-.19.17-.25.25-.1.17-.17.29-.37.6l2.11-.05Z"/><path class="uuid-63cbf31a-cdbf-45e2-9de7-6bbd4274af3f" d="M156.48,37.31c-1.19,0-1.64.14-1.76.14-.14,0-.24-.07-.28-.25-.06-.28-.13-.84-.18-1.45.78.12,1.38.14,2.59.14h3.86c.91,0,1.83-.02,2.76-.04.18-.01.22.02.22.17.02.36.02.77,0,1.13,0,.14-.05.19-.22.18-.9-.01-1.79-.02-2.67-.02h-4.32Z"/><path class="uuid-63cbf31a-cdbf-45e2-9de7-6bbd4274af3f" d="M169.21,32.8c.06-.36.12-.83.12-1.33.62.13.96.22,1.44.4.12.04.19.13.19.24,0,.06-.02.12-.08.18-.12.16-.18.29-.24.46-.16.49-.28.94-.43,1.44.32-.04.68-.05.96-.05,1.12,0,1.71.78,1.71,2.31,0,1.29-.24,2.89-.65,3.75-.35.77-.92,1.13-1.62,1.13-.58,0-.98-.06-1.25-.18-.14-.06-.22-.16-.22-.34-.04-.38-.06-.72-.23-1.12.54.25,1.01.31,1.38.31.4,0,.58-.14.77-.64.25-.67.47-1.81.47-2.99,0-.84-.16-1.1-.68-1.1-.29,0-.66.04-1.01.08-.79,2.3-1.48,3.96-2.41,5.64-.07.16-.17.18-.31.11-.22-.11-.68-.4-.83-.53-.06-.06-.1-.11-.1-.18,0-.04.01-.08.05-.13.96-1.67,1.58-2.94,2.19-4.7-.47.07-.85.14-1.17.2-.31.06-.5.13-.66.19-.17.06-.31.04-.38-.16-.11-.28-.24-.71-.37-1.24.53,0,1.06-.04,1.58-.08.5-.05.95-.11,1.42-.18.19-.68.28-1.1.36-1.51ZM173.96,33.6c.08-.05.14-.02.23.06.82.77,1.55,1.76,1.99,2.91.05.11.04.17-.05.24-.2.19-.66.48-.9.6-.12.06-.24.05-.28-.1-.48-1.26-1.1-2.29-1.97-3.11.3-.2.65-.44.97-.61ZM174.28,31.92c.06-.05.11-.04.18.02.37.29.8.77,1.14,1.28.05.07.05.13-.04.19l-.5.37c-.08.06-.14.05-.2-.04-.36-.55-.74-1.01-1.21-1.39l.64-.44ZM175.35,31.14c.07-.05.11-.04.18.02.44.34.88.82,1.14,1.24.05.07.06.14-.04.22l-.48.37c-.1.07-.16.04-.2-.04-.32-.52-.71-.97-1.2-1.38l.6-.43Z"/><path class="uuid-63cbf31a-cdbf-45e2-9de7-6bbd4274af3f" d="M183.35,35.02c-.12.12-.19.18-.25.18s-.12-.07-.24-.24c-.18-.22-.37-.36-.58-.49.2-.19.4-.37.55-.56h-.02c-.06,0-.37-.02-1.29-.02h-.84c-.01.46-.01.89-.04,1.3h1.18c.52,0,.65-.02.72-.02.12,0,.14.02.14.14-.02.37-.02.76-.04,1.29-.01,2.59-.12,3.54-.34,4.22-.2.67-.64.92-1.25.92-.18,0-.34,0-.5-.01-.19-.01-.22-.02-.25-.32-.05-.35-.17-.71-.28-.91.31.05.52.07.78.07.35,0,.42-.12.53-.67.11-.55.16-1.45.18-3.62h-.92c-.14,2.22-.48,3.86-1.33,5.28-.08.14-.14.2-.22.2-.06,0-.12-.06-.2-.19-.23-.35-.42-.6-.67-.77,1.22-1.71,1.33-3.8,1.37-6.91-.71.01-.97.02-1.03.02-.11,0-.12-.01-.12-.14v-.88c0-.12.01-.13.12-.13.07,0,.37.02,1.31.02h.49v-.61c0-.53-.01-.84-.08-1.16.44.01.83.02,1.26.06.13.01.22.06.22.13,0,.08-.04.13-.08.23-.05.11-.07.28-.07.74v.61c.9,0,1.21-.02,1.28-.02.12,0,.13.01.13.13v.89c.52-.64.84-1.28,1.09-2.06.11-.31.16-.55.17-.78.38.06.71.11,1.06.19.16.05.2.1.2.14,0,.06-.04.11-.07.16-.1.11-.16.26-.23.48l-.24.65h2.78c.97,0,1.3-.02,1.37-.02.12,0,.13.01.13.13v.88c0,.12-.01.13-.13.13-.07,0-.4-.02-1.37-.02h-3.32c-.18.3-.38.6-.62.89.31.01.58.02.89.06.13,0,.19.05.19.11,0,.08-.02.13-.06.22-.05.1-.06.28-.06.71v.43l.84-.22v-.1c0-.74,0-1.12-.07-1.7.52.01.76.04,1.1.08.12.01.18.06.18.13,0,.08-.04.16-.06.24-.06.14-.07.37-.07,1.07l.71-.18c1-.26,1.36-.41,1.45-.42.07-.01.1.04.1.12-.01.16-.01.37-.02.66-.04.96-.1,2.1-.24,2.71-.11.46-.48.64-.73.7-.14.04-.36.04-.64.02-.18,0-.2-.04-.22-.25-.02-.31-.11-.59-.23-.83.23.05.37.06.55.06.16,0,.26-.06.3-.25.06-.35.11-.83.13-1.61l-1.16.31v1.56c0,.9.02,1.32.02,1.39,0,.12-.01.13-.14.13h-.85c-.12,0-.13-.04-.13-.16,0-.07.02-.47.02-1.37v-1.28l-.84.22v2.65c0,.48.02.65.16.74.18.11.48.14,1.39.14,1.13,0,1.5-.04,1.68-.2.22-.18.28-.4.29-1.27.23.13.52.24.82.31q.3.1.28.42c-.08,1.07-.31,1.25-.68,1.52-.35.26-1.33.34-2.53.34-1.3,0-1.74-.05-2.08-.26-.26-.18-.41-.38-.41-1.08v-3.02c-.37.11-.49.16-.54.17-.13.04-.16,0-.19-.12l-.2-.78c-.02-.08-.01-.11.1-.13.07-.01.32-.06.84-.18v-.56c0-.42,0-.71-.04-1.03l-.25.28Z"/><path class="uuid-63cbf31a-cdbf-45e2-9de7-6bbd4274af3f" d="M194.21,37.81c-1.18,0-1.58.02-1.66.02-.12,0-.13-.01-.13-.13v-.98c0-.11.01-.12.13-.12.07,0,.48.02,1.66.02h1.52v-2.06h-2.3c-1.15,0-1.54.02-1.62.02-.12,0-.13-.01-.13-.13v-1c0-.12.01-.13.13-.13.08,0,.47.02,1.62.02h6.03c1.15,0,1.54-.02,1.61-.02.12,0,.13.01.13.13v1c0,.12-.01.13-.13.13-.07,0-.46-.02-1.61-.02h-2.39v2.06h1.66c1.17,0,1.58-.02,1.65-.02.12,0,.13.01.13.12v.98c0,.12-.01.13-.13.13-.07,0-.48-.02-1.65-.02h-1.66v2.42h3.08c1.07,0,1.43-.02,1.5-.02.12,0,.13.01.13.12v1.01c0,.12-.01.13-.13.13-.07,0-.43-.02-1.5-.02h-7.35c-1.08,0-1.44.02-1.51.02-.12,0-.13-.01-.13-.13v-1.01c0-.11.01-.12.13-.12.07,0,.43.02,1.51.02h2.93v-2.42h-1.52ZM195.31,30.9c.11-.11.12-.11.24-.07.84.34,1.73.73,2.58,1.28.06.04.08.06.08.1s-.02.07-.07.13l-.71.82c-.11.11-.14.12-.25.05-.8-.6-1.63-1.06-2.52-1.4-.06-.02-.1-.05-.1-.08s.04-.07.08-.13l.66-.68Z"/><path class="uuid-63cbf31a-cdbf-45e2-9de7-6bbd4274af3f" d="M208.86,36.92c-1.15,0-1.56.02-1.63.02-.12,0-.13-.01-.13-.13v-.04c-.12.18-.24.4-.32.62-.06.14-.1.22-.14.22-.04,0-.08-.06-.16-.19-.24-.43-.43-.92-.59-1.48.01,3.13.08,5.67.08,5.87,0,.12-.01.13-.13.13h-.95c-.12,0-.13-.01-.13-.13,0-.18.06-2.48.07-5.23-.24.9-.56,1.7-1.01,2.42-.07.12-.13.19-.18.19s-.08-.06-.12-.19c-.11-.35-.28-.71-.42-.9.72-1.01,1.32-2.24,1.65-3.75h-.13c-.79,0-1.03.02-1.1.02-.12,0-.13-.01-.13-.14v-.83c0-.13.01-.14.13-.14.07,0,.31.02,1.1.02h.18v-.71c0-.72-.01-1.13-.1-1.61.46.01.8.04,1.16.08.12.02.19.06.19.13,0,.1-.02.16-.07.25-.06.14-.07.34-.07,1.13v.72c.7,0,.92-.02,1-.02.11,0,.12.01.12.14v.83c0,.13-.01.14-.12.14-.07,0-.3-.02-.97-.02.28.8.67,1.58,1.15,2.22v-.55c0-.12.01-.13.13-.13.07,0,.48.02,1.63.02h.89v-.73h-.55c-1.07,0-1.43.02-1.5.02-.12,0-.13-.01-.13-.13v-.74c0-.13.01-.14.13-.14.07,0,.43.02,1.5.02h.55v-.72h-.72c-1.13,0-1.51.02-1.58.02-.12,0-.13-.01-.13-.12v-.77c0-.12.01-.13.13-.13.06,0,.4.02,1.25.02-.16-.34-.36-.72-.54-1.01-.07-.11-.05-.14.08-.2l.73-.28c.13-.05.14-.05.23.06.19.26.42.65.58.98.06.12.04.14-.11.2l-.65.24h1.79c.17-.32.36-.71.49-1.02.07-.18.11-.34.14-.53.4.07.71.14,1.03.24.12.04.19.08.19.17,0,.06-.04.12-.12.18s-.13.13-.17.22c-.11.22-.25.49-.41.74h.07c1.12,0,1.5-.02,1.57-.02.13,0,.14.01.14.13v.77c0,.11-.01.12-.14.12-.07,0-.46-.02-1.57-.02h-1.15v.72h.85c1.08,0,1.43-.02,1.5-.02.12,0,.13.01.13.14v.74c0,.12-.01.13-.13.13-.07,0-.42-.02-1.5-.02h-.85v.73h1.46c1.15,0,1.55-.02,1.62-.02.13,0,.13.01.13.13v.79c0,.12,0,.13-.13.13-.07,0-.47-.02-1.62-.02h-1.25c.23.48.48.91.77,1.32.26-.22.49-.43.77-.72.12-.13.2-.24.3-.42.29.19.53.37.77.59.08.07.13.13.13.2s-.05.12-.16.16c-.12.04-.2.1-.36.23-.23.22-.48.46-.82.73.53.54,1.15,1,1.91,1.42-.22.19-.42.42-.58.71-.1.17-.14.24-.2.24s-.13-.06-.26-.16c-1.1-.77-1.94-1.74-2.49-2.99.01,1.03.05,1.85.05,2.39s-.11.82-.38,1.02c-.23.17-.53.23-1.31.24q-.38,0-.47-.37c-.07-.29-.18-.54-.31-.77.37.04.58.05.85.05.36,0,.44-.08.44-.4v-.84c-.68.43-1.49.88-2.17,1.2-.19.1-.3.16-.37.24-.05.06-.12.11-.17.11s-.08-.04-.13-.13c-.13-.29-.26-.6-.42-1.02.26-.07.49-.14.7-.24.77-.32,1.75-.83,2.57-1.32v-1.46h-.89ZM208.48,38.78c-.12.12-.17.13-.24.04-.3-.41-.6-.7-1-1-.11-.07-.1-.11.01-.22l.46-.46c.12-.11.16-.11.25-.05.36.24.68.52,1.02.91.07.1.06.13-.04.23l-.47.54Z"/><path class="uuid-63cbf31a-cdbf-45e2-9de7-6bbd4274af3f" d="M221.9,33.66c-.28,2.04-.78,3.91-1.5,5.17-.52.9-1.14,1.38-2.04,1.38-1.06,0-2.12-1.13-2.12-3.08,0-1.15.49-2.25,1.36-3.12,1.01-1.01,2.28-1.54,3.9-1.54,2.88,0,4.57,1.77,4.57,4.16,0,2.23-1.26,3.63-3.69,4.37-.25.07-.36.02-.52-.22-.13-.2-.38-.48-.84-.76,2.03-.48,3.62-1.32,3.62-3.59,0-1.43-1.08-2.78-2.69-2.78h-.05ZM218.46,34.82c-.58.65-.94,1.45-.94,2.22,0,1.1.44,1.71.82,1.71.31,0,.58-.16.9-.73.53-.97,1.07-2.7,1.27-4.29-.84.17-1.51.5-2.05,1.09Z"/><path class="uuid-63cbf31a-cdbf-45e2-9de7-6bbd4274af3f" d="M230.81,35.75c-.6,0-1.2.01-1.8.05-.11,0-.16-.07-.18-.23-.07-.3-.1-.74-.13-1.21.68.07,1.42.1,2.21.1h4.11c.2,0,.44-.02.64-.13.06-.05.11-.07.16-.07.06,0,.12.04.18.08.29.23.61.53.8.74.08.08.12.17.12.25,0,.07-.04.16-.13.23-.19.16-.28.29-.41.56-1.2,2.55-2.58,4.05-4.89,5.3-.1.05-.17.08-.24.08-.08,0-.17-.05-.26-.14-.32-.29-.71-.47-1.12-.62,2.22-1.03,4.17-2.69,5.04-5h-4.09ZM231.62,33.17c-.54,0-1.14.01-1.64.05-.12,0-.16-.07-.17-.26-.04-.25-.06-.78-.06-1.15.73.07,1.09.08,1.97.08h2.16c.78,0,1.42-.04,1.88-.06.11,0,.14.06.14.19.02.3.02.64,0,.94,0,.2-.04.25-.22.24-.4,0-.96-.02-1.69-.02h-2.38Z"/><path class="uuid-63cbf31a-cdbf-45e2-9de7-6bbd4274af3f" d="M245.31,38.77c0,.83.01,1.54.04,2.49.01.16-.05.2-.18.2-.38.02-.82.02-1.2,0-.13,0-.18-.05-.17-.19.01-.86.05-1.64.05-2.46v-2.79c-1.06.89-2.34,1.8-3.3,2.3-.06.04-.12.05-.18.05-.1,0-.17-.04-.25-.12-.28-.28-.67-.52-1.03-.71,1.65-.85,2.67-1.55,3.78-2.46.95-.78,1.81-1.62,2.55-2.51.41-.48.56-.72.76-1.24.54.3,1.07.62,1.33.84.07.05.1.12.1.18,0,.1-.07.2-.17.26-.2.13-.4.31-.72.66-.47.56-.91,1.03-1.4,1.51v3.97Z"/><path class="uuid-63cbf31a-cdbf-45e2-9de7-6bbd4274af3f" d="M29.51,56.03c-.78,0-1.46.04-1.98.06-.16.01-.2-.07-.23-.24-.04-.24-.08-.86-.11-1.21.54.06,1.18.08,2.3.08h4.28c.36,0,.49-.02.66-.12.06-.04.12-.05.18-.05.07,0,.14.02.23.06.32.2.65.5.88.79.06.07.08.13.08.2,0,.11-.06.2-.17.3-.11.11-.17.23-.28.47-.59,1.42-1.32,2.73-2.33,3.9-1.03,1.18-2.19,2.17-3.41,2.85-.11.07-.22.11-.32.11-.1,0-.2-.04-.3-.13-.28-.26-.67-.48-1.12-.66,1.75-.89,2.82-1.72,3.92-3,.94-1.07,1.55-2.09,2.03-3.42h-4.33Z"/><path class="uuid-63cbf31a-cdbf-45e2-9de7-6bbd4274af3f" d="M44.2,54.68c.43,0,.65-.01.83-.11.05-.04.08-.05.13-.05.07,0,.13.05.2.1.28.22.55.53.78.84.04.06.06.11.06.16,0,.07-.05.16-.16.24-.16.13-.31.31-.44.53-.49.84-.96,1.51-1.54,2.24,1.15.85,2.22,1.79,3.32,2.9.06.06.1.12.1.17s-.02.11-.08.18c-.23.28-.5.56-.8.82-.05.05-.1.07-.14.07-.06,0-.11-.04-.17-.1-1.01-1.18-2.04-2.12-3.12-2.97-1.36,1.42-2.72,2.43-4.03,3.17-.11.05-.19.1-.28.1-.07,0-.14-.04-.2-.11-.26-.32-.61-.56-1.01-.78,1.87-.95,2.99-1.8,4.22-3.06.86-.9,1.52-1.75,2.25-3.01h-3.09c-.62.01-1.25.04-1.9.08-.1.01-.13-.07-.16-.2-.06-.25-.11-.83-.11-1.25.65.05,1.25.05,2.03.05h3.3Z"/><path class="uuid-63cbf31a-cdbf-45e2-9de7-6bbd4274af3f" d="M56.36,55.04c.35-.01.5-.08.66-.18.08-.06.14-.08.2-.08s.13.04.22.1c.26.16.6.48.82.73.07.07.1.14.1.22s-.04.14-.13.23c-.12.11-.24.23-.36.46-.52,1.02-1.08,2-1.76,2.9.49.4.95.82,1.3,1.21.05.05.07.11.07.17,0,.05-.02.11-.07.16-.17.2-.54.59-.74.76-.05.04-.1.06-.14.06-.04,0-.08-.02-.13-.07-.29-.34-.77-.82-1.16-1.16-1.22,1.32-2.46,2.25-3.83,3-.11.06-.2.11-.3.11-.07,0-.14-.04-.23-.11-.38-.31-.72-.47-1.14-.61,1.86-.95,3.06-1.81,4.41-3.25-.46-.37-1-.74-1.73-1.13.26-.29.52-.6.79-.85.05-.05.1-.08.16-.08.04,0,.07.02.12.05.43.2.96.55,1.55.96.58-.74,1.02-1.52,1.4-2.37l-2.97.06c-.98,1.26-1.76,2.09-2.57,2.7-.08.06-.16.11-.24.11-.06,0-.13-.02-.19-.08-.3-.22-.61-.38-1.01-.55,1.68-1.33,2.58-2.43,3.39-3.77.38-.65.54-.97.65-1.48.41.14,1.03.35,1.4.59.1.05.13.12.13.19,0,.08-.06.18-.14.24-.11.07-.19.17-.25.25-.1.17-.17.29-.37.6l2.11-.05Z"/><path class="uuid-63cbf31a-cdbf-45e2-9de7-6bbd4274af3f" d="M66.36,60.77c0,.83.01,1.54.04,2.49.01.16-.05.2-.18.2-.38.02-.82.02-1.2,0-.13,0-.18-.05-.17-.19.01-.86.05-1.64.05-2.46v-2.79c-1.06.89-2.34,1.8-3.3,2.3-.06.04-.12.05-.18.05-.1,0-.17-.04-.25-.12-.28-.28-.67-.52-1.03-.71,1.66-.85,2.67-1.55,3.78-2.46.95-.78,1.81-1.62,2.55-2.51.41-.48.56-.72.76-1.24.54.3,1.07.62,1.33.84.07.05.1.12.1.18,0,.1-.07.2-.17.26-.2.13-.4.31-.72.66-.47.56-.91,1.03-1.4,1.51v3.97Z"/><path class="uuid-63cbf31a-cdbf-45e2-9de7-6bbd4274af3f" d="M74.11,55.41c.2.06.23.2.16.37-.13.26-.14.53-.14.82-.02,1.5-.25,2.64-.65,3.53-.31.73-.84,1.51-1.7,2.25-.12.1-.22.16-.31.16-.07,0-.14-.04-.23-.1-.3-.2-.59-.35-1.02-.5.94-.71,1.57-1.44,1.99-2.39.34-.82.49-1.48.5-3.39,0-.46-.02-.65-.12-1.01.68.08,1.24.17,1.52.26ZM76.77,60.48c.59-.31,1.14-.68,1.7-1.12.72-.55,1.43-1.19,2.1-2.04.05.42.17.82.37,1.21.04.08.07.14.07.2,0,.08-.05.17-.18.3-.6.61-1.15,1.1-1.78,1.57-.62.48-1.29.95-2.13,1.44-.22.14-.24.17-.35.25-.07.06-.16.1-.24.1-.07,0-.16-.04-.25-.1-.26-.18-.54-.49-.72-.73-.07-.11-.11-.18-.11-.25,0-.06.01-.11.05-.18.08-.16.07-.3.07-.91v-3.75c0-1.04,0-1.54-.12-2.09.48.06,1.14.14,1.5.25.16.04.22.11.22.2,0,.07-.04.18-.1.3-.11.23-.11.47-.11,1.33v4.01Z"/><path class="uuid-63cbf31a-cdbf-45e2-9de7-6bbd4274af3f" d="M85.18,54.32c.2.11.28.18.28.29,0,.08-.02.12-.18.36-.12.22-.18.38-.29.85-.34,1.49-.5,2.96-.5,3.87,0,.59.02.98.07,1.4.25-.55.47-.95.82-1.79.1.3.25.49.42.76.04.06.08.13.08.18,0,.08-.02.13-.06.19-.28.62-.5,1.14-.68,1.81-.02.07-.04.2-.04.37,0,.14.02.24.02.34,0,.08-.05.13-.16.16-.3.08-.64.16-.98.19-.08.01-.13-.05-.16-.13-.34-.84-.55-2.36-.55-3.57,0-1.08.13-2.39.41-3.93.16-.89.22-1.28.22-1.79.54.13.92.25,1.28.44ZM87.75,59.97c.1-.01.12.05.12.18.07.83.65,1.13,1.96,1.13.9,0,1.49-.06,2.29-.16.12-.01.14,0,.17.16.04.25.07.72.07,1.03,0,.14,0,.16-.2.18-.82.1-1.39.13-1.95.13-1.78,0-2.6-.29-3.12-1-.3-.38-.42-1-.42-1.56l1.09-.1ZM87.07,55.48c.01-.14.05-.18.17-.2.71-.13,2.05-.22,2.6-.22.72,0,1.27.02,1.77.07.25.01.28.04.28.16,0,.36,0,.68-.02,1.02-.01.11-.05.16-.16.14-.72-.05-1.34-.07-1.96-.07-.8,0-1.58.07-2.72.28.01-.67.01-.97.04-1.18Z"/><path class="uuid-63cbf31a-cdbf-45e2-9de7-6bbd4274af3f" d="M97.05,56.92c-.7.54-1.44,1.01-2.22,1.42-.14.07-.22.12-.28.12-.08,0-.13-.08-.23-.3-.16-.32-.35-.59-.56-.8,2.21-1,3.63-2.24,4.62-3.67.22-.31.35-.54.47-.85.47.07.91.14,1.26.23.14.05.22.08.22.19,0,.06-.02.12-.12.18-.04.02-.07.05-.1.08,1.43,1.82,3.09,2.94,5.12,3.66-.2.25-.38.58-.5.91-.07.23-.12.31-.22.31-.06,0-.16-.04-.29-.11-.85-.38-1.63-.83-2.34-1.34v.84c0,.12-.01.13-.13.13-.07,0-.4-.02-1.36-.02h-1.86c-.96,0-1.27.02-1.35.02-.12,0-.13-.01-.13-.13v-.86ZM95.91,63.91c-.12,0-.13-.01-.13-.13,0-.07.02-.4.02-2.13v-1.03c0-1.03-.02-1.38-.02-1.45,0-.12.01-.13.13-.13.07,0,.49.02,1.64.02h3.84c1.15,0,1.57-.02,1.64-.02.13,0,.14.01.14.13,0,.07-.02.42-.02,1.27v1.18c0,1.73.02,2.05.02,2.11,0,.12-.01.13-.14.13h-1.02c-.12,0-.13-.01-.13-.13v-.4h-4.81v.46c0,.12-.01.13-.14.13h-1.02ZM97.07,62.23h4.81v-2.09h-4.81v2.09ZM100.39,56.78c.71,0,1.07-.01,1.24-.01-.86-.66-1.59-1.43-2.21-2.28-.62.86-1.37,1.61-2.18,2.27.14.01.48.02,1.3.02h1.86Z"/><path class="uuid-63cbf31a-cdbf-45e2-9de7-6bbd4274af3f" d="M109.08,57.88c1.48-.49,2.64-.73,3.5-.73,1.63,0,2.73,1.07,2.73,2.57,0,1.22-.58,2.07-1.72,2.69-.62.35-1.46.68-2.48.79-.22.04-.31-.01-.4-.17-.13-.24-.35-.5-.73-.79,1.4-.22,2.06-.42,2.89-.83.68-.36,1.08-.92,1.08-1.79s-.53-1.32-1.49-1.32c-.83,0-2.09.41-3.39.94-.3.13-.54.28-.67.37-.1.08-.17.12-.24.12-.11,0-.19-.07-.31-.22-.28-.35-.46-.77-.65-1.16.6-.1,1.19-.25,1.87-.47Z"/><path class="uuid-63cbf31a-cdbf-45e2-9de7-6bbd4274af3f" d="M123.46,55.11c.13-.04.18.02.19.12.04.26.07.61.08.86.01.16-.02.19-.18.23-.74.2-1.35.34-2.09.46-.82,2.66-1.43,4.5-2.19,6.49-.06.17-.13.16-.26.12-.12-.05-.71-.3-.96-.44-.1-.06-.13-.16-.1-.24.91-2.1,1.49-3.68,2.07-5.69-.7.07-1.54.13-2.1.13-.18,0-.23-.04-.25-.19-.05-.25-.11-.66-.17-1.09.25.04.4.04.89.04.6,0,1.25-.04,1.94-.12.12-.48.22-1.01.3-1.5.05-.36.07-.72.07-1.1.64.1,1.13.18,1.51.34.1.04.13.12.13.19,0,.05,0,.11-.06.19-.1.17-.19.29-.25.48-.12.43-.2.84-.29,1.14.47-.08,1.12-.24,1.7-.41ZM123,60.84c.12,0,.17.05.18.17.1.88.68,1.13,1.83,1.13.67,0,1.54-.11,2.02-.17.1-.01.13.01.14.11.05.31.1.72.1,1.04.01.14,0,.18-.19.19-.41.06-1.19.13-1.63.13-1.57,0-2.39-.22-2.93-.78-.38-.38-.52-.95-.54-1.64.37-.1.86-.18,1.02-.18ZM122.86,57.66c0-.17.04-.2.22-.24.76-.16,1.64-.28,2.34-.28.47,0,.98.05,1.4.12.17.02.2.04.2.18.02.3.02.64.01.96,0,.2-.06.25-.23.22-.42-.08-.97-.14-1.49-.14-.72,0-1.63.12-2.41.28-.02-.42-.05-.85-.05-1.09Z"/><path class="uuid-63cbf31a-cdbf-45e2-9de7-6bbd4274af3f" d="M135.35,56.87c-.28.2-.55.38-.82.54,1.07,1.31,1.57,2.77,1.57,4.25,0,1.68-.41,2.24-1.81,2.24-.2,0-.41,0-.62-.02q-.32-.02-.38-.32c-.08-.35-.19-.65-.35-.86.53.06,1,.07,1.25.07.5,0,.73-.14.73-1.15,0-.22-.01-.44-.04-.65-1.42,1.08-2.81,1.81-4.47,2.43-.14.05-.23.08-.29.08-.1,0-.14-.07-.24-.26-.18-.34-.31-.48-.56-.7,2.15-.62,3.79-1.44,5.33-2.65-.07-.19-.14-.38-.24-.58-1.16.77-2.39,1.32-3.79,1.81-.14.05-.23.08-.29.08-.08,0-.13-.07-.23-.25-.16-.28-.34-.49-.53-.67,1.83-.41,3.07-.97,4.37-1.8-.11-.17-.22-.34-.35-.5-.83.43-1.64.76-2.58,1.04-.35.1-.36.08-.49-.14-.19-.36-.31-.49-.55-.71,1.58-.34,2.75-.74,3.75-1.28h-.62c-1.14,0-1.54.02-1.61.02-.13,0-.14-.01-.14-.14v-.76c0-.13.01-.14.14-.14.07,0,.47.02,1.61.02h3.41c1.15,0,1.55-.02,1.62-.02.12,0,.13.01.13.14v.76c0,.13-.01.14-.13.14-.07,0-.47-.02-1.58-.02.16.65.35,1.24.59,1.76.23-.22.46-.44.74-.78.2-.23.38-.5.52-.72.37.25.64.46.88.67.13.1.18.17.18.24,0,.1-.08.16-.16.18-.16.06-.28.23-.53.48-.36.35-.73.68-1.08.96.65,1,1.52,1.8,2.7,2.48-.25.25-.47.49-.65.83-.11.19-.16.28-.24.28-.05,0-.12-.06-.25-.14-2.03-1.49-3.13-3.51-3.83-6.24h-.06ZM138.15,53.97c1.1,0,1.5-.02,1.58-.02.12,0,.13.01.13.13,0,.07-.02.28-.02.58v.49c0,1.02.02,1.21.02,1.28,0,.12-.01.13-.13.13h-.98c-.12,0-.13-.01-.13-.13v-1.42h-7.63v1.42c0,.12-.01.13-.13.13h-.98c-.12,0-.13-.01-.13-.13,0-.07.02-.26.02-1.28v-.4c0-.4-.02-.59-.02-.67,0-.12.01-.13.13-.13.08,0,.48.02,1.58.02h2.63v-.02c0-.4-.01-.72-.08-1.02.43.01.88.04,1.3.07.12.01.18.06.18.11,0,.08-.04.14-.07.24-.04.1-.06.25-.06.6v.02h2.81Z"/><path class="uuid-63cbf31a-cdbf-45e2-9de7-6bbd4274af3f" d="M143.96,56.45c1.85-.62,3.35-1,4.32-1,2.15,0,3.53,1.29,3.53,3.18,0,1.57-.68,2.57-2.11,3.33-1.01.56-1.94.76-3.05,1-.24.05-.34.04-.42-.19-.14-.34-.44-.7-.84-.95,1.58-.26,2.43-.49,3.25-.89,1.02-.52,1.66-1.28,1.66-2.39s-.73-1.82-2.06-1.82c-1.08,0-2.51.43-4.33,1.24-.38.19-.68.32-.83.43-.17.14-.26.18-.32.18-.12,0-.22-.07-.35-.25-.22-.26-.52-.73-.77-1.25.53-.06.97-.17,2.33-.62ZM150.47,53.91c.06-.05.11-.04.18.02.37.29.8.77,1.14,1.28.05.07.05.13-.04.19l-.5.37c-.08.06-.14.05-.2-.04-.36-.55-.74-1.01-1.21-1.39l.64-.44ZM151.54,53.13c.07-.05.11-.04.18.02.44.34.88.82,1.14,1.24.05.07.06.14-.04.22l-.48.37c-.1.07-.16.04-.2-.04-.32-.52-.71-.97-1.2-1.38l.6-.43Z"/><path class="uuid-63cbf31a-cdbf-45e2-9de7-6bbd4274af3f" d="M160.56,54.19c.06.05.1.14.1.19,0,.11-.06.18-.17.23-.14.07-.32.18-.58.42-1.03.92-2.35,2.16-3.27,3.12-.11.13-.16.2-.16.26,0,.07.05.13.16.22,1.56,1.13,3.18,2.43,4.46,3.78.05.06.08.11.08.16s-.02.08-.08.14c-.28.3-.62.65-.83.83-.07.06-.12.1-.17.1s-.08-.04-.14-.11c-1.39-1.56-2.73-2.81-4.37-4.05-.46-.35-.64-.61-.64-1.01s.22-.66.59-1.06c1.02-1.1,2.02-2.1,3.05-3.23.32-.35.5-.6.65-.9.53.31.98.62,1.32.91Z"/><path class="uuid-63cbf31a-cdbf-45e2-9de7-6bbd4274af3f" d="M166.67,53.79c.16.06.23.13.23.24,0,.07-.02.12-.08.19-.08.1-.14.26-.22.56-.17.82-.26,1.67-.34,2.29-.02.43-.06.89-.04,1.32.26-.47.52-.92.84-1.54.11.36.23.58.37.78.06.07.07.13.07.19,0,.1-.05.19-.12.3-.26.5-.54,1.01-.71,1.54-.04.11-.05.22-.06.36,0,.12-.05.17-.16.19-.14.04-.66.11-.96.14-.08.01-.14-.07-.17-.16-.19-.52-.36-1.44-.36-2.43,0-.8.13-1.79.29-2.99.05-.42.1-.83.1-1.37.54.11,1,.23,1.31.37ZM170.56,53.59c.24.06.26.12.24.32-.02.17-.02.38-.02.55.08,1.14.17,2.23.17,3.09,0,1.7-.28,3.18-.91,4.16-.47.74-1.22,1.45-1.98,1.93-.08.06-.17.08-.24.08-.08,0-.16-.04-.25-.13-.26-.23-.64-.44-1.02-.55.97-.54,1.56-.97,2.04-1.61.7-.95,1.01-1.93,1.01-3.83,0-.85-.06-2.1-.14-2.87-.06-.59-.12-.89-.25-1.31.53.02,1.02.05,1.37.14Z"/><path class="uuid-63cbf31a-cdbf-45e2-9de7-6bbd4274af3f" d="M180.26,61.29c0,.13-.07.19-.23.22-.16.02-.52.06-.85.06-.11,0-.16-.07-.16-.19,0-.43,0-1.03.01-1.46-1.07.55-1.45,1.02-1.45,1.6,0,.5.41.83,1.67.83,1.1,0,2.06-.11,2.99-.24.11-.01.16.02.17.13.06.28.11.7.11.98.01.14-.04.23-.13.23-1.03.13-1.81.16-2.97.16-1.97,0-3.01-.59-3.01-1.98,0-1.15.72-1.99,2.53-2.93-.04-.61-.18-.85-.72-.83-.56.02-1.1.38-1.66.86-.52.5-.82.85-1.2,1.31-.06.07-.1.11-.14.11-.04,0-.08-.04-.13-.08-.17-.17-.53-.54-.68-.79-.04-.05-.05-.08-.05-.11,0-.05.02-.08.08-.13.92-.83,1.81-1.77,2.51-2.97-.56.02-1.21.04-1.92.04-.11,0-.14-.06-.17-.19-.04-.19-.08-.64-.12-1,.91.05,1.85.04,2.76-.01.13-.32.24-.61.36-1.03.05-.2.08-.41.08-.73.53.08,1.06.22,1.37.34.1.04.14.12.14.2,0,.06-.02.13-.08.18-.07.06-.14.17-.2.29-.07.17-.13.32-.28.65.73-.08,1.46-.2,2.18-.37.13-.02.17.01.19.12.06.24.11.52.12.86.01.12-.04.17-.2.19-.9.13-1.93.26-2.81.36-.28.44-.54.89-.9,1.33v.02c.4-.25.89-.37,1.21-.37.79,0,1.34.36,1.46,1.3.47-.22,1.15-.53,1.76-.84.23-.12.61-.34.91-.65.4.42.71.84.84,1.06.07.11.1.19.1.26,0,.1-.06.14-.18.17-.25.04-.49.1-.73.18-.78.28-1.56.54-2.58.96v1.93Z"/><path class="uuid-63cbf31a-cdbf-45e2-9de7-6bbd4274af3f" d="M194.16,56.24c.59,0,1.26-.01,1.81-.04.14-.01.16.06.17.19.02.3.02.65,0,.95-.01.16-.04.2-.2.19-.41,0-1.14-.01-1.73-.01h-.49c-.07,1.72-.34,2.72-.92,3.69-.6,1-1.57,1.71-2.83,2.23-.17.07-.26.11-.34.11s-.13-.04-.23-.13c-.36-.37-.59-.54-1-.72,1.7-.53,2.63-1.14,3.24-2.12.47-.77.66-1.6.71-3.06h-2.55v.43c0,.71,0,1.36.04,1.99.01.13-.07.16-.2.17-.31.02-.71.02-1.03,0-.16-.01-.23-.04-.22-.17.04-.62.06-1.21.06-1.97v-.46h-.36c-.65,0-1.61.04-1.98.06-.1,0-.13-.07-.14-.23-.05-.25-.06-.67-.08-1.16.5.04,1.28.06,2.21.06h.36v-.88c0-.77-.02-1.07-.14-1.76.62.06,1.21.12,1.46.19.13.02.18.08.18.17,0,.07-.04.16-.07.25-.08.22-.08.34-.08,1.15v.88h2.58v-1.18c.02-.67-.01-1.22-.1-1.64.46.05,1.12.12,1.4.2.17.04.22.1.22.19,0,.05-.01.12-.05.22-.08.23-.1.54-.1,1.06v1.14h.42Z"/><path class="uuid-63cbf31a-cdbf-45e2-9de7-6bbd4274af3f" d="M200.94,58.8c.19.13.26.25.05.42-.12.1-.2.22-.3.41-.31.64-.84,1.47-1.33,2-.14.16-.24.19-.42.07-.35-.23-.68-.42-1.02-.5.7-.72,1.13-1.34,1.45-1.98.18-.32.26-.59.32-.97.49.16.95.36,1.25.55ZM202.54,55.5c0-.76-.02-1.31-.13-1.85.56.05,1.19.12,1.49.18.24.05.26.17.14.4-.11.2-.12.48-.12,1.2v.64h1.48c1.04,0,1.86-.05,2.45-.07.11-.01.16.06.16.19.01.31.01.62-.01.94-.01.16-.05.24-.17.23-.74-.02-1.66-.06-2.47-.06h-1.42v2.42c.01.64.04,1.15.04,2.09,0,.59-.22.98-.71,1.24-.38.22-1.03.38-1.54.4-.14,0-.22-.07-.29-.25-.18-.42-.43-.77-.8-1.08.82,0,1.34-.05,1.63-.14.19-.08.28-.22.28-.53v-4.14h-1.88c-.68,0-1.51.04-2.08.08-.11,0-.16-.1-.16-.24-.01-.22-.05-.76-.05-1.15.91.07,1.64.08,2.25.08h1.91v-.56ZM206.06,58.37c.14-.11.24-.07.34.05.59.5,1.16,1.28,1.71,2.2.11.18.07.26-.06.37-.19.18-.53.42-.8.6-.13.08-.19.11-.28-.05-.43-.8-1.09-1.77-1.82-2.52.32-.24.64-.44.91-.65ZM208.44,54.11c0,.72-.58,1.28-1.3,1.28s-1.29-.56-1.29-1.28.58-1.28,1.29-1.28,1.3.56,1.3,1.28ZM206.43,54.11c0,.41.3.71.71.71s.71-.3.71-.71-.3-.71-.71-.71-.71.3-.71.71Z"/><path class="uuid-63cbf31a-cdbf-45e2-9de7-6bbd4274af3f" d="M212.52,59.31c-1.19,0-1.64.14-1.76.14-.14,0-.24-.07-.28-.25-.06-.28-.13-.84-.18-1.45.78.12,1.38.14,2.59.14h3.86c.91,0,1.83-.02,2.76-.04.18-.01.22.02.22.17.02.36.02.77,0,1.13,0,.14-.05.19-.22.18-.9-.01-1.79-.02-2.67-.02h-4.32Z"/><path class="uuid-63cbf31a-cdbf-45e2-9de7-6bbd4274af3f" d="M225.32,56.85c1.46.46,2.63.92,3.81,1.63.13.07.19.16.13.31-.16.4-.35.77-.52,1.04-.05.08-.1.13-.16.13-.04,0-.08-.01-.13-.06-1.1-.71-2.18-1.24-3.15-1.54v2.65c0,.78.02,1.49.05,2.35.01.14-.05.18-.22.18-.35.02-.72.02-1.07,0-.17,0-.23-.04-.23-.18.04-.89.05-1.6.05-2.36v-5.9c0-.9-.04-1.3-.12-1.77.55.04,1.15.1,1.5.19.17.04.23.11.23.2,0,.07-.04.17-.1.28-.08.16-.08.46-.08,1.13v1.72Z"/><path class="uuid-63cbf31a-cdbf-45e2-9de7-6bbd4274af3f" d="M236.28,62.47c0,.96-.78,1.73-1.74,1.73s-1.74-.77-1.74-1.73.78-1.73,1.74-1.73,1.74.77,1.74,1.73ZM233.54,62.47c0,.56.43,1,1,1s1-.43,1-1-.43-1-1-1-1,.43-1,1Z"/><rect class="uuid-abd3d63c-d4aa-494e-841d-ded8cbf6611f" width="280" height="100"/></g></svg>