<?xml version="1.0" encoding="UTF-8"?><svg id="uuid-5ff09ebe-1c38-406a-95d3-775225d0dfc5" xmlns="http://www.w3.org/2000/svg" width="299.35" height="36.02" viewBox="0 0 299.35 36.02"><defs><style>.uuid-e47827d4-4ebd-40f1-81f6-37b831390069{stroke:#b11f3a;stroke-miterlimit:10;stroke-width:2px;}.uuid-e47827d4-4ebd-40f1-81f6-37b831390069,.uuid-3a7681e7-248c-4fcd-ac15-f30f677d6a2e{fill:none;}.uuid-dba43ef9-6e8c-4682-889d-276e9392db6d{fill:#1c1c1c;}</style></defs><g id="uuid-a088d556-6f65-42f7-86fe-68e3933a2c91"><path class="uuid-dba43ef9-6e8c-4682-889d-276e9392db6d" d="M109.47,20.2c0,.83.04,1.74.04,2.4,0,.52-.08.83-.38,1.12-.31.29-.72.35-1.99.35-.37,0-.4.01-.44-.37-.05-.35-.18-.77-.31-1.01.52.05.9.06,1.37.06.29,0,.42-.16.42-.42v-2.1h-4.28c-.23,1.67-.74,2.6-1.73,3.72-.12.13-.18.2-.25.2s-.14-.06-.28-.19c-.25-.25-.58-.44-.86-.56,1.58-1.48,1.98-2.5,1.98-6.14v-1.76c0-1.02-.02-1.56-.02-1.63,0-.13.01-.14.13-.14.08,0,.48.02,1.59.02h3.33c1.12,0,1.5-.02,1.58-.02.12,0,.13.01.13.14,0,.07-.02.61-.02,1.63v4.71ZM108.17,19.06v-1.52h-4.11c-.01.56-.02,1.07-.05,1.52h4.16ZM104.05,14.92v1.45h4.11v-1.45h-4.11Z"/><path class="uuid-dba43ef9-6e8c-4682-889d-276e9392db6d" d="M117.2,17.68c-.95,1.31-1.75,2.15-2.83,3.02-.11.07-.17.12-.24.12-.05,0-.1-.01-.14-.05-.28-.18-.59-.36-1.02-.47,1.78-1.39,3.03-2.97,3.91-4.55.38-.66.59-1.15.72-1.76.48.16.91.32,1.32.54.07.05.11.11.11.18s-.05.16-.11.2c-.13.11-.28.28-.36.41-.19.37-.5.89-.71,1.21l2.2-.06c.34-.01.49-.05.61-.12.05-.04.11-.05.16-.05.07,0,.16.02.24.08.2.12.52.37.74.6.07.08.11.17.11.25,0,.06-.03.12-.07.17-.14.14-.26.28-.41.58-.58,1.08-1.22,1.99-2.16,3,.39.35.77.74,1.13,1.19.06.07.1.12.1.17s-.04.1-.11.17c-.23.23-.49.46-.76.65-.06.05-.1.07-.13.07-.05,0-.08-.04-.13-.11-.97-1.27-2.03-2.15-3.35-3.01.26-.26.5-.52.76-.73.06-.06.1-.08.14-.08.04,0,.1.02.17.07.44.28.88.59,1.28.92.79-.88,1.33-1.59,1.82-2.69l-2.99.07Z"/><path class="uuid-dba43ef9-6e8c-4682-889d-276e9392db6d" d="M130.8,15.87c-.28,2.04-.78,3.91-1.5,5.17-.52.9-1.14,1.38-2.04,1.38-1.05,0-2.12-1.13-2.12-3.08,0-1.15.49-2.25,1.35-3.12,1.01-1.01,2.28-1.54,3.9-1.54,2.88,0,4.57,1.77,4.57,4.16,0,2.23-1.26,3.63-3.69,4.37-.25.07-.36.02-.52-.22-.13-.2-.38-.48-.84-.76,2.03-.48,3.62-1.32,3.62-3.59,0-1.43-1.08-2.78-2.69-2.78h-.05ZM127.36,17.03c-.58.65-.94,1.45-.94,2.22,0,1.1.44,1.71.82,1.71.31,0,.58-.16.9-.73.53-.97,1.07-2.7,1.27-4.29-.84.17-1.51.5-2.05,1.09Z"/><path class="uuid-dba43ef9-6e8c-4682-889d-276e9392db6d" d="M138.91,16.12c-1.08,0-1.45.02-1.52.02-.12,0-.13-.01-.13-.13v-.95c0-.13.01-.14.13-.14.07,0,.44.02,1.52.02h2.88v-.19c0-.68-.01-.98-.1-1.54.43.01.95.04,1.37.08.11.01.19.07.19.13,0,.1-.05.17-.08.25-.04.12-.07.32-.07.95v.31h3.06c1.08,0,1.45-.02,1.52-.02.12,0,.13.01.13.14v.95c0,.12-.01.13-.13.13-.07,0-.44-.02-1.52-.02h-3.06v1.49h1.75c.18,0,.29-.02.35-.05.05-.02.11-.05.16-.05.08,0,.18.07.48.37.28.26.37.41.37.52,0,.1-.06.13-.17.22-.11.08-.18.14-.29.32-.65,1.02-1.37,1.86-2.2,2.55,1.2.67,2.66,1.08,4.46,1.35-.19.25-.38.62-.52.96-.08.24-.12.31-.25.31-.06,0-.14-.01-.26-.04-1.85-.42-3.33-.97-4.54-1.77-1.2.75-2.63,1.32-4.34,1.76-.12.04-.2.05-.26.05-.12,0-.16-.08-.24-.31-.13-.34-.32-.65-.49-.85,1.76-.36,3.18-.8,4.33-1.44-.79-.74-1.44-1.64-1.94-2.77-.82.01-1.13.02-1.19.02-.12,0-.13-.01-.13-.13v-.92c0-.12.01-.13.13-.13.07,0,.47.02,1.63.02h1.86v-1.49h-2.88ZM140.87,18.75c.46.84,1.01,1.5,1.65,2.04.7-.55,1.28-1.22,1.78-2.04h-3.43Z"/><path class="uuid-dba43ef9-6e8c-4682-889d-276e9392db6d" d="M153.22,20.3c0,.84.01,1.82.01,2.42s-.07.92-.4,1.15c-.25.19-.61.24-1.43.24q-.38.01-.47-.36c-.08-.4-.19-.72-.32-.92.42.02.73.04,1,.04s.38-.12.38-.46v-2.35l-.82.24c-.22.07-.31.14-.38.18-.07.05-.14.08-.2.08-.07,0-.13-.05-.16-.14-.08-.34-.14-.74-.2-1.16.38-.04.77-.12,1.19-.24l.58-.16v-2.21h-.28c-.89,0-1.18.02-1.25.02-.12,0-.13-.01-.13-.13v-.94c0-.12.01-.13.13-.13.07,0,.36.02,1.25.02h.28v-.55c0-.77-.01-1.15-.1-1.7.46.01.85.04,1.27.08.12.01.19.06.19.13,0,.1-.04.17-.07.25-.07.14-.07.4-.07,1.21v.58h.06c.89,0,1.18-.02,1.25-.02.12,0,.13.01.13.13v.94c0,.12-.01.13-.13.13-.07,0-.36-.02-1.25-.02h-.06v1.83c.5-.17,1.02-.35,1.44-.53-.04.22-.06.52-.06.8-.01.4-.02.37-.37.52l-1.01.38v.64ZM158.86,18.69c.14-.06.18-.07.24.05.86,1.54,1.43,2.85,1.99,4.54.05.12.04.16-.11.22l-.92.36c-.16.06-.19.06-.22-.06-.11-.36-.2-.7-.31-1.02-1.49.32-3.18.6-4.75.82-.19.02-.35.08-.43.13-.07.05-.13.08-.21.08-.08,0-.13-.05-.18-.17-.1-.32-.19-.77-.29-1.25.37,0,.68-.02,1.07-.06.76-2.6,1.24-4.74,1.66-7.22.1-.55.16-.91.16-1.51.49.08.9.17,1.3.28.14.04.24.1.24.18s-.04.16-.08.23c-.08.12-.14.31-.22.65-.52,2.75-1.03,4.91-1.7,7.24,1.01-.14,2.06-.31,3.05-.52-.32-.82-.7-1.59-1.16-2.47-.06-.12-.04-.14.12-.22l.77-.29Z"/><path class="uuid-dba43ef9-6e8c-4682-889d-276e9392db6d" d="M164.67,15.28c.11.05.19.13.19.22,0,.07-.04.19-.1.34-.05.14-.11.66-.11,1.17,0,.77.02,1.63.22,2.73.17.95.48,1.76.98,1.76.38,0,.68-.42,1.15-1.67.26.42.53.7.77.92.14.13.14.28.08.44-.46,1.22-1.2,1.87-2.04,1.87-.94,0-1.92-1.1-2.24-3.13-.19-1.14-.29-2.39-.29-3.49,0-.66-.02-1.02-.14-1.57.58.07,1.16.22,1.52.4ZM170.24,16.04s.1-.05.13-.05c.05,0,.08.02.13.07,1.09.95,2.05,2.6,2.35,4.1.04.16-.04.2-.13.26-.31.2-.61.37-.94.48-.14.05-.23.01-.25-.13-.41-1.72-1.02-2.96-2.24-4.19.46-.29.75-.46.95-.55Z"/><path class="uuid-dba43ef9-6e8c-4682-889d-276e9392db6d" d="M177.84,14.29c.13.07.18.14.18.24,0,.08-.04.17-.08.26-.08.14-.13.31-.22.66-.4,1.81-.6,3.49-.6,4.37,0,.48,0,1.03.04,1.54.24-.55.49-1.07.74-1.67.17.38.26.55.42.76.05.06.07.11.07.17s-.02.12-.07.19c-.42.95-.56,1.48-.61,1.82-.05.34-.02.52-.01.64.01.08-.04.12-.14.16-.23.08-.58.16-.9.2-.13.04-.18.02-.24-.14-.34-.85-.52-2.28-.52-3.66,0-1.15.1-2.11.49-4.54.06-.42.13-.94.08-1.42.48.12,1.13.31,1.37.43ZM181.97,17.49c-.82.02-1.66.05-2.47-.01-.16,0-.2-.04-.22-.16-.05-.29-.08-.72-.08-1.09.9.08,1.83.1,2.73.04,0-.43-.01-.82-.01-1.26-.01-.43-.05-.74-.16-1.17.7.06,1.06.11,1.45.23.13.04.22.1.22.2,0,.06-.02.1-.07.2-.05.11-.08.26-.1.42-.02.41-.02.72-.02,1.27.56-.05,1.19-.13,1.7-.22.14-.04.17.01.19.14.05.22.07.6.07.85,0,.11-.05.17-.13.18-.43.11-1.22.2-1.85.25,0,1.34.02,2.18.08,3.21.71.29,1.32.62,1.99,1.15.11.07.12.11.06.24-.16.31-.35.65-.55.92-.04.05-.07.07-.11.07s-.07-.02-.11-.06c-.37-.35-.77-.65-1.3-.96-.1,1.01-.78,1.56-2.19,1.56s-2.15-.65-2.15-1.68.89-1.69,2.1-1.69c.31,0,.67.04.96.1-.02-.92-.04-1.8-.05-2.75ZM180.99,21.22c-.56,0-.9.2-.9.58s.26.6.97.6c.6,0,.98-.35.98-.78,0-.08,0-.14-.01-.24-.38-.12-.71-.16-1.04-.16Z"/><path class="uuid-dba43ef9-6e8c-4682-889d-276e9392db6d" d="M188.94,16.13c.23-1.61,1.38-2.57,3.15-2.57,1.87,0,3.08,1,3.08,2.53,0,.84-.36,1.54-1.43,2.43-1,.83-1.14,1.21-1.15,2.33h-1.24v-.29c0-1.19.25-1.73,1.1-2.58s1.09-1.28,1.09-1.89c0-.82-.56-1.33-1.45-1.33-.95,0-1.55.64-1.62,1.73l-1.55-.36ZM192.83,22.02v1.62h-1.7v-1.62h1.7Z"/><line class="uuid-e47827d4-4ebd-40f1-81f6-37b831390069" x1="66.52" y1="32.92" x2="49.71" y2="9.23"/><line class="uuid-e47827d4-4ebd-40f1-81f6-37b831390069" x1="229.3" y1="32.92" x2="246.11" y2="9.23"/><rect class="uuid-3a7681e7-248c-4fcd-ac15-f30f677d6a2e" width="299.35" height="36.02"/></g></svg>