<?xml version="1.0" encoding="UTF-8"?><svg id="uuid-f8159794-010c-478e-8338-c2288550aa5b" xmlns="http://www.w3.org/2000/svg" width="299.35" height="36.02" viewBox="0 0 299.35 36.02"><defs><style>.uuid-7ca2879e-5a3f-4bde-9857-6e917656359a{stroke:#b11f3a;stroke-miterlimit:10;stroke-width:2px;}.uuid-7ca2879e-5a3f-4bde-9857-6e917656359a,.uuid-4d88cd75-bb24-416a-9442-81ec95566335{fill:none;}.uuid-226d10c0-38d2-48e1-a3f7-2916b2003435{fill:#1c1c1c;}</style></defs><g id="uuid-a3f7ac99-3cc1-4bad-921e-97d21a9e9e71"><path class="uuid-226d10c0-38d2-48e1-a3f7-2916b2003435" d="M79.72,15.81c.16.04.18.06.17.19-.05.98-.14,1.88-.38,2.63-.04.12-.06.1-.19.05l-.6-.24c-.16-.06-.17-.12-.13-.24.22-.65.34-1.47.38-2.43,0-.12.02-.11.19-.07l.56.12ZM80.16,14.98c0-.85-.01-1.24-.1-1.81.46.01.86.04,1.26.08.12.01.19.06.19.12,0,.08-.02.16-.06.24-.06.16-.08.46-.08,1.33v6.97c0,1.36.02,2.04.02,2.11,0,.12-.01.13-.13.13h-1c-.12,0-.13-.01-.13-.13,0-.07.02-.76.02-2.1v-6.94ZM82.1,15.55c.13-.04.17-.04.22.07.18.47.37,1.03.48,1.52.04.13.02.17-.13.22l-.49.17c-.16.05-.19.06-.22-.07-.1-.55-.25-1.1-.43-1.57-.05-.13-.04-.14.12-.19l.46-.14ZM83.82,19.54c-1.18,0-1.57.02-1.64.02-.12,0-.13-.01-.13-.14v-.88c0-.12.01-.13.13-.13.07,0,.47.02,1.64.02h.79c.05-.6.07-1.28.08-2.06h-.3c-1.08,0-1.44.02-1.51.02-.12,0-.13-.01-.13-.13v-.89c0-.12.01-.13.13-.13.07,0,.43.02,1.51.02h.31v-.68c0-.68-.02-1-.08-1.4.42.01.85.04,1.27.08.12.01.2.07.2.14,0,.08-.04.13-.1.24-.05.12-.06.31-.06.73,0,.31-.01.61-.01.89h1.03c1.07,0,1.44-.02,1.51-.02.13,0,.14.01.14.13,0,.07-.02.37-.02,1.06v2c.61,0,.86-.02.92-.02.11,0,.12.01.12.13v.88c0,.13-.01.14-.12.14-.07,0-.48-.02-1.66-.02h-1.62c.59,1.47,1.81,2.7,3.6,3.41-.2.25-.4.56-.54.9-.1.2-.14.29-.23.29-.06,0-.13-.04-.25-.1-1.49-.77-2.69-2.09-3.35-3.74-.37,1.49-1.21,2.75-2.73,3.75-.13.08-.22.13-.28.13-.08,0-.13-.08-.24-.26-.18-.3-.37-.53-.61-.7,1.63-.8,2.59-2.11,2.85-3.68h-.65ZM87.38,18.44v-2.06h-1.46c-.01.83-.04,1.5-.08,2.06h1.55Z"/><path class="uuid-226d10c0-38d2-48e1-a3f7-2916b2003435" d="M94.78,21.59c.25.5.59.77,1.08.97.44.14,1.18.22,2.22.22,1.54,0,3.38-.08,5.18-.25-.16.25-.25.55-.3.88q-.06.38-.44.4c-1.54.1-3,.12-4.26.12s-2.22-.08-2.79-.32c-.55-.22-.94-.53-1.26-1.04-.34.36-.67.66-1.09,1.02-.13.11-.22.18-.28.25-.05.06-.07.08-.16.08-.06,0-.12-.05-.17-.14-.17-.31-.32-.68-.49-1.1.3-.14.47-.24.7-.4.34-.22.6-.46.9-.76v-2.66h-.49c-.62,0-.78.02-.84.02-.13,0-.14-.01-.14-.14v-.91c0-.12.01-.13.14-.13.06,0,.22.02.84.02h.68c.62,0,.8-.02.86-.02.12,0,.13.01.13.13,0,.07-.02.42-.02,1.16v2.62ZM93.09,13.59c.07-.05.11-.06.14-.06s.07.01.12.06c.53.49,1.06,1.09,1.49,1.75.07.11.07.13-.07.24l-.64.54c-.07.06-.12.1-.16.1s-.06-.02-.1-.08c-.44-.73-.96-1.37-1.48-1.88-.1-.08-.08-.12.05-.2l.64-.46ZM100,17.67c.48,0,.79-.02.86-.02.13,0,.14.01.14.13v.6c0,.12-.01.13-.14.13-.07,0-.38-.02-.86-.02h-.48v.65c.68,0,.88-.01.96-.01.12,0,.13.01.13.13,0,.07-.02.25-.02.76v1.2c.13.01.24.01.36.01.28,0,.34-.06.34-.34v-4.07h-4.47v3.81c0,1.01.02,1.43.02,1.5,0,.13-.01.14-.13.14h-.92c-.12,0-.13-.01-.13-.14,0-.07.02-.46.02-1.47v-3.24c0-.91-.02-1.32-.02-1.4,0-.12.01-.13.13-.13.08,0,.46.02,1.51.02-.12-.3-.28-.61-.42-.86-1.04,0-1.43.02-1.49.02-.13,0-.14-.01-.14-.13v-.74c0-.12.01-.13.14-.13.07,0,.48.02,1.68.02h1.31c0-.35-.02-.64-.07-.91.46.01.86.04,1.25.08.12.01.19.07.19.13,0,.1-.04.13-.08.2-.05.08-.06.18-.06.41v.08h1.51c1.16,0,1.57-.02,1.64-.02.12,0,.13.01.13.13v.74c0,.12-.01.13-.13.13-.07,0-.47-.02-1.57-.02l-.04.08c-.08.2-.18.46-.32.78,1.02,0,1.42-.02,1.49-.02.12,0,.13.01.13.13,0,.07-.02.56-.02,1.51v1.73c0,.73.04,1.45.04,1.83,0,.43-.07.72-.32.92-.24.19-.64.28-1.32.28-.29,0-.31-.01-.35-.28l-.07-.38c-.13-.01-.36-.02-.86-.02h-.98c-.66,0-.86.02-.94.02-.13,0-.14-.01-.14-.13,0-.07.02-.25.02-.76v-.73c0-.5-.02-.68-.02-.76,0-.12.01-.13.14-.13.07,0,.28.01.92.01v-.65h-.34c-.59,0-.91.02-.98.02-.12,0-.13-.01-.13-.13v-.6c0-.12.01-.13.13-.13.07,0,.4.02.98.02h.34c-.01-.25-.02-.44-.06-.7.36.01.7.04,1.01.07.11.01.16.05.16.12,0,.06-.04.11-.06.17-.04.08-.05.16-.05.34h.48ZM98.06,15.04c.13.26.28.56.38.86h1.22c.14-.31.26-.62.35-.86h-1.96ZM99.62,19.91h-1.18v.9h1.18v-.9Z"/><path class="uuid-226d10c0-38d2-48e1-a3f7-2916b2003435" d="M110.78,15.27c.11-.04.16-.04.18.1.06.3.1.66.11.97,0,.11-.05.13-.14.14-.65.13-1.24.22-1.98.32-.77,2.03-1.48,3.68-2.34,5.14-.05.08-.08.12-.13.12-.04,0-.08-.02-.14-.06-.28-.17-.62-.42-.83-.61-.06-.05-.08-.08-.08-.13,0-.04.01-.08.06-.14.9-1.49,1.54-2.75,2.08-4.19-.46.02-.83.02-1.2.02-.26,0-.36,0-.66-.01-.12,0-.14-.04-.17-.19-.06-.23-.1-.62-.12-1.02.49.04.77.05,1.12.05.47,0,.83-.01,1.38-.06.14-.5.23-.91.31-1.34.07-.42.07-.6.07-.97.52.07,1.03.14,1.4.25.12.02.19.1.19.18,0,.1-.04.16-.11.23-.07.1-.12.2-.19.44-.08.29-.18.66-.29,1.02.47-.05,1.02-.16,1.49-.26ZM111.12,18.49c-.01-.32-.02-.52-.1-.85.59.06.9.11,1.31.23.11.02.17.08.17.19,0,.02-.02.11-.07.25-.05.14-.06.29-.05.49,0,.71.04,1.22.13,2.04.86.35,1.45.61,2.16,1.12.12.08.13.13.07.25-.18.37-.35.67-.55.97-.04.06-.07.08-.11.08s-.07-.02-.12-.07c-.53-.46-.97-.72-1.46-1.01,0,1.2-.86,1.75-2.23,1.75s-2.21-.67-2.21-1.7.86-1.75,2.22-1.75c.23,0,.56.01.95.07-.07-.77-.1-1.5-.11-2.06ZM110.27,21.51c-.6,0-1.07.24-1.07.7,0,.38.34.58,1.02.58.65,0,1.04-.35,1.04-.85,0-.11,0-.17-.01-.24-.29-.1-.61-.18-.98-.18ZM112.5,15.74c.07-.12.13-.13.25-.08.71.19,1.66.67,2.35,1.13.07.05.11.08.11.13,0,.04-.01.08-.05.14-.12.26-.34.64-.5.89-.04.06-.07.08-.11.08s-.06-.01-.11-.05c-.71-.48-1.57-1.01-2.48-1.31.2-.36.38-.72.54-.94Z"/><path class="uuid-226d10c0-38d2-48e1-a3f7-2916b2003435" d="M119.63,21.4c-.43.23-.88.44-1.34.62-.13.06-.22.1-.28.1-.1,0-.14-.08-.28-.3-.16-.25-.34-.46-.52-.6,1.27-.32,2.13-.7,2.81-1.16h-.91c-1.07,0-1.43.02-1.5.02-.11,0-.12-.01-.12-.13v-.68c0-.12.01-.13.12-.13.07,0,.43.02,1.5.02h1.94c.16-.18.28-.36.37-.54h-.68c-1.16,0-1.57.02-1.65.02-.12,0-.13-.01-.13-.14,0-.07.02-.31.02-.91v-.97c0-.61-.02-.85-.02-.91,0-.13.01-.14.13-.14.08,0,.49.02,1.65.02h4.19c1.15,0,1.56-.02,1.64-.02.12,0,.13.01.13.14,0,.06-.02.3-.02.91v.97c0,.6.02.84.02.91,0,.13-.01.14-.13.14-.08,0-.49-.02-1.64-.02h-2.51l.1.02c.13.04.2.07.2.13,0,.07-.04.11-.13.16-.08.04-.16.11-.24.23h4.17c1.08,0,1.43-.02,1.51-.02.12,0,.13.01.13.13v.68c0,.12-.01.13-.13.13-.08,0-.43-.02-1.51-.02h-.98c.71.52,1.64.82,2.94,1.03-.17.2-.31.44-.44.72-.11.23-.14.3-.25.3-.06,0-.13-.02-.26-.06-.55-.17-1.04-.36-1.49-.6v.9c0,1.3.02,1.61.02,1.68,0,.12-.01.13-.13.13h-.9c-.12,0-.13-.01-.13-.13v-.26h-4.13v.3c0,.12-.01.13-.13.13h-.9c-.12,0-.13-.01-.13-.13,0-.07.02-.38.02-1.69v-.97ZM120.5,13.9c-.01-.26-.02-.53-.06-.73.38.01.82.04,1.14.07.11.01.17.05.17.11,0,.07-.04.12-.06.18-.02.06-.05.18-.06.37h2.35c-.01-.26-.02-.53-.06-.73.38.01.82.04,1.14.07.11.01.17.05.17.11,0,.07-.04.12-.06.18-.02.06-.05.18-.06.37h1.4c1.07,0,1.44-.02,1.51-.02.12,0,.13.01.13.13v.73c0,.13-.01.14-.13.14-.07,0-.44-.02-1.51-.02h-1.4c.01.19.02.3.02.35,0,.12-.01.13-.14.13h-.89c-.13,0-.14-.01-.14-.13,0-.05.01-.16.01-.35h-2.34c.01.19.02.3.02.35,0,.12-.01.13-.14.13h-.89c-.13,0-.14-.01-.14-.13,0-.05.01-.16.01-.35h-1.32c-1.07,0-1.44.02-1.51.02-.12,0-.13-.01-.13-.14v-.73c0-.12.01-.13.13-.13.07,0,.44.02,1.51.02h1.33ZM120.19,16.3v.48h5.3v-.48h-5.3ZM125.49,17.43h-5.3v.49h5.3v-.49ZM120.77,21.3v.52h4.13v-.52h-4.13ZM124.9,23.01v-.52h-4.13v.52h4.13ZM124.74,20.56c-.18-.16-.36-.32-.53-.5h-2.64c-.18.17-.38.35-.6.5h3.77Z"/><path class="uuid-226d10c0-38d2-48e1-a3f7-2916b2003435" d="M133.31,16.49c.13.06.19.13.19.23,0,.06-.02.12-.06.18-.11.19-.19.41-.24.64-.12.61-.24,1.5-.29,2.18,1.1-1.12,2.54-1.9,4.01-1.9,1.75,0,2.79,1.02,2.79,2.57,0,1.31-.78,2.17-1.81,2.69-.8.41-2.04.7-3.07.83-.26.04-.37.02-.48-.16-.23-.41-.44-.73-.82-1.02,1.34-.08,2.49-.31,3.3-.67.97-.42,1.42-1.04,1.42-1.81,0-.65-.41-1.24-1.44-1.24s-2.33.68-3.45,1.82c-.22.22-.37.42-.52.66-.07.12-.12.12-.28.08-.28-.1-.56-.2-.82-.32-.12-.05-.17-.07-.17-.24.07-1.39.23-2.81.37-3.87.05-.36.11-.67.11-1.08.47.13.97.28,1.25.43ZM133.61,13.46c.06-.06.13-.1.23-.06.89.35,1.63.8,2.35,1.43.06.05.08.08.08.13,0,.04-.02.08-.06.14-.16.25-.41.6-.61.84-.05.06-.1.1-.13.1-.05,0-.08-.02-.14-.08-.67-.59-1.48-1.14-2.42-1.56.29-.43.52-.74.71-.94Z"/><path class="uuid-226d10c0-38d2-48e1-a3f7-2916b2003435" d="M145.45,13.98c.2.05.29.11.29.23,0,.13-.07.28-.12.4-.06.17-.11.54-.17,1.46-.12,1.85-.18,3.07-.18,4.64,0,1.21.14,1.49,1.1,1.49,1.07,0,2.73-.65,4.2-2.21.05.46.16.85.28,1.14.06.13.1.22.1.29,0,.11-.05.2-.24.37-1.3,1.19-2.99,1.8-4.55,1.8s-2.25-.61-2.25-2.45c0-2.01.11-3.74.17-5.18.02-.71.06-1.48-.12-2.2.55.06,1.13.12,1.5.22Z"/><path class="uuid-226d10c0-38d2-48e1-a3f7-2916b2003435" d="M159.94,21.5c0,.13-.07.19-.23.22-.16.02-.52.06-.85.06-.11,0-.16-.07-.16-.19,0-.43,0-1.03.01-1.46-1.07.55-1.45,1.02-1.45,1.6,0,.5.41.83,1.67.83,1.1,0,2.06-.11,2.99-.24.11-.01.16.02.17.13.06.28.11.7.11.98.01.14-.04.23-.13.23-1.03.13-1.81.16-2.97.16-1.97,0-3.01-.59-3.01-1.98,0-1.15.72-1.99,2.53-2.93-.04-.61-.18-.85-.72-.83-.56.02-1.1.38-1.66.86-.52.5-.82.85-1.2,1.31-.06.07-.1.11-.14.11-.04,0-.08-.04-.13-.08-.17-.17-.53-.54-.68-.79-.04-.05-.05-.08-.05-.11,0-.05.02-.08.08-.13.92-.83,1.81-1.77,2.51-2.97-.56.02-1.21.04-1.92.04-.11,0-.14-.06-.17-.19-.04-.19-.08-.64-.12-1,.91.05,1.85.04,2.76-.01.13-.32.24-.61.36-1.03.05-.2.08-.41.08-.73.53.08,1.06.22,1.37.34.1.04.14.12.14.2,0,.06-.02.13-.08.18-.07.06-.14.17-.2.29-.07.17-.13.32-.28.65.73-.08,1.46-.2,2.18-.37.13-.02.17.01.19.12.06.24.11.52.12.86.01.12-.04.17-.2.19-.9.13-1.93.26-2.81.36-.28.44-.54.89-.9,1.33v.02c.4-.25.89-.37,1.21-.37.79,0,1.34.36,1.46,1.3.47-.22,1.15-.53,1.76-.84.23-.12.61-.34.91-.65.4.42.71.84.84,1.05.07.11.1.19.1.26,0,.1-.06.14-.18.17-.25.04-.49.1-.73.18-.78.28-1.56.54-2.58.96v1.93Z"/><path class="uuid-226d10c0-38d2-48e1-a3f7-2916b2003435" d="M169.93,18.08c0,2.3.02,2.72.02,2.79,0,.12-.01.13-.13.13h-.92c-.12,0-.13-.01-.13-.13v-.64h-1.23v1.19c0,.12-.01.13-.13.13h-.94c-.12,0-.13-.01-.13-.13,0-.08.02-.54.02-3v-1.74c0-1.75-.02-2.22-.02-2.3,0-.12.01-.13.13-.13.08,0,.32.02,1.09.02h1.18c.78,0,1.02-.02,1.09-.02.12,0,.13.01.13.13,0,.07-.02.52-.02,1.89v1.8ZM167.53,15.43v3.65h1.23v-3.65h-1.23ZM172.82,14.99c0-.85-.01-1.22-.1-1.81.47.01.96.04,1.37.08.12.01.19.06.19.12,0,.08-.04.17-.06.25-.06.17-.08.44-.08,1.32v2.16h1c1.13,0,1.51-.02,1.58-.02.12,0,.13.01.13.13v1.02c0,.12-.01.13-.13.13-.07,0-.46-.02-1.58-.02h-1v3.57c0,1.37.02,2.05.02,2.11,0,.12-.01.13-.13.13h-1.09c-.13,0-.14-.01-.14-.13,0-.07.02-.74.02-2.1v-3.59h-.74c-1.13,0-1.51.02-1.58.02-.12,0-.13-.01-.13-.13v-1.02c0-.12.01-.13.13-.13.07,0,.46.02,1.58.02h.74v-2.12Z"/><path class="uuid-226d10c0-38d2-48e1-a3f7-2916b2003435" d="M182.4,16.85c.92-.14,1.6-.28,2.09-.38.2-.06.32-.1.48-.19.11-.06.16-.08.26-.08.07,0,.11.02.2.08.22.13.49.36.71.64.08.08.13.2.13.28,0,.11-.07.2-.22.28-.17.08-.25.17-.38.28-.89.84-1.38,1.34-2.18,2.21.16-.05.31-.06.43-.06.56,0,1.1.36,1.31,1.21.24.98.43,1.18,1.32,1.18.71,0,1.27-.08,1.86-.22.13-.02.19.05.22.18.05.25.08.66.08,1.06,0,.12-.06.17-.22.19-.53.1-1.19.16-1.76.16-1.76,0-2.34-.47-2.59-1.66-.19-.82-.34-1.15-.76-1.15-.31,0-.68.17-1.13.6-.54.55-1.42,1.61-1.82,2.11-.04.05-.1.08-.17.08-.04,0-.08-.01-.13-.05-.31-.22-.62-.52-.84-.73-.04-.04-.06-.08-.06-.12,0-.06.04-.13.1-.19.77-.78,1.5-1.52,2.27-2.3.47-.48,1.09-1.18,2.37-2.55-.9.24-1.7.43-2.49.64-.37.11-.55.17-.65.22-.1.05-.17.07-.25.07s-.14-.06-.2-.2c-.16-.3-.3-.74-.48-1.34,1.03,0,1.51-.05,2.51-.2ZM185.75,14.29c.12.02.17.1.13.26-.07.29-.22.74-.32.98-.04.1-.11.16-.2.13-1.06-.2-2.46-.62-3.35-1.01-.07-.02-.14-.08-.11-.22.07-.28.23-.67.41-1.12,1.2.44,2.29.73,3.44.96Z"/><path class="uuid-226d10c0-38d2-48e1-a3f7-2916b2003435" d="M197.35,15.32c.13-.04.18.02.19.12.04.26.07.61.08.86.01.16-.02.19-.18.23-.74.2-1.35.34-2.09.46-.82,2.66-1.43,4.5-2.19,6.49-.06.17-.13.16-.26.12-.12-.05-.71-.3-.96-.44-.1-.06-.13-.16-.1-.24.91-2.1,1.49-3.68,2.07-5.69-.7.07-1.54.13-2.1.13-.18,0-.23-.04-.25-.19-.05-.25-.11-.66-.17-1.09.25.04.4.04.89.04.6,0,1.25-.04,1.94-.12.12-.48.22-1.01.3-1.5.05-.36.07-.72.07-1.1.64.1,1.13.18,1.51.34.1.04.13.12.13.19,0,.05,0,.11-.06.19-.1.17-.19.29-.25.48-.12.43-.2.84-.29,1.14.47-.08,1.12-.24,1.7-.41ZM196.88,21.05c.12,0,.17.05.18.17.1.88.68,1.13,1.83,1.13.67,0,1.54-.11,2.02-.17.1-.01.13.01.14.11.05.31.1.72.1,1.04.01.14,0,.18-.19.19-.41.06-1.19.13-1.63.13-1.57,0-2.39-.22-2.93-.78-.38-.38-.52-.95-.54-1.64.37-.1.86-.18,1.02-.18ZM196.75,17.87c0-.17.04-.2.22-.24.76-.16,1.64-.28,2.34-.28.47,0,.98.05,1.4.12.17.02.2.04.2.18.02.3.02.63.01.96,0,.2-.06.25-.23.22-.42-.08-.97-.14-1.49-.14-.72,0-1.63.12-2.41.28-.02-.42-.05-.85-.05-1.09Z"/><path class="uuid-226d10c0-38d2-48e1-a3f7-2916b2003435" d="M205.59,15.28c.11.05.19.13.19.22,0,.07-.04.19-.1.34-.05.14-.11.66-.11,1.17,0,.77.02,1.63.22,2.73.17.95.48,1.76.98,1.76.38,0,.68-.42,1.15-1.67.26.42.53.7.77.92.14.13.14.28.08.44-.46,1.22-1.2,1.87-2.04,1.87-.94,0-1.92-1.1-2.24-3.13-.19-1.14-.29-2.39-.29-3.49,0-.66-.02-1.02-.14-1.57.58.07,1.16.22,1.52.4ZM211.16,16.04s.1-.05.13-.05c.05,0,.08.02.13.07,1.09.95,2.05,2.6,2.35,4.1.04.16-.04.2-.13.26-.31.2-.61.37-.94.48-.14.05-.23.01-.25-.13-.41-1.72-1.02-2.96-2.24-4.19.46-.29.76-.46.95-.55Z"/><path class="uuid-226d10c0-38d2-48e1-a3f7-2916b2003435" d="M219.94,20.86h-1.21l-.34-7.14h1.87l-.32,7.14ZM220.17,22.02v1.62h-1.7v-1.62h1.7Z"/><line class="uuid-7ca2879e-5a3f-4bde-9857-6e917656359a" x1="69.21" y1="32.92" x2="52.4" y2="9.23"/><line class="uuid-7ca2879e-5a3f-4bde-9857-6e917656359a" x1="231.99" y1="32.92" x2="248.79" y2="9.23"/><rect class="uuid-4d88cd75-bb24-416a-9442-81ec95566335" width="299.35" height="36.02"/></g></svg>