<?xml version="1.0" encoding="UTF-8"?><svg id="uuid-1cbc5b02-fc6b-4b46-8abf-e4e21119ebbc" xmlns="http://www.w3.org/2000/svg" width="280" height="150" viewBox="0 0 280 150"><defs><style>.uuid-2bbd9254-ee56-449f-b565-7f7f57a7e6f3{stroke:#b11f3a;stroke-miterlimit:10;stroke-width:2px;}.uuid-2bbd9254-ee56-449f-b565-7f7f57a7e6f3,.uuid-8aab27a2-0670-4211-b161-9f1b6e7c38a9{fill:none;}</style></defs><g id="uuid-09c66093-f418-47b3-814f-0090e8870fad"><path class="uuid-2bbd9254-ee56-449f-b565-7f7f57a7e6f3" d="M180.71,58.01v-13.3s17.67,0,17.67,0c-1.11-3.18-2.92-6.18-5.46-8.73-9.04-9.04-23.71-9.04-32.75,0-6.49,6.49-8.3,15.88-5.47,24l-4.83,4.83"/><path class="uuid-2bbd9254-ee56-449f-b565-7f7f57a7e6f3" d="M197.75,61.65c-1.12,2.57-2.72,4.98-4.82,7.09-6.49,6.49-15.88,8.3-24,5.47l-4.37,4.37"/><polyline class="uuid-2bbd9254-ee56-449f-b565-7f7f57a7e6f3" points="139.23 37.48 116.7 29.44 81.61 64.53 96.9 79.81 108.96 67.75 172.68 131.47"/><line class="uuid-2bbd9254-ee56-449f-b565-7f7f57a7e6f3" x1="186.83" y1="117.2" x2="123.18" y2="53.54"/><line class="uuid-2bbd9254-ee56-449f-b565-7f7f57a7e6f3" x1="134.9" y1="108.31" x2="111.73" y2="131.47"/><line class="uuid-2bbd9254-ee56-449f-b565-7f7f57a7e6f3" x1="97.54" y1="117.24" x2="120.69" y2="94.09"/><rect class="uuid-8aab27a2-0670-4211-b161-9f1b6e7c38a9" width="280" height="150"/></g></svg>