<?xml version="1.0" encoding="utf-8"?>
<svg xmlns="http://www.w3.org/2000/svg" version="1.1" viewBox="0 0 1920 399.74">
  <defs>
    <style>
      /* TOPアニメーション 文字 ------- */
      .text_box-small{fill:#1c1c1c;}
      .text-one{opacity:0;animation:text_bg 1s forwards;animation-delay:1.4s;}
      .text-one{transform:translate(0,20px);}
      .text-one:nth-of-type(1){animation-delay:1.4s;}
      .text-one:nth-of-type(2){animation-delay:1.8s;}
      .text-one:nth-of-type(3){animation-delay:2.3s;}
      .text-one:nth-of-type(4){animation-delay:2.6s;}
      .text-one:nth-of-type(5){animation-delay:2.8s;}
      .text-one:nth-of-type(6){animation-delay:3.0s;}
      @keyframes text_bg{
      100%{opacity:1;transform:translate(0,0);}
      }
    </style>
  </defs>
  <g class="text_box-small">
    <g class="text-one">
      <path
        d="M1129.98,127.23h-1.8v-1.68h2.02l.36-2.44h-1.8v-1.68h2.02l.6-4.18h1.76l-.6,4.18h2.06l.6-4.18h1.74l-.6,4.18h1.8v1.68h-2.04l-.34,2.44h1.8v1.68h-2l-.62,4.18h-1.74l.6-4.18h-2.08l-.6,4.18h-1.74l.6-4.18h0ZM1132.3,123.11l-.34,2.44h2.06l.34-2.44h-2.06Z" />
      <path
        d="M1140.75,124.29c0-1.13.19-2.16.57-3.07.38-.91.91-1.69,1.58-2.33.67-.64,1.47-1.13,2.4-1.48s1.94-.52,3.03-.52,2.13.17,3.06.52c.93.35,1.74.84,2.42,1.48.68.64,1.21,1.42,1.59,2.33.38.91.57,1.94.57,3.07s-.19,2.12-.57,3.03c-.38.91-.91,1.7-1.59,2.36-.68.66-1.49,1.17-2.42,1.54s-1.95.55-3.06.55-2.1-.18-3.03-.55-1.73-.88-2.4-1.54-1.2-1.45-1.58-2.36-.57-1.92-.57-3.03ZM1143.49,124.29c0,.76.12,1.46.35,2.09s.57,1.18,1,1.65c.43.47.95.83,1.54,1.09.59.26,1.25.39,1.97.39s1.38-.13,1.98-.39,1.12-.62,1.55-1.09c.43-.47.77-1.02,1-1.65s.35-1.33.35-2.09-.12-1.41-.35-2.04-.56-1.17-.99-1.64c-.43-.47-.94-.83-1.54-1.1-.6-.27-1.27-.4-2-.4s-1.4.13-1.99.4-1.1.63-1.53,1.1-.76,1.01-.99,1.64-.35,1.31-.35,2.04Z" />
      <path
        d="M1159.25,121.81h2.3v1.6h.04c.27-.56.64-1.01,1.12-1.36s1.04-.52,1.68-.52h.3c.11,0,.2.02.28.05v2.2c-.16-.04-.3-.07-.41-.08s-.22-.02-.33-.02c-.55,0-.99.1-1.32.3s-.59.44-.78.72c-.19.28-.31.57-.38.86s-.1.53-.1.7v5.14h-2.4v-9.6h0Z" />
      <path
        d="M1177.22,131.41h-2.28v-1.44h-.04c-.33.56-.8.99-1.39,1.28-.59.29-1.23.44-1.91.44-.73,0-1.39-.14-1.97-.41-.58-.27-1.07-.64-1.48-1.1-.41-.46-.72-1-.94-1.62s-.33-1.28-.33-1.99.11-1.37.34-1.98.55-1.15.96-1.6c.41-.45.91-.81,1.48-1.07s1.2-.39,1.88-.39c.44,0,.83.05,1.18.15.35.1.65.22.91.37s.48.31.67.48c.19.17.34.34.46.5h.06v-6.74h2.4v15.12h0ZM1169.32,126.57c0,.37.06.75.17,1.12s.28.71.51,1,.51.53.86.72c.35.19.75.28,1.22.28.44,0,.83-.09,1.18-.27.35-.18.64-.42.89-.71.25-.29.43-.62.56-.99s.19-.74.19-1.11-.06-.75-.19-1.12c-.13-.37-.31-.71-.56-1s-.54-.53-.89-.72c-.35-.19-.74-.28-1.18-.28-.47,0-.87.09-1.22.27s-.63.42-.86.71c-.23.29-.4.62-.51.99s-.17.74-.17,1.11Z" />
      <path
        d="M1190.16,126.73v.32c0,.11,0,.21-.02.32h-7.3c.03.35.12.66.27.95.15.29.36.53.61.74.25.21.54.37.86.49s.65.18,1,.18c.6,0,1.11-.11,1.52-.33.41-.22.75-.52,1.02-.91l1.6,1.28c-.95,1.28-2.32,1.92-4.12,1.92-.75,0-1.43-.12-2.06-.35s-1.17-.56-1.63-.99-.82-.95-1.08-1.57-.39-1.32-.39-2.11.13-1.48.39-2.11.62-1.17,1.07-1.62.99-.79,1.61-1.04,1.29-.37,2.01-.37c.67,0,1.28.11,1.85.33.57.22,1.06.55,1.47.98.41.43.74.97.97,1.62s.35,1.4.35,2.27h0ZM1187.76,125.65c0-.31-.04-.6-.13-.88s-.22-.53-.41-.74c-.19-.21-.42-.38-.71-.51-.29-.13-.62-.19-1.01-.19-.72,0-1.33.22-1.83.65-.5.43-.78.99-.83,1.67h4.92,0Z" />
      <path
        d="M1193.37,121.81h2.3v1.6h.04c.27-.56.64-1.01,1.12-1.36s1.04-.52,1.68-.52h.3c.11,0,.2.02.28.05v2.2c-.16-.04-.3-.07-.41-.08s-.22-.02-.33-.02c-.55,0-.99.1-1.32.3s-.59.44-.78.72c-.19.28-.31.57-.38.86s-.1.53-.1.7v5.14h-2.4v-9.6h0Z" />
      <path
        d="M1213.04,121.53c.63,0,1.16.11,1.61.33.45.22.81.51,1.1.87.29.36.5.77.63,1.24s.2.95.2,1.44v6h-2.4v-5.32c0-.28-.02-.57-.06-.88s-.13-.58-.26-.83-.32-.45-.55-.61c-.23-.16-.54-.24-.93-.24s-.69.08-.96.24-.49.37-.66.62-.3.54-.38.85-.12.62-.12.93v5.24h-2.4v-5.8c0-.6-.14-1.1-.43-1.49s-.74-.59-1.35-.59c-.36,0-.67.08-.94.23-.27.15-.48.35-.65.59-.17.24-.29.52-.38.83s-.13.63-.13.95v5.28h-2.4v-9.6h2.28v1.54h.04c.11-.24.25-.47.43-.68s.39-.41.64-.58c.25-.17.53-.31.85-.41s.67-.15,1.06-.15c.75,0,1.37.17,1.86.5s.87.77,1.14,1.32c.32-.59.75-1.04,1.28-1.35s1.16-.47,1.88-.47h0Z" />
      <path
        d="M1226.21,130.19h-.06c-.24.43-.63.78-1.16,1.05-.53.27-1.14.41-1.82.41-.39,0-.79-.05-1.21-.15-.42-.1-.81-.27-1.16-.5s-.65-.54-.88-.92-.35-.85-.35-1.41c0-.72.2-1.29.61-1.72s.93-.75,1.57-.98c.64-.23,1.35-.38,2.13-.45s1.54-.11,2.29-.11v-.24c0-.6-.22-1.04-.65-1.33-.43-.29-.95-.43-1.55-.43-.51,0-.99.11-1.46.32s-.85.47-1.16.78l-1.24-1.46c.55-.51,1.18-.89,1.89-1.14s1.44-.38,2.17-.38c.85,0,1.56.12,2.11.36.55.24.99.55,1.31.94.32.39.54.82.67,1.3s.19.96.19,1.44v5.84h-2.24v-1.22h0ZM1226.17,127.03h-.54c-.39,0-.79.02-1.22.05-.43.03-.82.11-1.18.22-.36.11-.66.27-.9.48-.24.21-.36.49-.36.85,0,.23.05.42.15.57s.23.28.39.37c.16.09.34.16.54.2.2.04.4.06.6.06.83,0,1.45-.22,1.88-.66s.64-1.04.64-1.8v-.34h0Z" />
      <path
        d="M1241.91,131.41h-2.28v-1.44h-.04c-.33.56-.8.99-1.39,1.28-.59.29-1.23.44-1.91.44-.73,0-1.39-.14-1.97-.41-.58-.27-1.07-.64-1.48-1.1-.41-.46-.72-1-.94-1.62s-.33-1.28-.33-1.99.11-1.37.34-1.98.55-1.15.96-1.6c.41-.45.91-.81,1.48-1.07s1.2-.39,1.88-.39c.44,0,.83.05,1.18.15.35.1.65.22.91.37s.48.31.67.48c.19.17.34.34.46.5h.06v-6.74h2.4v15.12h0ZM1234.01,126.57c0,.37.06.75.17,1.12s.28.71.51,1,.51.53.86.72c.35.19.75.28,1.22.28.44,0,.83-.09,1.18-.27.35-.18.64-.42.89-.71.25-.29.43-.62.56-.99s.19-.74.19-1.11-.06-.75-.19-1.12c-.13-.37-.31-.71-.56-1s-.54-.53-.89-.72c-.35-.19-.74-.28-1.18-.28-.47,0-.87.09-1.22.27s-.63.42-.86.71c-.23.29-.4.62-.51.99s-.17.74-.17,1.11Z" />
      <path
        d="M1254.85,126.73v.32c0,.11,0,.21-.02.32h-7.3c.03.35.12.66.27.95.15.29.36.53.61.74.25.21.54.37.86.49s.65.18,1,.18c.6,0,1.11-.11,1.52-.33.41-.22.75-.52,1.02-.91l1.6,1.28c-.95,1.28-2.32,1.92-4.12,1.92-.75,0-1.43-.12-2.06-.35s-1.17-.56-1.63-.99-.82-.95-1.08-1.57-.39-1.32-.39-2.11.13-1.48.39-2.11.62-1.17,1.07-1.62.99-.79,1.61-1.04,1.29-.37,2.01-.37c.67,0,1.28.11,1.85.33.57.22,1.06.55,1.47.98.41.43.74.97.97,1.62s.35,1.4.35,2.27h0ZM1252.45,125.65c0-.31-.04-.6-.13-.88s-.22-.53-.41-.74c-.19-.21-.42-.38-.71-.51-.29-.13-.62-.19-1.01-.19-.72,0-1.33.22-1.83.65-.5.43-.78.99-.83,1.67h4.92,0Z" />
    </g>
    <g class="text-one">
      <path
        d="M1129.98,163.23h-1.8v-1.68h2.02l.36-2.44h-1.8v-1.68h2.02l.6-4.18h1.76l-.6,4.18h2.06l.6-4.18h1.74l-.6,4.18h1.8v1.68h-2.04l-.34,2.44h1.8v1.68h-2l-.62,4.18h-1.74l.6-4.18h-2.08l-.6,4.18h-1.74l.6-4.18h0ZM1132.3,159.11l-.34,2.44h2.06l.34-2.44h-2.06Z" />
      <path
        d="M1141.45,153.25h4.92c.67,0,1.31.07,1.94.21.63.14,1.18.37,1.67.69s.88.74,1.17,1.26.44,1.15.44,1.9c0,1.03-.29,1.86-.87,2.51s-1.37,1.08-2.37,1.31l3.78,6.28h-3.04l-3.28-6h-1.84v6h-2.52v-14.16h0ZM1146.03,159.35c.36,0,.72-.03,1.08-.08s.68-.15.97-.3c.29-.15.52-.36.71-.63s.28-.62.28-1.05c0-.39-.09-.7-.26-.95s-.39-.44-.66-.59-.57-.25-.91-.3c-.34-.05-.67-.08-.99-.08h-2.28v3.98h2.06Z" />
      <path
        d="M1163.78,162.73v.32c0,.11,0,.21-.02.32h-7.3c.03.35.12.66.27.95.15.29.36.53.61.74.25.21.54.37.86.49s.65.18,1,.18c.6,0,1.11-.11,1.52-.33.41-.22.75-.52,1.02-.91l1.6,1.28c-.95,1.28-2.32,1.92-4.12,1.92-.75,0-1.43-.12-2.06-.35s-1.17-.56-1.63-.99-.82-.95-1.08-1.57-.39-1.32-.39-2.11.13-1.48.39-2.11.62-1.17,1.07-1.62.99-.79,1.61-1.04,1.29-.37,2.01-.37c.67,0,1.28.11,1.85.33.57.22,1.06.55,1.47.98.41.43.74.97.97,1.62s.35,1.4.35,2.27h0ZM1161.38,161.65c0-.31-.04-.6-.13-.88s-.22-.53-.41-.74c-.19-.21-.42-.38-.71-.51-.29-.13-.62-.19-1.01-.19-.72,0-1.33.22-1.83.65-.5.43-.78.99-.83,1.67h4.92,0Z" />
      <path
        d="M1172.86,166.19h-.06c-.24.43-.63.78-1.16,1.05-.53.27-1.14.41-1.82.41-.39,0-.79-.05-1.21-.15-.42-.1-.81-.27-1.16-.5s-.65-.54-.88-.92-.35-.85-.35-1.41c0-.72.2-1.29.61-1.72s.93-.75,1.57-.98c.64-.23,1.35-.38,2.13-.45s1.54-.11,2.29-.11v-.24c0-.6-.22-1.04-.65-1.33-.43-.29-.95-.43-1.55-.43-.51,0-.99.11-1.46.32s-.85.47-1.16.78l-1.24-1.46c.55-.51,1.18-.89,1.89-1.14s1.44-.38,2.17-.38c.85,0,1.56.12,2.11.36.55.24.99.55,1.31.94.32.39.54.82.67,1.3s.19.96.19,1.44v5.84h-2.24v-1.22h0ZM1172.82,163.03h-.54c-.39,0-.79.02-1.22.05-.43.03-.82.11-1.18.22-.36.11-.66.27-.9.48-.24.21-.36.49-.36.85,0,.23.05.42.15.57s.23.28.39.37c.16.09.34.16.54.2.2.04.4.06.6.06.83,0,1.45-.22,1.88-.66s.64-1.04.64-1.8v-.34h0Z" />
      <path
        d="M1188.56,167.41h-2.28v-1.44h-.04c-.33.56-.8.99-1.39,1.28-.59.29-1.23.44-1.91.44-.73,0-1.39-.14-1.97-.41-.58-.27-1.07-.64-1.48-1.1-.41-.46-.72-1-.94-1.62s-.33-1.28-.33-1.99.11-1.37.34-1.98.55-1.15.96-1.6c.41-.45.91-.81,1.48-1.07s1.2-.39,1.88-.39c.44,0,.83.05,1.18.15.35.1.65.22.91.37s.48.31.67.48c.19.17.34.34.46.5h.06v-6.74h2.4v15.12h0ZM1180.66,162.57c0,.37.06.75.17,1.12s.28.71.51,1,.51.53.86.72c.35.19.75.28,1.22.28.44,0,.83-.09,1.18-.27.35-.18.64-.42.89-.71.25-.29.43-.62.56-.99s.19-.74.19-1.11-.06-.75-.19-1.12c-.13-.37-.31-.71-.56-1s-.54-.53-.89-.72c-.35-.19-.74-.28-1.18-.28-.47,0-.87.09-1.22.27s-.63.42-.86.71c-.23.29-.4.62-.51.99s-.17.74-.17,1.11Z" />
      <path
        d="M1191.02,157.81h2.66l2.68,6.98h.04l2.38-6.98h2.5l-4.54,11.66c-.17.44-.36.83-.56,1.17-.2.34-.44.63-.72.86s-.61.41-.99.53c-.38.12-.84.18-1.37.18-.2,0-.4,0-.61-.03-.21-.02-.42-.06-.63-.11l.2-2.08c.16.05.32.09.47.11s.3.03.43.03c.25,0,.47-.03.64-.09s.32-.15.44-.28.23-.28.32-.47c.09-.19.19-.41.3-.66l.48-1.22-4.12-9.6Z" />
      <path d="M1207.8,163.51h-4.8v-2.04h4.8v2.04Z" />
      <path
        d="M1213.59,152.29v6.74h.06c.12-.16.27-.33.46-.5s.41-.33.67-.48c.26-.15.56-.27.91-.37s.74-.15,1.18-.15c.68,0,1.31.13,1.88.39s1.07.62,1.48,1.07.73.99.96,1.6.34,1.27.34,1.98-.11,1.37-.33,1.99-.53,1.16-.94,1.62-.9.83-1.48,1.1c-.58.27-1.24.41-1.97.41-.68,0-1.32-.15-1.91-.44-.59-.29-1.06-.72-1.39-1.28h-.04v1.44h-2.28v-15.12h2.4,0ZM1219.09,162.57c0-.37-.06-.74-.17-1.11s-.28-.7-.51-.99-.51-.53-.86-.71-.75-.27-1.22-.27c-.44,0-.83.09-1.18.28-.35.19-.64.43-.89.72s-.43.63-.56,1-.19.75-.19,1.12.06.74.19,1.11c.13.37.31.7.56.99s.54.53.89.71.74.27,1.18.27c.47,0,.87-.09,1.22-.28s.63-.43.86-.72.4-.63.51-1,.17-.75.17-1.12Z" />
      <path
        d="M1233.49,167.41h-2.28v-1.54h-.04c-.21.48-.58.9-1.11,1.27s-1.15.55-1.87.55c-.63,0-1.16-.11-1.61-.33-.45-.22-.81-.51-1.1-.87-.29-.36-.5-.77-.63-1.24s-.2-.95-.2-1.44v-6h2.4v5.32c0,.28.02.57.06.88s.13.58.26.83.32.45.55.61c.23.16.54.24.93.24s.7-.08.99-.23c.29-.15.52-.35.7-.59.18-.24.32-.52.41-.83.09-.31.14-.63.14-.95v-5.28h2.4v9.6h0Z" />
      <path
        d="M1236.91,154.55c0-.39.14-.72.43-1.01.29-.29.65-.43,1.09-.43s.81.14,1.11.41c.3.27.45.62.45,1.03s-.15.76-.45,1.03c-.3.27-.67.41-1.11.41s-.8-.14-1.09-.43c-.29-.29-.43-.62-.43-1.01ZM1237.25,157.81h2.4v9.6h-2.4v-9.6Z" />
      <path d="M1243.42,152.29h2.4v15.12h-2.4v-15.12Z" />
      <path
        d="M1248.35,159.73v-1.92h1.68v-2.78h2.36v2.78h2.4v1.92h-2.4v4.46c0,.43.08.78.23,1.06.15.28.5.42,1.03.42.16,0,.33-.02.52-.05.19-.03.35-.08.5-.15l.08,1.88c-.21.08-.47.14-.76.19s-.57.07-.84.07c-.64,0-1.16-.09-1.56-.27s-.72-.43-.95-.74-.39-.67-.48-1.08c-.09-.41-.13-.84-.13-1.31v-4.48h-1.68Z" />
    </g>
    <g class="text-one">
      <path
        d="M1129.98,199.23h-1.8v-1.68h2.02l.36-2.44h-1.8v-1.68h2.02l.6-4.18h1.76l-.6,4.18h2.06l.6-4.18h1.74l-.6,4.18h1.8v1.68h-2.04l-.34,2.44h1.8v1.68h-2l-.62,4.18h-1.74l.6-4.18h-2.08l-.6,4.18h-1.74l.6-4.18h0ZM1132.3,195.11l-.34,2.44h2.06l.34-2.44h-2.06Z" />
      <path
        d="M1141.45,189.25h5.02c.92,0,1.85.12,2.78.36s1.77.64,2.52,1.19,1.35,1.28,1.82,2.18c.47.9.7,2.02.7,3.35,0,1.24-.23,2.31-.7,3.2s-1.07,1.63-1.82,2.2-1.59,1-2.52,1.27-1.86.41-2.78.41h-5.02v-14.16ZM1146.07,201.21c.65,0,1.31-.08,1.96-.23.65-.15,1.24-.41,1.77-.78.53-.37.96-.86,1.29-1.49.33-.63.5-1.42.5-2.38,0-1.01-.17-1.84-.5-2.48-.33-.64-.76-1.14-1.29-1.5s-1.12-.61-1.77-.74-1.31-.2-1.96-.2h-2.1v9.8h2.1Z" />
      <path
        d="M1166.61,198.73v.32c0,.11,0,.21-.02.32h-7.3c.03.35.12.66.27.95.15.29.36.53.61.74.25.21.54.37.86.49s.65.18,1,.18c.6,0,1.11-.11,1.52-.33.41-.22.75-.52,1.02-.91l1.6,1.28c-.95,1.28-2.32,1.92-4.12,1.92-.75,0-1.43-.12-2.06-.35s-1.17-.56-1.63-.99-.82-.95-1.08-1.57-.39-1.32-.39-2.11.13-1.48.39-2.11.62-1.17,1.07-1.62.99-.79,1.61-1.04,1.29-.37,2.01-.37c.67,0,1.28.11,1.85.33.57.22,1.06.55,1.47.98.41.43.74.97.97,1.62s.35,1.4.35,2.27h0ZM1164.21,197.65c0-.31-.04-.6-.13-.88s-.22-.53-.41-.74c-.19-.21-.42-.38-.71-.51-.29-.13-.62-.19-1.01-.19-.72,0-1.33.22-1.83.65-.5.43-.78.99-.83,1.67h4.92,0Z" />
      <path
        d="M1175.12,196.37c-.21-.28-.51-.52-.88-.73-.37-.21-.78-.31-1.22-.31-.39,0-.74.08-1.06.24-.32.16-.48.43-.48.8s.18.64.53.79c.35.15.87.31,1.55.47.36.08.72.19,1.09.32s.7.31,1,.53c.3.22.54.49.73.82s.28.72.28,1.19c0,.59-.11,1.08-.33,1.49s-.51.74-.88.99-.79.44-1.28.55-.99.17-1.51.17c-.75,0-1.47-.14-2.18-.41-.71-.27-1.29-.66-1.76-1.17l1.58-1.48c.27.35.61.63,1.04.86s.9.34,1.42.34c.17,0,.35-.02.53-.06s.35-.1.5-.19.28-.2.37-.35c.09-.15.14-.33.14-.54,0-.4-.18-.69-.55-.86s-.92-.35-1.65-.52c-.36-.08-.71-.18-1.05-.31-.34-.13-.64-.29-.91-.5s-.48-.46-.64-.77-.24-.69-.24-1.14c0-.53.11-.99.33-1.38s.51-.7.87-.95.77-.43,1.22-.55.92-.18,1.4-.18c.69,0,1.37.12,2.03.36s1.18.61,1.57,1.1l-1.56,1.38h0Z" />
      <path
        d="M1179.42,190.55c0-.39.14-.72.43-1.01.29-.29.65-.43,1.09-.43s.81.14,1.11.41c.3.27.45.62.45,1.03s-.15.76-.45,1.03c-.3.27-.67.41-1.11.41s-.8-.14-1.09-.43c-.29-.29-.43-.62-.43-1.01ZM1179.76,193.81h2.4v9.6h-2.4v-9.6Z" />
      <path
        d="M1195.65,193.81v8.74c0,.87-.11,1.65-.32,2.35-.21.7-.54,1.29-.99,1.78-.45.49-1.01.86-1.69,1.13-.68.27-1.49.4-2.42.4-.39,0-.8-.03-1.23-.1-.43-.07-.86-.17-1.28-.3s-.82-.3-1.21-.5-.73-.43-1.04-.68l1.38-1.86c.47.44.99.78,1.58,1.01s1.18.35,1.78.35,1.06-.08,1.45-.25c.39-.17.71-.4.94-.69s.4-.64.5-1.04c.1-.4.15-.84.15-1.33v-.7h-.04c-.35.47-.79.83-1.33,1.08-.54.25-1.14.37-1.81.37-.72,0-1.37-.13-1.96-.4s-1.08-.63-1.49-1.08-.72-.98-.95-1.59c-.23-.61-.34-1.25-.34-1.93s.11-1.35.33-1.96c.22-.61.53-1.15.94-1.6.41-.45.9-.81,1.48-1.08s1.23-.4,1.95-.4c.68,0,1.31.14,1.9.42.59.28,1.05.71,1.4,1.3h.04v-1.44h2.28ZM1190.53,195.49c-.44,0-.83.08-1.17.24-.34.16-.63.38-.86.65s-.41.59-.54.97c-.13.37-.19.77-.19,1.2,0,.39.06.76.19,1.12.13.36.31.68.54.97s.52.51.86.69c.34.17.72.26,1.15.26s.84-.08,1.19-.25.65-.39.9-.67c.25-.28.44-.6.57-.97s.2-.75.2-1.15-.07-.8-.2-1.18c-.13-.37-.32-.7-.57-.98-.25-.28-.54-.5-.89-.66s-.74-.24-1.18-.24h0Z" />
      <path
        d="M1199.38,193.81h2.28v1.54h.04c.21-.48.58-.9,1.11-1.27s1.15-.55,1.87-.55c.63,0,1.16.11,1.61.33.45.22.81.51,1.1.87.29.36.5.77.63,1.24s.2.95.2,1.44v6h-2.4v-5.32c0-.28-.02-.57-.06-.88s-.13-.58-.26-.83-.32-.45-.55-.61c-.23-.16-.54-.24-.93-.24s-.72.08-1,.23c-.28.15-.51.35-.69.59-.18.24-.32.52-.41.83-.09.31-.14.63-.14.95v5.28h-2.4v-9.6h0Z" />
    </g>
    <g class="text-one">
      <path
        d="M1129.98,235.23h-1.8v-1.68h2.02l.36-2.44h-1.8v-1.68h2.02l.6-4.18h1.76l-.6,4.18h2.06l.6-4.18h1.74l-.6,4.18h1.8v1.68h-2.04l-.34,2.44h1.8v1.68h-2l-.62,4.18h-1.74l.6-4.18h-2.08l-.6,4.18h-1.74l.6-4.18h0ZM1132.3,231.11l-.34,2.44h2.06l.34-2.44h-2.06Z" />
      <path
        d="M1151.65,228.57c-.37-.51-.86-.88-1.46-1.11s-1.19-.35-1.76-.35c-.73,0-1.4.13-2,.4s-1.12.63-1.55,1.1-.77,1.01-1,1.64-.35,1.31-.35,2.04c0,.77.11,1.48.34,2.12s.55,1.19.97,1.65c.42.46.92.82,1.51,1.07s1.25.38,1.98.38,1.43-.15,2.02-.45,1.06-.7,1.42-1.19l2.02,1.42c-.63.79-1.39,1.4-2.3,1.83s-1.97.65-3.18.65c-1.11,0-2.12-.18-3.05-.55s-1.72-.88-2.39-1.54-1.19-1.45-1.56-2.36c-.37-.91-.56-1.92-.56-3.03s.2-2.16.59-3.07c.39-.91.93-1.69,1.62-2.33s1.5-1.13,2.43-1.48,1.95-.52,3.04-.52c.45,0,.93.04,1.42.13s.97.22,1.42.4.88.4,1.28.67c.4.27.74.59,1.02.96l-1.92,1.52h0Z" />
      <path
        d="M1155.67,234.57c0-.76.14-1.45.41-2.07s.64-1.15,1.11-1.59,1.02-.78,1.66-1.02,1.32-.36,2.04-.36,1.4.12,2.04.36,1.19.58,1.66,1.02c.47.44.84.97,1.11,1.59.27.62.41,1.31.41,2.07s-.14,1.45-.41,2.08-.64,1.16-1.11,1.61-1.02.8-1.66,1.05-1.32.38-2.04.38-1.4-.13-2.04-.38-1.19-.6-1.66-1.05-.84-.98-1.11-1.61-.41-1.32-.41-2.08ZM1158.11,234.57c0,.37.06.75.17,1.12s.28.71.51,1,.51.53.86.72c.35.19.76.28,1.24.28s.89-.09,1.24-.28.63-.43.86-.72.4-.63.51-1,.17-.75.17-1.12-.06-.74-.17-1.11-.28-.7-.51-.99-.51-.53-.86-.71-.76-.27-1.24-.27-.89.09-1.24.27-.63.42-.86.71c-.23.29-.4.62-.51.99s-.17.74-.17,1.11Z" />
      <path
        d="M1174.56,232.37c-.21-.28-.51-.52-.88-.73-.37-.21-.78-.31-1.22-.31-.39,0-.74.08-1.06.24-.32.16-.48.43-.48.8s.18.64.53.79c.35.15.87.31,1.55.47.36.08.72.19,1.09.32s.7.31,1,.53c.3.22.54.49.73.82s.28.72.28,1.19c0,.59-.11,1.08-.33,1.49s-.51.74-.88.99-.79.44-1.28.55-.99.17-1.51.17c-.75,0-1.47-.14-2.18-.41-.71-.27-1.29-.66-1.76-1.17l1.58-1.48c.27.35.61.63,1.04.86s.9.34,1.42.34c.17,0,.35-.02.53-.06s.35-.1.5-.19.28-.2.37-.35c.09-.15.14-.33.14-.54,0-.4-.18-.69-.55-.86s-.92-.35-1.65-.52c-.36-.08-.71-.18-1.05-.31-.34-.13-.64-.29-.91-.5s-.48-.46-.64-.77-.24-.69-.24-1.14c0-.53.11-.99.33-1.38s.51-.7.87-.95.77-.43,1.22-.55.92-.18,1.4-.18c.69,0,1.37.12,2.03.36s1.18.61,1.57,1.1l-1.56,1.38h0Z" />
      <path
        d="M1178.19,231.73v-1.92h1.68v-2.78h2.36v2.78h2.4v1.92h-2.4v4.46c0,.43.08.78.23,1.06.15.28.5.42,1.03.42.16,0,.33-.02.52-.05.19-.03.35-.08.5-.15l.08,1.88c-.21.08-.47.14-.76.19s-.57.07-.84.07c-.64,0-1.16-.09-1.56-.27s-.72-.43-.95-.74-.39-.67-.48-1.08c-.09-.41-.13-.84-.13-1.31v-4.48h-1.68Z" />
      <path
        d="M1187.57,225.25h4.62c.81,0,1.55.07,2.2.22.65.15,1.21.39,1.68.72.47.33.83.76,1.08,1.28s.38,1.15.38,1.88c0,.79-.15,1.45-.44,1.98-.29.53-.69.96-1.19,1.29-.5.33-1.08.56-1.75.71s-1.37.22-2.12.22h-1.94v5.86h-2.52v-14.16h0ZM1191.85,231.43c.41,0,.81-.03,1.18-.09s.71-.17,1-.32.53-.36.7-.63c.17-.27.26-.61.26-1.04s-.09-.75-.26-1.01-.4-.46-.69-.61c-.29-.15-.61-.24-.98-.29s-.74-.07-1.13-.07h-1.84v4.06h1.76,0Z" />
      <path
        d="M1209.12,234.73v.32c0,.11,0,.21-.02.32h-7.3c.03.35.12.66.27.95.15.29.36.53.61.74.25.21.54.37.86.49s.65.18,1,.18c.6,0,1.11-.11,1.52-.33.41-.22.75-.52,1.02-.91l1.6,1.28c-.95,1.28-2.32,1.92-4.12,1.92-.75,0-1.43-.12-2.06-.35s-1.17-.56-1.63-.99-.82-.95-1.08-1.57-.39-1.32-.39-2.11.13-1.48.39-2.11.62-1.17,1.07-1.62.99-.79,1.61-1.04,1.29-.37,2.01-.37c.67,0,1.28.11,1.85.33.57.22,1.06.55,1.47.98.41.43.74.97.97,1.62s.35,1.4.35,2.27h0ZM1206.72,233.65c0-.31-.04-.6-.13-.88s-.22-.53-.41-.74c-.19-.21-.42-.38-.71-.51-.29-.13-.62-.19-1.01-.19-.72,0-1.33.22-1.83.65-.5.43-.78.99-.83,1.67h4.92,0Z" />
      <path
        d="M1212.32,229.81h2.3v1.6h.04c.27-.56.64-1.01,1.12-1.36s1.04-.52,1.68-.52h.3c.11,0,.2.02.28.05v2.2c-.16-.04-.3-.07-.41-.08s-.22-.02-.33-.02c-.55,0-.99.1-1.32.3s-.59.44-.78.72c-.19.28-.31.57-.38.86s-.1.53-.1.7v5.14h-2.4v-9.6h0Z" />
      <path
        d="M1221.65,231.73h-1.82v-1.92h1.82v-1.42c0-.57.06-1.12.19-1.65.13-.53.34-.99.64-1.39s.7-.72,1.19-.95c.49-.23,1.11-.35,1.86-.35.27,0,.49.01.67.03s.36.06.55.11l-.16,2.04c-.13-.04-.28-.07-.43-.1-.15-.03-.32-.04-.49-.04-.35,0-.63.07-.84.2s-.38.31-.49.52-.19.45-.23.7-.06.5-.06.74v1.56h2.22v1.92h-2.22v7.68h-2.4v-7.68h0Z" />
      <path
        d="M1228.13,234.57c0-.76.14-1.45.41-2.07s.64-1.15,1.11-1.59,1.02-.78,1.66-1.02,1.32-.36,2.04-.36,1.4.12,2.04.36,1.19.58,1.66,1.02c.47.44.84.97,1.11,1.59.27.62.41,1.31.41,2.07s-.14,1.45-.41,2.08-.64,1.16-1.11,1.61-1.02.8-1.66,1.05-1.32.38-2.04.38-1.4-.13-2.04-.38-1.19-.6-1.66-1.05-.84-.98-1.11-1.61-.41-1.32-.41-2.08ZM1230.57,234.57c0,.37.06.75.17,1.12s.28.71.51,1,.51.53.86.72c.35.19.76.28,1.24.28s.89-.09,1.24-.28.63-.43.86-.72.4-.63.51-1,.17-.75.17-1.12-.06-.74-.17-1.11-.28-.7-.51-.99-.51-.53-.86-.71-.76-.27-1.24-.27-.89.09-1.24.27-.63.42-.86.71c-.23.29-.4.62-.51.99s-.17.74-.17,1.11Z" />
      <path
        d="M1241.75,229.81h2.3v1.6h.04c.27-.56.64-1.01,1.12-1.36s1.04-.52,1.68-.52h.3c.11,0,.2.02.28.05v2.2c-.16-.04-.3-.07-.41-.08s-.22-.02-.33-.02c-.55,0-.99.1-1.32.3s-.59.44-.78.72c-.19.28-.31.57-.38.86s-.1.53-.1.7v5.14h-2.4v-9.6h0Z" />
      <path
        d="M1261.42,229.53c.63,0,1.16.11,1.61.33.45.22.81.51,1.1.87.29.36.5.77.63,1.24s.2.95.2,1.44v6h-2.4v-5.32c0-.28-.02-.57-.06-.88s-.13-.58-.26-.83-.32-.45-.55-.61c-.23-.16-.54-.24-.93-.24s-.69.08-.96.24-.49.37-.66.62-.3.54-.38.85-.12.62-.12.93v5.24h-2.4v-5.8c0-.6-.14-1.1-.43-1.49s-.74-.59-1.35-.59c-.36,0-.67.08-.94.23-.27.15-.48.35-.65.59-.17.24-.29.52-.38.83s-.13.63-.13.95v5.28h-2.4v-9.6h2.28v1.54h.04c.11-.24.25-.47.43-.68s.39-.41.64-.58c.25-.17.53-.31.85-.41s.67-.15,1.06-.15c.75,0,1.37.17,1.86.5s.87.77,1.14,1.32c.32-.59.75-1.04,1.28-1.35s1.16-.47,1.88-.47h0Z" />
      <path
        d="M1274.59,238.19h-.06c-.24.43-.63.78-1.16,1.05-.53.27-1.14.41-1.82.41-.39,0-.79-.05-1.21-.15-.42-.1-.81-.27-1.16-.5s-.65-.54-.88-.92-.35-.85-.35-1.41c0-.72.2-1.29.61-1.72s.93-.75,1.57-.98c.64-.23,1.35-.38,2.13-.45s1.54-.11,2.29-.11v-.24c0-.6-.22-1.04-.65-1.33-.43-.29-.95-.43-1.55-.43-.51,0-.99.11-1.46.32s-.85.47-1.16.78l-1.24-1.46c.55-.51,1.18-.89,1.89-1.14s1.44-.38,2.17-.38c.85,0,1.56.12,2.11.36.55.24.99.55,1.31.94.32.39.54.82.67,1.3s.19.96.19,1.44v5.84h-2.24v-1.22h0ZM1274.55,235.03h-.54c-.39,0-.79.02-1.22.05-.43.03-.82.11-1.18.22-.36.11-.66.27-.9.48-.24.21-.36.49-.36.85,0,.23.05.42.15.57s.23.28.39.37c.16.09.34.16.54.2.2.04.4.06.6.06.83,0,1.45-.22,1.88-.66s.64-1.04.64-1.8v-.34h0Z" />
      <path
        d="M1280.5,229.81h2.28v1.54h.04c.21-.48.58-.9,1.11-1.27s1.15-.55,1.87-.55c.63,0,1.16.11,1.61.33.45.22.81.51,1.1.87.29.36.5.77.63,1.24s.2.95.2,1.44v6h-2.4v-5.32c0-.28-.02-.57-.06-.88s-.13-.58-.26-.83-.32-.45-.55-.61c-.23-.16-.54-.24-.93-.24s-.72.08-1,.23c-.28.15-.51.35-.69.59-.18.24-.32.52-.41.83-.09.31-.14.63-.14.95v5.28h-2.4v-9.6h0Z" />
      <path
        d="M1299.59,232.47c-.19-.27-.47-.49-.84-.67s-.75-.27-1.14-.27c-.44,0-.83.09-1.16.27-.33.18-.61.42-.83.71-.22.29-.38.62-.49.99s-.16.74-.16,1.11.06.74.17,1.11.28.7.51.99.51.53.85.71.74.27,1.19.27c.37,0,.75-.07,1.12-.22.37-.15.67-.36.9-.64l1.5,1.52c-.4.43-.91.76-1.53.99s-1.29.35-2.01.35-1.38-.11-2.01-.34c-.63-.23-1.19-.56-1.66-1-.47-.44-.85-.97-1.12-1.6s-.41-1.34-.41-2.14.14-1.47.41-2.1.64-1.16,1.11-1.6,1.01-.78,1.63-1.02,1.28-.36,1.99-.36,1.39.13,2.05.4,1.18.63,1.57,1.1l-1.64,1.44h0Z" />
      <path
        d="M1312.72,234.73v.32c0,.11,0,.21-.02.32h-7.3c.03.35.12.66.27.95.15.29.36.53.61.74.25.21.54.37.86.49s.65.18,1,.18c.6,0,1.11-.11,1.52-.33.41-.22.75-.52,1.02-.91l1.6,1.28c-.95,1.28-2.32,1.92-4.12,1.92-.75,0-1.43-.12-2.06-.35s-1.17-.56-1.63-.99-.82-.95-1.08-1.57-.39-1.32-.39-2.11.13-1.48.39-2.11.62-1.17,1.07-1.62.99-.79,1.61-1.04,1.29-.37,2.01-.37c.67,0,1.28.11,1.85.33.57.22,1.06.55,1.47.98.41.43.74.97.97,1.62s.35,1.4.35,2.27h0ZM1310.32,233.65c0-.31-.04-.6-.13-.88s-.22-.53-.41-.74c-.19-.21-.42-.38-.71-.51-.29-.13-.62-.19-1.01-.19-.72,0-1.33.22-1.83.65-.5.43-.78.99-.83,1.67h4.92,0Z" />
    </g>
    <g class="text-one">
      <path
        d="M1129.98,271.23h-1.8v-1.68h2.02l.36-2.44h-1.8v-1.68h2.02l.6-4.18h1.76l-.6,4.18h2.06l.6-4.18h1.74l-.6,4.18h1.8v1.68h-2.04l-.34,2.44h1.8v1.68h-2l-.62,4.18h-1.74l.6-4.18h-2.08l-.6,4.18h-1.74l.6-4.18h0ZM1132.3,267.11l-.34,2.44h2.06l.34-2.44h-2.06Z" />
      <path d="M1141.45,261.25h9.38v2.2h-6.86v3.6h6.5v2.12h-6.5v4h7.22v2.24h-9.74v-14.16Z" />
      <path
        d="M1157.25,270.31l-3.46-4.5h2.88l2.08,2.98,2.14-2.98h2.76l-3.44,4.5,3.92,5.1h-2.92l-2.5-3.5-2.52,3.5h-2.84l3.9-5.1h0Z" />
      <path
        d="M1165.64,267.73v-1.92h1.68v-2.78h2.36v2.78h2.4v1.92h-2.4v4.46c0,.43.08.78.23,1.06.15.28.5.42,1.03.42.16,0,.33-.02.52-.05.19-.03.35-.08.5-.15l.08,1.88c-.21.08-.47.14-.76.19s-.57.07-.84.07c-.64,0-1.16-.09-1.56-.27s-.72-.43-.95-.74-.39-.67-.48-1.08c-.09-.41-.13-.84-.13-1.31v-4.48h-1.68Z" />
      <path
        d="M1183.79,270.73v.32c0,.11,0,.21-.02.32h-7.3c.03.35.12.66.27.95.15.29.36.53.61.74.25.21.54.37.86.49s.65.18,1,.18c.6,0,1.11-.11,1.52-.33.41-.22.75-.52,1.02-.91l1.6,1.28c-.95,1.28-2.32,1.92-4.12,1.92-.75,0-1.43-.12-2.06-.35s-1.17-.56-1.63-.99-.82-.95-1.08-1.57-.39-1.32-.39-2.11.13-1.48.39-2.11.62-1.17,1.07-1.62.99-.79,1.61-1.04,1.29-.37,2.01-.37c.67,0,1.28.11,1.85.33.57.22,1.06.55,1.47.98.41.43.74.97.97,1.62s.35,1.4.35,2.27h0ZM1181.39,269.65c0-.31-.04-.6-.13-.88s-.22-.53-.41-.74c-.19-.21-.42-.38-.71-.51-.29-.13-.62-.19-1.01-.19-.72,0-1.33.22-1.83.65-.5.43-.78.99-.83,1.67h4.92,0Z" />
      <path
        d="M1187,265.81h2.3v1.6h.04c.27-.56.64-1.01,1.12-1.36s1.04-.52,1.68-.52h.3c.11,0,.2.02.28.05v2.2c-.16-.04-.3-.07-.41-.08s-.22-.02-.33-.02c-.55,0-.99.1-1.32.3s-.59.44-.78.72c-.19.28-.31.57-.38.86s-.1.53-.1.7v5.14h-2.4v-9.6h0Z" />
      <path
        d="M1194.9,262.55c0-.39.14-.72.43-1.01.29-.29.65-.43,1.09-.43s.81.14,1.11.41c.3.27.45.62.45,1.03s-.15.76-.45,1.03c-.3.27-.67.41-1.11.41s-.8-.14-1.09-.43c-.29-.29-.43-.62-.43-1.01ZM1195.24,265.81h2.4v9.6h-2.4v-9.6Z" />
      <path
        d="M1200.8,270.57c0-.76.14-1.45.41-2.07s.64-1.15,1.11-1.59,1.02-.78,1.66-1.02,1.32-.36,2.04-.36,1.4.12,2.04.36,1.19.58,1.66,1.02c.47.44.84.97,1.11,1.59.27.62.41,1.31.41,2.07s-.14,1.45-.41,2.08-.64,1.16-1.11,1.61-1.02.8-1.66,1.05-1.32.38-2.04.38-1.4-.13-2.04-.38-1.19-.6-1.66-1.05-.84-.98-1.11-1.61-.41-1.32-.41-2.08ZM1203.24,270.57c0,.37.06.75.17,1.12s.28.71.51,1,.51.53.86.72c.35.19.76.28,1.24.28s.89-.09,1.24-.28.63-.43.86-.72.4-.63.51-1,.17-.75.17-1.12-.06-.74-.17-1.11-.28-.7-.51-.99-.51-.53-.86-.71-.76-.27-1.24-.27-.89.09-1.24.27-.63.42-.86.71c-.23.29-.4.62-.51.99s-.17.74-.17,1.11Z" />
      <path
        d="M1214.42,265.81h2.3v1.6h.04c.27-.56.64-1.01,1.12-1.36s1.04-.52,1.68-.52h.3c.11,0,.2.02.28.05v2.2c-.16-.04-.3-.07-.41-.08s-.22-.02-.33-.02c-.55,0-.99.1-1.32.3s-.59.44-.78.72c-.19.28-.31.57-.38.86s-.1.53-.1.7v5.14h-2.4v-9.6h0Z" />
    </g>
    <g class="text-one">
      <path
        d="M1129.98,307.23h-1.8v-1.68h2.02l.36-2.44h-1.8v-1.68h2.02l.6-4.18h1.76l-.6,4.18h2.06l.6-4.18h1.74l-.6,4.18h1.8v1.68h-2.04l-.34,2.44h1.8v1.68h-2l-.62,4.18h-1.74l.6-4.18h-2.08l-.6,4.18h-1.74l.6-4.18h0ZM1132.3,303.11l-.34,2.44h2.06l.34-2.44h-2.06Z" />
      <path d="M1141.44,297.25h2.52v14.16h-2.52v-14.16Z" />
      <path
        d="M1147.87,301.81h2.28v1.54h.04c.21-.48.58-.9,1.11-1.27s1.15-.55,1.87-.55c.63,0,1.16.11,1.61.33.45.22.81.51,1.1.87.29.36.5.77.63,1.24s.2.95.2,1.44v6h-2.4v-5.32c0-.28-.02-.57-.06-.88s-.13-.58-.26-.83-.32-.45-.55-.61c-.23-.16-.54-.24-.93-.24s-.72.08-1,.23c-.28.15-.51.35-.69.59-.18.24-.32.52-.41.83-.09.31-.14.63-.14.95v5.28h-2.4v-9.6h0Z" />
      <path
        d="M1159.04,303.73v-1.92h1.68v-2.78h2.36v2.78h2.4v1.92h-2.4v4.46c0,.43.08.78.23,1.06.15.28.5.42,1.03.42.16,0,.33-.02.52-.05.19-.03.35-.08.5-.15l.08,1.88c-.21.08-.47.14-.76.19s-.57.07-.84.07c-.64,0-1.16-.09-1.56-.27s-.72-.43-.95-.74-.39-.67-.48-1.08c-.09-.41-.13-.84-.13-1.31v-4.48h-1.68Z" />
      <path
        d="M1177.2,306.73v.32c0,.11,0,.21-.02.32h-7.3c.03.35.12.66.27.95.15.29.36.53.61.74.25.21.54.37.86.49s.65.18,1,.18c.6,0,1.11-.11,1.52-.33.41-.22.75-.52,1.02-.91l1.6,1.28c-.95,1.28-2.32,1.92-4.12,1.92-.75,0-1.43-.12-2.06-.35s-1.17-.56-1.63-.99-.82-.95-1.08-1.57-.39-1.32-.39-2.11.13-1.48.39-2.11.62-1.17,1.07-1.62.99-.79,1.61-1.04,1.29-.37,2.01-.37c.67,0,1.28.11,1.85.33.57.22,1.06.55,1.47.98.41.43.74.97.97,1.62s.35,1.4.35,2.27h0ZM1174.8,305.65c0-.31-.04-.6-.13-.88s-.22-.53-.41-.74c-.19-.21-.42-.38-.71-.51-.29-.13-.62-.19-1.01-.19-.72,0-1.33.22-1.83.65-.5.43-.78.99-.83,1.67h4.92,0Z" />
      <path
        d="M1180.41,301.81h2.3v1.6h.04c.27-.56.64-1.01,1.12-1.36s1.04-.52,1.68-.52h.3c.11,0,.2.02.28.05v2.2c-.16-.04-.3-.07-.41-.08s-.22-.02-.33-.02c-.55,0-.99.1-1.32.3s-.59.44-.78.72c-.19.28-.31.57-.38.86s-.1.53-.1.7v5.14h-2.4v-9.6h0Z" />
      <path
        d="M1188.3,298.55c0-.39.14-.72.43-1.01.29-.29.65-.43,1.09-.43s.81.14,1.11.41c.3.27.45.62.45,1.03s-.15.76-.45,1.03c-.3.27-.67.41-1.11.41s-.8-.14-1.09-.43c-.29-.29-.43-.62-.43-1.01ZM1188.64,301.81h2.4v9.6h-2.4v-9.6Z" />
      <path
        d="M1194.21,306.57c0-.76.14-1.45.41-2.07s.64-1.15,1.11-1.59,1.02-.78,1.66-1.02,1.32-.36,2.04-.36,1.4.12,2.04.36,1.19.58,1.66,1.02c.47.44.84.97,1.11,1.59.27.62.41,1.31.41,2.07s-.14,1.45-.41,2.08-.64,1.16-1.11,1.61-1.02.8-1.66,1.05-1.32.38-2.04.38-1.4-.13-2.04-.38-1.19-.6-1.66-1.05-.84-.98-1.11-1.61-.41-1.32-.41-2.08ZM1196.65,306.57c0,.37.06.75.17,1.12s.28.71.51,1,.51.53.86.72c.35.19.76.28,1.24.28s.89-.09,1.24-.28.63-.43.86-.72.4-.63.51-1,.17-.75.17-1.12-.06-.74-.17-1.11-.28-.7-.51-.99-.51-.53-.86-.71-.76-.27-1.24-.27-.89.09-1.24.27-.63.42-.86.71c-.23.29-.4.62-.51.99s-.17.74-.17,1.11Z" />
      <path
        d="M1207.82,301.81h2.3v1.6h.04c.27-.56.64-1.01,1.12-1.36s1.04-.52,1.68-.52h.3c.11,0,.2.02.28.05v2.2c-.16-.04-.3-.07-.41-.08s-.22-.02-.33-.02c-.55,0-.99.1-1.32.3s-.59.44-.78.72c-.19.28-.31.57-.38.86s-.1.53-.1.7v5.14h-2.4v-9.6h0Z" />
    </g>
  </g>
</svg>