<?xml version="1.0" encoding="utf-8"?>
<svg xmlns="http://www.w3.org/2000/svg" version="1.1" viewBox="0 0 692.74 448.83">
  <defs>
    <style>
      /* 文字 */
      .text {opacity:0;transform:translate(0,10px);animation:in 0.7s forwards;animation-delay:1.7s;}
      /* 人を隠す */
      .hidden {fill:#fff;}
      /* 人 */
      .human
      {transform:translate(130px,0);fill:#fff;stroke:#c91933;stroke-miterlimit:10;stroke-width:3px;animation:in
      3s forwards;}
      @keyframes in {
      100% {opacity:1;transform:translate(0,0);}
      }
      /* 線 */
      .line
      {fill:none;stroke:#c91933;stroke-miterlimit:10;stroke-width:3px;stroke-linecap:round;animation:line
      1s forwards;}
      .line-01 {transform:translate(-62px,-38px);stroke-dasharray:160;stroke-dashoffset:160;}
      .line-02 {transform:translate(0,-85px);stroke-dasharray:220;stroke-dashoffset:220;}
      .line-03 {transform:translate(116px,0);stroke-dasharray:470;stroke-dashoffset:470;}
      .line-04 {transform:translate(0,75px);stroke-dasharray:220;stroke-dashoffset:220;}
      .line-05 {transform:translate(-85px,20px);stroke-dasharray:340;stroke-dashoffset:340;}
      @keyframes line {
      100% {stroke-dashoffset:0;transform:translate(0,0);}
      }
    </style>
  </defs>
  <g class="text">
    <path
      d="M449.07,55.34l-.07-.04c-.59.34-1.31.49-2.15.43-.84-.05-1.66-.32-2.48-.81-.47-.28-.91-.63-1.35-1.05-.43-.42-.78-.9-1.04-1.43-.26-.53-.39-1.11-.4-1.74,0-.62.19-1.27.59-1.95.52-.87,1.17-1.41,1.97-1.63.79-.22,1.66-.24,2.59-.06.93.19,1.89.51,2.88.98.99.47,1.93.97,2.83,1.51l.17-.29c.43-.72.49-1.41.17-2.07-.32-.66-.83-1.2-1.56-1.63-.61-.36-1.27-.58-1.99-.66-.71-.08-1.37-.04-1.95.11l-.45-2.64c1.02-.22,2.05-.22,3.09-.02,1.04.21,2,.57,2.88,1.1,1.03.61,1.79,1.26,2.28,1.94.49.68.79,1.37.9,2.07.11.69.07,1.38-.12,2.04-.19.67-.46,1.29-.8,1.87l-4.18,7.03-2.7-1.6.87-1.47ZM451.29,51.51l-.65-.39c-.47-.28-.97-.55-1.5-.81-.54-.27-1.06-.46-1.58-.58-.51-.12-.99-.14-1.43-.07-.44.08-.78.33-1.04.76-.16.27-.24.54-.23.79.01.26.08.5.2.72.13.23.29.44.51.63.21.19.44.36.68.5.99.59,1.91.78,2.73.55.83-.22,1.51-.79,2.06-1.71l.24-.41Z" />
    <path
      d="M462.49,49.67l2.77,1.65-1.15,1.92.05.03c.72-.48,1.5-.76,2.32-.83.83-.07,1.62.12,2.39.58.11.07.23.14.35.23.12.08.22.17.3.26l-1.58,2.65c-.16-.16-.31-.29-.44-.39-.13-.1-.25-.18-.38-.26-.66-.39-1.26-.59-1.8-.58-.54,0-1.03.1-1.45.31-.43.2-.78.46-1.07.76-.29.3-.5.56-.62.77l-3.68,6.18-2.89-1.72,6.87-11.55Z" />
    <path
      d="M480.12,68.18c-.08.13-.15.26-.23.39-.08.13-.16.25-.25.37l-8.78-5.23c-.22.44-.33.88-.35,1.34-.02.46.05.9.2,1.33.16.43.38.83.68,1.21.3.37.66.68,1.07.93.72.43,1.41.66,2.06.69.65.03,1.28-.09,1.88-.36l1.01,2.69c-2.06.86-4.17.65-6.33-.64-.9-.53-1.64-1.17-2.23-1.9-.59-.73-1-1.52-1.25-2.36-.25-.84-.31-1.73-.18-2.66.13-.93.48-1.87,1.04-2.82.55-.93,1.21-1.68,1.98-2.26.77-.58,1.58-.97,2.45-1.18.86-.21,1.76-.25,2.68-.1.92.15,1.82.48,2.68,1,.8.48,1.46,1.05,1.99,1.72.52.67.88,1.41,1.07,2.23.19.82.19,1.7,0,2.64-.18.94-.58,1.94-1.2,2.98ZM478.01,65.16c.22-.37.38-.75.47-1.15.1-.4.11-.79.04-1.18-.07-.39-.23-.76-.49-1.12-.25-.36-.61-.67-1.08-.95-.87-.52-1.75-.69-2.67-.53-.91.16-1.64.63-2.19,1.41l5.92,3.52Z" />
    <path
      d="M488.87,79.03l-.07-.04c-.59.34-1.31.49-2.15.43-.84-.05-1.67-.32-2.48-.81-.46-.28-.91-.63-1.35-1.05-.43-.42-.78-.9-1.04-1.43-.26-.53-.39-1.11-.4-1.74,0-.62.19-1.27.59-1.95.52-.87,1.17-1.41,1.97-1.63.79-.22,1.66-.24,2.59-.05.93.19,1.89.51,2.88.98.99.47,1.94.97,2.83,1.51l.17-.29c.43-.72.49-1.41.17-2.07-.32-.66-.83-1.2-1.56-1.63-.61-.36-1.27-.58-1.99-.66-.71-.08-1.37-.04-1.95.11l-.45-2.64c1.02-.22,2.05-.22,3.09-.02,1.04.21,2,.57,2.88,1.1,1.03.61,1.79,1.26,2.28,1.94.49.69.79,1.37.9,2.07.11.69.07,1.37-.12,2.04-.19.67-.46,1.29-.8,1.87l-4.18,7.03-2.69-1.6.87-1.47ZM491.09,75.2l-.65-.39c-.46-.28-.97-.55-1.5-.81-.54-.27-1.06-.46-1.58-.58-.51-.12-.99-.14-1.43-.07-.44.08-.78.33-1.04.76-.16.27-.24.54-.23.79.01.26.08.5.21.72.12.23.29.44.51.63.21.19.44.36.68.5.99.59,1.91.78,2.73.55.83-.22,1.51-.79,2.06-1.71l.24-.41Z" />
    <path
      d="M303.95,57.67l7.51-1.83c.72-.18,1.46-.26,2.21-.26.75,0,1.45.13,2.1.38.65.26,1.22.65,1.71,1.18.49.53.85,1.23,1.06,2.11.26,1.09.17,2.06-.27,2.92-.44.86-1.13,1.56-2.05,2.11v.05c1.27-.13,2.38.1,3.35.69.97.59,1.61,1.54,1.93,2.84.26,1.05.26,1.99.02,2.8-.24.82-.65,1.53-1.23,2.13-.57.6-1.28,1.1-2.11,1.51-.83.4-1.7.72-2.61.94l-6.94,1.69-4.68-19.26ZM309.28,64.67l3.05-.74c1.14-.28,1.96-.72,2.45-1.32.49-.6.63-1.32.43-2.15-.21-.87-.67-1.41-1.38-1.62-.7-.21-1.71-.16-3.02.16l-2.75.67,1.22,5.01ZM311.36,73.21l3.07-.75c.44-.11.9-.25,1.39-.44.49-.19.93-.43,1.31-.73.38-.3.66-.68.85-1.13.19-.45.21-.99.05-1.63-.25-1.02-.76-1.64-1.55-1.87-.79-.23-1.88-.18-3.27.16l-3.21.78,1.36,5.6Z" />
    <path
      d="M339.6,69.4l-3.1.75-.51-2.09h-.05c-.13.74-.5,1.44-1.09,2.11-.6.67-1.38,1.13-2.36,1.37-.85.21-1.62.24-2.3.08-.68-.15-1.27-.42-1.78-.82-.51-.4-.93-.89-1.27-1.48-.34-.59-.59-1.22-.75-1.89l-1.98-8.16,3.27-.79,1.76,7.24c.09.38.22.77.37,1.18.16.4.37.75.63,1.04.26.29.58.51.95.65.37.14.82.15,1.34.02.51-.12.93-.34,1.27-.64.34-.3.59-.65.76-1.03.17-.39.26-.81.28-1.26.02-.46-.02-.9-.12-1.34l-1.75-7.18,3.26-.79,3.18,13.06Z" />
    <path
      d="M340.34,50.69c-.13-.53-.04-1.03.25-1.52.29-.48.74-.8,1.34-.95.6-.15,1.15-.08,1.65.19.5.27.82.69.95,1.25.14.56.05,1.08-.27,1.55-.32.47-.78.78-1.37.92-.6.15-1.14.07-1.62-.22-.49-.29-.79-.71-.92-1.23ZM341.88,55.01l3.27-.79,3.18,13.06-3.27.79-3.18-13.06Z" />
    <path d="M348.78,45.38l3.26-.79,5,20.57-3.27.79-5-20.57Z" />
    <path
      d="M375.85,60.58l-3.1.75-.48-1.96h-.05c-.27.89-.76,1.62-1.47,2.21-.71.59-1.53,1.01-2.45,1.23-1,.24-1.94.27-2.82.09-.88-.18-1.67-.52-2.38-1.01-.71-.49-1.31-1.12-1.81-1.89-.5-.77-.87-1.64-1.11-2.6-.23-.96-.3-1.9-.19-2.81.1-.91.36-1.74.78-2.49.41-.75.96-1.4,1.66-1.95.69-.54,1.5-.93,2.43-1.15.6-.15,1.15-.21,1.65-.19.5.02.96.09,1.36.2.4.11.76.26,1.07.43.31.17.57.35.79.53l.08-.02-2.23-9.17,3.27-.79,5,20.57ZM363.5,56.61c.12.51.32,1,.6,1.47.28.47.62.87,1.02,1.19.41.32.87.56,1.41.69.53.14,1.12.13,1.75-.02.6-.15,1.1-.4,1.52-.76.41-.36.74-.78.98-1.26.24-.48.38-.99.43-1.53.05-.54.01-1.06-.11-1.57-.12-.51-.33-.99-.63-1.46-.3-.47-.66-.86-1.09-1.17-.43-.32-.92-.55-1.45-.69-.53-.14-1.1-.14-1.7,0-.63.15-1.16.41-1.57.77-.41.36-.72.78-.94,1.25-.21.47-.33.98-.37,1.52-.03.54.01,1.06.14,1.57Z" />
    <path
      d="M376.6,41.87c-.13-.53-.04-1.03.25-1.52.29-.48.74-.8,1.34-.95.6-.15,1.15-.08,1.65.19.5.27.82.69.95,1.25s.05,1.08-.27,1.55c-.32.47-.78.78-1.37.92-.6.15-1.14.07-1.62-.22-.49-.29-.79-.71-.92-1.23ZM378.14,46.2l3.27-.79,3.18,13.06-3.27.79-3.18-13.06Z" />
    <path
      d="M386.86,44.07l3.1-.75.51,2.1h.05c.13-.74.49-1.44,1.09-2.11.6-.67,1.38-1.13,2.36-1.37.85-.21,1.62-.24,2.3-.08.68.15,1.28.42,1.78.82.51.39.93.89,1.27,1.48.34.59.59,1.22.75,1.89l1.98,8.16-3.26.79-1.76-7.24c-.09-.38-.22-.77-.37-1.18-.16-.4-.37-.75-.63-1.04-.26-.29-.58-.51-.95-.65-.37-.14-.82-.15-1.34-.02-.53.13-.95.34-1.28.64-.33.3-.58.64-.74,1.03-.17.39-.26.81-.28,1.27-.02.46.02.9.12,1.34l1.75,7.18-3.26.79-3.18-13.06Z" />
    <path
      d="M417.51,36.62l2.89,11.89c.29,1.18.4,2.28.34,3.3-.06,1.02-.31,1.94-.76,2.75-.45.81-1.09,1.51-1.93,2.1-.84.59-1.89,1.04-3.16,1.34-.53.13-1.09.22-1.71.27s-1.22.06-1.84.02c-.62-.04-1.22-.14-1.81-.28-.59-.14-1.14-.34-1.64-.58l1.26-2.99c.78.44,1.61.73,2.48.85.87.12,1.72.09,2.54-.11.78-.19,1.41-.46,1.89-.82.48-.36.83-.78,1.05-1.25.22-.48.33-1.01.33-1.59,0-.58-.07-1.2-.23-1.85l-.23-.96h-.05c-.32.77-.8,1.41-1.45,1.92-.65.52-1.43.89-2.34,1.11-.98.24-1.91.27-2.8.1-.89-.17-1.68-.49-2.38-.98-.7-.48-1.31-1.1-1.82-1.85-.51-.75-.88-1.59-1.1-2.51-.23-.94-.3-1.87-.2-2.78.1-.91.35-1.74.75-2.49.4-.75.96-1.4,1.66-1.96.7-.55,1.54-.95,2.52-1.19.92-.22,1.83-.24,2.72-.06.89.19,1.67.62,2.33,1.3h.05s-.48-1.97-.48-1.97l3.1-.75ZM411.1,40.6c-.6.15-1.1.38-1.51.71-.41.33-.73.72-.96,1.17-.23.45-.37.95-.41,1.49-.05.55,0,1.11.14,1.69.13.52.34,1.01.63,1.45.29.45.64.83,1.05,1.14.41.31.88.53,1.4.65.52.12,1.07.11,1.65-.03.6-.15,1.11-.39,1.54-.73.43-.34.76-.74,1-1.21.24-.46.39-.96.46-1.5.06-.54.02-1.08-.11-1.62-.14-.56-.36-1.07-.66-1.53-.3-.46-.67-.84-1.1-1.14-.43-.3-.9-.5-1.43-.6-.52-.1-1.09-.08-1.68.06Z" />
  </g>
  <g class="human">
    <circle cx="382.17" cy="259.01" r="24.23" transform="translate(-67.24 153.31) rotate(-20.89)" />
    <path d="M346.07,319.34c0-19.94,16.16-36.1,36.1-36.1s36.1,16.16,36.1,36.1" />
    <circle cx="474.7" cy="270.01" r="19.82" transform="translate(132.13 695.33) rotate(-80.78)" />
    <path d="M445.16,319.37c0-16.31,13.22-29.54,29.54-29.54s29.54,13.22,29.54,29.54" />
  </g>
  <rect class="hidden" x="563.19" y="230.04" width="94.46" height="92.35" />
  <line class="line line-01" x1="429.26" y1="63.56" x2="563.19" y2="143.3" />
  <line class="line line-02" x1="563.19" y1="143.3" x2="563.19" y2="360.65" />
  <line class="line line-03" x1="563.19" y1="360.65" x2="100.5" y2="360.65" />
  <line class="line line-04" x1="100.5" y1="360.65" x2="100.5" y2="143.3" />
  <line class="line line-05" x1="100.5" y1="143.3" x2="429.26" y2="63.56" />
</svg>