<?xml version="1.0" encoding="UTF-8"?>
<svg id="_レイヤー_2" data-name="レイヤー 2" xmlns="http://www.w3.org/2000/svg" viewBox="0 0 377.05 283.51">
  <defs>
    <style>
      .cls-1 {
        fill: #c91933;
      }

      .cls-2 {
        fill: #fff;
        stroke: #c91933;
        stroke-miterlimit: 10;
        stroke-width: 3px;
      }
    </style>
  </defs>
  <g id="_レイヤー_1-2" data-name="レイヤー 1">
    <g>
      <polyline class="cls-2" points="282.36 241.61 375.55 241.61 375.55 122.22 122.46 122.22 122.46 1.5 1.5 1.5 1.5 241.61 238.86 241.61 275.45 282.51"/>
      <path class="cls-1" d="M55.9,208.42h-10.09v-58.3h10.09v58.3Z"/>
      <path class="cls-1" d="M81.15,165.1l.28,5c3.2-3.87,7.41-5.81,12.61-5.81,9.02,0,13.61,5.17,13.77,15.5v28.63h-9.73v-28.07c0-2.75-.59-4.78-1.78-6.11-1.19-1.32-3.13-1.98-5.83-1.98-3.92,0-6.85,1.78-8.77,5.33v30.83h-9.73v-43.32h9.17Z"/>
      <path class="cls-1" d="M134.78,154.57v10.53h7.65v7.21h-7.65v24.18c0,1.66.33,2.85.98,3.58.65.73,1.82,1.1,3.5,1.1,1.12,0,2.26-.13,3.4-.4v7.53c-2.22.61-4.35.92-6.41.92-7.47,0-11.21-4.12-11.21-12.37v-24.54h-7.13v-7.21h7.13v-10.53h9.73Z"/>
      <path class="cls-1" d="M172.62,209.22c-6.17,0-11.16-1.94-14.99-5.83-3.83-3.88-5.75-9.06-5.75-15.52v-1.2c0-4.32.83-8.19,2.5-11.59,1.67-3.4,4.01-6.05,7.03-7.95,3.02-1.89,6.38-2.84,10.09-2.84,5.9,0,10.46,1.88,13.67,5.65,3.22,3.76,4.82,9.09,4.82,15.98v3.92h-28.31c.29,3.58,1.49,6.41,3.58,8.49,2.1,2.08,4.73,3.12,7.91,3.12,4.46,0,8.09-1.8,10.89-5.41l5.25,5c-1.74,2.59-4.05,4.6-6.95,6.03-2.9,1.43-6.15,2.14-9.75,2.14ZM171.46,172.11c-2.67,0-4.82.93-6.47,2.8-1.64,1.87-2.69,4.47-3.14,7.81h18.54v-.72c-.21-3.26-1.08-5.72-2.6-7.39-1.52-1.67-3.63-2.5-6.33-2.5Z"/>
      <path class="cls-1" d="M225.47,173.99c-1.28-.21-2.6-.32-3.96-.32-4.46,0-7.46,1.71-9.01,5.12v29.63h-9.73v-43.32h9.29l.24,4.84c2.35-3.76,5.61-5.65,9.77-5.65,1.39,0,2.54.19,3.44.56l-.04,9.13Z"/>
      <path class="cls-1" d="M236.13,153.85c0-1.49.47-2.74,1.42-3.72.95-.99,2.3-1.48,4.06-1.48s3.12.49,4.08,1.48c.96.99,1.44,2.23,1.44,3.72s-.48,2.69-1.44,3.66c-.96.97-2.32,1.46-4.08,1.46s-3.12-.49-4.06-1.46c-.95-.97-1.42-2.2-1.42-3.66ZM246.46,208.42h-9.73v-43.32h9.73v43.32Z"/>
      <path class="cls-1" d="M259.55,186.36c0-4.24.84-8.07,2.52-11.47,1.68-3.4,4.04-6.02,7.09-7.85,3.04-1.83,6.54-2.74,10.49-2.74,5.85,0,10.59,1.88,14.23,5.65,3.64,3.76,5.61,8.76,5.91,14.97l.04,2.28c0,4.27-.82,8.09-2.46,11.45-1.64,3.36-3.99,5.97-7.05,7.81-3.06,1.84-6.59,2.76-10.59,2.76-6.11,0-11-2.04-14.67-6.11-3.67-4.07-5.51-9.5-5.51-16.28v-.48ZM269.28,187.2c0,4.46.92,7.95,2.76,10.47,1.84,2.52,4.4,3.78,7.69,3.78s5.84-1.28,7.67-3.84c1.83-2.56,2.74-6.31,2.74-11.25,0-4.38-.94-7.85-2.82-10.41-1.88-2.56-4.44-3.84-7.67-3.84s-5.7,1.26-7.57,3.78c-1.87,2.52-2.8,6.29-2.8,11.31Z"/>
      <path class="cls-1" d="M333.53,173.99c-1.28-.21-2.6-.32-3.96-.32-4.46,0-7.46,1.71-9.01,5.12v29.63h-9.73v-43.32h9.29l.24,4.84c2.35-3.76,5.61-5.65,9.77-5.65,1.39,0,2.54.19,3.44.56l-.04,9.13Z"/>
      <path class="cls-1" d="M79.15,56.24c0,3.91.14,6.3.09,7.83,0,1.67-.45,2.97-1.44,3.73-.99.77-2.56,1.17-6.98,1.17-1.3,0-1.44-.04-1.71-1.44-.27-1.39-.72-2.61-1.26-3.51,1.89.13,3.87.23,4.72.18,1.4-.04,1.8-.4,1.8-1.53v-7.65c-.9.85-1.66,1.84-2.25,2.83-.41.63-.63.95-.9.95-.23,0-.5-.18-.99-.54-3.96-2.97-7.06-6.43-9.13-11.11l-.14.36c-1.89,4.41-4.18,7.83-9.22,11.34-.5.41-.77.59-.99.59-.27,0-.45-.27-.86-.9-.63-.99-1.35-1.89-2.16-2.61v6.25c0,4.18.09,6.25.09,6.52,0,.41-.04.45-.54.45h-3.92c-.45,0-.5-.04-.5-.45,0-.31.09-2.43.09-7.06v-17.41c0-4.64-.09-6.79-.09-7.11,0-.45.04-.49.5-.49.31,0,1.8.09,6.07.09h8.82c.04-1.03.09-2.11.09-3.24,0-1.62-.04-3.15-.27-4.81,1.58.05,3.33.18,4.95.31.45.04.68.27.68.54,0,.31-.14.59-.27.95-.14.45-.18,1.44-.23,3.28,0,.99-.05,1.98-.09,2.97h9.58c4.23,0,5.76-.09,6.03-.09.45,0,.5.04.5.49,0,.27-.09,2.7-.09,7.38v11.74ZM47.74,55.48c4.77-2.7,7.29-5.85,8.77-9.31.63-1.48,1.08-3.24,1.39-5.13h-10.17v14.44ZM74.38,41.03h-11.52c2.38,6.93,5.89,10.48,11.52,13.72v-13.72Z"/>
      <path class="cls-1" d="M46.35,97.7c-3.91,0-5.22.09-5.49.09-.4,0-.45-.05-.45-.5v-2.79c0-.45.04-.5.45-.5.27,0,1.58.09,5.49.09h2.29c.36-1.04.72-2.16.99-3.33h-2.97c-.45.72-1.03,1.53-1.71,2.38-.4.5-.63.72-.9.72-.22,0-.49-.18-.99-.54-.81-.54-1.71-.99-2.38-1.31,1.93-1.98,3.06-3.69,4.18-5.76.36-.76.77-1.75.99-2.79,1.35.27,2.47.5,3.55.77.4.09.67.27.67.63,0,.27-.18.45-.49.76-.27.27-.45.63-.95,1.67h5.27c3.91,0,5.17-.09,5.44-.09.45,0,.5.05.5.5v2.61c0,.5-.05.54-.5.54-.27,0-1.53-.09-5.44-.09h-.09c-.27,1.17-.59,2.29-.94,3.33h2.07c3.87,0,5.17-.09,5.44-.09.45,0,.5.05.5.5v2.79c0,.45-.04.5-.5.5-.27,0-1.57-.09-5.44-.09h-3.51c-.67,1.35-1.4,2.61-2.29,3.83h3.06c.22-.41.36-.77.49-1.08.27-.63.45-1.26.58-2.16,1.12.18,2.84.41,3.6.63.45.13.63.27.63.45,0,.22-.13.4-.31.54-.31.27-.45.45-.59.76l-.4.86c2.61,0,3.42-.09,3.69-.09.45,0,.5.04.5.49v2.34c0,.49-.04.54-.5.54-.27,0-1.08-.09-3.87-.09h-.59v2.61c2.52,0,3.51-.09,3.73-.09.45,0,.5.05.5.5v2.25c0,.45-.05.5-.5.5-.23,0-1.21-.04-3.73-.09v2.61c2.52,0,3.51-.09,3.73-.09.45,0,.5.04.5.49v2.21c0,.45-.05.5-.5.5-.23,0-1.21-.04-3.73-.09v2.7c2.61,0,3.55-.09,3.82-.09.45,0,.5.05.5.54v1.44c3.73-2.03,5.13-5.04,5.49-9.67-1.67.04-2.38.04-2.61.04-.45,0-.5,0-.5-.5,0-.27.09-1.93.09-5.58v-13.36c0-3.6-.09-5.31-.09-5.58,0-.45.04-.49.5-.49.31,0,1.44.09,4.99.09h6.48c3.51,0,4.72-.09,4.99-.09.5,0,.54.04.54.49,0,.27-.09,1.98-.09,5.58v13.36c0,3.64.09,5.31.09,5.58,0,.5-.04.5-.54.5-.23,0-1.26-.04-3.55-.04v8.05c0,.81-.05.99.13,1.17.23.23.5.23,1.08.23.77,0,1.21-.09,1.44-.4.4-.45.45-1.76.54-4.77.94.72,2.07,1.21,2.88,1.48.85.27.85.36.81,1.35-.23,3.33-.77,4.73-1.62,5.49-.94.81-2.56.9-4.5.9-1.62,0-2.83-.05-3.78-.54-.76-.45-1.17-1.48-1.17-2.97v-9.99h-1.84c-.54,6.43-2.38,10.26-7.38,13.45-.59.36-.9.54-1.21.54s-.54-.27-.94-.9c-.68-.99-1.22-1.62-1.8-2.07-.76,0-2.02-.04-4-.04h-6.35v2.16c0,.4-.04.45-.49.45h-3.11c-.45,0-.5-.05-.5-.45,0-.27.09-1.12.09-4.05v-12.6l-1.66,1.44c-.45.36-.72.58-.94.58s-.36-.31-.54-.99c-.36-1.17-.86-2.12-1.31-2.75,3.42-2.25,5.94-4.81,7.69-8.01h-.72ZM51.65,107.33v-2.61h-3.83v2.61h3.83ZM51.65,113v-2.61h-3.83v2.61h3.83ZM51.65,118.71v-2.7h-3.83v2.7h3.83ZM66.5,89.42v3.38h8.73v-3.38h-8.73ZM75.23,99.86v-3.46h-8.73v3.46h8.73ZM75.23,103.46h-8.73v3.69h8.73v-3.69Z"/>
    </g>
  </g>
</svg>