<?xml version="1.0" encoding="UTF-8"?>
<svg id="uuid-55d721d7-8e73-4019-9e57-e63c268785b6" data-name="レイヤー_2" xmlns="http://www.w3.org/2000/svg" viewBox="0 0 24.76 28.4">
  <g id="uuid-c72ea20b-9578-459f-9581-0bd270a243d6" data-name="レイヤー_1">
    <path d="M21.07,5.69c-1.53-1-2.63-2.59-2.98-4.45-.07-.4-.12-.82-.12-1.24h-4.88v19.57c-.09,2.19-1.89,3.95-4.1,3.95-.69,0-1.33-.17-1.9-.47-1.31-.69-2.2-2.06-2.2-3.63,0-2.26,1.84-4.1,4.1-4.1.42,0,.83.07,1.21.19v-4.98c-.4-.05-.8-.09-1.21-.09C4.03,10.43,0,14.46,0,19.41c0,3.04,1.52,5.73,3.84,7.36,1.46,1.02,3.23,1.63,5.15,1.63,4.95,0,8.99-4.03,8.99-8.99v-9.92c1.91,1.37,4.26,2.18,6.79,2.18v-4.88c-1.36,0-2.63-.41-3.7-1.1h0Z" style="fill: #fff;"/>
  </g>
</svg>