<?xml version="1.0" encoding="UTF-8"?><svg id="uuid-ab9cd9c9-54f8-4370-a396-e24de2c652ef" xmlns="http://www.w3.org/2000/svg" width="59" height="113.89" viewBox="0 0 59 113.89"><defs><style>.uuid-ec2aa281-0c77-42e7-b89b-485d609fd2a0{stroke:#c91933;}.uuid-ec2aa281-0c77-42e7-b89b-485d609fd2a0,.uuid-ff1c681f-7542-4d9b-a154-1e5f056a2aa1{fill:none;stroke-miterlimit:10;}.uuid-902a6115-0d6e-4f59-be5e-e4f90d82b6b9{fill:#c81932;}.uuid-ff1c681f-7542-4d9b-a154-1e5f056a2aa1{stroke:#c9002e;}.uuid-a8a465be-bba7-4121-b147-e180f240339a{fill:#b91f3a;}</style></defs><g id="uuid-7983214f-c061-4d8a-8d0f-c89f7ab07329"><line class="uuid-ec2aa281-0c77-42e7-b89b-485d609fd2a0" x1="29.5" y1="55.15" x2="29.5"/><circle class="uuid-ff1c681f-7542-4d9b-a154-1e5f056a2aa1" cx="29.5" cy="84.39" r="29"/><path class="uuid-902a6115-0d6e-4f59-be5e-e4f90d82b6b9" d="M15.6,73.63h2.77c.49,0,.93.04,1.32.13.39.09.73.23,1.01.43.28.2.5.46.65.77.15.31.23.69.23,1.13,0,.47-.09.87-.26,1.19-.18.32-.41.58-.71.77-.3.2-.65.34-1.05.43-.4.09-.82.13-1.27.13h-1.16v3.52h-1.51v-8.5ZM18.17,77.34c.25,0,.48-.02.71-.05.22-.04.42-.1.6-.19.18-.09.32-.22.42-.38.1-.16.16-.37.16-.62s-.05-.45-.16-.61c-.1-.16-.24-.28-.41-.37s-.37-.15-.59-.17c-.22-.03-.45-.04-.68-.04h-1.1v2.44h1.06Z"/><path class="uuid-902a6115-0d6e-4f59-be5e-e4f90d82b6b9" d="M21.92,79.22c0-.46.08-.87.25-1.24s.39-.69.67-.95c.28-.26.61-.47,1-.61.38-.14.79-.22,1.22-.22s.84.07,1.22.22c.38.14.72.35,1,.61.28.26.5.58.67.95s.25.79.25,1.24-.08.87-.25,1.25-.39.7-.67.97c-.28.27-.61.48-1,.63-.38.15-.79.23-1.22.23s-.84-.08-1.22-.23c-.38-.15-.72-.36-1-.63-.28-.27-.5-.59-.67-.97s-.25-.79-.25-1.25ZM23.39,79.22c0,.22.03.45.1.67.07.22.17.42.31.6.14.18.31.32.52.43.21.11.46.17.74.17s.54-.06.74-.17c.21-.11.38-.26.52-.43.14-.18.24-.38.31-.6.07-.22.1-.45.1-.67s-.03-.45-.1-.67c-.07-.22-.17-.42-.31-.59-.14-.18-.31-.32-.52-.43-.21-.11-.46-.16-.74-.16s-.54.05-.74.16c-.21.11-.38.25-.52.43-.14.18-.24.37-.31.59-.07.22-.1.44-.1.67Z"/><path class="uuid-902a6115-0d6e-4f59-be5e-e4f90d82b6b9" d="M29.86,74.41c0-.23.09-.43.26-.61.17-.17.39-.26.65-.26s.49.08.67.25c.18.16.27.37.27.62s-.09.45-.27.62c-.18.16-.4.25-.67.25s-.48-.09-.65-.26-.26-.37-.26-.61ZM30.06,76.37h1.44v5.76h-1.44v-5.76Z"/><path class="uuid-902a6115-0d6e-4f59-be5e-e4f90d82b6b9" d="M33.67,76.37h1.37v.92h.02c.13-.29.35-.54.67-.76.32-.22.69-.33,1.12-.33.38,0,.7.07.97.2s.49.31.66.52.3.46.38.74c.08.28.12.57.12.86v3.6h-1.44v-3.19c0-.17-.01-.34-.04-.53-.02-.18-.08-.35-.16-.5-.08-.15-.19-.27-.33-.37-.14-.1-.33-.14-.56-.14s-.43.05-.6.14-.31.21-.41.35c-.11.14-.19.31-.25.5-.06.19-.08.38-.08.57v3.17h-1.44v-5.76Z"/><path class="uuid-902a6115-0d6e-4f59-be5e-e4f90d82b6b9" d="M40.29,77.52v-1.15h1.01v-1.67h1.42v1.67h1.44v1.15h-1.44v2.68c0,.26.05.47.14.64.09.17.3.25.62.25.1,0,.2,0,.31-.03.11-.02.21-.05.3-.09l.05,1.13c-.13.05-.28.09-.46.11-.18.03-.34.04-.5.04-.38,0-.7-.05-.94-.16-.24-.11-.43-.26-.57-.44-.14-.19-.24-.4-.29-.65-.05-.24-.08-.51-.08-.79v-2.69h-1.01Z"/><path class="uuid-a8a465be-bba7-4121-b147-e180f240339a" d="M32.32,95.54h1.63v1.33h-1.63v2.54h-1.5v-2.54h-5.22v-1.41l4.82-7.38h1.9v7.46ZM30.81,89.86h-.03l-3.59,5.68h3.62v-5.68Z"/></g></svg>