<?xml version="1.0" encoding="UTF-8"?>
<svg id="_レイヤー_2" data-name="レイヤー 2" xmlns="http://www.w3.org/2000/svg" viewBox="0 0 50 50">
  <g id="_レイヤー_1-2" data-name="レイヤー 1">
    <g>
      <rect width="50" height="50" style="fill: none;"/>
      <path id="Initiator" d="M38.95,25.05c0-7.7-6.24-13.95-13.95-13.95s-13.95,6.24-13.95,13.95c0,6.54,4.5,12.03,10.58,13.53v-9.27h-2.88v-4.26h2.88v-1.84c0-4.75,2.15-6.95,6.81-6.95.88,0,2.41.17,3.03.35v3.86c-.33-.03-.9-.05-1.61-.05-2.29,0-3.17.87-3.17,3.12v1.51h4.56l-.78,4.26h-3.77v9.58c6.91-.83,12.26-6.71,12.26-13.84Z"/>
    </g>
  </g>
</svg>