<?xml version="1.0" encoding="UTF-8"?>
<svg id="uuid-d4d7c6d4-d9d5-4efe-8c63-2c21c637996d" data-name="レイヤー_2" xmlns="http://www.w3.org/2000/svg" viewBox="0 0 341.85 78.52">
  <g id="uuid-2c062b29-3a65-400c-bc9e-69b61e754a5a" data-name="レイヤー_1">
    <g>
      <path d="M160.98,25.28c.24-1.28.38-2.59.38-3.93s-.14-2.66-.38-3.93l-15.74,1.77,12.39-9.89c-1.49-2.18-3.38-4.07-5.56-5.56l-9.89,12.39,1.77-15.74c-1.28-.24-2.59-.38-3.93-.38s-2.66.14-3.93.38l1.77,15.74-9.89-12.39c-2.18,1.49-4.07,3.38-5.56,5.56l12.39,9.89-15.74-1.77c-.24,1.28-.38,2.59-.38,3.93s.14,2.66.38,3.93l15.74-1.77-12.39,9.89c1.49,2.18,3.38,4.07,5.56,5.56l9.89-12.39-1.77,15.74c1.28.24,2.59.38,3.93.38s2.66-.14,3.93-.38l-1.77-15.74,9.89,12.39c2.18-1.49,4.07-3.38,5.56-5.56l-12.39-9.89,15.74,1.77Z" style="fill: #c91933;"/>
      <polygon points="31.05 40.18 25.32 35.76 0 74.63 6.08 78.52 31.05 40.18" style="fill: #fff;"/>
      <path d="M43.78,74.6h-7.33c0-12.17-2.47-26.75-14.21-32.19l3.08-6.65c12.08,5.59,18.46,18.32,18.46,38.84Z" style="fill: #fff;"/>
      <rect x="15.28" y="57.2" width="24.57" height="5.79" style="fill: #fff;"/>
      <polygon points="96.6 50.18 80.68 50.18 80.68 44.38 95.51 44.38 96.6 50.18" style="fill: #fff;"/>
      <path d="M88.1,62.13c0-6.46,0-24.28,0-24.28l-7.41-1.98v26.48c0,9.52,5.92,13.14,14,13.08l2.05-6.64c-1.66.17-8.63.44-8.63-6.66Z" style="fill: #fff;"/>
      <path d="M154.17,44.49c-10.56.13-17.78,5.92-17.78,15.45v15.48h7.25v-14.43c0-7.53,5.85-10.14,12.38-9.22l-1.85-7.27Z" style="fill: #fff;"/>
      <path d="M104.44,57.28h18.31c.2-3.64-2.55-7.02-6.96-7.07-4.7-.05-7.55,3.71-7.55,9.67,0,6.16,2.86,8.91,7.39,9.25,4.32.33,6.88-2.01,7.98-4.31l5.44,4.28s-4.17,6.18-12.17,6.4c-5.38.15-10.59-2.14-13.19-6.6-2.99-5.11-2.87-12.48.12-17.69,3.71-6.45,11.48-8.42,17.9-5.52,6.94,3.14,8.6,11.14,7.87,17.25h-25.13v-5.66Z" style="fill: #fff;"/>
      <path d="M68.6,59.45c-2.49-1.06-5.75-2.4-7.34-3.03-2.39-.95-3.41-2.44-2.61-4.3,1.07-2.48,6.08-2.63,10.5,2.35l4.49-5.03s-4.45-4.56-10.16-4.9c-5.62-.33-9.81,1.88-11.38,5.74-1.63,4.02-.51,8.23,4.39,10.41,2.09.93,4.3,1.78,7.08,2.93,2.58,1.06,4.18,1.97,3.78,3.59-.45,1.84-2.48,2.32-5.23,1.9-3.7-.57-6.57-2.39-7.93-3.96l-4.52,5.16c1.71,1.71,6.3,4.66,11.95,5.09,5.57.42,10.74-1.77,12.13-5.86,1.59-4.69-.81-8.24-5.15-10.08Z" style="fill: #fff;"/>
      <path d="M215.27,59.72c0-2.33.4-4.44,1.18-6.34.79-1.9,1.86-3.53,3.21-4.87,1.35-1.35,2.95-2.39,4.8-3.13,1.85-.74,3.81-1.1,5.89-1.1s4.05.37,5.89,1.1c1.85.74,3.45,1.78,4.8,3.13,1.35,1.35,2.42,2.97,3.21,4.87.79,1.9,1.18,4.02,1.18,6.34s-.4,4.46-1.18,6.38c-.79,1.92-1.86,3.57-3.21,4.93-1.35,1.37-2.95,2.44-4.8,3.22-1.85.78-3.81,1.17-5.89,1.17s-4.04-.39-5.89-1.17c-1.85-.77-3.45-1.85-4.8-3.22-1.35-1.37-2.42-3.01-3.21-4.93-.79-1.92-1.18-4.05-1.18-6.38ZM222.32,59.72c0,1.14.16,2.29.49,3.43.33,1.15.82,2.17,1.47,3.07.65.9,1.48,1.63,2.48,2.21,1,.57,2.2.86,3.58.86s2.58-.28,3.58-.86c1-.57,1.83-1.31,2.48-2.21.65-.9,1.14-1.92,1.47-3.07.33-1.14.49-2.29.49-3.43s-.16-2.28-.49-3.4c-.33-1.12-.82-2.13-1.47-3.04-.66-.9-1.48-1.62-2.48-2.18-1-.55-2.2-.83-3.58-.83s-2.58.27-3.58.83c-1,.55-1.83,1.28-2.48,2.18-.66.9-1.15,1.91-1.47,3.04-.33,1.12-.49,2.26-.49,3.4Z" style="fill: #fff;"/>
      <polygon points="182.02 37.85 174.61 35.87 174.61 74.59 182.02 74.59 182.02 37.85" style="fill: #fff;"/>
      <polygon points="208.92 37.85 201.51 35.87 201.51 74.59 208.92 74.59 208.92 37.85" style="fill: #fff;"/>
      <rect x="179.13" y="53.91" width="25.14" height="5.79" style="fill: #fff;"/>
      <path d="M303.46,59.45c-2.49-1.06-5.75-2.4-7.34-3.03-2.39-.95-3.41-2.44-2.61-4.3,1.07-2.48,6.08-2.63,10.5,2.35l4.49-5.03s-4.04-4.61-10.16-4.9c-5.62-.27-9.81,1.88-11.38,5.74-1.63,4.02-.51,8.23,4.39,10.41,2.09.93,4.3,1.78,7.08,2.93,2.58,1.06,4.18,1.97,3.78,3.59-.45,1.84-2.48,2.32-5.23,1.9-3.7-.57-6.57-2.39-7.93-3.96l-4.51,5.16c1.71,1.71,6.3,4.66,11.95,5.09,5.57.42,10.62-1.27,12.01-5.36,1.59-4.69-.69-8.73-5.04-10.58Z" style="fill: #fff;"/>
      <path d="M316.56,57.28h18.31c.2-3.64-2.55-7.02-6.96-7.07-4.7-.05-7.55,3.71-7.55,9.67,0,6.16,2.86,8.91,7.39,9.25,4.32.33,6.88-2.01,7.98-4.31l5.44,4.28s-4.17,6.18-12.17,6.4c-5.38.15-10.59-2.14-13.19-6.6-2.99-5.11-2.87-12.48.12-17.69,3.71-6.45,11.48-8.42,17.9-5.52,6.94,3.14,8.6,11.14,7.87,17.25h-25.13v-5.66Z" style="fill: #fff;"/>
      <path d="M279.01,46.26l-7.41-1.98v17.19c0,4.43-1.61,7.67-6.53,7.67s-6.52-2.79-6.52-7.49v-15.39l-7.41-1.98v18.71c0,7.16,4.45,12.43,13.94,12.43,10.26,0,13.94-6.11,13.94-12.43v-16.73Z" style="fill: #fff;"/>
    </g>
  </g>
</svg>