<?xml version="1.0" encoding="UTF-8"?><svg id="uuid-66b082da-fb3c-488c-b139-c8d5142957ec" xmlns="http://www.w3.org/2000/svg" width="93.75" height="60" viewBox="0 0 93.75 60"><defs><style>.uuid-d3b5eb17-050d-422a-a860-831f94df584e{fill:#fff;}.uuid-e4283e1d-c6b6-4973-a74c-0dfe23f2cd96{fill:none;stroke:#fff;stroke-miterlimit:10;}.uuid-86a7315e-c617-49bf-948d-49f997b026ab{fill:#b11f3a;}</style></defs><g id="uuid-e28d3d33-3e2a-4dd6-9790-e567c833c02d"><rect class="uuid-86a7315e-c617-49bf-948d-49f997b026ab" width="93.75" height="60"/><path class="uuid-d3b5eb17-050d-422a-a860-831f94df584e" d="M33.58,45.44c.62.31,1.45.5,2.46.6-.15.14-.3.33-.44.56-.09.14-.13.17-.21.17-.04,0-.09,0-.22-.02-.8-.12-1.8-.47-2.46-.88-.08-.05-.08-.09.04-.14l.68-.32h-3.02c.32.13.51.22.77.33.09.03.13.07.13.13s-.05.09-.14.11c-.1.02-.22.08-.37.16-.55.28-1.28.51-2.05.63-.07,0-.14.02-.18.02-.11,0-.13-.04-.22-.19-.13-.23-.27-.4-.41-.52.82-.08,1.53-.24,2.03-.44.13-.05.26-.12.41-.23-.75,0-1.04.02-1.09.02-.09,0-.1,0-.1-.11,0-.05.02-.31.02-.88v-1.54c0-.58-.02-.83-.02-.89,0-.09,0-.1.1-.1.06,0,.36.02,1.18.02-.03-.04-.05-.08-.08-.14-.09-.15-.22-.33-.31-.41,1.3-.23,2.03-.61,2.33-1.44h-.76c-.17.21-.36.4-.58.57-.11.08-.16.13-.21.13-.06,0-.11-.06-.21-.18-.12-.13-.26-.23-.4-.3.51-.37.91-.78,1.18-1.26.06-.11.13-.25.17-.4.28.04.5.09.71.14.11.03.15.05.15.1,0,.05-.02.08-.08.13-.07.04-.12.12-.18.24l-.1.17h2.67c.12,0,.18,0,.22-.04.04-.02.08-.04.13-.04.06,0,.12.03.33.18.24.16.3.24.3.31,0,.05-.03.09-.07.12-.06.04-.11.07-.16.16-.15.25-.29.43-.44.64-.1.13-.14.18-.22.18-.05,0-.13-.03-.24-.08-.2-.09-.38-.15-.5-.18.2-.19.4-.42.51-.59h-1.33c.4,1.04,1.64,1.41,2.84,1.52-.11.14-.2.39-.25.58-.08.28-.09.28-.36.23-.25-.04-.49-.11-.71-.18,0,.12-.02.37-.02.82v1.54c0,.58.02.83.02.88,0,.1,0,.11-.1.11-.05,0-.37-.02-1.21-.02l.06.03ZM30.39,40.82q.06.3-.19.43c-.44.23-.96.44-1.4.6-.12.04-.2.08-.24.13s-.08.07-.13.07c-.05,0-.09-.03-.13-.1-.12-.22-.23-.5-.31-.77.23-.04.43-.09.67-.16.52-.17,1.15-.41,1.67-.72,0,.15.04.33.06.51ZM28.72,38.79c.08-.08.1-.09.19-.05.39.16.85.42,1.24.7.04.04.06.05.06.08,0,.02-.02.04-.06.09l-.39.44c-.08.1-.12.11-.19.04-.4-.31-.82-.58-1.22-.76-.05-.03-.07-.04-.07-.07s.02-.05.06-.1l.38-.38ZM30.07,42.57v.38h3.86v-.38h-3.86ZM33.93,43.86v-.38h-3.86v.38h3.86ZM33.93,44.39h-3.86v.39h3.86v-.39ZM33.48,41.93c.43,0,.72,0,.92,0-.65-.27-1.18-.67-1.5-1.23-.32.6-.93,1-1.8,1.24h2.39Z"/><path class="uuid-d3b5eb17-050d-422a-a860-831f94df584e" d="M39.52,39.79c0-.58-.02-.86-.07-1.27.33,0,.6.03.91.06.09,0,.14.05.14.09,0,.08-.03.13-.05.19-.05.11-.06.3-.06.91v1.69h.07c.69,0,.92-.02.97-.02.09,0,.1,0,.1.1v.64c0,.08,0,.09-.1.09-.05,0-.27-.02-.92-.02.38.62.73,1.06,1.22,1.56-.13.16-.26.38-.36.59-.05.11-.09.16-.13.16s-.08-.04-.14-.13c-.26-.38-.51-.79-.73-1.29,0,1.78.06,3.39.06,3.53,0,.09,0,.1-.11.1h-.74c-.09,0-.1,0-.1-.1,0-.14.05-1.62.06-3.3-.27.73-.63,1.42-1.09,2.05-.07.09-.12.14-.16.14-.04,0-.07-.04-.11-.15-.08-.25-.22-.53-.32-.66.65-.75,1.12-1.56,1.45-2.5h-.16c-.7,0-.93.02-.98.02-.09,0-.1,0-.1-.09v-.64c0-.09,0-.1.1-.1.05,0,.28.02.98.02h.37v-1.67ZM38.65,39.18c.11-.04.12-.04.16.05.23.53.38.99.49,1.51.02.09,0,.12-.12.16l-.39.14c-.13.05-.14.04-.16-.05-.1-.54-.25-1.03-.46-1.5-.04-.1-.02-.12.1-.16l.38-.15ZM40.97,39.47c.02-.09.04-.25.05-.39.24.08.52.17.68.25.07.04.1.06.1.11s-.02.07-.05.09c-.05.04-.08.1-.11.2-.11.37-.24.73-.41,1.14-.05.14-.08.19-.13.19-.04,0-.09-.03-.18-.08-.13-.07-.28-.13-.36-.15.19-.47.33-.97.41-1.36ZM44.23,43.55v-3.6c0-.64,0-.92-.07-1.37.34,0,.64.03.95.06.08,0,.14.04.14.1,0,.06-.03.11-.05.18-.05.11-.05.33-.05,1v3.45c.52-.11.73-.17.81-.19s.08,0,.1.09l.11.7c0,.08,0,.09-.09.11-.06.02-.31.05-.93.18v.84c0,1,.02,1.51.02,1.56,0,.09,0,.1-.1.1h-.75c-.09,0-.1,0-.1-.1,0-.05.02-.55.02-1.55v-.67l-1.23.24c-.78.15-1.07.22-1.16.23-.09.02-.11,0-.12-.07l-.12-.71c-.02-.1,0-.1.08-.12s.39-.05,1.17-.2l1.38-.27ZM42.25,41.25s.06-.06.08-.06c.03,0,.04.02.09.05.41.29.88.71,1.24,1.15.06.08.06.1-.03.19l-.44.44c-.1.09-.12.09-.18.02-.37-.47-.77-.89-1.19-1.22-.04-.04-.06-.05-.06-.07,0-.03.03-.05.07-.1l.41-.4ZM42.5,39.2c.08-.07.09-.09.17-.04.45.31.91.7,1.27,1.14.05.06.05.1-.03.17l-.43.42c-.1.1-.12.11-.17.03-.37-.47-.83-.89-1.22-1.18-.06-.04-.07-.09.02-.17l.4-.38Z"/><path class="uuid-d3b5eb17-050d-422a-a860-831f94df584e" d="M49.94,40.11c.68,0,.91-.02.96-.02.09,0,.1,0,.1.1v.64c0,.1,0,.11-.1.11-.05,0-.28-.02-.96-.02h-1.08c-.68,0-.91.02-.96.02-.08,0-.09,0-.09-.11v-.64c0-.09,0-.1.09-.1.05,0,.28.02.96.02h1.08ZM50.76,45.23c0,1.04.02,1.24.02,1.3,0,.09,0,.1-.1.1h-.64c-.09,0-.1,0-.1-.1v-.24h-.94v.41c0,.09,0,.1-.1.1h-.64c-.1,0-.11,0-.11-.1,0-.05.02-.26.02-1.35v-.58c0-.57-.02-.78-.02-.85,0-.09,0-.1.11-.1.05,0,.24.02.82.02h.76c.59,0,.77-.02.83-.02.09,0,.1,0,.1.1,0,.05-.02.27-.02.69v.62ZM49.86,38.88c.59,0,.76-.02.81-.02.1,0,.11,0,.11.1v.59c0,.09,0,.1-.11.1-.05,0-.22-.02-.81-.02h-.76c-.58,0-.76.02-.82.02-.09,0-.1,0-.1-.1v-.59c0-.09,0-.1.1-.1.05,0,.23.02.82.02h.76ZM49.82,41.39c.55,0,.71-.02.76-.02.1,0,.11,0,.11.1v.58c0,.09,0,.1-.11.1-.04,0-.21-.02-.76-.02h-.68c-.55,0-.71.02-.77.02-.09,0-.1,0-.1-.1v-.58c0-.09,0-.1.1-.1.05,0,.22.02.77.02h.68ZM49.82,42.61c.55,0,.71-.02.76-.02.1,0,.11,0,.11.1v.58c0,.09,0,.1-.11.1-.04,0-.21-.02-.76-.02h-.68c-.55,0-.71.02-.77.02-.09,0-.1,0-.1-.1v-.58c0-.09,0-.1.1-.1.05,0,.22.02.77.02h.68ZM49,44.58v.95h.94v-.95h-.94ZM53.8,41.07v.42h.92c.85,0,1.14-.02,1.2-.02.08,0,.09,0,.09.11v.51c0,.08,0,.09-.09.09-.05,0-.34,0-1.2,0h-2.42c-.86,0-1.15,0-1.21,0-.09,0-.1,0-.1-.09v-.51c0-.1,0-.11.1-.11.05,0,.35.02,1.21.02h.63v-.42h-.31c-.77,0-1.03.02-1.08.02-.08,0-.09,0-.09-.1v-.46c0-.09,0-.1.09-.1.05,0,.32.02,1.08.02h.31v-.41h-.44c-.81,0-1.08.02-1.13.02-.09,0-.1,0-.1-.1v-.5c0-.09,0-.1.1-.1.05,0,.32.02,1.13.02h.44c0-.32-.03-.59-.06-.88.34,0,.58.03.89.06.09,0,.14.06.14.1,0,.08-.04.14-.05.22-.03.1-.04.23-.04.5h.7c.81,0,1.09-.02,1.14-.02.09,0,.1,0,.1.1v.5c0,.09,0,.1-.1.1-.05,0-.33-.02-1.14-.02h-.7v.41h.45c.77,0,1.03-.02,1.08-.02.1,0,.11,0,.11.1v.46c0,.09,0,.1-.11.1-.05,0-.31-.02-1.07-.02h-.46ZM55.36,44.48c0,.45,0,.97,0,1.29,0,.34-.05.58-.23.74-.15.14-.35.2-1.01.2-.28,0-.3,0-.34-.21-.05-.23-.11-.41-.23-.61.2.02.45.03.61.03.3,0,.35-.1.35-.28v-.34h-2.19v.32c0,.72.02,1.03.02,1.07,0,.09,0,.1-.1.1h-.68c-.09,0-.1,0-.1-.1,0-.05.02-.32.02-1.05v-2.01c0-.64-.02-.92-.02-.98,0-.09,0-.1.1-.1.06,0,.32.02,1.08.02h1.55c.77,0,1.02-.02,1.07-.02.1,0,.11,0,.11.1,0,.05-.02.4-.02,1.05v.79ZM52.33,43.24v.41h2.19v-.41h-2.19ZM54.52,44.69v-.45h-2.19v.45h2.19Z"/><path class="uuid-d3b5eb17-050d-422a-a860-831f94df584e" d="M59,41.04c-.82,0-1.1.02-1.15.02-.09,0-.09,0-.09-.1v-.7c0-.1,0-.11.09-.11.05,0,.33.02,1.15.02h2.2v-.55c0-.48,0-.78-.06-1.09.33,0,.67.03.98.06.09,0,.13.05.13.1,0,.08-.02.15-.04.23-.04.12-.05.34-.05.68v.57h2.16c.82,0,1.1-.02,1.15-.02.09,0,.1,0,.1.11v.7c0,.09,0,.1-.1.1-.05,0-.33-.02-1.15-.02h-2.08c.18.6.43,1.14.75,1.64.34-.3.67-.61.98-.99.12-.13.21-.27.29-.43.3.19.54.37.7.51.09.08.11.13.11.18,0,.06-.05.11-.13.14-.11.05-.24.15-.46.37-.31.31-.62.59-1.01.9.61.75,1.4,1.35,2.32,1.83-.17.17-.34.4-.49.65-.08.14-.12.21-.17.21-.04,0-.11-.04-.21-.11-1.4-.9-2.3-2.04-2.82-3.56.03,1.14.06,2.28.06,3.3,0,.41-.07.66-.34.82-.22.14-.5.19-1.24.2-.28,0-.26,0-.34-.27-.08-.26-.19-.52-.33-.69.29.03.51.04.7.04.48,0,.58-.05.58-.34v-4.39h-2.2ZM60.81,43.87q.06.28-.16.45c-.69.51-1.35.93-1.96,1.27-.13.07-.22.14-.26.18-.05.06-.1.09-.14.09-.05,0-.1-.04-.13-.12-.12-.21-.27-.52-.39-.82.27-.08.5-.19.73-.3.73-.37,1.5-.84,2.23-1.4,0,.18.05.42.09.64ZM58.94,41.39c.08-.08.1-.09.18-.04.4.27.91.73,1.24,1.11.04.04.05.06.05.09,0,.02-.02.05-.05.09l-.5.5c-.09.09-.12.12-.18.04-.32-.42-.77-.86-1.2-1.18-.04-.04-.06-.05-.06-.07,0-.03.03-.05.08-.11l.43-.43ZM63.44,38.61c.08-.06.11-.05.21,0,.33.22.69.55,1,.86.05.04.06.09-.05.18l-.43.36s-.08.06-.11.06-.05-.03-.09-.07c-.25-.32-.62-.65-.95-.9-.07-.05-.07-.07.03-.15l.41-.34Z"/><line class="uuid-e4283e1d-c6b6-4973-a74c-0dfe23f2cd96" x1="41.99" y1="25.77" x2="51.76" y2="25.77"/><line class="uuid-e4283e1d-c6b6-4973-a74c-0dfe23f2cd96" x1="41.99" y1="19.83" x2="46.88" y2="19.83"/><line class="uuid-e4283e1d-c6b6-4973-a74c-0dfe23f2cd96" x1="41.99" y1="22.8" x2="51.76" y2="22.8"/><polyline class="uuid-e4283e1d-c6b6-4973-a74c-0dfe23f2cd96" points="53.33 19.8 49.54 19.83 49.56 14.66 49.59 14.66 55.41 18.12 55.41 30.11 38.34 30.11 38.34 14.66 47.17 14.66"/></g></svg>