<?xml version="1.0" encoding="UTF-8"?><svg id="uuid-2afb30e9-9a67-4b88-8c2b-b4a39aa4b677" xmlns="http://www.w3.org/2000/svg" width="2150" height="1080" viewBox="0 0 2150 1080"><defs><style>.uuid-c7e57991-5624-4311-b72e-2abc8ac6d94f{fill:#231815;}.uuid-456d9dd8-7345-4c7e-a68c-cbd433931df2{fill:none;}</style></defs><g id="uuid-f909ca4c-6066-427b-9658-cfeaf7204f61"><path class="uuid-c7e57991-5624-4311-b72e-2abc8ac6d94f" d="M1807.8,50.87h1.64v7.75h3.91v1.46h-5.55v-9.2Z"/><path class="uuid-c7e57991-5624-4311-b72e-2abc8ac6d94f" d="M1814.79,51.72c0-.25.09-.47.28-.66s.42-.28.71-.28.53.09.72.27c.19.18.29.4.29.67s-.1.49-.29.67c-.2.18-.44.27-.72.27s-.52-.09-.71-.28c-.19-.19-.28-.4-.28-.66ZM1815.01,53.84h1.56v6.24h-1.56v-6.24Z"/><path class="uuid-c7e57991-5624-4311-b72e-2abc8ac6d94f" d="M1819.38,55.09h-1.18v-1.25h1.18v-.92c0-.37.04-.73.12-1.07.08-.34.22-.64.42-.9.19-.26.45-.47.77-.62.32-.15.72-.23,1.21-.23.17,0,.32,0,.44.02.12.01.24.04.36.07l-.1,1.33c-.09-.03-.18-.05-.28-.06-.1-.02-.21-.03-.32-.03-.23,0-.41.04-.55.13-.14.09-.25.2-.32.34-.07.14-.12.29-.15.46-.03.16-.04.32-.04.48v1.01h1.44v1.25h-1.44v4.99h-1.56v-4.99Z"/><path class="uuid-c7e57991-5624-4311-b72e-2abc8ac6d94f" d="M1829.95,57.04v.21c0,.07,0,.14-.01.21h-4.75c.02.23.08.43.18.62.1.19.23.35.4.48.16.13.35.24.56.32s.42.12.65.12c.39,0,.72-.07.99-.21s.49-.34.66-.59l1.04.83c-.62.83-1.51,1.25-2.68,1.25-.49,0-.93-.08-1.34-.23-.41-.15-.76-.37-1.06-.64-.3-.28-.53-.62-.7-1.02s-.25-.86-.25-1.37.08-.96.25-1.37c.17-.41.4-.76.7-1.05.29-.29.64-.52,1.05-.68.4-.16.84-.24,1.31-.24.43,0,.83.07,1.2.21.37.14.69.36.96.64.27.28.48.63.63,1.05.15.42.23.91.23,1.48ZM1828.39,56.33c0-.2-.03-.39-.08-.57-.06-.18-.15-.34-.27-.48-.12-.14-.28-.25-.46-.33-.19-.08-.41-.12-.66-.12-.47,0-.86.14-1.19.42-.32.28-.5.64-.54,1.09h3.2Z"/><path class="uuid-c7e57991-5624-4311-b72e-2abc8ac6d94f" d="M1834.98,55.09v-1.25h1.09v-1.81h1.53v1.81h1.56v1.25h-1.56v2.9c0,.28.05.51.15.69.1.18.32.27.67.27.1,0,.22-.01.34-.03.12-.02.23-.05.33-.1l.05,1.22c-.14.05-.3.09-.49.12-.19.03-.37.05-.55.05-.42,0-.75-.06-1.01-.18-.26-.12-.47-.28-.62-.48-.15-.2-.26-.44-.31-.7-.06-.26-.08-.55-.08-.85v-2.91h-1.09Z"/><path class="uuid-c7e57991-5624-4311-b72e-2abc8ac6d94f" d="M1844.45,53.66c.41,0,.76.07,1.05.21.29.14.53.33.71.57s.32.5.41.81c.09.3.13.62.13.94v3.9h-1.56v-3.43c0-.18-.01-.37-.04-.57s-.08-.37-.16-.53c-.08-.16-.2-.29-.35-.4-.15-.1-.35-.16-.6-.16s-.47.05-.65.14c-.18.1-.33.22-.45.38-.12.16-.21.34-.27.54-.06.2-.09.4-.09.61v3.41h-1.56v-9.83h1.56v4.46h.03c.06-.13.15-.26.27-.38s.25-.24.41-.34c.16-.1.33-.18.53-.24s.42-.09.65-.09Z"/><path class="uuid-c7e57991-5624-4311-b72e-2abc8ac6d94f" d="M1853.05,59.28h-.04c-.16.28-.41.5-.75.68-.35.18-.74.27-1.18.27-.25,0-.51-.03-.79-.1s-.52-.17-.75-.33c-.23-.15-.42-.35-.57-.6-.15-.25-.23-.55-.23-.92,0-.47.13-.84.4-1.12.26-.28.6-.49,1.02-.64.42-.15.88-.24,1.38-.29.51-.05,1-.07,1.49-.07v-.16c0-.39-.14-.68-.42-.86s-.62-.28-1.01-.28c-.33,0-.65.07-.95.21-.3.14-.55.31-.75.51l-.81-.95c.35-.33.76-.58,1.23-.74.46-.16.93-.25,1.41-.25.55,0,1.01.08,1.37.23.36.16.64.36.85.61.21.25.35.53.44.85.08.31.12.62.12.94v3.8h-1.46v-.79ZM1853.03,57.23h-.35c-.25,0-.52.01-.79.03-.28.02-.53.07-.77.14s-.43.18-.58.31c-.16.13-.23.32-.23.55,0,.15.03.27.1.37s.15.18.25.24.22.1.35.13c.13.03.26.04.39.04.54,0,.94-.14,1.22-.43.28-.29.42-.68.42-1.17v-.22Z"/><path class="uuid-c7e57991-5624-4311-b72e-2abc8ac6d94f" d="M1856.04,55.09v-1.25h1.09v-1.81h1.53v1.81h1.56v1.25h-1.56v2.9c0,.28.05.51.15.69.1.18.32.27.67.27.1,0,.22-.01.34-.03.12-.02.23-.05.33-.1l.05,1.22c-.14.05-.3.09-.49.12-.19.03-.37.05-.55.05-.42,0-.75-.06-1.01-.18-.26-.12-.47-.28-.62-.48-.15-.2-.26-.44-.31-.7-.06-.26-.08-.55-.08-.85v-2.91h-1.09Z"/><path class="uuid-c7e57991-5624-4311-b72e-2abc8ac6d94f" d="M1871.73,57.04v.21c0,.07,0,.14-.01.21h-4.75c.02.23.08.43.18.62.1.19.23.35.4.48.16.13.35.24.56.32s.42.12.65.12c.39,0,.72-.07.99-.21s.49-.34.66-.59l1.04.83c-.62.83-1.51,1.25-2.68,1.25-.49,0-.93-.08-1.34-.23-.41-.15-.76-.37-1.06-.64-.3-.28-.53-.62-.7-1.02s-.25-.86-.25-1.37.08-.96.25-1.37c.17-.41.4-.76.7-1.05.29-.29.64-.52,1.05-.68.4-.16.84-.24,1.31-.24.43,0,.83.07,1.2.21.37.14.69.36.96.64.27.28.48.63.63,1.05.15.42.23.91.23,1.48ZM1870.17,56.33c0-.2-.03-.39-.08-.57-.06-.18-.15-.34-.27-.48-.12-.14-.28-.25-.46-.33-.19-.08-.41-.12-.66-.12-.47,0-.86.14-1.19.42-.32.28-.5.64-.54,1.09h3.2Z"/><path class="uuid-c7e57991-5624-4311-b72e-2abc8ac6d94f" d="M1873.85,53.84h1.48v1h.03c.14-.31.38-.59.72-.83s.75-.36,1.22-.36c.41,0,.76.07,1.05.21.29.14.53.33.71.57.19.23.32.5.41.81.09.3.13.62.13.94v3.9h-1.56v-3.46c0-.18-.01-.37-.04-.57-.03-.2-.08-.38-.17-.54-.09-.16-.21-.29-.36-.4-.15-.1-.35-.16-.6-.16s-.47.05-.65.15c-.18.1-.33.23-.45.38-.12.16-.21.34-.27.54s-.09.41-.09.62v3.43h-1.56v-6.24Z"/><path class="uuid-c7e57991-5624-4311-b72e-2abc8ac6d94f" d="M1882.01,53.84h1.5v1.04h.03c.17-.36.42-.66.73-.88.31-.23.68-.34,1.09-.34.06,0,.13,0,.2,0,.07,0,.13.02.18.03v1.43c-.1-.03-.19-.04-.27-.05-.07,0-.15-.01-.21-.01-.36,0-.64.06-.86.19-.22.13-.39.29-.51.47-.12.18-.2.37-.25.56s-.06.34-.06.46v3.34h-1.56v-6.24Z"/><path class="uuid-c7e57991-5624-4311-b72e-2abc8ac6d94f" d="M1887.17,51.72c0-.25.09-.47.28-.66s.42-.28.71-.28.53.09.72.27c.19.18.29.4.29.67s-.1.49-.29.67c-.2.18-.44.27-.72.27s-.52-.09-.71-.28c-.19-.19-.28-.4-.28-.66ZM1887.39,53.84h1.56v6.24h-1.56v-6.24Z"/><path class="uuid-c7e57991-5624-4311-b72e-2abc8ac6d94f" d="M1895.67,55.57c-.12-.17-.3-.32-.55-.44-.24-.12-.49-.18-.74-.18-.29,0-.54.06-.75.18-.22.12-.4.27-.54.46s-.25.41-.32.64-.1.48-.1.72.04.48.11.72c.07.24.18.45.33.64.15.19.33.34.55.46.22.12.48.18.77.18.24,0,.49-.05.73-.14.24-.1.44-.23.58-.42l.98.99c-.26.28-.59.49-.99.64-.4.15-.84.23-1.31.23s-.9-.07-1.31-.22c-.41-.15-.77-.36-1.08-.65s-.55-.63-.73-1.04c-.18-.41-.27-.87-.27-1.39s.09-.96.27-1.36.42-.75.72-1.04c.3-.29.66-.51,1.06-.66.4-.16.83-.23,1.29-.23s.9.09,1.33.26c.43.17.77.41,1.02.72l-1.07.94Z"/><path class="uuid-c7e57991-5624-4311-b72e-2abc8ac6d94f" d="M1901.85,53.66c.41,0,.76.07,1.05.21.29.14.53.33.71.57s.32.5.41.81c.09.3.13.62.13.94v3.9h-1.56v-3.43c0-.18-.01-.37-.04-.57s-.08-.37-.16-.53c-.08-.16-.2-.29-.35-.4-.15-.1-.35-.16-.6-.16s-.47.05-.65.14c-.18.1-.33.22-.45.38-.12.16-.21.34-.27.54-.06.2-.09.4-.09.61v3.41h-1.56v-9.83h1.56v4.46h.03c.06-.13.15-.26.27-.38s.25-.24.41-.34c.16-.1.33-.18.53-.24s.42-.09.65-.09Z"/><path class="uuid-c7e57991-5624-4311-b72e-2abc8ac6d94f" d="M1909.46,53.84h1.73l1.74,4.54h.03l1.55-4.54h1.62l-2.95,7.58c-.11.29-.23.54-.36.76-.13.22-.29.41-.47.56-.18.15-.4.27-.64.34-.25.08-.54.12-.89.12-.13,0-.26,0-.4-.02-.13-.01-.27-.04-.41-.07l.13-1.35c.1.03.21.06.31.07s.19.02.28.02c.16,0,.3-.02.42-.06.11-.04.21-.1.29-.18s.15-.18.21-.31c.06-.12.13-.26.2-.43l.31-.79-2.68-6.24Z"/><path class="uuid-c7e57991-5624-4311-b72e-2abc8ac6d94f" d="M1917.14,56.93c0-.49.09-.94.27-1.35.18-.4.42-.75.72-1.03.3-.29.66-.51,1.08-.66.42-.16.86-.23,1.33-.23s.91.08,1.33.23c.42.16.78.38,1.08.66.3.29.54.63.72,1.03.18.4.27.85.27,1.35s-.09.94-.27,1.35-.42.76-.72,1.05c-.3.29-.66.52-1.08.68s-.86.25-1.33.25-.91-.08-1.33-.25-.78-.39-1.08-.68c-.3-.29-.54-.64-.72-1.05s-.27-.86-.27-1.35ZM1918.73,56.93c0,.24.04.49.11.73.07.24.18.46.33.65.15.19.33.35.56.47.23.12.49.18.81.18s.58-.06.81-.18c.23-.12.41-.28.56-.47.15-.19.26-.41.33-.65.07-.24.11-.49.11-.73s-.04-.48-.11-.72c-.07-.24-.18-.45-.33-.64-.15-.19-.33-.34-.56-.46-.23-.12-.49-.18-.81-.18s-.58.06-.81.18c-.23.12-.41.27-.56.46-.15.19-.26.41-.33.64-.07.24-.11.48-.11.72Z"/><path class="uuid-c7e57991-5624-4311-b72e-2abc8ac6d94f" d="M1931.71,60.08h-1.48v-1h-.03c-.14.31-.38.59-.72.83s-.75.36-1.22.36c-.41,0-.76-.07-1.05-.21-.29-.14-.53-.33-.72-.57-.19-.23-.32-.5-.41-.81-.09-.3-.13-.62-.13-.94v-3.9h1.56v3.46c0,.18.01.37.04.57s.08.38.17.54c.09.16.21.29.36.4.15.1.35.16.6.16s.46-.05.64-.15.34-.23.46-.38c.12-.16.21-.34.27-.54s.09-.41.09-.62v-3.43h1.56v6.24Z"/><path class="uuid-c7e57991-5624-4311-b72e-2abc8ac6d94f" d="M1934.17,53.84h1.5v1.04h.03c.17-.36.42-.66.73-.88.31-.23.68-.34,1.09-.34.06,0,.13,0,.2,0,.07,0,.13.02.18.03v1.43c-.1-.03-.19-.04-.27-.05-.07,0-.15-.01-.21-.01-.36,0-.64.06-.86.19-.22.13-.39.29-.51.47-.12.18-.2.37-.25.56s-.06.34-.06.46v3.34h-1.56v-6.24Z"/><path class="uuid-c7e57991-5624-4311-b72e-2abc8ac6d94f" d="M1946.79,53.66c.41,0,.76.07,1.05.21.29.14.53.33.71.57s.32.5.41.81c.09.3.13.62.13.94v3.9h-1.56v-3.43c0-.18-.01-.37-.04-.57s-.08-.37-.16-.53c-.08-.16-.2-.29-.35-.4-.15-.1-.35-.16-.6-.16s-.47.05-.65.14c-.18.1-.33.22-.45.38-.12.16-.21.34-.27.54-.06.2-.09.4-.09.61v3.41h-1.56v-9.83h1.56v4.46h.03c.06-.13.15-.26.27-.38s.25-.24.41-.34c.16-.1.33-.18.53-.24s.42-.09.65-.09Z"/><path class="uuid-c7e57991-5624-4311-b72e-2abc8ac6d94f" d="M1957.48,57.04v.21c0,.07,0,.14-.01.21h-4.75c.02.23.08.43.18.62.1.19.23.35.4.48.16.13.35.24.56.32s.42.12.65.12c.39,0,.72-.07.99-.21s.49-.34.66-.59l1.04.83c-.62.83-1.51,1.25-2.68,1.25-.49,0-.93-.08-1.34-.23-.41-.15-.76-.37-1.06-.64-.3-.28-.53-.62-.7-1.02s-.25-.86-.25-1.37.08-.96.25-1.37c.17-.41.4-.76.7-1.05.29-.29.64-.52,1.05-.68.4-.16.84-.24,1.31-.24.43,0,.83.07,1.2.21.37.14.69.36.96.64.27.28.48.63.63,1.05.15.42.23.91.23,1.48ZM1955.92,56.33c0-.2-.03-.39-.08-.57-.06-.18-.15-.34-.27-.48-.12-.14-.28-.25-.46-.33-.19-.08-.41-.12-.66-.12-.47,0-.86.14-1.19.42-.32.28-.5.64-.54,1.09h3.2Z"/><path class="uuid-c7e57991-5624-4311-b72e-2abc8ac6d94f" d="M1963.42,59.28h-.04c-.16.28-.41.5-.75.68-.35.18-.74.27-1.18.27-.25,0-.51-.03-.79-.1s-.52-.17-.75-.33c-.23-.15-.42-.35-.57-.6-.15-.25-.23-.55-.23-.92,0-.47.13-.84.4-1.12.26-.28.6-.49,1.02-.64.42-.15.88-.24,1.38-.29.51-.05,1-.07,1.49-.07v-.16c0-.39-.14-.68-.42-.86s-.62-.28-1.01-.28c-.33,0-.65.07-.95.21-.3.14-.55.31-.75.51l-.81-.95c.35-.33.76-.58,1.23-.74.46-.16.93-.25,1.41-.25.55,0,1.01.08,1.37.23.36.16.64.36.85.61.21.25.35.53.44.85.08.31.12.62.12.94v3.8h-1.46v-.79ZM1963.39,57.23h-.35c-.25,0-.52.01-.79.03-.28.02-.53.07-.77.14s-.43.18-.58.31c-.16.13-.23.32-.23.55,0,.15.03.27.1.37s.15.18.25.24.22.1.35.13c.13.03.26.04.39.04.54,0,.94-.14,1.22-.43.28-.29.42-.68.42-1.17v-.22Z"/><path class="uuid-c7e57991-5624-4311-b72e-2abc8ac6d94f" d="M1967.29,53.84h1.5v1.04h.03c.17-.36.42-.66.73-.88.31-.23.68-.34,1.09-.34.06,0,.13,0,.2,0,.07,0,.13.02.18.03v1.43c-.1-.03-.19-.04-.27-.05-.07,0-.15-.01-.21-.01-.36,0-.64.06-.86.19-.22.13-.39.29-.51.47-.12.18-.2.37-.25.56s-.06.34-.06.46v3.34h-1.56v-6.24Z"/><path class="uuid-c7e57991-5624-4311-b72e-2abc8ac6d94f" d="M1972.21,55.09v-1.25h1.09v-1.81h1.53v1.81h1.56v1.25h-1.56v2.9c0,.28.05.51.15.69.1.18.32.27.67.27.1,0,.22-.01.34-.03.12-.02.23-.05.33-.1l.05,1.22c-.14.05-.3.09-.49.12-.19.03-.37.05-.55.05-.42,0-.75-.06-1.01-.18-.26-.12-.47-.28-.62-.48-.15-.2-.26-.44-.31-.7-.06-.26-.08-.55-.08-.85v-2.91h-1.09Z"/><path class="uuid-c7e57991-5624-4311-b72e-2abc8ac6d94f" d="M1978.06,59.17c0-.28.1-.52.31-.71.2-.2.45-.3.73-.3s.52.1.73.29c.21.19.31.42.31.7s-.1.52-.31.71c-.2.2-.45.3-.73.3-.14,0-.27-.03-.4-.08s-.24-.12-.33-.21c-.1-.09-.17-.19-.23-.31-.06-.12-.08-.25-.08-.39Z"/><path class="uuid-c7e57991-5624-4311-b72e-2abc8ac6d94f" d="M299.68,874.25c0-.74.12-1.4.37-2,.25-.59.59-1.1,1.03-1.51.44-.42.96-.74,1.56-.96.6-.23,1.26-.34,1.97-.34s1.38.11,1.99.34c.61.23,1.13.55,1.57.96s.79.92,1.03,1.51c.25.59.37,1.26.37,2s-.12,1.38-.37,1.97c-.25.59-.59,1.1-1.03,1.53-.44.43-.97.76-1.57,1-.61.24-1.27.36-1.99.36s-1.37-.12-1.97-.36c-.6-.24-1.12-.57-1.56-1-.44-.43-.78-.94-1.03-1.53s-.37-1.25-.37-1.97ZM301.47,874.25c0,.49.08.95.23,1.36.15.41.37.77.65,1.07s.62.54,1,.71.81.25,1.28.25.9-.08,1.29-.25c.39-.17.73-.41,1.01-.71.28-.3.5-.66.65-1.07.15-.41.23-.86.23-1.36s-.08-.92-.23-1.33c-.15-.41-.37-.76-.64-1.07-.28-.3-.61-.54-1-.71s-.82-.26-1.3-.26-.91.09-1.29.26c-.39.17-.72.41-.99.71-.28.3-.49.66-.64,1.07-.15.41-.23.85-.23,1.33Z"/><path class="uuid-c7e57991-5624-4311-b72e-2abc8ac6d94f" d="M311.74,872.64h1.5v1.04h.03c.17-.36.42-.66.73-.88.31-.23.68-.34,1.09-.34.06,0,.13,0,.2,0,.07,0,.13.02.18.03v1.43c-.1-.03-.19-.04-.27-.05-.07,0-.15-.01-.21-.01-.36,0-.64.07-.86.2s-.39.29-.51.47c-.12.18-.2.37-.25.56-.04.19-.06.34-.06.46v3.34h-1.56v-6.24Z"/><path class="uuid-c7e57991-5624-4311-b72e-2abc8ac6d94f" d="M323.45,878.88h-1.48v-.94h-.03c-.22.36-.52.64-.9.83-.39.19-.8.29-1.24.29-.48,0-.9-.09-1.28-.27-.38-.18-.7-.42-.96-.71-.26-.3-.47-.65-.61-1.05-.14-.4-.21-.83-.21-1.29s.07-.89.22-1.29c.15-.4.36-.75.62-1.04.27-.29.59-.53.96-.7.37-.17.78-.25,1.22-.25.29,0,.54.03.77.1.23.06.42.15.59.24.17.1.31.2.44.31.12.11.22.22.3.33h.04v-4.38h1.56v9.83ZM318.32,875.73c0,.24.04.49.11.73s.18.46.33.65c.15.19.33.35.56.47.23.12.49.18.79.18.29,0,.54-.06.77-.18.23-.12.42-.27.58-.46.16-.19.28-.4.36-.64.08-.24.12-.48.12-.72s-.04-.48-.12-.73-.2-.46-.36-.65c-.16-.19-.35-.35-.58-.47-.23-.12-.48-.18-.77-.18-.3,0-.57.06-.79.18-.23.12-.41.27-.56.46s-.26.41-.33.64-.11.48-.11.72Z"/><path class="uuid-c7e57991-5624-4311-b72e-2abc8ac6d94f" d="M331.89,875.84v.21c0,.07,0,.14-.01.21h-4.75c.02.23.08.43.18.62s.23.35.4.48c.16.13.35.24.56.32s.42.12.65.12c.39,0,.72-.07.99-.21.27-.14.49-.34.66-.59l1.04.83c-.62.83-1.51,1.25-2.68,1.25-.49,0-.93-.08-1.34-.23s-.76-.37-1.06-.64c-.3-.28-.53-.62-.7-1.02-.17-.4-.25-.86-.25-1.37s.08-.96.25-1.37.4-.76.7-1.05c.29-.29.64-.52,1.05-.68.4-.16.84-.24,1.31-.24.43,0,.83.07,1.2.21.37.14.69.36.96.64.27.28.48.63.63,1.05.15.42.23.91.23,1.48ZM330.33,875.14c0-.2-.03-.39-.08-.57-.06-.18-.15-.34-.27-.48-.12-.14-.28-.25-.46-.33-.19-.08-.41-.12-.66-.12-.47,0-.86.14-1.19.42-.32.28-.5.64-.54,1.09h3.2Z"/><path class="uuid-c7e57991-5624-4311-b72e-2abc8ac6d94f" d="M334,872.64h1.5v1.04h.03c.17-.36.42-.66.73-.88.31-.23.68-.34,1.09-.34.06,0,.13,0,.2,0,.07,0,.13.02.18.03v1.43c-.1-.03-.19-.04-.27-.05-.07,0-.15-.01-.21-.01-.36,0-.64.07-.86.2s-.39.29-.51.47c-.12.18-.2.37-.25.56-.04.19-.06.34-.06.46v3.34h-1.56v-6.24Z"/><path class="uuid-c7e57991-5624-4311-b72e-2abc8ac6d94f" d="M350.6,872.46c.41,0,.76.07,1.05.21.29.14.53.33.71.57.19.23.32.5.41.81.09.3.13.62.13.94v3.9h-1.56v-3.46c0-.18-.01-.37-.04-.57s-.08-.38-.17-.54c-.09-.16-.21-.29-.36-.4-.15-.1-.35-.16-.6-.16s-.45.05-.62.16-.32.24-.43.4c-.11.17-.19.35-.25.55-.05.2-.08.41-.08.6v3.41h-1.56v-3.77c0-.39-.09-.71-.28-.97-.19-.26-.48-.38-.88-.38-.23,0-.44.05-.61.15s-.31.23-.42.38c-.11.16-.19.34-.25.54-.06.2-.08.41-.08.62v3.43h-1.56v-6.24h1.48v1h.03c.07-.16.16-.3.28-.44.12-.14.26-.26.42-.38.16-.11.34-.2.55-.27s.44-.1.69-.1c.49,0,.89.11,1.21.33.32.22.57.5.74.86.21-.38.49-.67.83-.88s.75-.31,1.22-.31Z"/><path class="uuid-c7e57991-5624-4311-b72e-2abc8ac6d94f" d="M359.2,878.09h-.04c-.16.28-.41.5-.75.68s-.74.27-1.18.27c-.25,0-.51-.03-.79-.1s-.52-.17-.75-.33c-.23-.15-.42-.35-.57-.6-.15-.25-.23-.55-.23-.92,0-.47.13-.84.4-1.12.26-.28.6-.49,1.02-.64s.88-.25,1.38-.29c.51-.05,1-.07,1.49-.07v-.16c0-.39-.14-.68-.42-.86-.28-.19-.62-.28-1.01-.28-.33,0-.65.07-.95.21-.3.14-.55.31-.75.51l-.81-.95c.35-.33.76-.58,1.23-.74.46-.16.93-.25,1.41-.25.55,0,1.01.08,1.37.23.36.16.64.36.85.61s.35.53.44.84c.08.31.12.62.12.94v3.8h-1.46v-.79ZM359.17,876.03h-.35c-.25,0-.52.01-.79.03-.28.02-.53.07-.77.14s-.43.18-.58.31c-.16.13-.23.32-.23.55,0,.15.03.27.1.37.06.1.15.18.25.24s.22.1.35.13c.13.03.26.04.39.04.54,0,.94-.14,1.22-.43.28-.29.42-.68.42-1.17v-.22Z"/><path class="uuid-c7e57991-5624-4311-b72e-2abc8ac6d94f" d="M369.43,878.88h-1.48v-.94h-.03c-.22.36-.52.64-.9.83-.39.19-.8.29-1.24.29-.48,0-.9-.09-1.28-.27-.38-.18-.7-.42-.96-.71-.26-.3-.47-.65-.61-1.05-.14-.4-.21-.83-.21-1.29s.07-.89.22-1.29c.15-.4.36-.75.62-1.04.27-.29.59-.53.96-.7.37-.17.78-.25,1.22-.25.29,0,.54.03.77.1.23.06.42.15.59.24.17.1.31.2.44.31.12.11.22.22.3.33h.04v-4.38h1.56v9.83ZM364.3,875.73c0,.24.04.49.11.73s.18.46.33.65c.15.19.33.35.56.47.23.12.49.18.79.18.29,0,.54-.06.77-.18.23-.12.42-.27.58-.46.16-.19.28-.4.36-.64.08-.24.12-.48.12-.72s-.04-.48-.12-.73-.2-.46-.36-.65c-.16-.19-.35-.35-.58-.47-.23-.12-.48-.18-.77-.18-.3,0-.57.06-.79.18-.23.12-.41.27-.56.46s-.26.41-.33.64-.11.48-.11.72Z"/><path class="uuid-c7e57991-5624-4311-b72e-2abc8ac6d94f" d="M377.87,875.84v.21c0,.07,0,.14-.01.21h-4.75c.02.23.08.43.18.62s.23.35.4.48c.16.13.35.24.56.32s.42.12.65.12c.39,0,.72-.07.99-.21.27-.14.49-.34.66-.59l1.04.83c-.62.83-1.51,1.25-2.68,1.25-.49,0-.93-.08-1.34-.23s-.76-.37-1.06-.64c-.3-.28-.53-.62-.7-1.02-.17-.4-.25-.86-.25-1.37s.08-.96.25-1.37.4-.76.7-1.05c.29-.29.64-.52,1.05-.68.4-.16.84-.24,1.31-.24.43,0,.83.07,1.2.21.37.14.69.36.96.64.27.28.48.63.63,1.05.15.42.23.91.23,1.48ZM376.31,875.14c0-.2-.03-.39-.08-.57-.06-.18-.15-.34-.27-.48-.12-.14-.28-.25-.46-.33-.19-.08-.41-.12-.66-.12-.47,0-.86.14-1.19.42-.32.28-.5.64-.54,1.09h3.2Z"/><path class="uuid-c7e57991-5624-4311-b72e-2abc8ac6d94f" d="M387.27,872.46c.41,0,.76.07,1.05.21.29.14.53.33.71.57.19.23.32.5.41.81.09.3.13.62.13.94v3.9h-1.56v-3.43c0-.18-.01-.37-.04-.57-.03-.19-.08-.37-.16-.53-.08-.16-.2-.29-.35-.4-.15-.1-.35-.16-.6-.16s-.47.05-.65.14c-.18.1-.33.22-.45.38-.12.16-.21.34-.27.54-.06.2-.09.4-.09.61v3.41h-1.56v-9.83h1.56v4.46h.03c.06-.13.15-.26.27-.38.12-.13.25-.24.41-.34.16-.1.33-.18.53-.24.2-.06.42-.09.65-.09Z"/><path class="uuid-c7e57991-5624-4311-b72e-2abc8ac6d94f" d="M391.61,875.73c0-.49.09-.94.27-1.35.18-.4.42-.75.72-1.03.3-.29.66-.51,1.08-.66.42-.16.86-.23,1.33-.23s.91.08,1.33.23c.42.16.78.38,1.08.66.3.29.54.63.72,1.03.18.4.27.85.27,1.35s-.09.94-.27,1.35c-.18.41-.42.76-.72,1.05-.3.29-.66.52-1.08.68s-.86.25-1.33.25-.91-.08-1.33-.25-.78-.39-1.08-.68c-.3-.29-.54-.64-.72-1.05-.18-.41-.27-.86-.27-1.35ZM393.2,875.73c0,.24.04.49.11.73.07.24.18.46.33.65.15.19.33.35.56.47.23.12.49.18.81.18s.58-.06.81-.18c.23-.12.41-.28.56-.47.15-.19.26-.41.33-.65.07-.24.11-.49.11-.73s-.04-.48-.11-.72c-.07-.24-.18-.45-.33-.64-.15-.19-.33-.34-.56-.46-.23-.12-.49-.18-.81-.18s-.58.06-.81.18c-.23.12-.41.27-.56.46-.15.19-.26.41-.33.64-.07.24-.11.48-.11.72Z"/><path class="uuid-c7e57991-5624-4311-b72e-2abc8ac6d94f" d="M406.18,878.88h-1.48v-1h-.03c-.14.31-.38.59-.72.83s-.75.36-1.22.36c-.41,0-.76-.07-1.05-.21-.29-.14-.53-.33-.72-.57-.19-.23-.32-.5-.41-.81-.09-.3-.13-.62-.13-.94v-3.9h1.56v3.46c0,.18.01.37.04.57.03.2.08.38.17.54.09.16.21.29.36.4.15.1.35.16.6.16s.46-.05.64-.15c.19-.1.34-.23.46-.38.12-.16.21-.34.27-.54s.09-.41.09-.62v-3.43h1.56v6.24Z"/><path class="uuid-c7e57991-5624-4311-b72e-2abc8ac6d94f" d="M412.15,874.3c-.14-.18-.33-.34-.57-.47-.24-.13-.51-.2-.79-.2-.25,0-.48.05-.69.16s-.31.28-.31.52.12.41.34.51c.23.1.57.2,1.01.31.23.05.47.12.71.21.24.09.46.2.65.34.19.14.35.32.47.53.12.21.18.47.18.77,0,.38-.07.7-.21.97-.14.26-.33.48-.57.64s-.52.28-.83.36c-.32.07-.64.11-.98.11-.49,0-.96-.09-1.42-.27-.46-.18-.84-.43-1.14-.76l1.03-.96c.17.23.4.41.68.56.28.15.58.22.92.22.11,0,.23-.01.34-.04s.23-.07.33-.12c.1-.06.18-.13.24-.23.06-.1.09-.21.09-.35,0-.26-.12-.45-.36-.56-.24-.11-.6-.23-1.07-.34-.23-.05-.46-.12-.68-.2s-.42-.19-.59-.33c-.17-.13-.31-.3-.42-.5-.1-.2-.16-.45-.16-.74,0-.35.07-.65.21-.9.14-.25.33-.46.57-.62.23-.16.5-.28.79-.36.29-.08.6-.12.91-.12.45,0,.89.08,1.32.23.43.16.77.39,1.02.72l-1.01.9Z"/><path class="uuid-c7e57991-5624-4311-b72e-2abc8ac6d94f" d="M421.09,875.84v.21c0,.07,0,.14-.01.21h-4.75c.02.23.08.43.18.62s.23.35.4.48c.16.13.35.24.56.32s.42.12.65.12c.39,0,.72-.07.99-.21.27-.14.49-.34.66-.59l1.04.83c-.62.83-1.51,1.25-2.68,1.25-.49,0-.93-.08-1.34-.23s-.76-.37-1.06-.64c-.3-.28-.53-.62-.7-1.02-.17-.4-.25-.86-.25-1.37s.08-.96.25-1.37.4-.76.7-1.05c.29-.29.64-.52,1.05-.68.4-.16.84-.24,1.31-.24.43,0,.83.07,1.2.21.37.14.69.36.96.64.27.28.48.63.63,1.05.15.42.23.91.23,1.48ZM419.53,875.14c0-.2-.03-.39-.08-.57-.06-.18-.15-.34-.27-.48-.12-.14-.28-.25-.46-.33-.19-.08-.41-.12-.66-.12-.47,0-.86.14-1.19.42-.32.28-.5.64-.54,1.09h3.2Z"/><path class="uuid-c7e57991-5624-4311-b72e-2abc8ac6d94f" d="M426.13,872.64h1.69l1.3,4.47h.03l1.34-4.47h1.66l1.35,4.47h.03l1.33-4.47h1.62l-2.16,6.24h-1.59l-1.42-4.37h-.03l-1.4,4.37h-1.59l-2.17-6.24Z"/><path class="uuid-c7e57991-5624-4311-b72e-2abc8ac6d94f" d="M437.91,870.52c0-.25.09-.47.28-.66.19-.19.42-.28.71-.28s.53.09.72.27c.19.18.29.4.29.67s-.1.49-.29.67c-.2.18-.44.27-.72.27s-.52-.09-.71-.28-.28-.41-.28-.66ZM438.13,872.64h1.56v6.24h-1.56v-6.24Z"/><path class="uuid-c7e57991-5624-4311-b72e-2abc8ac6d94f" d="M441.34,873.89v-1.25h1.09v-1.81h1.53v1.81h1.56v1.25h-1.56v2.9c0,.28.05.51.15.69s.32.27.67.27c.1,0,.22-.01.34-.03.12-.02.23-.05.33-.1l.05,1.22c-.14.05-.3.09-.49.12-.19.03-.37.05-.55.05-.42,0-.75-.06-1.01-.18-.26-.12-.47-.28-.62-.48-.15-.2-.26-.44-.31-.7-.06-.26-.08-.55-.08-.85v-2.91h-1.09Z"/><path class="uuid-c7e57991-5624-4311-b72e-2abc8ac6d94f" d="M450.81,872.46c.41,0,.76.07,1.05.21.29.14.53.33.71.57.19.23.32.5.41.81.09.3.13.62.13.94v3.9h-1.56v-3.43c0-.18-.01-.37-.04-.57-.03-.19-.08-.37-.16-.53-.08-.16-.2-.29-.35-.4-.15-.1-.35-.16-.6-.16s-.47.05-.65.14c-.18.1-.33.22-.45.38-.12.16-.21.34-.27.54-.06.2-.09.4-.09.61v3.41h-1.56v-9.83h1.56v4.46h.03c.06-.13.15-.26.27-.38.12-.13.25-.24.41-.34.16-.1.33-.18.53-.24.2-.06.42-.09.65-.09Z"/><path class="uuid-c7e57991-5624-4311-b72e-2abc8ac6d94f" d="M303.92,894.09h-.04c-.16.28-.41.5-.75.68s-.74.27-1.18.27c-.25,0-.51-.03-.79-.1s-.52-.17-.75-.33c-.23-.15-.42-.35-.57-.6-.15-.25-.23-.55-.23-.92,0-.47.13-.84.4-1.12.26-.28.6-.49,1.02-.64s.88-.25,1.38-.29c.51-.05,1-.07,1.49-.07v-.16c0-.39-.14-.68-.42-.86-.28-.19-.62-.28-1.01-.28-.33,0-.65.07-.95.21-.3.14-.55.31-.75.51l-.81-.95c.35-.33.76-.58,1.23-.74.46-.16.93-.25,1.41-.25.55,0,1.01.08,1.37.23.36.16.64.36.85.61s.35.53.44.84c.08.31.12.62.12.94v3.8h-1.46v-.79ZM303.9,892.03h-.35c-.25,0-.52.01-.79.03-.28.02-.53.07-.77.14s-.43.18-.58.31c-.16.13-.23.32-.23.55,0,.15.03.27.1.37.06.1.15.18.25.24s.22.1.35.13c.13.03.26.04.39.04.54,0,.94-.14,1.22-.43.28-.29.42-.68.42-1.17v-.22Z"/><path class="uuid-c7e57991-5624-4311-b72e-2abc8ac6d94f" d="M315.25,888.46c.41,0,.76.07,1.05.21.29.14.53.33.71.57.19.23.32.5.41.81.09.3.13.62.13.94v3.9h-1.56v-3.46c0-.18-.01-.37-.04-.57s-.08-.38-.17-.54c-.09-.16-.21-.29-.36-.4-.15-.1-.35-.16-.6-.16s-.45.05-.62.16-.32.24-.43.4c-.11.17-.19.35-.25.55-.05.2-.08.41-.08.6v3.41h-1.56v-3.77c0-.39-.09-.71-.28-.97-.19-.26-.48-.38-.88-.38-.23,0-.44.05-.61.15s-.31.23-.42.38c-.11.16-.19.34-.25.54-.06.2-.08.41-.08.62v3.43h-1.56v-6.24h1.48v1h.03c.07-.16.16-.3.28-.44.12-.14.26-.26.42-.38.16-.11.34-.2.55-.27s.44-.1.69-.1c.49,0,.89.11,1.21.33.32.22.57.5.74.86.21-.38.49-.67.83-.88s.75-.31,1.22-.31Z"/><path class="uuid-c7e57991-5624-4311-b72e-2abc8ac6d94f" d="M321.46,888.64v.87h.04c.08-.12.18-.25.31-.37s.28-.24.46-.34c.18-.1.39-.18.62-.25s.49-.1.77-.1c.44,0,.85.08,1.22.25.37.17.69.4.96.7.27.29.48.64.62,1.04.15.4.22.83.22,1.29s-.07.89-.21,1.29c-.14.4-.35.75-.61,1.05-.26.3-.58.54-.96.71-.38.18-.8.27-1.28.27-.44,0-.85-.09-1.22-.27-.37-.18-.65-.43-.85-.74h-.03v3.95h-1.56v-9.36h1.5ZM325.1,891.73c0-.24-.04-.48-.11-.72s-.18-.45-.33-.64-.33-.34-.56-.46c-.23-.12-.49-.18-.79-.18-.29,0-.54.06-.77.18-.23.12-.42.28-.58.47-.16.19-.28.41-.36.65s-.12.49-.12.73.04.48.12.72c.08.24.2.45.36.64.16.19.35.34.58.46.23.12.48.18.77.18.3,0,.57-.06.79-.18.23-.12.41-.28.56-.47.15-.19.26-.41.33-.65s.11-.49.11-.73Z"/><path class="uuid-c7e57991-5624-4311-b72e-2abc8ac6d94f" d="M328.83,885.05h1.56v9.83h-1.56v-9.83Z"/><path class="uuid-c7e57991-5624-4311-b72e-2abc8ac6d94f" d="M338.84,891.84v.21c0,.07,0,.14-.01.21h-4.75c.02.23.08.43.18.62s.23.35.4.48c.16.13.35.24.56.32s.42.12.65.12c.39,0,.72-.07.99-.21.27-.14.49-.34.66-.59l1.04.83c-.62.83-1.51,1.25-2.68,1.25-.49,0-.93-.08-1.34-.23s-.76-.37-1.06-.64c-.3-.28-.53-.62-.7-1.02-.17-.4-.25-.86-.25-1.37s.08-.96.25-1.37.4-.76.7-1.05c.29-.29.64-.52,1.05-.68.4-.16.84-.24,1.31-.24.43,0,.83.07,1.2.21.37.14.69.36.96.64.27.28.48.63.63,1.05.15.42.23.91.23,1.48ZM337.28,891.14c0-.2-.03-.39-.08-.57-.06-.18-.15-.34-.27-.48-.12-.14-.28-.25-.46-.33-.19-.08-.41-.12-.66-.12-.47,0-.86.14-1.19.42-.32.28-.5.64-.54,1.09h3.2Z"/><path class="uuid-c7e57991-5624-4311-b72e-2abc8ac6d94f" d="M345.02,889.89h-1.18v-1.25h1.18v-.92c0-.37.04-.73.12-1.07.08-.34.22-.64.42-.9.19-.26.45-.47.77-.62.32-.15.72-.23,1.21-.23.17,0,.32,0,.44.02.12.01.24.04.36.07l-.1,1.33c-.09-.03-.18-.05-.28-.06-.1-.02-.21-.03-.32-.03-.23,0-.41.04-.55.13-.14.09-.25.2-.32.34-.07.14-.12.29-.15.46-.03.16-.04.33-.04.48v1.01h1.44v1.25h-1.44v4.99h-1.56v-4.99Z"/><path class="uuid-c7e57991-5624-4311-b72e-2abc8ac6d94f" d="M355.37,894.88h-1.48v-1h-.03c-.14.31-.38.59-.72.83s-.75.36-1.22.36c-.41,0-.76-.07-1.05-.21-.29-.14-.53-.33-.72-.57-.19-.23-.32-.5-.41-.81-.09-.3-.13-.62-.13-.94v-3.9h1.56v3.46c0,.18.01.37.04.57.03.2.08.38.17.54.09.16.21.29.36.4.15.1.35.16.6.16s.46-.05.64-.15c.19-.1.34-.23.46-.38.12-.16.21-.34.27-.54s.09-.41.09-.62v-3.43h1.56v6.24Z"/><path class="uuid-c7e57991-5624-4311-b72e-2abc8ac6d94f" d="M357.83,888.64h1.48v1h.03c.14-.31.38-.59.72-.83.34-.24.75-.36,1.22-.36.41,0,.76.07,1.05.21.29.14.53.33.71.57.19.23.32.5.41.81.09.3.13.62.13.94v3.9h-1.56v-3.46c0-.18-.01-.37-.04-.57s-.08-.38-.17-.54c-.09-.16-.21-.29-.36-.4-.15-.1-.35-.16-.6-.16s-.47.05-.65.15c-.18.1-.33.23-.45.38-.12.16-.21.34-.27.54s-.09.41-.09.62v3.43h-1.56v-6.24Z"/><path class="uuid-c7e57991-5624-4311-b72e-2abc8ac6d94f" d="M370.26,890.37c-.12-.17-.3-.32-.55-.44-.24-.12-.49-.18-.74-.18-.29,0-.54.06-.75.18-.22.12-.4.27-.54.46-.14.19-.25.41-.32.64s-.1.48-.1.72.04.48.11.72c.07.24.18.45.33.64.15.19.33.34.55.46.22.12.48.18.77.18.24,0,.49-.05.73-.14s.44-.23.58-.42l.98.99c-.26.28-.59.49-.99.64-.4.15-.84.23-1.31.23s-.9-.07-1.31-.22c-.41-.15-.77-.36-1.08-.65s-.55-.63-.73-1.04c-.18-.41-.27-.87-.27-1.39s.09-.96.27-1.36.42-.75.72-1.04c.3-.29.66-.51,1.06-.66.4-.16.83-.23,1.29-.23s.9.09,1.33.26c.43.17.77.41,1.02.72l-1.07.94Z"/><path class="uuid-c7e57991-5624-4311-b72e-2abc8ac6d94f" d="M372.54,889.89v-1.25h1.09v-1.81h1.53v1.81h1.56v1.25h-1.56v2.9c0,.28.05.51.15.69s.32.27.67.27c.1,0,.22-.01.34-.03.12-.02.23-.05.33-.1l.05,1.22c-.14.05-.3.09-.49.12-.19.03-.37.05-.55.05-.42,0-.75-.06-1.01-.18-.26-.12-.47-.28-.62-.48-.15-.2-.26-.44-.31-.7-.06-.26-.08-.55-.08-.85v-2.91h-1.09Z"/><path class="uuid-c7e57991-5624-4311-b72e-2abc8ac6d94f" d="M378.28,886.52c0-.25.09-.47.28-.66.19-.19.42-.28.71-.28s.53.09.72.27c.19.18.29.4.29.67s-.1.49-.29.67c-.2.18-.44.27-.72.27s-.52-.09-.71-.28-.28-.41-.28-.66ZM378.5,888.64h1.56v6.24h-1.56v-6.24Z"/><path class="uuid-c7e57991-5624-4311-b72e-2abc8ac6d94f" d="M382.15,891.73c0-.49.09-.94.27-1.35.18-.4.42-.75.72-1.03.3-.29.66-.51,1.08-.66.42-.16.86-.23,1.33-.23s.91.08,1.33.23c.42.16.78.38,1.08.66.3.29.54.63.72,1.03.18.4.27.85.27,1.35s-.09.94-.27,1.35c-.18.41-.42.76-.72,1.05-.3.29-.66.52-1.08.68s-.86.25-1.33.25-.91-.08-1.33-.25-.78-.39-1.08-.68c-.3-.29-.54-.64-.72-1.05-.18-.41-.27-.86-.27-1.35ZM383.74,891.73c0,.24.04.49.11.73.07.24.18.46.33.65.15.19.33.35.56.47.23.12.49.18.81.18s.58-.06.81-.18c.23-.12.41-.28.56-.47.15-.19.26-.41.33-.65.07-.24.11-.49.11-.73s-.04-.48-.11-.72c-.07-.24-.18-.45-.33-.64-.15-.19-.33-.34-.56-.46-.23-.12-.49-.18-.81-.18s-.58.06-.81.18c-.23.12-.41.27-.56.46-.15.19-.26.41-.33.64-.07.24-.11.48-.11.72Z"/><path class="uuid-c7e57991-5624-4311-b72e-2abc8ac6d94f" d="M391.03,888.64h1.48v1h.03c.14-.31.38-.59.72-.83.34-.24.75-.36,1.22-.36.41,0,.76.07,1.05.21.29.14.53.33.71.57.19.23.32.5.41.81.09.3.13.62.13.94v3.9h-1.56v-3.46c0-.18-.01-.37-.04-.57s-.08-.38-.17-.54c-.09-.16-.21-.29-.36-.4-.15-.1-.35-.16-.6-.16s-.47.05-.65.15c-.18.1-.33.23-.45.38-.12.16-.21.34-.27.54s-.09.41-.09.62v3.43h-1.56v-6.24Z"/><path class="uuid-c7e57991-5624-4311-b72e-2abc8ac6d94f" d="M403.06,894.09h-.04c-.16.28-.41.5-.75.68s-.74.27-1.18.27c-.25,0-.51-.03-.79-.1s-.52-.17-.75-.33c-.23-.15-.42-.35-.57-.6-.15-.25-.23-.55-.23-.92,0-.47.13-.84.4-1.12.26-.28.6-.49,1.02-.64s.88-.25,1.38-.29c.51-.05,1-.07,1.49-.07v-.16c0-.39-.14-.68-.42-.86-.28-.19-.62-.28-1.01-.28-.33,0-.65.07-.95.21-.3.14-.55.31-.75.51l-.81-.95c.35-.33.76-.58,1.23-.74.46-.16.93-.25,1.41-.25.55,0,1.01.08,1.37.23.36.16.64.36.85.61s.35.53.44.84c.08.31.12.62.12.94v3.8h-1.46v-.79ZM403.04,892.03h-.35c-.25,0-.52.01-.79.03-.28.02-.53.07-.77.14s-.43.18-.58.31c-.16.13-.23.32-.23.55,0,.15.03.27.1.37.06.1.15.18.25.24s.22.1.35.13c.13.03.26.04.39.04.54,0,.94-.14,1.22-.43.28-.29.42-.68.42-1.17v-.22Z"/><path class="uuid-c7e57991-5624-4311-b72e-2abc8ac6d94f" d="M406.96,885.05h1.56v9.83h-1.56v-9.83Z"/><path class="uuid-c7e57991-5624-4311-b72e-2abc8ac6d94f" d="M410.79,886.52c0-.25.09-.47.28-.66.19-.19.42-.28.71-.28s.53.09.72.27c.19.18.29.4.29.67s-.1.49-.29.67c-.2.18-.44.27-.72.27s-.52-.09-.71-.28-.28-.41-.28-.66ZM411.01,888.64h1.56v6.24h-1.56v-6.24Z"/><path class="uuid-c7e57991-5624-4311-b72e-2abc8ac6d94f" d="M414.21,889.89v-1.25h1.09v-1.81h1.53v1.81h1.56v1.25h-1.56v2.9c0,.28.05.51.15.69s.32.27.67.27c.1,0,.22-.01.34-.03.12-.02.23-.05.33-.1l.05,1.22c-.14.05-.3.09-.49.12-.19.03-.37.05-.55.05-.42,0-.75-.06-1.01-.18-.26-.12-.47-.28-.62-.48-.15-.2-.26-.44-.31-.7-.06-.26-.08-.55-.08-.85v-2.91h-1.09Z"/><path class="uuid-c7e57991-5624-4311-b72e-2abc8ac6d94f" d="M419.65,888.64h1.73l1.74,4.54h.03l1.55-4.54h1.62l-2.95,7.58c-.11.29-.23.54-.36.76s-.29.41-.47.56c-.18.15-.4.27-.64.34-.25.08-.54.12-.89.12-.13,0-.26,0-.4-.02-.13-.01-.27-.04-.41-.07l.13-1.35c.1.03.21.06.31.07.1.01.19.02.28.02.16,0,.3-.02.42-.06.11-.04.21-.1.29-.18.08-.08.15-.18.21-.31.06-.12.13-.26.2-.43l.31-.79-2.68-6.24Z"/><path class="uuid-c7e57991-5624-4311-b72e-2abc8ac6d94f" d="M435.55,894.09h-.04c-.16.28-.41.5-.75.68s-.74.27-1.18.27c-.25,0-.51-.03-.79-.1s-.52-.17-.75-.33c-.23-.15-.42-.35-.57-.6-.15-.25-.23-.55-.23-.92,0-.47.13-.84.4-1.12.26-.28.6-.49,1.02-.64s.88-.25,1.38-.29c.51-.05,1-.07,1.49-.07v-.16c0-.39-.14-.68-.42-.86-.28-.19-.62-.28-1.01-.28-.33,0-.65.07-.95.21-.3.14-.55.31-.75.51l-.81-.95c.35-.33.76-.58,1.23-.74.46-.16.93-.25,1.41-.25.55,0,1.01.08,1.37.23.36.16.64.36.85.61s.35.53.44.84c.08.31.12.62.12.94v3.8h-1.46v-.79ZM435.52,892.03h-.35c-.25,0-.52.01-.79.03-.28.02-.53.07-.77.14s-.43.18-.58.31c-.16.13-.23.32-.23.55,0,.15.03.27.1.37.06.1.15.18.25.24s.22.1.35.13c.13.03.26.04.39.04.54,0,.94-.14,1.22-.43.28-.29.42-.68.42-1.17v-.22Z"/><path class="uuid-c7e57991-5624-4311-b72e-2abc8ac6d94f" d="M439.42,888.64h1.48v1h.03c.14-.31.38-.59.72-.83.34-.24.75-.36,1.22-.36.41,0,.76.07,1.05.21.29.14.53.33.71.57.19.23.32.5.41.81.09.3.13.62.13.94v3.9h-1.56v-3.46c0-.18-.01-.37-.04-.57s-.08-.38-.17-.54c-.09-.16-.21-.29-.36-.4-.15-.1-.35-.16-.6-.16s-.47.05-.65.15c-.18.1-.33.23-.45.38-.12.16-.21.34-.27.54s-.09.41-.09.62v3.43h-1.56v-6.24Z"/><path class="uuid-c7e57991-5624-4311-b72e-2abc8ac6d94f" d="M453.94,894.88h-1.48v-.94h-.03c-.22.36-.52.64-.9.83-.39.19-.8.29-1.24.29-.48,0-.9-.09-1.28-.27-.38-.18-.7-.42-.96-.71-.26-.3-.47-.65-.61-1.05-.14-.4-.21-.83-.21-1.29s.07-.89.22-1.29c.15-.4.36-.75.62-1.04.27-.29.59-.53.96-.7.37-.17.78-.25,1.22-.25.29,0,.54.03.77.1.23.06.42.15.59.24.17.1.31.2.44.31.12.11.22.22.3.33h.04v-4.38h1.56v9.83ZM448.81,891.73c0,.24.04.49.11.73s.18.46.33.65c.15.19.33.35.56.47.23.12.49.18.79.18.29,0,.54-.06.77-.18.23-.12.42-.27.58-.46.16-.19.28-.4.36-.64.08-.24.12-.48.12-.72s-.04-.48-.12-.73-.2-.46-.36-.65c-.16-.19-.35-.35-.58-.47-.23-.12-.48-.18-.77-.18-.3,0-.57.06-.79.18-.23.12-.41.27-.56.46s-.26.41-.33.64-.11.48-.11.72Z"/><path class="uuid-c7e57991-5624-4311-b72e-2abc8ac6d94f" d="M460.07,886.52c0-.25.09-.47.28-.66.19-.19.42-.28.71-.28s.53.09.72.27c.19.18.29.4.29.67s-.1.49-.29.67c-.2.18-.44.27-.72.27s-.52-.09-.71-.28-.28-.41-.28-.66ZM460.29,888.64h1.56v6.24h-1.56v-6.24Z"/><path class="uuid-c7e57991-5624-4311-b72e-2abc8ac6d94f" d="M470.65,894.88h-1.48v-.94h-.03c-.22.36-.52.64-.9.83-.39.19-.8.29-1.24.29-.48,0-.9-.09-1.28-.27-.38-.18-.7-.42-.96-.71-.26-.3-.47-.65-.61-1.05-.14-.4-.21-.83-.21-1.29s.07-.89.22-1.29c.15-.4.36-.75.62-1.04.27-.29.59-.53.96-.7.37-.17.78-.25,1.22-.25.29,0,.54.03.77.1.23.06.42.15.59.24.17.1.31.2.44.31.12.11.22.22.3.33h.04v-4.38h1.56v9.83ZM465.52,891.73c0,.24.04.49.11.73s.18.46.33.65c.15.19.33.35.56.47.23.12.49.18.79.18.29,0,.54-.06.77-.18.23-.12.42-.27.58-.46.16-.19.28-.4.36-.64.08-.24.12-.48.12-.72s-.04-.48-.12-.73-.2-.46-.36-.65c-.16-.19-.35-.35-.58-.47-.23-.12-.48-.18-.77-.18-.3,0-.57.06-.79.18-.23.12-.41.27-.56.46s-.26.41-.33.64-.11.48-.11.72Z"/><path class="uuid-c7e57991-5624-4311-b72e-2abc8ac6d94f" d="M479.09,891.84v.21c0,.07,0,.14-.01.21h-4.75c.02.23.08.43.18.62s.23.35.4.48c.16.13.35.24.56.32s.42.12.65.12c.39,0,.72-.07.99-.21.27-.14.49-.34.66-.59l1.04.83c-.62.83-1.51,1.25-2.68,1.25-.49,0-.93-.08-1.34-.23s-.76-.37-1.06-.64c-.3-.28-.53-.62-.7-1.02-.17-.4-.25-.86-.25-1.37s.08-.96.25-1.37.4-.76.7-1.05c.29-.29.64-.52,1.05-.68.4-.16.84-.24,1.31-.24.43,0,.83.07,1.2.21.37.14.69.36.96.64.27.28.48.63.63,1.05.15.42.23.91.23,1.48ZM477.53,891.14c0-.2-.03-.39-.08-.57-.06-.18-.15-.34-.27-.48-.12-.14-.28-.25-.46-.33-.19-.08-.41-.12-.66-.12-.47,0-.86.14-1.19.42-.32.28-.5.64-.54,1.09h3.2Z"/><path class="uuid-c7e57991-5624-4311-b72e-2abc8ac6d94f" d="M485.02,894.09h-.04c-.16.28-.41.5-.75.68s-.74.27-1.18.27c-.25,0-.51-.03-.79-.1s-.52-.17-.75-.33c-.23-.15-.42-.35-.57-.6-.15-.25-.23-.55-.23-.92,0-.47.13-.84.4-1.12.26-.28.6-.49,1.02-.64s.88-.25,1.38-.29c.51-.05,1-.07,1.49-.07v-.16c0-.39-.14-.68-.42-.86-.28-.19-.62-.28-1.01-.28-.33,0-.65.07-.95.21-.3.14-.55.31-.75.51l-.81-.95c.35-.33.76-.58,1.23-.74.46-.16.93-.25,1.41-.25.55,0,1.01.08,1.37.23.36.16.64.36.85.61s.35.53.44.84c.08.31.12.62.12.94v3.8h-1.46v-.79ZM485,892.03h-.35c-.25,0-.52.01-.79.03-.28.02-.53.07-.77.14s-.43.18-.58.31c-.16.13-.23.32-.23.55,0,.15.03.27.1.37.06.1.15.18.25.24s.22.1.35.13c.13.03.26.04.39.04.54,0,.94-.14,1.22-.43.28-.29.42-.68.42-1.17v-.22Z"/><path class="uuid-c7e57991-5624-4311-b72e-2abc8ac6d94f" d="M488.92,885.05h1.56v9.83h-1.56v-9.83Z"/><path class="uuid-c7e57991-5624-4311-b72e-2abc8ac6d94f" d="M503.14,894.88h-1.48v-.94h-.03c-.22.36-.52.64-.9.83-.39.19-.8.29-1.24.29-.48,0-.9-.09-1.28-.27-.38-.18-.7-.42-.96-.71-.26-.3-.47-.65-.61-1.05-.14-.4-.21-.83-.21-1.29s.07-.89.22-1.29c.15-.4.36-.75.62-1.04.27-.29.59-.53.96-.7.37-.17.78-.25,1.22-.25.29,0,.54.03.77.1.23.06.42.15.59.24.17.1.31.2.44.31.12.11.22.22.3.33h.04v-4.38h1.56v9.83ZM498,891.73c0,.24.04.49.11.73s.18.46.33.65c.15.19.33.35.56.47.23.12.49.18.79.18.29,0,.54-.06.77-.18.23-.12.42-.27.58-.46.16-.19.28-.4.36-.64.08-.24.12-.48.12-.72s-.04-.48-.12-.73-.2-.46-.36-.65c-.16-.19-.35-.35-.58-.47-.23-.12-.48-.18-.77-.18-.3,0-.57.06-.79.18-.23.12-.41.27-.56.46s-.26.41-.33.64-.11.48-.11.72Z"/><path class="uuid-c7e57991-5624-4311-b72e-2abc8ac6d94f" d="M511.57,891.84v.21c0,.07,0,.14-.01.21h-4.75c.02.23.08.43.18.62s.23.35.4.48c.16.13.35.24.56.32s.42.12.65.12c.39,0,.72-.07.99-.21.27-.14.49-.34.66-.59l1.04.83c-.62.83-1.51,1.25-2.68,1.25-.49,0-.93-.08-1.34-.23s-.76-.37-1.06-.64c-.3-.28-.53-.62-.7-1.02-.17-.4-.25-.86-.25-1.37s.08-.96.25-1.37.4-.76.7-1.05c.29-.29.64-.52,1.05-.68.4-.16.84-.24,1.31-.24.43,0,.83.07,1.2.21.37.14.69.36.96.64.27.28.48.63.63,1.05.15.42.23.91.23,1.48ZM510.01,891.14c0-.2-.03-.39-.08-.57-.06-.18-.15-.34-.27-.48-.12-.14-.28-.25-.46-.33-.19-.08-.41-.12-.66-.12-.47,0-.86.14-1.19.42-.32.28-.5.64-.54,1.09h3.2Z"/><path class="uuid-c7e57991-5624-4311-b72e-2abc8ac6d94f" d="M517.13,890.3c-.14-.18-.33-.34-.57-.47-.24-.13-.51-.2-.79-.2-.25,0-.48.05-.69.16s-.31.28-.31.52.12.41.34.51c.23.1.57.2,1.01.31.23.05.47.12.71.21.24.09.46.2.65.34.19.14.35.32.47.53.12.21.18.47.18.77,0,.38-.07.7-.21.97-.14.26-.33.48-.57.64s-.52.28-.83.36c-.32.07-.64.11-.98.11-.49,0-.96-.09-1.42-.27-.46-.18-.84-.43-1.14-.76l1.03-.96c.17.23.4.41.68.56.28.15.58.22.92.22.11,0,.23-.01.34-.04s.23-.07.33-.12c.1-.06.18-.13.24-.23.06-.1.09-.21.09-.35,0-.26-.12-.45-.36-.56-.24-.11-.6-.23-1.07-.34-.23-.05-.46-.12-.68-.2s-.42-.19-.59-.33c-.17-.13-.31-.3-.42-.5-.1-.2-.16-.45-.16-.74,0-.35.07-.65.21-.9.14-.25.33-.46.57-.62.23-.16.5-.28.79-.36.29-.08.6-.12.91-.12.45,0,.89.08,1.32.23.43.16.77.39,1.02.72l-1.01.9Z"/><path class="uuid-c7e57991-5624-4311-b72e-2abc8ac6d94f" d="M519.93,886.52c0-.25.09-.47.28-.66.19-.19.42-.28.71-.28s.53.09.72.27c.19.18.29.4.29.67s-.1.49-.29.67c-.2.18-.44.27-.72.27s-.52-.09-.71-.28-.28-.41-.28-.66ZM520.15,888.64h1.56v6.24h-1.56v-6.24Z"/><path class="uuid-c7e57991-5624-4311-b72e-2abc8ac6d94f" d="M530.51,888.64v5.68c0,.56-.07,1.07-.21,1.53s-.35.84-.64,1.16c-.29.32-.66.56-1.1.73-.44.17-.97.26-1.57.26-.25,0-.52-.02-.8-.06-.28-.04-.56-.11-.83-.19-.27-.09-.54-.2-.79-.33s-.48-.28-.68-.44l.9-1.21c.3.29.65.5,1.03.66s.77.23,1.16.23.69-.05.94-.16c.26-.11.46-.26.61-.45.15-.19.26-.42.33-.68.06-.26.1-.55.1-.86v-.46h-.03c-.23.31-.51.54-.86.7-.35.16-.74.24-1.18.24-.47,0-.89-.09-1.27-.26s-.7-.41-.97-.7c-.26-.29-.47-.64-.62-1.03-.15-.39-.22-.81-.22-1.25s.07-.88.21-1.27c.14-.4.35-.75.61-1.04.26-.29.58-.53.96-.7.38-.17.8-.26,1.27-.26.44,0,.85.09,1.23.27s.68.46.91.85h.03v-.94h1.48ZM527.18,889.73c-.29,0-.54.05-.76.16-.22.1-.41.24-.56.42-.15.18-.27.39-.35.63-.08.24-.12.5-.12.78,0,.25.04.49.12.73.08.23.2.44.35.63.15.19.34.33.56.45.22.11.47.17.75.17s.54-.05.77-.16c.23-.11.42-.25.58-.43.16-.18.28-.39.37-.63.09-.24.13-.49.13-.75s-.04-.52-.13-.76c-.09-.24-.21-.45-.37-.63-.16-.18-.35-.32-.58-.43-.23-.1-.48-.16-.77-.16Z"/><path class="uuid-c7e57991-5624-4311-b72e-2abc8ac6d94f" d="M532.97,888.64h1.48v1h.03c.14-.31.38-.59.72-.83.34-.24.75-.36,1.22-.36.41,0,.76.07,1.05.21.29.14.53.33.71.57.19.23.32.5.41.81.09.3.13.62.13.94v3.9h-1.56v-3.46c0-.18-.01-.37-.04-.57s-.08-.38-.17-.54c-.09-.16-.21-.29-.36-.4-.15-.1-.35-.16-.6-.16s-.47.05-.65.15c-.18.1-.33.23-.45.38-.12.16-.21.34-.27.54s-.09.41-.09.62v3.43h-1.56v-6.24Z"/><path class="uuid-c7e57991-5624-4311-b72e-2abc8ac6d94f" d="M540.92,893.97c0-.28.1-.52.31-.72.2-.2.45-.3.73-.3s.52.1.73.29c.21.19.31.42.31.7s-.1.52-.31.72-.45.3-.73.3c-.14,0-.27-.03-.4-.08-.13-.05-.24-.12-.33-.21-.1-.09-.17-.19-.23-.31-.06-.12-.08-.25-.08-.39Z"/><rect class="uuid-456d9dd8-7345-4c7e-a68c-cbd433931df2" x="0" width="2150" height="1080"/></g></svg>