<?xml version="1.0" encoding="UTF-8"?>
<svg id="uuid-dc2d085f-03ec-48bc-a07b-952d1214a89b" xmlns="http://www.w3.org/2000/svg" width="2150" height="1080" xmlns:xlink="http://www.w3.org/1999/xlink" viewBox="0 0 2150 1080">
<defs>
    <style>.uuid-47888e4d-cf86-48c0-a6ed-6ba7f26d9a52,.uuid-f8755179-a829-4ac6-988b-38abfe09046a{fill:none;}.uuid-f8755179-a829-4ac6-988b-38abfe09046a{stroke:#c91933;stroke-miterlimit:10;stroke-width:3.2px;}.uuid-bc0ec743-ad26-4a2f-be0d-a683768963a6{clip-path:url(#uuid-d173e42e-a5e0-4e41-ba46-d0aa6cf7ec81);}
    </style>
    <clipPath id="uuid-d173e42e-a5e0-4e41-ba46-d0aa6cf7ec81">
    <rect class="uuid-47888e4d-cf86-48c0-a6ed-6ba7f26d9a52" x="0" width="2150" height="1080"/></clipPath>
</defs>
<g id="uuid-e385ce4f-ea52-43bb-8e58-b7bc92cc4ead">
    <g class="uuid-bc0ec743-ad26-4a2f-be0d-a683768963a6">
        <polygon class="uuid-f8755179-a829-4ac6-988b-38abfe09046a" points="1418.63 988.2 1313.39 941.36 1187.89 988.2 1187.89 1056.2 1418.63 1056.2 1418.63 988.2"/>
        <polygon class="uuid-f8755179-a829-4ac6-988b-38abfe09046a" points="1033.45 1109.38 1033.45 942.95 843.04 881.23 637.61 970.23 637.61 1109.38 1033.45 1109.38"/>
        <polygon class="uuid-f8755179-a829-4ac6-988b-38abfe09046a" points="666.87 111.12 601.95 157.78 601.95 262.55 865.79 262.55 865.79 157.78 666.87 111.12"/>
        <polygon class="uuid-f8755179-a829-4ac6-988b-38abfe09046a" points="1506.2 364.32 1506.2 503.61 1265.7 503.61 1265.7 417.16 1506.2 364.32"/>
        <polygon class="uuid-f8755179-a829-4ac6-988b-38abfe09046a" points="608.39 728.4 362.55 728.4 362.55 544.23 485.47 462.9 608.39 544.23 608.39 728.4"/>
        <polygon class="uuid-f8755179-a829-4ac6-988b-38abfe09046a" points="1512.06 653.61 1631.6 588.11 1846.66 657.52 1846.66 768.36 1512.06 768.36 1512.06 653.61"/>
        <polygon class="uuid-f8755179-a829-4ac6-988b-38abfe09046a" points="1795.62 217.44 1686.61 285.44 1686.61 454.13 1904.63 454.13 1904.63 287.87 1795.62 217.44"/>
        <polygon class="uuid-f8755179-a829-4ac6-988b-38abfe09046a" points="333.49 380.54 333.49 282.36 38.99 205.27 38.99 380.54 333.49 380.54"/>
        <polygon class="uuid-f8755179-a829-4ac6-988b-38abfe09046a" points="245.77 927.21 245.77 718.23 51.05 756.14 51.05 927.21 245.77 927.21"/>
        <polygon class="uuid-f8755179-a829-4ac6-988b-38abfe09046a" points="286.57 72.82 506.99 89.77 506.99 -60.3 396.78 -111.9 286.57 -60.3 286.57 72.82"/>
        <polygon class="uuid-f8755179-a829-4ac6-988b-38abfe09046a" points="1686.51 108.73 1483.28 135.37 1483.28 -54.61 1610.29 -98.52 1686.51 -54.61 1686.51 108.73"/>
        <polygon class="uuid-f8755179-a829-4ac6-988b-38abfe09046a" points="1782.82 954.01 1589.86 927.21 1589.86 1129.58 1782.82 1129.58 1782.82 954.01"/>
        <polyline class="uuid-f8755179-a829-4ac6-988b-38abfe09046a" points="2014.06 961.88 1944.52 961.88 1944.52 843.61 2044.84 795.88 2145.15 843.61 2145.15 961.88 2014.06 961.88"/>
    </g>
</g>
</svg>