<?xml version="1.0" encoding="UTF-8"?>
<svg id="uuid-b46560ad-9b01-43e1-b997-ec96c8c643f6" xmlns="http://www.w3.org/2000/svg" width="375" height="166.89" viewBox="0 0 375 166.89">
<defs>
<style>.uuid-7fb08a22-c5ee-4682-80d0-c9882b4ff6ef{fill:#231815;}
.rect,.polygon{fill:none;}
.uuid-b6e69d01-095a-4a0d-b850-97f7bb632556{fill:#b11f3a;}
.polygon{stroke:#b11f3a;stroke-miterlimit:10;}</style>
</defs>
<g id="uuid-c6f13207-f130-428e-aa2f-fe3dd7f5acce">
    <path class="uuid-7fb08a22-c5ee-4682-80d0-c9882b4ff6ef" d="M74.07,47.99c.11.05.19.13.19.22,0,.07-.04.19-.1.34-.05.14-.11.66-.11,1.17,0,.77.02,1.63.22,2.73.17.95.48,1.76.98,1.76.38,0,.68-.42,1.15-1.67.26.42.53.7.77.92.14.13.14.28.08.44-.46,1.22-1.2,1.87-2.04,1.87-.94,0-1.92-1.1-2.24-3.13-.19-1.14-.29-2.39-.29-3.49,0-.66-.02-1.02-.14-1.57.58.07,1.16.22,1.52.4ZM79.63,48.75s.1-.05.13-.05c.05,0,.08.02.13.07,1.09.95,2.05,2.6,2.35,4.1.04.16-.04.2-.13.26-.31.2-.61.37-.94.48-.14.05-.23.01-.25-.13-.41-1.72-1.02-2.96-2.24-4.19.46-.29.76-.46.95-.55Z"/>
    <path class="uuid-7fb08a22-c5ee-4682-80d0-c9882b4ff6ef" d="M86.26,49.03c1.85-.62,3.35-1,4.32-1,2.15,0,3.53,1.29,3.53,3.18,0,1.57-.68,2.57-2.11,3.33-1.01.56-1.94.75-3.05,1-.24.05-.34.04-.42-.19-.14-.33-.44-.7-.84-.95,1.58-.26,2.44-.49,3.25-.89,1.02-.52,1.66-1.28,1.66-2.39s-.73-1.82-2.06-1.82c-1.08,0-2.51.43-4.33,1.24-.38.19-.68.32-.83.43-.17.14-.26.18-.32.18-.12,0-.22-.07-.35-.25-.22-.26-.52-.73-.77-1.25.53-.06.97-.17,2.33-.62Z"/>
    <path class="uuid-7fb08a22-c5ee-4682-80d0-c9882b4ff6ef" d="M102.02,48.73c-1.46.28-2.75.53-4.03.79-.46.11-.58.13-.76.19-.08.04-.17.1-.26.1-.08,0-.18-.07-.23-.18-.16-.32-.29-.74-.44-1.29.61-.02.97-.07,1.91-.2,1.48-.22,4.11-.61,7.21-1.02.18-.02.24.05.25.13.06.28.12.72.13,1.06,0,.14-.07.18-.23.18-.56.04-.95.1-1.46.26-2.04.7-3.06,2.1-3.06,3.54,0,1.55,1.1,2.39,3.19,2.52.19,0,.26.05.26.18,0,.31-.05.73-.13,1.03-.04.18-.08.25-.23.25-2.11,0-4.43-1.21-4.43-3.71,0-1.7.85-2.85,2.3-3.8v-.02ZM104.39,50.03c.06-.05.11-.04.18.02.37.29.8.77,1.14,1.28.05.07.05.13-.04.19l-.5.37c-.08.06-.14.05-.2-.04-.36-.55-.74-1.01-1.21-1.39l.64-.44ZM105.46,49.25c.07-.05.11-.04.18.02.44.34.88.82,1.14,1.24.05.07.06.14-.04.22l-.48.37c-.1.07-.16.04-.2-.04-.32-.52-.71-.97-1.2-1.38l.6-.43Z"/>
    <path class="uuid-7fb08a22-c5ee-4682-80d0-c9882b4ff6ef" d="M112.41,53.78c0,1.1.48,1.54,1.6,1.54,1.4,0,2.18-.54,2.18-1.62,0-.67-.17-1.22-1.08-2.18.48.06.74,0,1.22-.07.08-.02.18-.01.25.05.66.62,1.02,1.44,1.02,2.25,0,1.7-1.39,2.81-3.45,2.81s-3.02-.96-3.02-2.71c0-.25.04-.59.08-1.13-.72-.11-1.2-.22-1.63-.36-.08-.02-.12-.08-.13-.23-.04-.37-.05-.74-.02-1.12.72.26,1.26.4,1.94.47.06-.44.16-1.22.2-1.72-.84-.11-1.27-.18-1.73-.33-.14-.04-.19-.1-.19-.2-.01-.29-.04-.68-.04-1.12.82.26,1.39.37,2.17.46.1-.7.13-1.02.16-1.38.02-.34.02-.68-.01-1.01.55.07,1.18.23,1.44.34.17.06.26.17.26.28,0,.08-.04.16-.1.23-.08.08-.14.24-.22.52-.06.28-.13.68-.19,1.13.48.04.97,0,1.48-.07.08,0,.12.06.12.14.01.29.01.62-.02.9,0,.13-.05.17-.19.18-.53.06-1.07.07-1.6.06-.07.42-.19,1.24-.26,1.71.64.01,1.13,0,1.7-.04.16-.02.19.02.19.13,0,.22-.02.65-.06.9-.01.14-.05.19-.17.19-.6.05-1.22.05-1.83.04-.06.47-.07.76-.07.97Z"/>
    <path class="uuid-7fb08a22-c5ee-4682-80d0-c9882b4ff6ef" d="M191.67,48.73c-1.46.28-2.75.53-4.03.79-.46.11-.58.13-.76.19-.08.04-.17.1-.26.1-.08,0-.18-.07-.23-.18-.16-.32-.29-.74-.44-1.29.61-.02.97-.07,1.91-.2,1.48-.22,4.11-.61,7.21-1.02.18-.02.24.05.25.13.06.28.12.72.13,1.06,0,.14-.07.18-.23.18-.56.04-.95.1-1.46.26-2.04.7-3.06,2.1-3.06,3.54,0,1.55,1.1,2.39,3.19,2.52.19,0,.26.05.26.18,0,.31-.05.73-.13,1.03-.04.18-.08.25-.23.25-2.11,0-4.43-1.21-4.43-3.71,0-1.7.85-2.85,2.3-3.8v-.02ZM194.05,50.03c.06-.05.11-.04.18.02.37.29.8.77,1.14,1.28.05.07.05.13-.04.19l-.5.37c-.08.06-.14.05-.2-.04-.36-.55-.74-1.01-1.21-1.39l.64-.44ZM195.12,49.25c.07-.05.11-.04.18.02.44.34.88.82,1.14,1.24.05.07.06.14-.04.22l-.48.37c-.1.07-.16.04-.2-.04-.32-.52-.71-.97-1.2-1.38l.6-.43Z"/>
    <path class="uuid-7fb08a22-c5ee-4682-80d0-c9882b4ff6ef" d="M199.85,52.54c.11.06.12.12.06.22-.18.28-.31.67-.31.91,0,.76.78,1.13,2.84,1.13,1.16,0,2.27-.13,3.25-.35.17-.04.23,0,.25.11.06.23.17.88.19,1.17.01.11-.06.16-.2.18-1.12.2-2.22.29-3.51.29-2.77,0-4.13-.86-4.13-2.42,0-.49.18-1.01.64-1.71.31.16.61.31.92.48ZM202.56,47.83c.88,0,1.73-.05,2.49-.11.12-.01.17.04.18.13.05.28.1.61.11,1.02,0,.17-.06.24-.2.25-1.14.17-1.97.56-2.94,1.19-.1.07-.2.11-.3.11-.08,0-.17-.02-.25-.07-.24-.16-.49-.29-.84-.38.62-.41,1.15-.74,1.57-1-.26.04-.64.04-.88.04-.49,0-1.52-.07-2.21-.2-.11-.02-.16-.07-.16-.22,0-.29.02-.64.05-1.07.91.22,2.06.31,3.37.31ZM205.82,46.5c.06-.05.11-.04.18.02.37.29.8.77,1.14,1.28.05.07.05.13-.04.19l-.5.37c-.08.06-.14.05-.2-.04-.36-.55-.74-1.01-1.21-1.39l.64-.44ZM206.89,45.72c.07-.05.11-.04.18.02.44.34.88.82,1.14,1.24.05.07.06.14-.04.22l-.48.37c-.1.07-.16.04-.2-.04-.32-.52-.71-.97-1.2-1.38l.6-.43Z"/>
    <path class="uuid-7fb08a22-c5ee-4682-80d0-c9882b4ff6ef" d="M211.55,56.88c-.12,0-.13-.01-.13-.13,0-.22.06-2.59.08-5.45-.31.96-.77,1.88-1.36,2.75-.08.12-.14.18-.19.18s-.08-.06-.12-.19c-.11-.38-.26-.76-.43-1.02.84-.98,1.5-2.2,1.95-3.65h-.28c-.88,0-1.16.02-1.24.02-.12,0-.13-.01-.13-.13v-.88c0-.12.01-.13.13-.13.07,0,.36.02,1.24.02h.38v-.74c0-.74-.01-1.13-.1-1.63.43.01.82.04,1.2.08.12.01.19.06.19.12,0,.11-.04.17-.07.25-.06.14-.08.33-.08,1.16v.76c.89,0,1.18-.02,1.25-.02.12,0,.13.01.13.13v.88c0,.12-.01.13-.13.13-.07,0-.35-.02-1.18-.02.35.82.97,1.62,1.58,2.29-.17.25-.31.55-.46.92-.06.13-.1.19-.13.19-.05,0-.1-.06-.17-.17-.38-.55-.71-1.14-.94-1.79.01,3.18.08,5.71.08,5.92,0,.12-.01.13-.13.13h-.97ZM214.67,56.82c-.12,0-.13-.01-.13-.12,0-.07.02-.86.02-4.53v-2.36c0-2.37-.02-3.17-.02-3.25,0-.12.01-.13.13-.13.08,0,.44.02,1.48.02h2.3c1.03,0,1.39-.02,1.46-.02.12,0,.13.01.13.13,0,.07-.02.88-.02,2.85v2.75c0,3.65.02,4.44.02,4.51,0,.11-.01.12-.13.12h-.98c-.11,0-.12-.01-.12-.12v-.55h-3.02v.59c0,.11-.01.12-.14.12h-.97ZM215.79,49.3h3.02v-1.7h-3.02v1.7ZM218.81,52.09v-1.67h-3.02v1.67h3.02ZM218.81,54.96v-1.74h-3.02v1.74h3.02Z"/>
    <path class="uuid-7fb08a22-c5ee-4682-80d0-c9882b4ff6ef" d="M225.19,48c.91,0,1.2-.02,1.27-.02.12,0,.13.01.13.13v.85c0,.13-.01.14-.13.14-.07,0-.36-.02-1.27-.02h-1.33c-.9,0-1.2.02-1.26.02-.12,0-.13-.01-.13-.14v-.85c0-.12.01-.13.13-.13.06,0,.36.02,1.26.02h1.33ZM226.24,55.81c2.07-.6,2.79-1.92,2.93-3.85.04-.42.04-.74-.01-1.14.42.02.8.05,1.15.12.14.02.23.07.23.16s-.01.13-.07.22-.08.2-.13.72c.34,1.98,1.67,3.15,3.15,3.68-.17.22-.36.54-.49.84-.1.2-.13.3-.23.3-.06,0-.13-.04-.28-.11-1.13-.6-2.04-1.5-2.55-2.78-.43,1.21-1.21,2.17-2.63,2.81-.13.05-.2.08-.28.08-.1,0-.14-.08-.25-.3-.16-.28-.32-.54-.54-.73.01.52.02.67.02.72,0,.12-.01.13-.12.13h-.86c-.12,0-.13-.01-.13-.13v-.32h-1.12v.55c0,.11-.01.12-.13.12h-.86c-.12,0-.13-.01-.13-.12,0-.08.02-.36.02-1.81v-.77c0-.75-.02-1.04-.02-1.13,0-.12.01-.13.13-.13.07,0,.32.02,1.09.02h.91c.77,0,1.02-.02,1.1-.02.11,0,.12.01.12.13,0,.07-.02.36-.02.92v1.82ZM225.1,46.36c.77,0,1.01-.02,1.08-.02.12,0,.13.01.13.13v.8c0,.11-.01.12-.13.12-.07,0-.31-.02-1.08-.02h-.97c-.78,0-1.02.02-1.09.02-.11,0-.12-.01-.12-.12v-.8c0-.12.01-.13.12-.13.07,0,.31.02,1.09.02h.97ZM224.97,49.71c.71,0,.92-.02,1-.02.13,0,.14.01.14.13v.78c0,.12-.01.13-.14.13-.07,0-.29-.02-1-.02h-.77c-.73,0-.95.02-1.02.02-.12,0-.13-.01-.13-.13v-.78c0-.12.01-.13.13-.13.07,0,.29.02,1.02.02h.77ZM224.97,51.33c.71,0,.92-.02,1-.02.13,0,.14.01.14.13v.77c0,.12-.01.13-.14.13-.07,0-.29-.02-1-.02h-.77c-.73,0-.95.02-1.02.02-.12,0-.13-.01-.13-.13v-.77c0-.12.01-.13.13-.13.07,0,.29.02,1.02.02h.77ZM224.04,53.95v1.28h1.12v-1.28h-1.12ZM232.98,51.11c-.11.23-.13.31-.24.31-.05,0-.13-.02-.26-.07-1.08-.42-2.04-1.21-2.55-2.45-.43,1.09-1.21,1.93-2.54,2.46-.13.05-.2.08-.26.08-.1,0-.14-.08-.26-.3-.14-.25-.32-.5-.49-.66,1.92-.56,2.73-1.7,2.83-3.42.02-.41.02-.77-.01-1.1.42.02.79.07,1.12.12.14.02.24.06.24.14s-.02.13-.08.22c-.06.07-.08.18-.12.61.31,1.97,1.59,2.82,3.11,3.3-.16.18-.34.49-.46.76ZM226.54,53.69c-.14-.11-.13-.13-.05-.23.41-.44.76-.98,1-1.5.06-.12.08-.13.24-.05l.6.31c.16.08.17.11.12.23-.25.59-.58,1.13-1.04,1.68-.05.06-.07.08-.12.08-.04,0-.08-.02-.14-.07l-.6-.46ZM226.8,48.7c-.14-.1-.14-.12-.06-.22.36-.42.66-.94.86-1.46.05-.13.06-.11.23-.05l.62.24c.14.06.16.08.12.2-.24.61-.52,1.15-.94,1.67-.05.06-.07.08-.11.08s-.08-.02-.14-.07l-.59-.4ZM231.81,52.27c.11-.16.17-.29.23-.46.32.1.65.22.92.36.17.08.22.14.22.2,0,.1-.05.13-.13.18-.07.05-.14.14-.2.23-.23.31-.48.65-.8.98-.12.12-.19.19-.26.19-.08,0-.16-.07-.31-.19-.2-.17-.4-.3-.62-.42.43-.37.74-.74.97-1.08ZM231.83,47.28c.11-.16.17-.29.22-.46.31.11.65.25.9.38.16.08.19.11.19.18,0,.08-.05.12-.12.18-.06.05-.13.13-.2.24-.2.3-.41.59-.76.95-.14.14-.22.22-.29.22s-.14-.06-.28-.17c-.22-.18-.42-.31-.61-.38.46-.43.76-.83.95-1.14Z"/>
    <path class="uuid-7fb08a22-c5ee-4682-80d0-c9882b4ff6ef" d="M237.3,47.99c.11.05.19.13.19.22,0,.07-.04.19-.1.34-.05.14-.11.66-.11,1.17,0,.77.02,1.63.22,2.73.17.95.48,1.76.98,1.76.38,0,.68-.42,1.15-1.67.26.42.53.7.77.92.14.13.14.28.08.44-.46,1.22-1.2,1.87-2.04,1.87-.94,0-1.92-1.1-2.24-3.13-.19-1.14-.29-2.39-.29-3.49,0-.66-.02-1.02-.14-1.57.58.07,1.16.22,1.52.4ZM242.87,48.75s.1-.05.13-.05c.05,0,.08.02.13.07,1.09.95,2.05,2.6,2.35,4.1.04.16-.04.2-.13.26-.31.2-.61.37-.94.48-.14.05-.23.01-.25-.13-.41-1.72-1.02-2.96-2.24-4.19.46-.29.76-.46.95-.55Z"/>
    <path class="uuid-7fb08a22-c5ee-4682-80d0-c9882b4ff6ef" d="M253.23,48.03c.13-.04.18.02.19.12.04.26.07.61.08.86.01.16-.02.19-.18.23-.74.2-1.35.34-2.09.46-.82,2.66-1.43,4.5-2.19,6.49-.06.17-.13.16-.26.12-.12-.05-.71-.3-.96-.44-.1-.06-.13-.16-.1-.24.91-2.1,1.49-3.68,2.07-5.69-.7.07-1.54.13-2.1.13-.18,0-.23-.04-.25-.19-.05-.25-.11-.66-.17-1.09.25.04.4.04.89.04.6,0,1.25-.04,1.94-.12.12-.48.22-1.01.3-1.5.05-.36.07-.72.07-1.1.64.1,1.13.18,1.51.34.1.04.13.12.13.19,0,.05,0,.11-.06.19-.1.17-.19.29-.25.48-.12.43-.2.84-.29,1.14.47-.08,1.12-.24,1.7-.41ZM252.77,53.76c.12,0,.17.05.18.17.1.88.68,1.13,1.83,1.13.67,0,1.54-.11,2.02-.17.1-.01.13.01.14.11.05.31.1.72.1,1.04.01.14,0,.18-.19.19-.41.06-1.19.13-1.63.13-1.57,0-2.39-.22-2.93-.78-.38-.38-.52-.95-.54-1.64.37-.1.86-.18,1.02-.18ZM252.63,50.58c0-.17.04-.2.22-.24.76-.16,1.64-.28,2.34-.28.47,0,.98.05,1.4.12.17.02.2.04.2.18.02.3.02.63.01.96,0,.2-.06.25-.23.22-.42-.08-.97-.14-1.49-.14-.72,0-1.63.12-2.41.28-.02-.42-.05-.85-.05-1.09Z"/>
    <path class="uuid-7fb08a22-c5ee-4682-80d0-c9882b4ff6ef" d="M265.38,48.03c.13-.04.18.02.19.12.04.26.07.61.08.86.01.16-.02.19-.18.23-.74.2-1.36.34-2.09.46-.82,2.66-1.43,4.5-2.19,6.49-.06.17-.13.16-.26.12-.12-.05-.71-.3-.96-.44-.1-.06-.13-.16-.1-.24.91-2.1,1.49-3.68,2.07-5.69-.7.07-1.54.13-2.1.13-.18,0-.23-.04-.25-.19-.05-.25-.11-.66-.17-1.09.25.04.4.04.89.04.6,0,1.25-.04,1.94-.12.12-.48.22-1.01.3-1.5.05-.36.07-.72.07-1.1.64.1,1.13.18,1.51.34.1.04.13.12.13.19,0,.05,0,.11-.06.19-.1.17-.19.29-.25.48-.12.43-.2.84-.29,1.14.47-.08,1.12-.24,1.7-.41ZM264.91,53.76c.12,0,.17.05.18.17.1.88.68,1.13,1.83,1.13.67,0,1.54-.11,2.01-.17.1-.01.13.01.14.11.05.31.1.72.1,1.04.01.14,0,.18-.19.19-.41.06-1.13.13-1.67.13-1.54,0-2.35-.22-2.89-.78-.38-.38-.52-.95-.54-1.64.37-.1.86-.18,1.02-.18ZM264.78,50.58c0-.17.04-.2.22-.24.76-.16,1.64-.28,2.34-.28.47,0,.98.05,1.4.12.17.02.2.04.2.18.02.3.02.63.01.96,0,.2-.06.25-.23.22-.42-.08-.97-.14-1.49-.14-.72,0-1.63.12-2.41.28-.02-.42-.05-.85-.05-1.09ZM267.55,47.16c.06-.05.11-.04.18.02.37.29.8.77,1.14,1.28.05.07.05.13-.04.19l-.5.37c-.08.06-.14.05-.2-.04-.36-.55-.74-1.01-1.21-1.39l.64-.44ZM268.62,46.38c.07-.05.11-.04.18.02.44.34.88.82,1.14,1.24.05.07.06.14-.04.22l-.48.37c-.1.07-.16.04-.2-.04-.32-.52-.71-.97-1.2-1.38l.6-.43Z"/>
    <path class="uuid-7fb08a22-c5ee-4682-80d0-c9882b4ff6ef" d="M274.37,55.59c0,.08-.04.12-.16.17-.36.16-.58.22-.83.25-.14.02-.2-.01-.28-.16-.38-.77-.71-2.47-.71-3.72,0-.97.11-2.08.36-3.84.07-.55.13-1.09.13-1.79.55.13.95.26,1.26.42.19.1.26.18.26.26,0,.05,0,.11-.07.24-.06.16-.14.48-.23.89-.23,1.29-.46,2.54-.46,3.6,0,.77.02,1.45.12,1.89.3-.63.52-1.04.8-1.71.17.46.28.61.4.8.07.08.11.16.11.23,0,.08-.02.16-.14.4-.32.72-.42,1.04-.54,1.46-.02.1-.04.23-.04.31v.29ZM278.52,50.16c-.64.05-1.09.07-1.44.07-.25.01-.56.01-1.01,0-.17,0-.26-.06-.28-.19-.05-.24-.07-.56-.13-1.09.44.05,1.04.06,1.49.06.34,0,.9-.01,1.33-.05-.02-.6-.02-1.14-.07-1.6-.05-.42-.08-.66-.2-.98.71.02,1.27.08,1.55.17.13.04.19.1.19.19,0,.08-.04.16-.08.24-.04.07-.06.26-.06.5v1.33c.52-.07,1.03-.16,1.54-.26.14-.04.2-.01.22.11.05.3.07.59.1.9.01.16-.05.2-.16.22-.58.11-1.1.18-1.66.24v1.85c.02,1.12-.17,2.07-.52,2.78-.37.79-.97,1.43-1.72,1.86-.13.08-.22.11-.3.11-.1,0-.14,0-.24-.11-.22-.19-.53-.4-.94-.59,1.13-.6,1.67-1.15,2.03-1.99.26-.61.38-1.43.37-2.67v-1.09Z"/>
    <path class="uuid-7fb08a22-c5ee-4682-80d0-c9882b4ff6ef" d="M287.92,51.87c-.83.02-1.64.02-2.47-.05-.13,0-.18-.05-.19-.2-.05-.26-.07-.74-.07-1.02.89.11,1.8.13,2.7.1-.01-.46-.01-.92-.02-1.38-1.15.04-2.02.04-2.87-.06-.13,0-.19-.05-.2-.17-.04-.3-.06-.59-.08-1.08,1.04.12,2.09.12,3.14.12,0-.44-.01-.76-.02-1.16-.02-.28-.05-.49-.14-.8.64.04,1.15.11,1.51.22.14.05.22.22.13.36-.08.17-.17.37-.18.58-.01.24-.01.41-.02.77,1.12-.08,1.92-.22,2.63-.36.14-.04.19,0,.2.14.05.34.06.66.06.88,0,.16-.04.18-.13.19-.85.14-1.62.24-2.77.31,0,.48.01.92.01,1.36.91-.06,1.49-.18,2.35-.31.14-.04.18-.01.19.1.01.23.04.62.04.98,0,.12-.05.16-.18.17-.79.13-1.34.22-2.35.29.02.55.05,1.14.08,1.69,1.15.32,2.13.76,3.18,1.45.12.11.12.14.08.29-.08.23-.34.67-.53.89-.05.07-.1.1-.16.1-.04,0-.08-.01-.13-.06-.73-.58-1.48-1-2.39-1.37-.01,1.29-.79,1.82-2.44,1.82s-2.45-.68-2.45-1.68.95-1.7,2.4-1.7c.3,0,.59,0,1.15.05-.02-.53-.05-1.02-.06-1.43ZM286.89,54.29c-.88,0-1.3.25-1.3.64,0,.31.36.54,1.19.54.48,0,.92-.14,1.09-.36.1-.13.13-.34.13-.67-.35-.08-.78-.14-1.12-.14Z"/>
    <path class="uuid-7fb08a22-c5ee-4682-80d0-c9882b4ff6ef" d="M300.29,47.08c-.02-.35-.05-.52-.14-.88.54.04,1.12.11,1.4.17.2.04.34.12.34.23,0,.1-.04.16-.11.28-.04.07-.07.19-.1.35-.01.16-.01.31-.02.77,1.29-.05,2.53-.06,3.68-.06.14,0,.17.02.18.18.01.3.01.61,0,.91,0,.13-.06.17-.2.16-1.25-.04-2.41-.04-3.66-.02,0,.73,0,1.5.01,2.23.12.32.18.79.18,1.19,0,1.39-.56,2.84-2.14,3.87-.2.13-.36.23-.47.23s-.24-.08-.36-.18c-.28-.23-.6-.38-.91-.48,1.4-.62,2.24-1.63,2.46-2.64-.24.35-.73.48-1.13.48-.95,0-1.67-.68-1.67-1.83s.84-1.8,1.81-1.8c.36,0,.72.07.91.24,0-.42-.01-.83-.01-1.22-1.51.08-3.2.23-4.15.36-.26.04-.46.14-.56.14-.12,0-.17-.05-.2-.17-.1-.24-.2-.72-.3-1.21.44.05.83,0,1.46-.05.73-.06,2.28-.16,3.72-.24-.01-.37-.01-.67-.02-1ZM298.76,51.94c0,.53.34.82.77.82s.82-.28.82-.83c0-.49-.31-.77-.79-.77-.37,0-.79.25-.79.78Z"/>
    <path class="uuid-7fb08a22-c5ee-4682-80d0-c9882b4ff6ef" d="M311.47,53.57h-1.21l-.34-7.14h1.87l-.32,7.14ZM311.7,54.73v1.62h-1.7v-1.62h1.7Z"/>
    <path class="uuid-b6e69d01-095a-4a0d-b850-97f7bb632556" d="M136.86,52.8c-1.52,0-2.05.03-2.15.03-.16,0-.18-.02-.18-.18v-1.14c0-.16.02-.18.18-.18.08,0,.54.03,1.71.03v-2.2h-.47c-1.42,0-1.91.03-2,.03-.15,0-.16-.02-.16-.18v-1.19c0-.16.02-.18.16-.18.1,0,.59.03,2,.03h.47v-1.63c-.26.28-.54.54-.81.78-.2.15-.29.21-.38.21-.1,0-.18-.1-.36-.33-.24-.31-.47-.54-.73-.72,1.3-.88,2.22-1.97,2.84-3.03.2-.38.31-.65.41-.98.47.1.98.24,1.4.41.13.05.23.13.23.21s-.05.16-.15.23c-.13.1-.23.23-.38.47-.16.26-.34.54-.54.82h7.4c1.58,0,2.13-.03,2.23-.03.18,0,.2.02.2.18v1.17c0,.15-.02.16-.2.16-.08,0-.47-.02-1.48-.03v2.1h.26c1.42,0,1.91-.03,2-.03.15,0,.16.02.16.18v1.19c0,.16-.02.18-.16.18-.1,0-.59-.03-2-.03h-.26v2.2c1.11,0,1.55-.03,1.63-.03.16,0,.18.02.18.18v1.14c0,.16-.02.18-.18.18-.1,0-.62-.03-2.15-.03h-8.72ZM134.16,56.19c-.11-.06-.16-.13-.16-.18s.03-.08.1-.15c.78-.73,1.4-1.56,1.84-2.51.07-.16.1-.16.33-.07l.95.39c.21.1.21.13.15.29-.49,1.08-1.17,2.05-1.92,2.85-.05.07-.1.1-.15.1s-.1-.03-.2-.1l-.93-.64ZM139.18,47.68v-2.1h-1.25v2.1h1.25ZM139.18,51.37v-2.2h-1.25v2.2h1.25ZM139.76,53.62c.2-.02.24-.02.28.16.21.85.31,1.76.37,2.71.02.16-.02.21-.21.23l-1.17.1c-.26.03-.28,0-.28-.16-.02-.93-.1-1.86-.28-2.69-.03-.2,0-.23.24-.24l1.04-.1ZM141.88,47.68v-2.1h-1.29v2.1h1.29ZM141.88,51.37v-2.2h-1.29v2.2h1.29ZM142.94,53.53c.21-.03.24-.02.31.13.37.85.64,1.73.83,2.59.03.18.02.21-.2.26l-1.16.23c-.24.05-.28.05-.31-.13-.16-.91-.38-1.83-.68-2.62-.07-.16-.03-.2.2-.25l1.01-.21ZM144.6,47.68v-2.1h-1.3v2.1h1.3ZM144.6,51.37v-2.2h-1.3v2.2h1.3ZM146.04,53.26c.2-.1.24-.08.36.05.68.8,1.27,1.63,1.76,2.57.08.15.06.18-.15.29l-1.03.57c-.2.1-.24.08-.33-.07-.47-.99-.98-1.84-1.65-2.72-.1-.13-.08-.16.13-.26l.9-.44Z"/>
    <path class="uuid-b6e69d01-095a-4a0d-b850-97f7bb632556" d="M156.74,44.49c0-1.04-.03-1.56-.13-2.3.6.02,1.09.05,1.65.11.16.02.26.1.26.16,0,.15-.05.23-.1.34-.1.2-.11.54-.11,1.65v3.06h.13c1.25,0,1.66-.03,1.76-.03.16,0,.18.02.18.18v1.16c0,.15-.02.16-.18.16-.1,0-.49-.03-1.66-.03.68,1.12,1.32,1.92,2.2,2.82-.24.29-.47.68-.65,1.08-.1.2-.16.29-.23.29s-.15-.08-.26-.24c-.47-.68-.93-1.43-1.32-2.33,0,3.23.11,6.14.11,6.39,0,.16-.02.18-.2.18h-1.34c-.16,0-.18-.02-.18-.18,0-.25.08-2.93.11-5.98-.49,1.32-1.14,2.58-1.97,3.72-.13.16-.21.26-.29.26-.07,0-.13-.08-.2-.28-.15-.46-.39-.96-.59-1.19,1.17-1.35,2.02-2.82,2.62-4.53h-.29c-1.27,0-1.68.03-1.78.03-.16,0-.18-.02-.18-.16v-1.16c0-.16.02-.18.18-.18.1,0,.5.03,1.78.03h.67v-3.03ZM155.17,43.38c.2-.08.21-.07.29.1.42.96.68,1.79.88,2.74.03.16,0,.21-.21.29l-.7.26c-.24.1-.26.08-.29-.1-.18-.98-.46-1.86-.83-2.72-.07-.18-.03-.21.18-.29l.68-.28ZM159.36,43.92c.03-.16.08-.46.1-.7.44.15.95.31,1.24.46.13.07.18.11.18.2s-.03.13-.1.16c-.1.06-.15.18-.2.36-.2.67-.44,1.32-.75,2.07-.1.24-.15.34-.24.34-.06,0-.16-.05-.33-.15-.24-.13-.51-.23-.65-.28.34-.85.6-1.76.75-2.46ZM165.27,51.3v-6.52c0-1.16-.02-1.66-.13-2.48.62.02,1.16.05,1.73.11.15.02.24.08.24.18,0,.11-.05.2-.1.33-.08.2-.1.6-.1,1.81v6.24c.95-.2,1.32-.31,1.47-.34.15-.03.15-.02.18.16l.2,1.27c.02.15.02.16-.16.2-.11.03-.55.1-1.68.33v1.52c0,1.81.03,2.74.03,2.82,0,.16-.02.18-.18.18h-1.35c-.16,0-.18-.02-.18-.18,0-.1.03-.99.03-2.8v-1.21l-2.23.44c-1.42.28-1.94.39-2.1.42-.16.03-.2.02-.21-.13l-.21-1.29c-.03-.18-.02-.18.15-.21s.7-.08,2.12-.36l2.49-.49ZM161.69,47.15c.08-.08.11-.11.15-.11.05,0,.08.03.16.1.75.52,1.6,1.29,2.25,2.09.11.15.11.18-.05.34l-.8.8c-.18.16-.21.16-.33.03-.67-.85-1.4-1.61-2.15-2.22-.06-.07-.11-.1-.11-.13,0-.05.05-.1.13-.18l.75-.72ZM162.13,43.43c.15-.13.16-.16.31-.07.81.57,1.65,1.27,2.3,2.07.1.11.1.18-.05.31l-.78.77c-.18.18-.21.2-.31.05-.67-.85-1.5-1.61-2.22-2.13-.11-.08-.13-.16.03-.31l.72-.68Z"/>
    <polygon class="polygon" 
    points="180.13 65.18
            123.85 65.18 
            123.85 38.22 
            145.22 26.95 
            180.13 38.22 
            180.13 65.18"/>
    <rect class="rect" width="375" height="166.89"/>
</g>
</svg>