<?xml version="1.0" encoding="UTF-8"?><svg id="uuid-9570c20b-0152-46df-ba50-0c1fae5cfb4d" xmlns="http://www.w3.org/2000/svg" width="89.07" height="63.62" viewBox="0 0 89.07 63.62"><defs><style>.uuid-ab2fe4a2-add9-4a2e-ac20-edd659f63b2a{fill:#b11f3a;}.uuid-fece9b26-e121-42fa-b524-7fa2b09a0e5b{fill:#fff;stroke:#b11f3a;stroke-miterlimit:10;}</style></defs><g id="uuid-a1821d3f-0eab-4b33-915d-9501e97026f5"><polyline class="uuid-fece9b26-e121-42fa-b524-7fa2b09a0e5b" points="23.92 9.47 .5 9.47 .5 37.41 60.28 37.41 60.28 63.12 88.57 63.12 88.57 9.47 33.64 9.47 25.46 .33"/><path class="uuid-ab2fe4a2-add9-4a2e-ac20-edd659f63b2a" d="M17.09,24h-5.35v4.01h6.25v1.81h-8.52v-13.03h8.45v1.83h-6.19v3.6h5.35v1.79Z"/><path class="uuid-ab2fe4a2-add9-4a2e-ac20-edd659f63b2a" d="M24.87,23.32l1.84-3.18h2.42l-2.96,4.77,3.06,4.91h-2.4l-1.93-3.31-1.92,3.31h-2.42l3.06-4.91-2.95-4.77h2.4l1.81,3.18Z"/><path class="uuid-ab2fe4a2-add9-4a2e-ac20-edd659f63b2a" d="M35.17,17.78v2.35h1.71v1.61h-1.71v5.4c0,.37.07.64.22.8s.41.25.78.25c.25,0,.5-.03.76-.09v1.68c-.5.14-.97.21-1.43.21-1.67,0-2.5-.92-2.5-2.76v-5.48h-1.59v-1.61h1.59v-2.35h2.17Z"/><path class="uuid-ab2fe4a2-add9-4a2e-ac20-edd659f63b2a" d="M43.94,29.99c-1.38,0-2.49-.43-3.35-1.3-.86-.87-1.28-2.02-1.28-3.47v-.27c0-.97.19-1.83.56-2.59.37-.76.9-1.35,1.57-1.78.67-.42,1.43-.63,2.25-.63,1.32,0,2.34.42,3.06,1.26.72.84,1.08,2.03,1.08,3.57v.88h-6.32c.07.8.33,1.43.8,1.9.47.46,1.06.7,1.77.7,1,0,1.81-.4,2.43-1.21l1.17,1.12c-.39.58-.91,1.03-1.55,1.35-.65.32-1.37.48-2.18.48ZM43.68,21.7c-.6,0-1.08.21-1.44.63-.37.42-.6,1-.7,1.74h4.14v-.16c-.05-.73-.24-1.28-.58-1.65s-.81-.56-1.41-.56Z"/><path class="uuid-ab2fe4a2-add9-4a2e-ac20-edd659f63b2a" d="M56.03,22.12c-.29-.05-.58-.07-.89-.07-1,0-1.67.38-2.01,1.14v6.62h-2.17v-9.68h2.08l.05,1.08c.52-.84,1.25-1.26,2.18-1.26.31,0,.57.04.77.12v2.04Z"/><path class="uuid-ab2fe4a2-add9-4a2e-ac20-edd659f63b2a" d="M58.71,17.62c0-.33.11-.61.32-.83.21-.22.51-.33.91-.33s.7.11.91.33.32.5.32.83-.11.6-.32.82-.52.33-.91.33-.7-.11-.91-.33c-.21-.22-.32-.49-.32-.82ZM61.01,29.81h-2.17v-9.68h2.17v9.68Z"/><path class="uuid-ab2fe4a2-add9-4a2e-ac20-edd659f63b2a" d="M64.24,24.89c0-.95.19-1.8.56-2.56.38-.76.9-1.34,1.58-1.75.68-.41,1.46-.61,2.34-.61,1.31,0,2.37.42,3.18,1.26.81.84,1.25,1.96,1.32,3.35v.51c0,.95-.17,1.81-.54,2.56-.37.75-.89,1.33-1.57,1.74-.68.41-1.47.62-2.37.62-1.37,0-2.46-.45-3.28-1.36-.82-.91-1.23-2.12-1.23-3.64v-.11ZM66.41,25.07c0,1,.21,1.78.62,2.34.41.56.98.84,1.72.84s1.3-.29,1.71-.86c.41-.57.61-1.41.61-2.51,0-.98-.21-1.75-.63-2.33-.42-.57-.99-.86-1.71-.86s-1.27.28-1.69.85-.63,1.41-.63,2.53Z"/><path class="uuid-ab2fe4a2-add9-4a2e-ac20-edd659f63b2a" d="M81.52,22.12c-.29-.05-.58-.07-.89-.07-1,0-1.67.38-2.01,1.14v6.62h-2.17v-9.68h2.08l.05,1.08c.52-.84,1.25-1.26,2.18-1.26.31,0,.57.04.77.12v2.04Z"/><path class="uuid-ab2fe4a2-add9-4a2e-ac20-edd659f63b2a" d="M71.63,38.74c.04-.05.06-.07.09-.07s.06.02.1.06c.31.27.59.53.88.87.3-.65.53-1.38.69-2.18h-1.43c-.43.93-1,1.75-1.71,2.52-.09.1-.15.15-.2.15s-.1-.06-.17-.2c-.13-.24-.3-.44-.5-.61,1.06-1.06,1.69-2.14,2.11-3.56.09-.31.12-.53.13-.79.41.07.69.12,1.03.22.1.03.15.08.15.14,0,.08-.03.13-.07.17-.08.08-.12.24-.2.51-.06.18-.11.35-.17.51h1.04c.16,0,.23-.02.3-.06.06-.03.08-.04.14-.04.07,0,.18.03.44.27.24.21.29.29.29.35s-.04.1-.1.17l-.06.1c.3.49.64.92,1.01,1.29v-2.13c0-.71,0-1.07-.08-1.53.37,0,.76.03,1.11.08.09,0,.15.04.15.1,0,.07-.03.14-.05.2-.05.13-.07.38-.07,1.12v3.05c.69.48,1.48.86,2.36,1.21-.15.19-.33.49-.44.79-.07.18-.1.25-.18.25-.05,0-.12-.03-.23-.08-.55-.26-1.05-.53-1.51-.84v1.45c0,1.13.02,1.7.02,1.75,0,.1-.01.11-.11.11h-.87c-.1,0-.11,0-.11-.11,0-.06.02-.62.02-1.75v-2.28c-.46-.43-.87-.92-1.26-1.49-.6,2.33-1.82,3.97-3.65,5.29-.12.09-.19.14-.24.14-.06,0-.11-.07-.22-.2-.16-.21-.36-.38-.58-.53,1.15-.68,2.07-1.55,2.75-2.63-.36-.42-.65-.71-1-1.03-.04-.04-.06-.06-.06-.09s.02-.07.06-.12l.41-.53Z"/><path class="uuid-ab2fe4a2-add9-4a2e-ac20-edd659f63b2a" d="M70.75,50.26c-.88,0-1.17.02-1.23.02-.09,0-.1-.01-.1-.11v-.62c0-.1,0-.11.1-.11.06,0,.35.02,1.23.02h.51c.08-.23.16-.48.22-.74h-.66c-.1.16-.23.34-.38.53-.09.11-.14.16-.2.16-.05,0-.11-.04-.22-.12-.18-.12-.38-.22-.53-.29.43-.44.68-.83.94-1.29.08-.17.17-.39.22-.62.3.06.55.11.79.17.09.02.15.06.15.14,0,.06-.04.1-.11.17-.06.06-.1.14-.21.37h1.18c.87,0,1.16-.02,1.22-.02.1,0,.11,0,.11.11v.58c0,.11-.01.12-.11.12-.06,0-.34-.02-1.22-.02h-.02c-.06.26-.13.51-.21.74h.46c.86,0,1.16-.02,1.22-.02.1,0,.11,0,.11.11v.62c0,.1-.01.11-.11.11-.06,0-.35-.02-1.22-.02h-.78c-.15.3-.31.58-.51.85h.68c.05-.09.08-.17.11-.24.06-.14.1-.28.13-.48.25.04.63.09.8.14.1.03.14.06.14.1,0,.05-.03.09-.07.12-.07.06-.1.1-.13.17l-.09.19c.58,0,.76-.02.82-.02.1,0,.11,0,.11.11v.52c0,.11,0,.12-.11.12-.06,0-.24-.02-.86-.02h-.13v.58c.56,0,.78-.02.83-.02.1,0,.11,0,.11.11v.5c0,.1-.01.11-.11.11-.05,0-.27,0-.83-.02v.58c.56,0,.78-.02.83-.02.1,0,.11.01.11.11v.49c0,.1-.01.11-.11.11-.05,0-.27,0-.83-.02v.6c.58,0,.79-.02.85-.02.1,0,.11,0,.11.12v.32c.83-.45,1.15-1.13,1.23-2.16-.37.01-.53.01-.58.01-.1,0-.11,0-.11-.11,0-.06.02-.43.02-1.25v-2.99c0-.8-.02-1.19-.02-1.25,0-.1.01-.11.11-.11.07,0,.32.02,1.12.02h1.45c.78,0,1.06-.02,1.12-.02.11,0,.12.01.12.11,0,.06-.02.44-.02,1.25v2.99c0,.82.02,1.19.02,1.25,0,.11,0,.11-.12.11-.05,0-.28-.01-.79-.01v1.8c0,.18,0,.22.03.26.05.05.11.05.24.05.17,0,.27-.02.32-.09.09-.1.1-.39.12-1.07.21.16.46.27.64.33.19.06.19.08.18.3-.05.74-.17,1.06-.36,1.23-.21.18-.57.2-1.01.2-.36,0-.63,0-.84-.12-.17-.1-.26-.33-.26-.66v-2.23h-.41c-.12,1.44-.53,2.29-1.65,3.01-.13.08-.2.12-.27.12s-.12-.06-.21-.2c-.15-.22-.27-.36-.4-.46-.17,0-.45,0-.9,0h-1.42v.48c0,.09-.01.1-.11.1h-.69c-.1,0-.11,0-.11-.1,0-.06.02-.25.02-.91v-2.82l-.37.32c-.1.08-.16.13-.21.13s-.08-.07-.12-.22c-.08-.26-.19-.47-.29-.61.76-.5,1.33-1.08,1.72-1.79h-.16ZM71.94,52.41v-.58h-.85v.58h.85ZM71.94,53.68v-.58h-.85v.58h.85ZM71.94,54.96v-.6h-.85v.6h.85ZM75.26,48.41v.75h1.95v-.75h-1.95ZM77.21,50.74v-.77h-1.95v.77h1.95ZM77.21,51.55h-1.95v.82h1.95v-.82Z"/></g></svg>