<?xml version="1.0" encoding="UTF-8"?><svg id="uuid-bccb3ccc-2061-4799-86a6-d97d8aba47d8" xmlns="http://www.w3.org/2000/svg" width="375" height="74.29" viewBox="0 0 375 74.29"><defs><style>.uuid-749119bc-2ca2-445f-a567-68b752a36282{fill:#231815;}.uuid-d2ab8c72-e376-4572-9301-c5998da11ab3{stroke-width:.87px;}.uuid-d2ab8c72-e376-4572-9301-c5998da11ab3,.uuid-239995f6-b6b4-4a41-8f31-e131d671a30c{fill:#b11f3a;}.uuid-d2ab8c72-e376-4572-9301-c5998da11ab3,.uuid-db797fa8-dc2b-48e0-8e94-f6cc613cc61c{stroke:#b11f3a;stroke-miterlimit:10;}.uuid-c6766921-5670-4a98-8f1c-2e576c04c91a{fill:none;}.uuid-db797fa8-dc2b-48e0-8e94-f6cc613cc61c{fill:#fff;}</style></defs><g id="uuid-c893feae-0217-468f-b137-5c1a6ac82da9"><polyline class="uuid-db797fa8-dc2b-48e0-8e94-f6cc613cc61c" points="86.51 62.39 107.38 62.39 107.38 35.66 50.71 35.66 50.71 8.63 23.63 8.63 23.63 62.39 76.77 62.39 84.96 71.54"/><path class="uuid-239995f6-b6b4-4a41-8f31-e131d671a30c" d="M35.81,54.96h-2.26v-13.05h2.26v13.05Z"/><path class="uuid-239995f6-b6b4-4a41-8f31-e131d671a30c" d="M41.77,45.26l.06,1.12c.72-.87,1.66-1.3,2.82-1.3,2.02,0,3.05,1.16,3.08,3.47v6.41h-2.18v-6.28c0-.62-.13-1.07-.4-1.37-.27-.3-.7-.44-1.3-.44-.88,0-1.53.4-1.96,1.19v6.9h-2.18v-9.7h2.05Z"/><path class="uuid-239995f6-b6b4-4a41-8f31-e131d671a30c" d="M54.07,42.9v2.36h1.71v1.61h-1.71v5.41c0,.37.07.64.22.8.15.16.41.25.78.25.25,0,.5-.03.76-.09v1.68c-.5.14-.97.21-1.43.21-1.67,0-2.51-.92-2.51-2.77v-5.5h-1.6v-1.61h1.6v-2.36h2.18Z"/><path class="uuid-239995f6-b6b4-4a41-8f31-e131d671a30c" d="M62.85,55.13c-1.38,0-2.5-.43-3.36-1.3-.86-.87-1.29-2.03-1.29-3.47v-.27c0-.97.19-1.83.56-2.59s.9-1.36,1.57-1.78c.68-.42,1.43-.64,2.26-.64,1.32,0,2.34.42,3.06,1.26.72.84,1.08,2.04,1.08,3.58v.88h-6.34c.07.8.33,1.43.8,1.9.47.47,1.06.7,1.77.7,1,0,1.81-.4,2.44-1.21l1.17,1.12c-.39.58-.91,1.03-1.56,1.35-.65.32-1.38.48-2.18.48ZM62.59,46.82c-.6,0-1.08.21-1.45.63-.37.42-.6,1-.7,1.75h4.15v-.16c-.05-.73-.24-1.28-.58-1.65-.34-.37-.81-.56-1.42-.56Z"/><path class="uuid-239995f6-b6b4-4a41-8f31-e131d671a30c" d="M74.97,47.25c-.29-.05-.58-.07-.89-.07-1,0-1.67.38-2.02,1.15v6.63h-2.18v-9.7h2.08l.05,1.08c.53-.84,1.25-1.26,2.19-1.26.31,0,.57.04.77.13v2.04Z"/><path class="uuid-239995f6-b6b4-4a41-8f31-e131d671a30c" d="M77.65,42.74c0-.33.11-.61.32-.83.21-.22.52-.33.91-.33s.7.11.91.33c.21.22.32.5.32.83s-.11.6-.32.82c-.22.22-.52.33-.91.33s-.7-.11-.91-.33c-.21-.22-.32-.49-.32-.82ZM79.96,54.96h-2.18v-9.7h2.18v9.7Z"/><path class="uuid-239995f6-b6b4-4a41-8f31-e131d671a30c" d="M83.19,50.02c0-.95.19-1.81.56-2.57s.91-1.35,1.59-1.76c.68-.41,1.46-.61,2.35-.61,1.31,0,2.37.42,3.19,1.26.82.84,1.26,1.96,1.32,3.35v.51c0,.96-.17,1.81-.54,2.56s-.89,1.34-1.58,1.75c-.68.41-1.47.62-2.37.62-1.37,0-2.46-.46-3.29-1.37-.82-.91-1.23-2.12-1.23-3.64v-.11ZM85.37,50.2c0,1,.21,1.78.62,2.34.41.56.99.85,1.72.85s1.31-.29,1.72-.86c.41-.57.61-1.41.61-2.52,0-.98-.21-1.76-.63-2.33-.42-.57-.99-.86-1.72-.86s-1.28.28-1.69.85c-.42.56-.63,1.41-.63,2.53Z"/><path class="uuid-239995f6-b6b4-4a41-8f31-e131d671a30c" d="M99.76,47.25c-.29-.05-.58-.07-.89-.07-1,0-1.67.38-2.02,1.15v6.63h-2.18v-9.7h2.08l.05,1.08c.53-.84,1.25-1.26,2.19-1.26.31,0,.57.04.77.13v2.04Z"/><path class="uuid-239995f6-b6b4-4a41-8f31-e131d671a30c" d="M41.01,20.88c0,.88.03,1.41.02,1.75,0,.37-.1.66-.32.84-.22.17-.57.26-1.56.26-.29,0-.32-.01-.38-.32-.06-.31-.16-.58-.28-.79.42.03.87.05,1.06.04.31-.01.4-.09.4-.34v-1.71c-.2.19-.37.41-.5.63-.09.14-.14.21-.2.21-.05,0-.11-.04-.22-.12-.89-.66-1.58-1.44-2.04-2.49l-.03.08c-.42.99-.94,1.75-2.06,2.54-.11.09-.17.13-.22.13-.06,0-.1-.06-.19-.2-.14-.22-.3-.42-.48-.58v1.4c0,.94.02,1.4.02,1.46,0,.09-.01.1-.12.1h-.88c-.1,0-.11,0-.11-.1,0-.07.02-.54.02-1.58v-3.9c0-1.04-.02-1.52-.02-1.59,0-.1.01-.11.11-.11.07,0,.4.02,1.36.02h1.97c.01-.23.02-.47.02-.73,0-.36,0-.71-.06-1.08.35,0,.75.04,1.11.07.1,0,.15.06.15.12,0,.07-.03.13-.06.21-.03.1-.04.32-.05.74,0,.22-.01.44-.02.67h2.15c.95,0,1.29-.02,1.35-.02.1,0,.11,0,.11.11,0,.06-.02.6-.02,1.65v2.63ZM33.98,20.71c1.07-.6,1.63-1.31,1.96-2.08.14-.33.24-.72.31-1.15h-2.28v3.23ZM39.94,17.48h-2.58c.53,1.55,1.32,2.35,2.58,3.07v-3.07Z"/><path class="uuid-239995f6-b6b4-4a41-8f31-e131d671a30c" d="M33.67,30.17c-.88,0-1.17.02-1.23.02-.09,0-.1,0-.1-.11v-.62c0-.1,0-.11.1-.11.06,0,.35.02,1.23.02h.51c.08-.23.16-.48.22-.75h-.66c-.1.16-.23.34-.38.53-.09.11-.14.16-.2.16-.05,0-.11-.04-.22-.12-.18-.12-.38-.22-.53-.29.43-.44.68-.83.94-1.29.08-.17.17-.39.22-.62.3.06.55.11.8.17.09.02.15.06.15.14,0,.06-.04.1-.11.17-.06.06-.1.14-.21.37h1.18c.88,0,1.16-.02,1.22-.02.1,0,.11.01.11.11v.58c0,.11-.01.12-.11.12-.06,0-.34-.02-1.22-.02h-.02c-.06.26-.13.51-.21.75h.46c.87,0,1.16-.02,1.22-.02.1,0,.11,0,.11.11v.62c0,.1,0,.11-.11.11-.06,0-.35-.02-1.22-.02h-.79c-.15.3-.31.58-.51.86h.69c.05-.09.08-.17.11-.24.06-.14.1-.28.13-.48.25.04.63.09.81.14.1.03.14.06.14.1,0,.05-.03.09-.07.12-.07.06-.1.1-.13.17l-.09.19c.58,0,.77-.02.83-.02.1,0,.11,0,.11.11v.52c0,.11,0,.12-.11.12-.06,0-.24-.02-.87-.02h-.13v.58c.56,0,.79-.02.84-.02.1,0,.11.01.11.11v.5c0,.1,0,.11-.11.11-.05,0-.27,0-.84-.02v.58c.56,0,.79-.02.84-.02.1,0,.11,0,.11.11v.49c0,.1,0,.11-.11.11-.05,0-.27,0-.84-.02v.6c.58,0,.8-.02.86-.02.1,0,.11,0,.11.12v.32c.84-.45,1.15-1.13,1.23-2.17-.37,0-.53,0-.58,0-.1,0-.11,0-.11-.11,0-.06.02-.43.02-1.25v-2.99c0-.81-.02-1.19-.02-1.25,0-.1,0-.11.11-.11.07,0,.32.02,1.12.02h1.45c.79,0,1.06-.02,1.12-.02.11,0,.12.01.12.11,0,.06-.02.44-.02,1.25v2.99c0,.82.02,1.19.02,1.25,0,.11-.01.11-.12.11-.05,0-.28,0-.8,0v1.8c0,.18-.01.22.03.26.05.05.11.05.24.05.17,0,.27-.02.32-.09.09-.1.1-.39.12-1.07.21.16.46.27.64.33.19.06.19.08.18.3-.05.75-.17,1.06-.36,1.23-.21.18-.57.2-1.01.2-.36,0-.63,0-.85-.12-.17-.1-.26-.33-.26-.67v-2.24h-.41c-.12,1.44-.53,2.3-1.65,3.01-.13.08-.2.12-.27.12s-.12-.06-.21-.2c-.15-.22-.27-.36-.4-.46-.17,0-.45-.01-.9-.01h-1.42v.48c0,.09-.01.1-.11.1h-.69c-.1,0-.11,0-.11-.1,0-.06.02-.25.02-.91v-2.82l-.37.32c-.1.08-.16.13-.21.13s-.08-.07-.12-.22c-.08-.26-.19-.47-.29-.61.77-.5,1.33-1.08,1.72-1.79h-.16ZM34.86,32.32v-.58h-.86v.58h.86ZM34.86,33.59v-.58h-.86v.58h.86ZM34.86,34.87v-.6h-.86v.6h.86ZM38.18,28.31v.75h1.95v-.75h-1.95ZM40.14,30.65v-.78h-1.95v.78h1.95ZM40.14,31.46h-1.95v.83h1.95v-.83Z"/><path class="uuid-239995f6-b6b4-4a41-8f31-e131d671a30c" d="M188.21,46.16h-23.99v-4.83l14.64-14.54c1.11-1.14,2.06-2.34,2.86-3.58.8-1.25,1.19-2.65,1.19-4.21,0-.97-.17-1.84-.52-2.62-.35-.78-.81-1.45-1.4-2-.59-.55-1.28-.98-2.08-1.27-.8-.29-1.64-.44-2.54-.44-1.87,0-3.41.6-4.62,1.79-1.21,1.19-1.97,2.73-2.28,4.6l-4.93-.83c.21-1.38.65-2.67,1.32-3.87.67-1.19,1.53-2.23,2.57-3.12s2.24-1.57,3.61-2.05c1.37-.48,2.83-.73,4.39-.73s2.99.23,4.39.67c1.4.45,2.64,1.11,3.71,1.97,1.07.87,1.93,1.96,2.57,3.27.64,1.32.96,2.82.96,4.52,0,1.18-.16,2.27-.47,3.27-.31,1-.74,1.96-1.27,2.86-.54.9-1.17,1.76-1.9,2.57-.73.81-1.49,1.62-2.28,2.41l-11.94,11.63h18.02v4.52Z"/><path class="uuid-d2ab8c72-e376-4572-9301-c5998da11ab3" d="M199.93,45.83h-3.08v-22.06h13.77v2.71h-10.69v6.85h10v2.65h-10v9.85Z"/><path class="uuid-749119bc-2ca2-445f-a567-68b752a36282" d="M235.47,13h-.81v-.76h.91l.16-1.1h-.81v-.76h.91l.27-1.88h.79l-.27,1.88h.93l.27-1.88h.78l-.27,1.88h.81v.76h-.92l-.15,1.1h.81v.76h-.9l-.28,1.88h-.78l.27-1.88h-.94l-.27,1.88h-.78l.27-1.88ZM236.52,11.14l-.15,1.1h.93l.15-1.1h-.93Z"/><path class="uuid-749119bc-2ca2-445f-a567-68b752a36282" d="M240.6,8.51h2.48c.24,0,.48.03.71.09.23.06.44.15.63.28.18.13.33.3.45.5.11.2.17.45.17.74,0,.36-.1.66-.31.89s-.47.4-.8.5v.02c.4.05.73.21.99.47s.39.6.39,1.04c0,.35-.07.64-.21.88-.14.24-.32.43-.54.57-.23.14-.48.25-.77.31-.29.06-.59.09-.89.09h-2.29v-6.37ZM241.73,11.1h1.01c.38,0,.67-.07.86-.22.2-.15.3-.36.3-.64s-.1-.49-.31-.61c-.2-.12-.52-.18-.95-.18h-.91v1.66ZM241.73,13.92h1.02c.14,0,.3-.01.47-.03.17-.02.32-.06.46-.13.14-.07.26-.16.35-.29.09-.13.14-.29.14-.5,0-.34-.11-.57-.34-.7-.23-.13-.57-.2-1.04-.2h-1.06v1.85Z"/><path class="uuid-749119bc-2ca2-445f-a567-68b752a36282" d="M249.4,14.33h-.03c-.11.19-.28.35-.52.47-.24.12-.51.18-.82.18-.17,0-.36-.02-.54-.07-.19-.04-.36-.12-.52-.22-.16-.1-.29-.24-.4-.41s-.16-.38-.16-.63c0-.32.09-.58.27-.77.18-.19.42-.34.71-.44.29-.1.61-.17.96-.2.35-.03.69-.05,1.03-.05v-.11c0-.27-.1-.47-.29-.6-.2-.13-.43-.19-.7-.19-.23,0-.45.05-.66.14s-.38.21-.52.35l-.56-.66c.25-.23.53-.4.85-.51.32-.11.65-.17.98-.17.38,0,.7.05.95.16.25.11.45.25.59.42.14.17.24.37.3.58.06.22.09.43.09.65v2.63h-1.01v-.55ZM249.38,12.91h-.24c-.17,0-.36,0-.55.02-.19.01-.37.05-.53.1-.16.05-.3.12-.4.22-.11.09-.16.22-.16.38,0,.1.02.19.07.26.05.07.1.12.18.17.07.04.15.07.24.09.09.02.18.03.27.03.37,0,.65-.1.85-.3s.29-.47.29-.81v-.15Z"/><path class="uuid-749119bc-2ca2-445f-a567-68b752a36282" d="M252.04,8.07h1.08v6.8h-1.08v-6.8Z"/><path class="uuid-749119bc-2ca2-445f-a567-68b752a36282" d="M257.74,11.76c-.08-.12-.21-.22-.38-.3-.17-.08-.34-.12-.51-.12-.2,0-.37.04-.52.12s-.27.19-.37.32c-.1.13-.17.28-.22.45-.05.17-.07.33-.07.5s.03.33.08.5c.05.17.13.31.23.45.1.13.23.24.38.32s.33.12.54.12c.17,0,.34-.03.5-.1.17-.07.3-.16.4-.29l.68.68c-.18.19-.41.34-.69.45-.28.1-.58.16-.9.16s-.62-.05-.9-.15c-.29-.1-.53-.25-.75-.45-.21-.2-.38-.44-.5-.72-.12-.28-.18-.6-.18-.96s.06-.66.18-.95c.12-.28.29-.52.5-.72s.45-.35.73-.46c.28-.11.58-.16.9-.16s.63.06.92.18c.3.12.53.29.71.49l-.74.65Z"/><path class="uuid-749119bc-2ca2-445f-a567-68b752a36282" d="M259.24,12.7c0-.34.06-.65.18-.93s.29-.52.5-.72.46-.35.75-.46c.29-.11.59-.16.92-.16s.63.05.92.16c.29.11.54.26.75.46.21.2.38.44.5.72.12.28.18.59.18.93s-.06.65-.18.94c-.12.28-.29.52-.5.72-.21.2-.46.36-.75.47s-.59.17-.92.17-.63-.06-.92-.17-.54-.27-.75-.47-.38-.44-.5-.72-.18-.59-.18-.94ZM260.34,12.7c0,.17.03.34.08.5.05.17.13.32.23.45s.23.24.39.32c.16.08.34.13.56.13s.4-.04.56-.13c.16-.08.28-.19.39-.32s.18-.28.23-.45.08-.34.08-.5-.03-.33-.08-.5-.13-.31-.23-.45-.23-.24-.39-.32c-.16-.08-.34-.12-.56-.12s-.4.04-.56.12c-.16.08-.29.19-.39.32s-.18.28-.23.45c-.05.17-.08.33-.08.5Z"/><path class="uuid-749119bc-2ca2-445f-a567-68b752a36282" d="M265.33,10.56h1.03v.69h.02c.1-.22.26-.41.5-.57s.52-.25.84-.25c.28,0,.52.05.72.15.2.1.37.23.5.39s.22.35.28.56c.06.21.09.43.09.65v2.7h-1.08v-2.39c0-.13,0-.26-.03-.4s-.06-.26-.12-.37c-.06-.11-.14-.2-.25-.28-.1-.07-.24-.11-.42-.11s-.32.03-.45.1-.23.16-.31.27c-.08.11-.14.23-.18.37-.04.14-.06.28-.06.43v2.38h-1.08v-4.32Z"/><path class="uuid-749119bc-2ca2-445f-a567-68b752a36282" d="M270.15,10.56h1.2l1.21,3.14h.02l1.07-3.14h1.12l-2.04,5.25c-.08.2-.16.37-.25.53-.09.15-.2.28-.32.39-.13.1-.27.18-.45.24-.17.05-.38.08-.62.08-.09,0-.18,0-.27-.01-.09,0-.19-.03-.28-.05l.09-.94c.07.02.14.04.21.05.07,0,.13.01.19.01.11,0,.21-.01.29-.04.08-.03.14-.07.2-.13.05-.06.1-.13.14-.21s.09-.18.14-.3l.22-.55-1.85-4.32Z"/><path class="uuid-749119bc-2ca2-445f-a567-68b752a36282" d="M235.47,29h-.81v-.76h.91l.16-1.1h-.81v-.76h.91l.27-1.88h.79l-.27,1.88h.93l.27-1.88h.78l-.27,1.88h.81v.76h-.92l-.15,1.1h.81v.76h-.9l-.28,1.88h-.78l.27-1.88h-.94l-.27,1.88h-.78l.27-1.88ZM236.52,27.14l-.15,1.1h.93l.15-1.1h-.93Z"/><path class="uuid-749119bc-2ca2-445f-a567-68b752a36282" d="M240.6,24.51h2.08c.37,0,.7.03.99.1.29.07.55.17.76.32.21.15.37.34.49.58.11.23.17.52.17.85,0,.35-.07.65-.2.89s-.31.43-.54.58c-.23.15-.49.25-.79.32-.3.07-.62.1-.95.1h-.87v2.64h-1.13v-6.37ZM242.52,27.29c.19,0,.36-.01.53-.04.17-.03.32-.07.45-.14s.24-.16.31-.28c.08-.12.12-.28.12-.47s-.04-.34-.12-.45c-.08-.12-.18-.21-.31-.27-.13-.07-.28-.11-.44-.13-.17-.02-.33-.03-.51-.03h-.83v1.83h.79Z"/><path class="uuid-749119bc-2ca2-445f-a567-68b752a36282" d="M250.27,28.77v.14s0,.1,0,.14h-3.29c.01.16.05.3.12.43.07.13.16.24.27.33.11.09.24.17.39.22.14.05.29.08.45.08.27,0,.5-.05.68-.15.19-.1.34-.24.46-.41l.72.58c-.43.58-1.04.86-1.85.86-.34,0-.65-.05-.93-.16-.28-.11-.53-.25-.73-.45-.21-.19-.37-.43-.49-.71-.12-.28-.18-.6-.18-.95s.06-.67.18-.95c.12-.29.28-.53.48-.73.2-.2.45-.36.72-.47.28-.11.58-.17.9-.17.3,0,.58.05.83.15.25.1.48.25.66.44s.33.44.44.73c.1.29.16.63.16,1.02ZM249.19,28.29c0-.14-.02-.27-.06-.4s-.1-.24-.18-.33c-.08-.1-.19-.17-.32-.23-.13-.06-.28-.08-.45-.08-.32,0-.6.1-.82.29-.23.2-.35.45-.37.75h2.21Z"/><path class="uuid-749119bc-2ca2-445f-a567-68b752a36282" d="M251.67,26.56h1.03v.69h.02c.1-.22.26-.41.5-.57s.52-.25.84-.25c.28,0,.52.05.72.15.2.1.37.23.5.39s.22.35.28.56c.06.21.09.43.09.65v2.7h-1.08v-2.39c0-.13,0-.26-.03-.4s-.06-.26-.12-.37c-.06-.11-.14-.2-.25-.28-.1-.07-.24-.11-.42-.11s-.32.03-.45.1-.23.16-.31.27c-.08.11-.14.23-.18.37-.04.14-.06.28-.06.43v2.38h-1.08v-4.32Z"/><path class="uuid-749119bc-2ca2-445f-a567-68b752a36282" d="M257.1,25.09c0-.17.06-.33.19-.45s.29-.19.49-.19.36.06.5.18c.14.12.2.28.2.46s-.07.34-.2.46c-.13.12-.3.18-.5.18s-.36-.06-.49-.19c-.13-.13-.19-.28-.19-.46ZM257.26,26.56h1.08v4.32h-1.08v-4.32Z"/><path class="uuid-749119bc-2ca2-445f-a567-68b752a36282" d="M259.99,26.56h1.03v.69h.02c.1-.22.26-.41.5-.57s.52-.25.84-.25c.28,0,.52.05.72.15.2.1.37.23.5.39s.22.35.28.56c.06.21.09.43.09.65v2.7h-1.08v-2.39c0-.13,0-.26-.03-.4s-.06-.26-.12-.37c-.06-.11-.14-.2-.25-.28-.1-.07-.24-.11-.42-.11s-.32.03-.45.1-.23.16-.31.27c-.08.11-.14.23-.18.37-.04.14-.06.28-.06.43v2.38h-1.08v-4.32Z"/><path class="uuid-749119bc-2ca2-445f-a567-68b752a36282" d="M267.99,27.71c-.1-.13-.23-.24-.4-.33-.17-.09-.35-.14-.55-.14-.17,0-.33.04-.48.11-.14.07-.22.19-.22.36s.08.29.24.36c.16.07.39.14.7.21.16.04.33.08.49.14.16.06.31.14.45.24.14.1.24.22.33.37.08.15.13.33.13.54,0,.26-.05.49-.15.67-.1.18-.23.33-.4.45-.17.11-.36.2-.58.25s-.45.08-.68.08c-.34,0-.66-.06-.98-.18-.32-.12-.58-.3-.79-.53l.71-.67c.12.16.28.29.47.39.19.1.41.15.64.15.08,0,.16,0,.24-.03.08-.02.16-.05.23-.08s.12-.09.17-.16c.04-.07.06-.15.06-.24,0-.18-.08-.31-.25-.39-.17-.08-.41-.16-.74-.23-.16-.04-.32-.08-.47-.14-.15-.06-.29-.13-.41-.23-.12-.09-.22-.21-.29-.35-.07-.14-.11-.31-.11-.51,0-.24.05-.45.15-.62.1-.17.23-.32.39-.43.16-.11.35-.19.55-.25.2-.05.41-.08.63-.08.31,0,.62.05.91.16.3.11.53.27.71.5l-.7.62Z"/><path class="uuid-749119bc-2ca2-445f-a567-68b752a36282" d="M273.96,30.88h-1.03v-.69h-.02c-.1.22-.26.41-.5.57-.24.16-.52.25-.84.25-.28,0-.52-.05-.72-.15s-.37-.23-.5-.39-.22-.35-.28-.56c-.06-.21-.09-.43-.09-.65v-2.7h1.08v2.39c0,.13,0,.26.03.4.02.14.06.26.12.37s.14.2.25.27.24.11.42.11.32-.03.45-.1c.13-.07.23-.16.32-.26.08-.11.14-.23.18-.37.04-.14.06-.28.06-.43v-2.38h1.08v4.32Z"/><path class="uuid-749119bc-2ca2-445f-a567-68b752a36282" d="M275.62,24.07h1.08v6.8h-1.08v-6.8Z"/><path class="uuid-749119bc-2ca2-445f-a567-68b752a36282" d="M281.05,30.33h-.03c-.11.19-.28.35-.52.47-.24.12-.51.18-.82.18-.17,0-.36-.02-.54-.07-.19-.04-.36-.12-.52-.22-.16-.1-.29-.24-.4-.41s-.16-.38-.16-.63c0-.32.09-.58.27-.77.18-.19.42-.34.71-.44.29-.1.61-.17.96-.2.35-.03.69-.05,1.03-.05v-.11c0-.27-.1-.47-.29-.6-.2-.13-.43-.19-.7-.19-.23,0-.45.05-.66.14s-.38.21-.52.35l-.56-.66c.25-.23.53-.4.85-.51.32-.11.65-.17.98-.17.38,0,.7.05.95.16.25.11.45.25.59.42.14.17.24.37.3.58.06.22.09.43.09.65v2.63h-1.01v-.55ZM281.03,28.91h-.24c-.17,0-.36,0-.55.02-.19.01-.37.05-.53.1-.16.05-.3.12-.4.22-.11.09-.16.22-.16.38,0,.1.02.19.07.26.05.07.1.12.18.17.07.04.15.07.24.09.09.02.18.03.27.03.37,0,.65-.1.85-.3s.29-.47.29-.81v-.15Z"/><path class="uuid-749119bc-2ca2-445f-a567-68b752a36282" d="M286.07,24.51h1.13v2.75h.03l2.66-2.75h1.53l-2.98,2.94,3.18,3.43h-1.59l-2.8-3.2h-.03v3.2h-1.13v-6.37Z"/><path class="uuid-749119bc-2ca2-445f-a567-68b752a36282" d="M292.51,25.09c0-.17.06-.33.19-.45s.29-.19.49-.19.36.06.5.18c.14.12.2.28.2.46s-.07.34-.2.46c-.13.12-.3.18-.5.18s-.36-.06-.49-.19c-.13-.13-.19-.28-.19-.46ZM292.66,26.56h1.08v4.32h-1.08v-4.32Z"/><path class="uuid-749119bc-2ca2-445f-a567-68b752a36282" d="M294.82,27.42v-.86h.76v-1.25h1.06v1.25h1.08v.86h-1.08v2.01c0,.19.03.35.1.48.07.13.22.19.46.19.07,0,.15,0,.23-.02.08-.01.16-.04.23-.07l.04.85c-.1.04-.21.06-.34.09-.13.02-.26.03-.38.03-.29,0-.52-.04-.7-.12-.18-.08-.32-.19-.43-.33-.1-.14-.18-.3-.22-.49-.04-.18-.06-.38-.06-.59v-2.02h-.76Z"/><path class="uuid-749119bc-2ca2-445f-a567-68b752a36282" d="M301.78,27.76c-.08-.12-.21-.22-.38-.3-.17-.08-.34-.12-.51-.12-.2,0-.37.04-.52.12s-.27.19-.37.32c-.1.13-.17.28-.22.45-.05.17-.07.33-.07.5s.03.33.08.5c.05.17.13.31.23.45.1.13.23.24.38.32s.33.12.54.12c.17,0,.34-.03.5-.1.17-.07.3-.16.4-.29l.68.68c-.18.19-.41.34-.69.45-.28.1-.58.16-.9.16s-.62-.05-.9-.15c-.29-.1-.53-.25-.75-.45-.21-.2-.38-.44-.5-.72-.12-.28-.18-.6-.18-.96s.06-.66.18-.95c.12-.28.29-.52.5-.72s.45-.35.73-.46c.28-.11.58-.16.9-.16s.63.06.92.18c.3.12.53.29.71.49l-.74.65Z"/><path class="uuid-749119bc-2ca2-445f-a567-68b752a36282" d="M306,26.43c.28,0,.52.05.72.15.2.1.37.23.5.39s.22.35.28.56c.06.21.09.43.09.65v2.7h-1.08v-2.38c0-.13,0-.26-.03-.39s-.06-.26-.11-.37c-.06-.11-.14-.2-.24-.27s-.24-.11-.42-.11-.32.03-.45.1-.23.15-.31.27-.15.24-.19.37c-.04.14-.06.28-.06.42v2.36h-1.08v-6.8h1.08v3.09h.02c.04-.09.1-.18.18-.27.08-.09.18-.17.28-.23.11-.07.23-.12.37-.17.14-.04.29-.06.45-.06Z"/><path class="uuid-749119bc-2ca2-445f-a567-68b752a36282" d="M313.34,28.77v.14s0,.1,0,.14h-3.29c.01.16.05.3.12.43.07.13.16.24.27.33.11.09.24.17.39.22.14.05.29.08.45.08.27,0,.5-.05.68-.15.19-.1.34-.24.46-.41l.72.58c-.43.58-1.04.86-1.85.86-.34,0-.65-.05-.93-.16-.28-.11-.53-.25-.73-.45-.21-.19-.37-.43-.49-.71-.12-.28-.18-.6-.18-.95s.06-.67.18-.95c.12-.29.28-.53.48-.73.2-.2.45-.36.72-.47.28-.11.58-.17.9-.17.3,0,.58.05.83.15.25.1.48.25.66.44s.33.44.44.73c.1.29.16.63.16,1.02ZM312.26,28.29c0-.14-.02-.27-.06-.4s-.1-.24-.18-.33c-.08-.1-.19-.17-.32-.23-.13-.06-.28-.08-.45-.08-.32,0-.6.1-.82.29-.23.2-.35.45-.37.75h2.21Z"/><path class="uuid-749119bc-2ca2-445f-a567-68b752a36282" d="M314.74,26.56h1.03v.69h.02c.1-.22.26-.41.5-.57s.52-.25.84-.25c.28,0,.52.05.72.15.2.1.37.23.5.39s.22.35.28.56c.06.21.09.43.09.65v2.7h-1.08v-2.39c0-.13,0-.26-.03-.4s-.06-.26-.12-.37c-.06-.11-.14-.2-.25-.28-.1-.07-.24-.11-.42-.11s-.32.03-.45.1-.23.16-.31.27c-.08.11-.14.23-.18.37-.04.14-.06.28-.06.43v2.38h-1.08v-4.32Z"/><path class="uuid-749119bc-2ca2-445f-a567-68b752a36282" d="M235.47,45h-.81v-.76h.91l.16-1.1h-.81v-.76h.91l.27-1.88h.79l-.27,1.88h.93l.27-1.88h.78l-.27,1.88h.81v.76h-.92l-.15,1.1h.81v.76h-.9l-.28,1.88h-.78l.27-1.88h-.94l-.27,1.88h-.78l.27-1.88ZM236.52,43.14l-.15,1.1h.93l.15-1.1h-.93Z"/><path class="uuid-749119bc-2ca2-445f-a567-68b752a36282" d="M240.6,40.51h2.26c.41,0,.83.05,1.25.16s.8.29,1.13.54c.34.25.61.58.82.98s.31.91.31,1.51c0,.56-.1,1.04-.31,1.44-.21.4-.48.73-.82.99-.34.26-.71.45-1.13.57s-.84.18-1.25.18h-2.26v-6.37ZM242.67,45.89c.29,0,.59-.03.88-.1.29-.07.56-.19.8-.35.24-.17.43-.39.58-.67.15-.28.23-.64.23-1.07,0-.46-.08-.83-.23-1.12s-.34-.51-.58-.67c-.24-.16-.5-.27-.8-.33-.29-.06-.59-.09-.88-.09h-.94v4.41h.94Z"/><path class="uuid-749119bc-2ca2-445f-a567-68b752a36282" d="M251.75,46.88h-1.03v-.69h-.02c-.1.22-.26.41-.5.57-.24.16-.52.25-.84.25-.28,0-.52-.05-.72-.15s-.37-.23-.5-.39-.22-.35-.28-.56c-.06-.21-.09-.43-.09-.65v-2.7h1.08v2.39c0,.13,0,.26.03.4.02.14.06.26.12.37s.14.2.25.27.24.11.42.11.32-.03.45-.1c.13-.07.23-.16.32-.26.08-.11.14-.23.18-.37.04-.14.06-.28.06-.43v-2.38h1.08v4.32Z"/><path class="uuid-749119bc-2ca2-445f-a567-68b752a36282" d="M253.4,40.07h1.08v6.8h-1.08v-6.8Z"/><path class="uuid-749119bc-2ca2-445f-a567-68b752a36282" d="M256.14,40.07h1.08v6.8h-1.08v-6.8Z"/><path class="uuid-749119bc-2ca2-445f-a567-68b752a36282" d="M264.18,43.76c-.08-.12-.21-.22-.38-.3-.17-.08-.34-.12-.51-.12-.2,0-.37.04-.52.12s-.27.19-.37.32c-.1.13-.17.28-.22.45-.05.17-.07.33-.07.5s.03.33.08.5c.05.17.13.31.23.45.1.13.23.24.38.32s.33.12.54.12c.17,0,.34-.03.5-.1.17-.07.3-.16.4-.29l.68.68c-.18.19-.41.34-.69.45-.28.1-.58.16-.9.16s-.62-.05-.9-.15c-.29-.1-.53-.25-.75-.45-.21-.2-.38-.44-.5-.72-.12-.28-.18-.6-.18-.96s.06-.66.18-.95c.12-.28.29-.52.5-.72s.45-.35.73-.46c.28-.11.58-.16.9-.16s.63.06.92.18c.3.12.53.29.71.49l-.74.65Z"/><path class="uuid-749119bc-2ca2-445f-a567-68b752a36282" d="M265.68,44.7c0-.34.06-.65.18-.93s.29-.52.5-.72.46-.35.75-.46c.29-.11.59-.16.92-.16s.63.05.92.16c.29.11.54.26.75.46.21.2.38.44.5.72.12.28.18.59.18.93s-.06.65-.18.94c-.12.28-.29.52-.5.72-.21.2-.46.36-.75.47s-.59.17-.92.17-.63-.06-.92-.17-.54-.27-.75-.47-.38-.44-.5-.72-.18-.59-.18-.94ZM266.78,44.7c0,.17.03.34.08.5.05.17.13.32.23.45s.23.24.39.32c.16.08.34.13.56.13s.4-.04.56-.13c.16-.08.28-.19.39-.32s.18-.28.23-.45.08-.34.08-.5-.03-.33-.08-.5-.13-.31-.23-.45-.23-.24-.39-.32c-.16-.08-.34-.12-.56-.12s-.4.04-.56.12c-.16.08-.29.19-.39.32s-.18.28-.23.45c-.05.17-.08.33-.08.5Z"/><path class="uuid-749119bc-2ca2-445f-a567-68b752a36282" d="M271.79,40.07h1.08v6.8h-1.08v-6.8Z"/><path class="uuid-749119bc-2ca2-445f-a567-68b752a36282" d="M274.29,44.7c0-.34.06-.65.18-.93s.29-.52.5-.72.46-.35.75-.46c.29-.11.59-.16.92-.16s.63.05.92.16c.29.11.54.26.75.46.21.2.38.44.5.72.12.28.18.59.18.93s-.06.65-.18.94c-.12.28-.29.52-.5.72-.21.2-.46.36-.75.47s-.59.17-.92.17-.63-.06-.92-.17-.54-.27-.75-.47-.38-.44-.5-.72-.18-.59-.18-.94ZM275.38,44.7c0,.17.03.34.08.5.05.17.13.32.23.45s.23.24.39.32c.16.08.34.13.56.13s.4-.04.56-.13c.16-.08.28-.19.39-.32s.18-.28.23-.45.08-.34.08-.5-.03-.33-.08-.5-.13-.31-.23-.45-.23-.24-.39-.32c-.16-.08-.34-.12-.56-.12s-.4.04-.56.12c-.16.08-.29.19-.39.32s-.18.28-.23.45c-.05.17-.08.33-.08.5Z"/><path class="uuid-749119bc-2ca2-445f-a567-68b752a36282" d="M280.37,42.56h1.04v.72h.02c.12-.25.29-.46.5-.61.22-.16.47-.23.76-.23.04,0,.09,0,.14,0,.05,0,.09.01.13.02v.99c-.07-.02-.13-.03-.18-.04-.05,0-.1,0-.15,0-.25,0-.44.04-.59.13s-.27.2-.35.32-.14.25-.17.39c-.03.13-.04.24-.04.31v2.31h-1.08v-4.32Z"/><path class="uuid-749119bc-2ca2-445f-a567-68b752a36282" d="M235.47,61h-.81v-.76h.91l.16-1.1h-.81v-.76h.91l.27-1.88h.79l-.27,1.88h.93l.27-1.88h.78l-.27,1.88h.81v.76h-.92l-.15,1.1h.81v.76h-.9l-.28,1.88h-.78l.27-1.88h-.94l-.27,1.88h-.78l.27-1.88ZM236.52,59.14l-.15,1.1h.93l.15-1.1h-.93Z"/><path class="uuid-749119bc-2ca2-445f-a567-68b752a36282" d="M240.6,56.51h1.5l2.96,4.77h.02v-4.77h1.13v6.37h-1.44l-3.02-4.92h-.02v4.92h-1.13v-6.37Z"/><path class="uuid-749119bc-2ca2-445f-a567-68b752a36282" d="M250.63,62.33h-.03c-.11.19-.28.35-.52.47-.24.12-.51.18-.82.18-.17,0-.36-.02-.54-.07-.19-.04-.36-.12-.52-.22-.16-.1-.29-.24-.4-.41s-.16-.38-.16-.63c0-.32.09-.58.27-.77.18-.19.42-.34.71-.44.29-.1.61-.17.96-.2.35-.03.69-.05,1.03-.05v-.11c0-.27-.1-.47-.29-.6-.2-.13-.43-.19-.7-.19-.23,0-.45.05-.66.14s-.38.21-.52.35l-.56-.66c.25-.23.53-.4.85-.51.32-.11.65-.17.98-.17.38,0,.7.05.95.16.25.11.45.25.59.42.14.17.24.37.3.58.06.22.09.43.09.65v2.63h-1.01v-.55ZM250.61,60.91h-.24c-.17,0-.36,0-.55.02-.19.01-.37.05-.53.1-.16.05-.3.12-.4.22-.11.09-.16.22-.16.38,0,.1.02.19.07.26.05.07.1.12.18.17.07.04.15.07.24.09.09.02.18.03.27.03.37,0,.65-.1.85-.3s.29-.47.29-.81v-.15Z"/><path class="uuid-749119bc-2ca2-445f-a567-68b752a36282" d="M252.64,59.42v-.86h.76v-1.25h1.06v1.25h1.08v.86h-1.08v2.01c0,.19.03.35.1.48.07.13.22.19.46.19.07,0,.15,0,.23-.02.08-.01.16-.04.23-.07l.04.85c-.1.04-.21.06-.34.09-.13.02-.26.03-.38.03-.29,0-.52-.04-.7-.12-.18-.08-.32-.19-.43-.33-.1-.14-.18-.3-.22-.49-.04-.18-.06-.38-.06-.59v-2.02h-.76Z"/><path class="uuid-749119bc-2ca2-445f-a567-68b752a36282" d="M260.65,62.88h-1.03v-.69h-.02c-.1.22-.26.41-.5.57-.24.16-.52.25-.84.25-.28,0-.52-.05-.72-.15s-.37-.23-.5-.39-.22-.35-.28-.56c-.06-.21-.09-.43-.09-.65v-2.7h1.08v2.39c0,.13,0,.26.03.4.02.14.06.26.12.37s.14.2.25.27.24.11.42.11.32-.03.45-.1c.13-.07.23-.16.32-.26.08-.11.14-.23.18-.37.04-.14.06-.28.06-.43v-2.38h1.08v4.32Z"/><path class="uuid-749119bc-2ca2-445f-a567-68b752a36282" d="M262.29,58.56h1.04v.72h.02c.12-.25.29-.46.5-.61.22-.16.47-.23.76-.23.04,0,.09,0,.14,0,.05,0,.09.01.13.02v.99c-.07-.02-.13-.03-.18-.04-.05,0-.1,0-.15,0-.25,0-.44.04-.59.13s-.27.2-.35.32-.14.25-.17.39c-.03.13-.04.24-.04.31v2.31h-1.08v-4.32Z"/><path class="uuid-749119bc-2ca2-445f-a567-68b752a36282" d="M268.66,62.33h-.03c-.11.19-.28.35-.52.47-.24.12-.51.18-.82.18-.17,0-.36-.02-.54-.07-.19-.04-.36-.12-.52-.22-.16-.1-.29-.24-.4-.41s-.16-.38-.16-.63c0-.32.09-.58.27-.77.18-.19.42-.34.71-.44.29-.1.61-.17.96-.2.35-.03.69-.05,1.03-.05v-.11c0-.27-.1-.47-.29-.6-.2-.13-.43-.19-.7-.19-.23,0-.45.05-.66.14s-.38.21-.52.35l-.56-.66c.25-.23.53-.4.85-.51.32-.11.65-.17.98-.17.38,0,.7.05.95.16.25.11.45.25.59.42.14.17.24.37.3.58.06.22.09.43.09.65v2.63h-1.01v-.55ZM268.64,60.91h-.24c-.17,0-.36,0-.55.02-.19.01-.37.05-.53.1-.16.05-.3.12-.4.22-.11.09-.16.22-.16.38,0,.1.02.19.07.26.05.07.1.12.18.17.07.04.15.07.24.09.09.02.18.03.27.03.37,0,.65-.1.85-.3s.29-.47.29-.81v-.15Z"/><path class="uuid-749119bc-2ca2-445f-a567-68b752a36282" d="M271.29,56.07h1.08v6.8h-1.08v-6.8Z"/><rect class="uuid-c6766921-5670-4a98-8f1c-2e576c04c91a" width="375" height="74.29"/></g></svg>