<?xml version="1.0" encoding="UTF-8"?><svg id="uuid-0ade47b9-15ba-48ef-bc24-979120e4411a" xmlns="http://www.w3.org/2000/svg" width="55.91" height="70.93" viewBox="0 0 55.91 70.93"><defs><style>.uuid-523dc93d-72b6-40b4-af02-a9b0a609d4d8{fill:#231815;}</style></defs><g id="uuid-cb2c692e-cd71-45f8-ba35-978c0dfd62f0"><path class="uuid-523dc93d-72b6-40b4-af02-a9b0a609d4d8" d="M.81,4.92h-.81v-.76h.91l.16-1.1H.26v-.76h.91l.27-1.88h.79l-.27,1.88h.93l.27-1.88h.78l-.27,1.88h.81v.76h-.92l-.15,1.1h.81v.76h-.9l-.28,1.88h-.78l.27-1.88h-.94l-.27,1.88h-.78l.27-1.88ZM1.85,3.07l-.15,1.1h.93l.15-1.1h-.93Z"/><path class="uuid-523dc93d-72b6-40b4-af02-a9b0a609d4d8" d="M5.93.43h2.08c.37,0,.7.03.99.1.29.07.55.17.76.32.21.15.37.34.49.58s.17.52.17.85c0,.35-.07.65-.2.89s-.31.43-.54.58c-.22.15-.49.25-.79.32-.3.07-.62.1-.95.1h-.87v2.64h-1.13V.43ZM7.86,3.21c.19,0,.36-.01.53-.04.17-.03.32-.07.45-.14s.24-.16.32-.28.12-.28.12-.47-.04-.34-.12-.45-.18-.21-.31-.27-.28-.11-.44-.13c-.17-.02-.33-.03-.51-.03h-.83v1.83h.79Z"/><path class="uuid-523dc93d-72b6-40b4-af02-a9b0a609d4d8" d="M11.64,0h1.08v6.8h-1.08V0Z"/><path class="uuid-523dc93d-72b6-40b4-af02-a9b0a609d4d8" d="M17.07,6.25h-.03c-.11.19-.28.35-.52.47s-.51.18-.82.18c-.17,0-.36-.02-.54-.07-.19-.04-.36-.12-.52-.22-.16-.1-.29-.24-.4-.41-.11-.17-.16-.38-.16-.63,0-.32.09-.58.28-.77.18-.19.42-.34.71-.44.29-.1.61-.17.96-.2.35-.03.69-.05,1.03-.05v-.11c0-.27-.1-.47-.29-.6s-.43-.19-.7-.19c-.23,0-.45.05-.66.14s-.38.21-.52.35l-.56-.66c.25-.23.53-.4.85-.51.32-.11.65-.17.98-.17.38,0,.7.05.95.16.25.11.45.25.59.42.14.17.24.37.3.58.06.22.08.43.08.65v2.63h-1.01v-.55ZM17.05,4.83h-.24c-.17,0-.36,0-.55.02-.19.01-.37.05-.53.1s-.3.12-.41.22c-.11.09-.16.22-.16.38,0,.1.02.19.07.26.05.07.1.12.18.17s.15.07.24.09c.09.02.18.03.27.03.37,0,.65-.1.85-.3.19-.2.29-.47.29-.81v-.15Z"/><path class="uuid-523dc93d-72b6-40b4-af02-a9b0a609d4d8" d="M22.09,3.64c-.1-.13-.23-.24-.4-.33-.17-.09-.35-.14-.55-.14-.17,0-.33.04-.48.11-.14.07-.22.19-.22.36s.08.29.24.36c.16.07.39.14.7.21.16.04.33.08.49.14.17.06.32.14.45.24.13.1.24.22.33.37.08.15.13.33.13.54,0,.26-.05.49-.15.67-.1.18-.23.33-.4.45-.17.11-.36.2-.58.25-.22.05-.45.08-.68.08-.34,0-.66-.06-.98-.18-.32-.12-.58-.3-.79-.53l.71-.67c.12.16.28.29.47.39.19.1.41.15.64.15.08,0,.16,0,.24-.03.08-.02.16-.05.23-.08.07-.04.12-.09.17-.16.04-.07.06-.15.06-.24,0-.18-.08-.31-.25-.39-.17-.08-.41-.16-.74-.23-.16-.04-.32-.08-.47-.14s-.29-.13-.41-.23c-.12-.09-.22-.21-.29-.35-.07-.14-.11-.31-.11-.51,0-.24.05-.45.15-.62.1-.17.23-.32.39-.43.16-.11.35-.19.55-.25.2-.05.41-.08.63-.08.31,0,.62.05.91.16.3.11.53.27.71.5l-.7.62Z"/><path class="uuid-523dc93d-72b6-40b4-af02-a9b0a609d4d8" d="M23.67,3.35v-.86h.76v-1.25h1.06v1.25h1.08v.86h-1.08v2.01c0,.19.03.35.1.48.07.13.22.19.46.19.07,0,.15,0,.23-.02.08-.01.16-.04.22-.07l.04.85c-.1.04-.21.06-.34.09-.13.02-.26.03-.38.03-.29,0-.52-.04-.7-.12s-.32-.19-.43-.33c-.1-.14-.18-.3-.22-.49-.04-.18-.06-.38-.06-.59v-2.02h-.76Z"/><path class="uuid-523dc93d-72b6-40b4-af02-a9b0a609d4d8" d="M31.8,4.7v.14s0,.1,0,.14h-3.29c.01.16.05.3.12.43.07.13.16.24.27.33.11.09.24.17.39.22s.29.08.45.08c.27,0,.5-.05.68-.15.19-.1.34-.24.46-.41l.72.58c-.43.58-1.04.86-1.85.86-.34,0-.65-.05-.93-.16-.28-.11-.53-.25-.73-.45-.21-.19-.37-.43-.49-.71s-.18-.6-.18-.95.06-.67.18-.95c.12-.29.28-.53.48-.73s.45-.36.72-.47.58-.17.9-.17c.3,0,.58.05.83.15.25.1.47.25.66.44.19.2.33.44.44.73.1.29.16.63.16,1.02ZM30.72,4.21c0-.14-.02-.27-.06-.4s-.1-.24-.18-.33c-.08-.1-.19-.17-.32-.23-.13-.06-.28-.08-.45-.08-.32,0-.6.1-.82.29-.23.2-.35.45-.37.75h2.21Z"/><path class="uuid-523dc93d-72b6-40b4-af02-a9b0a609d4d8" d="M33.21,2.48h1.04v.72h.02c.12-.25.29-.46.5-.61.22-.16.47-.23.76-.23.04,0,.09,0,.13,0s.09.01.13.02v.99c-.07-.02-.13-.03-.18-.04s-.1,0-.15,0c-.25,0-.44.04-.59.13-.15.09-.27.2-.35.32s-.14.25-.17.39-.04.24-.04.31v2.31h-1.08V2.48Z"/><path class="uuid-523dc93d-72b6-40b4-af02-a9b0a609d4d8" d="M38.57,2.48h1.17l.9,3.1h.02l.93-3.1h1.15l.94,3.1h.02l.92-3.1h1.12l-1.49,4.32h-1.1l-.98-3.02h-.02l-.97,3.02h-1.1l-1.5-4.32Z"/><path class="uuid-523dc93d-72b6-40b4-af02-a9b0a609d4d8" d="M49.46,6.25h-.03c-.11.19-.28.35-.52.47-.24.12-.51.18-.82.18-.17,0-.36-.02-.54-.07-.19-.04-.36-.12-.52-.22-.16-.1-.29-.24-.4-.41-.1-.17-.16-.38-.16-.63,0-.32.09-.58.27-.77s.42-.34.71-.44c.29-.1.61-.17.96-.2s.69-.05,1.03-.05v-.11c0-.27-.1-.47-.29-.6-.2-.13-.43-.19-.7-.19-.23,0-.45.05-.66.14s-.38.21-.52.35l-.56-.66c.25-.23.53-.4.85-.51.32-.11.65-.17.98-.17.38,0,.7.05.95.16.25.11.45.25.59.42.14.17.24.37.3.58.06.22.09.43.09.65v2.63h-1.01v-.55ZM49.44,4.83h-.24c-.17,0-.36,0-.55.02-.19.01-.37.05-.53.1-.16.05-.3.12-.4.22-.11.09-.16.22-.16.38,0,.1.02.19.07.26.04.07.1.12.18.17.07.04.15.07.24.09.09.02.18.03.27.03.37,0,.65-.1.85-.3.19-.2.29-.47.29-.81v-.15Z"/><path class="uuid-523dc93d-72b6-40b4-af02-a9b0a609d4d8" d="M52.09,0h1.08v6.8h-1.08V0Z"/><path class="uuid-523dc93d-72b6-40b4-af02-a9b0a609d4d8" d="M54.83,0h1.08v6.8h-1.08V0Z"/><path class="uuid-523dc93d-72b6-40b4-af02-a9b0a609d4d8" d="M.81,20.92h-.81v-.76h.91l.16-1.1H.26v-.76h.91l.27-1.88h.79l-.27,1.88h.93l.27-1.88h.78l-.27,1.88h.81v.76h-.92l-.15,1.1h.81v.76h-.9l-.28,1.88h-.78l.27-1.88h-.94l-.27,1.88h-.78l.27-1.88ZM1.85,19.07l-.15,1.1h.93l.15-1.1h-.93Z"/><path class="uuid-523dc93d-72b6-40b4-af02-a9b0a609d4d8" d="M9.13,17.76c-.12-.16-.29-.29-.51-.39-.22-.1-.44-.16-.66-.16-.13,0-.26.02-.4.05-.13.03-.25.08-.36.15-.11.07-.2.16-.27.27-.07.11-.1.24-.1.4,0,.14.03.27.09.37.06.1.14.19.25.26.1.07.23.13.38.19.15.05.32.11.5.16.2.07.42.14.63.23s.42.19.6.33c.18.14.33.31.45.52s.18.47.18.78c0,.34-.06.64-.19.9s-.29.47-.5.63-.46.29-.74.38c-.28.08-.58.13-.89.13-.41,0-.82-.08-1.21-.23-.4-.15-.72-.38-.97-.68l.81-.76c.16.22.36.39.63.51.26.13.52.19.77.19.13,0,.27-.02.4-.05.14-.03.26-.09.37-.17.11-.08.2-.18.27-.29.07-.12.1-.26.1-.44s-.04-.31-.12-.42c-.08-.11-.18-.21-.31-.29s-.29-.15-.47-.21c-.18-.06-.37-.12-.57-.19-.19-.06-.38-.13-.58-.22s-.36-.19-.52-.33c-.15-.14-.28-.31-.37-.51-.1-.2-.14-.45-.14-.75,0-.32.07-.6.2-.84.13-.23.31-.43.53-.58.22-.15.47-.27.75-.34.28-.07.56-.11.85-.11.32,0,.65.06.99.17.33.11.62.29.87.51l-.74.81Z"/><path class="uuid-523dc93d-72b6-40b4-af02-a9b0a609d4d8" d="M11.17,17.02c0-.17.06-.33.19-.45s.29-.19.49-.19.36.06.5.18c.14.12.2.28.2.46s-.07.34-.2.46c-.13.12-.3.18-.5.18s-.36-.06-.49-.19c-.13-.13-.19-.28-.19-.46ZM11.32,18.48h1.08v4.32h-1.08v-4.32Z"/><path class="uuid-523dc93d-72b6-40b4-af02-a9b0a609d4d8" d="M19.21,18.36c.28,0,.52.05.72.15.2.1.37.23.5.39s.22.35.28.56c.06.21.09.43.09.65v2.7h-1.08v-2.39c0-.13,0-.26-.03-.4-.02-.14-.06-.26-.12-.37-.06-.11-.14-.2-.25-.28-.11-.07-.24-.11-.42-.11s-.31.04-.43.11c-.12.07-.22.17-.3.28-.08.11-.13.24-.17.38s-.05.28-.05.42v2.36h-1.08v-2.61c0-.27-.06-.49-.19-.67-.13-.18-.33-.27-.61-.27-.16,0-.3.03-.42.1s-.22.16-.29.27c-.08.11-.13.23-.17.37-.04.14-.06.28-.06.43v2.38h-1.08v-4.32h1.03v.69h.02c.05-.11.11-.21.19-.31.08-.1.18-.18.29-.26.11-.08.24-.14.38-.18.14-.04.3-.07.48-.07.34,0,.62.08.84.23.22.15.39.35.51.59.14-.26.34-.47.58-.61s.52-.21.85-.21Z"/><path class="uuid-523dc93d-72b6-40b4-af02-a9b0a609d4d8" d="M23.45,18.48v.6h.03c.05-.08.12-.17.21-.26s.19-.17.32-.23c.13-.07.27-.13.43-.17s.34-.07.54-.07c.31,0,.59.06.85.18s.48.28.67.48c.19.2.33.44.43.72.1.28.15.57.15.89s-.05.62-.15.9c-.1.28-.24.52-.42.73-.18.21-.41.37-.67.5s-.56.18-.89.18c-.31,0-.59-.06-.84-.19-.25-.13-.45-.3-.59-.51h-.02v2.74h-1.08v-6.48h1.04ZM25.97,20.63c0-.17-.03-.33-.08-.5s-.13-.31-.23-.45c-.1-.13-.23-.24-.39-.32s-.34-.12-.55-.12c-.2,0-.38.04-.53.13-.16.08-.29.19-.4.32s-.2.28-.25.45c-.06.17-.09.34-.09.5s.03.33.09.5c.06.17.14.31.25.45s.24.24.4.32.33.12.53.12c.21,0,.39-.04.55-.13.16-.08.29-.19.39-.32.1-.13.18-.28.23-.45s.08-.34.08-.5Z"/><path class="uuid-523dc93d-72b6-40b4-af02-a9b0a609d4d8" d="M28.49,16h1.08v6.8h-1.08v-6.8Z"/><path class="uuid-523dc93d-72b6-40b4-af02-a9b0a609d4d8" d="M35.37,20.7v.14s0,.1,0,.14h-3.29c.01.16.05.3.12.43.07.13.16.24.27.33.11.09.24.17.39.22s.29.08.45.08c.27,0,.5-.05.68-.15.19-.1.34-.24.46-.41l.72.58c-.43.58-1.04.86-1.85.86-.34,0-.65-.05-.93-.16-.28-.11-.53-.25-.73-.45-.21-.19-.37-.43-.49-.71s-.18-.6-.18-.95.06-.67.18-.95c.12-.29.28-.53.48-.73s.45-.36.72-.47.58-.17.9-.17c.3,0,.58.05.83.15.25.1.47.25.66.44.19.2.33.44.44.73.1.29.16.63.16,1.02ZM34.29,20.21c0-.14-.02-.27-.06-.4s-.1-.24-.18-.33c-.08-.1-.19-.17-.32-.23-.13-.06-.28-.08-.45-.08-.32,0-.6.1-.82.29-.23.2-.35.45-.37.75h2.21Z"/><path class="uuid-523dc93d-72b6-40b4-af02-a9b0a609d4d8" d="M.81,36.92h-.81v-.76h.91l.16-1.1H.26v-.76h.91l.27-1.88h.79l-.27,1.88h.93l.27-1.88h.78l-.27,1.88h.81v.76h-.92l-.15,1.1h.81v.76h-.9l-.28,1.88h-.78l.27-1.88h-.94l-.27,1.88h-.78l.27-1.88ZM1.85,35.07l-.15,1.1h.93l.15-1.1h-.93Z"/><path class="uuid-523dc93d-72b6-40b4-af02-a9b0a609d4d8" d="M11,36.46c0,.38-.07.73-.2,1.04-.13.31-.31.57-.54.79-.23.22-.5.38-.81.5-.31.12-.65.18-1.02.18s-.71-.06-1.02-.18c-.31-.12-.58-.28-.81-.5-.23-.22-.41-.48-.54-.79-.13-.31-.19-.66-.19-1.04v-4.03h1.13v3.99c0,.19.02.37.07.55.05.18.13.35.24.49.11.14.26.26.44.35s.41.13.68.13.5-.04.68-.13c.18-.09.33-.21.44-.35.11-.14.19-.31.24-.49.05-.18.07-.37.07-.55v-3.99h1.13v4.03Z"/><path class="uuid-523dc93d-72b6-40b4-af02-a9b0a609d4d8" d="M12.65,34.48h1.03v.69h.02c.1-.22.26-.41.5-.57.24-.17.52-.25.84-.25.28,0,.52.05.72.15.2.1.37.23.5.39s.22.35.28.56c.06.21.09.43.09.65v2.7h-1.08v-2.39c0-.13,0-.26-.03-.4-.02-.14-.06-.26-.12-.37-.06-.11-.14-.2-.25-.28-.11-.07-.24-.11-.42-.11s-.32.03-.45.1-.23.16-.31.27c-.08.11-.14.23-.18.37-.04.14-.06.28-.06.43v2.38h-1.08v-4.32Z"/><path class="uuid-523dc93d-72b6-40b4-af02-a9b0a609d4d8" d="M18.08,33.02c0-.17.06-.33.19-.45s.29-.19.49-.19.37.06.5.18c.13.12.2.28.2.46s-.07.34-.2.46-.3.18-.5.18-.36-.06-.49-.19c-.13-.13-.19-.28-.19-.46ZM18.23,34.48h1.08v4.32h-1.08v-4.32Z"/><path class="uuid-523dc93d-72b6-40b4-af02-a9b0a609d4d8" d="M25.35,40.96h-1.08v-2.74h-.02c-.14.22-.33.39-.59.51-.26.13-.54.19-.84.19-.33,0-.62-.06-.89-.18-.26-.12-.48-.29-.67-.5-.18-.21-.32-.45-.42-.73-.1-.28-.15-.58-.15-.9s.05-.62.15-.89c.1-.28.25-.52.43-.72s.41-.36.67-.48.54-.18.85-.18c.2,0,.38.02.54.07.16.04.3.1.43.17.13.07.23.15.32.23s.16.17.21.26h.03v-.6h1.04v6.48ZM21.79,36.63c0,.17.03.34.08.5.05.17.13.32.23.45.1.13.23.24.39.32.16.08.34.13.55.13.2,0,.38-.04.53-.12s.29-.19.4-.32.2-.28.25-.45.09-.33.09-.5-.03-.34-.09-.5-.14-.32-.25-.45-.24-.24-.4-.32c-.16-.08-.33-.13-.53-.13-.21,0-.39.04-.55.12s-.29.19-.39.32c-.1.13-.18.28-.23.45-.05.17-.08.33-.08.5Z"/><path class="uuid-523dc93d-72b6-40b4-af02-a9b0a609d4d8" d="M30.94,38.8h-1.03v-.69h-.02c-.1.22-.26.41-.5.57-.24.16-.52.25-.84.25-.28,0-.52-.05-.72-.15s-.37-.23-.5-.39-.22-.35-.28-.56c-.06-.21-.09-.43-.09-.65v-2.7h1.08v2.39c0,.13,0,.26.03.4.02.14.06.26.12.37.06.11.14.2.25.27.11.07.25.11.42.11s.32-.03.45-.1c.13-.07.23-.16.32-.26.08-.11.14-.23.18-.37.04-.14.06-.28.06-.43v-2.38h1.08v4.32Z"/><path class="uuid-523dc93d-72b6-40b4-af02-a9b0a609d4d8" d="M36.71,36.7v.14s0,.1,0,.14h-3.29c.01.16.05.3.12.43s.16.24.27.33.24.17.39.22c.14.05.29.08.45.08.27,0,.5-.05.68-.15.19-.1.34-.24.46-.41l.72.58c-.43.58-1.04.86-1.85.86-.34,0-.64-.05-.93-.16-.28-.11-.53-.25-.73-.45-.21-.19-.37-.43-.49-.71-.12-.28-.17-.6-.17-.95s.06-.67.17-.95c.12-.29.28-.53.48-.73.2-.2.45-.36.72-.47.28-.11.58-.17.91-.17.3,0,.58.05.83.15.25.1.48.25.66.44.19.2.33.44.44.73.11.29.16.63.16,1.02ZM35.63,36.21c0-.14-.02-.27-.06-.4s-.1-.24-.18-.33c-.08-.1-.19-.17-.32-.23-.13-.06-.28-.08-.46-.08-.32,0-.6.1-.82.29-.22.2-.35.45-.37.75h2.21Z"/><path class="uuid-523dc93d-72b6-40b4-af02-a9b0a609d4d8" d="M.81,52.92h-.81v-.76h.91l.16-1.1H.26v-.76h.91l.27-1.88h.79l-.27,1.88h.93l.27-1.88h.78l-.27,1.88h.81v.76h-.92l-.15,1.1h.81v.76h-.9l-.28,1.88h-.78l.27-1.88h-.94l-.27,1.88h-.78l.27-1.88ZM1.85,51.07l-.15,1.1h.93l.15-1.1h-.93Z"/><path class="uuid-523dc93d-72b6-40b4-af02-a9b0a609d4d8" d="M5.93,48.43h1.77l1.66,4.53h.03l1.64-4.53h1.78v6.37h-1.12v-5.12h-.02l-1.93,5.12h-.79l-1.91-5.12h-.02v5.12h-1.08v-6.37Z"/><path class="uuid-523dc93d-72b6-40b4-af02-a9b0a609d4d8" d="M14.28,52.63c0-.34.06-.65.18-.93s.29-.52.5-.72.46-.35.75-.46c.29-.11.59-.16.92-.16s.63.05.92.16c.29.11.54.26.75.46.21.2.38.44.5.72s.18.59.18.93-.06.65-.18.94-.29.52-.5.72c-.21.2-.46.36-.75.47s-.59.17-.92.17-.63-.06-.92-.17-.54-.27-.75-.47-.38-.44-.5-.72-.18-.59-.18-.94ZM15.38,52.63c0,.17.03.34.08.5s.13.32.23.45c.1.13.23.24.39.32.16.08.34.13.56.13s.4-.04.56-.13c.16-.08.29-.19.39-.32.1-.13.18-.28.23-.45s.08-.34.08-.5-.03-.33-.08-.5-.13-.31-.23-.45c-.1-.13-.23-.24-.39-.32s-.34-.12-.56-.12-.4.04-.56.12-.29.19-.39.32c-.1.13-.18.28-.23.45s-.08.33-.08.5Z"/><path class="uuid-523dc93d-72b6-40b4-af02-a9b0a609d4d8" d="M24.78,54.8h-1.03v-.65h-.02c-.15.25-.36.44-.62.58-.27.13-.55.2-.86.2-.33,0-.63-.06-.89-.18-.26-.12-.48-.29-.67-.5-.18-.21-.32-.45-.42-.73-.1-.28-.15-.58-.15-.9s.05-.62.15-.89c.1-.28.25-.52.43-.72.19-.2.41-.36.67-.48.26-.12.54-.18.85-.18.2,0,.38.02.53.07.16.04.29.1.41.17s.22.14.3.22.15.15.21.22h.03v-3.03h1.08v6.8ZM21.23,52.63c0,.17.03.34.08.5s.13.32.23.45c.1.13.23.24.39.32.16.08.34.13.55.13.2,0,.38-.04.53-.12.16-.08.29-.19.4-.32.11-.13.19-.28.25-.45.06-.17.08-.33.08-.5s-.03-.34-.08-.5c-.06-.17-.14-.32-.25-.45-.11-.13-.25-.24-.4-.32-.16-.08-.33-.13-.53-.13-.21,0-.39.04-.55.12-.16.08-.29.19-.39.32-.1.13-.18.28-.23.45s-.08.33-.08.5Z"/><path class="uuid-523dc93d-72b6-40b4-af02-a9b0a609d4d8" d="M30.57,52.7v.14s0,.1,0,.14h-3.29c.01.16.05.3.12.43.07.13.16.24.27.33.11.09.24.17.39.22s.29.08.45.08c.27,0,.5-.05.68-.15.19-.1.34-.24.46-.41l.72.58c-.43.58-1.04.86-1.85.86-.34,0-.65-.05-.93-.16-.28-.11-.53-.25-.73-.45-.21-.19-.37-.43-.49-.71s-.18-.6-.18-.95.06-.67.18-.95c.12-.29.28-.53.48-.73s.45-.36.72-.47.58-.17.9-.17c.3,0,.58.05.83.15.25.1.47.25.66.44.19.2.33.44.44.73.1.29.16.63.16,1.02ZM29.49,52.21c0-.14-.02-.27-.06-.4s-.1-.24-.18-.33c-.08-.1-.19-.17-.32-.23-.13-.06-.28-.08-.45-.08-.32,0-.6.1-.82.29-.23.2-.35.45-.37.75h2.21Z"/><path class="uuid-523dc93d-72b6-40b4-af02-a9b0a609d4d8" d="M31.97,50.48h1.04v.72h.02c.12-.25.29-.46.5-.61.22-.16.47-.23.76-.23.04,0,.09,0,.13,0s.09.01.13.02v.99c-.07-.02-.13-.03-.18-.04s-.1,0-.15,0c-.25,0-.44.04-.59.13-.15.09-.27.2-.35.32s-.14.25-.17.39-.04.24-.04.31v2.31h-1.08v-4.32Z"/><path class="uuid-523dc93d-72b6-40b4-af02-a9b0a609d4d8" d="M35.63,50.48h1.03v.69h.02c.1-.22.26-.41.5-.57.24-.17.52-.25.84-.25.28,0,.52.05.72.15.2.1.37.23.5.39s.22.35.28.56c.06.21.09.43.09.65v2.7h-1.08v-2.39c0-.13,0-.26-.03-.4-.02-.14-.06-.26-.12-.37-.06-.11-.14-.2-.25-.28-.11-.07-.24-.11-.42-.11s-.32.03-.45.1-.23.16-.31.27c-.08.11-.14.23-.18.37-.04.14-.06.28-.06.43v2.38h-1.08v-4.32Z"/><path class="uuid-523dc93d-72b6-40b4-af02-a9b0a609d4d8" d="M.81,68.92h-.81v-.76h.91l.16-1.1H.26v-.76h.91l.27-1.88h.79l-.27,1.88h.93l.27-1.88h.78l-.27,1.88h.81v.76h-.92l-.15,1.1h.81v.76h-.9l-.28,1.88h-.78l.27-1.88h-.94l-.27,1.88h-.78l.27-1.88ZM1.85,67.07l-.15,1.1h.93l.15-1.1h-.93Z"/><path class="uuid-523dc93d-72b6-40b4-af02-a9b0a609d4d8" d="M5.93,64.43h2.08c.37,0,.7.03.99.1.29.07.55.17.76.32.21.15.37.34.49.58s.17.52.17.85c0,.35-.07.65-.2.89s-.31.43-.54.58c-.22.15-.49.25-.79.32-.3.07-.62.1-.95.1h-.87v2.64h-1.13v-6.37ZM7.86,67.21c.19,0,.36-.01.53-.04.17-.03.32-.07.45-.14s.24-.16.32-.28.12-.28.12-.47-.04-.34-.12-.45-.18-.21-.31-.27-.28-.11-.44-.13c-.17-.02-.33-.03-.51-.03h-.83v1.83h.79Z"/><path class="uuid-523dc93d-72b6-40b4-af02-a9b0a609d4d8" d="M11.49,65.02c0-.17.06-.33.19-.45s.29-.19.49-.19.36.06.5.18c.14.12.2.28.2.46s-.07.34-.2.46c-.13.12-.3.18-.5.18s-.36-.06-.49-.19c-.13-.13-.19-.28-.19-.46ZM11.64,66.48h1.08v4.32h-1.08v-4.32Z"/><path class="uuid-523dc93d-72b6-40b4-af02-a9b0a609d4d8" d="M14.38,64h1.08v6.8h-1.08v-6.8Z"/><path class="uuid-523dc93d-72b6-40b4-af02-a9b0a609d4d8" d="M16.88,68.63c0-.34.06-.65.18-.93s.29-.52.5-.72.46-.35.75-.46c.29-.11.59-.16.92-.16s.63.05.92.16c.29.11.54.26.75.46s.38.44.5.72c.12.28.18.59.18.93s-.06.65-.18.94c-.12.28-.29.52-.5.72s-.46.36-.75.47-.59.17-.92.17-.63-.06-.92-.17-.54-.27-.75-.47-.38-.44-.5-.72-.18-.59-.18-.94ZM17.97,68.63c0,.17.03.34.08.5.05.17.13.32.23.45.1.13.23.24.39.32.16.08.34.13.56.13s.4-.04.56-.13c.16-.08.28-.19.39-.32.1-.13.18-.28.23-.45s.08-.34.08-.5-.03-.33-.08-.5-.13-.31-.23-.45c-.1-.13-.23-.24-.39-.32-.16-.08-.34-.12-.56-.12s-.4.04-.56.12c-.16.08-.29.19-.39.32-.1.13-.18.28-.23.45-.05.17-.08.33-.08.5Z"/><path class="uuid-523dc93d-72b6-40b4-af02-a9b0a609d4d8" d="M22.37,67.35v-.86h.76v-1.25h1.06v1.25h1.08v.86h-1.08v2.01c0,.19.03.35.1.48.07.13.22.19.46.19.07,0,.15,0,.23-.02.08-.01.16-.04.22-.07l.04.85c-.1.04-.21.06-.34.09-.13.02-.26.03-.38.03-.29,0-.52-.04-.7-.12s-.32-.19-.43-.33c-.1-.14-.18-.3-.22-.49-.04-.18-.06-.38-.06-.59v-2.02h-.76Z"/><path class="uuid-523dc93d-72b6-40b4-af02-a9b0a609d4d8" d="M26.29,65.02c0-.17.06-.33.19-.45s.29-.19.49-.19.37.06.5.18c.13.12.2.28.2.46s-.07.34-.2.46-.3.18-.5.18-.36-.06-.49-.19c-.13-.13-.19-.28-.19-.46ZM26.44,66.48h1.08v4.32h-1.08v-4.32Z"/><path class="uuid-523dc93d-72b6-40b4-af02-a9b0a609d4d8" d="M31.59,67.64c-.1-.13-.23-.24-.4-.33-.17-.09-.35-.14-.55-.14-.17,0-.33.04-.48.11-.14.07-.22.19-.22.36s.08.29.24.36.39.14.7.21c.16.04.33.08.49.14.16.06.31.14.45.24.14.1.25.22.33.37.08.15.13.33.13.54,0,.26-.05.49-.15.67-.1.18-.23.33-.4.45-.17.11-.36.2-.58.25-.22.05-.45.08-.68.08-.34,0-.66-.06-.98-.18s-.58-.3-.79-.53l.71-.67c.12.16.28.29.47.39.19.1.41.15.64.15.08,0,.16,0,.24-.03.08-.02.16-.05.22-.08.07-.04.12-.09.17-.16.04-.07.06-.15.06-.24,0-.18-.08-.31-.25-.39-.17-.08-.41-.16-.74-.23-.16-.04-.32-.08-.47-.14-.15-.06-.29-.13-.41-.23-.12-.09-.22-.21-.29-.35-.07-.14-.11-.31-.11-.51,0-.24.05-.45.15-.62.1-.17.23-.32.39-.43.16-.11.34-.19.55-.25.2-.05.41-.08.63-.08.31,0,.62.05.91.16.3.11.53.27.71.5l-.7.62Z"/></g></svg>