<?xml version="1.0" encoding="UTF-8"?><svg id="uuid-e3f1e62a-835e-42b0-9005-8bc953410293" xmlns="http://www.w3.org/2000/svg" width="375" height="41.6" viewBox="0 0 375 41.6"><defs><style>.uuid-a6bb493a-197e-4cbc-a86c-858b8d74e3d1{fill:none;}.uuid-5113cf59-151a-464c-ba1d-8e71cc97fc42{fill:#b11f3a;}</style></defs><g id="uuid-5ac32b1e-8b94-4bb9-879e-acb9ee8e1491"><path class="uuid-5113cf59-151a-464c-ba1d-8e71cc97fc42" d="M114.94,9.12l-.17,1.94h1.67v1.33h-1.78l-.18,2.07h-.7l.18-2.07h-1.49l-.18,2.07h-.68l.17-2.07h-1.57v-1.33h1.69l.17-1.94h-1.64v-1.33h1.75l.18-2.08h.7l-.18,2.08h1.49l.17-2.08h.7l-.17,2.08h1.6v1.33h-1.72ZM112.77,9.12l-.17,1.94h1.48l.17-1.94h-1.48Z"/><path class="uuid-5113cf59-151a-464c-ba1d-8e71cc97fc42" d="M121.88,9.81c-.62-.47-2.05-1.06-2.69-1.24l.5-1.01c1.13.42,1.79.7,2.73,1.28l-.55.96ZM125.68,11.61c-1.5,1.42-2.47,1.98-4.47,3.13-.16.24-.22.35-.34.35-.06,0-.1-.02-.24-.22l-.83-1.09c1.26-.31,2.4-.98,3.48-1.7,1.55-1.04,3.2-2.77,4.13-4.32l.73,1.04c-.67,1.04-1.55,1.96-2.46,2.81ZM123.25,6.98c-.6-.41-2.06-1.12-2.73-1.36l.49-.97c.28.12.7.29,1.37.62.86.42,1.1.6,1.34.78l-.47.92Z"/><path class="uuid-5113cf59-151a-464c-ba1d-8e71cc97fc42" d="M137.2,13.91h-4.09c-.88,0-1.79.02-2.75.1v-.92c.89.04,1.46.06,1.87.06h2.97l.54-3.85h-1.93c-.91,0-1.2.01-1.88.08v-.96c.89.08,1.51.08,1.7.08h3.21l-.67,4.64c1.01,0,1.56-.04,2.42-.1v.89c-.46-.01-.84-.02-1.4-.02Z"/><path class="uuid-5113cf59-151a-464c-ba1d-8e71cc97fc42" d="M146.63,10.41h-2.75c-.16,0-1.95,0-3.15.14v-1.31c.9.13,1.98.14,3.15.14h2.75c1.06,0,2.11-.01,3.15-.14v1.31c-1.04-.13-2.45-.14-3.15-.14Z"/><path class="uuid-5113cf59-151a-464c-ba1d-8e71cc97fc42" d="M159.77,14.14c-.6-1.1-1.88-2.46-3.17-3.27-1.56,1.86-3,2.65-4.34,3.31l-.94-1.03c1.13-.43,2.79-1.15,4.2-2.75.53-.6,1.61-2.11,2.15-3.56h-2.69c-.26,0-1.94.07-2.18.12-.07.01-.13.02-.2.04v-1.26c.42.06,1.52.1,1.97.1h2.4c1.33,0,1.48-.1,1.8-.36l.94.98c-.52.34-.58.37-.73.66-1.25,2.27-1.31,2.38-1.65,2.87,1.5,1,2.73,2.25,3.43,3.27l-.97.89ZM161.05,7.41c-.49-.55-.61-.68-1.13-1.13l.56-.62c.17.14.52.41.7.61.36.41.41.44.47.52l-.6.62ZM161.73,5.9c-.17-.19-.59-.68-1.14-1.09l.56-.59c.41.3.68.55,1.16,1.04l-.59.64Z"/><path class="uuid-5113cf59-151a-464c-ba1d-8e71cc97fc42" d="M171.31,7.56c-.95,2.76-2.36,5.72-5.76,7.52l-1.07-.86c.91-.4,2.3-1.02,3.73-2.89,1.34-1.78,1.67-3.23,1.82-3.95h-3.67c-.59.91-1.27,1.86-2.36,2.83l-.98-.7c.34-.26,1.18-.9,2.11-2.31.43-.67,1.02-1.63,1.16-2.33l1.31.58c.08.04.17.08.17.17,0,.12-.14.19-.19.2-.16.05-.2.04-.35.18s-.13.19-.31.49h1.9c1.45,0,1.63-.07,1.96-.24l.89.94c-.19.2-.2.22-.35.37Z"/><path class="uuid-5113cf59-151a-464c-ba1d-8e71cc97fc42" d="M181.82,13.87c.05-.25.05-.3.08-.72h-5.84c0,.18,0,.49.02.7h-1.37c.04-.31.1-.83.1-1.56.01-1.16.01-1.3.01-1.43v-2.49c0-.37-.04-2.21-.06-2.52.71.07,2.21.1,2.95.1h2.58c.85,0,2.12-.01,2.95-.06-.05.62-.07,2.04-.07,2.71v2.38c0,.24.04,1.27.04,1.49.01.85.06,1.14.11,1.42h-1.5ZM181.96,7.04h-5.9v5.04h5.9v-5.04Z"/><path class="uuid-5113cf59-151a-464c-ba1d-8e71cc97fc42" d="M192.17,10.41h-2.75c-.16,0-1.95,0-3.15.14v-1.31c.9.13,1.98.14,3.15.14h2.75c1.06,0,2.11-.01,3.15-.14v1.31c-1.04-.13-2.45-.14-3.15-.14Z"/><path class="uuid-5113cf59-151a-464c-ba1d-8e71cc97fc42" d="M207.14,8.96c-.17.14-.29.34-.58.78-1.22,1.88-1.27,1.96-1.7,2.41l-1.08-.58c.88-.92,1.44-1.81,1.82-2.57l-3.49.35v2.63c0,.2,0,.73.2,1.07.22.36,1.03.38,1.45.38.49,0,1.36-.05,2.18-.16.38-.05.56-.1.84-.18l.02,1.21c-1.03.13-2.07.2-3.12.2-.77,0-1.96-.01-2.41-.65-.35-.5-.35-.9-.35-1.81v-2.58c-.42.05-1.08.1-1.5.16-.73.1-1.01.17-1.3.23l-.17-1.33c.73.04,2.18-.04,2.96-.08,0-1.43-.06-2.41-.11-3.11l1.4.16c.07,0,.32.04.32.23,0,.06-.02.11-.07.14-.07.06-.2.13-.28.18-.04.56-.1,1.34-.1,2.31l1.86-.12c.67-.05,1.34-.1,1.99-.23.2-.05.36-.12.64-.28l1.03.94c-.07.05-.42.24-.49.29ZM206.67,7.14c-.13-.11-.68-.6-.8-.7-.19-.14-.34-.24-.52-.36l.53-.61c.5.29,1,.61,1.37,1.06l-.58.61ZM207.9,6.31c-.7-.7-.98-.91-1.24-1.1l.53-.53c.43.24.8.5,1.26,1.02l-.55.61Z"/><path class="uuid-5113cf59-151a-464c-ba1d-8e71cc97fc42" d="M211.7,10.54c-.19-.46-.49-1.16-1.06-1.9l.9-.3c.44.61.74,1.14,1.06,1.86l-.9.34ZM218.03,8.59c-.12.04-.18.08-.23.14-.04.06-.38,1.22-.47,1.45-1.21,3.11-3.01,4.09-4.34,4.75l-.79-.73c.83-.35,2.17-.91,3.27-2.48,1.03-1.48,1.25-2.99,1.39-3.89l.94.35c.24.08.37.17.37.26,0,.08-.06.12-.14.14ZM214.05,10.03c-.17-.47-.43-1.18-1.02-1.92l.9-.31c.53.74.79,1.34,1.02,1.94l-.9.29Z"/><path class="uuid-5113cf59-151a-464c-ba1d-8e71cc97fc42" d="M227.48,11.85c-.65-.65-1.73-1.73-3.55-2.48v1.99c0,.71.05,2.81.13,3.42h-1.45c.08-.6.1-1.51.1-1.76.01-.28.05-1.49.05-1.74v-3.13c0-.47-.04-1.75-.07-2.19-.02-.31-.06-.53-.12-.79l1.59.11c.07,0,.23.02.23.18,0,.12-.13.2-.4.36-.05.74-.06,1.49-.06,2.22v1.33l.56-1.07c1.66.76,3.26,1.97,3.78,2.61l-.79.95Z"/><path class="uuid-5113cf59-151a-464c-ba1d-8e71cc97fc42" d="M52.9,25.48h-7.01v5.25h8.19v2.37h-11.16v-17.06h11.07v2.39h-8.11v4.71h7.01v2.34Z"/><path class="uuid-5113cf59-151a-464c-ba1d-8e71cc97fc42" d="M60.11,20.42l.08,1.46c.94-1.13,2.17-1.7,3.69-1.7,2.64,0,3.98,1.51,4.03,4.54v8.38h-2.85v-8.21c0-.8-.17-1.4-.52-1.79s-.92-.58-1.71-.58c-1.15,0-2,.52-2.57,1.56v9.02h-2.85v-12.68h2.68Z"/><path class="uuid-5113cf59-151a-464c-ba1d-8e71cc97fc42" d="M75.66,17.34v3.08h2.24v2.11h-2.24v7.08c0,.48.1.83.29,1.05s.53.32,1.03.32c.33,0,.66-.04,1-.12v2.2c-.65.18-1.27.27-1.88.27-2.19,0-3.28-1.21-3.28-3.62v-7.18h-2.09v-2.11h2.09v-3.08h2.85Z"/><path class="uuid-5113cf59-151a-464c-ba1d-8e71cc97fc42" d="M87.93,23.02c-.38-.06-.76-.09-1.16-.09-1.3,0-2.18.5-2.64,1.5v8.67h-2.85v-12.68h2.72l.07,1.42c.69-1.1,1.64-1.65,2.86-1.65.41,0,.74.05,1.01.16v2.67Z"/><path class="uuid-5113cf59-151a-464c-ba1d-8e71cc97fc42" d="M98.61,33.1c-.12-.24-.23-.64-.33-1.18-.91.95-2.02,1.42-3.33,1.42s-2.31-.36-3.12-1.09-1.21-1.62-1.21-2.7c0-1.35.5-2.39,1.51-3.11s2.44-1.08,4.31-1.08h1.75v-.83c0-.66-.18-1.18-.55-1.58s-.93-.59-1.68-.59c-.65,0-1.18.16-1.59.49s-.62.74-.62,1.24h-2.85c0-.7.23-1.35.69-1.95s1.09-1.08,1.88-1.42c.79-.34,1.68-.52,2.65-.52,1.48,0,2.67.37,3.55,1.12s1.34,1.79,1.36,3.15v5.72c0,1.14.16,2.05.48,2.73v.2h-2.91ZM95.48,31.05c.56,0,1.09-.14,1.59-.41s.87-.64,1.12-1.1v-2.39h-1.54c-1.05,0-1.85.18-2.38.55s-.8.89-.8,1.56c0,.55.18.98.54,1.31s.85.49,1.46.49Z"/><path class="uuid-5113cf59-151a-464c-ba1d-8e71cc97fc42" d="M107.9,20.42l.08,1.46c.94-1.13,2.17-1.7,3.69-1.7,2.64,0,3.98,1.51,4.03,4.54v8.38h-2.85v-8.21c0-.8-.17-1.4-.52-1.79s-.92-.58-1.71-.58c-1.15,0-2,.52-2.57,1.56v9.02h-2.85v-12.68h2.68Z"/><path class="uuid-5113cf59-151a-464c-ba1d-8e71cc97fc42" d="M125.08,31.06c.71,0,1.3-.21,1.77-.62s.72-.93.75-1.54h2.68c-.03.79-.28,1.53-.74,2.21s-1.09,1.22-1.88,1.62-1.64.6-2.55.6c-1.77,0-3.18-.57-4.22-1.72s-1.56-2.73-1.56-4.76v-.29c0-1.93.52-3.47,1.55-4.63s2.44-1.74,4.22-1.74c1.51,0,2.74.44,3.69,1.32s1.45,2.03,1.49,3.46h-2.68c-.03-.73-.28-1.32-.74-1.79s-1.06-.7-1.78-.7c-.92,0-1.63.33-2.13,1s-.75,1.68-.76,3.04v.46c0,1.38.25,2.4.74,3.08s1.21,1.01,2.15,1.01Z"/><path class="uuid-5113cf59-151a-464c-ba1d-8e71cc97fc42" d="M139.31,33.34c-1.8,0-3.27-.57-4.39-1.71s-1.68-2.65-1.68-4.54v-.35c0-1.27.24-2.4.73-3.39s1.17-1.77,2.06-2.33,1.87-.83,2.95-.83c1.73,0,3.06.55,4,1.65s1.41,2.66,1.41,4.68v1.15h-8.29c.09,1.05.44,1.88,1.05,2.48s1.38.91,2.31.91c1.3,0,2.37-.53,3.19-1.58l1.54,1.46c-.51.76-1.19,1.35-2.03,1.76s-1.8.63-2.85.63ZM138.97,22.47c-.78,0-1.41.27-1.89.82s-.79,1.31-.92,2.29h5.43v-.21c-.06-.95-.32-1.67-.76-2.16s-1.06-.73-1.85-.73Z"/><rect class="uuid-a6bb493a-197e-4cbc-a86c-858b8d74e3d1" width="375" height="41.6"/></g></svg>