<?xml version="1.0" encoding="UTF-8"?><svg id="uuid-701c443a-9297-495a-87e8-127341e8da08" xmlns="http://www.w3.org/2000/svg" width="375" height="88.05" viewBox="0 0 375 88.05"><defs><style>.uuid-01e90207-e63d-4f3d-8e3d-180fa2a57606{fill:#231815;}.uuid-134708ac-0d6d-48f1-9a06-2846b294eb85{stroke:#b11f3a;stroke-miterlimit:10;stroke-width:.87px;}.uuid-134708ac-0d6d-48f1-9a06-2846b294eb85,.uuid-5c26ea2c-9193-4ebf-8ad4-4755d91258a6{fill:#b11f3a;}.uuid-5f64ce77-f1a4-48ec-b876-d58407fd02ff{fill:none;}</style></defs><g id="uuid-3f988b8b-bbcf-49f4-8555-fe3cea776c83"><path class="uuid-5c26ea2c-9193-4ebf-8ad4-4755d91258a6" d="M181.76,70.04h-5.24v-31.86l-7.24,6.05-3.08-3.62,10.85-8.8h4.7v38.23Z"/><path class="uuid-134708ac-0d6d-48f1-9a06-2846b294eb85" d="M199.58,69.42h-3.21v-22.94h14.32v2.82h-11.11v7.13h10.4v2.75h-10.4v10.24Z"/><path class="uuid-01e90207-e63d-4f3d-8e3d-180fa2a57606" d="M235.12,36.19h-.81v-.76h.91l.16-1.1h-.81v-.76h.91l.27-1.88h.79l-.27,1.88h.93l.27-1.88h.78l-.27,1.88h.81v.76h-.92l-.15,1.1h.81v.76h-.9l-.28,1.88h-.78l.27-1.88h-.94l-.27,1.88h-.78l.27-1.88ZM236.16,34.33l-.15,1.1h.93l.15-1.1h-.93Z"/><path class="uuid-01e90207-e63d-4f3d-8e3d-180fa2a57606" d="M244.83,33.19c-.17-.23-.39-.39-.66-.5-.27-.1-.53-.16-.79-.16-.33,0-.63.06-.9.18-.27.12-.5.29-.7.5s-.35.46-.45.74c-.11.28-.16.59-.16.92,0,.35.05.67.15.95s.25.54.44.74.42.37.68.48c.26.11.56.17.89.17s.65-.07.91-.2c.26-.13.48-.31.64-.54l.91.64c-.28.35-.63.63-1.04.82-.41.2-.89.29-1.43.29-.5,0-.96-.08-1.37-.25-.42-.16-.78-.4-1.08-.69-.3-.3-.53-.65-.7-1.06-.17-.41-.25-.87-.25-1.36s.09-.97.27-1.38c.18-.41.42-.76.73-1.05.31-.29.67-.51,1.09-.67s.88-.23,1.37-.23c.2,0,.42.02.64.06.22.04.43.1.64.18s.4.18.58.3.33.26.46.43l-.86.68Z"/><path class="uuid-01e90207-e63d-4f3d-8e3d-180fa2a57606" d="M249.68,37.52h-.03c-.11.19-.28.35-.52.47-.24.12-.51.18-.82.18-.17,0-.36-.02-.54-.07-.19-.04-.36-.12-.52-.22-.16-.1-.29-.24-.4-.41s-.16-.38-.16-.63c0-.32.09-.58.27-.77.18-.19.42-.34.71-.44.29-.1.61-.17.96-.2.35-.03.69-.05,1.03-.05v-.11c0-.27-.1-.47-.29-.6-.2-.13-.43-.19-.7-.19-.23,0-.45.05-.66.14s-.38.21-.52.35l-.56-.66c.25-.23.53-.4.85-.51.32-.11.65-.17.98-.17.38,0,.7.05.95.16.25.11.45.25.59.42.14.17.24.37.3.58.06.22.09.43.09.65v2.63h-1.01v-.55ZM249.66,36.1h-.24c-.17,0-.36,0-.55.02-.19.01-.37.05-.53.1-.16.05-.3.12-.4.22-.11.09-.16.22-.16.38,0,.1.02.19.07.26.05.07.1.12.18.17.07.04.15.07.24.09.09.02.18.03.27.03.37,0,.65-.1.85-.3s.29-.47.29-.81v-.15Z"/><path class="uuid-01e90207-e63d-4f3d-8e3d-180fa2a57606" d="M252.31,33.75h1.04v.72h.02c.12-.25.29-.46.5-.61.22-.16.47-.23.76-.23.04,0,.09,0,.14,0,.05,0,.09.01.13.02v.99c-.07-.02-.13-.03-.18-.04-.05,0-.1,0-.15,0-.25,0-.44.04-.59.13s-.27.2-.35.32-.14.25-.17.39c-.03.13-.04.24-.04.31v2.31h-1.08v-4.32Z"/><path class="uuid-01e90207-e63d-4f3d-8e3d-180fa2a57606" d="M257,33.75v.6h.03c.05-.08.12-.17.21-.26s.19-.17.32-.23c.13-.07.27-.13.43-.17s.34-.07.54-.07c.31,0,.59.06.85.18.26.12.48.28.67.48s.33.44.43.72c.1.28.15.57.15.89s-.05.62-.15.9c-.1.28-.24.52-.42.73s-.4.37-.67.5c-.26.12-.56.18-.89.18-.31,0-.59-.06-.84-.19-.25-.13-.45-.3-.59-.51h-.02v2.74h-1.08v-6.48h1.04ZM259.52,35.89c0-.17-.03-.33-.08-.5s-.13-.31-.23-.45-.23-.24-.39-.32c-.16-.08-.34-.12-.55-.12-.2,0-.38.04-.53.13-.16.08-.29.19-.4.32-.11.13-.19.28-.25.45s-.09.34-.09.5.03.33.09.5.14.31.25.45c.11.13.24.24.4.32.16.08.33.12.53.12.21,0,.39-.04.55-.13.16-.08.29-.19.39-.32s.18-.28.23-.45.08-.34.08-.5Z"/><path class="uuid-01e90207-e63d-4f3d-8e3d-180fa2a57606" d="M261.77,35.89c0-.34.06-.65.18-.93s.29-.52.5-.72.46-.35.75-.46c.29-.11.59-.16.92-.16s.63.05.92.16c.29.11.54.26.75.46.21.2.38.44.5.72.12.28.18.59.18.93s-.06.65-.18.94c-.12.28-.29.52-.5.72-.21.2-.46.36-.75.47s-.59.17-.92.17-.63-.06-.92-.17-.54-.27-.75-.47-.38-.44-.5-.72-.18-.59-.18-.94ZM262.87,35.89c0,.17.03.34.08.5.05.17.13.32.23.45s.23.24.39.32c.16.08.34.13.56.13s.4-.04.56-.13c.16-.08.28-.19.39-.32s.18-.28.23-.45.08-.34.08-.5-.03-.33-.08-.5-.13-.31-.23-.45-.23-.24-.39-.32c-.16-.08-.34-.12-.56-.12s-.4.04-.56.12c-.16.08-.29.19-.39.32s-.18.28-.23.45c-.05.17-.08.33-.08.5Z"/><path class="uuid-01e90207-e63d-4f3d-8e3d-180fa2a57606" d="M267.86,33.75h1.04v.72h.02c.12-.25.29-.46.5-.61.22-.16.47-.23.76-.23.04,0,.09,0,.14,0,.05,0,.09.01.13.02v.99c-.07-.02-.13-.03-.18-.04-.05,0-.1,0-.15,0-.25,0-.44.04-.59.13s-.27.2-.35.32-.14.25-.17.39c-.03.13-.04.24-.04.31v2.31h-1.08v-4.32Z"/><path class="uuid-01e90207-e63d-4f3d-8e3d-180fa2a57606" d="M271.18,34.61v-.86h.76v-1.25h1.06v1.25h1.08v.86h-1.08v2.01c0,.19.03.35.1.48.07.13.22.19.46.19.07,0,.15,0,.23-.02.08-.01.16-.04.23-.07l.04.85c-.1.04-.21.06-.34.09-.13.02-.26.03-.38.03-.29,0-.52-.04-.7-.12-.18-.08-.32-.19-.43-.33-.1-.14-.18-.3-.22-.49-.04-.18-.06-.38-.06-.59v-2.02h-.76Z"/><path class="uuid-01e90207-e63d-4f3d-8e3d-180fa2a57606" d="M235.12,52.19h-.81v-.76h.91l.16-1.1h-.81v-.76h.91l.27-1.88h.79l-.27,1.88h.93l.27-1.88h.78l-.27,1.88h.81v.76h-.92l-.15,1.1h.81v.76h-.9l-.28,1.88h-.78l.27-1.88h-.94l-.27,1.88h-.78l.27-1.88ZM236.16,50.33l-.15,1.1h.93l.15-1.1h-.93Z"/><path class="uuid-01e90207-e63d-4f3d-8e3d-180fa2a57606" d="M243.44,49.03c-.12-.16-.29-.29-.51-.39-.22-.1-.44-.16-.66-.16-.13,0-.26.02-.4.05-.13.03-.25.08-.36.15-.11.07-.2.16-.27.27-.07.11-.1.24-.1.4,0,.14.03.27.09.37.06.1.14.19.25.26s.23.13.38.19c.15.05.31.11.5.16.2.07.42.14.63.23.22.08.42.19.6.33.18.14.33.31.45.52.12.21.18.47.18.78,0,.34-.06.64-.19.9s-.29.47-.5.63-.46.29-.74.38c-.28.08-.58.13-.89.13-.41,0-.82-.08-1.22-.23s-.72-.38-.97-.68l.81-.76c.16.22.36.39.63.51.26.13.52.19.77.19.13,0,.27-.02.4-.05s.26-.09.37-.17c.11-.08.2-.18.27-.29s.1-.26.1-.44-.04-.31-.12-.42c-.08-.11-.18-.21-.31-.29s-.29-.15-.47-.21c-.18-.06-.37-.12-.57-.19-.19-.06-.38-.13-.58-.22-.19-.08-.36-.19-.52-.33-.15-.14-.28-.31-.37-.51s-.14-.45-.14-.75c0-.32.07-.6.2-.84.13-.23.31-.43.53-.58.22-.15.47-.27.75-.34.28-.07.56-.11.85-.11.32,0,.65.06.99.17.33.11.62.29.87.51l-.74.81Z"/><path class="uuid-01e90207-e63d-4f3d-8e3d-180fa2a57606" d="M248.05,49.62c.28,0,.52.05.72.15.2.1.37.23.5.39s.22.35.28.56c.06.21.09.43.09.65v2.7h-1.08v-2.38c0-.13,0-.26-.03-.39s-.06-.26-.11-.37c-.06-.11-.14-.2-.24-.27s-.24-.11-.42-.11-.32.03-.45.1-.23.15-.31.27-.15.24-.19.37c-.04.14-.06.28-.06.42v2.36h-1.08v-6.8h1.08v3.09h.02c.04-.09.1-.18.18-.27.08-.09.18-.17.28-.23.11-.07.23-.12.37-.17.14-.04.29-.06.45-.06Z"/><path class="uuid-01e90207-e63d-4f3d-8e3d-180fa2a57606" d="M251,51.89c0-.34.06-.65.18-.93s.29-.52.5-.72.46-.35.75-.46c.29-.11.59-.16.92-.16s.63.05.92.16c.29.11.54.26.75.46.21.2.38.44.5.72.12.28.18.59.18.93s-.06.65-.18.94c-.12.28-.29.52-.5.72-.21.2-.46.36-.75.47s-.59.17-.92.17-.63-.06-.92-.17-.54-.27-.75-.47-.38-.44-.5-.72-.18-.59-.18-.94ZM252.09,51.89c0,.17.03.34.08.5.05.17.13.32.23.45s.23.24.39.32c.16.08.34.13.56.13s.4-.04.56-.13c.16-.08.28-.19.39-.32s.18-.28.23-.45.08-.34.08-.5-.03-.33-.08-.5-.13-.31-.23-.45-.23-.24-.39-.32c-.16-.08-.34-.12-.56-.12s-.4.04-.56.12c-.16.08-.29.19-.39.32s-.18.28-.23.45c-.05.17-.08.33-.08.5Z"/><path class="uuid-01e90207-e63d-4f3d-8e3d-180fa2a57606" d="M261.22,51.96v.14s0,.1,0,.14h-3.29c.01.16.05.3.12.43.07.13.16.24.27.33.11.09.24.17.39.22.14.05.29.08.45.08.27,0,.5-.05.68-.15.19-.1.34-.24.46-.41l.72.58c-.43.58-1.04.86-1.85.86-.34,0-.65-.05-.93-.16-.28-.11-.53-.25-.73-.45-.21-.19-.37-.43-.49-.71-.12-.28-.18-.6-.18-.95s.06-.67.18-.95c.12-.29.28-.53.48-.73.2-.2.45-.36.72-.47.28-.11.58-.17.9-.17.3,0,.58.05.83.15.25.1.48.25.66.44s.33.44.44.73c.1.29.16.63.16,1.02ZM260.14,51.48c0-.14-.02-.27-.06-.4s-.1-.24-.18-.33c-.08-.1-.19-.17-.32-.23-.13-.06-.28-.08-.45-.08-.32,0-.6.1-.82.29-.23.2-.35.45-.37.75h2.21Z"/><path class="uuid-01e90207-e63d-4f3d-8e3d-180fa2a57606" d="M265.01,50.9c-.1-.13-.23-.24-.4-.33-.17-.09-.35-.14-.55-.14-.17,0-.33.04-.48.11-.14.07-.22.19-.22.36s.08.29.24.36c.16.07.39.14.7.21.16.04.33.08.49.14.16.06.31.14.45.24.14.1.24.22.33.37.08.15.13.33.13.54,0,.26-.05.49-.15.67-.1.18-.23.33-.4.45-.17.11-.36.2-.58.25s-.45.08-.68.08c-.34,0-.66-.06-.98-.18-.32-.12-.58-.3-.79-.53l.71-.67c.12.16.28.29.47.39.19.1.41.15.64.15.08,0,.16,0,.24-.03.08-.02.16-.05.23-.08s.12-.09.17-.16c.04-.07.06-.15.06-.24,0-.18-.08-.31-.25-.39-.17-.08-.41-.16-.74-.23-.16-.04-.32-.08-.47-.14-.15-.06-.29-.13-.41-.23-.12-.09-.22-.21-.29-.35-.07-.14-.11-.31-.11-.51,0-.24.05-.45.15-.62.1-.17.23-.32.39-.43.16-.11.35-.19.55-.25.2-.05.41-.08.63-.08.31,0,.62.05.91.16.3.11.53.27.71.5l-.7.62Z"/><path class="uuid-01e90207-e63d-4f3d-8e3d-180fa2a57606" d="M269.97,50.95c-.08-.12-.21-.22-.38-.3-.17-.08-.34-.12-.51-.12-.2,0-.37.04-.52.12s-.27.19-.37.32c-.1.13-.17.28-.22.45-.05.17-.07.33-.07.5s.03.33.08.5c.05.17.13.31.23.45.1.13.23.24.38.32s.33.12.54.12c.17,0,.34-.03.5-.1.17-.07.3-.16.4-.29l.68.68c-.18.19-.41.34-.69.45-.28.1-.58.16-.9.16s-.62-.05-.9-.15c-.29-.1-.53-.25-.75-.45-.21-.2-.38-.44-.5-.72-.12-.28-.18-.6-.18-.96s.06-.66.18-.95c.12-.28.29-.52.5-.72s.45-.35.73-.46c.28-.11.58-.16.9-.16s.63.06.92.18c.3.12.53.29.71.49l-.74.65Z"/><path class="uuid-01e90207-e63d-4f3d-8e3d-180fa2a57606" d="M271.82,47.27h1.08v6.8h-1.08v-6.8Z"/><path class="uuid-01e90207-e63d-4f3d-8e3d-180fa2a57606" d="M274.32,51.89c0-.34.06-.65.18-.93s.29-.52.5-.72.46-.35.75-.46c.29-.11.59-.16.92-.16s.63.05.92.16c.29.11.54.26.75.46.21.2.38.44.5.72.12.28.18.59.18.93s-.06.65-.18.94c-.12.28-.29.52-.5.72-.21.2-.46.36-.75.47s-.59.17-.92.17-.63-.06-.92-.17-.54-.27-.75-.47-.38-.44-.5-.72-.18-.59-.18-.94ZM275.41,51.89c0,.17.03.34.08.5.05.17.13.32.23.45s.23.24.39.32c.16.08.34.13.56.13s.4-.04.56-.13c.16-.08.28-.19.39-.32s.18-.28.23-.45.08-.34.08-.5-.03-.33-.08-.5-.13-.31-.23-.45-.23-.24-.39-.32c-.16-.08-.34-.12-.56-.12s-.4.04-.56.12c-.16.08-.29.19-.39.32s-.18.28-.23.45c-.05.17-.08.33-.08.5Z"/><path class="uuid-01e90207-e63d-4f3d-8e3d-180fa2a57606" d="M282.78,50.9c-.1-.13-.23-.24-.4-.33-.17-.09-.35-.14-.55-.14-.17,0-.33.04-.48.11-.14.07-.22.19-.22.36s.08.29.24.36c.16.07.39.14.7.21.16.04.33.08.49.14.16.06.31.14.45.24.14.1.24.22.33.37.08.15.13.33.13.54,0,.26-.05.49-.15.67-.1.18-.23.33-.4.45-.17.11-.36.2-.58.25s-.45.08-.68.08c-.34,0-.66-.06-.98-.18-.32-.12-.58-.3-.79-.53l.71-.67c.12.16.28.29.47.39.19.1.41.15.64.15.08,0,.16,0,.24-.03.08-.02.16-.05.23-.08s.12-.09.17-.16c.04-.07.06-.15.06-.24,0-.18-.08-.31-.25-.39-.17-.08-.41-.16-.74-.23-.16-.04-.32-.08-.47-.14-.15-.06-.29-.13-.41-.23-.12-.09-.22-.21-.29-.35-.07-.14-.11-.31-.11-.51,0-.24.05-.45.15-.62.1-.17.23-.32.39-.43.16-.11.35-.19.55-.25.2-.05.41-.08.63-.08.31,0,.62.05.91.16.3.11.53.27.71.5l-.7.62Z"/><path class="uuid-01e90207-e63d-4f3d-8e3d-180fa2a57606" d="M288.91,51.96v.14s0,.1,0,.14h-3.29c.01.16.05.3.12.43.07.13.16.24.27.33.11.09.24.17.39.22.14.05.29.08.45.08.27,0,.5-.05.68-.15.19-.1.34-.24.46-.41l.72.58c-.43.58-1.04.86-1.85.86-.34,0-.65-.05-.93-.16-.28-.11-.53-.25-.73-.45-.21-.19-.37-.43-.49-.71-.12-.28-.18-.6-.18-.95s.06-.67.18-.95c.12-.29.28-.53.48-.73.2-.2.45-.36.72-.47.28-.11.58-.17.9-.17.3,0,.58.05.83.15.25.1.48.25.66.44s.33.44.44.73c.1.29.16.63.16,1.02ZM287.83,51.48c0-.14-.02-.27-.06-.4s-.1-.24-.18-.33c-.08-.1-.19-.17-.32-.23-.13-.06-.28-.08-.45-.08-.32,0-.6.1-.82.29-.23.2-.35.45-.37.75h2.21Z"/><path class="uuid-01e90207-e63d-4f3d-8e3d-180fa2a57606" d="M289.73,50.61v-.86h.76v-1.25h1.06v1.25h1.08v.86h-1.08v2.01c0,.19.03.35.1.48.07.13.22.19.46.19.07,0,.15,0,.23-.02.08-.01.16-.04.23-.07l.04.85c-.1.04-.21.06-.34.09-.13.02-.26.03-.38.03-.29,0-.52-.04-.7-.12-.18-.08-.32-.19-.43-.33-.1-.14-.18-.3-.22-.49-.04-.18-.06-.38-.06-.59v-2.02h-.76Z"/><path class="uuid-01e90207-e63d-4f3d-8e3d-180fa2a57606" d="M235.12,68.19h-.81v-.76h.91l.16-1.1h-.81v-.76h.91l.27-1.88h.79l-.27,1.88h.93l.27-1.88h.78l-.27,1.88h.81v.76h-.92l-.15,1.1h.81v.76h-.9l-.28,1.88h-.78l.27-1.88h-.94l-.27,1.88h-.78l.27-1.88ZM236.16,66.33l-.15,1.1h.93l.15-1.1h-.93Z"/><path class="uuid-01e90207-e63d-4f3d-8e3d-180fa2a57606" d="M240.24,63.7h1.13v2.57h2.98v-2.57h1.13v6.37h-1.13v-2.83h-2.98v2.83h-1.13v-6.37Z"/><path class="uuid-01e90207-e63d-4f3d-8e3d-180fa2a57606" d="M249.91,69.52h-.03c-.11.19-.28.35-.52.47-.24.12-.51.18-.82.18-.17,0-.36-.02-.54-.07-.19-.04-.36-.12-.52-.22-.16-.1-.29-.24-.4-.41s-.16-.38-.16-.63c0-.32.09-.58.27-.77.18-.19.42-.34.71-.44.29-.1.61-.17.96-.2.35-.03.69-.05,1.03-.05v-.11c0-.27-.1-.47-.29-.6-.2-.13-.43-.19-.7-.19-.23,0-.45.05-.66.14s-.38.21-.52.35l-.56-.66c.25-.23.53-.4.85-.51.32-.11.65-.17.98-.17.38,0,.7.05.95.16.25.11.45.25.59.42.14.17.24.37.3.58.06.22.09.43.09.65v2.63h-1.01v-.55ZM249.89,68.1h-.24c-.17,0-.36,0-.55.02-.19.01-.37.05-.53.1-.16.05-.3.12-.4.22-.11.09-.16.22-.16.38,0,.1.02.19.07.26.05.07.1.12.18.17.07.04.15.07.24.09.09.02.18.03.27.03.37,0,.65-.1.85-.3s.29-.47.29-.81v-.15Z"/><path class="uuid-01e90207-e63d-4f3d-8e3d-180fa2a57606" d="M252.53,65.75h1.03v.69h.02c.1-.22.26-.41.5-.57s.52-.25.84-.25c.28,0,.52.05.72.15.2.1.37.23.5.39s.22.35.28.56c.06.21.09.43.09.65v2.7h-1.08v-2.39c0-.13,0-.26-.03-.4s-.06-.26-.12-.37c-.06-.11-.14-.2-.25-.28-.1-.07-.24-.11-.42-.11s-.32.03-.45.1-.23.16-.31.27c-.08.11-.14.23-.18.37-.04.14-.06.28-.06.43v2.38h-1.08v-4.32Z"/><path class="uuid-01e90207-e63d-4f3d-8e3d-180fa2a57606" d="M262.52,70.07h-1.03v-.65h-.02c-.15.25-.36.44-.63.58-.27.13-.55.2-.86.2-.33,0-.63-.06-.89-.18s-.48-.29-.67-.5-.32-.45-.42-.73c-.1-.28-.15-.58-.15-.9s.05-.62.15-.89c.1-.28.25-.52.43-.72.19-.2.41-.36.67-.48.26-.12.54-.18.85-.18.2,0,.38.02.53.07.16.04.29.1.41.17.12.07.22.14.3.22s.15.15.21.22h.03v-3.03h1.08v6.8ZM258.97,67.89c0,.17.03.34.08.5.05.17.13.32.23.45s.23.24.39.32c.16.08.34.13.55.13.2,0,.38-.04.53-.12.16-.08.29-.19.4-.32.11-.13.19-.28.25-.45.06-.17.09-.33.09-.5s-.03-.34-.09-.5c-.06-.17-.14-.32-.25-.45-.11-.13-.24-.24-.4-.32-.16-.08-.33-.13-.53-.13-.21,0-.39.04-.55.12-.16.08-.29.19-.39.32s-.18.28-.23.45c-.05.17-.08.33-.08.5Z"/><path class="uuid-01e90207-e63d-4f3d-8e3d-180fa2a57606" d="M263.61,65.75h1.17l.9,3.1h.02l.93-3.1h1.15l.94,3.1h.02l.92-3.1h1.12l-1.49,4.32h-1.1l-.98-3.02h-.02l-.97,3.02h-1.1l-1.5-4.32Z"/><path class="uuid-01e90207-e63d-4f3d-8e3d-180fa2a57606" d="M274.49,69.52h-.03c-.11.19-.28.35-.52.47-.24.12-.51.18-.82.18-.17,0-.36-.02-.54-.07-.19-.04-.36-.12-.52-.22-.16-.1-.29-.24-.4-.41s-.16-.38-.16-.63c0-.32.09-.58.27-.77.18-.19.42-.34.71-.44.29-.1.61-.17.96-.2.35-.03.69-.05,1.03-.05v-.11c0-.27-.1-.47-.29-.6-.2-.13-.43-.19-.7-.19-.23,0-.45.05-.66.14s-.38.21-.52.35l-.56-.66c.25-.23.53-.4.85-.51.32-.11.65-.17.98-.17.38,0,.7.05.95.16.25.11.45.25.59.42.14.17.24.37.3.58.06.22.09.43.09.65v2.63h-1.01v-.55ZM274.47,68.1h-.24c-.17,0-.36,0-.55.02-.19.01-.37.05-.53.1-.16.05-.3.12-.4.22-.11.09-.16.22-.16.38,0,.1.02.19.07.26.05.07.1.12.18.17.07.04.15.07.24.09.09.02.18.03.27.03.37,0,.65-.1.85-.3s.29-.47.29-.81v-.15Z"/><path class="uuid-01e90207-e63d-4f3d-8e3d-180fa2a57606" d="M279.51,66.9c-.1-.13-.23-.24-.4-.33-.17-.09-.35-.14-.55-.14-.17,0-.33.04-.48.11-.14.07-.22.19-.22.36s.08.29.24.36c.16.07.39.14.7.21.16.04.33.08.49.14.16.06.31.14.45.24.14.1.24.22.33.37.08.15.13.33.13.54,0,.26-.05.49-.15.67-.1.18-.23.33-.4.45-.17.11-.36.2-.58.25s-.45.08-.68.08c-.34,0-.66-.06-.98-.18-.32-.12-.58-.3-.79-.53l.71-.67c.12.16.28.29.47.39.19.1.41.15.64.15.08,0,.16,0,.24-.03.08-.02.16-.05.23-.08s.12-.09.17-.16c.04-.07.06-.15.06-.24,0-.18-.08-.31-.25-.39-.17-.08-.41-.16-.74-.23-.16-.04-.32-.08-.47-.14-.15-.06-.29-.13-.41-.23-.12-.09-.22-.21-.29-.35-.07-.14-.11-.31-.11-.51,0-.24.05-.45.15-.62.1-.17.23-.32.39-.43.16-.11.35-.19.55-.25.2-.05.41-.08.63-.08.31,0,.62.05.91.16.3.11.53.27.71.5l-.7.62Z"/><path class="uuid-01e90207-e63d-4f3d-8e3d-180fa2a57606" d="M283.95,65.62c.28,0,.52.05.72.15.2.1.37.23.5.39s.22.35.28.56c.06.21.09.43.09.65v2.7h-1.08v-2.38c0-.13,0-.26-.03-.39s-.06-.26-.11-.37c-.06-.11-.14-.2-.24-.27s-.24-.11-.42-.11-.32.03-.45.1-.23.15-.31.27-.15.24-.19.37c-.04.14-.06.28-.06.42v2.36h-1.08v-6.8h1.08v3.09h.02c.04-.09.1-.18.18-.27.08-.09.18-.17.28-.23.11-.07.23-.12.37-.17.14-.04.29-.06.45-.06Z"/><path class="uuid-01e90207-e63d-4f3d-8e3d-180fa2a57606" d="M289.84,69.52h-.03c-.11.19-.28.35-.52.47-.24.12-.51.18-.82.18-.17,0-.36-.02-.54-.07-.19-.04-.36-.12-.52-.22-.16-.1-.29-.24-.4-.41s-.16-.38-.16-.63c0-.32.09-.58.27-.77.18-.19.42-.34.71-.44.29-.1.61-.17.96-.2.35-.03.69-.05,1.03-.05v-.11c0-.27-.1-.47-.29-.6-.2-.13-.43-.19-.7-.19-.23,0-.45.05-.66.14s-.38.21-.52.35l-.56-.66c.25-.23.53-.4.85-.51.32-.11.65-.17.98-.17.38,0,.7.05.95.16.25.11.45.25.59.42.14.17.24.37.3.58.06.22.09.43.09.65v2.63h-1.01v-.55ZM289.82,68.1h-.24c-.17,0-.36,0-.55.02-.19.01-.37.05-.53.1-.16.05-.3.12-.4.22-.11.09-.16.22-.16.38,0,.1.02.19.07.26.05.07.1.12.18.17.07.04.15.07.24.09.09.02.18.03.27.03.37,0,.65-.1.85-.3s.29-.47.29-.81v-.15Z"/><path class="uuid-01e90207-e63d-4f3d-8e3d-180fa2a57606" d="M292.46,65.75h1.04v.72h.02c.12-.25.29-.46.5-.61.22-.16.47-.23.76-.23.04,0,.09,0,.14,0,.05,0,.09.01.13.02v.99c-.07-.02-.13-.03-.18-.04-.05,0-.1,0-.15,0-.25,0-.44.04-.59.13s-.27.2-.35.32-.14.25-.17.39c-.03.13-.04.24-.04.31v2.31h-1.08v-4.32Z"/><path class="uuid-01e90207-e63d-4f3d-8e3d-180fa2a57606" d="M300.22,67.96v.14s0,.1,0,.14h-3.29c.01.16.05.3.12.43.07.13.16.24.27.33.11.09.24.17.39.22.14.05.29.08.45.08.27,0,.5-.05.68-.15.19-.1.34-.24.46-.41l.72.58c-.43.58-1.04.86-1.85.86-.34,0-.65-.05-.93-.16-.28-.11-.53-.25-.73-.45-.21-.19-.37-.43-.49-.71-.12-.28-.18-.6-.18-.95s.06-.67.18-.95c.12-.29.28-.53.48-.73.2-.2.45-.36.72-.47.28-.11.58-.17.9-.17.3,0,.58.05.83.15.25.1.48.25.66.44s.33.44.44.73c.1.29.16.63.16,1.02ZM299.14,67.48c0-.14-.02-.27-.06-.4s-.1-.24-.18-.33c-.08-.1-.19-.17-.32-.23-.13-.06-.28-.08-.45-.08-.32,0-.6.1-.82.29-.23.2-.35.45-.37.75h2.21Z"/><path class="uuid-01e90207-e63d-4f3d-8e3d-180fa2a57606" d="M304.27,69.52h-.03c-.11.19-.28.35-.52.47-.24.12-.51.18-.82.18-.17,0-.36-.02-.54-.07-.19-.04-.36-.12-.52-.22-.16-.1-.29-.24-.4-.41s-.16-.38-.16-.63c0-.32.09-.58.27-.77.18-.19.42-.34.71-.44.29-.1.61-.17.96-.2.35-.03.69-.05,1.03-.05v-.11c0-.27-.1-.47-.29-.6-.2-.13-.43-.19-.7-.19-.23,0-.45.05-.66.14s-.38.21-.52.35l-.56-.66c.25-.23.53-.4.85-.51.32-.11.65-.17.98-.17.38,0,.7.05.95.16.25.11.45.25.59.42.14.17.24.37.3.58.06.22.09.43.09.65v2.63h-1.01v-.55ZM304.26,68.1h-.24c-.17,0-.36,0-.55.02-.19.01-.37.05-.53.1-.16.05-.3.12-.4.22-.11.09-.16.22-.16.38,0,.1.02.19.07.26.05.07.1.12.18.17.07.04.15.07.24.09.09.02.18.03.27.03.37,0,.65-.1.85-.3s.29-.47.29-.81v-.15Z"/><rect class="uuid-5f64ce77-f1a4-48ec-b876-d58407fd02ff" width="375" height="88.05"/></g></svg>