<?xml version="1.0" encoding="UTF-8"?><svg id="uuid-db48caf3-4aeb-4a6d-b671-1ec621ed0890" xmlns="http://www.w3.org/2000/svg" width="375" height="66.32" viewBox="0 0 375 66.32"><defs><style>.uuid-fd0ed802-58d1-4b79-8be1-7c2899b36a5b,.uuid-089cd26c-c25c-485a-bea0-a5a66cbc1097{fill:none;}.uuid-9e782a03-296a-4133-9f32-6da1875c8aa1{fill:#1c1c1c;}.uuid-da54f39c-3102-43ca-a5d2-1c1aeda5fbd6{fill:#bc1f3a;}.uuid-089cd26c-c25c-485a-bea0-a5a66cbc1097{stroke:#b11f3a;stroke-miterlimit:10;}</style></defs><g id="uuid-f8e49905-bf3a-4d6d-b052-72880b0d7663"><path class="uuid-9e782a03-296a-4133-9f32-6da1875c8aa1" d="M123.81,17.26c0,1.42-.11,2.69-.34,3.85-.19,1.01-.48,1.81-.96,2.65-.08.16-.13.23-.19.23s-.12-.06-.24-.19c-.25-.28-.59-.54-.8-.67.5-.77.78-1.5.98-2.51.2-.96.28-2.22.28-3.59,0-1.5-.02-2.18-.02-2.25,0-.12.01-.13.13-.13.07,0,.49.02,1.63.02h2.39v-.52c0-.37-.01-.68-.07-.97.46.01.85.04,1.27.07.12.01.19.05.19.12,0,.08-.02.14-.07.23s-.08.25-.08.52v.55h2.43c1.14,0,1.54-.02,1.61-.02.11,0,.12.01.12.13v.91c0,.13-.01.14-.12.14-.07,0-.47-.02-1.61-.02h-6.52v1.45ZM129.37,19.2c.16-.07.18-.08.25.02.88,1.26,1.7,2.72,2.3,4.01.05.12.04.17-.11.24l-.89.47c-.14.07-.2.04-.25-.08-.16-.36-.31-.72-.48-1.08-1.55.28-3.62.59-5.59.8-.19.02-.35.07-.44.13-.07.05-.14.07-.19.07-.08,0-.13-.05-.18-.18-.1-.34-.19-.77-.29-1.25.43.01.83.01,1.37-.02.68-1.73,1.1-3.12,1.5-4.75.08-.34.13-.68.16-1.12.47.1.97.24,1.33.36.17.05.2.11.2.2,0,.08-.04.16-.11.24-.11.13-.2.3-.3.67-.41,1.48-.84,2.81-1.43,4.26,1.17-.13,2.37-.29,3.44-.48-.35-.66-.74-1.3-1.17-1.93-.06-.1-.05-.14.1-.22l.78-.37Z"/><path class="uuid-9e782a03-296a-4133-9f32-6da1875c8aa1" d="M137.33,17.67c-.95,1.31-1.75,2.15-2.83,3.02-.11.07-.17.12-.24.12-.05,0-.1-.01-.14-.05-.28-.18-.59-.36-1.02-.47,1.78-1.39,3.03-2.97,3.91-4.55.38-.66.59-1.15.72-1.76.48.16.91.32,1.32.54.07.05.11.11.11.18s-.05.16-.11.2c-.13.11-.28.28-.36.41-.19.37-.5.89-.71,1.21l2.19-.06c.34-.01.49-.05.61-.12.05-.04.11-.05.16-.05.07,0,.16.02.24.08.2.12.52.37.74.6.07.08.11.17.11.25,0,.06-.02.12-.07.17-.14.14-.26.28-.41.58-.58,1.08-1.22,1.99-2.16,3,.4.35.77.74,1.13,1.19.06.07.1.12.1.17s-.04.1-.11.17c-.23.23-.49.46-.76.65-.06.05-.1.07-.13.07-.05,0-.08-.04-.13-.11-.97-1.27-2.03-2.15-3.35-3.01.26-.26.5-.52.75-.73.06-.06.1-.08.14-.08.04,0,.1.02.17.07.44.28.88.59,1.28.92.79-.88,1.33-1.6,1.82-2.69l-2.99.07Z"/><path class="uuid-9e782a03-296a-4133-9f32-6da1875c8aa1" d="M147.41,13.84c.14.04.22.1.22.19,0,.17-.08.34-.08.5,0,.24.04.53.06.8.11.84.23,1.44.38,2.06.6-.32,1.03-.55,1.7-.91.35-.2.64-.41.83-.65.38.4.7.82.88,1.13.05.07.08.17.08.25,0,.12-.07.22-.24.24-.36.06-.77.2-1.15.36-1.03.42-1.99.86-2.82,1.4-1.04.68-1.42,1.25-1.42,1.81,0,.71.53,1.01,1.91,1.01,1.51,0,2.73-.11,3.66-.28.13-.02.19,0,.22.14.06.32.1.76.12,1.12.01.13-.07.19-.22.2-1.09.14-2.05.18-3.57.18-2.27,0-3.47-.74-3.47-2.3,0-1.33.88-2.21,2.28-3.09-.29-.92-.5-2-.62-2.93-.08-.64-.17-1.06-.31-1.39.58,0,1.13.04,1.57.14Z"/><path class="uuid-9e782a03-296a-4133-9f32-6da1875c8aa1" d="M157.01,13.96c.2.05.29.11.29.23,0,.13-.07.28-.12.4-.06.17-.11.54-.17,1.46-.12,1.85-.18,3.07-.18,4.64,0,1.21.14,1.49,1.1,1.49,1.07,0,2.73-.65,4.2-2.21.05.46.16.85.28,1.14.06.13.1.22.1.29,0,.11-.05.2-.24.37-1.29,1.19-2.99,1.8-4.54,1.8s-2.25-.61-2.25-2.45c0-2.01.11-3.74.17-5.18.02-.71.06-1.48-.12-2.19.55.06,1.13.12,1.5.22Z"/><path class="uuid-9e782a03-296a-4133-9f32-6da1875c8aa1" d="M170.39,15.3c.13-.04.18.02.19.12.04.26.07.61.08.86.01.16-.02.19-.18.23-.74.2-1.36.34-2.09.46-.82,2.66-1.43,4.5-2.2,6.49-.06.17-.13.16-.26.12-.12-.05-.71-.3-.96-.44-.1-.06-.13-.16-.1-.24.91-2.1,1.49-3.68,2.08-5.68-.7.07-1.54.13-2.1.13-.18,0-.23-.04-.25-.19-.05-.25-.11-.66-.17-1.09.25.04.4.04.89.04.6,0,1.25-.04,1.94-.12.12-.48.22-1.01.3-1.5.05-.36.07-.72.07-1.1.64.1,1.13.18,1.51.34.1.04.13.12.13.19,0,.05,0,.11-.06.19-.1.17-.19.29-.25.48-.12.43-.2.84-.29,1.14.47-.08,1.12-.24,1.7-.41ZM169.92,21.04c.12,0,.17.05.18.17.1.88.68,1.13,1.83,1.13.67,0,1.54-.11,2.01-.17.1-.01.13.01.14.11.05.31.1.72.1,1.04.01.14,0,.18-.19.19-.41.06-1.19.13-1.63.13-1.57,0-2.39-.22-2.93-.78-.38-.38-.52-.95-.54-1.64.37-.1.86-.18,1.02-.18ZM169.79,17.86c0-.17.04-.2.22-.24.76-.16,1.64-.28,2.34-.28.47,0,.98.05,1.4.12.17.02.2.04.2.18.02.3.02.64.01.96,0,.2-.06.25-.23.22-.42-.08-.97-.14-1.49-.14-.72,0-1.63.12-2.41.28-.02-.42-.05-.85-.05-1.09Z"/><path class="uuid-9e782a03-296a-4133-9f32-6da1875c8aa1" d="M176.94,16.97c.06-.08.12-.14.23-.12.9.3,1.62.68,2.3,1.18.08.06.13.11.13.18,0,.04-.02.08-.05.13-.13.32-.34.64-.53.91-.06.07-.11.12-.16.12s-.08-.02-.14-.07c-.77-.56-1.55-.96-2.42-1.31.3-.48.49-.83.64-1.02ZM178.88,21.42c1.14-.6,2.12-1.16,3.29-2.07.96-.73,2.24-1.88,3.45-3.35.07.53.17.83.35,1.34.04.08.06.16.06.23,0,.1-.04.18-.13.28-1.12,1.2-1.87,1.86-3.05,2.77-1.04.79-2.16,1.48-3.59,2.25-.29.16-.58.29-.7.41-.07.07-.13.1-.19.1-.08,0-.17-.05-.24-.14-.25-.25-.58-.72-.89-1.22.5-.1.92-.23,1.63-.59ZM178.39,14.21c.08-.14.16-.17.3-.1.77.31,1.59.76,2.25,1.33.07.05.1.11.1.16s-.01.1-.05.16c-.17.3-.41.68-.61.9-.04.06-.08.07-.12.07-.06,0-.12-.04-.18-.08-.62-.52-1.56-1.13-2.33-1.48.2-.31.43-.65.64-.96Z"/><path class="uuid-9e782a03-296a-4133-9f32-6da1875c8aa1" d="M194.26,21.66c.48,0,1.01-.01,1.46-.01.2-.01.25.02.26.22.01.23.01.53,0,.76-.01.23-.05.24-.23.24-.54,0-1.12-.01-1.67-.01h-4.41c-.49,0-.96,0-1.55.02-.13,0-.18-.06-.2-.24-.05-.25-.06-.64-.06-1.01.68.05,1.13.05,1.73.05h2.78l.41-2.91h-1.93c-.47,0-1.01.02-1.32.04-.14.01-.19-.02-.22-.23-.04-.25-.06-.64-.08-1.03.8.04,1.16.06,1.67.06h1.66c.43,0,.54-.04.71-.11.05-.04.1-.05.13-.05.06,0,.12.04.18.07.22.16.54.42.73.66.07.07.11.14.11.22s-.04.14-.11.22c-.16.17-.19.3-.24.6l-.37,2.46h.56Z"/><path class="uuid-9e782a03-296a-4133-9f32-6da1875c8aa1" d="M200.14,19.5c-1.19,0-1.64.14-1.76.14-.14,0-.24-.07-.28-.25-.06-.28-.13-.84-.18-1.45.78.12,1.38.14,2.59.14h3.86c.91,0,1.83-.02,2.76-.04.18-.01.22.02.22.17.02.36.02.77,0,1.13,0,.14-.05.19-.22.18-.9-.01-1.79-.02-2.67-.02h-4.32Z"/><path class="uuid-9e782a03-296a-4133-9f32-6da1875c8aa1" d="M214.65,15.08c.43,0,.65-.01.83-.11.05-.04.08-.05.13-.05.07,0,.13.05.2.1.28.22.55.53.78.84.04.06.06.11.06.16,0,.07-.05.16-.16.24-.16.13-.31.31-.44.53-.49.84-.96,1.51-1.54,2.24,1.15.85,2.22,1.79,3.32,2.9.06.06.1.12.1.17s-.02.11-.08.18c-.23.28-.5.56-.8.82-.05.05-.1.07-.14.07-.06,0-.11-.04-.17-.1-1.01-1.18-2.04-2.12-3.12-2.97-1.36,1.42-2.72,2.43-4.03,3.17-.11.05-.19.1-.28.1-.07,0-.14-.04-.2-.11-.26-.32-.61-.56-1.01-.78,1.87-.95,2.99-1.8,4.22-3.06.86-.9,1.52-1.75,2.25-3.01h-3.09c-.62.01-1.25.04-1.89.08-.1.01-.13-.07-.16-.2-.06-.25-.11-.83-.11-1.25.65.05,1.25.05,2.03.05h3.3ZM216.68,13.85c.06-.05.11-.04.18.02.37.29.8.77,1.14,1.28.05.07.05.13-.04.19l-.5.37c-.08.06-.14.05-.2-.04-.36-.55-.74-1.01-1.21-1.39l.64-.44ZM217.74,13.07c.07-.05.11-.04.18.02.44.34.88.82,1.14,1.24.05.07.06.14-.04.22l-.48.37c-.1.07-.16.04-.2-.04-.32-.52-.71-.97-1.2-1.38l.6-.43Z"/><path class="uuid-9e782a03-296a-4133-9f32-6da1875c8aa1" d="M226.5,15.5c.31-.01.47-.06.6-.14.05-.04.1-.05.16-.05s.12.02.19.07c.3.19.58.42.82.65.11.1.16.19.16.28,0,.1-.06.18-.14.25-.17.13-.29.3-.4.52-.8,1.63-1.57,2.79-2.38,3.71-1.03,1.16-2.46,2.33-3.65,2.99-.07.05-.13.06-.19.06-.1,0-.18-.05-.28-.13-.3-.24-.67-.42-1.14-.55,1.87-1.03,2.82-1.79,3.99-3.06.95-1.06,1.5-1.87,2.22-3.41l-2.9.08c-.98,1.21-1.58,1.9-2.27,2.46-.08.08-.17.13-.25.13-.06,0-.12-.02-.18-.07-.3-.22-.74-.43-1.15-.52,1.56-1.27,2.48-2.39,3.23-3.56.4-.67.58-1.04.71-1.62.68.24,1.14.44,1.4.64.08.06.12.13.12.2s-.04.14-.13.2c-.12.07-.2.2-.3.32-.13.2-.25.38-.4.6l2.16-.05Z"/><path class="uuid-9e782a03-296a-4133-9f32-6da1875c8aa1" d="M232.91,21.8v.71c0,.2-.05.23-.26.24-.3.01-.65.01-.95,0-.2-.01-.26-.04-.25-.18.01-.62.04-1.48.04-2.39v-2.94c0-.65.01-1.29-.02-1.99,0-.12.05-.17.13-.17.64.04,1.34.04,2.15.04h2.85c.78,0,1.69,0,2.25-.02.13,0,.17.06.16.24,0,.59-.01,1.24-.01,1.94v2.87c0,1.04.04,1.63.06,2.28,0,.17-.06.2-.23.2-.36.01-.74.01-1.1,0-.14,0-.16-.02-.16-.19v-.64h-4.65ZM237.57,16.4h-4.67v4.14h4.67v-4.14Z"/><path class="uuid-9e782a03-296a-4133-9f32-6da1875c8aa1" d="M244.18,19.5c-1.19,0-1.64.14-1.76.14-.14,0-.24-.07-.28-.25-.06-.28-.13-.84-.18-1.45.78.12,1.38.14,2.59.14h3.86c.91,0,1.83-.02,2.76-.04.18-.01.22.02.22.17.02.36.02.77,0,1.13,0,.14-.05.19-.22.18-.9-.01-1.79-.02-2.67-.02h-4.32Z"/><path class="uuid-9e782a03-296a-4133-9f32-6da1875c8aa1" d="M256.67,16.18c0-.95-.02-1.44-.16-2.11.6.05,1.18.13,1.55.24.16.04.23.11.23.22,0,.05-.02.12-.07.19-.13.25-.16.5-.16,1.07v1.24l3.13-.73c.53-.12.64-.18.85-.35.06-.05.12-.07.17-.07.06,0,.11.02.17.07.25.16.64.49.89.78.07.07.11.14.11.22,0,.08-.06.17-.16.24-.17.12-.26.3-.37.47-.61,1.03-1.21,1.91-1.91,2.59-.11.11-.2.18-.31.18-.07,0-.14-.02-.23-.08-.35-.2-.65-.36-1-.46.83-.72,1.42-1.52,1.96-2.4l-3.3.84v2.72c0,.64.22.84,1.51.84.97,0,2.09-.12,2.9-.26.17-.02.18.06.2.24.06.32.11.68.11,1.01,0,.12-.07.17-.25.18-.72.08-1.55.14-2.87.14-2.29,0-3-.49-3-2.11v-2.42l-.77.2c-.65.17-1.32.35-1.69.52-.06.02-.11.05-.14.05-.08,0-.13-.06-.19-.19-.17-.31-.35-.83-.48-1.22.76-.1,1.44-.22,2.25-.42l1.02-.25v-1.15ZM262.28,13.91c.06-.05.11-.04.18.02.37.29.8.77,1.14,1.28.05.07.05.13-.04.19l-.5.37c-.08.06-.14.05-.2-.04-.36-.55-.74-1.01-1.21-1.39l.64-.44ZM263.35,13.13c.07-.05.11-.04.18.02.44.34.88.82,1.14,1.24.05.07.06.14-.04.22l-.48.37c-.1.07-.16.04-.2-.04-.32-.52-.71-.97-1.2-1.38l.6-.43Z"/><path class="uuid-9e782a03-296a-4133-9f32-6da1875c8aa1" d="M267,17.08c.13-.06.22-.05.31.08.42.53.8,1.14,1.03,1.77.02.08.05.13.05.18,0,.07-.05.11-.14.17-.29.17-.49.26-.77.37-.17.06-.24,0-.3-.17-.28-.7-.65-1.36-1.13-1.93.41-.23.7-.36.95-.48ZM273.58,17.23c.1.07.16.13.16.2s-.04.13-.13.22c-.18.16-.26.4-.36.61-.52,1.22-1.14,2.31-1.81,3.19-.79,1.01-1.45,1.64-2.47,2.31-.1.07-.19.13-.29.13-.06,0-.13-.02-.19-.08-.3-.24-.58-.37-1.02-.5,1.44-.95,2.16-1.56,2.88-2.49.6-.78,1.27-1.96,1.62-2.89.16-.44.23-.71.28-1.27.5.16,1.04.37,1.34.58ZM269.42,16.5c.13-.06.22-.05.31.1.32.42.73,1.18.92,1.75.06.18.04.24-.12.32-.23.13-.49.25-.83.37-.13.05-.18-.01-.24-.18-.28-.71-.55-1.28-1.01-1.92.48-.23.76-.36.96-.44Z"/><path class="uuid-9e782a03-296a-4133-9f32-6da1875c8aa1" d="M279.3,17.04c1.46.46,2.63.92,3.81,1.63.13.07.19.16.13.31-.16.4-.35.77-.52,1.04-.05.08-.1.13-.16.13-.04,0-.08-.01-.13-.06-1.1-.71-2.18-1.24-3.15-1.54v2.65c0,.78.02,1.49.05,2.35.01.14-.05.18-.22.18-.35.02-.72.02-1.07,0-.17,0-.23-.04-.23-.18.04-.89.05-1.6.05-2.36v-5.9c0-.9-.04-1.29-.12-1.77.55.04,1.15.1,1.5.19.17.04.23.11.23.2,0,.07-.04.17-.1.28-.08.16-.08.46-.08,1.13v1.72Z"/><path class="uuid-9e782a03-296a-4133-9f32-6da1875c8aa1" d="M292.06,21.48c0,.13-.07.19-.23.22-.16.02-.52.06-.85.06-.11,0-.16-.07-.16-.19,0-.43,0-1.03.01-1.46-1.07.55-1.45,1.02-1.45,1.6,0,.5.41.83,1.67.83,1.1,0,2.06-.11,2.99-.24.11-.01.16.02.17.13.06.28.11.7.11.98.01.14-.04.23-.13.23-1.03.13-1.81.16-2.97.16-1.97,0-3.01-.59-3.01-1.98,0-1.15.72-1.99,2.53-2.93-.04-.61-.18-.85-.72-.83-.56.02-1.1.38-1.66.86-.52.5-.82.85-1.2,1.31-.06.07-.1.11-.14.11-.04,0-.08-.04-.13-.08-.17-.17-.53-.54-.68-.79-.04-.05-.05-.08-.05-.11,0-.05.02-.08.08-.13.92-.83,1.81-1.78,2.51-2.97-.56.02-1.21.04-1.92.04-.11,0-.14-.06-.17-.19-.04-.19-.08-.64-.12-1,.91.05,1.85.04,2.76-.01.13-.32.24-.61.36-1.03.05-.2.08-.41.08-.73.53.08,1.06.22,1.37.34.1.04.14.12.14.2,0,.06-.02.13-.08.18-.07.06-.14.17-.2.29-.07.17-.13.32-.28.65.73-.08,1.46-.2,2.18-.37.13-.02.17.01.19.12.06.24.11.52.12.86.01.12-.04.17-.2.19-.9.13-1.93.26-2.81.36-.28.44-.54.89-.9,1.33v.02c.4-.25.89-.37,1.21-.37.79,0,1.34.36,1.46,1.3.47-.22,1.15-.53,1.76-.84.23-.12.61-.34.91-.65.4.42.71.84.84,1.06.07.11.1.19.1.26,0,.1-.06.14-.18.17-.25.04-.49.1-.73.18-.78.28-1.56.54-2.58.96v1.93Z"/><path class="uuid-9e782a03-296a-4133-9f32-6da1875c8aa1" d="M299.29,19.66c-1.1,0-1.47.02-1.55.02-.13,0-.14-.01-.14-.14v-.88c0-.12.01-.13.14-.13.07,0,.44.02,1.55.02h6.9c1.09,0,1.47-.02,1.55-.02.12,0,.13.01.13.13v.88c0,.13-.01.14-.13.14-.07,0-.46-.02-1.55-.02h-1.71v2.41c0,.3.01.43.1.54.11.11.44.14,1.1.14.54,0,.85-.05,1.01-.18.2-.18.26-.5.29-1.33.22.14.52.26.83.35q.31.06.3.37c-.05.82-.2,1.26-.5,1.51-.41.36-.91.48-2.16.48s-1.69-.11-1.93-.35c-.2-.22-.29-.53-.29-1.16v-2.78h-1.38c-.05,1.21-.32,2.06-.77,2.65-.56.85-1.49,1.34-2.65,1.73-.13.05-.22.07-.28.07-.11,0-.16-.07-.26-.29-.14-.3-.32-.53-.59-.8,1.26-.29,2.1-.66,2.59-1.26.44-.55.65-1.16.68-2.1h-1.27ZM305.98,14.42c1.12,0,1.52-.02,1.6-.02.12,0,.13.01.13.13,0,.07-.02.29-.02.65v.53c0,1.09.02,1.28.02,1.35,0,.12-.01.13-.13.13h-1c-.12,0-.13-.01-.13-.13v-1.52h-7.46v1.52c0,.13-.01.14-.13.14h-1c-.12,0-.13-.01-.13-.14,0-.07.02-.25.02-1.35v-.43c0-.46-.02-.67-.02-.74,0-.12.01-.13.13-.13.07,0,.48.02,1.59.02h2.54v-.12c0-.52-.01-.84-.08-1.14.44.01.88.04,1.28.07.11.01.18.06.18.11,0,.08-.04.16-.07.24-.04.1-.05.25-.05.72v.12h2.72ZM301.41,17.61c-1.08,0-1.44.02-1.51.02-.12,0-.13-.01-.13-.13v-.9c0-.13.01-.14.13-.14.07,0,.43.02,1.51.02h2.63c1.07,0,1.44-.02,1.51-.02.12,0,.12.01.12.14v.9c0,.12,0,.13-.12.13-.07,0-.44-.02-1.51-.02h-2.63Z"/><path class="uuid-9e782a03-296a-4133-9f32-6da1875c8aa1" d="M310.63,19.67c0-.44,0-1.02.01-1.57-.19.26-.41.53-.62.79-.08.11-.16.17-.2.17-.06,0-.1-.07-.13-.22-.08-.38-.25-.78-.4-1.01.96-1.08,1.63-2.37,2.13-3.84.1-.28.17-.54.2-.84.38.1.73.2,1.08.34.13.05.2.08.2.18,0,.08-.04.13-.13.22-.08.07-.13.18-.24.49-.22.61-.44,1.2-.72,1.76v6.08c0,1.16.02,1.75.02,1.81,0,.12-.01.13-.13.13h-.97c-.12,0-.13-.01-.13-.13,0-.07.02-.65.02-1.81v-2.55ZM313.98,18.19c0,.84-.02,2.05-.23,3.18-.17.9-.46,1.69-.82,2.4-.07.13-.12.2-.18.2s-.12-.05-.2-.16c-.23-.3-.49-.54-.72-.71.42-.68.66-1.33.82-2.15.14-.74.18-1.7.18-2.79s-.02-1.66-.02-1.73c0-.13.01-.14.13-.14.07,0,.49.02,1.67.02h4.11c1.18,0,1.57-.02,1.64-.02.12,0,.13.01.13.14v.76c0,.13-.01.14-.13.14-.07,0-.47-.02-1.64-.02h-4.74v.88ZM314.63,14.26c0-.47-.01-.7-.07-1.03.52.01.84.04,1.16.07.11.01.16.05.16.11,0,.07-.02.11-.06.18-.04.07-.06.25-.06.66v.05h1.52v-.06c0-.46-.01-.67-.07-1.01.52.01.83.04,1.15.07.11.01.17.05.17.11,0,.07-.01.11-.06.18-.05.07-.06.25-.06.65v.06h.19c1.16,0,1.57-.02,1.64-.02.12,0,.13.01.13.13v.78c0,.12-.01.13-.13.13-.07,0-.48-.02-1.64-.02h-.19c0,.41.02.59.02.65,0,.12-.01.13-.14.13h-.9c-.12,0-.13-.01-.13-.13,0-.07.01-.24.02-.65h-1.52c0,.41.02.59.02.65,0,.12-.01.13-.13.13h-.91c-.12,0-.13-.01-.13-.13,0-.07.01-.24.02-.65h-.02c-1.15,0-1.55.02-1.62.02-.12,0-.13-.01-.13-.13v-.78c0-.12.01-.13.13-.13.08,0,.48.02,1.64.02v-.04ZM319.99,20.38c0,1.2.04,2.11.04,2.51,0,.43-.06.73-.31.95-.18.16-.52.25-1.14.25-.26,0-.29,0-.34-.28-.05-.31-.13-.53-.23-.73.2.01.37.02.64.02.2,0,.29-.07.29-.31v-.74h-1.28v.35c0,.86.02,1.28.02,1.35,0,.12-.01.13-.13.13h-.8c-.12,0-.13-.01-.13-.13,0-.08.02-.49.02-1.35v-.35h-1.22v.59c0,.89.02,1.3.02,1.37,0,.12-.01.13-.13.13h-.84c-.12,0-.13-.01-.13-.13,0-.07.02-.46.02-1.37v-3.2c0-.9-.02-1.32-.02-1.38,0-.13.01-.14.13-.14.08,0,.46.02,1.5.02h2.42c1.04,0,1.42-.02,1.5-.02.12,0,.13.01.13.14,0,.06-.02.44-.02,1.25v1.08ZM316.63,19.56v-.73h-1.22v.73h1.22ZM316.63,21.19v-.78h-1.22v.78h1.22ZM317.65,18.83v.73h1.28v-.73h-1.28ZM318.93,21.19v-.78h-1.28v.78h1.28Z"/><path class="uuid-9e782a03-296a-4133-9f32-6da1875c8aa1" d="M325.43,22.67c0,.96-.78,1.73-1.74,1.73s-1.74-.77-1.74-1.73.78-1.73,1.74-1.73,1.74.77,1.74,1.73ZM322.69,22.67c0,.56.43,1,1,1s1-.43,1-1-.43-1-1-1-1,.43-1,1Z"/><path class="uuid-9e782a03-296a-4133-9f32-6da1875c8aa1" d="M336.49,20.04c.14-.08.17-.06.24.05.82,1.01,1.49,2.03,2.1,3.23.05.12.04.14-.11.23l-.8.49c-.07.05-.11.06-.14.06s-.05-.02-.08-.1c-.17-.37-.34-.74-.53-1.1-2.76.41-4.98.66-7.32.84-.2.02-.35.05-.43.08-.07.04-.16.08-.23.08-.1,0-.16-.1-.19-.22-.08-.34-.16-.82-.24-1.25.48.01.85.01,1.32-.01l.71-.04c.56-.52,1.14-1.07,1.71-1.64-.89-1.01-1.74-1.81-2.73-2.57-.05-.04-.07-.07-.07-.1,0-.04.04-.08.1-.14l.64-.64c.11-.11.14-.12.25-.04l.67.56c.41-.47.74-.92,1.01-1.33.17-.25.28-.47.4-.73h-2.51c-1.07,0-1.44.02-1.51.02-.12,0-.13-.01-.13-.12v-.95c0-.13.01-.14.13-.14.07,0,.44.02,1.51.02h2.89v-.31c0-.5-.01-.82-.08-1.1.44,0,.9.02,1.32.06.12.01.18.06.18.12,0,.08-.05.14-.07.23-.04.11-.06.26-.06.7v.31h3.12c1.08,0,1.44-.02,1.51-.02.12,0,.13.01.13.14v.95c0,.11-.01.12-.13.12-.07,0-.43-.02-1.51-.02h-4.44c.3.14.64.32.85.46.13.07.17.13.17.22,0,.1-.11.17-.18.2-.13.07-.29.25-.37.37-.35.49-.79,1.06-1.31,1.63.41.37.8.76,1.16,1.14.62-.66,1.2-1.31,1.7-1.92.31-.41.56-.76.76-1.15.44.25.79.46,1.09.7.13.1.16.17.16.25,0,.07-.06.12-.18.18-.14.07-.28.22-.53.49-1.04,1.25-2.29,2.55-3.86,3.92,1.24-.11,2.55-.25,3.98-.46-.25-.4-.53-.77-.83-1.14-.07-.1-.05-.12.07-.2l.71-.42Z"/><path class="uuid-9e782a03-296a-4133-9f32-6da1875c8aa1" d="M344.24,13.52c.78,0,1.14-.02,1.21-.02.11,0,.12.01.12.13,0,.07-.02.41-.02,1.1v1.3c0,.71.02,1.02.02,1.09,0,.13-.01.14-.12.14-.07,0-.43-.02-1.21-.02h-1.98v4.19c0,1.68.02,2.49.02,2.58,0,.12-.01.13-.13.13h-1.01c-.12,0-.13-.01-.13-.13,0-.08.02-.9.02-2.58v-5.19c0-1.68-.02-2.52-.02-2.6,0-.12.01-.13.13-.13.08,0,.54.02,1.42.02h1.68ZM342.26,14.39v.59h2.11v-.59h-2.11ZM344.38,15.78h-2.11v.6h2.11v-.6ZM344.6,21.23c-1.1,0-1.49.02-1.55.02-.12,0-.13-.01-.13-.13v-.68c0-.12.01-.13.13-.13.06,0,.44.02,1.55.02h.77c.02-.2.05-.44.05-.71h-.6c-1.06,0-1.42.02-1.49.02-.13,0-.14-.01-.14-.13v-.68c0-.12.01-.13.14-.13.06,0,.36.02,1.13.02-.13-.28-.28-.53-.42-.73-.08-.11-.06-.16.08-.2l.66-.22c.14-.05.17-.05.24.06.19.29.41.67.6,1.09h.89c.12-.24.22-.47.32-.72.06-.16.13-.36.16-.5.37.07.7.14.98.23.11.04.19.08.19.17,0,.05-.04.1-.1.14-.1.07-.16.16-.2.24l-.23.44c.77,0,1.08-.02,1.14-.02.13,0,.14.01.14.13v.68c0,.12-.01.13-.14.13-.07,0-.43-.02-1.49-.02h-.76c-.01.25-.02.48-.06.71h1c1.09,0,1.48-.02,1.55-.02.12,0,.13.01.13.13v.68c0,.12-.01.13-.13.13-.07,0-.46-.02-1.55-.02h-.68c.53.55,1.2.86,2.18,1.15-.08.11-.18.24-.28.41.22.02.4.02.65.02.4,0,.5-.11.5-.47v-5.11h-2.01c-.95,0-1.26.02-1.33.02-.12,0-.13-.01-.13-.14,0-.07.02-.32.02-1v-1.48c0-.67-.02-.94-.02-1.02,0-.12.01-.13.13-.13.07,0,.38.02,1.33.02h1.79c.94,0,1.26-.02,1.34-.02.12,0,.13.01.13.13,0,.07-.02.58-.02,1.61v4.95c0,.84.04,1.8.04,2.39s-.08.85-.34,1.12c-.23.2-.55.32-1.44.32q-.46,0-.52-.37c-.05-.25-.11-.49-.2-.68l-.06.14c-.08.18-.12.25-.2.25-.06,0-.14-.02-.28-.08-.84-.35-1.51-.83-2.05-1.55-.44.82-1.17,1.42-2.31,1.85-.14.06-.23.08-.29.08-.08,0-.12-.06-.2-.22-.17-.31-.36-.52-.54-.68,1.34-.35,2.07-.84,2.42-1.52h-.49ZM347.57,14.39v.59h2.28v-.59h-2.28ZM349.84,16.38v-.6h-2.28v.6h2.28Z"/><path class="uuid-9e782a03-296a-4133-9f32-6da1875c8aa1" d="M125.08,36.99c.06-.36.12-.83.12-1.33.62.13.96.22,1.44.4.12.04.19.13.19.24,0,.06-.02.12-.08.18-.12.16-.18.29-.24.46-.16.49-.28.94-.43,1.44.32-.04.68-.05.96-.05,1.12,0,1.71.78,1.71,2.31,0,1.29-.24,2.89-.65,3.75-.35.77-.92,1.13-1.62,1.13-.58,0-.98-.06-1.25-.18-.14-.06-.22-.16-.22-.34-.04-.38-.06-.72-.23-1.12.54.25,1.01.31,1.38.31.4,0,.58-.14.77-.64.25-.67.47-1.81.47-2.99,0-.84-.16-1.1-.68-1.1-.29,0-.66.04-1.01.08-.79,2.3-1.48,3.96-2.41,5.64-.07.16-.17.18-.31.11-.22-.11-.68-.4-.83-.53-.06-.06-.1-.11-.1-.18,0-.04.01-.08.05-.13.96-1.67,1.58-2.94,2.2-4.7-.47.07-.85.14-1.18.2-.31.06-.5.13-.66.19-.17.06-.31.04-.38-.16-.11-.28-.24-.71-.37-1.24.53,0,1.06-.04,1.58-.08.5-.05.95-.11,1.42-.18.19-.68.28-1.1.36-1.51ZM129.83,37.79c.08-.05.14-.02.23.06.82.77,1.55,1.76,1.99,2.91.05.11.04.17-.05.24-.2.19-.66.48-.9.6-.12.06-.24.05-.28-.1-.48-1.26-1.1-2.29-1.97-3.11.3-.2.65-.44.97-.61ZM130.15,36.12c.06-.05.11-.04.18.02.37.29.8.77,1.14,1.28.05.07.05.13-.04.19l-.5.37c-.08.06-.14.05-.2-.04-.36-.55-.74-1.01-1.21-1.39l.64-.44ZM131.22,35.34c.07-.05.11-.04.18.02.44.34.88.82,1.14,1.24.05.07.06.14-.04.22l-.48.37c-.1.07-.16.04-.2-.04-.32-.52-.71-.97-1.2-1.38l.6-.43Z"/><path class="uuid-9e782a03-296a-4133-9f32-6da1875c8aa1" d="M135.52,39.26c0,1.42-.11,2.69-.34,3.85-.19,1.01-.48,1.81-.96,2.65-.08.16-.13.23-.19.23s-.12-.06-.24-.19c-.25-.28-.59-.54-.8-.67.5-.77.78-1.5.98-2.51.2-.96.28-2.22.28-3.59,0-1.5-.02-2.18-.02-2.25,0-.12.01-.13.13-.13.07,0,.49.02,1.63.02h2.39v-.52c0-.37-.01-.68-.07-.97.46.01.85.04,1.27.07.12.01.19.05.19.12,0,.08-.02.14-.07.23s-.08.25-.08.52v.55h2.43c1.14,0,1.54-.02,1.61-.02.11,0,.12.01.12.13v.91c0,.13-.01.14-.12.14-.07,0-.47-.02-1.61-.02h-6.52v1.45ZM141.09,41.2c.16-.07.18-.08.25.02.88,1.26,1.7,2.72,2.3,4.01.05.12.04.17-.11.24l-.89.47c-.14.07-.2.04-.25-.08-.16-.36-.31-.72-.48-1.08-1.55.28-3.62.59-5.59.8-.19.02-.35.07-.44.13-.07.05-.14.07-.19.07-.08,0-.13-.05-.18-.18-.1-.34-.19-.77-.29-1.25.43.01.83.01,1.37-.02.68-1.73,1.1-3.12,1.5-4.75.08-.34.13-.68.16-1.12.47.1.97.24,1.33.36.17.05.2.11.2.2,0,.08-.04.16-.11.24-.11.13-.2.3-.3.67-.41,1.48-.84,2.81-1.43,4.26,1.17-.13,2.37-.29,3.44-.48-.35-.66-.74-1.3-1.17-1.93-.06-.1-.05-.14.1-.22l.78-.37Z"/><path class="uuid-9e782a03-296a-4133-9f32-6da1875c8aa1" d="M150.77,36.38c.06.05.1.14.1.19,0,.11-.06.18-.17.23-.14.07-.32.18-.58.42-1.03.92-2.35,2.16-3.27,3.12-.11.13-.16.2-.16.26,0,.07.05.13.16.22,1.56,1.13,3.18,2.43,4.46,3.78.05.06.08.11.08.16s-.02.08-.08.14c-.28.3-.62.65-.83.83-.07.06-.12.1-.17.1s-.08-.04-.14-.11c-1.39-1.56-2.73-2.81-4.37-4.05-.46-.35-.64-.61-.64-1.01s.22-.66.59-1.06c1.02-1.1,2.01-2.1,3.05-3.23.32-.35.5-.6.65-.9.53.31.98.62,1.32.91Z"/><path class="uuid-9e782a03-296a-4133-9f32-6da1875c8aa1" d="M159.07,37.26c.11-.04.16-.04.18.1.06.3.1.66.11.97,0,.11-.05.13-.14.14-.65.13-1.24.22-1.98.32-.77,2.03-1.47,3.68-2.34,5.15-.05.08-.08.12-.13.12-.04,0-.08-.02-.14-.06-.28-.17-.62-.42-.83-.61-.06-.05-.08-.08-.08-.13,0-.04.01-.08.06-.14.9-1.49,1.54-2.75,2.08-4.19-.46.02-.83.02-1.2.02-.26,0-.36,0-.66-.01-.12,0-.14-.04-.17-.19-.06-.23-.1-.62-.12-1.02.49.04.77.05,1.12.05.47,0,.83-.01,1.38-.06.14-.5.23-.91.31-1.34.07-.42.07-.6.07-.97.52.07,1.03.14,1.4.25.12.02.19.1.19.18,0,.1-.04.16-.11.23-.07.1-.12.2-.19.44-.08.29-.18.66-.29,1.02.47-.05,1.02-.16,1.49-.26ZM159.41,40.47c-.01-.32-.02-.52-.1-.85.59.06.9.11,1.31.23.11.02.17.08.17.19,0,.02-.02.11-.07.25-.05.14-.06.29-.05.49,0,.71.04,1.22.13,2.04.86.35,1.45.61,2.16,1.12.12.08.13.13.07.25-.18.37-.35.67-.55.97-.04.06-.07.08-.11.08s-.07-.02-.12-.07c-.53-.46-.97-.72-1.46-1.01,0,1.2-.86,1.75-2.23,1.75s-2.21-.67-2.21-1.7.86-1.75,2.22-1.75c.23,0,.56.01.95.07-.07-.77-.1-1.5-.11-2.06ZM158.56,43.49c-.6,0-1.07.24-1.07.7,0,.38.34.58,1.02.58.65,0,1.04-.35,1.04-.85,0-.11,0-.17-.01-.24-.29-.1-.61-.18-.98-.18ZM160.79,37.72c.07-.12.13-.13.25-.08.71.19,1.65.67,2.35,1.13.07.05.11.08.11.13,0,.04-.01.08-.05.14-.12.26-.34.64-.5.89-.04.06-.07.08-.11.08s-.06-.01-.11-.05c-.71-.48-1.57-1.01-2.48-1.31.2-.36.38-.72.54-.94Z"/><path class="uuid-9e782a03-296a-4133-9f32-6da1875c8aa1" d="M167.8,35.98c.16.06.23.13.23.24,0,.07-.02.12-.08.19-.08.1-.14.26-.22.56-.17.82-.26,1.67-.34,2.29-.02.43-.06.89-.04,1.32.26-.47.52-.92.84-1.54.11.36.23.58.37.78.06.07.07.13.07.19,0,.1-.05.19-.12.3-.26.5-.54,1.01-.71,1.54-.04.11-.05.22-.06.36,0,.12-.05.17-.16.19-.14.04-.66.11-.96.14-.08.01-.14-.07-.17-.16-.19-.52-.36-1.44-.36-2.43,0-.8.13-1.79.29-2.99.05-.42.1-.83.1-1.37.54.11,1,.23,1.31.37ZM171.7,35.78c.24.06.26.12.24.32-.02.17-.02.38-.02.55.08,1.14.17,2.23.17,3.09,0,1.7-.28,3.18-.91,4.16-.47.74-1.22,1.45-1.98,1.93-.08.06-.17.08-.24.08-.08,0-.16-.04-.25-.13-.26-.23-.64-.44-1.02-.55.97-.54,1.56-.97,2.04-1.61.7-.95,1.01-1.93,1.01-3.83,0-.85-.06-2.1-.14-2.87-.06-.59-.12-.89-.25-1.31.53.02,1.02.05,1.37.14Z"/><path class="uuid-9e782a03-296a-4133-9f32-6da1875c8aa1" d="M176.46,43.12c.08-.08.14-.1.18-.1s.08.01.16.07c.89.55,1.68,1.27,2.39,2.19.07.1.08.13.08.18,0,.06-.02.11-.12.19l-.73.62c-.08.07-.13.11-.17.11-.06,0-.11-.02-.17-.12-.64-.92-1.45-1.74-2.27-2.29-.07-.05-.11-.08-.11-.12s.02-.07.08-.14l.67-.6Z"/><path class="uuid-9e782a03-296a-4133-9f32-6da1875c8aa1" d="M185.53,35.49c.79,0,1.14-.02,1.21-.02.11,0,.12.01.12.13,0,.08-.02.42-.02,1.15v1.42c0,.73.02,1.07.02,1.14,0,.12-.01.13-.12.13-.07,0-.42-.02-1.21-.02h-1.97v4.01c0,1.68.02,2.51.02,2.59,0,.12-.01.13-.13.13h-1.02c-.12,0-.13-.01-.13-.13,0-.08.02-.91.02-2.59v-5.21c0-1.68-.02-2.53-.02-2.61,0-.12.01-.13.13-.13.08,0,.54.02,1.43.02h1.67ZM183.56,36.38v.68h2.1v-.68h-2.1ZM185.66,37.87h-2.1v.7h2.1v-.7ZM186.65,43.22c-.02.19-.05.36-.08.52-.17.78-.56,1.46-1.14,2.01-.12.11-.18.17-.23.17-.07,0-.13-.07-.28-.22-.19-.19-.48-.38-.71-.5.66-.42,1.09-.98,1.28-1.76l.02-.22c-.91.01-1.25.02-1.31.02-.12,0-.13-.01-.13-.14v-.72c0-.12.01-.13.13-.13.06,0,.41.02,1.37.02.01-.3.02-.67.02-1.09-.72.01-1,.02-1.05.02-.13,0-.14-.01-.14-.13v-.73c0-.12.01-.13.14-.13.07,0,.43.02,1.5.02h2.57c1.07,0,1.43-.02,1.5-.02.12,0,.13.01.13.13v.73c0,.12-.01.13-.13.13-.06,0-.36-.01-1.1-.02v1.09c.95,0,1.31-.02,1.37-.02.12,0,.13.01.13.13v.72c0,.13-.01.14-.13.14-.06,0-.42-.02-1.37-.02v1.12c0,.83.02,1.22.02,1.3,0,.13-.01.14-.13.14h-.89c-.12,0-.13-.01-.13-.14,0-.07.02-.47.02-1.3v-1.12h-1.26ZM187.91,42.27v-1.09h-1.16c0,.41-.01.78-.02,1.09h1.19ZM192.35,42.39c0,.84.05,1.61.05,2.19s-.07.86-.35,1.1c-.28.24-.62.32-1.58.32-.37,0-.38,0-.44-.37-.06-.36-.16-.64-.28-.88.34.05.61.06.88.06.4,0,.49-.11.49-.47v-4.94h-1.97c-.94,0-1.25.02-1.32.02-.13,0-.14-.01-.14-.13,0-.07.02-.34.02-1.04v-1.61c0-.7-.02-.97-.02-1.06,0-.12.01-.13.14-.13.07,0,.38.02,1.32.02h1.76c.94,0,1.26-.02,1.33-.02.12,0,.13.01.13.13,0,.08-.02.59-.02,1.64v5.15ZM188.88,36.38v.68h2.23v-.68h-2.23ZM191.12,37.87h-2.23v.7h2.23v-.7Z"/><path class="uuid-9e782a03-296a-4133-9f32-6da1875c8aa1" d="M205.46,38.36c0,.12-.01.13-.12.13-.06,0-.29-.01-.84-.02-.13,1.83-.58,3.39-1.27,4.51.58.65,1.38,1.27,2.48,1.88-.23.23-.44.64-.56.92-.08.19-.13.28-.22.28-.07,0-.16-.05-.29-.13-.88-.6-1.58-1.26-2.16-1.94-.73.84-1.65,1.56-2.65,2.05-.14.07-.22.11-.28.11-.1,0-.13-.08-.24-.28-.17-.3-.34-.53-.56-.7-.24.46-.6.7-1.1.7-.18,0-.35,0-.53-.01-.26-.01-.28-.04-.32-.35-.05-.38-.14-.72-.28-.95.31.06.55.08.83.08.36,0,.49-.16.58-.65.14-.8.24-1.88.25-3.56h-1.2c-.14,2.25-.49,3.87-1.46,5.29-.08.13-.14.2-.2.2s-.12-.07-.23-.2c-.22-.34-.42-.56-.67-.73,1.3-1.63,1.44-3.69,1.49-6.86-.82.01-1.12.02-1.18.02-.12,0-.13-.01-.13-.14v-.89c0-.12.01-.13.13-.13.07,0,.41.02,1.42.02h.52v-.66c0-.52-.02-.83-.1-1.16.46.01.83.02,1.27.07.12.01.19.07.19.12,0,.08-.04.16-.07.24-.04.11-.07.24-.07.73v.66h.38c1.01,0,1.33-.02,1.4-.02.12,0,.13.01.13.13v.89c0,.13-.01.14-.13.14-.07,0-.4-.02-1.4-.02h-1.2c-.01.42-.01.83-.04,1.21h1.38c.58,0,.74-.02.82-.02.12,0,.14.02.14.14-.01.12-.02.25-.02.38.79-1.06,1.29-2.35,1.54-3.42.13-.6.19-.95.2-1.27.4.07.77.16,1.12.24.16.05.23.1.23.17s-.02.11-.08.18c-.11.14-.18.37-.24.6-.08.35-.18.7-.3,1.04h1.97c1.12,0,1.5-.02,1.57-.02.11,0,.12.01.12.13v.86ZM199.33,40.76c-.01,1.55-.16,3.39-.43,4.1-.04.1-.07.19-.12.28,1.29-.56,2.25-1.28,2.97-2.17-.49-.84-.9-1.88-1.14-2.94-.14.24-.3.48-.47.71-.11.16-.18.23-.24.23-.05,0-.1-.06-.18-.18-.14-.2-.28-.37-.4-.5v.48ZM201.39,38.5c.2,1.38.56,2.51,1.07,3.39.43-.86.7-1.94.8-3.43h-1.86v.04Z"/><path class="uuid-9e782a03-296a-4133-9f32-6da1875c8aa1" d="M216.14,35.17c.12-.07.17-.06.25.01.19.16.53.49.74.78.08.11.05.14-.06.23l-.28.18c.7,0,.96-.02,1.02-.02.12,0,.13.01.13.12v.8c0,.12-.01.13-.13.13-.07,0-.47-.02-1.61-.02h-1.18c.1.82.25,1.58.5,2.27.24-.36.42-.72.58-1.06.07-.19.17-.47.23-.74.36.11.7.24.97.37.1.05.14.12.14.17,0,.07-.05.12-.11.18-.07.07-.12.14-.24.36-.29.6-.62,1.21-1.06,1.79.32.49.67.76.89.76.3,0,.42-.34.56-1.15.18.17.42.31.6.4.23.11.31.16.31.28,0,.06-.02.14-.06.26-.3,1.01-.7,1.45-1.38,1.45-.58,0-1.18-.41-1.69-1.1-.28.28-.58.55-.91.79-.14.1-.23.16-.29.16-.07,0-.13-.07-.26-.23-.14-.16-.25-.26-.4-.38-.01.06-.05.06-.13.06s-.31-.02-1.02-.02h-1.13c-.71,0-.94.02-1.02.02-.12,0-.13-.01-.13-.13,0-.08.02-.26.02-.77v-.79c0-.5-.02-.68-.02-.77,0-.12.01-.13.13-.13.08,0,.31.02,1.02.02h1.13c.71,0,.94-.02,1.02-.02.12,0,.13.01.13.13,0,.07-.02.26-.02.77v.79c0,.36.01.55.01.66.52-.31.95-.67,1.32-1.07-.44-.92-.7-2.13-.85-3.31h-4.27v.8c0,.66-.08,1.8-.22,2.41-.17.76-.38,1.4-.8,2.1-.1.17-.14.24-.22.24-.05,0-.12-.06-.25-.18-.26-.24-.53-.41-.77-.52.48-.66.71-1.19.86-1.91.16-.66.23-1.44.23-2.55,0-.84-.02-1.24-.02-1.31,0-.11.01-.12.14-.12.07,0,.47.02,1.62.02h3.59c-.05-.43-.07-.88-.14-1.22.42.01.86.05,1.21.08.12.01.18.06.18.13,0,.08-.04.16-.06.22-.04.13-.02.37-.01.79h1.15c-.18-.23-.42-.49-.55-.62-.05-.04-.06-.07-.06-.11s.02-.08.1-.12l.55-.35ZM207.64,45.25c-.14-.08-.14-.13-.07-.23.49-.55.94-1.3,1.21-2,.05-.13.07-.13.24-.06l.71.31c.16.07.17.1.13.22-.31.79-.72,1.5-1.22,2.16-.07.1-.11.1-.24.02l-.76-.42ZM212.39,37.94c.72,0,1.01-.02,1.08-.02.11,0,.12.01.12.14v.7c0,.12-.01.13-.12.13-.07,0-.36-.02-1.08-.02h-1.22c-.71,0-1,.02-1.07.02-.12,0-.13-.01-.13-.13v-.7c0-.13.01-.14.13-.14.07,0,.36.02,1.07.02h1.22ZM211.54,44.32c0,.24.05.4.19.48.19.1.71.11,1.21.11.88,0,1.21.01,1.46-.13.2-.11.3-.46.31-1.03.24.16.52.26.86.36q.31.1.28.42c-.1.66-.32.98-.66,1.18-.44.24-1.1.29-2.35.29-1.06,0-1.73-.06-2.08-.24-.28-.16-.44-.41-.44-1.04v-1.06c0-.34,0-.56-.06-.91.4,0,.84.02,1.19.07.14.02.22.06.22.11,0,.07-.01.11-.06.2-.05.11-.07.23-.07.43v.77ZM212.43,40.25h-1.43v.88h1.43v-.88ZM212.8,42.3c.12-.08.16-.08.25-.01.46.37.77.72,1.13,1.19.07.08.08.11-.04.19l-.62.48c-.07.06-.12.08-.16.08s-.06-.02-.1-.08c-.31-.47-.66-.86-1.04-1.25-.1-.1-.1-.11.05-.22l.53-.38ZM216.51,42.78c.07-.04.11-.06.14-.06s.06.02.11.07c.56.61,1.02,1.26,1.42,2,.06.12.06.14-.1.24l-.74.46c-.16.1-.19.11-.24-.01-.33-.79-.73-1.45-1.28-2.07-.1-.1-.08-.13.06-.22l.64-.41Z"/><path class="uuid-9e782a03-296a-4133-9f32-6da1875c8aa1" d="M226.56,43.48c0,.13-.07.19-.23.22-.16.02-.52.06-.85.06-.11,0-.16-.07-.16-.19,0-.43,0-1.03.01-1.46-1.07.55-1.45,1.02-1.45,1.6,0,.5.41.83,1.67.83,1.1,0,2.06-.11,2.99-.24.11-.01.16.02.17.13.06.28.11.7.11.98.01.14-.04.23-.13.23-1.03.13-1.81.16-2.97.16-1.97,0-3.01-.59-3.01-1.98,0-1.15.72-1.99,2.53-2.93-.04-.61-.18-.85-.72-.83-.56.02-1.1.38-1.66.86-.52.5-.82.85-1.2,1.31-.06.07-.1.11-.14.11-.04,0-.08-.04-.13-.08-.17-.17-.53-.54-.68-.79-.04-.05-.05-.08-.05-.11,0-.05.02-.08.08-.13.92-.83,1.81-1.78,2.51-2.97-.56.02-1.21.04-1.92.04-.11,0-.14-.06-.17-.19-.04-.19-.08-.64-.12-1,.91.05,1.85.04,2.76-.01.13-.32.24-.61.36-1.03.05-.2.08-.41.08-.73.53.08,1.06.22,1.37.34.1.04.14.12.14.2,0,.06-.02.13-.08.18-.07.06-.14.17-.2.29-.07.17-.13.32-.28.65.73-.08,1.46-.2,2.18-.37.13-.02.17.01.19.12.06.24.11.52.12.86.01.12-.04.17-.2.19-.9.13-1.93.26-2.81.36-.28.44-.54.89-.9,1.33v.02c.4-.25.89-.37,1.21-.37.79,0,1.34.36,1.46,1.3.47-.22,1.15-.53,1.76-.84.23-.12.61-.34.91-.65.4.42.71.84.84,1.06.07.11.1.19.1.26,0,.1-.06.14-.18.17-.25.04-.49.1-.73.18-.78.28-1.56.54-2.58.96v1.93Z"/><path class="uuid-9e782a03-296a-4133-9f32-6da1875c8aa1" d="M240.62,35.17c.12-.07.17-.06.25.01.19.16.53.49.74.78.08.11.05.14-.06.23l-.28.18c.7,0,.96-.02,1.02-.02.12,0,.13.01.13.12v.8c0,.12-.01.13-.13.13-.07,0-.47-.02-1.61-.02h-1.18c.1.82.25,1.58.5,2.27.24-.36.42-.72.58-1.06.07-.19.17-.47.23-.74.36.11.7.24.97.37.1.05.14.12.14.17,0,.07-.05.12-.11.18-.07.07-.12.14-.24.36-.29.6-.62,1.21-1.06,1.79.32.49.67.76.89.76.3,0,.42-.34.56-1.15.18.17.42.31.6.4.23.11.31.16.31.28,0,.06-.02.14-.06.26-.3,1.01-.7,1.45-1.38,1.45-.58,0-1.18-.41-1.69-1.1-.28.28-.58.55-.91.79-.14.1-.23.16-.29.16-.07,0-.13-.07-.26-.23-.14-.16-.25-.26-.4-.38-.01.06-.05.06-.13.06s-.31-.02-1.02-.02h-1.13c-.71,0-.94.02-1.02.02-.12,0-.13-.01-.13-.13,0-.08.02-.26.02-.77v-.79c0-.5-.02-.68-.02-.77,0-.12.01-.13.13-.13.08,0,.31.02,1.02.02h1.13c.71,0,.94-.02,1.02-.02.12,0,.13.01.13.13,0,.07-.02.26-.02.77v.79c0,.36.01.55.01.66.52-.31.95-.67,1.32-1.07-.44-.92-.7-2.13-.85-3.31h-4.27v.8c0,.66-.08,1.8-.22,2.41-.17.76-.38,1.4-.8,2.1-.1.17-.14.24-.22.24-.05,0-.12-.06-.25-.18-.26-.24-.53-.41-.77-.52.48-.66.71-1.19.86-1.91.16-.66.23-1.44.23-2.55,0-.84-.02-1.24-.02-1.31,0-.11.01-.12.14-.12.07,0,.47.02,1.62.02h3.59c-.05-.43-.07-.88-.14-1.22.42.01.86.05,1.21.08.12.01.18.06.18.13,0,.08-.04.16-.06.22-.04.13-.02.37-.01.79h1.15c-.18-.23-.42-.49-.55-.62-.05-.04-.06-.07-.06-.11s.02-.08.1-.12l.55-.35ZM232.12,45.25c-.14-.08-.14-.13-.07-.23.49-.55.94-1.3,1.21-2,.05-.13.07-.13.24-.06l.71.31c.16.07.17.1.13.22-.31.79-.72,1.5-1.22,2.16-.07.1-.11.1-.24.02l-.76-.42ZM236.87,37.94c.72,0,1.01-.02,1.08-.02.11,0,.12.01.12.14v.7c0,.12-.01.13-.12.13-.07,0-.36-.02-1.08-.02h-1.22c-.71,0-1,.02-1.07.02-.12,0-.13-.01-.13-.13v-.7c0-.13.01-.14.13-.14.07,0,.36.02,1.07.02h1.22ZM236.02,44.32c0,.24.05.4.19.48.19.1.71.11,1.21.11.88,0,1.21.01,1.46-.13.2-.11.3-.46.31-1.03.24.16.52.26.86.36q.31.1.28.42c-.1.66-.32.98-.66,1.18-.44.24-1.1.29-2.35.29-1.06,0-1.73-.06-2.08-.24-.28-.16-.44-.41-.44-1.04v-1.06c0-.34,0-.56-.06-.91.4,0,.84.02,1.19.07.14.02.22.06.22.11,0,.07-.01.11-.06.2-.05.11-.07.23-.07.43v.77ZM236.9,40.25h-1.43v.88h1.43v-.88ZM237.28,42.3c.12-.08.16-.08.25-.01.46.37.77.72,1.13,1.19.07.08.08.11-.04.19l-.62.48c-.07.06-.12.08-.16.08s-.06-.02-.1-.08c-.31-.47-.66-.86-1.04-1.25-.1-.1-.1-.11.05-.22l.53-.38ZM240.98,42.78c.07-.04.11-.06.14-.06s.06.02.11.07c.56.61,1.02,1.26,1.42,2,.06.12.06.14-.1.24l-.74.46c-.16.1-.19.11-.24-.01-.33-.79-.73-1.45-1.28-2.07-.1-.1-.08-.13.06-.22l.64-.41Z"/><path class="uuid-9e782a03-296a-4133-9f32-6da1875c8aa1" d="M247.52,35.96c.2.05.29.11.29.23,0,.13-.07.28-.12.4-.06.17-.11.54-.17,1.46-.13,2.09-.18,3.19-.18,4.61,0,1.3.14,1.52,1.1,1.52,1.07,0,2.73-.65,4.2-2.21.05.46.16.85.28,1.14.06.13.1.22.1.29,0,.11-.05.2-.24.37-1.29,1.19-2.99,1.8-4.54,1.8s-2.25-.61-2.25-2.45c0-2.01.11-3.74.17-5.18.02-.71.06-1.48-.12-2.19.55.06,1.13.12,1.5.22ZM251.16,36.75c.06-.05.11-.04.18.02.37.29.8.77,1.14,1.28.05.07.05.13-.04.19l-.5.37c-.08.06-.14.05-.2-.04-.36-.55-.74-1.01-1.21-1.39l.64-.44ZM252.22,35.97c.07-.05.11-.04.18.02.44.34.88.82,1.14,1.24.05.07.06.14-.04.22l-.48.37c-.1.07-.16.04-.2-.04-.32-.52-.71-.97-1.2-1.38l.6-.43Z"/><path class="uuid-9e782a03-296a-4133-9f32-6da1875c8aa1" d="M258.11,38.48c.13.06.19.13.19.23,0,.06-.02.12-.06.18-.11.19-.19.41-.24.64-.12.61-.24,1.5-.29,2.18,1.1-1.12,2.54-1.9,4-1.9,1.75,0,2.79,1.02,2.79,2.57,0,1.31-.78,2.17-1.81,2.69-.8.41-2.04.7-3.07.83-.26.04-.37.02-.48-.16-.23-.41-.44-.73-.82-1.02,1.34-.08,2.5-.31,3.3-.67.97-.42,1.42-1.04,1.42-1.81,0-.65-.41-1.24-1.44-1.24s-2.33.68-3.45,1.82c-.22.22-.37.42-.52.66-.07.12-.12.12-.28.08-.28-.1-.56-.2-.82-.32-.12-.05-.17-.07-.17-.24.07-1.39.23-2.81.37-3.87.05-.36.11-.67.11-1.08.47.13.97.28,1.25.43ZM258.41,35.44c.06-.06.13-.1.23-.06.89.35,1.63.8,2.35,1.43.06.05.08.08.08.13,0,.04-.02.08-.06.14-.16.25-.41.6-.61.84-.05.06-.1.1-.13.1-.05,0-.08-.02-.14-.08-.67-.59-1.48-1.14-2.42-1.56.29-.43.52-.74.71-.94Z"/><path class="uuid-9e782a03-296a-4133-9f32-6da1875c8aa1" d="M269.5,36.68c0-.44-.02-.8-.12-1.16.5.05,1.01.11,1.37.23.19.05.25.12.25.24,0,.07-.04.14-.08.23-.06.11-.08.25-.11.59-.02.4-.04.65-.06,1.2.17.08.34.18.46.26.07.05.11.11.11.17,0,.04-.02.08-.06.13-.23.37-.43.74-.62,1.14v.06c.38-.43.65-.71,1.12-1.16.95-.9,1.61-1.18,2.17-1.18.9,0,1.44.6,1.44,1.6,0,.35-.01,1.08-.1,2.18-.06,1.1-.12,1.64-.12,2.02,0,.6.14.68.44.68.26,0,.59-.18.89-.43.18-.16.42-.42.72-1.01.16.43.25.65.44.9.08.11.13.18.13.28,0,.06-.02.12-.08.2-.5.71-1.27,1.38-2.3,1.38s-1.54-.59-1.54-1.83c0-.32.04-1,.1-2.02.06-1.06.08-1.45.08-1.97s-.13-.79-.37-.79c-.35,0-.76.25-1.34.78-.49.48-1.05,1.04-1.68,1.76.01,1.51.05,3.24.05,4.55,0,.11-.05.17-.17.17-.16.02-.62.05-.94.05-.12,0-.17-.06-.17-.2,0-1.09,0-2.35.04-3.43-.47.73-.95,1.48-1.39,2.16-.05.08-.08.12-.13.12-.04,0-.08-.02-.14-.06-.19-.12-.58-.46-.74-.67-.05-.05-.07-.08-.07-.13,0-.07.05-.14.11-.2,1-1.27,1.62-2.12,2.35-3.15,0-.3,0-.53.01-.82-.41.11-1,.29-1.44.48-.11.05-.23.17-.35.17-.1,0-.18-.07-.24-.19-.17-.28-.3-.64-.47-1.1.34-.01.54-.05.88-.11.41-.1,1.08-.26,1.69-.46v-1.63Z"/><path class="uuid-9e782a03-296a-4133-9f32-6da1875c8aa1" d="M283.76,41.14c-.83.02-1.64.02-2.47-.05-.13,0-.18-.05-.19-.2-.05-.26-.07-.74-.07-1.02.89.11,1.8.13,2.7.1-.01-.46-.01-.92-.02-1.38-1.15.04-2.01.04-2.87-.06-.13,0-.19-.05-.2-.17-.04-.3-.06-.59-.08-1.08,1.04.12,2.09.12,3.14.12,0-.44-.01-.76-.02-1.16-.02-.28-.05-.49-.14-.8.64.04,1.15.11,1.51.22.14.05.22.22.13.36-.08.17-.17.37-.18.58-.01.24-.01.41-.02.77,1.12-.08,1.92-.22,2.63-.36.14-.04.19,0,.2.14.05.34.06.66.06.88,0,.16-.04.18-.13.19-.85.14-1.62.24-2.77.31,0,.48.01.92.01,1.36.91-.06,1.49-.18,2.35-.31.14-.04.18-.01.19.1.01.23.04.62.04.98,0,.12-.05.16-.18.17-.79.13-1.34.22-2.35.29.02.55.05,1.14.08,1.69,1.15.32,2.13.76,3.18,1.45.12.11.12.14.08.29-.08.23-.33.67-.53.89-.05.07-.1.1-.16.1-.04,0-.08-.01-.13-.06-.73-.58-1.47-1-2.39-1.37-.01,1.3-.79,1.82-2.43,1.82-1.56,0-2.45-.68-2.45-1.68s.95-1.7,2.4-1.7c.3,0,.59,0,1.15.05-.02-.53-.05-1.02-.06-1.43ZM282.73,43.56c-.88,0-1.3.25-1.3.64,0,.31.36.54,1.19.54.48,0,.92-.14,1.09-.36.1-.13.13-.34.13-.67-.35-.08-.78-.14-1.12-.14Z"/><path class="uuid-9e782a03-296a-4133-9f32-6da1875c8aa1" d="M295.96,36.36c-.02-.35-.05-.52-.14-.88.54.04,1.12.11,1.4.17.2.04.34.12.34.23,0,.1-.04.16-.11.28-.04.07-.07.19-.1.35-.01.16-.01.31-.02.77,1.3-.05,2.53-.06,3.68-.06.14,0,.17.02.18.18.01.3.01.61,0,.91,0,.13-.06.17-.2.16-1.25-.04-2.41-.04-3.66-.02,0,.73,0,1.5.01,2.23.12.32.18.79.18,1.19,0,1.39-.56,2.84-2.13,3.87-.2.13-.36.23-.47.23s-.24-.08-.36-.18c-.28-.23-.6-.38-.91-.48,1.4-.62,2.24-1.63,2.46-2.64-.24.35-.73.48-1.13.48-.95,0-1.67-.68-1.67-1.83s.84-1.8,1.81-1.8c.36,0,.72.07.91.24,0-.42-.01-.83-.01-1.22-1.51.08-3.2.23-4.15.36-.26.04-.46.14-.56.14-.12,0-.17-.05-.2-.17-.1-.24-.2-.72-.3-1.21.44.05.83,0,1.46-.05.73-.06,2.28-.16,3.72-.24-.01-.37-.01-.67-.02-1ZM294.43,41.21c0,.53.34.82.77.82s.82-.28.82-.83c0-.49-.31-.77-.79-.77-.37,0-.79.25-.79.78Z"/><path class="uuid-9e782a03-296a-4133-9f32-6da1875c8aa1" d="M306.72,44.67c0,.96-.78,1.73-1.74,1.73s-1.74-.77-1.74-1.73.78-1.73,1.74-1.73,1.74.77,1.74,1.73ZM303.98,44.67c0,.56.43,1,1,1s1-.43,1-1-.43-1-1-1-1,.43-1,1Z"/><circle class="uuid-089cd26c-c25c-485a-bea0-a5a66cbc1097" cx="80.38" cy="36.13" r="24.61"/><path class="uuid-da54f39c-3102-43ca-a5d2-1c1aeda5fbd6" d="M68.06,26.62h2.35c.41,0,.79.04,1.12.11.33.07.62.2.85.37.24.17.42.39.55.65.13.26.19.58.19.96,0,.4-.07.74-.22,1.01s-.35.49-.6.66-.55.29-.89.36c-.34.07-.7.11-1.08.11h-.99v2.98h-1.28v-7.2ZM70.23,29.76c.21,0,.41-.02.6-.05.19-.03.36-.08.51-.16.15-.08.27-.18.36-.32s.13-.31.13-.53-.04-.38-.13-.51-.2-.24-.35-.31c-.15-.07-.31-.12-.5-.15-.19-.02-.38-.04-.57-.04h-.94v2.06h.89Z"/><path class="uuid-da54f39c-3102-43ca-a5d2-1c1aeda5fbd6" d="M73.42,31.36c0-.39.07-.74.21-1.05.14-.32.33-.59.56-.81.24-.22.52-.4.84-.52.33-.12.67-.18,1.04-.18s.71.06,1.04.18c.33.12.61.29.84.52s.43.49.56.81c.14.31.21.67.21,1.05s-.07.74-.21,1.06-.33.59-.56.82-.52.41-.84.53c-.33.13-.67.19-1.04.19s-.71-.06-1.04-.19-.61-.31-.84-.53c-.24-.23-.43-.5-.56-.82s-.21-.67-.21-1.06ZM74.66,31.36c0,.19.03.38.09.57.06.19.14.36.26.51.12.15.26.27.44.37.18.1.39.14.63.14s.45-.05.63-.14c.18-.09.32-.22.44-.37.12-.15.2-.32.26-.51.06-.19.09-.38.09-.57s-.03-.38-.09-.56-.14-.35-.26-.5c-.12-.15-.26-.27-.44-.36-.18-.09-.39-.14-.63-.14s-.45.05-.63.14c-.18.09-.32.21-.44.36-.12.15-.2.32-.26.5-.06.19-.09.37-.09.56Z"/><path class="uuid-da54f39c-3102-43ca-a5d2-1c1aeda5fbd6" d="M80.14,27.28c0-.2.07-.37.22-.51s.33-.22.55-.22.41.07.56.21.23.31.23.52-.08.38-.23.52c-.15.14-.34.21-.56.21s-.41-.07-.55-.22c-.15-.15-.22-.32-.22-.51ZM80.31,28.94h1.22v4.88h-1.22v-4.88Z"/><path class="uuid-da54f39c-3102-43ca-a5d2-1c1aeda5fbd6" d="M83.59,28.94h1.16v.78h.02c.11-.24.3-.46.56-.65.27-.19.58-.28.95-.28.32,0,.59.06.82.17.23.11.41.26.56.44.15.18.25.39.32.63s.1.48.1.73v3.05h-1.22v-2.7c0-.14,0-.29-.03-.45s-.06-.3-.13-.42-.16-.23-.28-.31c-.12-.08-.28-.12-.47-.12s-.37.04-.51.12c-.14.08-.26.18-.35.3-.09.12-.16.26-.21.42-.05.16-.07.32-.07.48v2.68h-1.22v-4.88Z"/><path class="uuid-da54f39c-3102-43ca-a5d2-1c1aeda5fbd6" d="M89.42,29.92v-.98h.85v-1.41h1.2v1.41h1.22v.98h-1.22v2.27c0,.22.04.4.12.54s.25.21.52.21c.08,0,.17,0,.26-.03.09-.02.18-.04.25-.08l.04.96c-.11.04-.24.07-.39.1-.15.02-.29.04-.43.04-.33,0-.59-.05-.79-.14-.2-.09-.36-.22-.48-.38-.12-.16-.2-.34-.24-.55-.04-.21-.07-.43-.07-.67v-2.28h-.85Z"/><path class="uuid-da54f39c-3102-43ca-a5d2-1c1aeda5fbd6" d="M82.14,45.29h1.38v1.13h-1.38v2.16h-1.27v-2.16h-4.42v-1.19l4.08-6.25h1.61v6.32ZM80.86,40.48h-.03l-3.04,4.81h3.06v-4.81Z"/><rect class="uuid-fd0ed802-58d1-4b79-8be1-7c2899b36a5b" width="375" height="66.32"/></g></svg>