<?xml version="1.0" encoding="UTF-8"?><svg id="uuid-2467dec8-b091-4468-8324-9425a7be18ef" xmlns="http://www.w3.org/2000/svg" width="375" height="58.37" viewBox="0 0 375 58.37"><defs><style>.uuid-c5b07f8c-81e2-4bac-acc9-4e615526b2b4{fill:#231815;}.uuid-6b424936-7507-4ca5-9587-e25d528f781d{fill:none;}.uuid-abe85fb1-8b33-40c2-a24c-d69ff2698320{fill:#fff;stroke:#b11f3a;stroke-miterlimit:10;}</style></defs><g id="uuid-6582b89d-77cc-4df2-8912-036077084044"><polyline class="uuid-abe85fb1-8b33-40c2-a24c-d69ff2698320" points="108.71 38.25 225.57 38.25 225.57 2.32 23.82 2.32 23.82 38.25 83.15 38.25 101.72 56.82"/><path class="uuid-c5b07f8c-81e2-4bac-acc9-4e615526b2b4" d="M44.21,19.45c-.6.05-1.21.1-2.02.1-.2,0-.26-.07-.29-.25-.04-.23-.08-.62-.13-1.04.31.05.62.06.94.06.5,0,1.02-.05,1.52-.1,0-.4.01-.85.01-1.37,0-.31-.01-.66-.08-.97.6.04,1.1.12,1.43.22.14.04.24.12.24.23,0,.05-.02.11-.07.19-.08.16-.14.31-.17.47-.04.31-.05.61-.06,1,.53-.11,1.02-.26,1.54-.44.11-.04.19-.01.2.11.05.3.07.62.07.94,0,.12-.04.16-.16.19-.79.25-1,.31-1.71.46-.01.58-.01,1.16-.02,1.74,1.13-.48,2.18-.67,2.95-.66,1.49.01,2.55.96,2.55,2.4,0,1.54-.98,2.43-2.6,2.43-.35,0-.73-.05-.98-.11-.19-.05-.26-.17-.26-.36-.02-.26-.11-.67-.36-1.02.58.19,1.06.22,1.5.22.67,0,1.29-.38,1.29-1.24,0-.78-.48-1.21-1.32-1.21-.68,0-1.51.18-2.75.82.01.5.02.91.05,1.44.04.53.1,1.28.1,1.56,0,.17.02.35-.18.4-.26.07-.65.13-.89.14-.13.01-.18-.08-.29-.24-.32-.44-.95-1.02-1.7-1.54-.13.07-.28.17-.38.26-.06.06-.14.08-.2.08-.1,0-.19-.07-.26-.19-.13-.22-.37-.72-.55-1.12.31-.07.71-.2,1.1-.42.52-.29,1.08-.61,1.96-1.12v-2.05ZM43.09,23.57c.34.18.74.38,1.13.54.1.02.13.01.12-.1-.02-.31-.05-.86-.07-1.26-.34.23-.74.5-1.18.82ZM48.83,17.28c.08-.13.12-.17.2-.14,1.1.32,1.92.83,2.54,1.46.05.05.07.08.07.12s-.02.07-.05.12c-.16.24-.47.61-.65.85-.04.05-.2.06-.24,0-.64-.71-1.48-1.15-2.43-1.47.16-.32.35-.64.55-.94Z"/><path class="uuid-c5b07f8c-81e2-4bac-acc9-4e615526b2b4" d="M56.26,17.41c-.37.55-.79,1.06-1.31,1.55-.13.13-.22.2-.28.2-.07,0-.14-.07-.26-.24-.18-.24-.4-.42-.61-.55.97-.77,1.56-1.56,2.09-2.64.08-.17.16-.36.22-.63.37.06.79.17,1.09.26.11.04.17.1.17.17,0,.08-.04.11-.08.16-.07.07-.16.13-.2.26l-.18.37h5.36c1.18,0,1.57-.02,1.64-.02.13,0,.14.01.14.13v.88c0,.12-.01.13-.14.13-.07,0-.47-.02-1.64-.02h-6ZM56.09,21.49c.12-.11.14-.12.24-.05.52.35,1.06.72,1.61,1.14.24-.28.47-.56.7-.88.12-.18.26-.43.36-.67.36.12.79.32,1.03.49.11.08.16.16.16.22,0,.07-.06.13-.16.19-.11.06-.18.16-.32.35-.25.36-.53.71-.83,1.03.53.43,1.07.9,1.62,1.4.06.05.1.1.1.14s-.02.08-.07.13l-.67.7c-.07.07-.12.11-.17.11-.04,0-.07-.02-.12-.07-.5-.55-1.02-1.07-1.56-1.56-.83.71-1.8,1.32-2.96,1.8-.14.06-.23.1-.3.1-.08,0-.14-.07-.26-.28-.17-.28-.4-.53-.61-.7,1.43-.46,2.43-1.01,3.24-1.69-.5-.41-1.03-.8-1.58-1.17-.11-.07-.11-.1.01-.22l.56-.52ZM56.22,20.86c-1.16,0-1.57.02-1.64.02-.13,0-.14-.01-.14-.13v-.9c0-.12.01-.13.14-.13.07,0,.48.02,1.64.02h4.68c1.19,0,1.58-.02,1.66-.02.12,0,.14.02.14.14-.04.56-.04,1.07-.01,1.55.02.9.1,1.75.23,2.33.16.68.2.98.44.98.14,0,.25-.4.34-1.54.17.2.53.41.83.52.25.1.24.13.18.52-.2,1.38-.52,1.91-1.26,1.91-.67,0-1.27-.54-1.67-1.89-.2-.78-.32-1.82-.32-3.37h-5.23ZM57.86,19.08c-1.14,0-1.52.02-1.58.02-.12,0-.13-.01-.13-.14v-.8c0-.12.01-.13.13-.13.06,0,.44.02,1.58.02h3.38c1.13,0,1.52-.02,1.59-.02.12,0,.13.01.13.13v.8c0,.13-.01.14-.13.14-.07,0-.47-.02-1.59-.02h-3.38Z"/><path class="uuid-c5b07f8c-81e2-4bac-acc9-4e615526b2b4" d="M76.1,15.88c.14,0,.23-.02.3-.06.05-.02.1-.05.16-.05.1,0,.17.02.49.35.34.35.36.4.36.5,0,.08-.02.14-.14.24-.12.1-.2.22-.38.52-.38.62-.8,1.16-1.28,1.66.64.41,1.4.74,2.35,1.06-.16.19-.3.46-.41.74-.1.23-.12.32-.23.32-.06,0-.14-.04-.28-.08-.89-.35-1.66-.77-2.31-1.27-.65.49-1.39.91-2.24,1.29-.13.06-.23.1-.29.1-.1,0-.13-.1-.23-.32-.12-.24-.25-.48-.38-.65v1.06c0,.73.02,1.05.02,1.13,0,.11-.01.12-.13.12-.08,0-.41-.02-1.32-.02h-.23v.78h.3c1.04,0,1.42-.02,1.49-.02.11,0,.12.01.12.13v.77c0,.12-.01.13-.12.13-.07,0-.44-.02-1.49-.02h-.3c0,1.13.02,1.75.02,1.8,0,.12-.01.13-.13.13h-.89c-.12,0-.13-.01-.13-.13,0-.06.01-.67.02-1.8h-.53c-1.04,0-1.39.02-1.46.02-.12,0-.13-.01-.13-.13v-.77c0-.12.01-.13.13-.13.07,0,.42.02,1.46.02h.53v-.78h-.22c-.91,0-1.24.02-1.31.02-.12,0-.13-.01-.13-.12,0-.08.02-.4.02-1.13v-1.86c0-.72-.02-1.04-.02-1.12,0-.12.01-.13.13-.13.07,0,.4.02,1.31.02h.23v-.77h-.52c-1.01,0-1.34.02-1.42.02-.12,0-.13-.01-.13-.13v-.78c0-.11.01-.12.13-.12.07,0,.41.02,1.42.02h.52c0-.52-.02-.85-.08-1.24.44.01.79.04,1.14.08.13.02.19.06.19.12,0,.07-.02.13-.06.22-.05.11-.08.26-.08.78v.04h.29c1.01,0,1.37-.02,1.44-.02.11,0,.12.01.12.12v.78c0,.12-.01.13-.12.13-.07,0-.43-.02-1.44-.02h-.29v.77h.22c.91,0,1.24-.02,1.32-.02.12,0,.13.01.13.13,0,.07-.02.4-.02,1.12v.78c.89-.31,1.64-.71,2.29-1.16-.58-.59-1.04-1.28-1.43-2.09-.17.01-.25.01-.28.01-.13,0-.14-.01-.14-.13v-.84c0-.12.01-.13.14-.13.07,0,.42.02,1.44.02h2.49ZM68.88,19.93v-.86h-.71v.86h.71ZM68.88,21.64v-.9h-.71v.9h.71ZM69.89,19.06v.86h.71v-.86h-.71ZM70.59,20.74h-.71v.9h.71v-.9ZM75.74,22.05c1.01,0,1.34-.02,1.43-.02.12,0,.13.01.13.13v.85c0,.12-.01.13-.13.13-.08,0-.42-.02-1.43-.02h-.55v1.62h.9c1.12,0,1.49-.02,1.56-.02.11,0,.12.01.12.13v.85c0,.13-.01.14-.12.14-.07,0-.44-.02-1.56-.02h-2.9c-1.12,0-1.48.02-1.55.02-.12,0-.13-.01-.13-.14v-.85c0-.12.01-.13.13-.13.07,0,.43.02,1.55.02h.82v-1.62h-.36c-1.01,0-1.34.02-1.42.02-.12,0-.13-.01-.13-.13v-.85c0-.12.01-.13.13-.13.07,0,.41.02,1.42.02h.36v-.06c0-.61-.01-.9-.08-1.39.43.01.8.05,1.21.08.12.01.18.06.18.13,0,.08-.01.17-.05.25-.07.14-.07.41-.07.91v.07h.55ZM73.63,16.94c.3.53.65,1,1.08,1.4.43-.43.8-.9,1.09-1.4h-2.17Z"/><path class="uuid-c5b07f8c-81e2-4bac-acc9-4e615526b2b4" d="M82.24,16.57c.2.11.28.18.28.29,0,.08-.02.12-.18.36-.12.22-.18.38-.29.85-.34,1.49-.5,2.96-.5,3.87,0,.59.02.98.07,1.4.25-.55.47-.95.82-1.79.1.3.25.49.42.76.04.06.08.13.08.18,0,.08-.02.13-.06.19-.28.62-.5,1.14-.68,1.81-.02.07-.04.2-.04.37,0,.14.02.24.02.34,0,.08-.05.13-.16.16-.3.08-.64.16-.98.19-.08.01-.13-.05-.16-.13-.34-.84-.55-2.36-.55-3.57,0-1.08.13-2.39.41-3.93.16-.89.22-1.28.22-1.79.54.13.92.25,1.28.44ZM84.81,22.22c.1-.01.12.05.12.18.07.83.65,1.13,1.95,1.13.9,0,1.49-.06,2.29-.16.12-.01.14,0,.17.16.04.25.07.72.07,1.03,0,.14,0,.16-.2.18-.82.1-1.39.13-1.96.13-1.77,0-2.6-.29-3.12-1-.3-.38-.42-1-.42-1.56l1.09-.1ZM84.13,17.73c.01-.14.05-.18.17-.2.71-.13,2.05-.22,2.6-.22.72,0,1.27.02,1.77.07.25.01.28.04.28.16,0,.36,0,.68-.02,1.02-.01.11-.05.16-.16.14-.72-.05-1.34-.07-1.95-.07-.8,0-1.58.07-2.72.28.01-.67.01-.97.04-1.18Z"/><path class="uuid-c5b07f8c-81e2-4bac-acc9-4e615526b2b4" d="M94.95,19.45c-.6.05-1.21.1-2.02.1-.2,0-.26-.07-.29-.25-.04-.23-.08-.62-.13-1.04.31.05.62.06.94.06.5,0,1.02-.05,1.52-.1,0-.4.01-.85.01-1.37,0-.31-.01-.66-.08-.97.6.04,1.1.12,1.43.22.14.04.24.12.24.23,0,.05-.02.11-.07.19-.08.16-.14.31-.17.47-.04.31-.05.61-.06,1,.53-.11,1.02-.26,1.54-.44.11-.04.19-.01.2.11.05.3.07.62.07.94,0,.12-.04.16-.16.19-.79.25-1,.31-1.71.46-.01.58-.01,1.16-.02,1.74,1.13-.48,2.18-.67,2.95-.66,1.49.01,2.55.96,2.55,2.4,0,1.54-.98,2.43-2.6,2.43-.35,0-.73-.05-.98-.11-.19-.05-.26-.17-.26-.36-.02-.26-.11-.67-.36-1.02.58.19,1.06.22,1.5.22.67,0,1.29-.38,1.29-1.24,0-.78-.48-1.21-1.32-1.21-.68,0-1.51.18-2.75.82.01.5.02.91.05,1.44.04.53.1,1.28.1,1.56,0,.17.02.35-.18.4-.26.07-.65.13-.89.14-.13.01-.18-.08-.29-.24-.32-.44-.95-1.02-1.7-1.54-.13.07-.28.17-.38.26-.06.06-.14.08-.2.08-.1,0-.19-.07-.26-.19-.13-.22-.37-.72-.55-1.12.31-.07.71-.2,1.1-.42.52-.29,1.08-.61,1.96-1.12v-2.05ZM93.84,23.57c.34.18.74.38,1.13.54.1.02.13.01.12-.1-.02-.31-.05-.86-.07-1.26-.34.23-.74.5-1.18.82ZM99.57,17.28c.08-.13.12-.17.2-.14,1.1.32,1.92.83,2.54,1.46.05.05.07.08.07.12s-.02.07-.05.12c-.16.24-.47.61-.65.85-.04.05-.2.06-.24,0-.64-.71-1.48-1.15-2.43-1.47.16-.32.35-.64.55-.94Z"/><path class="uuid-c5b07f8c-81e2-4bac-acc9-4e615526b2b4" d="M107.94,15.62c.78,0,1.13-.02,1.2-.02.11,0,.12.01.12.13,0,.07-.02.43-.02,1.19v1.56c0,.74.02,1.1.02,1.17,0,.12-.01.13-.12.13-.07,0-.42-.02-1.2-.02h-1.92v3.74c0,1.65.02,2.47.02,2.55,0,.12-.01.13-.13.13h-1.02c-.12,0-.13-.01-.13-.13,0-.08.02-.9.02-2.55v-5.19c0-1.66-.02-2.5-.02-2.58,0-.12.01-.13.13-.13.08,0,.53.02,1.4.02h1.64ZM106.02,16.53v.71h2.04v-.71h-2.04ZM108.06,18.07h-2.04v.82h2.04v-.82ZM107.63,25.05c-.12,0-.13,0-.13-.12,0-.07.02-.37.02-1.96v-.86c0-.88-.02-1.19-.02-1.27,0-.12.01-.13.13-.13.08,0,.37.02,1.27.02h1.57c.9,0,1.19-.02,1.27-.02.12,0,.13.01.13.13,0,.07-.02.38-.02,1.04v.92c0,1.51.02,1.8.02,1.87,0,.13-.01.14-.13.14h-.88c-.13,0-.14-.01-.14-.14v-.4h-2.07v.65c0,.12-.01.12-.14.12h-.88ZM108.65,23.26h2.07v-1.51h-2.07v1.51ZM114.69,22.24c0,.84.05,1.8.05,2.39s-.07.85-.35,1.1c-.26.24-.6.32-1.67.32-.38,0-.38.01-.46-.37-.06-.35-.16-.64-.28-.89.36.05.66.06.97.06.4,0,.49-.11.49-.47v-4.63h-1.92c-.94,0-1.25.02-1.32.02-.13,0-.14-.01-.14-.13,0-.08.02-.36.02-1.08v-1.75c0-.72-.02-1.01-.02-1.09,0-.12.01-.13.14-.13.07,0,.38.02,1.32.02h1.73c.92,0,1.25-.02,1.32-.02.12,0,.13.01.13.13,0,.07-.02.58-.02,1.6v4.92ZM111.27,16.53v.71h2.18v-.71h-2.18ZM113.46,18.88v-.82h-2.18v.82h2.18Z"/><path class="uuid-c5b07f8c-81e2-4bac-acc9-4e615526b2b4" d="M119.04,17.32c.11.05.19.13.19.22,0,.07-.04.19-.1.34-.05.14-.11.66-.11,1.17,0,.77.02,1.63.22,2.73.17.95.48,1.76.98,1.76.38,0,.68-.42,1.15-1.67.26.42.53.7.77.92.14.13.14.28.08.44-.46,1.22-1.2,1.87-2.04,1.87-.94,0-1.92-1.1-2.24-3.13-.19-1.14-.29-2.39-.29-3.49,0-.66-.02-1.02-.14-1.57.58.07,1.16.22,1.52.4ZM124.6,18.08s.1-.05.13-.05c.05,0,.08.02.13.07,1.09.95,2.05,2.6,2.35,4.1.04.16-.04.2-.13.26-.31.2-.61.37-.94.48-.14.05-.23.01-.25-.13-.41-1.72-1.02-2.96-2.24-4.19.46-.29.76-.46.95-.55Z"/><path class="uuid-c5b07f8c-81e2-4bac-acc9-4e615526b2b4" d="M132.13,19.17c-.7.54-1.44,1.01-2.22,1.42-.14.07-.22.12-.28.12-.08,0-.13-.08-.23-.3-.16-.32-.35-.59-.56-.8,2.21-1,3.63-2.24,4.62-3.67.22-.31.35-.54.47-.85.47.07.91.14,1.26.23.14.05.22.08.22.19,0,.06-.02.12-.12.18-.04.02-.07.05-.1.08,1.43,1.82,3.09,2.94,5.12,3.66-.2.25-.38.58-.5.91-.07.23-.12.31-.22.31-.06,0-.16-.04-.29-.11-.85-.38-1.63-.83-2.34-1.34v.84c0,.12-.01.13-.13.13-.07,0-.4-.02-1.35-.02h-1.86c-.96,0-1.27.02-1.36.02-.12,0-.13-.01-.13-.13v-.86ZM130.99,26.16c-.12,0-.13-.01-.13-.13,0-.07.02-.4.02-2.13v-1.03c0-1.03-.02-1.38-.02-1.45,0-.12.01-.13.13-.13.07,0,.49.02,1.64.02h3.84c1.15,0,1.57-.02,1.64-.02.13,0,.14.01.14.13,0,.07-.02.42-.02,1.27v1.17c0,1.73.02,2.05.02,2.11,0,.12-.01.13-.14.13h-1.02c-.12,0-.13-.01-.13-.13v-.4h-4.81v.46c0,.12-.01.13-.14.13h-1.02ZM132.15,24.48h4.81v-2.09h-4.81v2.09ZM135.47,19.03c.71,0,1.07-.01,1.24-.01-.86-.66-1.6-1.43-2.21-2.28-.62.86-1.37,1.61-2.18,2.27.14.01.48.02,1.3.02h1.86Z"/><path class="uuid-c5b07f8c-81e2-4bac-acc9-4e615526b2b4" d="M145.98,19.87c1.08-.89,2.18-1.4,3.44-1.4,1.81,0,2.99,1.24,2.99,3.05s-1.13,3.12-3.19,3.86c-.07.04-.14.05-.2.05-.12,0-.23-.06-.31-.17-.25-.3-.53-.54-.95-.79,1.16-.31,1.78-.65,2.41-1.19.55-.49.82-1.09.82-1.81,0-1.13-.64-1.86-1.79-1.86s-2.04.53-3.21,1.54c.01,1.54.05,2.99.07,4.61,0,.1-.06.14-.16.14-.13.01-.67.05-1.07.05-.11,0-.14-.05-.13-.17.01-1.22.04-2.48.06-3.71-.58.86-1.18,1.74-1.62,2.38-.06.07-.11.12-.17.12-.04,0-.08-.02-.13-.07-.28-.24-.5-.47-.73-.72-.05-.04-.07-.08-.07-.13s.02-.1.07-.14c1.06-1.28,1.74-2.13,2.64-3.37,0-.3,0-.62.01-.85-.35.11-.91.28-1.37.44-.2.08-.32.2-.4.2-.08,0-.17-.07-.24-.22-.14-.28-.32-.65-.48-1.06.29-.02.47-.05.82-.12.31-.07.78-.18,1.7-.43.02-.52.02-1.04.02-1.56,0-.3-.02-.65-.12-1.04.7.07,1.09.12,1.39.2.25.07.3.2.22.42-.06.14-.1.32-.12.52-.01.29-.04.56-.06,1.08.04-.01.06-.02.1-.04.02-.01.06-.02.08-.02.08,0,.22.12.32.28.14.19.19.29.19.37s-.02.13-.2.33c-.17.22-.35.44-.64.86v.37Z"/><path class="uuid-c5b07f8c-81e2-4bac-acc9-4e615526b2b4" d="M157.13,17.84c-.02-.61-.05-.8-.17-1.27.6.05,1.14.13,1.44.2.13.02.25.14.25.25,0,.08-.04.17-.07.25-.07.18-.11.34-.12.53-.01.29-.01.74-.02,1.15.83-.11,2.1-.24,2.96-.34.01-.6.01-1.25.01-1.69s-.04-.91-.16-1.37c.73.08,1.15.14,1.45.24.17.05.23.11.23.23,0,.1-.05.19-.07.24-.06.19-.11.34-.12.54-.02.65-.04,1.12-.05,1.68.97-.07,1.69-.11,2.34-.13.1,0,.14.01.14.12.01.32.02.66,0,.98,0,.16-.02.17-.16.17-.79,0-1.6.04-2.39.1-.04.79-.07,1.38-.14,1.85-.13.94-.67,1.33-1.57,1.33-.22,0-.49,0-.74-.04-.19-.01-.24-.1-.24-.31-.02-.4-.1-.7-.26-1.08.4.11.72.14,1.02.14.32,0,.5-.1.56-.52.05-.37.07-.8.08-1.27-.96.07-2,.19-2.93.33-.01,1.31-.02,2.03.02,2.71.07.98.34,1.18,1.8,1.18,1.07,0,2.22-.11,3.11-.24.18-.01.22.01.24.16.05.25.07.78.07,1.01,0,.14-.05.2-.16.22-.55.08-2.04.18-3.01.18-2.42,0-3.13-.5-3.27-2.08-.06-.65-.08-1.66-.08-2.93-.61.08-1,.16-1.45.25-.13.04-.32.08-.54.18-.16.07-.24.02-.31-.13-.14-.3-.28-.79-.34-1.2.25,0,.77-.05,1.28-.12.34-.05.91-.16,1.36-.23v-1.28Z"/><path class="uuid-c5b07f8c-81e2-4bac-acc9-4e615526b2b4" d="M173.77,16.44c.06.05.1.14.1.19,0,.11-.06.18-.17.23-.14.07-.32.18-.58.42-1.03.92-2.35,2.16-3.27,3.12-.11.13-.16.2-.16.26,0,.07.05.13.16.22,1.56,1.13,3.18,2.43,4.46,3.78.05.06.08.11.08.16s-.02.08-.08.14c-.28.3-.62.65-.83.83-.07.06-.12.1-.17.1s-.08-.04-.14-.11c-1.39-1.56-2.73-2.81-4.37-4.05-.46-.35-.64-.61-.64-1.01s.22-.66.59-1.06c1.02-1.1,2.02-2.1,3.05-3.23.32-.35.5-.6.65-.9.53.31.98.62,1.32.91Z"/><path class="uuid-c5b07f8c-81e2-4bac-acc9-4e615526b2b4" d="M183.68,17.36c.13-.04.18.02.19.12.04.26.07.61.08.86.01.16-.02.19-.18.23-.74.2-1.36.34-2.09.46-.82,2.66-1.43,4.5-2.19,6.49-.06.17-.13.16-.26.12-.12-.05-.71-.3-.96-.44-.1-.06-.13-.16-.1-.24.91-2.1,1.49-3.68,2.07-5.69-.7.07-1.54.13-2.1.13-.18,0-.23-.04-.25-.19-.05-.25-.11-.66-.17-1.09.25.04.4.04.89.04.6,0,1.25-.04,1.94-.12.12-.48.22-1.01.3-1.5.05-.36.07-.72.07-1.1.64.1,1.13.18,1.51.34.1.04.13.12.13.19,0,.05,0,.11-.06.19-.1.17-.19.29-.25.48-.12.43-.2.84-.29,1.14.47-.08,1.12-.24,1.7-.41ZM183.21,23.09c.12,0,.17.05.18.17.1.88.68,1.13,1.83,1.13.67,0,1.54-.11,2.01-.17.1-.01.13.01.14.11.05.31.1.72.1,1.04.01.14,0,.18-.19.19-.41.06-1.13.13-1.67.13-1.54,0-2.35-.22-2.89-.78-.38-.38-.52-.95-.54-1.64.37-.1.86-.18,1.02-.18ZM183.08,19.92c0-.17.04-.2.22-.24.76-.16,1.64-.28,2.34-.28.47,0,.98.05,1.4.12.17.02.2.04.2.18.02.3.02.63.01.96,0,.2-.06.25-.23.22-.42-.08-.97-.14-1.49-.14-.72,0-1.63.12-2.41.28-.02-.42-.05-.85-.05-1.09ZM185.85,16.5c.06-.05.11-.04.18.02.37.29.8.77,1.14,1.28.05.07.05.13-.04.19l-.5.37c-.08.06-.14.05-.2-.04-.36-.55-.74-1.01-1.21-1.39l.64-.44ZM186.92,15.72c.07-.05.11-.04.18.02.44.34.88.82,1.14,1.24.05.07.06.14-.04.22l-.48.37c-.1.07-.16.04-.2-.04-.32-.52-.71-.97-1.2-1.38l.6-.43Z"/><path class="uuid-c5b07f8c-81e2-4bac-acc9-4e615526b2b4" d="M193.48,16.72c-.17-.35-.29-.6-.6-.97.59-.11,1.1-.19,1.43-.19s.41.08.41.25c0,.11-.01.23.01.34.04.14.08.31.19.6.14.36.25.65.41.97,1.09-.25,1.88-.5,2.51-.74.12-.06.16-.05.23.08.12.23.23.65.3.92.04.12-.01.18-.1.2-.58.22-1.27.43-2.39.7.49.89,1.09,1.7,1.83,2.53.1.1.2.18.31.26.07.06.12.1.12.16,0,.08-.04.14-.07.2-.08.2-.32.59-.47.78-.1.13-.16.18-.24.18-.06,0-.1-.02-.19-.1-.16-.11-.26-.19-.49-.31-.78-.41-1.66-.61-2.54-.61-1.25,0-2,.37-2,1.13,0,.9,1.09,1.27,2.97,1.27.59,0,1.3-.06,1.92-.17-.05.48-.17,1.02-.25,1.28-.04.12-.08.14-.23.17-.22.04-.83.08-1.33.08-2.83,0-4.35-.9-4.35-2.48,0-1.37,1.18-2.33,3.15-2.33.97,0,1.64.14,2.13.32-.59-.55-1.07-1.21-1.55-2.12-.76.13-1.45.23-2.31.3-.32.02-.88.06-1.18.06-.11,0-.16-.07-.19-.22-.12-.37-.18-.62-.28-1.08.61.02,1.1.01,1.5-.01.5-.02,1.1-.1,1.9-.23-.2-.43-.37-.78-.56-1.24Z"/><path class="uuid-c5b07f8c-81e2-4bac-acc9-4e615526b2b4" d="M203.13,17.32c.11.05.19.13.19.22,0,.07-.04.19-.1.34-.05.14-.11.66-.11,1.17,0,.77.02,1.63.22,2.73.17.95.48,1.76.98,1.76.38,0,.68-.42,1.15-1.67.26.42.53.7.77.92.14.13.14.28.08.44-.46,1.22-1.2,1.87-2.04,1.87-.94,0-1.92-1.1-2.24-3.13-.19-1.14-.29-2.39-.29-3.49,0-.66-.02-1.02-.14-1.57.58.07,1.16.22,1.52.4ZM208.7,18.08s.1-.05.13-.05c.05,0,.08.02.13.07,1.09.95,2.05,2.6,2.35,4.1.04.16-.04.2-.13.26-.31.2-.61.37-.94.48-.14.05-.23.01-.25-.13-.41-1.72-1.02-2.96-2.24-4.19.46-.29.76-.46.95-.55Z"/><rect class="uuid-6b424936-7507-4ca5-9587-e25d528f781d" width="375" height="58.37"/></g></svg>