<?xml version="1.0" encoding="UTF-8"?><svg id="uuid-e9bbfb44-e5a6-4208-9c0b-136982d90bd7" xmlns="http://www.w3.org/2000/svg" width="280" height="100" viewBox="0 0 280 100"><defs><style>.uuid-05d8618d-97d4-4fe4-9bab-0060a0f46908{fill:none;}.uuid-34d77d09-d7f0-4222-bae0-4b9c92d42f44{fill:#1c1c1c;}</style></defs><g id="uuid-0bcbca14-2008-44d4-b59a-bf69fec77a0b"><path class="uuid-34d77d09-d7f0-4222-bae0-4b9c92d42f44" d="M28.51,35.83c-.22.29-.46.58-.7.85-.1.11-.17.16-.22.16s-.08-.06-.13-.2c-.08-.38-.25-.8-.4-1.03,1.04-1.12,1.76-2.42,2.27-3.83.1-.28.16-.54.19-.84.43.11.83.2,1.19.36.13.06.18.1.18.18s-.02.14-.12.22c-.08.06-.14.17-.25.48-.23.59-.49,1.17-.79,1.74v6.08c0,1.18.02,1.76.02,1.82,0,.12-.01.13-.12.13h-1.03c-.11,0-.12-.01-.12-.13,0-.07.02-.65.02-1.82v-4.16ZM32.03,41.44c-1.18,0-1.6.02-1.67.02-.12,0-.13-.01-.13-.14v-.92c0-.12.01-.13.13-.13.07,0,.49.02,1.67.02h1.46v-2.48h-.8c-1.12,0-1.5.02-1.57.02-.13,0-.14-.01-.14-.13v-.9c0-.12.01-.13.14-.13.07,0,.46.02,1.57.02h.8v-2.08h-1.13c-1.16,0-1.56.02-1.63.02-.12,0-.13-.01-.13-.13v-.91c0-.13.01-.13.13-.13.07,0,.47.01,1.63.01h3.75c1.15,0,1.56-.01,1.63-.01.13,0,.14,0,.14.13v.91c0,.12-.01.13-.14.13-.07,0-.48-.02-1.63-.02h-1.34v2.08h.95c1.13,0,1.51-.02,1.58-.02.12,0,.13.01.13.13v.9c0,.12-.01.13-.13.13-.07,0-.46-.02-1.58-.02h-.95v2.48h1.69c1.18,0,1.58-.02,1.65-.02.12,0,.13.01.13.13v.92c0,.13-.01.14-.13.14-.07,0-.48-.02-1.65-.02h-4.44ZM33.08,31.1c.08-.1.14-.1.25-.05.7.29,1.42.72,2.09,1.21.06.05.1.07.1.11,0,.02-.04.07-.08.13l-.56.64c-.12.14-.17.14-.26.07-.6-.5-1.38-.96-2.09-1.28-.06-.04-.08-.06-.08-.1s.02-.07.08-.13l.56-.6Z"/><path class="uuid-34d77d09-d7f0-4222-bae0-4b9c92d42f44" d="M48.62,36.81c1.03-.12,1.38-.19,1.51-.2.12-.01.13,0,.14.12l.1.9c.01.12,0,.14-.12.16-.12.01-.52.04-1.55.16l-3.41.38v1.74c0,.35.07.49.34.54.2.05.64.08,1.28.08.98,0,1.5-.08,1.73-.29.19-.18.3-.5.32-1.33.26.13.6.26.95.34q.32.08.3.41c-.1.83-.36,1.31-.7,1.56-.36.29-1.19.44-2.53.44-.94,0-1.92-.07-2.29-.2-.47-.18-.67-.65-.67-1.18v-1.98l-2.39.26c-1.03.13-1.34.18-1.5.2-.12.01-.14,0-.16-.13l-.1-.91c-.01-.12,0-.13.13-.14.16-.01.48-.02,1.51-.14l2.49-.28v-1.33c-.73.14-1.51.28-2.34.38q-.32.05-.44-.3c-.11-.32-.26-.6-.43-.8,2.03-.18,4.28-.65,5.73-1.08.35-.1.62-.23.89-.38.31.23.6.53.79.76.07.08.12.13.12.24,0,.07-.06.13-.2.14-.13.02-.3.06-.48.11-.74.25-1.52.47-2.36.66v1.47l3.32-.37ZM48.49,32.22c1.1,0,1.5-.02,1.58-.02.12,0,.13.01.13.12,0,.07-.02.29-.02.64v.53c0,1.08.02,1.27.02,1.34,0,.12-.01.13-.13.13h-1c-.13,0-.14-.01-.14-.13v-1.49h-7.6v1.51c0,.13-.01.14-.13.14h-1.01c-.12,0-.13-.01-.13-.14,0-.07.02-.25.02-1.34v-.43c0-.46-.02-.67-.02-.76,0-.11.01-.12.13-.12.08,0,.48.02,1.58.02h2.64v-.1c0-.52-.01-.84-.08-1.14.44.01.86.04,1.28.07.12,0,.18.05.18.12,0,.08-.04.14-.06.23-.05.11-.06.25-.06.72v.1h2.82Z"/><path class="uuid-34d77d09-d7f0-4222-bae0-4b9c92d42f44" d="M54.73,39.61v.71c0,.2-.05.23-.26.24-.3.01-.65.01-.95,0-.2-.01-.26-.04-.25-.18.01-.62.04-1.48.04-2.39v-2.94c0-.65.01-1.29-.02-1.99,0-.12.05-.17.13-.17.64.04,1.34.04,2.15.04h2.85c.78,0,1.69,0,2.25-.02.13,0,.17.06.16.24,0,.59-.01,1.24-.01,1.94v2.87c0,1.04.04,1.63.06,2.28,0,.17-.06.2-.23.2-.36.01-.74.01-1.1,0-.14,0-.16-.02-.16-.19v-.64h-4.65ZM59.38,34.2h-4.67v4.14h4.67v-4.14Z"/><path class="uuid-34d77d09-d7f0-4222-bae0-4b9c92d42f44" d="M66.25,37.3c-1.19,0-1.64.14-1.76.14-.14,0-.24-.07-.28-.25-.06-.28-.13-.84-.18-1.45.78.12,1.38.14,2.59.14h3.86c.91,0,1.83-.02,2.76-.04.18-.01.21.02.21.17.02.36.02.77,0,1.13,0,.14-.05.19-.21.18-.9-.01-1.79-.02-2.67-.02h-4.32Z"/><path class="uuid-34d77d09-d7f0-4222-bae0-4b9c92d42f44" d="M76.06,32.6c.05-.06.11-.1.17-.1.05,0,.1.02.16.06.61.32,1.61,1.06,2.29,1.7.07.07.11.12.11.17s-.02.1-.07.16c-.18.24-.58.72-.74.9-.06.06-.1.1-.14.1s-.1-.04-.16-.1c-.72-.74-1.58-1.43-2.45-1.95.26-.32.61-.7.84-.94ZM77.1,38.92c1.46-.76,2.24-1.26,3.45-2.23,1.46-1.19,2.27-1.96,3.29-3.26.07.6.18,1.01.34,1.4.04.08.06.16.06.23,0,.11-.06.2-.19.36-.64.74-1.67,1.7-2.76,2.54-1,.78-2,1.45-3.62,2.35-.54.32-.7.44-.8.55-.07.07-.14.12-.22.12-.06,0-.13-.05-.2-.13-.3-.34-.67-.83-.96-1.33.61-.17.98-.28,1.62-.6Z"/><path class="uuid-34d77d09-d7f0-4222-bae0-4b9c92d42f44" d="M89.12,33.66c-.68,0-1.42.05-2.12.1-.14.01-.19-.07-.22-.18-.1-.34-.17-.94-.22-1.3.82.06,1.48.08,2.43.08h5.15c.5,0,.71-.02.83-.07.06-.02.17-.08.23-.08.1,0,.19.07.28.17.26.23.49.48.72.76.06.07.1.14.1.22,0,.1-.06.18-.17.25-.13.1-.23.22-.32.35-.56.85-1.31,1.68-2.11,2.31-.07.07-.16.11-.25.11s-.2-.05-.29-.12c-.3-.24-.6-.37-1-.49.96-.72,1.55-1.24,2.15-2.1h-5.18ZM89.79,38.34c.46-.85.59-1.67.59-2.83,0-.44-.02-.72-.12-1.13.59.06,1.21.14,1.55.23.16.04.2.12.2.23,0,.07-.02.14-.06.22-.08.17-.1.29-.11.49-.04,1.16-.16,2.23-.71,3.3-.47.9-1.19,1.75-2.18,2.39-.11.07-.22.12-.34.12-.08,0-.17-.04-.24-.11-.29-.25-.64-.44-1.09-.61,1.31-.68,1.99-1.33,2.51-2.29Z"/><path class="uuid-34d77d09-d7f0-4222-bae0-4b9c92d42f44" d="M101.42,34.85c1.46.46,2.63.92,3.81,1.63.13.07.19.16.13.31-.16.4-.35.77-.52,1.04-.05.08-.1.13-.16.13-.04,0-.08-.01-.13-.06-1.1-.71-2.18-1.24-3.15-1.54v2.65c0,.78.02,1.49.05,2.35.01.14-.05.18-.22.18-.35.02-.72.02-1.07,0-.17,0-.23-.04-.23-.18.04-.89.05-1.6.05-2.36v-5.9c0-.9-.04-1.3-.12-1.77.55.04,1.15.1,1.5.19.17.04.23.11.23.2,0,.07-.04.17-.1.28-.08.16-.08.46-.08,1.13v1.72ZM104.21,31.9c.06-.05.11-.04.18.02.37.29.8.77,1.14,1.28.05.07.05.13-.04.19l-.5.37c-.08.06-.14.05-.2-.04-.36-.55-.74-1.01-1.21-1.39l.64-.44ZM105.28,31.12c.07-.05.11-.04.18.02.44.34.88.82,1.14,1.24.05.07.06.14-.04.22l-.48.37c-.1.07-.16.04-.2-.04-.32-.52-.71-.97-1.2-1.38l.6-.43Z"/><path class="uuid-34d77d09-d7f0-4222-bae0-4b9c92d42f44" d="M110.13,35.52c.32-.73.5-1.34.54-1.77.61.22,1.15.43,1.49.61.11.05.14.12.14.19,0,.08-.05.17-.12.24-.13.13-.23.3-.42.73-.71,1.6-1.42,2.82-2.57,4.03-.11.12-.22.18-.34.18-.1,0-.18-.04-.28-.12-.24-.19-.62-.38-1.06-.52,1.26-1.12,2.12-2.48,2.6-3.57ZM114.61,33.89c.06-.05.12-.07.17-.07.06,0,.11.02.18.1,1.31,1.31,2.32,2.87,3.01,4.4.04.06.05.11.05.17,0,.07-.04.13-.12.19-.23.18-.61.43-1,.64-.16.07-.24.05-.29-.11-.89-2-1.78-3.41-2.96-4.67.43-.29.76-.52.96-.65ZM116.02,32.45c.06-.05.11-.04.18.02.37.29.8.77,1.14,1.28.05.07.05.13-.04.19l-.5.37c-.08.06-.14.05-.2-.04-.36-.55-.74-1.01-1.21-1.39l.64-.44ZM117.08,31.67c.07-.05.11-.04.18.02.44.34.88.82,1.14,1.24.05.07.06.14-.04.22l-.48.37c-.1.07-.16.04-.2-.04-.32-.52-.71-.97-1.2-1.38l.6-.43Z"/><path class="uuid-34d77d09-d7f0-4222-bae0-4b9c92d42f44" d="M126.41,38.77c0,.83.01,1.54.04,2.49.01.16-.05.2-.18.2-.38.02-.82.02-1.2,0-.13,0-.18-.05-.17-.19.01-.86.05-1.64.05-2.46v-2.79c-1.06.89-2.34,1.8-3.3,2.3-.06.04-.12.05-.18.05-.1,0-.17-.04-.25-.12-.28-.28-.67-.52-1.03-.71,1.65-.85,2.67-1.55,3.78-2.46.95-.78,1.81-1.62,2.55-2.51.41-.48.56-.72.76-1.24.54.3,1.07.62,1.33.84.07.05.1.12.1.18,0,.1-.07.2-.17.26-.2.13-.4.31-.72.66-.47.56-.91,1.03-1.4,1.51v3.97Z"/><path class="uuid-34d77d09-d7f0-4222-bae0-4b9c92d42f44" d="M139,34.39c.59,0,1.26-.01,1.81-.04.14-.01.16.06.17.19.02.3.02.65,0,.95-.01.16-.04.2-.2.19-.41,0-1.14-.01-1.73-.01h-.49c-.07,1.71-.34,2.72-.92,3.69-.6,1-1.57,1.72-2.83,2.23-.17.07-.26.11-.34.11s-.13-.04-.23-.13c-.36-.37-.59-.54-1-.72,1.7-.53,2.63-1.14,3.24-2.12.47-.77.66-1.6.71-3.06h-2.55v.43c0,.71,0,1.36.04,1.99.01.13-.07.16-.2.17-.31.02-.71.02-1.03,0-.16-.01-.23-.04-.22-.17.04-.62.06-1.21.06-1.97v-.46h-.36c-.65,0-1.61.04-1.98.06-.1,0-.13-.07-.14-.23-.05-.25-.06-.67-.08-1.16.5.04,1.28.06,2.21.06h.36v-.88c0-.77-.02-1.07-.14-1.76.62.06,1.21.12,1.46.19.13.02.18.08.18.17,0,.07-.04.16-.07.25-.08.22-.08.34-.08,1.15v.88h2.58v-1.18c.02-.67-.01-1.22-.1-1.64.46.05,1.12.12,1.4.2.17.04.22.1.22.19,0,.05-.01.12-.05.22-.08.23-.1.54-.1,1.06v1.14h.42ZM139.6,31.49c.06-.02.11-.02.17.05.32.35.67.89.92,1.45.04.08.02.13-.07.18l-.49.25c-.1.05-.16.02-.2-.07-.26-.6-.56-1.1-.97-1.56l.65-.3ZM140.73,30.97c.07-.04.11-.02.17.05.38.41.73.95.92,1.4.04.07.04.16-.07.2l-.48.24c-.11.05-.16.01-.19-.06-.24-.56-.55-1.08-.97-1.56l.62-.28Z"/><path class="uuid-34d77d09-d7f0-4222-bae0-4b9c92d42f44" d="M145.59,37.3c-1.19,0-1.64.14-1.76.14-.14,0-.24-.07-.28-.25-.06-.28-.13-.84-.18-1.45.78.12,1.38.14,2.59.14h3.86c.91,0,1.83-.02,2.76-.04.18-.01.22.02.22.17.02.36.02.77,0,1.13,0,.14-.05.19-.22.18-.9-.01-1.79-.02-2.67-.02h-4.32Z"/><path class="uuid-34d77d09-d7f0-4222-bae0-4b9c92d42f44" d="M158.33,32.8c.06-.36.12-.83.12-1.33.62.13.96.22,1.44.4.12.04.19.13.19.24,0,.06-.02.12-.08.18-.12.16-.18.29-.24.46-.16.49-.28.94-.43,1.44.32-.04.68-.05.96-.05,1.12,0,1.71.78,1.71,2.31,0,1.29-.24,2.89-.65,3.75-.35.77-.92,1.13-1.62,1.13-.58,0-.98-.06-1.25-.18-.14-.06-.22-.16-.22-.34-.04-.38-.06-.72-.23-1.12.54.25,1.01.31,1.38.31.4,0,.58-.14.77-.64.25-.67.47-1.81.47-2.99,0-.84-.16-1.1-.68-1.1-.29,0-.66.04-1.01.08-.79,2.3-1.47,3.96-2.41,5.64-.07.16-.17.18-.31.11-.22-.11-.68-.4-.83-.53-.06-.06-.1-.11-.1-.18,0-.04.01-.08.05-.13.96-1.67,1.58-2.94,2.2-4.7-.47.07-.85.14-1.18.2-.31.06-.5.13-.66.19-.17.06-.31.04-.38-.16-.11-.28-.24-.71-.37-1.24.53,0,1.06-.04,1.58-.08.5-.05.95-.11,1.42-.18.19-.68.28-1.1.36-1.51ZM163.08,33.6c.08-.05.14-.02.23.06.82.77,1.55,1.76,1.99,2.91.05.11.04.17-.05.24-.2.19-.66.48-.9.6-.12.06-.24.05-.28-.1-.48-1.26-1.1-2.29-1.97-3.11.3-.2.65-.44.97-.61ZM163.4,31.92c.06-.05.11-.04.18.02.37.29.8.77,1.14,1.28.05.07.05.13-.04.19l-.5.37c-.08.06-.14.05-.2-.04-.36-.55-.74-1.01-1.21-1.39l.64-.44ZM164.47,31.14c.07-.05.11-.04.18.02.44.34.88.82,1.14,1.24.05.07.06.14-.04.22l-.48.37c-.1.07-.16.04-.2-.04-.32-.52-.71-.97-1.2-1.38l.6-.43Z"/><path class="uuid-34d77d09-d7f0-4222-bae0-4b9c92d42f44" d="M169.46,33.15c-.37.55-.79,1.06-1.31,1.55-.13.13-.22.2-.28.2-.07,0-.14-.07-.26-.24-.18-.24-.4-.42-.61-.55.97-.77,1.56-1.56,2.09-2.64.08-.17.16-.36.22-.64.37.06.79.17,1.09.26.11.04.17.1.17.17,0,.08-.04.11-.08.16-.07.07-.16.13-.2.26l-.18.37h5.36c1.17,0,1.57-.02,1.64-.02.13,0,.14.01.14.13v.88c0,.12-.01.13-.14.13-.07,0-.47-.02-1.64-.02h-6ZM169.29,37.23c.12-.11.14-.12.24-.05.52.35,1.06.72,1.61,1.14.24-.28.47-.56.7-.88.12-.18.26-.43.36-.67.36.12.79.32,1.03.49.11.08.16.16.16.22,0,.07-.06.13-.16.19-.11.06-.18.16-.32.35-.25.36-.53.71-.83,1.03.53.43,1.07.9,1.62,1.4.06.05.1.1.1.14s-.02.08-.07.13l-.67.7c-.07.07-.12.11-.17.11-.04,0-.07-.02-.12-.07-.5-.55-1.02-1.07-1.56-1.56-.83.71-1.8,1.32-2.96,1.8-.14.06-.23.1-.3.1-.08,0-.14-.07-.26-.28-.17-.28-.4-.53-.61-.7,1.43-.46,2.44-1.01,3.24-1.69-.5-.41-1.03-.8-1.58-1.18-.11-.07-.11-.1.01-.22l.56-.52ZM169.42,36.61c-1.16,0-1.57.02-1.64.02-.13,0-.14-.01-.14-.13v-.9c0-.12.01-.13.14-.13.07,0,.48.02,1.64.02h4.68c1.19,0,1.58-.02,1.65-.02.12,0,.14.02.14.14-.04.56-.04,1.07-.01,1.55.02.9.1,1.75.23,2.33.16.68.2.98.44.98.14,0,.25-.4.33-1.54.17.2.53.41.83.52.25.1.24.13.18.52-.2,1.38-.52,1.91-1.26,1.91-.67,0-1.27-.54-1.67-1.89-.2-.78-.32-1.82-.32-3.37h-5.23ZM171.05,34.82c-1.14,0-1.52.02-1.58.02-.12,0-.13-.01-.13-.14v-.8c0-.12.01-.13.13-.13.06,0,.44.02,1.58.02h3.38c1.13,0,1.52-.02,1.59-.02.12,0,.13.01.13.13v.8c0,.13-.01.14-.13.14-.07,0-.47-.02-1.59-.02h-3.38Z"/><path class="uuid-34d77d09-d7f0-4222-bae0-4b9c92d42f44" d="M182.03,32.32c.2.11.28.18.28.29,0,.08-.02.12-.18.36-.12.22-.18.38-.29.85-.33,1.49-.5,2.96-.5,3.87,0,.59.02.98.07,1.4.25-.55.47-.95.82-1.79.1.3.25.49.42.76.04.06.08.13.08.18,0,.08-.02.13-.06.19-.28.62-.5,1.14-.68,1.81-.02.07-.04.2-.04.37,0,.14.02.24.02.34,0,.08-.05.13-.16.16-.3.08-.64.16-.98.19-.08.01-.13-.05-.16-.13-.34-.84-.55-2.36-.55-3.57,0-1.08.13-2.39.41-3.93.16-.89.22-1.28.22-1.79.54.13.92.25,1.28.44ZM184.6,37.96c.1-.01.12.05.12.18.07.83.65,1.13,1.96,1.13.9,0,1.49-.06,2.29-.16.12-.01.14,0,.17.16.04.25.07.72.07,1.03,0,.14,0,.16-.2.18-.82.1-1.39.13-1.95.13-1.78,0-2.6-.29-3.12-1-.3-.38-.42-1-.42-1.56l1.09-.1ZM183.93,33.48c.01-.14.05-.18.17-.2.71-.13,2.05-.22,2.6-.22.72,0,1.27.02,1.78.07.25.01.28.04.28.16,0,.36,0,.68-.02,1.02-.01.11-.05.16-.16.14-.72-.05-1.34-.07-1.96-.07-.8,0-1.58.07-2.72.28.01-.67.01-.97.04-1.18Z"/><path class="uuid-34d77d09-d7f0-4222-bae0-4b9c92d42f44" d="M197.08,33.06c.11-.04.16-.04.18.1.06.3.1.66.11.97,0,.11-.05.13-.14.14-.65.13-1.24.22-1.98.32-.77,2.03-1.48,3.68-2.34,5.15-.05.08-.08.12-.13.12-.04,0-.08-.02-.14-.06-.28-.17-.62-.42-.83-.61-.06-.05-.08-.08-.08-.13,0-.04.01-.08.06-.14.9-1.49,1.54-2.75,2.08-4.19-.46.02-.83.02-1.2.02-.26,0-.36,0-.66-.01-.12,0-.14-.04-.17-.19-.06-.23-.1-.62-.12-1.02.49.04.77.05,1.12.05.47,0,.83-.01,1.38-.06.14-.5.23-.91.31-1.34.07-.42.07-.6.07-.97.52.07,1.03.14,1.4.25.12.02.19.1.19.18,0,.1-.04.16-.11.23-.07.1-.12.2-.19.44-.08.29-.18.66-.29,1.02.47-.05,1.02-.16,1.49-.26ZM197.42,36.27c-.01-.32-.02-.52-.1-.85.59.06.9.11,1.31.23.11.02.17.08.17.19,0,.02-.02.11-.07.25-.05.14-.06.29-.05.49,0,.71.04,1.22.13,2.04.86.35,1.45.61,2.16,1.12.12.08.13.13.07.25-.18.37-.35.67-.55.97-.04.06-.07.08-.11.08s-.07-.02-.12-.07c-.53-.46-.97-.72-1.46-1.01,0,1.2-.86,1.75-2.23,1.75s-2.21-.67-2.21-1.7.86-1.75,2.22-1.75c.23,0,.56.01.95.07-.07-.77-.1-1.5-.11-2.06ZM196.56,39.3c-.6,0-1.07.24-1.07.7,0,.38.34.58,1.02.58.65,0,1.04-.35,1.04-.85,0-.11,0-.17-.01-.24-.29-.1-.61-.18-.98-.18ZM198.79,33.53c.07-.12.13-.13.25-.08.71.19,1.66.67,2.35,1.13.07.05.11.08.11.13,0,.04-.01.08-.05.14-.12.26-.34.64-.5.89-.04.06-.07.08-.11.08s-.06-.01-.11-.05c-.71-.48-1.57-1.01-2.48-1.31.2-.36.38-.72.54-.94Z"/><path class="uuid-34d77d09-d7f0-4222-bae0-4b9c92d42f44" d="M206.8,35.98c.67-.38,1.24-.54,1.91-.54,1.75,0,2.97,1.15,2.97,2.88,0,2-1.62,3.29-4.19,3.29-1.51,0-2.42-.65-2.42-1.76,0-.8.75-1.46,1.69-1.46,1.13,0,1.96.6,2.25,1.75.84-.38,1.22-.91,1.22-1.82,0-1.09-.77-1.81-1.88-1.81-1,0-2.1.44-3.07,1.27-.35.31-.68.66-1.04,1.02-.08.08-.14.13-.2.13-.05,0-.11-.04-.18-.11-.25-.22-.52-.53-.71-.78-.07-.1-.04-.18.06-.28.94-.76,1.76-1.52,2.84-2.65.74-.77,1.31-1.37,1.86-2.05-.72.13-1.57.3-2.31.46-.16.04-.31.07-.5.14-.06.02-.18.06-.24.06-.12,0-.2-.06-.26-.2-.14-.28-.25-.61-.42-1.29.36.05.76.05,1.12.02.73-.07,1.79-.23,2.72-.41.3-.06.54-.12.66-.18.06-.04.17-.1.23-.1.12,0,.19.04.28.1.36.28.6.52.8.77.1.11.13.19.13.29,0,.12-.07.23-.2.29-.2.1-.3.18-.53.38-.88.85-1.68,1.69-2.59,2.57v.04ZM206.81,39.4c-.35,0-.58.2-.58.46,0,.37.32.62,1.04.62.22,0,.37-.01.55-.05-.16-.66-.52-1.03-1.02-1.03Z"/><path class="uuid-34d77d09-d7f0-4222-bae0-4b9c92d42f44" d="M220.02,31.62c-.01-.25-.04-.48-.08-.68.44,0,.73.02,1.12.06.12.01.19.06.19.13,0,.05-.04.11-.07.19-.04.06-.06.14-.06.3h.55c1.25,0,1.86-.02,1.93-.02.13,0,.14.01.14.13,0,.07-.02.25-.02.67v.43c0,.44.02.62.02.68,0,.12-.01.13-.14.13-.07,0-.68-.02-1.93-.02h-.55v.5h1.68c1.16,0,1.57-.02,1.64-.02.12,0,.14.05.13.14-.01.19-.01.32-.04.49-.06.53-.12.91-.25,1.15-.21.37-.54.5-1.08.5h-.16v2.47c0,.76.02,1.08.02,1.15,0,.12-.01.13-.13.13-.08,0-.65-.02-1.75-.02h-3.75c-1.1,0-1.67.02-1.74.02-.12,0-.13-.01-.13-.13,0-.08.02-.47.02-1.27v-1.97c-.26.1-.55.18-.85.26-.36.08-.38.08-.53-.25-.12-.29-.26-.48-.4-.61,1.54-.24,2.46-.65,2.99-1.31h-1.22l-.1.22c-.05.11-.08.14-.24.13l-.72-.06c-.18-.02-.19-.06-.14-.17.2-.43.37-.85.5-1.33.06-.19.11-.42.14-.64.01-.13.04-.17.14-.17.07,0,.47.02,1.63.02h.7c.02-.16.02-.31.04-.49h-1.16c-1.15,0-1.55.02-1.62.02-.12,0-.13-.01-.13-.12v-.56c0-.12.01-.13.13-.13.07,0,.47.02,1.62.02h1.17c-.01-.26-.04-.47-.08-.68.44.01.74.02,1.09.06.12.01.22.06.22.13,0,.06-.05.12-.07.19-.02.06-.05.13-.05.3h1.38ZM218.11,40.58c.12.06.17.08.17.17,0,.07-.06.13-.18.14-.13.02-.28.06-.48.18-.62.35-1.63.68-2.7.88-.11.01-.2.02-.25.02-.13,0-.16-.05-.29-.25-.17-.28-.35-.49-.53-.65,1.07-.11,2.01-.31,2.71-.61.17-.07.32-.16.5-.31.44.14.74.28,1.04.43ZM217.2,34.13c.07-.16.12-.32.17-.5h-1.37l-.14.5h1.34ZM216.73,36.46v.5h5.15v-.5h-5.15ZM221.88,38.13v-.49h-5.15v.49h5.15ZM221.88,38.84h-5.15v.5h5.15v-.5ZM222.28,35.69c-.04-.11-.07-.23-.11-.31.34.05.54.06.77.06.2,0,.28-.04.31-.18.02-.1.04-.25.05-.38h-2.19c.01.26.02.41.02.44,0,.12-.01.13-.13.13h-.86c-.13,0-.14-.01-.14-.13,0-.05.01-.19.01-.44h-1.93c-.16.3-.35.58-.61.82h4.82ZM220.02,34.13v-.5h-1.52c-.04.18-.07.35-.12.5h1.64ZM220.02,32.88v-.49h-1.39c0,.17-.01.34-.02.49h1.42ZM221.06,40.21c.16-.07.18-.08.29-.02.88.48,1.91.68,3.26.82-.19.18-.42.43-.59.73-.1.17-.14.22-.26.22-.07,0-.16-.01-.29-.04-1.12-.2-2.37-.61-3.23-1.16-.12-.08-.11-.11.05-.18l.77-.36ZM221.11,32.39v.49h1.4v-.49h-1.4Z"/><path class="uuid-34d77d09-d7f0-4222-bae0-4b9c92d42f44" d="M236.79,38.91c0,.55.02,1.16.02,1.65,0,.44-.12.74-.4.97-.23.2-.59.31-1.58.31q-.37,0-.44-.35c-.08-.38-.19-.66-.34-.91.49.04.72.05,1.12.05.28,0,.38-.12.38-.4v-1.99h-2.82v1.43c0,1.16.02,1.7.02,1.77,0,.12-.01.13-.13.13h-1.03c-.12,0-.13-.01-.13-.13,0-.08.02-.61.02-1.77v-1.43h-2.73c-.17,1.49-.49,2.41-1.04,3.32-.1.17-.16.24-.22.24s-.12-.06-.25-.19c-.29-.29-.56-.47-.85-.61.88-1.13,1.23-2.55,1.23-5.45v-1.97c0-1.25-.02-1.89-.02-1.97,0-.13.01-.14.14-.14.07,0,.49.02,1.64.02h5.64c1.16,0,1.57-.02,1.66-.02.12,0,.13.01.13.14,0,.07-.02.72-.02,1.97v5.31ZM231.49,37.14v-1.69h-2.61v.13c0,.58-.01,1.09-.04,1.56h2.65ZM231.49,34.33v-1.67h-2.61v1.67h2.61ZM232.74,32.66v1.67h2.82v-1.67h-2.82ZM235.55,37.14v-1.69h-2.82v1.69h2.82Z"/><path class="uuid-34d77d09-d7f0-4222-bae0-4b9c92d42f44" d="M240.69,32.6c-1.07,0-1.44.02-1.51.02-.12,0-.13-.01-.13-.12v-.94c0-.12.01-.13.13-.13.07,0,.44.02,1.51.02h7.3c1.08,0,1.44-.02,1.51-.02.13,0,.14.01.14.13v.94c0,.11-.01.12-.14.12-.07,0-.43-.02-1.51-.02h-3.12c-.17.48-.36.94-.59,1.37h3.14c1.14,0,1.55-.02,1.63-.02.12,0,.13.01.13.13,0,.07-.02.6-.02,2.27v2.17c0,2.66.02,3.17.02,3.24,0,.12-.01.13-.13.13h-1.02c-.12,0-.13-.01-.13-.13v-.44h-7.12v.48c0,.12-.01.13-.13.13h-1.01c-.12,0-.13-.01-.13-.13,0-.08.02-.59.02-3.26v-1.92c0-1.92-.02-2.45-.02-2.53,0-.12.01-.13.13-.13.08,0,.49.02,1.63.02h1.66c.23-.42.43-.91.59-1.37h-2.83ZM240.78,40.24h1.49v-5.23h-1.49v5.23ZM245.28,36.05v-1.03h-1.89v1.03h1.89ZM245.28,38.1v-1.04h-1.89v1.04h1.89ZM245.28,40.24v-1.14h-1.89v1.14h1.89ZM246.41,35.01v5.23h1.5v-5.23h-1.5Z"/><path class="uuid-34d77d09-d7f0-4222-bae0-4b9c92d42f44" d="M30.25,54.32c.2.11.28.18.28.29,0,.08-.02.12-.18.36-.12.22-.18.38-.29.85-.33,1.49-.5,2.96-.5,3.87,0,.59.02.98.07,1.4.25-.55.47-.95.82-1.79.1.3.25.49.42.76.04.06.08.13.08.18,0,.08-.02.13-.06.19-.28.62-.5,1.14-.68,1.81-.02.07-.04.2-.04.37,0,.14.02.24.02.34,0,.08-.05.13-.16.16-.3.08-.64.16-.98.19-.08.01-.13-.05-.16-.13-.34-.84-.55-2.36-.55-3.57,0-1.08.13-2.39.41-3.93.16-.89.22-1.28.22-1.79.54.13.92.25,1.28.44ZM32.81,59.96c.1-.01.12.05.12.18.07.83.65,1.13,1.96,1.13.9,0,1.49-.06,2.29-.16.12-.01.14,0,.17.16.04.25.07.72.07,1.03,0,.14,0,.16-.2.18-.82.1-1.39.13-1.95.13-1.78,0-2.6-.29-3.12-1-.3-.38-.42-1-.42-1.56l1.09-.1ZM32.14,55.48c.01-.14.05-.18.17-.2.71-.13,2.05-.22,2.6-.22.72,0,1.27.02,1.78.07.25.01.28.04.28.16,0,.36,0,.68-.02,1.02-.01.11-.05.16-.16.14-.72-.05-1.34-.07-1.96-.07-.8,0-1.58.07-2.72.28.01-.67.01-.97.04-1.18Z"/><path class="uuid-34d77d09-d7f0-4222-bae0-4b9c92d42f44" d="M43,53.32c.78,0,1.14-.02,1.21-.02.11,0,.12.01.12.13,0,.07-.02.41-.02,1.1v1.3c0,.71.02,1.02.02,1.09,0,.13-.01.14-.12.14-.07,0-.43-.02-1.21-.02h-1.98v4.19c0,1.68.02,2.49.02,2.58,0,.12-.01.13-.13.13h-1.01c-.12,0-.13-.01-.13-.13,0-.08.02-.9.02-2.58v-5.19c0-1.68-.02-2.52-.02-2.6,0-.12.01-.13.13-.13.08,0,.54.02,1.42.02h1.68ZM41.02,54.19v.59h2.11v-.59h-2.11ZM43.13,55.59h-2.11v.6h2.11v-.6ZM43.35,61.03c-1.1,0-1.49.02-1.55.02-.12,0-.13-.01-.13-.13v-.68c0-.12.01-.13.13-.13.06,0,.44.02,1.55.02h.77c.02-.2.05-.44.05-.71h-.6c-1.06,0-1.42.02-1.49.02-.13,0-.14-.01-.14-.13v-.68c0-.12.01-.13.14-.13.06,0,.36.02,1.13.02-.13-.28-.28-.53-.42-.73-.08-.11-.06-.16.08-.2l.66-.22c.14-.05.17-.05.24.06.19.29.41.67.6,1.09h.89c.12-.24.22-.47.32-.72.06-.16.13-.36.16-.5.37.07.7.14.98.23.11.04.19.08.19.17,0,.05-.04.1-.1.14-.1.07-.16.16-.2.24l-.23.44c.77,0,1.08-.02,1.14-.02.13,0,.14.01.14.13v.68c0,.12-.01.13-.14.13-.07,0-.43-.02-1.49-.02h-.76c-.01.25-.02.48-.06.71h1c1.09,0,1.47-.02,1.55-.02.12,0,.13.01.13.13v.68c0,.12-.01.13-.13.13-.07,0-.46-.02-1.55-.02h-.68c.53.55,1.2.86,2.18,1.15-.08.11-.18.24-.28.41.22.02.4.02.65.02.4,0,.5-.11.5-.47v-5.11h-2.02c-.95,0-1.26.02-1.33.02-.12,0-.13-.01-.13-.14,0-.07.02-.32.02-1v-1.48c0-.67-.02-.94-.02-1.02,0-.12.01-.13.13-.13.07,0,.38.02,1.33.02h1.79c.94,0,1.26-.02,1.34-.02.12,0,.13.01.13.13,0,.07-.02.58-.02,1.61v4.95c0,.84.04,1.8.04,2.39s-.08.85-.34,1.12c-.23.2-.55.32-1.44.32q-.46,0-.52-.37c-.05-.25-.11-.49-.2-.68l-.06.14c-.08.18-.12.25-.2.25-.06,0-.14-.02-.28-.08-.84-.35-1.51-.83-2.05-1.55-.44.82-1.18,1.42-2.31,1.85-.14.06-.23.08-.29.08-.08,0-.12-.06-.2-.22-.17-.31-.36-.52-.54-.68,1.34-.35,2.08-.84,2.42-1.52h-.49ZM46.32,54.19v.59h2.28v-.59h-2.28ZM48.6,56.19v-.6h-2.28v.6h2.28Z"/><path class="uuid-34d77d09-d7f0-4222-bae0-4b9c92d42f44" d="M54.87,53.76c.2.05.29.11.29.23,0,.13-.07.28-.12.4-.06.17-.11.54-.17,1.46-.12,1.85-.18,3.07-.18,4.64,0,1.21.14,1.49,1.1,1.49,1.07,0,2.73-.65,4.2-2.21.05.46.16.85.28,1.14.06.13.1.22.1.29,0,.11-.05.2-.24.37-1.3,1.19-2.99,1.8-4.55,1.8s-2.25-.61-2.25-2.45c0-2.01.11-3.74.17-5.18.02-.71.06-1.48-.12-2.19.55.06,1.13.12,1.5.22Z"/><path class="uuid-34d77d09-d7f0-4222-bae0-4b9c92d42f44" d="M67.04,55.75c-1.46.28-2.75.53-4.03.79-.46.11-.58.13-.75.19-.08.04-.17.1-.26.1-.08,0-.18-.07-.23-.18-.16-.32-.29-.74-.44-1.3.61-.02.97-.07,1.91-.2,1.48-.22,4.11-.61,7.21-1.02.18-.02.24.05.25.13.06.28.12.72.13,1.06,0,.14-.07.18-.23.18-.56.04-.95.1-1.46.26-2.04.7-3.06,2.1-3.06,3.54,0,1.55,1.1,2.39,3.19,2.52.19,0,.26.05.26.18,0,.31-.05.73-.13,1.03-.04.18-.08.25-.23.25-2.11,0-4.43-1.21-4.43-3.71,0-1.7.85-2.85,2.3-3.8v-.02Z"/><path class="uuid-34d77d09-d7f0-4222-bae0-4b9c92d42f44" d="M76.54,60.86c0,1.1.48,1.54,1.59,1.54,1.4,0,2.18-.54,2.18-1.62,0-.67-.17-1.22-1.08-2.18.48.06.74,0,1.22-.07.08-.02.18-.01.25.05.66.62,1.02,1.44,1.02,2.25,0,1.7-1.39,2.81-3.46,2.81s-3.02-.96-3.02-2.71c0-.25.04-.59.08-1.13-.72-.11-1.2-.22-1.63-.36-.08-.02-.12-.08-.13-.23-.04-.37-.05-.74-.02-1.12.72.26,1.26.4,1.94.47.06-.44.16-1.22.2-1.71-.84-.11-1.27-.18-1.73-.34-.14-.04-.19-.1-.19-.2-.01-.29-.04-.68-.04-1.12.82.26,1.39.37,2.17.46.1-.7.13-1.02.16-1.38.02-.34.02-.68-.01-1.01.55.07,1.18.23,1.44.34.17.06.26.17.26.28,0,.08-.04.16-.1.23-.08.08-.14.24-.22.52-.06.28-.13.68-.19,1.13.48.04.97,0,1.48-.07.08,0,.12.06.12.14.01.29.01.62-.02.9,0,.13-.05.17-.19.18-.53.06-1.07.07-1.59.06-.07.42-.19,1.24-.26,1.71.64.01,1.13,0,1.7-.04.16-.02.19.02.19.13,0,.22-.02.65-.06.9-.01.14-.05.19-.17.19-.6.05-1.22.05-1.83.04-.06.47-.07.76-.07.97Z"/><path class="uuid-34d77d09-d7f0-4222-bae0-4b9c92d42f44" d="M87.02,53.76c.2.05.29.11.29.23,0,.13-.07.28-.12.4-.06.17-.11.54-.17,1.46-.12,1.85-.18,3.07-.18,4.64,0,1.21.14,1.49,1.1,1.49,1.07,0,2.73-.65,4.2-2.21.05.46.16.85.28,1.14.06.13.1.22.1.29,0,.11-.05.2-.24.37-1.3,1.19-2.99,1.8-4.55,1.8s-2.25-.61-2.25-2.45c0-2.01.11-3.74.17-5.18.02-.71.06-1.48-.12-2.19.55.06,1.13.12,1.5.22Z"/><path class="uuid-34d77d09-d7f0-4222-bae0-4b9c92d42f44" d="M96.88,57.88c1.48-.49,2.64-.73,3.5-.73,1.63,0,2.73,1.07,2.73,2.57,0,1.22-.58,2.07-1.71,2.69-.62.35-1.46.68-2.48.79-.22.04-.31-.01-.4-.17-.13-.24-.35-.5-.73-.79,1.4-.22,2.06-.42,2.89-.83.68-.36,1.08-.92,1.08-1.79s-.53-1.32-1.49-1.32c-.83,0-2.09.41-3.39.94-.3.13-.54.28-.67.37-.1.08-.17.12-.24.12-.11,0-.19-.07-.31-.22-.28-.35-.46-.77-.65-1.16.6-.1,1.19-.25,1.87-.47Z"/><path class="uuid-34d77d09-d7f0-4222-bae0-4b9c92d42f44" d="M108.76,54.8c.06-.36.12-.83.12-1.33.62.13.96.22,1.44.4.12.04.19.13.19.24,0,.06-.02.12-.08.18-.12.16-.18.29-.24.46-.16.49-.28.94-.43,1.44.32-.04.68-.05.94-.05,1.13,0,1.74.77,1.74,2.22s-.24,2.99-.65,3.85c-.35.77-.92,1.13-1.62,1.13-.58,0-.92-.05-1.19-.13-.14-.05-.22-.16-.22-.34-.04-.38-.06-.72-.23-1.12.54.2.95.26,1.32.26.4,0,.58-.14.77-.64.25-.67.47-1.81.47-2.97,0-.85-.16-1.12-.68-1.12-.29,0-.66.04-1.01.08-.79,2.3-1.48,3.96-2.41,5.64-.07.16-.17.18-.31.11-.22-.11-.68-.4-.83-.53-.06-.06-.1-.11-.1-.18,0-.04.01-.08.05-.13.96-1.67,1.58-2.94,2.19-4.7-.47.07-.85.14-1.17.2-.31.06-.5.13-.66.19-.17.06-.31.04-.38-.16-.11-.28-.24-.71-.37-1.24.53,0,1.05-.04,1.58-.08.5-.05.95-.11,1.42-.18.19-.68.28-1.1.36-1.51ZM113.64,55.6c.08-.05.14-.02.23.06.82.77,1.55,1.76,1.99,2.91.05.11.04.17-.05.24-.2.19-.66.48-.9.6-.12.06-.24.05-.28-.1-.48-1.26-1.1-2.29-1.97-3.11.3-.2.65-.44.97-.61Z"/><path class="uuid-34d77d09-d7f0-4222-bae0-4b9c92d42f44" d="M120.48,53.79c.16.06.23.13.23.24,0,.07-.02.12-.08.19-.08.1-.14.26-.22.56-.17.82-.26,1.67-.34,2.29-.02.43-.06.89-.04,1.32.26-.47.52-.92.84-1.54.11.36.23.58.37.78.06.07.07.13.07.19,0,.1-.05.19-.12.3-.26.5-.54,1.01-.71,1.54-.04.11-.05.22-.06.36,0,.12-.05.17-.16.19-.14.04-.66.11-.96.14-.08.01-.14-.07-.17-.16-.19-.52-.36-1.44-.36-2.43,0-.8.13-1.79.29-2.99.05-.42.1-.83.1-1.37.54.11,1,.23,1.31.37ZM124.38,53.58c.24.06.26.12.24.32-.02.17-.02.38-.02.55.08,1.14.17,2.23.17,3.09,0,1.7-.28,3.18-.91,4.16-.47.74-1.22,1.45-1.98,1.93-.08.06-.17.08-.24.08-.08,0-.16-.04-.25-.13-.26-.23-.64-.44-1.02-.55.97-.54,1.56-.97,2.04-1.61.7-.95,1.01-1.93,1.01-3.83,0-.85-.06-2.1-.14-2.87-.06-.59-.12-.89-.25-1.31.53.02,1.02.05,1.37.14Z"/><path class="uuid-34d77d09-d7f0-4222-bae0-4b9c92d42f44" d="M130.64,55.66c-.68,0-1.42.05-2.12.1-.14.01-.19-.07-.22-.18-.1-.34-.17-.94-.22-1.3.82.06,1.47.08,2.43.08h5.15c.5,0,.71-.02.83-.07.06-.02.17-.08.23-.08.1,0,.19.07.28.17.26.23.49.48.72.76.06.07.1.14.1.22,0,.1-.06.18-.17.25-.13.1-.23.22-.32.35-.56.85-1.31,1.68-2.11,2.31-.07.07-.16.11-.25.11s-.2-.05-.29-.12c-.3-.24-.6-.37-1-.49.96-.72,1.55-1.24,2.15-2.1h-5.18ZM131.31,60.34c.46-.85.59-1.67.59-2.83,0-.44-.02-.72-.12-1.13.59.06,1.21.14,1.55.23.16.04.2.12.2.23,0,.07-.02.14-.06.22-.08.17-.1.29-.11.49-.04,1.16-.16,2.23-.71,3.3-.47.9-1.19,1.75-2.18,2.39-.11.07-.22.12-.34.12-.08,0-.17-.04-.24-.11-.29-.25-.64-.44-1.09-.61,1.31-.68,1.99-1.33,2.51-2.29Z"/><path class="uuid-34d77d09-d7f0-4222-bae0-4b9c92d42f44" d="M142.87,56.85c1.46.46,2.63.92,3.81,1.63.13.07.19.16.13.31-.16.4-.35.77-.52,1.04-.05.08-.1.13-.16.13-.04,0-.08-.01-.13-.06-1.1-.71-2.18-1.24-3.15-1.54v2.65c0,.78.02,1.49.05,2.35.01.14-.05.18-.22.18-.35.02-.72.02-1.07,0-.17,0-.23-.04-.23-.18.04-.89.05-1.6.05-2.36v-5.9c0-.9-.04-1.3-.12-1.77.55.04,1.15.1,1.5.19.17.04.23.11.23.2,0,.07-.04.17-.1.28-.08.16-.08.46-.08,1.13v1.72ZM145.67,53.9c.06-.05.11-.04.18.02.37.29.8.77,1.14,1.28.05.07.05.13-.04.19l-.5.37c-.08.06-.14.05-.2-.04-.36-.55-.74-1.01-1.21-1.39l.64-.44ZM146.74,53.12c.07-.05.11-.04.18.02.44.34.88.82,1.14,1.24.05.07.06.14-.04.22l-.48.37c-.1.07-.16.04-.2-.04-.32-.52-.71-.97-1.2-1.38l.6-.43Z"/><path class="uuid-34d77d09-d7f0-4222-bae0-4b9c92d42f44" d="M151.53,57.52c.32-.73.5-1.34.54-1.77.61.22,1.15.43,1.49.61.11.05.14.12.14.19,0,.08-.05.17-.12.24-.13.13-.23.3-.42.73-.71,1.6-1.42,2.82-2.57,4.03-.11.12-.22.18-.34.18-.1,0-.18-.04-.28-.12-.24-.19-.62-.38-1.05-.52,1.26-1.12,2.12-2.48,2.6-3.57ZM156.01,55.89c.06-.05.12-.07.17-.07.06,0,.11.02.18.1,1.31,1.31,2.31,2.87,3.01,4.4.04.06.05.11.05.17,0,.07-.04.13-.12.19-.23.18-.61.43-1,.64-.16.07-.24.05-.29-.11-.89-2-1.78-3.41-2.96-4.67.43-.29.76-.52.96-.65ZM157.41,54.45c.06-.05.11-.04.18.02.37.29.8.77,1.14,1.28.05.07.05.13-.04.19l-.5.37c-.08.06-.14.05-.2-.04-.36-.55-.74-1.01-1.21-1.39l.64-.44ZM158.48,53.67c.07-.05.11-.04.18.02.44.34.88.82,1.14,1.24.05.07.06.14-.04.22l-.48.37c-.1.07-.16.04-.2-.04-.32-.52-.71-.97-1.2-1.38l.6-.43Z"/><path class="uuid-34d77d09-d7f0-4222-bae0-4b9c92d42f44" d="M167.75,60.77c0,.83.01,1.54.04,2.49.01.16-.05.2-.18.2-.38.02-.82.02-1.2,0-.13,0-.18-.05-.17-.19.01-.86.05-1.64.05-2.46v-2.79c-1.05.89-2.34,1.8-3.3,2.3-.06.04-.12.05-.18.05-.1,0-.17-.04-.25-.12-.28-.28-.67-.52-1.03-.71,1.66-.85,2.67-1.55,3.78-2.46.95-.78,1.81-1.62,2.55-2.51.41-.48.56-.72.76-1.24.54.3,1.07.62,1.33.84.07.05.1.12.1.18,0,.1-.07.2-.17.26-.2.13-.4.31-.72.66-.47.56-.91,1.03-1.4,1.51v3.97Z"/><path class="uuid-34d77d09-d7f0-4222-bae0-4b9c92d42f44" d="M178.78,54.67c.43,0,.65-.01.83-.11.05-.04.08-.05.13-.05.07,0,.13.05.2.1.28.22.55.53.78.84.04.06.06.11.06.16,0,.07-.05.16-.16.24-.16.13-.31.31-.44.53-.49.84-.96,1.51-1.54,2.24,1.15.85,2.22,1.79,3.32,2.9.06.06.1.12.1.17s-.02.11-.08.18c-.23.28-.5.56-.8.82-.05.05-.1.07-.14.07-.06,0-.11-.04-.17-.1-1.01-1.18-2.04-2.12-3.12-2.97-1.36,1.42-2.72,2.43-4.03,3.17-.11.05-.19.1-.28.1-.07,0-.14-.04-.2-.11-.26-.32-.61-.56-1.01-.78,1.87-.95,2.99-1.8,4.22-3.06.86-.9,1.52-1.75,2.25-3.01h-3.09c-.62.01-1.25.04-1.89.08-.1.01-.13-.07-.16-.2-.06-.25-.11-.83-.11-1.25.65.05,1.25.05,2.03.05h3.3Z"/><path class="uuid-34d77d09-d7f0-4222-bae0-4b9c92d42f44" d="M187.89,62.47c0,.96-.78,1.73-1.74,1.73s-1.74-.77-1.74-1.73.78-1.73,1.74-1.73,1.74.77,1.74,1.73ZM185.16,62.47c0,.56.43,1,1,1s1-.43,1-1-.43-1-1-1-1,.43-1,1Z"/><rect class="uuid-05d8618d-97d4-4fe4-9bab-0060a0f46908" width="280" height="100"/></g></svg>