<?xml version="1.0" encoding="UTF-8"?><svg id="uuid-64b416ae-32ba-401c-94fc-2621ed4fef42" xmlns="http://www.w3.org/2000/svg" width="299.35" height="36.02" viewBox="0 0 299.35 36.02"><defs><style>.uuid-7a7dcc48-41ac-4219-9508-71ffdec4d9c0{stroke:#b11f3a;stroke-miterlimit:10;stroke-width:2px;}.uuid-7a7dcc48-41ac-4219-9508-71ffdec4d9c0,.uuid-565eeb86-96c8-42c8-8e8c-1d7f49a7f64e{fill:none;}.uuid-abeec6eb-1b5a-4d34-8849-13117f1969a7{fill:#1c1c1c;}</style></defs><g id="uuid-871518be-25bf-4320-b2af-2f06f10d0506"><path class="uuid-abeec6eb-1b5a-4d34-8849-13117f1969a7" d="M108.16,17.08c-.28.2-.55.38-.82.54,1.07,1.31,1.57,2.77,1.57,4.25,0,1.68-.41,2.24-1.81,2.24-.2,0-.41,0-.62-.02q-.32-.02-.38-.32c-.08-.35-.19-.65-.35-.86.53.06,1,.07,1.25.07.5,0,.73-.14.73-1.15,0-.22-.01-.44-.04-.65-1.42,1.08-2.81,1.81-4.47,2.43-.14.05-.23.08-.29.08-.1,0-.14-.07-.24-.26-.18-.34-.31-.48-.56-.7,2.15-.62,3.79-1.44,5.32-2.65-.07-.19-.14-.38-.24-.58-1.16.77-2.39,1.32-3.79,1.81-.14.05-.23.08-.29.08-.08,0-.13-.07-.23-.25-.16-.28-.34-.49-.53-.67,1.83-.41,3.07-.97,4.37-1.8-.11-.17-.22-.33-.35-.5-.83.43-1.64.75-2.58,1.04-.35.1-.36.08-.49-.14-.19-.36-.31-.49-.55-.71,1.58-.34,2.75-.74,3.75-1.28h-.62c-1.14,0-1.54.02-1.61.02-.13,0-.14-.01-.14-.14v-.76c0-.13.01-.14.14-.14.07,0,.47.02,1.61.02h3.41c1.15,0,1.55-.02,1.62-.02.12,0,.13.01.13.14v.76c0,.13-.01.14-.13.14-.07,0-.47-.02-1.58-.02.16.65.35,1.24.59,1.76.23-.22.46-.44.74-.78.2-.23.38-.5.52-.72.37.25.64.46.88.67.13.1.18.17.18.24,0,.1-.08.16-.16.18-.16.06-.28.23-.53.48-.36.35-.73.68-1.08.96.65,1,1.52,1.8,2.7,2.48-.25.25-.47.49-.65.83-.11.19-.16.28-.24.28-.05,0-.12-.06-.25-.14-2.03-1.49-3.13-3.51-3.83-6.24h-.06ZM110.95,14.18c1.1,0,1.5-.02,1.58-.02.12,0,.13.01.13.13,0,.07-.02.28-.02.58v.49c0,1.02.02,1.21.02,1.28,0,.12-.01.13-.13.13h-.98c-.12,0-.13-.01-.13-.13v-1.42h-7.63v1.42c0,.12-.01.13-.13.13h-.98c-.12,0-.13-.01-.13-.13,0-.07.02-.26.02-1.28v-.4c0-.4-.02-.59-.02-.67,0-.12.01-.13.13-.13.08,0,.48.02,1.58.02h2.63v-.02c0-.4-.01-.72-.08-1.02.43.01.88.04,1.3.07.12.01.18.06.18.11,0,.08-.04.14-.07.24-.04.1-.06.25-.06.6v.02h2.81Z"/><path class="uuid-abeec6eb-1b5a-4d34-8849-13117f1969a7" d="M118.81,15.01c.06-.36.12-.83.12-1.33.62.13.96.22,1.44.4.12.04.19.13.19.24,0,.06-.02.12-.08.18-.12.16-.18.29-.24.46-.16.49-.28.94-.43,1.44.32-.04.68-.05.96-.05,1.12,0,1.72.78,1.72,2.31,0,1.29-.24,2.89-.65,3.75-.35.77-.92,1.13-1.62,1.13-.58,0-.98-.06-1.25-.18-.14-.06-.21-.16-.21-.34-.04-.38-.06-.72-.23-1.12.54.25,1.01.31,1.38.31.4,0,.58-.14.77-.64.25-.67.47-1.81.47-2.99,0-.84-.16-1.1-.68-1.1-.29,0-.66.04-1.01.08-.79,2.3-1.48,3.96-2.41,5.64-.07.16-.17.18-.31.11-.22-.11-.68-.4-.83-.53-.06-.06-.1-.11-.1-.18,0-.04.01-.08.05-.13.96-1.67,1.58-2.94,2.19-4.7-.47.07-.85.14-1.17.2-.31.06-.5.13-.66.19-.17.06-.31.04-.38-.16-.11-.28-.24-.71-.37-1.24.53,0,1.05-.04,1.58-.08.5-.05.95-.11,1.42-.18.19-.68.28-1.1.36-1.51ZM123.56,15.81c.08-.05.14-.02.23.06.81.77,1.55,1.76,1.99,2.91.05.11.04.17-.05.24-.2.19-.66.48-.9.6-.12.06-.24.05-.28-.1-.48-1.26-1.1-2.29-1.97-3.11.3-.2.65-.44.97-.61ZM123.88,14.13c.06-.05.11-.04.18.02.37.29.8.77,1.14,1.28.05.07.05.13-.04.19l-.5.37c-.08.06-.14.05-.2-.04-.36-.55-.74-1.01-1.21-1.39l.64-.44ZM124.95,13.35c.07-.05.11-.04.18.02.44.34.88.82,1.14,1.24.05.07.06.14-.04.22l-.48.37c-.1.07-.16.04-.2-.04-.32-.52-.71-.97-1.2-1.38l.6-.43Z"/><path class="uuid-abeec6eb-1b5a-4d34-8849-13117f1969a7" d="M131.25,21.66c.78.66,1.85,1.01,3.71,1.01s3.02-.05,4.56-.23c-.17.28-.29.56-.34.88q-.08.4-.46.41c-1.2.08-2.23.12-3.78.12s-3.05-.18-4.1-1.1c-.08-.07-.17-.13-.24-.22-.35.47-.77.9-1.26,1.33-.13.11-.2.17-.26.17-.07,0-.12-.08-.22-.24-.18-.31-.4-.55-.62-.74.64-.47,1.15-.94,1.56-1.46-.35-.5-.66-1.1-.94-1.83-.08-.19-.08-.23.07-.31l.59-.31c.2-.11.22-.06.3.14.17.53.36.96.58,1.33.3-.63.5-1.39.62-2.31h-1.03l-.19.29c-.05.07-.08.11-.14.11-.08,0-.22-.06-.5-.19-.36-.17-.48-.22-.48-.29,0-.04.02-.08.07-.14.79-1.1,1.37-2.15,1.83-3.14h-.79c-.78,0-1.02.02-1.09.02-.12,0-.13-.01-.13-.13v-.89c0-.13.01-.14.13-.14.07,0,.31.02,1.09.02h1.31c.12,0,.22-.01.26-.02.05-.01.1-.04.14-.04.07,0,.16.05.4.35.2.26.31.41.31.52s-.05.14-.12.2c-.13.07-.23.28-.32.44-.28.5-.64,1.2-1.09,1.97h.58c.12,0,.2-.01.28-.06.07-.04.1-.06.16-.06.1,0,.19.07.43.35.24.25.29.34.29.43s-.04.14-.13.24c-.08.1-.11.23-.14.42-.17,1.21-.46,2.21-.94,3.08l.06.05ZM133.87,21.44c-1.14,0-1.54.02-1.61.02-.12,0-.13-.01-.13-.14v-.73c0-.13.01-.14.13-.14.07,0,.47.02,1.61.02h.96v-.67h-.53c-1.08,0-1.46.02-1.54.02-.12,0-.13-.01-.13-.13v-.7c0-.12.01-.13.13-.13.07,0,.46.02,1.54.02h.53v-.67h-.65c-.94,0-1.24.02-1.31.02-.12,0-.13-.01-.13-.13v-.67c0-.12.01-.13.13-.13.07,0,.37.02,1.31.02h.65v-.67h-1.08c-1.1,0-1.48.02-1.55.02-.12,0-.13-.01-.13-.14v-.71c0-.12.01-.13.13-.13.07,0,.44.02,1.55.02h1.08v-.66h-.44c-1.07,0-1.42.02-1.49.02-.12,0-.13-.01-.13-.13v-.7c0-.12.01-.13.13-.13.07,0,.42.02,1.49.02h.44c-.01-.42-.04-.7-.08-.97.46.01.78.04,1.18.08.12.01.19.05.19.12s-.04.12-.07.19c-.05.08-.07.2-.07.58h.7c1.1,0,1.63-.02,1.7-.02.13,0,.14.01.14.13,0,.07-.02.43-.02,1.19v.28c.37,0,.74-.02.8-.02.12,0,.13.01.13.13v.72c0,.12-.01.13-.13.13-.06,0-.43-.01-.8-.02v.29c0,.75.02,1.1.02,1.16,0,.12-.01.13-.14.13-.07,0-.6-.02-1.7-.02h-.7v.67h1.01c1.08,0,1.45-.02,1.52-.02.13,0,.14.01.14.13v.7c0,.12-.01.13-.14.13-.07,0-.44-.02-1.52-.02h-1.01v.67h1.41c1.15,0,1.55-.02,1.62-.02.12,0,.13.01.13.14v.73c0,.13-.01.14-.13.14-.07,0-.47-.02-1.62-.02h-1.41c.01.53.02.78.02.83,0,.13-.01.14-.13.14h-.91c-.13,0-.14-.01-.14-.14,0-.02.01-.3.01-.83h-.95ZM135.97,15.05v.66h1.4v-.66h-1.4ZM137.37,16.65h-1.4v.67h1.4v-.67Z"/><path class="uuid-abeec6eb-1b5a-4d34-8849-13117f1969a7" d="M143.87,18.09c1.48-.49,2.64-.73,3.5-.73,1.63,0,2.73,1.07,2.73,2.57,0,1.22-.58,2.07-1.71,2.69-.62.35-1.46.68-2.48.79-.22.04-.31-.01-.4-.17-.13-.24-.35-.5-.73-.79,1.4-.22,2.06-.42,2.89-.83.68-.36,1.08-.92,1.08-1.79s-.53-1.32-1.49-1.32c-.83,0-2.09.41-3.39.94-.3.13-.54.28-.67.37-.1.08-.17.12-.24.12-.11,0-.19-.07-.31-.22-.28-.35-.46-.77-.65-1.16.6-.1,1.19-.25,1.87-.47Z"/><path class="uuid-abeec6eb-1b5a-4d34-8849-13117f1969a7" d="M158.85,15.32c.13-.04.18.02.19.12.04.26.07.61.08.86.01.16-.02.19-.18.23-.74.2-1.35.34-2.09.46-.82,2.66-1.43,4.5-2.2,6.49-.06.17-.13.16-.26.12-.12-.05-.71-.3-.96-.44-.1-.06-.13-.16-.1-.24.91-2.1,1.49-3.68,2.07-5.69-.7.07-1.54.13-2.1.13-.18,0-.23-.04-.25-.19-.05-.25-.11-.66-.17-1.09.25.04.39.04.89.04.6,0,1.25-.04,1.94-.12.12-.48.22-1.01.3-1.5.05-.36.07-.72.07-1.1.64.1,1.13.18,1.51.34.1.04.13.12.13.19,0,.05,0,.11-.06.19-.1.17-.19.29-.25.48-.12.43-.2.84-.29,1.14.47-.08,1.12-.24,1.7-.41ZM158.38,21.05c.12,0,.17.05.18.17.1.88.68,1.13,1.83,1.13.67,0,1.54-.11,2.01-.17.1-.01.13.01.14.11.05.31.1.72.1,1.04.01.14,0,.18-.19.19-.41.06-1.19.13-1.63.13-1.57,0-2.39-.22-2.93-.78-.38-.38-.52-.95-.54-1.64.37-.1.86-.18,1.02-.18ZM158.25,17.87c0-.17.04-.2.22-.24.76-.16,1.64-.28,2.34-.28.47,0,.98.05,1.4.12.17.02.2.04.2.18.02.3.02.63.01.96,0,.2-.06.25-.23.22-.42-.08-.97-.14-1.49-.14-.72,0-1.63.12-2.41.28-.02-.42-.05-.85-.05-1.09Z"/><path class="uuid-abeec6eb-1b5a-4d34-8849-13117f1969a7" d="M166.52,20.79c0-.37.01-.89.02-1.33-.22.22-.43.42-.65.6-.13.1-.22.16-.28.16s-.11-.07-.16-.24c-.1-.34-.26-.68-.41-.86.94-.74,1.82-1.73,2.42-2.66.12-.18.24-.41.31-.64.32.17.62.36.89.55.11.08.16.13.16.22,0,.06-.02.1-.08.13-.1.06-.17.14-.26.29-.24.38-.5.77-.78,1.13v4.43c0,.96.03,1.42.03,1.48,0,.12-.01.13-.13.13h-.98c-.11,0-.12-.01-.12-.13,0-.07.02-.52.02-1.48v-1.76ZM168.6,13.74c.11.07.17.13.17.22s-.07.13-.19.2c-.08.05-.19.14-.32.32-.55.68-1.21,1.37-2.06,1.99-.13.1-.22.14-.28.14-.08,0-.14-.08-.23-.29-.13-.29-.34-.55-.52-.71.84-.5,1.57-1.18,2.15-1.9.17-.22.26-.37.35-.55.35.14.63.35.94.56ZM174.29,16.18c.13-.08.16-.07.23.01.67.74,1.16,1.52,1.57,2.3.06.12.04.16-.08.23l-.72.4c-.14.08-.17.08-.23-.05-.12-.25-.24-.5-.37-.76-1.2.14-2.58.26-3.75.36.25.05.46.1.66.14.13.04.2.08.2.17,0,.07-.05.13-.14.18-.05.02-.12.1-.19.19h2.09c.12,0,.19-.01.25-.04.05-.02.11-.05.17-.05.1,0,.18.06.48.35.26.28.31.37.31.48,0,.1-.04.16-.13.22-.1.05-.19.16-.36.4-.35.49-.73.92-1.15,1.31.88.41,1.94.67,3.24.86-.17.2-.31.5-.41.8q-.12.36-.49.29c-1.27-.29-2.36-.67-3.29-1.22-.91.59-1.98,1.02-3.29,1.29-.36.07-.37.07-.52-.28-.11-.26-.24-.48-.42-.7,1.28-.2,2.35-.54,3.24-1.02-.38-.31-.73-.67-1.05-1.08-.38.35-.82.66-1.26.92-.14.08-.22.13-.28.13-.08,0-.13-.08-.24-.28-.13-.22-.3-.41-.48-.58,1.08-.56,1.75-1.1,2.28-1.8.12-.14.28-.41.38-.68-.35.04-.67.06-.96.07-.3.02-.54.06-.65.11-.08.04-.16.08-.23.08-.11,0-.16-.1-.18-.22-.06-.35-.11-.72-.14-1.09.31.02.66.04.95.02.34,0,.67-.01,1.02-.02l.46-.47c-.65-.62-1.24-1.12-1.91-1.62-.05-.04-.07-.07-.07-.11s.02-.07.08-.14l.48-.56c.1-.12.12-.11.22-.04.14.12.3.23.46.33.28-.36.58-.77.91-1.29.12-.19.22-.4.31-.65.35.12.76.29,1.04.44.11.06.16.12.16.2,0,.07-.06.14-.14.19-.1.05-.19.13-.35.35-.37.49-.73.97-1.12,1.43.25.2.49.41.71.62.49-.56.94-1.1,1.34-1.64.14-.18.31-.43.41-.67.4.16.76.31,1.03.44.13.07.18.12.18.2s-.06.16-.16.19c-.11.05-.21.16-.42.42-.56.72-1.31,1.5-2.1,2.29.77-.05,1.52-.1,2.27-.17-.17-.23-.35-.46-.53-.68-.08-.1-.06-.14.07-.22l.61-.34ZM170.92,20.32c.34.44.73.82,1.19,1.14.41-.34.77-.71,1.08-1.14h-2.27Z"/><path class="uuid-abeec6eb-1b5a-4d34-8849-13117f1969a7" d="M180.96,14.29c.13.07.18.14.18.24,0,.08-.04.17-.08.26-.08.14-.13.31-.22.66-.4,1.81-.6,3.49-.6,4.37,0,.48,0,1.03.04,1.54.24-.55.49-1.07.74-1.67.17.38.26.55.42.76.05.06.07.11.07.17s-.02.12-.07.19c-.42.95-.56,1.48-.61,1.82-.05.34-.02.52-.01.64.01.08-.04.12-.14.16-.23.08-.58.16-.9.2-.13.04-.18.02-.24-.14-.34-.85-.52-2.28-.52-3.66,0-1.15.1-2.11.49-4.54.06-.42.13-.94.08-1.42.48.12,1.13.31,1.37.43ZM185.09,17.49c-.82.02-1.66.05-2.47-.01-.16,0-.2-.04-.22-.16-.05-.29-.08-.72-.08-1.09.9.08,1.83.1,2.73.04,0-.43-.01-.82-.01-1.26-.01-.43-.05-.74-.16-1.17.7.06,1.06.11,1.45.23.13.04.22.1.22.2,0,.06-.02.1-.07.2-.05.11-.08.26-.1.42-.02.41-.02.72-.02,1.27.56-.05,1.19-.13,1.7-.22.14-.04.17.01.19.14.05.22.07.6.07.85,0,.11-.05.17-.13.18-.43.11-1.22.2-1.85.25,0,1.34.02,2.18.08,3.21.71.29,1.32.62,1.99,1.15.11.07.12.11.06.24-.16.31-.35.65-.55.92-.04.05-.07.07-.11.07s-.07-.02-.11-.06c-.37-.35-.77-.65-1.3-.96-.1,1.01-.78,1.56-2.19,1.56s-2.15-.65-2.15-1.68.89-1.69,2.1-1.69c.31,0,.67.04.96.1-.02-.92-.04-1.8-.05-2.75ZM184.12,21.22c-.56,0-.9.2-.9.58s.26.6.97.6c.6,0,.98-.35.98-.78,0-.08,0-.14-.01-.24-.38-.12-.71-.16-1.04-.16Z"/><path class="uuid-abeec6eb-1b5a-4d34-8849-13117f1969a7" d="M192.06,16.13c.23-1.61,1.38-2.57,3.15-2.57,1.87,0,3.08,1,3.08,2.53,0,.84-.36,1.54-1.43,2.43-1,.83-1.14,1.21-1.15,2.33h-1.24v-.29c0-1.19.25-1.73,1.1-2.58s1.09-1.28,1.09-1.89c0-.82-.56-1.33-1.45-1.33-.95,0-1.55.64-1.62,1.73l-1.55-.36ZM195.95,22.02v1.62h-1.7v-1.62h1.7Z"/><line class="uuid-7a7dcc48-41ac-4219-9508-71ffdec4d9c0" x1="68.9" y1="32.92" x2="52.09" y2="9.23"/><line class="uuid-7a7dcc48-41ac-4219-9508-71ffdec4d9c0" x1="231.68" y1="32.92" x2="248.49" y2="9.23"/><rect class="uuid-565eeb86-96c8-42c8-8e8c-1d7f49a7f64e" width="299.35" height="36.02"/></g></svg>