<?xml version="1.0" encoding="UTF-8"?><svg id="uuid-c029c24e-f96b-4216-8a72-961395a5a157" xmlns="http://www.w3.org/2000/svg" width="280" height="150" viewBox="0 0 280 150"><defs><style>.uuid-9dda8570-7b55-4b00-930f-468d27f68f35{stroke:#b11f3a;stroke-miterlimit:10;stroke-width:2px;}.uuid-9dda8570-7b55-4b00-930f-468d27f68f35,.uuid-f7579a8b-6824-4735-84d0-89d51447823f{fill:none;}</style></defs><g id="uuid-290b9cf5-c411-4ca0-9c30-e3ebdb7d6614"><circle class="uuid-9dda8570-7b55-4b00-930f-468d27f68f35" cx="204.7" cy="33.79" r="19.12"/><polyline class="uuid-9dda8570-7b55-4b00-930f-468d27f68f35" points="206.9 45.81 210.33 24.58 192.99 37.31 201.68 38.73"/><line class="uuid-9dda8570-7b55-4b00-930f-468d27f68f35" x1="143.31" y1="39.83" x2="143.31" y2="115.47"/><line class="uuid-9dda8570-7b55-4b00-930f-468d27f68f35" x1="108.6" y1="50.62" x2="103.58" y2="55.01"/><line class="uuid-9dda8570-7b55-4b00-930f-468d27f68f35" x1="120.68" y1="72.41" x2="115.66" y2="76.8"/><line class="uuid-9dda8570-7b55-4b00-930f-468d27f68f35" x1="126.9" y1="75.64" x2="121.89" y2="80.03"/><line class="uuid-9dda8570-7b55-4b00-930f-468d27f68f35" x1="181.34" y1="92.6" x2="176.32" y2="96.99"/><line class="uuid-9dda8570-7b55-4b00-930f-468d27f68f35" x1="187.56" y1="95.83" x2="182.55" y2="100.22"/><line class="uuid-9dda8570-7b55-4b00-930f-468d27f68f35" x1="166.64" y1="59.92" x2="161.63" y2="64.31"/><line class="uuid-9dda8570-7b55-4b00-930f-468d27f68f35" x1="172.86" y1="63.15" x2="167.85" y2="67.54"/><line class="uuid-9dda8570-7b55-4b00-930f-468d27f68f35" x1="102.97" y1="99.1" x2="97.95" y2="103.49"/><line class="uuid-9dda8570-7b55-4b00-930f-468d27f68f35" x1="109.19" y1="102.33" x2="104.18" y2="106.72"/><polyline class="uuid-9dda8570-7b55-4b00-930f-468d27f68f35" points="207.53 64.31 207.46 127.74 79.09 127.74 79.09 27.55 174.48 27.55"/><rect class="uuid-f7579a8b-6824-4735-84d0-89d51447823f" width="280" height="150"/></g></svg>