<?xml version="1.0" encoding="UTF-8"?><svg id="uuid-5eb8d5f7-434a-4ca2-b49f-89e1fad2362b" xmlns="http://www.w3.org/2000/svg" width="280" height="100" viewBox="0 0 280 100"><defs><style>.uuid-b96c7165-61bc-402b-9656-36563074d637{fill:none;}.uuid-ba9df6b6-9187-47e1-82ed-a500ecc42b8c{fill:#1c1c1c;}</style></defs><g id="uuid-dc58a0a6-eabe-47d0-9542-debac01d21d2"><path class="uuid-ba9df6b6-9187-47e1-82ed-a500ecc42b8c" d="M33.37,32.58c-.98,0-1.29.02-1.37.02-.12,0-.13-.01-.13-.13v-.89c0-.12.01-.13.13-.13.07,0,.38.02,1.37.02h2.19c.84,0,1.21-.02,1.28-.02.11,0,.12.01.12.13,0,.07-.02.4-.02,1.09v1.25c0,.71.02,1.02.02,1.09,0,.12-.01.13-.12.13-.07,0-.44-.02-1.28-.02h-2.08c-.06.48-.13.95-.23,1.42h2.54c.91,0,1.2-.02,1.27-.02.12,0,.14.02.14.16l-.06.88c-.14,1.99-.38,2.9-.62,3.35-.3.6-.89.91-1.75.91-.29,0-.61-.01-.92-.04-.36-.02-.37-.02-.43-.41-.06-.42-.13-.71-.24-.95.58.08,1.02.13,1.45.13.36.01.55-.08.67-.26.17-.28.42-.79.54-2.66h-2.82l-.17.65c-.04.13-.05.14-.67.06-.61-.07-.65-.1-.61-.22.32-1.07.55-2.16.66-3.09.04-.26.07-.55.07-.83,0-.12.05-.17.17-.17.07,0,.43.02,1.15.02h2.03v-1.46h-2.29ZM39.62,33.02c0-1.06-.01-1.43-.12-2.02.47.01,1.01.04,1.42.08.12.01.19.06.19.12,0,.08-.04.16-.07.24-.06.16-.1.46-.1,1.54v6.8c0,1.31.02,1.98.02,2.04,0,.12-.01.13-.13.13h-1.1c-.12,0-.13-.01-.13-.13,0-.07.02-.72.02-2.03v-6.78Z"/><path class="uuid-ba9df6b6-9187-47e1-82ed-a500ecc42b8c" d="M46.85,32.27c-.11-.26-.22-.5-.42-.77.48-.08.97-.13,1.45-.13.17,0,.26.1.26.22,0,.07-.02.16-.02.23,0,.11.02.23.05.36.08.31.12.42.19.62.94-.18,1.6-.36,2.45-.64.11-.05.17-.04.2.06.07.23.16.56.2.8.02.12-.06.19-.14.22-.8.25-1.54.43-2.35.61.11.3.26.67.42,1.01.97-.2,1.61-.41,2.18-.62.12-.06.18-.04.22.07.11.28.16.5.22.79.02.11.02.17-.1.22-.6.23-1.36.44-2.03.59.52.86.98,1.54,1.57,2.08.12.11.12.16.06.29-.13.28-.3.52-.49.74-.07.08-.12.12-.19.12-.05,0-.1-.02-.17-.07-.19-.16-.43-.26-.71-.38-.61-.26-1.4-.38-2.25-.38-1.13,0-1.79.35-1.79.91,0,.78,1.02,1.03,2.85,1.03.44,0,.89-.05,1.32-.07.12,0,.16.06.14.16-.05.3-.13.77-.24,1.09-.04.12-.08.17-.25.18-.28.02-.56.04-.86.04-2.76,0-4.22-.78-4.22-2.25,0-1.28,1.1-2.09,2.97-2.09.88,0,1.58.1,2.06.3-.28-.32-.67-.9-1-1.42-1.24.19-2.41.34-3.29.36-.13,0-.18-.05-.22-.17-.07-.24-.18-.65-.22-.98,1.2-.02,2.16-.12,3.23-.3-.12-.25-.3-.66-.46-1-1.1.17-1.99.28-2.91.29-.14,0-.22-.05-.24-.17-.04-.13-.12-.58-.19-.96,1.17.01,2.13-.08,2.99-.19-.1-.28-.17-.48-.29-.78Z"/><path class="uuid-ba9df6b6-9187-47e1-82ed-a500ecc42b8c" d="M54.91,40.28c.36-.85.7-1.76.98-2.93.16.18.37.37.62.54.31.22.31.23.23.59-.23.94-.6,1.94-.92,2.71-.07.2-.13.36-.14.48-.01.11-.05.17-.13.17-.05,0-.11-.01-.2-.06-.26-.16-.6-.38-.91-.64.19-.28.34-.54.48-.86ZM55.03,34.26c.1-.12.11-.13.22-.06.55.31,1.14.74,1.64,1.24.05.04.07.07.07.11s-.02.07-.07.14l-.55.71c-.08.12-.12.12-.2.04-.48-.53-1.1-1-1.59-1.33-.06-.04-.08-.06-.08-.1,0-.02.02-.07.07-.13l.5-.61ZM55.34,31.22c.11-.13.14-.13.24-.07.55.32,1.15.82,1.6,1.24.05.05.07.07.07.12,0,.04-.02.08-.08.16l-.5.61c-.06.07-.1.11-.13.11s-.07-.02-.12-.06c-.48-.48-1.04-.95-1.57-1.26-.06-.04-.08-.06-.08-.08,0-.04.02-.08.07-.14l.52-.61ZM58.89,34.16c0,1.73-.05,3.12-.2,4.23-.16,1.17-.5,2.24-1.05,3.23-.1.16-.16.24-.22.24s-.13-.06-.24-.18c-.22-.24-.49-.46-.73-.58.56-.77.97-1.85,1.14-3.19.14-1.09.17-2.27.17-3.77,0-1.37-.02-1.97-.02-2.04,0-.12.01-.13.13-.13.07,0,.49.02,1.66.02h1.26v-.19c0-.3-.01-.62-.08-.91.44.01.85.05,1.25.1.12.01.19.07.19.12,0,.07-.02.13-.07.22-.06.11-.06.23-.06.48v.19h1.47c1.16,0,1.57-.02,1.64-.02.12,0,.13.01.13.13v.83c0,.12-.01.13-.13.13-.07,0-.48-.02-1.64-.02h-4.58v1.12ZM63.35,37.27c.12,0,.18-.01.23-.04.06-.02.11-.05.17-.05.1,0,.19.05.5.41.23.25.3.37.3.48,0,.07-.04.13-.12.17-.1.05-.17.14-.31.35-.41.55-.84,1.03-1.33,1.45.71.34,1.57.54,2.72.73-.14.19-.28.44-.4.78-.12.35-.13.35-.5.28-1.12-.26-2.01-.6-2.78-1.08-.73.46-1.6.83-2.64,1.12-.14.04-.23.07-.29.07-.12,0-.16-.08-.26-.3-.13-.26-.31-.52-.48-.66,1.05-.24,1.97-.56,2.75-.97-.49-.47-.91-1.06-1.29-1.77-.28,0-.4.01-.43.01-.13,0-.14-.01-.14-.12v-.73c0-.13.01-.14.14-.14.07,0,.37.02,1.38.02h2.79ZM62.67,34.2c0-.37-.01-.67-.06-.95.36.01.74.04,1.07.07.11.01.17.06.17.12,0,.07-.04.12-.06.19-.04.1-.05.26-.05.56h.19c.77,0,1.07-.02,1.14-.02.13,0,.14.01.14.14v.71c0,.13-.01.14-.14.14-.07,0-.37-.02-1.14-.02h-.19v.3c0,.73.02,1.1.02,1.18,0,.12-.01.13-.13.13-.07,0-.32-.02-1.09-.02h-1.16c-.78,0-1.02.02-1.09.02-.13,0-.14-.01-.14-.13,0-.07.02-.44.02-1.18v-.3c-.62.01-.85.02-.91.02-.13,0-.14-.01-.14-.14v-.71c0-.13.01-.14.14-.14.06,0,.29.02.91.02,0-.4-.01-.7-.06-.95.38.01.77.04,1.09.07.11.01.17.06.17.12,0,.07-.04.12-.06.19-.04.1-.05.26-.05.56h1.42ZM60.82,38.22c.32.49.65.89,1.01,1.2.46-.35.84-.74,1.16-1.2h-2.17ZM62.67,35.11h-1.42v.72h1.42v-.72Z"/><path class="uuid-ba9df6b6-9187-47e1-82ed-a500ecc42b8c" d="M69.92,31.76c.2.05.29.11.29.23,0,.13-.07.28-.12.4-.06.17-.11.54-.17,1.46-.12,1.85-.18,3.07-.18,4.64,0,1.21.14,1.49,1.1,1.49,1.07,0,2.73-.65,4.2-2.21.05.46.16.85.28,1.14.06.13.1.22.1.29,0,.11-.05.2-.24.37-1.29,1.19-2.99,1.8-4.54,1.8s-2.25-.61-2.25-2.45c0-2.01.11-3.74.17-5.18.02-.71.06-1.48-.12-2.19.55.06,1.13.12,1.5.22Z"/><path class="uuid-ba9df6b6-9187-47e1-82ed-a500ecc42b8c" d="M78.83,38.58c0-.37.01-.89.02-1.33-.22.22-.43.42-.65.6-.13.1-.22.16-.28.16s-.11-.07-.16-.24c-.1-.34-.26-.68-.41-.86.94-.74,1.82-1.73,2.42-2.66.12-.18.24-.41.31-.64.32.17.62.36.89.55.11.08.16.13.16.22,0,.06-.02.1-.08.13-.1.06-.17.14-.26.29-.24.38-.5.77-.78,1.13v4.43c0,.96.02,1.42.02,1.48,0,.12-.01.13-.13.13h-.98c-.11,0-.12-.01-.12-.13,0-.07.02-.52.02-1.48v-1.76ZM80.91,31.52c.11.07.17.13.17.22s-.07.13-.19.2c-.08.05-.19.14-.32.32-.55.68-1.21,1.37-2.06,1.99-.13.1-.22.14-.28.14-.08,0-.14-.08-.23-.29-.13-.29-.34-.55-.52-.71.84-.5,1.57-1.18,2.15-1.9.17-.22.26-.37.35-.55.35.14.64.35.94.56ZM86.6,33.97c.13-.08.16-.07.23.01.67.74,1.16,1.52,1.57,2.3.06.12.04.16-.08.23l-.72.4c-.14.08-.17.08-.23-.05-.12-.25-.24-.5-.37-.76-1.2.14-2.58.26-3.75.36.25.05.46.1.66.14.13.04.2.08.2.17,0,.07-.05.13-.14.18-.05.02-.12.1-.19.19h2.09c.12,0,.19-.01.25-.04.05-.02.11-.05.17-.05.1,0,.18.06.48.35.26.28.31.37.31.48,0,.1-.04.16-.13.22-.1.05-.19.16-.36.4-.35.49-.73.92-1.15,1.31.88.41,1.94.67,3.24.86-.17.2-.31.5-.41.8q-.12.36-.49.29c-1.27-.29-2.36-.67-3.29-1.22-.91.59-1.98,1.02-3.29,1.3-.36.07-.37.07-.52-.28-.11-.26-.24-.48-.42-.7,1.28-.2,2.35-.54,3.24-1.02-.38-.31-.73-.67-1.06-1.08-.38.35-.82.66-1.26.92-.14.08-.22.13-.28.13-.08,0-.13-.08-.24-.28-.13-.22-.3-.41-.48-.58,1.08-.56,1.75-1.1,2.28-1.8.12-.14.28-.41.38-.68-.35.04-.67.06-.96.07-.3.02-.54.06-.65.11-.08.04-.16.08-.23.08-.11,0-.16-.1-.18-.22-.06-.35-.11-.72-.14-1.09.31.02.66.04.95.02.33,0,.67-.01,1.02-.02l.46-.47c-.65-.62-1.24-1.12-1.91-1.62-.05-.04-.07-.07-.07-.11s.02-.07.08-.14l.48-.56c.1-.12.12-.11.22-.04.14.12.3.23.46.34.28-.36.58-.77.91-1.3.12-.19.22-.4.31-.65.35.12.76.29,1.04.44.11.06.16.12.16.2,0,.07-.06.14-.14.19-.1.05-.19.13-.35.35-.37.49-.73.97-1.12,1.43.25.2.49.41.71.62.49-.56.94-1.1,1.34-1.64.14-.18.31-.43.41-.67.4.16.76.31,1.03.44.13.07.18.12.18.2s-.06.16-.16.19c-.11.05-.2.16-.42.42-.56.72-1.31,1.5-2.1,2.29.77-.05,1.52-.1,2.27-.17-.17-.23-.35-.46-.53-.68-.08-.1-.06-.14.07-.22l.61-.34ZM83.23,38.11c.34.44.73.82,1.19,1.14.41-.34.77-.71,1.08-1.14h-2.27Z"/><path class="uuid-ba9df6b6-9187-47e1-82ed-a500ecc42b8c" d="M96.2,33.66c-.28,2.04-.78,3.91-1.5,5.17-.52.9-1.14,1.38-2.04,1.38-1.06,0-2.12-1.13-2.12-3.08,0-1.15.49-2.25,1.36-3.12,1.01-1.01,2.28-1.54,3.9-1.54,2.88,0,4.57,1.77,4.57,4.16,0,2.23-1.26,3.63-3.69,4.37-.25.07-.36.02-.52-.22-.13-.2-.38-.48-.84-.76,2.03-.48,3.62-1.32,3.62-3.59,0-1.43-1.08-2.78-2.69-2.78h-.05ZM92.76,34.82c-.58.65-.94,1.45-.94,2.22,0,1.1.44,1.71.82,1.71.31,0,.58-.16.9-.73.53-.97,1.07-2.7,1.27-4.29-.84.17-1.51.5-2.05,1.09Z"/><path class="uuid-ba9df6b6-9187-47e1-82ed-a500ecc42b8c" d="M105.87,35.61c-1.16,0-1.55.02-1.62.02-.13,0-.14-.01-.14-.13v-.88c0-.12.01-.13.14-.13.07,0,.46.02,1.62.02h3.38c1.15,0,1.55-.02,1.62-.02.12,0,.13.01.13.13v.88c0,.12-.01.13-.13.13-.07,0-.47-.02-1.62-.02h-1.02v1.6h1.46c.98,0,1.31-.02,1.38-.02.13,0,.14.01.14.13v.88c0,.11-.01.12-.14.12-.07,0-.4-.02-1.38-.02h-1.46v2.05c.61.07,1.37.11,2.31.11.68,0,1.54-.05,2.33-.11-.12.29-.19.58-.23.86-.05.37-.06.37-.43.41-.46.02-.94.04-1.42.04-4.29-.01-5.13-.66-6.08-2.09-.36.78-.84,1.44-1.46,2.05-.12.13-.19.2-.26.2-.06,0-.12-.07-.24-.23-.2-.26-.44-.47-.7-.62,1.14-.89,1.93-2.16,2.16-3.79.04-.28.07-.5.07-.77.4.06.79.14,1.14.23.17.04.23.08.23.17,0,.1-.06.17-.11.23-.06.07-.11.19-.16.37-.06.34-.13.65-.22.95.43.84.86,1.39,1.8,1.72v-4.45h-1.1ZM110.88,32.21c1.12,0,1.51-.02,1.58-.02.12,0,.13.01.13.12,0,.08-.02.29-.02.62v.52c0,1.07.02,1.25.02,1.32,0,.12-.01.13-.13.13h-.98c-.12,0-.13-.01-.13-.13v-1.45h-7.59v1.45c0,.12-.01.13-.14.13h-.97c-.12,0-.13-.01-.13-.13,0-.08.02-.25.02-1.32v-.41c0-.44-.02-.65-.02-.73,0-.11.01-.12.13-.12.08,0,.47.02,1.59.02h2.57v-.11c0-.53-.01-.84-.08-1.14.44,0,.88.02,1.28.06.11.01.18.05.18.12,0,.08-.04.14-.07.23-.05.11-.05.26-.05.72v.12h2.82Z"/><path class="uuid-ba9df6b6-9187-47e1-82ed-a500ecc42b8c" d="M115.69,41.79c-.12.08-.19.13-.26.13s-.14-.07-.26-.22c-.23-.28-.43-.46-.62-.59.7-.43,1.19-.84,1.56-1.33.13-.18.21-.31.29-.47.36.14.6.24.92.42.12.06.17.11.17.18,0,.06-.04.12-.13.17-.11.06-.16.16-.26.3-.37.49-.85.98-1.39,1.4ZM116.36,39.22c-1.07,0-1.43.02-1.5.02-.12,0-.13-.01-.13-.13v-.82c0-.12.01-.13.13-.13.06,0,.3.02.96.02v-4.64c-.53.01-.74.02-.79.02-.13,0-.14-.01-.14-.12v-.83c0-.12.01-.13.14-.13.05,0,.26.02.79.02v-.2c0-.6-.01-.92-.07-1.25.37.01.8.04,1.14.07.1.01.17.04.17.11,0,.08-.04.14-.07.23-.04.08-.06.3-.06.83v.22h1.66v-.23c0-.6-.01-.91-.07-1.25.37.02.78.04,1.13.08.11.01.17.05.17.11,0,.08-.04.16-.06.23-.04.1-.07.31-.07.84v.22c.42-.01.62-.02.67-.02.11,0,.12.01.12.13v.83c0,.11-.01.12-.12.12-.05,0-.25-.01-.67-.01v4.63c.43-.01.64-.02.68-.02.11,0,.12.01.12.13v.82c0,.12-.01.13-.12.13-.07,0-.43-.02-1.46-.02h-2.53ZM118.58,34.47v-.92h-1.66v.92h1.66ZM118.58,36.32v-.9h-1.66v.9h1.66ZM118.58,38.19v-.92h-1.66v.92h1.66ZM118.7,39.39c.07-.05.12-.07.14-.07.04,0,.06.02.1.08.25.32.76.85,1.02,1.04-.24.17-.46.35-.66.59-.1.12-.14.18-.2.18-.05,0-.11-.05-.2-.14-.32-.35-.62-.71-.86-1.12-.07-.11-.05-.16.05-.22l.62-.35ZM125.13,38.88c0,.56.04,1.18.04,1.66s-.11.78-.35.98c-.25.2-.58.31-1.48.31q-.4,0-.47-.37c-.06-.32-.19-.65-.32-.85.37.02.73.04,1.03.04.26,0,.37-.12.37-.42v-2.16h-1.93c-.16,1.68-.53,2.65-1.14,3.61-.1.16-.16.23-.22.23s-.12-.06-.24-.18c-.23-.23-.5-.44-.74-.56,1.02-1.32,1.28-2.44,1.28-5.71v-1.98c0-1.25-.02-1.91-.02-1.98,0-.13.01-.14.13-.14.08,0,.37.02,1.24.02h1.48c.88,0,1.16-.02,1.24-.02.12,0,.13.01.13.14,0,.07-.02.73-.02,1.98v5.41ZM123.95,36.99v-1.75h-1.82v.22c0,.56-.01,1.08-.04,1.54h1.86ZM122.13,32.47v1.7h1.82v-1.7h-1.82Z"/><path class="uuid-ba9df6b6-9187-47e1-82ed-a500ecc42b8c" d="M133.95,33.24c.26-.62.36-.91.46-1.48.6.22,1.22.52,1.51.76.08.06.12.13.12.2,0,.1-.05.19-.13.26-.17.14-.26.3-.54.8-.46.88-.9,1.69-1.37,2.37.67.53,1,.83,1.76,1.63.05.06.07.11.07.17,0,.05-.02.1-.06.16-.24.31-.48.58-.73.85-.05.06-.1.08-.14.08-.06,0-.11-.04-.17-.11-.56-.67-1.04-1.14-1.57-1.58-1.37,1.72-2.71,2.89-4.1,3.74-.1.06-.19.1-.28.1s-.16-.02-.23-.08c-.35-.29-.73-.55-1.08-.66,1.87-1.09,3.18-2.21,4.52-3.93-.76-.56-1.36-.95-2.34-1.43.35-.44.64-.82.79-.98.04-.04.07-.06.12-.06s.1.02.14.05c.62.31,1.38.77,2.09,1.26.52-.79.79-1.33,1.15-2.12Z"/><path class="uuid-ba9df6b6-9187-47e1-82ed-a500ecc42b8c" d="M139.92,32.6c.05-.06.11-.1.17-.1.05,0,.1.02.16.06.61.32,1.61,1.06,2.29,1.7.07.07.11.12.11.17s-.02.1-.07.16c-.18.24-.58.72-.74.9-.06.06-.1.1-.14.1s-.1-.04-.16-.1c-.72-.74-1.58-1.43-2.45-1.95.26-.32.61-.7.84-.94ZM140.96,38.92c1.46-.76,2.24-1.26,3.45-2.23,1.46-1.19,2.27-1.96,3.29-3.26.07.6.18,1.01.34,1.4.04.08.06.16.06.23,0,.11-.06.2-.19.36-.63.74-1.67,1.7-2.76,2.54-1,.78-2,1.45-3.62,2.35-.54.32-.7.44-.8.55-.07.07-.14.12-.22.12-.06,0-.13-.05-.2-.13-.3-.34-.67-.83-.96-1.33.61-.17.98-.28,1.62-.6Z"/><path class="uuid-ba9df6b6-9187-47e1-82ed-a500ecc42b8c" d="M156.39,36.11c-.07,1.34-.24,2.15-.71,3.06-.48.94-1.34,1.81-2.11,2.27-.13.08-.25.14-.36.14-.08,0-.17-.04-.25-.12-.24-.24-.65-.48-1.07-.64,1.17-.64,1.88-1.22,2.39-2.13.44-.79.56-1.44.61-2.58h-2.28c-.6,0-1.19.04-1.8.07-.11.01-.14-.07-.16-.23-.06-.34-.1-.79-.1-1.15.67.06,1.34.06,2.04.06h5.38c.94,0,1.63-.02,2.34-.07.12,0,.13.07.13.24.01.16.01.77,0,.92,0,.16-.07.2-.18.2-.62-.02-1.45-.05-2.28-.05h-1.61ZM154.01,33.32c-.55,0-1.03.02-1.7.05-.16,0-.19-.06-.2-.2-.04-.29-.05-.72-.08-1.15.84.05,1.45.06,1.99.06h2.69c.67,0,1.43-.01,2.03-.05.12,0,.14.07.14.23.02.29.02.59,0,.88,0,.17-.02.23-.16.23-.65-.02-1.36-.04-2.02-.04h-2.69Z"/><path class="uuid-ba9df6b6-9187-47e1-82ed-a500ecc42b8c" d="M170.23,34.5c.67,0,1.46-.01,2.09-.02.17-.01.22.01.23.22.02.3.02.64,0,.94,0,.19-.05.23-.23.23-.43,0-1.34-.05-2.01-.05h-1.7c-.12,1.74-.3,2.42-.82,3.27-.56.95-1.52,1.82-2.55,2.36-.1.06-.18.08-.28.08s-.18-.04-.26-.12c-.3-.28-.59-.48-1.01-.66,1.36-.65,2.15-1.28,2.72-2.17.47-.72.67-1.5.73-2.77h-2.31c-.59,0-1.27.05-1.73.06-.16.01-.19-.05-.21-.23-.04-.24-.06-.74-.08-1.19.78.06,1.45.06,2.04.06h2.36c0-.6,0-1.25-.01-1.77-.01-.38-.02-.73-.14-1.21.6.02,1.21.07,1.59.17.13.04.18.08.18.17,0,.07-.04.16-.08.26s-.1.4-.1.73c0,.56,0,.96-.01,1.64h1.61Z"/><path class="uuid-ba9df6b6-9187-47e1-82ed-a500ecc42b8c" d="M175.63,32.6c.05-.06.11-.1.17-.1.05,0,.1.02.16.06.61.32,1.61,1.06,2.29,1.7.07.07.11.12.11.17s-.02.1-.07.16c-.18.24-.58.72-.74.9-.06.06-.1.1-.14.1s-.1-.04-.16-.1c-.72-.74-1.58-1.43-2.45-1.95.26-.32.61-.7.84-.94ZM176.67,38.92c1.46-.76,2.24-1.26,3.45-2.23,1.46-1.19,2.27-1.96,3.29-3.26.07.6.18,1.01.34,1.4.04.08.06.16.06.23,0,.11-.06.2-.19.36-.64.74-1.67,1.7-2.76,2.54-1,.78-2,1.45-3.62,2.35-.54.32-.7.44-.8.55-.07.07-.14.12-.21.12-.06,0-.13-.05-.21-.13-.3-.34-.67-.83-.96-1.33.61-.17.98-.28,1.62-.6Z"/><path class="uuid-ba9df6b6-9187-47e1-82ed-a500ecc42b8c" d="M191.93,32.67c.43,0,.65-.01.83-.11.05-.04.08-.05.13-.05.07,0,.13.05.2.1.28.22.55.53.78.84.04.06.06.11.06.16,0,.07-.05.16-.16.24-.16.13-.31.31-.44.53-.49.84-.96,1.51-1.54,2.24,1.15.85,2.22,1.79,3.32,2.9.06.06.1.12.1.17s-.02.11-.08.18c-.23.28-.5.56-.8.82-.05.05-.1.07-.14.07-.06,0-.11-.04-.17-.1-1.01-1.18-2.04-2.12-3.12-2.97-1.35,1.42-2.72,2.43-4.03,3.17-.11.05-.19.1-.28.1-.07,0-.14-.04-.2-.11-.26-.32-.61-.56-1.01-.78,1.87-.95,2.99-1.8,4.22-3.06.86-.9,1.52-1.75,2.25-3.01h-3.09c-.62.01-1.25.04-1.89.08-.1.01-.13-.07-.16-.2-.06-.25-.11-.83-.11-1.25.65.05,1.25.05,2.03.05h3.3Z"/><path class="uuid-ba9df6b6-9187-47e1-82ed-a500ecc42b8c" d="M202.02,33.74c.79-.25,1.4-.34,2.11-.34,1.55,0,2.53.9,2.53,2.22,0,1.55-1.14,2.49-3.09,2.49-.24,0-.37,0-.53-.01-.22-.01-.28-.07-.32-.22-.14-.44-.28-.78-.59-1.15.53.08.88.12,1.33.12,1.1,0,1.8-.49,1.8-1.33,0-.64-.48-.98-1.25-.98-.64,0-1.14.13-1.78.34-.7.24-1.25.46-1.98.79.64,1.8,1.24,3.48,1.86,5.34.05.16.06.2-.11.29-.3.16-.65.28-1.03.38-.08.01-.12-.01-.16-.13-.56-1.91-1.08-3.53-1.73-5.32-.46.22-.84.4-1.14.54s-.43.23-.62.37c-.08.07-.17.12-.23.12-.07,0-.19-.06-.29-.18-.3-.36-.5-.78-.73-1.18.54-.1.74-.16,1.17-.31.26-.1.67-.24,1.39-.55-.14-.43-.31-.91-.55-1.55-.08-.22-.24-.58-.55-1,.52-.11,1.14-.18,1.61-.18.11,0,.18.08.18.25,0,.16.02.24.05.4.07.26.11.44.24.92.08.3.16.48.22.64.77-.3,1.51-.58,2.18-.78ZM201.72,31.31c.06-.04.1-.05.13-.05s.07.01.13.05c.38.25.94.66,1.3,1.09.04.05.06.08.06.13s-.02.08-.06.13c-.22.24-.49.47-.79.66-.04.02-.07.05-.11.05-.02,0-.06-.02-.1-.06-.42-.48-.86-.94-1.49-1.32.33-.26.67-.53.92-.68Z"/><path class="uuid-ba9df6b6-9187-47e1-82ed-a500ecc42b8c" d="M209.89,33.5c0-.83-.04-1.28-.13-1.75.5.06,1.14.13,1.49.25.14.04.2.11.2.19,0,.06-.02.12-.05.18-.11.23-.13.53-.13,1.14v2.42c0,.62.02,1.09.04,1.51,0,.18-.07.24-.26.24h-.96c-.17,0-.24-.06-.23-.2,0-.42.04-1.12.04-1.63v-2.35ZM215.54,35.75c0,1.77-.26,2.96-.97,3.91-.59.78-1.63,1.51-2.64,1.88-.1.04-.18.06-.25.06-.1,0-.18-.04-.29-.14-.29-.29-.6-.52-1.02-.73,1.28-.4,2.29-.96,2.93-1.75.55-.68.8-1.68.8-3.2v-2.27c0-1.03-.02-1.42-.13-1.96.58.05,1.15.13,1.56.26.12.04.17.11.17.2,0,.06-.01.13-.05.19-.11.25-.11.56-.11,1.31v2.23Z"/><path class="uuid-ba9df6b6-9187-47e1-82ed-a500ecc42b8c" d="M219.94,36.24c.59-.6,1.17-1.21,1.74-1.81.48-.5.71-.64,1.08-.64s.6.1,1.04.49c1.52,1.36,3.36,2.66,5.37,3.9.16.07.18.19.11.32-.22.43-.42.77-.62,1.04-.06.08-.12.13-.18.13-.05,0-.08-.01-.13-.05-1.91-1.32-3.59-2.65-5.31-4.19-.07-.06-.13-.08-.19-.08-.08,0-.13.04-.19.1-.59.61-1.13,1.26-1.96,2.17-.32.36-.42.52-.48.61-.06.1-.13.16-.22.16-.05,0-.11-.02-.17-.08-.32-.26-.68-.61-1.12-1.06.48-.3.77-.54,1.22-1.02ZM228.42,33.47c0,.72-.58,1.28-1.3,1.28s-1.29-.56-1.29-1.28.58-1.28,1.29-1.28,1.3.56,1.3,1.28ZM226.41,33.47c0,.41.3.71.71.71s.71-.3.71-.71-.3-.71-.71-.71-.71.3-.71.71Z"/><path class="uuid-ba9df6b6-9187-47e1-82ed-a500ecc42b8c" d="M233.6,33.66c-.68,0-1.42.05-2.12.1-.14.01-.19-.07-.22-.18-.1-.34-.17-.94-.22-1.3.82.06,1.48.08,2.43.08h5.15c.5,0,.71-.02.83-.07.06-.02.17-.08.23-.08.1,0,.19.07.28.17.26.23.49.48.72.76.06.07.1.14.1.22,0,.1-.06.18-.17.25-.13.1-.23.22-.32.35-.56.85-1.31,1.68-2.11,2.31-.07.07-.16.11-.25.11s-.2-.05-.29-.12c-.3-.24-.6-.37-1-.49.96-.72,1.55-1.24,2.15-2.1h-5.18ZM234.27,38.34c.46-.85.59-1.67.59-2.83,0-.44-.02-.72-.12-1.13.59.06,1.21.14,1.55.23.16.04.2.12.2.23,0,.07-.02.14-.06.22-.08.17-.1.29-.11.49-.04,1.16-.16,2.23-.71,3.3-.47.9-1.19,1.75-2.18,2.39-.11.07-.22.12-.34.12-.08,0-.17-.04-.24-.11-.29-.25-.64-.44-1.09-.61,1.31-.68,1.99-1.33,2.51-2.29Z"/><path class="uuid-ba9df6b6-9187-47e1-82ed-a500ecc42b8c" d="M243.97,35.12s.08-.06.12-.06.07.01.11.06c.48.48.96.97,1.42,1.48.2-.64.36-1.44.43-2.51h-1.64c-1.03,0-1.38.02-1.45.02-.12,0-.13-.01-.13-.14v-.9c0-.12.01-.13.13-.13.07,0,.42.02,1.45.02h.61v-.77c0-.53-.02-.84-.1-1.16.44.01.83.02,1.27.08.12,0,.19.05.19.12,0,.08-.04.14-.07.24-.04.1-.06.25-.06.72v.77h.35c1.04,0,1.39-.02,1.46-.02.12,0,.13.01.13.13v.9c0,.13-.01.14-.13.14-.06,0-.26-.01-.77-.02-.12,1.46-.38,2.6-.76,3.55.49.61.96,1.25,1.4,1.92.07.1.08.13-.04.25l-.71.65s-.1.08-.13.08-.06-.04-.11-.11c-.31-.55-.65-1.08-1.01-1.6-.56.97-1.42,1.93-2.17,2.6-.12.11-.19.17-.25.17-.07,0-.13-.08-.24-.25-.17-.29-.4-.52-.65-.71,1.08-.84,1.74-1.54,2.47-2.9-.52-.64-1.1-1.25-1.75-1.86-.1-.07-.1-.11.01-.22l.6-.55ZM248.97,35.7c.12-.07.17-.07.24.02.55.65,1.03,1.42,1.39,2.24.05.12.04.16-.08.23l-.77.44c-.14.08-.17.07-.22-.05-.36-.84-.78-1.59-1.31-2.27-.08-.11-.06-.14.06-.22l.68-.41ZM252.38,38.07c0,.84.02,1.75.02,2.42,0,.61-.07.88-.37,1.13-.25.19-.74.26-1.91.26-.36,0-.36.01-.44-.36-.1-.37-.2-.66-.36-.9.47.04,1.01.05,1.37.04.35,0,.44-.1.44-.38v-5.49h-1.15c-1.01,0-1.34.02-1.42.02-.12,0-.13-.01-.13-.13v-.97c0-.12.01-.13.13-.13.07,0,.41.02,1.42.02h1.15v-.85c0-.77-.01-1.15-.07-1.69.43.01.88.04,1.27.07.12.01.19.07.19.13,0,.11-.04.17-.07.25-.07.14-.07.41-.07,1.21v.88c.76,0,1.04-.02,1.1-.02.12,0,.13.01.13.13v.97c0,.12-.01.13-.13.13-.06,0-.35-.01-1.1-.02v3.29Z"/><path class="uuid-ba9df6b6-9187-47e1-82ed-a500ecc42b8c" d="M33.51,56.91c0,1.73-.07,2.78-.23,3.79-.16,1.03-.44,1.92-.91,2.83-.08.16-.13.23-.19.23s-.13-.06-.24-.19c-.25-.29-.54-.53-.78-.67.47-.79.74-1.61.91-2.66.14-.86.19-1.86.19-3.55,0-1.46-.02-2.12-.02-2.19,0-.12.01-.13.14-.13.07,0,.47.02,1.61.02h2.41v-.5c0-.37-.01-.67-.07-.97.44,0,.86.04,1.27.07.12.01.19.06.19.12,0,.08-.04.14-.07.23-.05.1-.08.25-.08.52v.54h2.57c1.13,0,1.52-.02,1.6-.02.12,0,.13.01.13.13v.9c0,.11-.01.12-.13.12-.07,0-.47-.02-1.6-.02h-6.69v1.43ZM35.39,58.93c.16.04.18.05.16.19-.2,1.29-.43,2.3-.89,3.31-.06.11-.11.08-.25.02l-.82-.38c-.14-.07-.14-.13-.08-.24.44-.85.72-1.83.9-3.02.01-.13.04-.13.22-.08l.77.2ZM37.29,61.95c0,.4.01.52.17.62.12.08.34.12.77.12s.67-.05.85-.18c.23-.19.29-.61.31-1.54.23.14.56.28.86.35q.32.07.29.4c-.1,1.07-.31,1.5-.68,1.75-.35.24-.88.31-1.7.31-.9,0-1.42-.07-1.74-.3-.24-.18-.33-.42-.33-1.08v-2.9c0-.49-.04-1.07-.08-1.44.38.01.86.05,1.22.1.14.01.24.07.24.16,0,.1-.04.16-.1.26-.06.11-.07.44-.07.96v2.41ZM36.73,55.81c.11-.12.12-.13.24-.07.73.37,1.55.89,2.28,1.49.06.04.08.07.08.1,0,.04-.02.07-.08.14l-.56.66c-.12.14-.14.14-.23.06-.71-.64-1.52-1.2-2.23-1.6-.08-.05-.11-.07,0-.19l.5-.59ZM41.29,62.15c-.17.08-.19.08-.23-.05-.26-1.03-.73-2.27-1.26-3.21-.06-.11-.05-.14.11-.22l.72-.32c.14-.07.17-.07.23.04.55.92,1.06,2.18,1.34,3.17.04.13.02.14-.14.23l-.77.37Z"/><path class="uuid-ba9df6b6-9187-47e1-82ed-a500ecc42b8c" d="M46.32,54.32c.2.11.28.18.28.29,0,.08-.02.12-.18.36-.12.22-.18.38-.29.85-.33,1.49-.5,2.96-.5,3.87,0,.59.02.98.07,1.4.25-.55.47-.95.82-1.79.1.3.25.49.42.76.04.06.08.13.08.18,0,.08-.02.13-.06.19-.28.62-.5,1.14-.68,1.81-.02.07-.04.2-.04.37,0,.14.02.24.02.34,0,.08-.05.13-.16.16-.3.08-.64.16-.98.19-.08.01-.13-.05-.16-.13-.33-.84-.55-2.36-.55-3.57,0-1.08.13-2.39.41-3.93.16-.89.22-1.28.22-1.79.54.13.92.25,1.28.44ZM48.89,59.96c.1-.01.12.05.12.18.07.83.65,1.13,1.96,1.13.9,0,1.49-.06,2.29-.16.12-.01.14,0,.17.16.04.25.07.72.07,1.03,0,.14,0,.16-.2.18-.81.1-1.39.13-1.95.13-1.78,0-2.6-.29-3.12-1-.3-.38-.42-1-.42-1.56l1.09-.1ZM48.22,55.48c.01-.14.05-.18.17-.2.71-.13,2.05-.22,2.6-.22.72,0,1.27.02,1.78.07.25.01.28.04.28.16,0,.36,0,.68-.02,1.02-.01.11-.05.16-.16.14-.72-.05-1.34-.07-1.96-.07-.8,0-1.58.07-2.72.28.01-.67.01-.97.04-1.18Z"/><path class="uuid-ba9df6b6-9187-47e1-82ed-a500ecc42b8c" d="M57.72,56.11c1.85-.62,3.35-1,4.32-1,2.15,0,3.53,1.29,3.53,3.18,0,1.57-.68,2.57-2.11,3.33-1.01.56-1.94.76-3.05,1-.24.05-.33.04-.42-.19-.14-.34-.44-.7-.84-.95,1.58-.26,2.43-.49,3.25-.89,1.02-.52,1.66-1.28,1.66-2.39s-.73-1.82-2.06-1.82c-1.08,0-2.51.43-4.33,1.24-.38.19-.68.32-.83.43-.17.14-.26.18-.32.18-.12,0-.22-.07-.35-.25-.22-.26-.52-.73-.77-1.25.53-.06.97-.17,2.33-.62Z"/><path class="uuid-ba9df6b6-9187-47e1-82ed-a500ecc42b8c" d="M69.43,55.07c.11.05.19.13.19.22,0,.07-.04.19-.1.34-.05.14-.11.66-.11,1.17,0,.77.02,1.63.22,2.73.17.95.48,1.76.98,1.76.38,0,.68-.42,1.15-1.67.26.42.53.7.77.92.14.13.14.28.08.44-.46,1.22-1.2,1.87-2.04,1.87-.94,0-1.92-1.1-2.24-3.13-.19-1.14-.29-2.39-.29-3.49,0-.66-.02-1.02-.14-1.57.58.07,1.16.22,1.52.4ZM74.99,55.83s.1-.05.13-.05c.05,0,.08.02.13.07,1.09.95,2.05,2.6,2.35,4.1.04.16-.04.2-.13.26-.31.2-.61.37-.94.48-.14.05-.23.01-.25-.13-.41-1.71-1.02-2.96-2.24-4.19.46-.29.76-.46.95-.55Z"/><path class="uuid-ba9df6b6-9187-47e1-82ed-a500ecc42b8c" d="M84.62,55.75c-1.46.28-2.75.53-4.03.79-.46.11-.58.13-.76.19-.08.04-.17.1-.26.1-.08,0-.18-.07-.23-.18-.16-.32-.29-.74-.44-1.3.61-.02.97-.07,1.91-.2,1.48-.22,4.11-.61,7.21-1.02.18-.02.24.05.25.13.06.28.12.72.13,1.06,0,.14-.07.18-.23.18-.56.04-.95.1-1.46.26-2.04.7-3.06,2.1-3.06,3.54,0,1.55,1.1,2.39,3.19,2.52.19,0,.26.05.26.18,0,.31-.05.73-.13,1.03-.04.18-.08.25-.23.25-2.11,0-4.43-1.21-4.43-3.71,0-1.7.85-2.85,2.3-3.8v-.02Z"/><path class="uuid-ba9df6b6-9187-47e1-82ed-a500ecc42b8c" d="M94.12,60.86c0,1.1.48,1.54,1.6,1.54,1.4,0,2.18-.54,2.18-1.62,0-.67-.17-1.22-1.08-2.18.48.06.74,0,1.22-.07.08-.02.18-.01.25.05.66.62,1.02,1.44,1.02,2.25,0,1.7-1.39,2.81-3.45,2.81s-3.02-.96-3.02-2.71c0-.25.04-.59.08-1.13-.72-.11-1.2-.22-1.63-.36-.08-.02-.12-.08-.13-.23-.04-.37-.05-.74-.02-1.12.72.26,1.26.4,1.94.47.06-.44.16-1.22.2-1.71-.84-.11-1.27-.18-1.73-.34-.14-.04-.19-.1-.19-.2-.01-.29-.04-.68-.04-1.12.82.26,1.39.37,2.17.46.1-.7.13-1.02.16-1.38.02-.34.02-.68-.01-1.01.55.07,1.18.23,1.44.34.17.06.26.17.26.28,0,.08-.04.16-.1.23-.08.08-.14.24-.22.52-.06.28-.13.68-.19,1.13.48.04.97,0,1.48-.07.08,0,.12.06.12.14.01.29.01.62-.02.9,0,.13-.05.17-.19.18-.53.06-1.07.07-1.6.06-.07.42-.19,1.24-.26,1.71.64.01,1.13,0,1.7-.04.16-.02.19.02.19.13,0,.22-.02.65-.06.9-.01.14-.05.19-.17.19-.6.05-1.22.05-1.83.04-.06.47-.07.76-.07.97Z"/><path class="uuid-ba9df6b6-9187-47e1-82ed-a500ecc42b8c" d="M103.97,59.62c.11.06.12.12.06.22-.18.28-.31.67-.31.91,0,.76.78,1.13,2.84,1.13,1.16,0,2.27-.13,3.25-.35.17-.04.23,0,.25.11.06.23.17.88.19,1.18.01.11-.06.16-.2.18-1.12.2-2.22.29-3.51.29-2.77,0-4.13-.86-4.13-2.42,0-.49.18-1.01.64-1.72.31.16.61.31.92.48ZM106.68,54.91c.88,0,1.73-.05,2.5-.11.12-.01.17.04.18.13.05.28.1.61.11,1.02,0,.17-.06.24-.2.25-1.14.17-1.97.56-2.94,1.19-.1.07-.2.11-.3.11-.08,0-.17-.02-.25-.07-.24-.16-.49-.29-.84-.38.62-.41,1.15-.74,1.57-1-.26.04-.64.04-.88.04-.49,0-1.52-.07-2.21-.2-.11-.02-.16-.07-.16-.22,0-.29.02-.64.05-1.07.91.22,2.06.31,3.37.31ZM109.94,53.58c.06-.05.11-.04.18.02.37.29.8.77,1.14,1.28.05.07.05.13-.04.19l-.5.37c-.08.06-.14.05-.2-.04-.36-.55-.74-1.01-1.21-1.39l.64-.44ZM111.01,52.8c.07-.05.11-.04.18.02.44.34.88.82,1.14,1.24.05.07.06.14-.04.22l-.48.37c-.1.07-.16.04-.2-.04-.32-.52-.71-.97-1.2-1.38l.6-.43Z"/><path class="uuid-ba9df6b6-9187-47e1-82ed-a500ecc42b8c" d="M116.49,55.08c.92,0,1.21-.02,1.28-.02.12,0,.13.01.13.13v.85c0,.13-.01.14-.13.14-.07,0-.36-.02-1.28-.02h-1.38c-.91,0-1.21.02-1.27.02-.12,0-.13-.01-.13-.14v-.85c0-.12.01-.13.13-.13.06,0,.36.02,1.27.02h1.38ZM122.5,62.21c0,.2.01.3.11.36.08.06.2.08.46.08.28,0,.38-.05.49-.17.11-.13.14-.38.17-1.3.18.14.52.3.73.36.3.1.31.1.29.41-.06.97-.23,1.36-.49,1.56-.28.22-.73.3-1.36.3s-1-.06-1.19-.19c-.22-.16-.35-.38-.35-.98v-3.5h-.68c-.07,2.35-.68,3.63-2.03,4.67-.13.1-.22.16-.28.16-.08,0-.14-.07-.26-.23-.14-.18-.32-.37-.49-.52,0,.23.01.31.01.35,0,.12-.01.13-.13.13h-.85c-.12,0-.13-.01-.13-.13v-.26h-1.21v.55c0,.11-.01.12-.13.12h-.85c-.13,0-.14-.01-.14-.12,0-.08.02-.36.02-1.81v-.77c0-.76-.02-1.04-.02-1.13,0-.12.01-.13.14-.13.07,0,.32.02,1.09.02h.98c.78,0,1.03-.02,1.1-.02.12,0,.13.01.13.13,0,.07-.02.36-.02.92v1.93c1.34-.79,1.87-1.79,1.93-3.86-.68.01-.94.02-1,.02-.13,0-.14-.01-.14-.13,0-.07.02-.36.02-1.04v-1.46c0-.7-.02-.97-.02-1.04,0-.12.01-.13.14-.13.07,0,.42.02,1.46.02h1.39c.29-.56.49-1.1.68-1.64.06-.19.13-.47.16-.76.43.11.83.22,1.19.35.08.04.16.1.16.17,0,.08-.04.14-.12.22-.08.08-.16.22-.23.38-.14.35-.34.78-.6,1.28.8,0,1.12-.02,1.19-.02.12,0,.13.01.13.13,0,.06-.02.35-.02,1.04v1.46c0,.68.02.97.02,1.04,0,.12-.01.13-.13.13-.08,0-.41-.02-1.32-.02v3.07ZM116.44,53.44c.78,0,1.02-.02,1.08-.02.13,0,.14.01.14.13v.79c0,.12-.01.13-.14.13-.06,0-.3-.02-1.08-.02h-1.01c-.78,0-1.02.02-1.09.02-.12,0-.13-.01-.13-.13v-.79c0-.12.01-.13.13-.13.07,0,.31.02,1.09.02h1.01ZM116.33,56.79c.73,0,.95-.02,1.02-.02.12,0,.13.01.13.13v.78c0,.12-.01.13-.13.13-.07,0-.29-.02-1.02-.02h-.85c-.73,0-.95.02-1.02.02-.12,0-.13-.01-.13-.13v-.78c0-.12.01-.13.13-.13.07,0,.29.02,1.02.02h.85ZM116.33,58.4c.73,0,.95-.02,1.02-.02.12,0,.13.01.13.13v.77c0,.12-.01.13-.13.13-.07,0-.29-.02-1.02-.02h-.85c-.73,0-.95.02-1.02.02-.12,0-.13-.01-.13-.13v-.77c0-.12.01-.13.13-.13.07,0,.29.02,1.02.02h.85ZM115.3,61.03v1.27h1.21v-1.27h-1.21ZM119.62,53.13c.14-.06.18-.05.24.04.3.42.59.97.8,1.51.05.12.01.16-.12.22l-.76.32c-.14.06-.17.06-.22-.06-.19-.55-.44-1.06-.76-1.55-.07-.1-.05-.13.08-.19l.72-.29ZM122.75,56.44h-3.19v1.59h3.19v-1.59Z"/><path class="uuid-ba9df6b6-9187-47e1-82ed-a500ecc42b8c" d="M126.81,61.64c-.12,0-.13,0-.13-.12,0-.08.02-.58.02-3.25v-1.91c0-1.89-.02-2.42-.02-2.49,0-.12.01-.13.13-.13.08,0,.36.02,1.21.02h1.39c.85,0,1.13-.02,1.21-.02.12,0,.13.01.13.13,0,.07-.02.58-.02,2.15v2.06c0,2.54.02,3.02.02,3.09,0,.12-.01.13-.13.13h-.9c-.13,0-.14-.01-.14-.13v-.59h-1.7v.94c0,.12-.01.12-.14.12h-.92ZM127.87,54.84v1.75h1.7v-1.75h-1.7ZM129.58,59.5v-1.82h-1.7v1.82h1.7ZM136.52,60.86c0,.56.02,1.18.02,1.66s-.08.76-.35.98c-.28.24-.76.31-1.61.31q-.37,0-.46-.37c-.07-.32-.19-.66-.34-.9.41.04.8.05,1.03.05.37,0,.47-.11.47-.42v-2.3h-2.46c-.3,1.88-.97,2.9-2.13,3.85-.14.12-.22.18-.29.18-.06,0-.13-.07-.26-.22-.23-.24-.44-.43-.73-.6,1.82-1.32,2.39-2.38,2.39-6.4v-1.48c0-1.06-.02-1.6-.02-1.68,0-.12.01-.13.14-.13.07,0,.38.02,1.34.02h1.79c.95,0,1.27-.02,1.34-.02.13,0,.14.01.14.13,0,.07-.02.62-.02,1.68v5.66ZM135.3,58.76v-1.57h-2.25c-.01.58-.04,1.1-.07,1.57h2.33ZM133.04,54.54v1.55h2.25v-1.55h-2.25Z"/><path class="uuid-ba9df6b6-9187-47e1-82ed-a500ecc42b8c" d="M140.58,55.07c.11.05.19.13.19.22,0,.07-.04.19-.1.34-.05.14-.11.66-.11,1.17,0,.77.02,1.63.22,2.73.17.95.48,1.76.98,1.76.38,0,.68-.42,1.15-1.67.26.42.53.7.77.92.14.13.14.28.08.44-.46,1.22-1.2,1.87-2.04,1.87-.94,0-1.92-1.1-2.24-3.13-.19-1.14-.29-2.39-.29-3.49,0-.66-.02-1.02-.14-1.57.58.07,1.16.22,1.52.4ZM146.15,55.83s.1-.05.13-.05c.05,0,.08.02.13.07,1.09.95,2.05,2.6,2.35,4.1.04.16-.04.2-.13.26-.31.2-.61.37-.94.48-.14.05-.23.01-.25-.13-.41-1.71-1.02-2.96-2.24-4.19.46-.29.75-.46.95-.55Z"/><path class="uuid-ba9df6b6-9187-47e1-82ed-a500ecc42b8c" d="M156.21,55.11c.13-.04.18.02.19.12.04.26.07.61.08.86.01.16-.02.19-.18.23-.74.2-1.36.34-2.09.46-.82,2.66-1.43,4.5-2.2,6.49-.06.17-.13.16-.26.12-.12-.05-.71-.3-.96-.44-.1-.06-.13-.16-.1-.24.91-2.1,1.49-3.68,2.08-5.69-.7.07-1.54.13-2.1.13-.18,0-.23-.04-.25-.19-.05-.25-.11-.66-.17-1.09.25.04.4.04.89.04.6,0,1.25-.04,1.94-.12.12-.48.22-1.01.3-1.5.05-.36.07-.72.07-1.1.64.1,1.13.18,1.51.34.1.04.13.12.13.19,0,.05,0,.11-.06.19-.1.17-.19.29-.25.48-.12.43-.2.84-.29,1.14.47-.08,1.12-.24,1.7-.41ZM155.75,60.84c.12,0,.17.05.18.17.1.88.68,1.13,1.83,1.13.67,0,1.54-.11,2.02-.17.1-.01.13.01.14.11.05.31.1.72.1,1.04.01.14,0,.18-.19.19-.41.06-1.19.13-1.63.13-1.57,0-2.39-.22-2.93-.78-.38-.38-.52-.95-.54-1.64.37-.1.86-.18,1.02-.18ZM155.62,57.66c0-.17.04-.2.22-.24.76-.16,1.64-.28,2.34-.28.47,0,.98.05,1.4.12.17.02.2.04.2.18.02.3.02.64.01.96,0,.2-.06.25-.23.22-.42-.08-.97-.14-1.49-.14-.72,0-1.63.12-2.41.28-.02-.42-.05-.85-.05-1.09Z"/><path class="uuid-ba9df6b6-9187-47e1-82ed-a500ecc42b8c" d="M164.87,53.76c.2.05.29.11.29.23,0,.13-.07.28-.12.4-.06.17-.11.54-.17,1.46-.12,1.85-.18,3.07-.18,4.64,0,1.21.14,1.49,1.1,1.49,1.07,0,2.73-.65,4.2-2.21.05.46.16.85.28,1.14.06.13.1.22.1.29,0,.11-.05.2-.24.37-1.3,1.19-2.99,1.8-4.55,1.8s-2.25-.61-2.25-2.45c0-2.01.11-3.74.17-5.18.02-.71.06-1.48-.12-2.19.55.06,1.13.12,1.5.22Z"/><path class="uuid-ba9df6b6-9187-47e1-82ed-a500ecc42b8c" d="M176.87,58.94c-.83.02-1.64.02-2.47-.05-.13,0-.18-.05-.19-.2-.05-.26-.07-.74-.07-1.02.89.11,1.8.13,2.7.1-.01-.46-.01-.92-.02-1.38-1.15.04-2.01.04-2.87-.06-.13,0-.19-.05-.2-.17-.04-.3-.06-.59-.08-1.08,1.04.12,2.09.12,3.14.12,0-.44-.01-.76-.02-1.16-.02-.28-.05-.49-.14-.8.64.04,1.15.11,1.51.22.14.05.22.22.13.36-.08.17-.17.37-.18.58-.01.24-.01.41-.02.77,1.12-.08,1.92-.22,2.63-.36.14-.04.19,0,.2.14.05.34.06.66.06.88,0,.16-.04.18-.13.19-.85.14-1.62.24-2.77.31,0,.48.01.92.01,1.36.91-.06,1.49-.18,2.35-.31.14-.04.18-.01.19.1.01.23.04.62.04.98,0,.12-.05.16-.18.17-.79.13-1.34.22-2.35.29.02.55.05,1.14.08,1.69,1.15.32,2.13.76,3.18,1.45.12.11.12.14.08.29-.08.23-.34.67-.53.89-.05.07-.1.1-.16.1-.04,0-.08-.01-.13-.06-.73-.58-1.48-1-2.39-1.37-.01,1.3-.79,1.82-2.43,1.82s-2.45-.68-2.45-1.68.95-1.7,2.4-1.7c.3,0,.59,0,1.15.05-.02-.53-.05-1.02-.06-1.43ZM175.84,61.37c-.88,0-1.29.25-1.29.64,0,.31.36.54,1.19.54.48,0,.92-.14,1.09-.36.1-.13.13-.34.13-.67-.35-.08-.78-.14-1.12-.14Z"/><path class="uuid-ba9df6b6-9187-47e1-82ed-a500ecc42b8c" d="M188.94,54.16c-.02-.35-.05-.52-.14-.88.54.04,1.12.11,1.4.17.2.04.34.12.34.23,0,.1-.04.16-.11.28-.04.07-.07.19-.1.35-.01.16-.01.31-.02.77,1.3-.05,2.53-.06,3.68-.06.14,0,.17.02.18.18.01.3.01.61,0,.91,0,.13-.06.17-.2.16-1.25-.04-2.41-.04-3.66-.02,0,.73,0,1.5.01,2.23.12.32.18.79.18,1.19,0,1.39-.56,2.84-2.13,3.87-.2.13-.36.23-.47.23s-.24-.08-.36-.18c-.28-.23-.6-.38-.91-.48,1.4-.62,2.24-1.63,2.46-2.64-.24.35-.73.48-1.13.48-.95,0-1.67-.68-1.67-1.84s.84-1.8,1.81-1.8c.36,0,.72.07.91.24,0-.42-.01-.83-.01-1.22-1.51.08-3.2.23-4.15.36-.26.04-.46.14-.56.14-.12,0-.17-.05-.2-.17-.1-.24-.2-.72-.3-1.21.44.05.83,0,1.46-.05.73-.06,2.28-.16,3.72-.24-.01-.37-.01-.67-.02-1ZM187.41,59.02c0,.53.34.82.77.82s.82-.28.82-.83c0-.49-.31-.77-.79-.77-.37,0-.79.25-.79.78Z"/><path class="uuid-ba9df6b6-9187-47e1-82ed-a500ecc42b8c" d="M199.56,62.47c0,.96-.78,1.73-1.74,1.73s-1.74-.77-1.74-1.73.78-1.73,1.74-1.73,1.74.77,1.74,1.73ZM196.83,62.47c0,.56.43,1,1,1s1-.43,1-1-.43-1-1-1-1,.43-1,1Z"/><rect class="uuid-b96c7165-61bc-402b-9656-36563074d637" width="280" height="100"/></g></svg>