<?xml version="1.0" encoding="UTF-8"?><svg id="uuid-6737c931-c961-4c57-97fe-eb161ea8188b" xmlns="http://www.w3.org/2000/svg" width="299.35" height="36.02" viewBox="0 0 299.35 36.02"><defs><style>.uuid-14c7acd5-ad4d-40e5-8bcc-59a335c2aa22{stroke:#b11f3a;stroke-miterlimit:10;stroke-width:2px;}.uuid-14c7acd5-ad4d-40e5-8bcc-59a335c2aa22,.uuid-836d10df-b563-41ca-8ff9-067f35fab753{fill:none;}.uuid-087c1f17-a770-4aba-ba7b-34150b352289{fill:#1c1c1c;}</style></defs><g id="uuid-ed1e8ac0-e1a7-438e-8bfa-44bb94fb0161"><path class="uuid-087c1f17-a770-4aba-ba7b-34150b352289" d="M84.35,19.43h1.72c.8,0,1.61-.02,2.42-.05.13-.01.19.05.19.19.01.31.01.65,0,.96,0,.16-.04.22-.18.22-.58-.02-1.64-.05-2.42-.05h-4.82c-.49,0-1.27.04-2.21.05-.19.01-.22-.04-.25-.24-.05-.26-.08-.7-.08-1.13.86.05,1.77.06,2.54.06h1.63v-4.1h-.94c-.86,0-1.37.02-1.86.05-.14.01-.17-.07-.2-.25-.05-.24-.1-.71-.1-1.12.6.06,1.08.05,2.08.05h3.39c.73,0,1.39,0,2.1-.04.12-.01.16.06.16.19.01.3.01.64,0,.94-.01.16-.04.23-.17.23-.8-.04-1.39-.05-2.06-.05h-.94v4.09Z"/><path class="uuid-087c1f17-a770-4aba-ba7b-34150b352289" d="M92.21,14.35c0-.83-.04-1.28-.13-1.75.5.06,1.14.13,1.49.25.14.04.2.11.2.19,0,.06-.02.12-.05.18-.11.23-.13.53-.13,1.14v2.42c0,.62.02,1.09.04,1.51,0,.18-.07.24-.26.24h-.96c-.17,0-.24-.06-.23-.2,0-.42.04-1.12.04-1.63v-2.35ZM97.86,16.59c0,1.77-.26,2.96-.97,3.91-.59.78-1.63,1.51-2.64,1.88-.1.04-.18.06-.25.06-.1,0-.18-.04-.29-.14-.29-.29-.6-.52-1.02-.73,1.28-.4,2.29-.96,2.93-1.75.55-.68.8-1.68.8-3.2v-2.27c0-1.03-.02-1.42-.13-1.96.58.05,1.15.13,1.56.26.12.04.17.11.17.2,0,.06-.01.13-.05.19-.11.25-.11.56-.11,1.31v2.23Z"/><path class="uuid-087c1f17-a770-4aba-ba7b-34150b352289" d="M104.51,14.51c-.68,0-1.42.05-2.12.1-.14.01-.19-.07-.22-.18-.1-.34-.17-.94-.22-1.3.82.06,1.48.08,2.44.08h5.15c.5,0,.71-.02.83-.07.06-.02.17-.08.23-.08.1,0,.19.07.28.17.26.23.49.48.72.75.06.07.1.14.1.22,0,.1-.06.18-.17.25-.13.1-.23.22-.32.35-.56.85-1.31,1.68-2.11,2.32-.07.07-.16.11-.25.11s-.2-.05-.29-.12c-.3-.24-.6-.37-1-.49.96-.72,1.55-1.24,2.15-2.1h-5.18ZM105.18,19.18c.46-.85.59-1.67.59-2.83,0-.44-.02-.72-.12-1.13.59.06,1.21.14,1.55.23.16.04.2.12.2.23,0,.07-.02.14-.06.22-.08.17-.1.29-.11.49-.04,1.16-.16,2.23-.71,3.3-.47.9-1.19,1.75-2.18,2.39-.11.07-.22.12-.34.12-.08,0-.17-.04-.24-.11-.29-.25-.64-.44-1.09-.61,1.31-.68,1.99-1.33,2.51-2.29Z"/><path class="uuid-087c1f17-a770-4aba-ba7b-34150b352289" d="M119.37,14.51c-.28,2.04-.78,3.91-1.5,5.17-.52.9-1.14,1.38-2.04,1.38-1.06,0-2.12-1.13-2.12-3.08,0-1.15.49-2.25,1.35-3.12,1.01-1.01,2.28-1.54,3.9-1.54,2.88,0,4.57,1.77,4.57,4.16,0,2.23-1.26,3.63-3.69,4.37-.25.07-.36.02-.52-.22-.13-.2-.38-.48-.84-.76,2.03-.48,3.62-1.32,3.62-3.59,0-1.43-1.08-2.78-2.69-2.78h-.05ZM115.92,15.67c-.58.65-.94,1.45-.94,2.22,0,1.1.44,1.71.82,1.71.31,0,.58-.16.9-.73.53-.97,1.07-2.7,1.27-4.29-.84.17-1.51.5-2.05,1.09Z"/><path class="uuid-087c1f17-a770-4aba-ba7b-34150b352289" d="M127.22,14.45c.16.04.18.06.17.19-.05.98-.17,1.88-.41,2.63-.04.12-.06.11-.19.05l-.58-.24c-.16-.06-.17-.12-.13-.24.2-.65.34-1.47.38-2.43,0-.12.02-.11.19-.07l.56.12ZM127.7,13.62c0-.85-.01-1.24-.1-1.81.46.01.84.04,1.23.08.12.01.19.06.19.12,0,.08-.02.16-.06.24-.06.16-.08.46-.08,1.33v6.97c0,1.36.02,2.04.02,2.1,0,.13-.01.14-.13.14h-.97c-.12,0-.13-.01-.13-.14,0-.06.02-.74.02-2.09v-6.94ZM129.51,13.93c.13-.05.17-.04.22.07.2.47.37.94.49,1.43.04.12.02.14-.13.2l-.5.18c-.16.06-.19.06-.22-.07-.12-.55-.26-1-.44-1.45-.05-.13-.04-.16.12-.2l.47-.16ZM131.71,16.66c-1.16,0-1.56.01-1.63.01-.12,0-.13,0-.13-.13v-.68c0-.12.01-.13.13-.13.07,0,.47.02,1.63.02h1.01v-.55h-.6c-1.08,0-1.43.02-1.51.02-.12,0-.13-.01-.13-.14v-.6c0-.12.01-.13.13-.13.08,0,.43.02,1.51.02h.6v-.54h-.79c-1.13,0-1.51.02-1.58.02-.12,0-.13-.01-.13-.13v-.65c0-.13.01-.14.13-.14.07,0,.46.02,1.58.02h.79c-.01-.42-.04-.75-.08-1.17.44.01.78.04,1.19.08.13.01.19.07.19.12,0,.12-.06.22-.08.31-.04.12-.05.31-.05.66h1.15c1.12,0,1.5-.02,1.57-.02.13,0,.14.01.14.14v.65c0,.12-.01.13-.14.13-.07,0-.46-.02-1.57-.02h-1.15v.54h.82c1.07,0,1.43-.02,1.5-.02.12,0,.13.01.13.13v.6c0,.13-.01.14-.13.14-.07,0-.43-.02-1.5-.02h-.82v.55h1.49c1.15,0,1.56-.02,1.62-.02.12,0,.13.01.13.13v.68c0,.13-.01.13-.13.13-.06,0-.47-.01-1.62-.01h-3.66ZM136.13,19.76c0,.6.02,1.29.02,1.67,0,.47-.07.79-.31,1.01-.2.18-.49.28-1.37.3-.37.01-.38.01-.47-.37-.05-.23-.16-.54-.28-.74.28.02.6.04.82.04.35,0,.42-.12.42-.36v-.48h-3.25v.55c0,.84.02,1.24.02,1.3,0,.13-.01.14-.14.14h-.94c-.13,0-.14-.01-.14-.14,0-.06.02-.42.02-1.27v-2.81c0-.84-.02-1.22-.02-1.29,0-.13.01-.14.14-.14.07,0,.43.02,1.49.02h2.39c1.06,0,1.4-.02,1.49-.02.12,0,.13.01.13.14,0,.07-.02.52-.02,1.4v1.07ZM131.72,18.08v.56h3.25v-.56h-3.25ZM134.97,20.02v-.59h-3.25v.59h3.25Z"/><path class="uuid-087c1f17-a770-4aba-ba7b-34150b352289" d="M141.64,15.07v-.95h-.32c-.92,0-1.22.02-1.3.02-.12,0-.13-.01-.13-.13v-.76c0-.11.01-.12.13-.12.07,0,.37.02,1.3.02h.32v-.02c0-.5-.01-.89-.08-1.32.44.01.84.04,1.19.08.13.01.19.06.19.12,0,.08-.04.14-.07.22-.06.11-.07.26-.07.6v.32h.26c.92,0,1.22-.02,1.29-.02.11,0,.12.01.12.12v.76c0,.12-.01.13-.12.13-.07,0-.37-.02-1.29-.02h-.26v.95h.41c1.03,0,1.36-.02,1.43-.02.12,0,.13.01.13.14v.74c0,.12-.01.13-.13.13-.07,0-.4-.02-1.43-.02h-2.16c-1.01,0-1.34.02-1.4.02-.13,0-.14-.01-.14-.13v-.74c0-.13.01-.14.14-.14.06,0,.4.02,1.4.02h.6ZM141.64,19.69v-.98h-.61c-1.01,0-1.34.02-1.4.02-.12,0-.13-.01-.13-.14v-.74c0-.12.01-.13.13-.13.06,0,.4.02,1.4.02h1.42c.14-.35.28-.71.38-1.06.05-.16.08-.33.12-.56.34.06.7.14,1.01.24.12.04.17.07.17.13s-.04.11-.08.14c-.06.05-.12.14-.16.23-.13.34-.23.56-.38.88.79,0,1.08-.02,1.15-.02.12,0,.13.01.13.13v.74c0,.13-.01.14-.13.14-.07,0-.4-.02-1.42-.02h-.44v.98h.32c.94,0,1.24-.02,1.31-.02.12,0,.13.01.13.13v.74c0,.12-.01.13-.13.13-.07,0-.37-.02-1.31-.02h-.32v.78c0,.8.02,1.19.02,1.25,0,.12-.01.13-.13.13h-.94c-.12,0-.13-.01-.13-.13,0-.07.02-.44.02-1.25v-.78h-.4c-.94,0-1.25.02-1.32.02-.12,0-.13-.01-.13-.13v-.74c0-.12.01-.13.13-.13.07,0,.38.02,1.32.02h.4ZM141.02,17.68s-.1.02-.13.02c-.06,0-.11-.05-.13-.13-.12-.4-.24-.72-.38-1.02-.06-.13-.04-.14.11-.19l.66-.2c.13-.04.17-.01.22.08.17.34.3.67.41,1.04.04.12.04.16-.12.2l-.62.19ZM148.78,16.16c.19,0,.28-.01.34-.05.06-.04.11-.05.18-.05s.17.04.46.32c.29.3.34.38.34.47,0,.1-.04.14-.08.2-.1.11-.14.19-.2.46-.24,1.06-.54,1.96-.97,2.77.48.53,1.04.97,1.72,1.39-.18.2-.34.48-.47.82-.08.18-.13.26-.2.26-.05,0-.12-.05-.24-.13-.54-.41-1.01-.83-1.44-1.29-.3.42-.64.82-1.02,1.21-.12.11-.18.17-.24.17-.07,0-.12-.08-.22-.25-.17-.31-.35-.54-.52-.71.01.56.02.88.02.92,0,.11-.01.12-.13.12h-.92c-.13,0-.14-.01-.14-.12,0-.08.02-.88.02-2.51v-5.17c0-1.64-.02-2.46-.02-2.54,0-.12.01-.13.14-.13.07,0,.54.02,1.49.02h1.93c.96,0,1.28-.02,1.35-.02.12,0,.17.04.16.16-.02.23-.02.41-.04.61-.05,1-.11,1.48-.26,1.8-.23.47-.56.64-1.31.64-.2,0-.42,0-.64-.01-.28-.02-.29-.02-.34-.31-.06-.35-.13-.61-.19-.77.35.05.65.07.94.07.31,0,.43-.07.5-.31.06-.2.08-.47.08-.74h-2.65v2.71h2.58ZM146.2,21.71c.5-.44.92-.89,1.26-1.36-.53-.83-.92-1.82-1.18-3.12h-.08v4.47ZM147.29,17.24c.2.8.47,1.47.8,2.05.29-.61.48-1.28.65-2.05h-1.45Z"/><path class="uuid-087c1f17-a770-4aba-ba7b-34150b352289" d="M156.07,13.64c.06-.36.12-.83.12-1.33.62.13.96.22,1.44.4.12.04.19.13.19.24,0,.06-.02.12-.08.18-.12.16-.18.29-.24.46-.16.49-.28.94-.43,1.44.32-.04.68-.05.96-.05,1.12,0,1.72.78,1.72,2.31,0,1.29-.24,2.89-.65,3.75-.35.77-.92,1.13-1.62,1.13-.58,0-.98-.06-1.25-.18-.14-.06-.22-.16-.22-.34-.04-.38-.06-.72-.23-1.12.54.25,1.01.31,1.38.31.4,0,.58-.14.77-.64.25-.67.47-1.81.47-2.99,0-.84-.16-1.1-.68-1.1-.29,0-.66.04-1.01.08-.79,2.3-1.48,3.96-2.41,5.64-.07.16-.17.18-.31.11-.22-.11-.68-.4-.83-.53-.06-.06-.1-.11-.1-.18,0-.04.01-.08.05-.13.96-1.67,1.58-2.94,2.19-4.7-.47.07-.85.14-1.18.2-.31.06-.5.13-.66.19-.17.06-.31.04-.38-.16-.11-.28-.24-.71-.37-1.24.53,0,1.06-.04,1.58-.08.5-.05.95-.11,1.42-.18.19-.68.28-1.1.36-1.51ZM160.82,14.45c.08-.05.14-.02.23.06.82.77,1.55,1.76,1.99,2.91.05.11.04.17-.05.24-.2.19-.66.48-.9.6-.12.06-.24.05-.28-.1-.48-1.26-1.1-2.29-1.97-3.11.3-.2.65-.44.97-.61ZM161.15,12.77c.06-.05.11-.04.18.02.37.29.8.77,1.14,1.28.05.07.05.13-.04.19l-.5.37c-.08.06-.14.05-.2-.04-.36-.55-.74-1.01-1.21-1.39l.64-.44ZM162.21,11.99c.07-.05.11-.04.18.02.44.34.88.82,1.14,1.24.05.07.06.14-.04.22l-.48.37c-.1.07-.16.04-.2-.04-.32-.52-.71-.97-1.2-1.38l.6-.43Z"/><path class="uuid-087c1f17-a770-4aba-ba7b-34150b352289" d="M168.99,17.65c0,.06-.01.11-.02.16.59,1.17,1.27,1.93,2.22,2.6-.19.2-.42.54-.56.88-.07.17-.12.24-.18.24s-.13-.06-.25-.18c-.66-.66-1.15-1.28-1.57-2.11-.37,1.08-1.04,2.11-2.07,3.06-.11.1-.18.14-.24.14-.08,0-.16-.08-.25-.23-.18-.29-.4-.52-.65-.68,1.34-1.01,1.98-2.08,2.29-3.42.04-.14.06-.3.08-.46h-.64c-1.02,0-1.37.02-1.44.02-.13,0-.14-.01-.14-.14v-.88c0-.11.01-.12.14-.12.07,0,.42.02,1.44.02h.77c.05-.56.06-1.19.07-1.83h-.71c-.18.32-.37.65-.58.95-.1.16-.16.23-.23.23s-.14-.06-.28-.18c-.24-.23-.48-.34-.68-.43.66-.77,1.12-1.66,1.42-2.66.08-.26.11-.48.13-.77.4.06.76.14,1.12.25.13.04.2.08.2.17,0,.07-.04.12-.11.2-.07.08-.17.17-.25.44-.07.23-.16.47-.25.71h1.42c1.04,0,1.39-.02,1.46-.02.13,0,.14.01.14.13v.88c0,.12-.01.13-.14.13-.07,0-.42-.02-1.46-.02-.01.62-.02,1.24-.07,1.83h.29c1.03,0,1.38-.02,1.45-.02.12,0,.13.01.13.12v.88c0,.13-.01.14-.13.14-.07,0-.42-.02-1.45-.02h-.41ZM171.5,22.37c-.12,0-.13-.01-.13-.13,0-.08.02-.73.02-3.61v-2.79c0-2-.02-2.67-.02-2.76,0-.11.01-.12.13-.12.08,0,.4.02,1.31.02h1.68c.92,0,1.23-.02,1.31-.02.13,0,.14.01.14.12,0,.07-.02.74-.02,2.4v3.09c0,2.82.02,3.47.02,3.54,0,.12-.01.13-.14.13h-.98c-.12,0-.13-.01-.13-.13v-.72h-2.06v.85c0,.12-.01.13-.13.13h-.98ZM172.61,20.23h2.06v-6.09h-2.06v6.09Z"/><path class="uuid-087c1f17-a770-4aba-ba7b-34150b352289" d="M181.49,12.64c.16.06.23.13.23.24,0,.07-.02.12-.08.19-.08.1-.14.26-.22.56-.17.82-.26,1.67-.34,2.29-.02.43-.06.89-.04,1.32.26-.47.52-.92.84-1.54.11.36.23.58.37.78.06.07.07.13.07.19,0,.1-.05.19-.12.3-.26.5-.54,1.01-.71,1.54-.04.11-.05.22-.06.36,0,.12-.05.17-.16.19-.14.04-.66.11-.96.14-.08.01-.14-.07-.17-.16-.19-.52-.36-1.44-.36-2.43,0-.8.13-1.79.29-2.99.05-.42.1-.83.1-1.37.54.11,1,.23,1.31.37ZM185.39,12.43c.24.06.26.12.24.32-.02.17-.02.38-.02.55.08,1.14.17,2.23.17,3.09,0,1.7-.28,3.18-.91,4.16-.47.74-1.22,1.45-1.98,1.93-.08.06-.17.08-.24.08-.08,0-.16-.04-.25-.13-.26-.23-.64-.44-1.02-.55.97-.54,1.56-.97,2.04-1.61.7-.95,1.01-1.93,1.01-3.83,0-.85-.06-2.1-.14-2.87-.06-.59-.12-.89-.25-1.31.53.02,1.02.05,1.37.14Z"/><path class="uuid-087c1f17-a770-4aba-ba7b-34150b352289" d="M195.55,13.95c.13-.04.18.02.19.12.04.26.07.61.08.86.01.16-.02.19-.18.23-.74.2-1.35.34-2.09.46-.82,2.66-1.43,4.5-2.19,6.49-.06.17-.13.16-.26.12-.12-.05-.71-.3-.96-.44-.1-.06-.13-.16-.1-.24.91-2.1,1.49-3.68,2.07-5.69-.7.07-1.54.13-2.1.13-.18,0-.23-.04-.25-.19-.05-.25-.11-.66-.17-1.09.25.04.4.04.89.04.6,0,1.25-.04,1.94-.12.12-.48.22-1.01.3-1.5.05-.36.07-.72.07-1.1.64.1,1.13.18,1.51.34.1.04.13.12.13.19,0,.05,0,.11-.06.19-.1.17-.19.29-.25.48-.12.43-.2.84-.29,1.14.47-.08,1.12-.24,1.7-.41ZM195.08,19.69c.12,0,.17.05.18.17.1.88.68,1.13,1.83,1.13.67,0,1.54-.11,2.02-.17.1-.01.13.01.14.11.05.31.1.72.1,1.04.01.14,0,.18-.19.19-.41.06-1.19.13-1.63.13-1.57,0-2.39-.22-2.93-.78-.38-.38-.52-.95-.54-1.64.37-.1.86-.18,1.02-.18ZM194.95,16.51c0-.17.04-.2.22-.24.76-.16,1.64-.28,2.34-.28.47,0,.98.05,1.4.12.17.02.2.04.2.18.02.3.02.63.01.96,0,.2-.06.25-.23.22-.42-.08-.97-.14-1.49-.14-.72,0-1.63.12-2.41.28-.02-.42-.05-.85-.05-1.09Z"/><path class="uuid-087c1f17-a770-4aba-ba7b-34150b352289" d="M203.79,13.92c.11.05.19.13.19.22,0,.07-.04.19-.1.34-.05.14-.11.66-.11,1.17,0,.77.02,1.63.22,2.73.17.95.48,1.76.98,1.76.38,0,.68-.42,1.15-1.67.26.42.53.7.77.92.14.13.14.28.08.44-.46,1.22-1.2,1.87-2.04,1.87-.94,0-1.92-1.1-2.24-3.13-.19-1.14-.29-2.39-.29-3.49,0-.66-.02-1.02-.14-1.57.58.07,1.16.22,1.52.4ZM209.36,14.67s.1-.05.13-.05c.05,0,.08.02.13.07,1.09.95,2.05,2.6,2.35,4.1.04.16-.04.2-.13.26-.31.2-.61.37-.94.48-.14.05-.23.01-.25-.13-.41-1.72-1.02-2.96-2.24-4.19.46-.29.76-.46.95-.55Z"/><path class="uuid-087c1f17-a770-4aba-ba7b-34150b352289" d="M217.64,19.5h-1.21l-.34-7.14h1.87l-.32,7.14ZM217.87,20.66v1.62h-1.7v-1.62h1.7Z"/><line class="uuid-14c7acd5-ad4d-40e5-8bcc-59a335c2aa22" x1="67.83" y1="31.55" x2="51.03" y2="7.87"/><line class="uuid-14c7acd5-ad4d-40e5-8bcc-59a335c2aa22" x1="230.61" y1="31.55" x2="247.42" y2="7.87"/><rect class="uuid-836d10df-b563-41ca-8ff9-067f35fab753" width="299.35" height="36.02"/></g></svg>