<?xml version="1.0" encoding="UTF-8"?><svg id="uuid-60fcc357-201d-401d-86cc-09766c280e84" xmlns="http://www.w3.org/2000/svg" width="280" height="100" viewBox="0 0 280 100"><defs><style>.uuid-09ecdce3-d336-4c35-8c7e-15d84eacfe00{fill:none;}.uuid-18b73afc-6665-4907-bf99-2a44b925272f{fill:#1c1c1c;}</style></defs><g id="uuid-3af254bc-6e23-4d05-a3b2-9aec95d968f8"><path class="uuid-18b73afc-6665-4907-bf99-2a44b925272f" d="M37.48,38.48h1.72c.8,0,1.61-.02,2.42-.05.13-.01.19.05.19.19.01.31.01.65,0,.96,0,.16-.04.22-.18.22-.58-.02-1.64-.05-2.42-.05h-4.82c-.49,0-1.27.04-2.21.05-.19.01-.22-.04-.25-.24-.05-.26-.08-.7-.08-1.13.86.05,1.78.06,2.54.06h1.63v-4.1h-.94c-.86,0-1.37.02-1.86.05-.14.01-.17-.07-.2-.25-.05-.24-.1-.71-.1-1.12.6.06,1.08.05,2.07.05h3.39c.73,0,1.39,0,2.1-.04.12-.01.16.06.16.19.01.3.01.64,0,.94-.01.16-.04.23-.17.23-.8-.04-1.39-.05-2.06-.05h-.94v4.09Z"/><path class="uuid-18b73afc-6665-4907-bf99-2a44b925272f" d="M44.86,33.39c0-.83-.04-1.28-.13-1.75.5.06,1.14.13,1.49.25.14.04.2.11.2.19,0,.06-.02.12-.05.18-.11.23-.13.53-.13,1.14v2.42c0,.62.02,1.09.04,1.51,0,.18-.07.24-.26.24h-.96c-.17,0-.24-.06-.23-.2,0-.42.04-1.12.04-1.63v-2.35ZM50.5,35.64c0,1.77-.26,2.96-.97,3.91-.59.78-1.63,1.51-2.64,1.88-.1.04-.18.06-.25.06-.1,0-.18-.04-.29-.14-.29-.29-.6-.52-1.02-.73,1.28-.4,2.29-.96,2.93-1.75.55-.68.8-1.68.8-3.2v-2.27c0-1.03-.02-1.42-.13-1.96.58.05,1.15.13,1.56.26.12.04.17.11.17.2,0,.06-.01.13-.05.19-.11.25-.11.56-.11,1.31v2.23Z"/><path class="uuid-18b73afc-6665-4907-bf99-2a44b925272f" d="M56.67,33.55c-.68,0-1.42.05-2.12.1-.14.01-.19-.07-.22-.18-.1-.34-.17-.94-.22-1.29.82.06,1.48.08,2.43.08h5.15c.5,0,.71-.02.83-.07.06-.02.17-.08.23-.08.1,0,.19.07.28.17.26.23.49.48.72.76.06.07.1.14.1.22,0,.1-.06.18-.17.25-.13.1-.23.22-.32.35-.56.85-1.31,1.68-2.11,2.31-.07.07-.16.11-.25.11s-.2-.05-.29-.12c-.3-.24-.6-.37-1-.49.96-.72,1.55-1.23,2.15-2.1h-5.18ZM57.35,38.23c.46-.85.59-1.67.59-2.83,0-.44-.02-.72-.12-1.13.59.06,1.21.14,1.55.23.16.04.2.12.2.23,0,.07-.02.14-.06.22-.08.17-.1.29-.11.49-.04,1.16-.16,2.23-.71,3.3-.47.9-1.19,1.75-2.18,2.39-.11.07-.22.12-.34.12-.08,0-.17-.04-.24-.11-.29-.25-.64-.44-1.09-.61,1.31-.68,1.99-1.33,2.51-2.29Z"/><path class="uuid-18b73afc-6665-4907-bf99-2a44b925272f" d="M67.71,37.51c.11.06.12.12.06.22-.18.28-.31.67-.31.91,0,.76.78,1.13,2.84,1.13,1.16,0,2.27-.13,3.25-.35.17-.04.23,0,.25.11.06.23.17.88.19,1.18.01.11-.06.16-.2.18-1.12.2-2.22.29-3.51.29-2.77,0-4.13-.86-4.13-2.42,0-.49.18-1.01.64-1.72.31.16.61.31.92.48ZM70.42,32.81c.88,0,1.73-.05,2.5-.11.12-.01.17.04.18.13.05.28.1.61.11,1.02,0,.17-.06.24-.2.25-1.14.17-1.97.56-2.94,1.19-.1.07-.2.11-.3.11-.08,0-.17-.02-.25-.07-.24-.16-.49-.29-.84-.38.62-.41,1.15-.74,1.57-1-.26.04-.64.04-.88.04-.49,0-1.52-.07-2.21-.2-.11-.02-.16-.07-.16-.22,0-.29.02-.64.05-1.07.91.22,2.06.31,3.37.31ZM73.69,31.47c.06-.05.11-.04.18.02.37.29.8.77,1.14,1.28.05.07.05.13-.04.19l-.5.37c-.08.06-.14.05-.2-.04-.36-.55-.74-1.01-1.21-1.39l.64-.44ZM74.75,30.69c.07-.05.11-.04.18.02.44.34.88.82,1.14,1.24.05.07.06.14-.04.22l-.48.37c-.1.07-.16.04-.2-.04-.32-.52-.71-.97-1.2-1.38l.6-.43Z"/><path class="uuid-18b73afc-6665-4907-bf99-2a44b925272f" d="M80.85,31.53c.14.04.22.1.22.19,0,.17-.08.34-.08.5,0,.24.04.53.06.8.11.84.23,1.44.38,2.06.6-.32,1.03-.55,1.7-.91.35-.2.64-.41.83-.65.38.4.7.82.88,1.13.05.07.08.17.08.25,0,.12-.07.22-.24.24-.36.06-.77.2-1.15.36-1.03.42-1.99.86-2.82,1.4-1.04.68-1.42,1.25-1.42,1.81,0,.71.53,1.01,1.91,1.01,1.51,0,2.73-.11,3.66-.28.13-.02.19,0,.22.14.06.32.1.76.12,1.12.01.13-.07.19-.22.2-1.09.14-2.05.18-3.57.18-2.27,0-3.47-.74-3.47-2.3,0-1.33.88-2.21,2.28-3.09-.29-.92-.5-2-.62-2.93-.08-.64-.17-1.06-.31-1.39.58,0,1.13.04,1.57.14Z"/><path class="uuid-18b73afc-6665-4907-bf99-2a44b925272f" d="M93.57,33.55c-.28,2.04-.78,3.91-1.5,5.17-.52.9-1.14,1.38-2.04,1.38-1.06,0-2.12-1.13-2.12-3.08,0-1.15.49-2.25,1.36-3.12,1.01-1.01,2.28-1.54,3.9-1.54,2.88,0,4.57,1.78,4.57,4.16,0,2.23-1.26,3.63-3.69,4.37-.25.07-.36.02-.52-.22-.13-.2-.38-.48-.84-.76,2.03-.48,3.62-1.32,3.62-3.59,0-1.43-1.08-2.78-2.69-2.78h-.05ZM90.13,34.71c-.58.65-.94,1.45-.94,2.22,0,1.1.44,1.71.82,1.71.31,0,.58-.16.9-.73.53-.97,1.07-2.7,1.27-4.29-.84.17-1.51.5-2.05,1.09Z"/><path class="uuid-18b73afc-6665-4907-bf99-2a44b925272f" d="M109.4,39.03c0,.55.02,1.07.02,1.49,0,.44-.07.78-.41,1.02-.26.18-.78.26-1.59.26-.36,0-.37.01-.46-.37-.07-.32-.22-.7-.37-.9.42.04.88.05,1.28.02.26-.01.34-.11.34-.37v-2.37h-2.36c-1.14,0-1.52.02-1.6.02-.12,0-.13-.01-.13-.13v-.61s-.13.07-.23.12c-.26.14-.55.28-.84.42v2c0,1.37.02,2.05.02,2.11,0,.12-.01.13-.14.13h-.96c-.12,0-.13-.01-.13-.13,0-.07.02-.74.02-2.1v-1.46l-.84.36c-.19.08-.34.17-.4.24-.05.06-.13.11-.2.11-.08,0-.13-.02-.18-.13-.14-.34-.3-.83-.4-1.16.38-.07.71-.17,1.12-.32.3-.1.6-.2.9-.32v-2.46h-.71c-.07.47-.16.94-.28,1.38-.05.2-.07.29-.14.29-.06,0-.14-.05-.28-.12-.19-.08-.46-.19-.66-.24.32-1.04.46-2.18.5-3.14.01-.23.01-.5-.01-.77.31.04.67.08.97.14.14.04.19.07.19.14s-.02.12-.06.19c-.04.08-.05.22-.06.41l-.05.59h.58v-.67c0-.85-.02-1.21-.1-1.81.46.01.82.04,1.24.08.12.01.19.06.19.12,0,.1-.04.16-.07.25-.06.14-.07.44-.07,1.33v.7c.66,0,.91-.02.97-.02.13,0,.14.01.14.12v.92c0,.07-.01.11-.04.12.1,0,.5.02,1.59.02h.88v-1.2h-.49c-1.07,0-1.42.02-1.49.02-.13,0-.14-.01-.14-.13v-.85c0-.12.01-.13.14-.13.07,0,.42.02,1.49.02h.49c-.01-.7-.04-1.03-.11-1.37.47.01.84.05,1.26.1.12.01.19.05.19.12,0,.08-.04.16-.07.24-.05.13-.08.32-.08.91h.84c1.08,0,1.44-.02,1.51-.02.12,0,.13.01.13.13v.85c0,.12-.01.13-.13.13-.07,0-.43-.02-1.51-.02h-.84v1.2h1.32c1.14,0,1.54-.02,1.6-.02.12,0,.13.01.13.12v.85c0,.12-.01.13-.13.13-.06,0-.46-.02-1.6-.02h-3.38c-1.15,0-1.55.02-1.62.02-.12,0-.13-.01-.13-.13v-.85c0-.06,0-.08.02-.11-.08,0-.34-.01-.95-.02v1.96c.35-.17.72-.34,1.1-.54,0,.23.01.53.04.79h.06c.07,0,.46.02,1.6.02h2.36c-.01-.44-.02-.73-.08-.96.43.02.91.07,1.22.13.12.02.19.08.19.14,0,.08-.04.14-.07.2-.05.08-.07.19-.07.48.89,0,1.22-.02,1.28-.02.12,0,.13.01.13.13v.88c0,.12-.01.13-.13.13-.06,0-.4-.01-1.28-.02v1.22ZM105.5,38.19c.13-.07.17-.07.25.01.42.4.8.89,1.16,1.39.07.11.06.13-.07.23l-.72.52c-.07.05-.11.07-.14.07s-.06-.04-.08-.1c-.34-.59-.67-1.04-1.1-1.5-.08-.11-.07-.13.06-.22l.65-.41Z"/><path class="uuid-18b73afc-6665-4907-bf99-2a44b925272f" d="M113.81,38.5c0-.37.01-.88.02-1.31-.18.18-.36.37-.55.54-.11.11-.18.16-.24.16-.07,0-.11-.08-.16-.26-.1-.35-.2-.64-.35-.86.9-.77,1.54-1.54,2.06-2.45.12-.2.22-.43.31-.66.32.2.55.36.84.58.01-.17.01-.38.01-.7v-.86c0-.31-.01-.55-.05-.8-.11.07-.2.17-.31.31-.53.7-1.18,1.32-1.92,1.96-.12.1-.19.16-.25.16-.08,0-.14-.1-.22-.29-.13-.35-.29-.61-.44-.78.76-.48,1.38-1.08,1.97-1.81.13-.17.26-.4.35-.56.31.18.55.36.85.61.1.08.16.13.16.22t-.01.05l.85.07c.11.01.17.05.17.11,0,.08-.04.13-.07.22-.04.07-.06.18-.06.53v1.09h.53v-1.64c0-.54-.01-.8-.07-1.13.43.01.68.04,1.07.06.11.01.17.05.17.11,0,.08-.05.13-.07.22-.04.1-.06.23-.06.74v1.64h.53v-1.07c0-.38-.02-.64-.06-.95.38.01.76.04,1.03.07.11.01.16.05.16.12s-.02.11-.06.18c-.04.08-.06.19-.06.56v.88c0,.62.02.95.02,1.02.52-.94.78-1.83.98-2.77.06-.28.11-.62.12-.95.35.05.8.16,1.06.22.13.05.2.1.2.17,0,.1-.05.16-.11.24-.08.11-.12.25-.19.55-.08.36-.18.71-.29,1.06h.86c.86,0,1.13-.02,1.2-.02.12,0,.13.01.13.14v.85c0,.12-.01.13-.13.13-.05,0-.18-.01-.49-.01-.06,1.75-.36,3.19-.94,4.41.43.7,1.01,1.32,1.75,1.91-.2.28-.34.5-.49.91-.06.18-.11.26-.18.26-.05,0-.13-.06-.24-.17-.6-.59-1.08-1.19-1.48-1.82-.5.73-1.13,1.38-1.9,1.98-.13.1-.2.16-.26.16-.07,0-.12-.07-.22-.23-.17-.29-.37-.49-.58-.66,1.02-.7,1.79-1.48,2.34-2.4-.35-.78-.59-1.61-.76-2.51-.1.13-.14.19-.19.19-.06,0-.12-.07-.22-.24-.06-.08-.12-.17-.19-.24v.68c0,.12-.01.13-.13.13-.07,0-.35-.02-1.15-.02h-.08v.9c.8,0,1.06-.02,1.13-.02.12,0,.13.01.13.13v.76c0,.12-.01.13-.13.13-.07,0-.32-.02-1.13-.02v.98c.46-.08.95-.19,1.44-.32-.05.19-.1.38-.11.61q-.04.4-.4.48c-.9.24-1.91.46-2.76.61-.22.04-.42.11-.52.16-.06.04-.11.07-.19.07-.06,0-.11-.05-.14-.22-.07-.3-.11-.6-.17-1.02.44-.02.84-.06,1.21-.11.17-.02.34-.04.53-.07v-1.18h-.11c-.82,0-1.07.02-1.14.02-.12,0-.13-.01-.13-.13v-.76c0-.12.01-.13.13-.13.07,0,.32.02,1.14.02h.11v-.9h-.22c-.85,0-1.13.02-1.2.02-.13,0-.14-.01-.14-.13v-.78c0-.12.01-.13.14-.13.07,0,.35.02,1.2.02h1.4c.62,0,.92-.01,1.07-.01l-.12-.11c.16-.23.3-.46.43-.68-.11,0-.41-.02-1.26-.02h-1.44c-.85,0-1.15.02-1.22.02s-.08,0-.12-.02c-.08.06-.16.16-.26.34-.16.25-.32.52-.52.79v4.45c0,.96.02,1.42.02,1.48,0,.12-.01.13-.13.13h-.95c-.12,0-.13-.01-.13-.13,0-.06.02-.52.02-1.48v-1.76ZM121.28,34.15c-.08.2-.17.4-.26.59.13.94.32,1.76.62,2.52.3-.89.47-1.91.53-3.11h-.89Z"/><path class="uuid-18b73afc-6665-4907-bf99-2a44b925272f" d="M131.27,33.63c.79-.25,1.4-.34,2.11-.34,1.55,0,2.53.9,2.53,2.22,0,1.55-1.14,2.5-3.09,2.5-.24,0-.37,0-.53-.01-.22-.01-.28-.07-.32-.22-.14-.44-.28-.78-.59-1.15.53.08.88.12,1.33.12,1.1,0,1.8-.49,1.8-1.33,0-.64-.48-.98-1.25-.98-.64,0-1.14.13-1.78.34-.7.24-1.25.46-1.98.79.64,1.8,1.24,3.48,1.86,5.34.05.16.06.2-.11.29-.3.16-.65.28-1.03.38-.08.01-.12-.01-.16-.13-.56-1.91-1.08-3.53-1.73-5.33-.46.22-.84.4-1.14.54-.3.14-.43.23-.62.37-.08.07-.17.12-.23.12-.07,0-.19-.06-.29-.18-.3-.36-.5-.78-.73-1.17.54-.1.74-.16,1.18-.31.26-.1.67-.24,1.39-.55-.14-.43-.31-.91-.55-1.55-.08-.22-.24-.58-.55-1,.52-.11,1.14-.18,1.61-.18.11,0,.18.08.18.25,0,.16.02.24.05.4.07.26.11.44.24.92.08.3.16.48.22.64.77-.3,1.51-.58,2.18-.78ZM130.97,31.2c.06-.04.1-.05.13-.05s.07.01.13.05c.38.25.94.66,1.3,1.09.04.05.06.08.06.13s-.02.08-.06.13c-.22.24-.49.47-.79.66-.04.02-.07.05-.11.05-.02,0-.06-.02-.1-.06-.42-.48-.86-.94-1.49-1.32.34-.26.67-.53.92-.68Z"/><path class="uuid-18b73afc-6665-4907-bf99-2a44b925272f" d="M140.83,40.82c-.12,0-.13-.01-.13-.13,0-.07.02-.34.02-1.72v-.6c0-.68-.02-.97-.02-1.06,0-.11.01-.12.13-.12.08,0,.38.02,1.28.02h1.58c.9,0,1.2-.02,1.28-.02.12,0,.13.01.13.12,0,.07-.02.35-.02.88v.68c0,1.21.01,1.51.02,1.62.3.01.59.02.82.02.28,0,.38-.13.38-.41v-7.56h-6.63v2.79c0,3.32-.35,4.8-1.15,6.21-.1.16-.13.24-.19.24-.05,0-.1-.07-.2-.2-.3-.35-.61-.56-.86-.7.83-1.31,1.14-2.57,1.14-5.5v-1.93c0-1.24-.02-1.87-.02-1.96,0-.12.01-.13.13-.13.08,0,.49.02,1.66.02h5.66c1.15,0,1.56-.02,1.64-.02.12,0,.13.01.13.13,0,.07-.02.72-.02,1.96v5.35c0,.55.02,1.16.02,1.66,0,.44-.08.74-.35.97-.23.2-.55.31-1.58.31-.37,0-.38,0-.46-.36-.07-.3-.16-.54-.26-.74h-.85c-.12,0-.13-.01-.13-.13v-.3h-2.12v.47c0,.12,0,.13-.13.13h-.89ZM143.5,34.68v.85h.73c1.06,0,1.39-.02,1.46-.02.12,0,.13.01.13.14v.76c0,.12-.01.13-.13.13-.07,0-.41-.02-1.46-.02h-2.52c-1.04,0-1.39.02-1.46.02-.12,0-.13-.01-.13-.13v-.76c0-.13.01-.14.13-.14.07,0,.42.02,1.46.02h.64v-.85h-.31c-.96,0-1.27.02-1.34.02-.12,0-.13-.01-.13-.14v-.74c0-.12.01-.13.13-.13.07,0,.38.02,1.34.02h.31c-.01-.42-.04-.61-.08-.94.44.01.78.04,1.18.1.13.01.19.08.19.14,0,.08-.02.13-.06.2-.06.11-.07.2-.07.49h.4c.95,0,1.27-.02,1.34-.02.12,0,.13.01.13.13v.74c0,.13-.01.14-.13.14-.07,0-.4-.02-1.34-.02h-.4ZM141.85,39.27h2.12v-1.1h-2.12v1.1Z"/><path class="uuid-18b73afc-6665-4907-bf99-2a44b925272f" d="M152.69,39.13c.25.49.49.78.98,1,.42.17,1.18.25,2.22.25,1.55,0,3.37-.1,5.16-.28-.17.25-.28.6-.32.94q-.06.38-.44.41c-1.52.08-2.95.12-4.2.12s-2.23-.11-2.81-.35c-.55-.23-.88-.56-1.18-1.07-.37.36-.8.72-1.24,1.06-.12.1-.19.17-.24.24-.06.08-.11.12-.18.12-.05,0-.12-.06-.17-.16-.17-.31-.32-.7-.49-1.13.3-.14.48-.23.71-.37.35-.2.7-.48,1.01-.76v-2.66h-.58c-.65,0-.82.02-.88.02-.13,0-.14-.01-.14-.14v-.92c0-.12.01-.13.14-.13.06,0,.23.02.88.02h.76c.64,0,.83-.02.9-.02.12,0,.13.01.13.13,0,.07-.02.41-.02,1.14v2.54ZM150.94,31.22c.06-.05.11-.07.14-.07s.07.02.12.07c.6.53,1.15,1.15,1.63,1.83.07.11.06.13-.08.25l-.68.53c-.06.05-.1.07-.13.07s-.07-.02-.11-.08c-.49-.73-1.06-1.42-1.61-1.92-.1-.1-.08-.13.06-.23l.66-.46ZM156.89,32.76c-.04,1.69-.22,3.07-.71,4.16-.36.84-.91,1.64-1.96,2.48-.13.11-.2.17-.26.17-.07,0-.13-.08-.25-.26-.19-.25-.47-.52-.71-.66,1.08-.71,1.72-1.51,2.05-2.33.38-.88.55-2.17.56-3.56h-.53c-1.14,0-1.52.02-1.59.02-.12,0-.13-.01-.13-.13v-.94c0-.12.01-.13.13-.13.07,0,.46.02,1.59.02h3.44c1.14,0,1.55-.02,1.62-.02.12,0,.14.02.14.14-.02.37-.02.78-.04,1.22-.04,1.91-.11,3.67-.29,4.82-.2,1.28-.8,1.8-1.88,1.8-.31,0-.43,0-.72-.02q-.37-.02-.44-.41c-.06-.34-.14-.65-.26-.9.58.1.83.12,1.24.12.49,0,.73-.24.86-1.18.12-.8.22-2.4.24-4.43h-2.11Z"/><path class="uuid-18b73afc-6665-4907-bf99-2a44b925272f" d="M165.01,37.95c.37-.17.76-.35,1.17-.56-.01.23,0,.52.04.78q.05.38-.29.56c-.8.41-1.56.73-2.36,1.02-.19.07-.31.14-.37.19-.06.05-.13.1-.19.1-.07,0-.12-.04-.17-.16-.11-.32-.18-.65-.29-1.12.49-.1.73-.17,1.15-.31l.17-.06v-2.6c-.66,0-.85.02-.92.02-.11,0-.12-.01-.12-.13v-.86c0-.11.01-.12.12-.12.07,0,.26.02.92.02v-2.09h-.02c-.74,0-.96.02-1.03.02-.12,0-.13-.01-.13-.14v-.84c0-.12.01-.13.13-.13.07,0,.29.02,1.04.02h1.08c.76,0,.97-.02,1.04-.02.12,0,.13.01.13.13v.84c0,.13-.01.14-.13.14-.07,0-.29-.02-.97-.02v2.09c.54,0,.72-.02.79-.02.12,0,.13.04.13.12v.86c0,.12-.01.13-.13.13-.07,0-.25-.01-.79-.02v2.16ZM171.14,36c1.08,0,1.45-.01,1.52-.01.12,0,.13,0,.13.12,0,.07-.02.26-.02.77v1.22l.7.4c.07.05.1.1.1.16,0,.07-.06.1-.13.13-.08.05-.17.1-.25.18-.26.26-.61.55-1,.84.54.29,1.12.5,1.73.66-.2.24-.36.47-.49.72-.1.23-.13.31-.23.31-.06,0-.16-.04-.29-.1-1.1-.46-2.15-1.22-2.89-2.15.02,1.64.06,2.27.06,2.52,0,.12-.01.13-.12.13h-.96c-.12,0-.13-.01-.13-.13,0-.24.04-.88.05-2.48-.77.79-1.82,1.56-2.94,2.05-.13.07-.22.11-.28.11-.1,0-.14-.08-.26-.29-.16-.25-.34-.44-.54-.65,1.24-.46,2.54-1.12,3.51-2.06-1.09,0-1.46.02-1.54.02-.13,0-.14-.01-.14-.12,0-.08.02-.26.02-.77v-.71c0-.5-.02-.68-.02-.77,0-.12.01-.12.14-.12.07,0,.46.01,1.58.01h2.69ZM168,35.46c-1.16,0-1.55.02-1.62.02-.12,0-.13-.01-.13-.13v-.78c0-.12.01-.13.13-.13.07,0,.46.02,1.62.02h3.72c1.16,0,1.56-.02,1.64-.02.12,0,.13.01.13.13v.78c0,.12-.01.13-.13.13-.08,0-.48-.02-1.64-.02h-3.72ZM171.36,31.28c1.13,0,1.52-.02,1.61-.02.12,0,.13.01.13.13,0,.07-.02.28-.02.8v.84c0,.53.02.71.02.78,0,.13-.01.14-.13.14-.08,0-.48-.02-1.61-.02h-3.11c-1.18,0-1.58.02-1.66.02-.12,0-.13-.01-.13-.14,0-.07.02-.25.02-.78v-.84c0-.53-.02-.72-.02-.8,0-.12.01-.13.13-.13.07,0,.48.02,1.61.02h3.15ZM168.42,33.08v-.94h-.94v.94h.94ZM171.67,36.87h-3.83v.76h3.83v-.76ZM169.28,33.08h.95v-.94h-.95v.94ZM170.39,38.44c.3.32.64.61.98.86.35-.29.66-.59.9-.85-.23,0-.59-.01-1.13-.01h-.76ZM172.08,32.15h-.96v.94h.96v-.94Z"/><path class="uuid-18b73afc-6665-4907-bf99-2a44b925272f" d="M177.91,38.1c.38-.17.78-.35,1.21-.58-.02.23-.02.49,0,.74.04.4.02.4-.32.56-.72.36-1.46.67-2.3.97-.2.07-.34.13-.4.18-.06.05-.13.1-.2.1s-.12-.04-.17-.14c-.12-.31-.23-.65-.34-1.07.4-.06.76-.14,1.19-.29l.17-.06v-3.39h-.05c-.74,0-.97.02-1.04.02-.11,0-.12-.01-.12-.13v-.91c0-.12.01-.13.12-.13.07,0,.3.02,1.04.02h.05v-1.07c0-.85-.02-1.22-.1-1.82.44.01.82.04,1.22.08.11.01.17.07.17.13,0,.08-.02.16-.05.24-.06.16-.08.46-.08,1.34v1.09c.56,0,.77-.02.84-.02.12,0,.13.01.13.13v.91c0,.12-.01.13-.13.13-.07,0-.28-.01-.84-.02v2.97ZM183.93,40.21c0,.22.04.3.13.35.07.04.22.05.56.05.31,0,.49-.02.61-.14.16-.14.18-.32.19-1.12.22.12.54.25.79.32q.3.1.26.41c-.07.74-.2,1.08-.48,1.32-.28.25-.67.34-1.45.34s-1.15-.05-1.4-.17c-.24-.1-.4-.32-.4-.86v-1.69h-.8c-.34,1.62-1.16,2.42-2.97,2.88-.13.04-.24.05-.29.05-.12,0-.16-.07-.28-.29-.16-.3-.37-.55-.56-.7,1.73-.28,2.66-.72,2.89-1.94-.66.01-.92.02-.98.02-.12,0-.13-.01-.13-.14,0-.07.02-.35.02-1v-1.46c0-.65-.02-.92-.02-1.01,0-.12.01-.13.13-.13.08,0,.46.02,1.54.02h2.6c1.08,0,1.44-.02,1.52-.02.12,0,.13.01.13.13,0,.08-.02.36-.02,1.01v1.46c0,.65.02.92.02,1,0,.13-.01.14-.13.14-.08,0-.44-.02-1.49-.02v1.2ZM180.87,34.76c-1.16,0-1.57.02-1.64.02-.11,0-.12-.01-.12-.13v-.73c0-.12.01-.13.12-.13.06,0,.46.02,1.49.02-.12-.36-.26-.7-.41-.96-.54.01-.77.02-.82.02-.13,0-.14-.01-.14-.13v-.7c0-.12.01-.13.14-.13.07,0,.46.02,1.58.02h.84v-.11c0-.37-.02-.67-.08-.94.42.01.8.04,1.17.07.11.01.19.06.19.11,0,.07-.04.13-.07.2-.05.1-.06.25-.06.53v.13h1.14c1.12,0,1.51-.02,1.58-.02.12,0,.13.01.13.13v.7c0,.12-.01.13-.13.13-.06,0-.31-.01-.94-.02-.06.04-.11.1-.14.19-.13.28-.24.53-.37.77h.34c1.18,0,1.57-.02,1.63-.02.12,0,.13.01.13.13v.73c0,.12-.01.13-.13.13-.06,0-.46-.02-1.63-.02h-3.8ZM180.77,36.76h3.6v-.61h-3.6v.61ZM184.37,37.54h-3.6v.62h3.6v-.62ZM181.47,32.85c.13.3.26.62.36.96h1.37c.14-.3.26-.58.38-.96h-2.11Z"/><path class="uuid-18b73afc-6665-4907-bf99-2a44b925272f" d="M190.67,32.21c.2.11.28.18.28.29,0,.08-.02.12-.18.36-.12.22-.18.38-.29.85-.34,1.49-.5,2.96-.5,3.87,0,.59.02.98.07,1.4.25-.55.47-.95.82-1.79.1.3.25.49.42.76.04.06.08.13.08.18,0,.08-.02.13-.06.19-.28.62-.5,1.14-.68,1.81-.02.07-.04.2-.04.37,0,.14.02.24.02.34,0,.08-.05.13-.16.16-.3.08-.64.16-.98.19-.08.01-.13-.05-.16-.13-.34-.84-.55-2.36-.55-3.57,0-1.08.13-2.39.41-3.93.16-.89.22-1.28.22-1.79.54.13.92.25,1.28.44ZM193.24,37.85c.1-.01.12.05.12.18.07.83.65,1.13,1.96,1.13.9,0,1.49-.06,2.29-.16.12-.01.14,0,.17.16.04.25.07.72.07,1.03,0,.14,0,.16-.2.18-.82.1-1.39.13-1.95.13-1.78,0-2.6-.29-3.12-1-.3-.38-.42-1-.42-1.56l1.09-.1ZM192.57,33.37c.01-.14.05-.18.17-.2.71-.13,2.05-.22,2.6-.22.72,0,1.27.02,1.77.07.25.01.28.04.28.16,0,.36,0,.68-.02,1.02-.01.11-.05.16-.16.14-.72-.05-1.34-.07-1.96-.07-.8,0-1.58.07-2.72.28.01-.67.01-.97.04-1.18Z"/><path class="uuid-18b73afc-6665-4907-bf99-2a44b925272f" d="M202.19,34.01c1.85-.62,3.35-1,4.32-1,2.15,0,3.53,1.3,3.53,3.18,0,1.57-.68,2.57-2.11,3.33-1.01.56-1.94.76-3.05,1-.24.05-.34.04-.42-.19-.14-.34-.44-.7-.84-.95,1.58-.26,2.43-.49,3.25-.89,1.02-.52,1.66-1.28,1.66-2.39s-.73-1.82-2.06-1.82c-1.08,0-2.51.43-4.33,1.24-.38.19-.68.32-.83.43-.17.14-.26.18-.32.18-.12,0-.22-.07-.35-.25-.22-.26-.52-.73-.77-1.25.53-.06.97-.17,2.33-.62Z"/><path class="uuid-18b73afc-6665-4907-bf99-2a44b925272f" d="M214.01,32.96c.11.05.19.13.19.22,0,.07-.04.19-.1.34-.05.14-.11.66-.11,1.18,0,.77.02,1.63.22,2.73.17.95.48,1.76.98,1.76.38,0,.68-.42,1.15-1.67.26.42.53.7.77.92.14.13.14.28.08.44-.46,1.22-1.2,1.87-2.04,1.87-.94,0-1.92-1.1-2.24-3.13-.19-1.14-.29-2.39-.29-3.49,0-.66-.02-1.02-.14-1.57.58.07,1.16.22,1.52.4ZM219.57,33.72s.1-.05.13-.05c.05,0,.08.02.13.07,1.09.95,2.05,2.6,2.35,4.1.04.16-.04.2-.13.26-.31.2-.61.37-.94.48-.14.05-.23.01-.25-.13-.41-1.71-1.02-2.96-2.24-4.19.46-.29.76-.46.95-.55Z"/><path class="uuid-18b73afc-6665-4907-bf99-2a44b925272f" d="M229.32,33.65c-1.46.28-2.75.53-4.03.79-.46.11-.58.13-.76.19-.08.04-.17.1-.26.1-.08,0-.18-.07-.23-.18-.16-.32-.29-.74-.44-1.3.61-.02.97-.07,1.91-.2,1.48-.22,4.11-.61,7.21-1.02.18-.02.24.05.25.13.06.28.12.72.13,1.06,0,.14-.07.18-.23.18-.56.04-.95.1-1.46.26-2.04.7-3.06,2.1-3.06,3.54,0,1.55,1.1,2.39,3.19,2.52.19,0,.26.05.26.18,0,.31-.05.73-.13,1.03-.04.18-.08.25-.23.25-2.11,0-4.43-1.21-4.43-3.71,0-1.7.85-2.85,2.3-3.8v-.02Z"/><path class="uuid-18b73afc-6665-4907-bf99-2a44b925272f" d="M236.38,38.81c.08-.08.14-.1.18-.1s.08.01.16.07c.89.55,1.68,1.27,2.39,2.19.07.1.08.13.08.18,0,.06-.02.11-.12.19l-.73.62c-.08.07-.13.11-.17.11-.06,0-.11-.02-.17-.12-.64-.92-1.45-1.74-2.27-2.29-.07-.05-.11-.08-.11-.12s.02-.07.08-.14l.67-.6Z"/><path class="uuid-18b73afc-6665-4907-bf99-2a44b925272f" d="M244.3,32.88c-1.08,0-1.45.02-1.52.02-.12,0-.13-.01-.13-.14v-.97c0-.13.01-.14.13-.14.07,0,.44.02,1.52.02h7.22c1.08,0,1.44-.02,1.52-.02.12,0,.13.01.13.14v.97c0,.13-.01.14-.13.14-.08,0-.44-.02-1.52-.02h-2.49c-.18.35-.37.7-.58,1.03v6.02c0,1.1.02,1.65.02,1.73,0,.12-.01.13-.13.13h-1.1c-.12,0-.13-.01-.13-.13,0-.08.02-.62.02-1.73v-4.23c-1.02,1.18-2.25,2.19-3.67,3.02-.13.07-.2.12-.26.12-.08,0-.13-.07-.25-.28-.18-.29-.37-.52-.66-.73,2.3-1.14,4.2-2.89,5.3-4.95h-3.29ZM249.46,34.66s.08-.07.12-.07.06.02.11.07c.97,1.25,2.51,2.41,3.86,3.02-.23.24-.43.54-.6.83-.11.19-.16.28-.23.28-.06,0-.13-.06-.29-.14-1.32-.76-2.64-1.93-3.59-3.15-.08-.11-.07-.14.05-.26l.56-.56Z"/><path class="uuid-18b73afc-6665-4907-bf99-2a44b925272f" d="M35.06,61.93c.65-.07,1.33-.17,2.04-.29-.05.19-.08.37-.11.55l-.04.22c.62-.72,1.06-1.58,1.37-2.69.18-.68.32-1.74.4-3.06-.71.01-.97.02-1.03.02-.13,0-.14-.01-.14-.13v-.88c0-.12.01-.13.14-.13.06,0,.34.02,1.08.02,0-.31.01-.62.01-.96,0-.74-.01-1.12-.08-1.69.43.01.78.04,1.2.08.12.01.18.06.18.13,0,.1-.04.18-.07.29-.05.12-.07.49-.07,1.22,0,.32,0,.62-.01.92h.68c.92,0,1.23-.02,1.31-.02.12,0,.14.02.14.14-.02.41-.02.76-.02,1.14-.01,2.3-.12,4.08-.35,5.49-.16.9-.6,1.32-1.52,1.32-.25,0-.46-.01-.66-.02q-.28-.02-.31-.42c-.05-.3-.12-.56-.24-.8.4.06.68.1,1,.1.36,0,.56-.19.65-.76.19-1.16.29-2.78.3-5.07h-1.01c-.08,1.4-.24,2.58-.44,3.44-.34,1.37-.95,2.53-1.77,3.42-.12.12-.19.18-.25.18s-.12-.06-.23-.17c-.24-.28-.5-.46-.77-.58.13-.12.26-.24.38-.37-.06.02-.13.04-.23.05-1.27.25-2.83.48-4.19.62-.18.02-.38.05-.44.08-.07.04-.13.07-.2.07s-.13-.07-.17-.2c-.07-.31-.14-.7-.2-1.06.48.02.82.01,1.26-.01.42-.02.88-.05,1.36-.1v-.7h-.71c-1.04,0-1.39.02-1.46.02-.12,0-.13-.01-.13-.12v-.72c0-.12.01-.13.13-.13.07,0,.42.02,1.46.02h.71v-.52h-.48c-1.02,0-1.37.02-1.44.02-.13,0-.14-.01-.14-.13,0-.08.02-.36.02-1v-1.28c0-.65-.02-.92-.02-.98,0-.12.01-.13.14-.13.07,0,.42.02,1.44.02h.48v-.53h-.89c-1.08,0-1.45.02-1.52.02-.12,0-.13-.01-.13-.13v-.71c0-.12.01-.13.13-.13.07,0,.44.02,1.52.02h.89v-.54c-.52.05-1.03.1-1.55.12-.34.02-.35.01-.44-.26-.1-.26-.23-.46-.37-.65,1.7-.05,3-.19,4.25-.46.26-.06.48-.13.66-.2.28.23.52.46.68.66.07.08.1.13.1.22,0,.07-.1.12-.25.12-.14,0-.35.05-.54.08-.48.1-.96.18-1.45.24v.67h.7c1.07,0,1.44-.02,1.51-.02.11,0,.12.01.12.13v.71c0,.12.01.13-.1.13-.07,0-.47-.02-1.54-.02h-.7v.53h.52c1.01,0,1.35-.02,1.44-.02.12,0,.13.01.13.13,0,.06-.02.34-.02.98v1.28c0,.64.02.92.02,1,0,.12-.01.13-.13.13-.08,0-.43-.02-1.44-.02h-.52v.52h.44c1.03,0,1.39-.02,1.46-.02.12,0,.13.01.13.13v.72c0,.11-.01.12-.13.12-.07,0-.43-.02-1.46-.02h-.44v.58ZM33.98,57.82v-.62h-1v.62h1ZM33.98,59.15v-.64h-1v.64h1ZM35.06,57.19v.62h1.04v-.62h-1.04ZM36.1,58.51h-1.04v.64h1.04v-.64Z"/><path class="uuid-18b73afc-6665-4907-bf99-2a44b925272f" d="M47.52,63.51c-1.16,0-1.56.02-1.63.02-.13,0-.14-.01-.14-.14v-.82c0-.12.01-.13.14-.13.07,0,.47.02,1.63.02h2v-1.03h-.64c-1.1,0-1.48.02-1.55.02-.12,0-.13-.01-.13-.13v-.79c0-.12.01-.13.13-.13.07,0,.44.02,1.55.02h.64v-.91h-1.95c-.23.41-.5.8-.82,1.2-.11.14-.17.2-.22.2s-.1-.06-.18-.17c-.2-.28-.42-.46-.61-.59l-.11.76c-.13.85-.42,1.78-.85,2.61-.1.16-.14.23-.2.23-.05,0-.11-.05-.19-.14-.24-.31-.56-.6-.78-.72.44-.67.74-1.55.88-2.35.13-.79.18-1.68.18-2.72,0-1.1-.02-1.58-.02-1.65,0-.12.01-.13.13-.13.07,0,.47.02,1.6.02h.89c-.17-.41-.36-.77-.54-1.07h-.34c-1.15,0-1.54.02-1.61.02-.13,0-.14-.01-.14-.13v-.79c0-.13.01-.14.14-.14.07,0,.46.02,1.61.02h2.37v-.11c0-.46-.02-.76-.08-1.04.44,0,.85.02,1.25.06.12.01.19.06.19.12,0,.08-.04.14-.07.23-.05.11-.06.25-.06.62v.12h2.39c1.15,0,1.55-.02,1.62-.02.12,0,.13.01.13.14v.79c0,.12-.01.13-.13.13-.07,0-.48-.02-1.63-.02h-.2c-.05.06-.08.12-.12.2-.14.3-.3.59-.48.86h1.26c1.13,0,1.51-.02,1.58-.02.11,0,.12.01.12.13v.79c0,.12-.01.13-.12.13-.07,0-.47-.02-1.6-.02h-6.93v.76c.01.76-.04,1.54-.12,2.25.67-.65,1.04-1.31,1.38-2.12.07-.17.12-.37.16-.62.37.07.78.16,1.04.25.14.05.16.1.16.14,0,.06-.04.1-.08.14-.07.07-.16.25-.23.43l-.07.18h1.43v-.13c0-.47-.02-.68-.1-1.06.44.01.84.04,1.25.07.12.01.19.06.19.12,0,.08-.04.16-.07.24-.04.1-.06.25-.06.62v.13h1.28c1.12,0,1.49-.02,1.56-.02.12,0,.13.01.13.13v.82c0,.12-.01.13-.13.13-.07,0-.44-.02-1.56-.02h-1.28v.91h.85c1.1,0,1.48-.02,1.55-.02.12,0,.13.01.13.13v.79c0,.12-.01.13-.13.13-.07,0-.44-.02-1.55-.02h-.85v1.03h1.96c1.16,0,1.57-.02,1.64-.02.12,0,.13.01.13.13v.82c0,.13-.01.14-.13.14-.07,0-.48-.02-1.64-.02h-5.17ZM48.04,55c.17.32.32.68.47,1.07h1.8c.2-.36.37-.71.52-1.07h-2.78Z"/><path class="uuid-18b73afc-6665-4907-bf99-2a44b925272f" d="M57.71,60.43c-1.04,0-1.4.02-1.48.02-.11,0-.12-.01-.12-.13v-.72c0-.12.01-.13.12-.13.07,0,.43.02,1.48.02h3.21v-.56h-1.98c-1.16,0-1.56.02-1.63.02-.12,0-.13-.01-.13-.12v-.66c0-.12.01-.13.13-.13.07,0,.47.02,1.63.02h1.98v-.53h-1.55c-1.17,0-1.59.02-1.67.02-.13,0-.14-.01-.14-.14,0-.07.02-.23.02-.62v-.65c0-.4-.02-.55-.02-.62,0-.13.01-.14.14-.14.07,0,.49.02,1.67.02h1.55v-.53h-3.02c-1.08,0-1.45.02-1.52.02-.12,0-.13-.01-.13-.13v-.76c0-.12.01-.13.13-.13.07,0,.44.02,1.52.02h3.02c0-.48-.02-.77-.08-1.1.44.01.83.02,1.25.07.11.01.19.06.19.13,0,.1-.04.16-.07.23-.05.13-.07.28-.07.67h3.05c1.08,0,1.45-.02,1.52-.02.12,0,.13.01.13.13v.76c0,.12-.01.13-.13.13-.07,0-.44-.02-1.52-.02h-3.05v.53h1.6c1.18,0,1.6-.02,1.68-.02.12,0,.13.01.13.14,0,.07-.02.23-.02.62v.65c0,.4.02.55.02.62,0,.13-.01.14-.13.14-.08,0-.5-.02-1.68-.02h-1.6v.53h1.94c1.18,0,1.6-.02,1.65-.02.12,0,.13.01.13.13,0,.07-.02.36-.02,1.04v.28c.71,0,.98-.02,1.04-.02.11,0,.12.01.12.13v.72c0,.12-.01.13-.12.13-.06,0-.34-.01-1.04-.02v.61c0,.72.02,1.03.02,1.1,0,.12-.01.13-.13.13h-.92c-.12,0-.13-.01-.13-.13v-.26h-2.53c.01.22.01.42.01.6,0,.55-.11.88-.43,1.07-.3.17-.83.25-1.69.26-.36,0-.36-.01-.48-.35-.11-.3-.26-.62-.47-.91.44.05.77.06,1.21.05.52-.01.62-.1.62-.44v-.28h-1.97c-1.18,0-1.57.02-1.64.02-.12,0-.13-.01-.13-.14v-.65c0-.13.01-.14.13-.14.07,0,.47.02,1.64.02h1.97v-.56h-3.21ZM60.93,56.77v-.6h-2.17v.6h2.17ZM64.36,56.17h-2.22v.6h2.22v-.6ZM62.14,58.93v.56h2.54v-.56h-2.54ZM64.68,60.99v-.56h-2.54v.56h2.54Z"/><path class="uuid-18b73afc-6665-4907-bf99-2a44b925272f" d="M70.47,60.9c-1.08,0-1.44.02-1.51.02-.13,0-.14-.01-.14-.13v-.71c0-.13.01-.14.14-.14.07,0,.43.02,1.51.02h2.96v-.65h-1.69c-1.16,0-1.58.02-1.66.02-.12,0-.12-.01-.12-.13v-.68c0-.13,0-.14.12-.14.07,0,.49.02,1.66.02h1.69v-.64h-2.25c-1.15,0-1.54.02-1.61.02-.13,0-.14-.01-.14-.12v-.71c0-.12.01-.13.14-.13.07,0,.46.02,1.61.02h.73c-.13-.29-.25-.53-.38-.76-.06-.11-.07-.16.08-.2l.78-.22h-1.92c-1.08,0-1.44.02-1.51.02-.13,0-.14-.01-.14-.13v-.74c0-.13.01-.14.14-.14.07,0,.43.02,1.51.02h.08c-.19-.38-.41-.68-.68-1.03-.07-.08-.05-.13.1-.2l.7-.32c.12-.06.16-.05.23.05.29.35.59.76.8,1.16.06.11.06.12-.1.2l-.29.14h1.12v-.79c0-.42,0-.71-.07-1.04.37.01.84.04,1.16.07.1.01.14.05.14.11,0,.07-.02.13-.05.2-.04.08-.07.26-.07.66v.79h.97v-.78c0-.43,0-.72-.07-1.06.36.01.83.04,1.15.08.11.01.16.05.16.11s-.02.13-.05.19c-.04.08-.07.26-.07.66v.79h.74c.22-.34.38-.64.55-.98.08-.18.16-.36.2-.65.42.08.84.2,1.16.31.11.04.16.1.16.16,0,.1-.05.14-.12.2-.08.07-.14.14-.2.23-.16.25-.32.49-.49.73h.17c1.08,0,1.44-.02,1.51-.02.12,0,.13.01.13.14v.74c0,.12-.01.13-.13.13-.07,0-.43-.02-1.51-.02h-2.1c.31.06.59.12.95.22.1.02.16.07.16.14,0,.08-.06.14-.13.18-.06.04-.12.17-.17.25l-.22.38h.78c1.15,0,1.54-.02,1.61-.02.12,0,.13.01.13.13v.71c0,.11-.01.12-.13.12-.07,0-.46-.02-1.61-.02h-2.42v.64h1.91c1.17,0,1.58-.02,1.65-.02.12,0,.13.01.13.14v.68c0,.12-.01.13-.13.13-.07,0-.48-.02-1.65-.02h-1.91v.65h3.15c1.08,0,1.44-.02,1.51-.02.12,0,.13.01.13.14v.71c0,.12-.01.13-.13.13-.07,0-.43-.02-1.51-.02h-2.13c1.01.71,2.27,1.18,3.99,1.56-.16.19-.32.44-.47.77-.1.23-.14.31-.26.31-.06,0-.14-.02-.28-.06-1.62-.47-3.05-1.26-4.03-2.15,0,1.43.06,2.17.06,2.38,0,.12-.01.13-.13.13h-1.02c-.11,0-.12-.01-.12-.13,0-.2.04-.9.05-2.33-1.01.96-2.25,1.63-3.85,2.15-.13.05-.22.07-.28.07-.11,0-.16-.08-.26-.31-.16-.31-.32-.56-.48-.72,1.59-.4,2.82-.89,3.83-1.67h-1.94ZM75.1,56.86c.11-.2.2-.41.32-.7.06-.13.08-.25.13-.48h-3.06s.06.05.1.1c.18.3.37.66.54,1.08h1.97Z"/><path class="uuid-18b73afc-6665-4907-bf99-2a44b925272f" d="M84.82,60.75c0,1.1.48,1.54,1.59,1.54,1.4,0,2.18-.54,2.18-1.62,0-.67-.17-1.22-1.08-2.18.48.06.74,0,1.22-.07.08-.02.18-.01.25.05.66.62,1.02,1.44,1.02,2.25,0,1.7-1.39,2.81-3.45,2.81s-3.02-.96-3.02-2.71c0-.25.04-.59.08-1.13-.72-.11-1.2-.22-1.63-.36-.08-.02-.12-.08-.13-.23-.04-.37-.05-.74-.02-1.12.72.26,1.26.4,1.94.47.06-.44.16-1.22.2-1.71-.84-.11-1.27-.18-1.73-.34-.14-.04-.19-.1-.19-.2-.01-.29-.04-.68-.04-1.12.82.26,1.39.37,2.17.46.1-.7.13-1.02.16-1.38.02-.34.02-.68-.01-1.01.55.07,1.17.23,1.44.34.17.06.26.17.26.28,0,.08-.04.16-.1.23-.08.08-.14.24-.22.52-.06.28-.13.68-.19,1.13.48.04.97,0,1.48-.07.08,0,.12.06.12.14.01.29.01.62-.02.9,0,.13-.05.17-.19.18-.53.06-1.07.07-1.59.06-.07.42-.19,1.24-.26,1.72.64.01,1.13,0,1.7-.04.16-.02.19.02.19.13,0,.22-.02.65-.06.9-.01.14-.05.19-.17.19-.6.05-1.22.05-1.84.04-.06.47-.07.76-.07.97Z"/><path class="uuid-18b73afc-6665-4907-bf99-2a44b925272f" d="M93.93,60.47c0-.42.02-1.02.04-1.5-.3.29-.6.56-.92.83-.12.1-.19.16-.25.16-.07,0-.11-.07-.17-.25-.12-.35-.23-.6-.43-.85.96-.72,1.87-1.68,2.49-2.61.11-.18.23-.41.32-.62.34.19.62.37.9.59.11.1.14.14.14.22,0,.05-.04.1-.08.13-.07.05-.17.13-.25.28-.18.26-.36.53-.55.78v4.63c0,.96.02,1.42.02,1.48,0,.12-.01.13-.13.13h-1.02c-.12,0-.13-.01-.13-.13,0-.07.02-.52.02-1.48v-1.76ZM95.95,53.43c.11.08.17.13.17.22s-.07.13-.18.19c-.08.06-.18.16-.32.34-.52.61-1.38,1.43-2.31,2.05-.12.08-.2.12-.26.12-.08,0-.13-.08-.23-.28-.14-.29-.32-.53-.54-.74.86-.52,1.75-1.21,2.35-1.93.16-.2.26-.38.35-.55.4.19.66.35.98.59ZM98.04,57.68c-1.14,0-1.54.02-1.62.02-.12,0-.13-.01-.13-.13v-.95c0-.12.01-.13.13-.13.08,0,.48.02,1.62.02h3.43c1.14,0,1.54-.02,1.59-.02.12,0,.13.01.13.13v.95c0,.12-.01.13-.13.13-.06,0-.46-.02-1.59-.02h-.25v2.27c0,1.07.04,1.74.04,2.27.01.59-.08.94-.41,1.2-.26.23-.72.28-1.89.29-.38,0-.38.01-.47-.37-.08-.34-.19-.67-.36-.92.49.04.85.05,1.3.05.41,0,.53-.08.53-.38v-4.39h-1.91ZM98.52,54.72c-1.06,0-1.42.02-1.48.02-.12,0-.13-.01-.13-.13v-.96c0-.12.01-.13.13-.13.06,0,.42.02,1.48.02h2.49c1.07,0,1.42-.02,1.49-.02.13,0,.14.01.14.13v.96c0,.12-.01.13-.14.13-.07,0-.42-.02-1.49-.02h-2.49Z"/><path class="uuid-18b73afc-6665-4907-bf99-2a44b925272f" d="M107.24,56.58c1.01-.34,1.83-.6,2.75-.6,1.61,0,2.53,1.09,2.53,2.85,0,1.18-.42,2.13-.97,2.87-.56.77-1.37,1.4-2.31,1.91-.08.04-.14.06-.2.06-.11,0-.18-.05-.29-.16-.26-.25-.59-.48-1-.64,1.32-.62,2.13-1.3,2.64-2,.35-.49.66-1.15.66-2.12s-.42-1.51-1.12-1.51-1.2.18-1.88.52c-.71.35-.88.47-1.02.58-.1.07-.17.12-.26.12-.16,0-.26-.16-.34-.26-.17-.25-.42-.78-.61-1.26.49-.05.78-.14,1.43-.35ZM111.62,53.82c.13.02.18.12.16.22-.05.25-.18.83-.26,1.06-.04.12-.07.18-.17.17-1.31-.22-2.24-.44-3.48-.92-.06-.02-.12-.08-.08-.24.08-.44.22-.77.36-1.13,1.12.44,2.24.67,3.48.85Z"/><path class="uuid-18b73afc-6665-4907-bf99-2a44b925272f" d="M118.02,55.55c-.68,0-1.42.05-2.12.1-.14.01-.19-.07-.22-.18-.1-.34-.17-.94-.22-1.29.82.06,1.48.08,2.43.08h5.15c.5,0,.71-.02.83-.07.06-.02.17-.08.23-.08.1,0,.19.07.28.17.26.23.49.48.72.76.06.07.1.14.1.22,0,.1-.06.18-.17.25-.13.1-.23.22-.32.35-.56.85-1.31,1.68-2.11,2.31-.07.07-.16.11-.25.11s-.2-.05-.29-.12c-.3-.24-.6-.37-1-.49.96-.72,1.55-1.23,2.15-2.1h-5.18ZM118.7,60.23c.46-.85.59-1.67.59-2.83,0-.44-.02-.72-.12-1.13.59.06,1.21.14,1.55.23.16.04.2.12.2.23,0,.07-.02.14-.06.22-.08.17-.1.29-.11.49-.04,1.16-.16,2.23-.71,3.3-.47.9-1.19,1.75-2.18,2.39-.11.07-.22.12-.34.12-.08,0-.17-.04-.24-.11-.29-.25-.64-.44-1.09-.61,1.31-.68,1.99-1.33,2.51-2.29Z"/><path class="uuid-18b73afc-6665-4907-bf99-2a44b925272f" d="M133.26,54.57c.43,0,.65-.01.83-.11.05-.04.08-.05.13-.05.07,0,.13.05.2.1.28.22.55.53.78.84.04.06.06.11.06.16,0,.07-.05.16-.16.24-.16.13-.31.31-.44.53-.49.84-.96,1.51-1.54,2.24,1.15.85,2.22,1.79,3.32,2.9.06.06.1.12.1.17s-.02.11-.08.18c-.23.28-.5.56-.8.82-.05.05-.1.07-.14.07-.06,0-.11-.04-.17-.1-1.01-1.18-2.04-2.12-3.12-2.97-1.35,1.42-2.72,2.44-4.03,3.17-.11.05-.19.1-.28.1-.07,0-.14-.04-.2-.11-.26-.32-.61-.56-1.01-.78,1.87-.95,2.99-1.8,4.22-3.06.86-.9,1.52-1.75,2.25-3.01h-3.09c-.62.01-1.25.04-1.89.08-.1.01-.13-.07-.16-.2-.06-.25-.11-.83-.11-1.25.65.05,1.25.05,2.03.05h3.3Z"/><path class="uuid-18b73afc-6665-4907-bf99-2a44b925272f" d="M145.43,54.93c.35-.01.5-.08.66-.18.08-.06.14-.08.2-.08s.13.04.22.1c.26.16.6.48.82.73.07.07.1.14.1.22s-.04.14-.13.23c-.12.11-.24.23-.36.46-.52,1.02-1.08,2-1.76,2.9.49.4.95.82,1.3,1.21.05.05.07.11.07.17,0,.05-.02.11-.07.16-.17.2-.54.59-.74.76-.05.04-.1.06-.14.06-.04,0-.08-.02-.13-.07-.29-.34-.77-.82-1.16-1.16-1.22,1.32-2.46,2.25-3.83,3-.11.06-.2.11-.3.11-.07,0-.14-.04-.23-.11-.38-.31-.72-.47-1.14-.61,1.86-.95,3.06-1.81,4.41-3.25-.46-.37-1-.74-1.73-1.13.26-.29.52-.6.79-.85.05-.05.1-.08.16-.08.04,0,.07.02.12.05.43.2.96.55,1.55.96.58-.74,1.02-1.52,1.4-2.38l-2.97.06c-.98,1.26-1.76,2.09-2.57,2.7-.08.06-.16.11-.24.11-.06,0-.13-.02-.19-.08-.3-.22-.61-.38-1.01-.55,1.68-1.33,2.58-2.43,3.39-3.77.38-.65.54-.97.65-1.47.41.14,1.03.35,1.4.59.1.05.13.12.13.19,0,.08-.06.18-.14.24-.11.07-.19.17-.25.25-.1.17-.17.29-.37.6l2.11-.05Z"/><path class="uuid-18b73afc-6665-4907-bf99-2a44b925272f" d="M151.83,59.2c-1.19,0-1.64.14-1.76.14-.14,0-.24-.07-.28-.25-.06-.28-.13-.84-.18-1.45.78.12,1.38.14,2.59.14h3.86c.91,0,1.83-.02,2.76-.04.18-.01.22.02.22.17.02.36.02.77,0,1.13,0,.14-.05.19-.22.18-.9-.01-1.79-.02-2.67-.02h-4.32Z"/><path class="uuid-18b73afc-6665-4907-bf99-2a44b925272f" d="M164.51,54.69c.06-.36.12-.83.12-1.33.62.13.96.22,1.44.4.12.04.19.13.19.24,0,.06-.02.12-.08.18-.12.16-.18.29-.24.46-.16.49-.28.94-.43,1.44.32-.04.68-.05.96-.05,1.12,0,1.72.78,1.72,2.31,0,1.3-.24,2.89-.65,3.75-.35.77-.92,1.13-1.62,1.13-.58,0-.98-.06-1.25-.18-.14-.06-.22-.16-.22-.34-.04-.38-.06-.72-.23-1.12.54.25,1.01.31,1.38.31.4,0,.58-.14.77-.64.25-.67.47-1.81.47-2.99,0-.84-.16-1.1-.68-1.1-.29,0-.66.04-1.01.08-.79,2.3-1.48,3.96-2.41,5.64-.07.16-.17.18-.31.11-.22-.11-.68-.4-.83-.53-.06-.06-.1-.11-.1-.18,0-.04.01-.08.05-.13.96-1.67,1.58-2.94,2.19-4.7-.47.07-.85.14-1.18.2-.31.06-.5.13-.66.19-.17.06-.31.04-.38-.16-.11-.28-.24-.71-.37-1.24.53,0,1.06-.04,1.58-.08.5-.05.95-.11,1.42-.18.19-.68.28-1.1.36-1.51ZM169.26,55.49c.08-.05.14-.02.23.06.82.77,1.55,1.76,1.99,2.91.05.11.04.17-.05.24-.2.19-.66.48-.9.6-.12.06-.24.05-.28-.1-.48-1.26-1.1-2.29-1.97-3.11.3-.2.65-.44.97-.61ZM169.58,53.81c.06-.05.11-.04.18.02.37.29.8.77,1.14,1.28.05.07.05.13-.04.19l-.5.37c-.08.06-.14.05-.2-.04-.36-.55-.74-1.01-1.21-1.39l.64-.44ZM170.65,53.03c.07-.05.11-.04.18.02.44.34.88.82,1.14,1.24.05.07.06.14-.04.22l-.48.37c-.1.07-.16.04-.2-.04-.32-.52-.71-.97-1.2-1.38l.6-.43Z"/><path class="uuid-18b73afc-6665-4907-bf99-2a44b925272f" d="M175.9,57.08c-.6.05-1.21.1-2.01.1-.2,0-.26-.07-.29-.25-.04-.23-.08-.62-.13-1.04.31.05.62.06.94.06.5,0,1.02-.05,1.52-.1,0-.4.01-.85.01-1.37,0-.31-.01-.66-.08-.97.6.04,1.1.12,1.43.22.14.04.24.12.24.23,0,.05-.02.11-.07.19-.08.16-.14.31-.17.47-.04.31-.05.61-.06,1,.53-.11,1.02-.26,1.54-.44.11-.04.19-.01.2.11.05.3.07.62.07.94,0,.12-.04.16-.16.19-.79.25-1,.31-1.72.46-.01.58-.01,1.16-.02,1.74,1.13-.48,2.18-.67,2.95-.66,1.49.01,2.55.96,2.55,2.4,0,1.54-.98,2.44-2.6,2.44-.35,0-.73-.05-.98-.11-.19-.05-.26-.17-.26-.36-.02-.26-.11-.67-.36-1.02.58.19,1.06.22,1.5.22.67,0,1.3-.38,1.3-1.24,0-.78-.48-1.21-1.32-1.21-.68,0-1.51.18-2.75.82.01.5.02.91.05,1.44.04.53.1,1.28.1,1.56,0,.17.02.35-.18.4-.26.07-.65.13-.89.14-.13.01-.18-.08-.29-.24-.32-.44-.95-1.02-1.7-1.54-.13.07-.28.17-.38.26-.06.06-.14.08-.2.08-.1,0-.19-.07-.26-.19-.13-.22-.37-.72-.55-1.12.31-.07.71-.2,1.1-.42.52-.29,1.08-.61,1.96-1.12v-2.05ZM174.79,61.21c.34.18.74.38,1.13.54.1.02.13.01.12-.1-.02-.31-.05-.86-.07-1.26-.34.23-.74.5-1.18.82ZM180.52,54.91c.08-.13.12-.17.2-.14,1.1.32,1.92.83,2.54,1.46.05.05.07.08.07.12s-.02.07-.05.12c-.16.24-.47.61-.65.85-.04.05-.2.06-.24,0-.64-.71-1.48-1.15-2.43-1.48.16-.32.35-.64.55-.94Z"/><path class="uuid-18b73afc-6665-4907-bf99-2a44b925272f" d="M188.17,58.61c-.78.43-1.61.82-2.47,1.13-.13.05-.22.07-.28.07-.11,0-.14-.08-.23-.31-.11-.29-.28-.58-.46-.77,2.12-.61,3.5-1.34,4.71-2.41.24-.2.37-.4.48-.58.24.04.46.08.67.13-.04-.02-.07-.07-.11-.12-.18-.19-.4-.36-.61-.47l.29-.3s-.06.01-.11.01c-.07,0-.37-.02-1.37-.02h-.1c.2.35.38.73.55,1.16.05.12.04.16-.11.19l-.84.19c-.18.05-.2.05-.24-.08-.13-.5-.32-1.03-.54-1.46h-.47c-.29.44-.62.84-.96,1.16-.13.12-.19.18-.26.18-.06,0-.12-.07-.25-.23-.17-.22-.41-.43-.6-.54.72-.61,1.2-1.26,1.61-2.09.11-.18.18-.37.25-.66.41.06.79.14,1.12.2.12.04.18.07.18.14s-.04.12-.12.19c-.07.06-.11.12-.19.29-.06.11-.11.22-.16.32h1.13c1,0,1.29-.02,1.37-.02.13,0,.14.01.14.14v.79s0,.07-.01.1c.42-.48.7-.96.9-1.46.08-.17.17-.4.23-.65.35.05.79.12,1.04.19.12.04.19.07.19.14,0,.08-.05.13-.12.22-.06.06-.11.18-.22.42l-.06.13h1.77c1.14,0,1.52-.02,1.6-.02.13,0,.14.01.14.14v.79c0,.12-.01.13-.14.13-.07,0-.46-.02-1.6-.02h-.4c.2.35.36.7.52,1.1.05.12.02.14-.13.18l-.8.2c-.19.05-.2.04-.24-.1-.14-.5-.32-.97-.53-1.39h-.72c-.17.26-.37.54-.61.8-.07.08-.12.13-.17.17l.17.05c.12.04.22.1.22.17,0,.08-.02.12-.16.18,1.14,1.02,2.77,1.8,4.99,2.23-.2.25-.36.53-.5.85-.1.23-.13.31-.24.31-.06,0-.14-.02-.28-.06-.88-.26-1.73-.61-2.5-1.02v.61c0,.12-.01.13-.13.13-.07,0-.36-.02-1.28-.02h-1.55c-.94,0-1.22.02-1.3.02-.12,0-.13-.01-.13-.13v-.66ZM186.89,63.79c-.12,0-.13-.01-.13-.13,0-.07.02-.34.02-1.73v-.7c0-.71-.02-1-.02-1.08,0-.11.01-.12.13-.12.08,0,.49.02,1.64.02h3.74c1.15,0,1.56-.02,1.64-.02.12,0,.13.01.13.12,0,.07-.02.37-.02.92v.82c0,1.38.02,1.64.02,1.71,0,.11-.01.12-.13.12h-1.01c-.12,0-.13-.01-.13-.12v-.32h-4.75v.37c0,.12-.01.13-.13.13h-1.01ZM188.03,62.31h4.75v-1.27h-4.75v1.27ZM192.08,58.39c-.7-.41-1.3-.85-1.76-1.34-.53.49-1.13.94-1.78,1.33.19.01.52.01,1.06.01h2.48Z"/><path class="uuid-18b73afc-6665-4907-bf99-2a44b925272f" d="M200.6,56.53c.92-.14,1.6-.28,2.09-.38.2-.06.32-.1.48-.19.11-.06.16-.08.26-.08.07,0,.11.02.2.08.22.13.49.36.71.64.08.08.13.2.13.28,0,.11-.07.2-.22.28-.17.08-.25.17-.38.28-.89.84-1.38,1.34-2.18,2.21.16-.05.31-.06.43-.06.56,0,1.1.36,1.31,1.21.24.98.43,1.17,1.32,1.17.71,0,1.27-.08,1.86-.22.13-.02.19.05.22.18.05.25.08.66.08,1.06,0,.12-.06.17-.22.19-.53.1-1.19.16-1.76.16-1.76,0-2.34-.47-2.59-1.66-.19-.82-.34-1.15-.76-1.15-.31,0-.68.17-1.13.6-.54.55-1.42,1.61-1.82,2.11-.04.05-.1.08-.17.08-.04,0-.08-.01-.13-.05-.31-.22-.62-.52-.84-.73-.04-.04-.06-.08-.06-.12,0-.06.04-.13.1-.19.77-.78,1.5-1.52,2.27-2.3.47-.48,1.09-1.18,2.38-2.55-.9.24-1.7.43-2.5.64-.37.11-.55.17-.65.22-.1.05-.17.07-.25.07s-.14-.06-.2-.2c-.16-.3-.3-.74-.48-1.34,1.03,0,1.51-.05,2.51-.2ZM203.95,53.97c.12.02.17.1.13.26-.07.29-.22.74-.32.98-.04.1-.11.16-.2.13-1.06-.2-2.46-.62-3.35-1.01-.07-.02-.14-.08-.11-.22.07-.28.23-.67.41-1.12,1.2.44,2.29.73,3.44.96Z"/><path class="uuid-18b73afc-6665-4907-bf99-2a44b925272f" d="M211.74,53.65c.2.05.29.11.29.23,0,.13-.07.28-.12.4-.06.17-.11.54-.17,1.46-.12,1.85-.18,3.07-.18,4.64,0,1.21.14,1.49,1.1,1.49,1.07,0,2.73-.65,4.2-2.21.05.46.16.85.28,1.14.06.13.1.22.1.29,0,.11-.05.2-.24.37-1.29,1.19-2.99,1.8-4.55,1.8s-2.25-.61-2.25-2.45c0-2.02.11-3.74.17-5.18.02-.71.06-1.48-.12-2.19.55.06,1.13.12,1.5.22Z"/><path class="uuid-18b73afc-6665-4907-bf99-2a44b925272f" d="M223.74,58.84c-.83.02-1.64.02-2.47-.05-.13,0-.18-.05-.19-.2-.05-.26-.07-.74-.07-1.02.89.11,1.8.13,2.7.1-.01-.46-.01-.92-.02-1.38-1.15.04-2.01.04-2.87-.06-.13,0-.19-.05-.2-.17-.04-.3-.06-.59-.08-1.08,1.04.12,2.09.12,3.14.12,0-.44-.01-.76-.02-1.16-.02-.28-.05-.49-.14-.8.64.04,1.15.11,1.51.22.14.05.22.22.13.36-.08.17-.17.37-.18.58-.01.24-.01.41-.02.77,1.12-.08,1.92-.22,2.63-.36.14-.04.19,0,.2.14.05.34.06.66.06.88,0,.16-.04.18-.13.19-.85.14-1.62.24-2.77.31,0,.48.01.92.01,1.36.91-.06,1.49-.18,2.35-.31.14-.04.18-.01.19.1.01.23.04.62.04.98,0,.12-.05.16-.18.17-.79.13-1.34.22-2.35.29.02.55.05,1.14.08,1.69,1.15.32,2.13.76,3.18,1.45.12.11.12.14.08.29-.08.23-.34.67-.53.89-.05.07-.1.1-.16.1-.04,0-.08-.01-.13-.06-.73-.58-1.48-1-2.39-1.37-.01,1.3-.79,1.82-2.43,1.82s-2.45-.68-2.45-1.68.95-1.7,2.4-1.7c.3,0,.59,0,1.15.05-.02-.53-.05-1.02-.06-1.43ZM222.71,61.26c-.88,0-1.29.25-1.29.64,0,.31.36.54,1.19.54.48,0,.92-.14,1.09-.36.1-.13.13-.34.13-.67-.35-.08-.78-.14-1.12-.14Z"/><path class="uuid-18b73afc-6665-4907-bf99-2a44b925272f" d="M235.82,54.05c-.02-.35-.05-.52-.14-.88.54.04,1.12.11,1.4.17.2.04.34.12.34.23,0,.1-.04.16-.11.28-.04.07-.07.19-.1.35-.01.16-.01.31-.02.77,1.29-.05,2.53-.06,3.68-.06.14,0,.17.02.18.18.01.3.01.61,0,.91,0,.13-.06.17-.2.16-1.25-.04-2.41-.04-3.66-.02,0,.73,0,1.5.01,2.23.12.32.18.79.18,1.19,0,1.39-.56,2.84-2.13,3.87-.2.13-.36.23-.47.23s-.24-.08-.36-.18c-.28-.23-.6-.38-.91-.48,1.4-.62,2.24-1.63,2.46-2.64-.24.35-.73.48-1.13.48-.95,0-1.67-.68-1.67-1.83s.84-1.8,1.81-1.8c.36,0,.72.07.91.24,0-.42-.01-.83-.01-1.22-1.51.08-3.2.23-4.15.36-.26.04-.46.14-.56.14-.12,0-.17-.05-.2-.17-.1-.24-.2-.72-.3-1.21.44.05.83,0,1.46-.05.73-.06,2.28-.16,3.72-.24-.01-.37-.01-.67-.02-1ZM234.28,58.91c0,.53.34.82.77.82s.82-.28.82-.83c0-.49-.31-.77-.79-.77-.37,0-.79.25-.79.78Z"/><path class="uuid-18b73afc-6665-4907-bf99-2a44b925272f" d="M246.44,62.36c0,.96-.78,1.73-1.74,1.73s-1.74-.77-1.74-1.73.78-1.73,1.74-1.73,1.74.77,1.74,1.73ZM243.7,62.36c0,.56.43,1,1,1s1-.43,1-1-.43-1-1-1-1,.43-1,1Z"/><rect class="uuid-09ecdce3-d336-4c35-8c7e-15d84eacfe00" width="280" height="100"/></g></svg>