<?xml version="1.0" encoding="utf-8"?>
<svg xmlns="http://www.w3.org/2000/svg" version="1.1" viewBox="0 0 1920 1060">
  <defs>
    <style>
      /* TOPアニメーション 赤線 ------- */
      /* 線 */
      .border-box,.border-line{fill:none;stroke:#c91933;stroke-miterlimit:10;stroke-width:4px;}
      /* 多角形 ------ */
      .border-box line{animation:border_box 1s forwards;animation-delay:0s;}
      .border-box_big
      line:nth-of-type(1){transform:translate(96px,30px);stroke-dasharray:480;stroke-dashoffset:480;}
      .border-box_big
      line:nth-of-type(2){transform:translate(0,102px);stroke-dasharray:450;stroke-dashoffset:450;}
      .border-box_big
      line:nth-of-type(3){transform:translate(-140px,0);stroke-dasharray:690;stroke-dashoffset:690;}
      .border-box_big
      line:nth-of-type(4){transform:translate(0,-138px);stroke-dasharray:440;stroke-dashoffset:440;}
      .border-box_big
      line:nth-of-type(5){transform:translate(74px,-48px);stroke-dasharray:270;stroke-dashoffset:270;}
      .border-box_medium
      line:nth-of-type(1){transform:translate(92px,26px);stroke-dasharray:340;stroke-dashoffset:340;}
      .border-box_medium
      line:nth-of-type(2){transform:translate(0,72px);stroke-dasharray:240;stroke-dashoffset:240;}
      .border-box_medium
      line:nth-of-type(3){transform:translate(-129px,0);stroke-dasharray:650;stroke-dashoffset:650;}
      .border-box_medium
      line:nth-of-type(4){transform:translate(0,-90px);stroke-dasharray:240;stroke-dashoffset:240;}
      .border-box_medium
      line:nth-of-type(5){transform:translate(113px,-30px);stroke-dasharray:340;stroke-dashoffset:340;}
      .border-box_small
      line:nth-of-type(1){transform:translate(78px,35px);stroke-dasharray:160;stroke-dashoffset:160;}
      .border-box_small
      line:nth-of-type(2){transform:translate(0,60px);stroke-dasharray:260;stroke-dashoffset:260;}
      .border-box_small
      line:nth-of-type(3){transform:translate(-71px,0);stroke-dasharray:290;stroke-dashoffset:290;}
      .border-box_small
      line:nth-of-type(4){transform:translate(0,-71px);stroke-dasharray:260;stroke-dashoffset:260;}
      .border-box_small
      line:nth-of-type(5){transform:translate(76px,-33px);stroke-dasharray:160;stroke-dashoffset:160;}
      @keyframes border_box{
      100%{stroke-dashoffset:0;}
      100%{stroke-dashoffset:0;transform:translate(0,0);}
      }
      /* ライン ------ */
      .border-line{animation:border_line 1s forwards;animation-delay:0s;}
      .border-line_square{stroke-dasharray:620;stroke-dashoffset:620;}
      .border-line_tilt{stroke-dasharray:480;stroke-dashoffset:480;}
      @keyframes border_line{
      100%{stroke-dashoffset:0;stroke-dasharray:700;}
      }
      /* 文字 ------- */
      .text,.text-tilt{opacity:0;animation:text 1s forwards;animation-delay:1s;}
      .text-tilt{fill:#231815;transform:translate(-5px,10px);}
      .text-small{fill:#1c1c1c;}
      .text-small .text{transform:translate(0,10px);}
      .text-02{animation-delay:1.1s;}
      .text-03{animation-delay:1.4s;}
      @keyframes text{
      100%{opacity:1;transform:translate(0,0);}
      }
    </style>
  </defs>
  <g class="text-small">
    <g class="text text-01">
      <path
        d="M457,932.55c0-1.13.19-2.16.57-3.07.38-.91.91-1.69,1.58-2.33.67-.64,1.47-1.13,2.4-1.48.93-.35,1.94-.52,3.03-.52s2.13.17,3.06.52c.93.35,1.74.84,2.42,1.48.68.64,1.21,1.42,1.59,2.33.38.91.57,1.94.57,3.07s-.19,2.12-.57,3.03c-.38.91-.91,1.7-1.59,2.36-.68.66-1.49,1.17-2.42,1.54-.93.37-1.95.55-3.06.55s-2.1-.18-3.03-.55c-.93-.37-1.73-.88-2.4-1.54-.67-.66-1.2-1.45-1.58-2.36-.38-.91-.57-1.92-.57-3.03ZM459.74,932.55c0,.76.12,1.46.35,2.09.23.63.57,1.18,1,1.65.43.47.95.83,1.54,1.09.59.26,1.25.39,1.97.39s1.38-.13,1.98-.39c.6-.26,1.12-.62,1.55-1.09.43-.47.77-1.02,1-1.65.23-.63.35-1.33.35-2.09s-.12-1.41-.35-2.04c-.23-.63-.56-1.17-.99-1.64-.43-.47-.94-.83-1.54-1.1-.6-.27-1.27-.4-2-.4s-1.4.13-1.99.4c-.59.27-1.1.63-1.53,1.1-.43.47-.76,1.01-.99,1.64-.23.63-.35,1.31-.35,2.04Z" />
      <path
        d="M475.5,930.07h2.3v1.6h.04c.27-.56.64-1.01,1.12-1.36.48-.35,1.04-.52,1.68-.52.09,0,.19,0,.3,0,.11,0,.2.02.28.05v2.2c-.16-.04-.3-.07-.41-.08-.11-.01-.22-.02-.33-.02-.55,0-.99.1-1.32.3-.33.2-.59.44-.78.72-.19.28-.31.57-.38.86-.07.29-.1.53-.1.7v5.14h-2.4v-9.6Z" />
      <path
        d="M493.47,939.67h-2.28v-1.44h-.04c-.33.56-.8.99-1.39,1.28-.59.29-1.23.44-1.91.44-.73,0-1.39-.14-1.97-.41-.58-.27-1.07-.64-1.48-1.1-.41-.46-.72-1-.94-1.62-.22-.62-.33-1.28-.33-1.99s.11-1.37.34-1.98c.23-.61.55-1.15.96-1.6.41-.45.91-.81,1.48-1.07.57-.26,1.2-.39,1.88-.39.44,0,.83.05,1.18.15.35.1.65.22.91.37.26.15.48.31.67.48.19.17.34.34.46.5h.06v-6.74h2.4v15.12ZM485.57,934.83c0,.37.06.75.17,1.12.11.37.28.71.51,1,.23.29.51.53.86.72.35.19.75.28,1.22.28.44,0,.83-.09,1.18-.27.35-.18.64-.42.89-.71.25-.29.43-.62.56-.99.13-.37.19-.74.19-1.11s-.06-.75-.19-1.12c-.13-.37-.31-.71-.56-1-.25-.29-.54-.53-.89-.72-.35-.19-.74-.28-1.18-.28-.47,0-.87.09-1.22.27-.35.18-.63.42-.86.71-.23.29-.4.62-.51.99-.11.37-.17.74-.17,1.11Z" />
      <path
        d="M506.41,934.99v.32c0,.11,0,.21-.02.32h-7.3c.03.35.12.66.27.95.15.29.36.53.61.74.25.21.54.37.86.49.32.12.65.18,1,.18.6,0,1.11-.11,1.52-.33.41-.22.75-.52,1.02-.91l1.6,1.28c-.95,1.28-2.32,1.92-4.12,1.92-.75,0-1.43-.12-2.06-.35-.63-.23-1.17-.56-1.63-.99-.46-.43-.82-.95-1.08-1.57-.26-.62-.39-1.32-.39-2.11s.13-1.48.39-2.11c.26-.63.62-1.17,1.07-1.62.45-.45.99-.79,1.61-1.04.62-.25,1.29-.37,2.01-.37.67,0,1.28.11,1.85.33.57.22,1.06.55,1.47.98.41.43.74.97.97,1.62.23.65.35,1.4.35,2.27ZM504.01,933.91c0-.31-.04-.6-.13-.88-.09-.28-.22-.53-.41-.74-.19-.21-.42-.38-.71-.51-.29-.13-.62-.19-1.01-.19-.72,0-1.33.22-1.83.65-.5.43-.78.99-.83,1.67h4.92Z" />
      <path
        d="M509.61,930.07h2.3v1.6h.04c.27-.56.64-1.01,1.12-1.36.48-.35,1.04-.52,1.68-.52.09,0,.19,0,.3,0,.11,0,.2.02.28.05v2.2c-.16-.04-.3-.07-.41-.08-.11-.01-.22-.02-.33-.02-.55,0-.99.1-1.32.3-.33.2-.59.44-.78.72-.19.28-.31.57-.38.86-.07.29-.1.53-.1.7v5.14h-2.4v-9.6Z" />
      <path
        d="M535.15,929.79c.63,0,1.16.11,1.61.33.45.22.81.51,1.1.87.29.36.5.77.63,1.24.13.47.2.95.2,1.44v6h-2.4v-5.32c0-.28-.02-.57-.06-.88-.04-.31-.13-.58-.26-.83-.13-.25-.32-.45-.55-.61-.23-.16-.54-.24-.93-.24s-.69.08-.96.24c-.27.16-.49.37-.66.62-.17.25-.3.54-.38.85-.08.31-.12.62-.12.93v5.24h-2.4v-5.8c0-.6-.14-1.1-.43-1.49-.29-.39-.74-.59-1.35-.59-.36,0-.67.08-.94.23-.27.15-.48.35-.65.59-.17.24-.29.52-.38.83-.09.31-.13.63-.13.95v5.28h-2.4v-9.6h2.28v1.54h.04c.11-.24.25-.47.43-.68.18-.21.39-.41.64-.58.25-.17.53-.31.85-.41.32-.1.67-.15,1.06-.15.75,0,1.37.17,1.86.5.49.33.87.77,1.14,1.32.32-.59.75-1.04,1.28-1.35.53-.31,1.16-.47,1.88-.47Z" />
      <path
        d="M548.33,938.45h-.06c-.24.43-.63.78-1.16,1.05-.53.27-1.14.41-1.82.41-.39,0-.79-.05-1.21-.15-.42-.1-.81-.27-1.16-.5-.35-.23-.65-.54-.88-.92-.23-.38-.35-.85-.35-1.41,0-.72.2-1.29.61-1.72.41-.43.93-.75,1.57-.98.64-.23,1.35-.38,2.13-.45.78-.07,1.54-.11,2.29-.11v-.24c0-.6-.22-1.04-.65-1.33-.43-.29-.95-.43-1.55-.43-.51,0-.99.11-1.46.32-.47.21-.85.47-1.16.78l-1.24-1.46c.55-.51,1.18-.89,1.89-1.14.71-.25,1.44-.38,2.17-.38.85,0,1.56.12,2.11.36.55.24.99.55,1.31.94.32.39.54.82.67,1.3.13.48.19.96.19,1.44v5.84h-2.24v-1.22ZM548.29,935.29h-.54c-.39,0-.79.02-1.22.05-.43.03-.82.11-1.18.22-.36.11-.66.27-.9.48-.24.21-.36.49-.36.85,0,.23.05.42.15.57.1.15.23.28.39.37.16.09.34.16.54.2.2.04.4.06.6.06.83,0,1.45-.22,1.88-.66.43-.44.64-1.04.64-1.8v-.34Z" />
      <path
        d="M564.03,939.67h-2.28v-1.44h-.04c-.33.56-.8.99-1.39,1.28-.59.29-1.23.44-1.91.44-.73,0-1.39-.14-1.97-.41-.58-.27-1.07-.64-1.48-1.1-.41-.46-.72-1-.94-1.62-.22-.62-.33-1.28-.33-1.99s.11-1.37.34-1.98c.23-.61.55-1.15.96-1.6.41-.45.91-.81,1.48-1.07.57-.26,1.2-.39,1.88-.39.44,0,.83.05,1.18.15.35.1.65.22.91.37.26.15.48.31.67.48.19.17.34.34.46.5h.06v-6.74h2.4v15.12ZM556.13,934.83c0,.37.06.75.17,1.12.11.37.28.71.51,1,.23.29.51.53.86.72.35.19.75.28,1.22.28.44,0,.83-.09,1.18-.27.35-.18.64-.42.89-.71.25-.29.43-.62.56-.99.13-.37.19-.74.19-1.11s-.06-.75-.19-1.12c-.13-.37-.31-.71-.56-1-.25-.29-.54-.53-.89-.72-.35-.19-.74-.28-1.18-.28-.47,0-.87.09-1.22.27-.35.18-.63.42-.86.71-.23.29-.4.62-.51.99-.11.37-.17.74-.17,1.11Z" />
      <path
        d="M576.96,934.99v.32c0,.11,0,.21-.02.32h-7.3c.03.35.12.66.27.95.15.29.36.53.61.74.25.21.54.37.86.49.32.12.65.18,1,.18.6,0,1.11-.11,1.52-.33.41-.22.75-.52,1.02-.91l1.6,1.28c-.95,1.28-2.32,1.92-4.12,1.92-.75,0-1.43-.12-2.06-.35-.63-.23-1.17-.56-1.63-.99-.46-.43-.82-.95-1.08-1.57-.26-.62-.39-1.32-.39-2.11s.13-1.48.39-2.11c.26-.63.62-1.17,1.07-1.62.45-.45.99-.79,1.61-1.04.62-.25,1.29-.37,2.01-.37.67,0,1.28.11,1.85.33.57.22,1.06.55,1.47.98.41.43.74.97.97,1.62.23.65.35,1.4.35,2.27ZM574.56,933.91c0-.31-.04-.6-.13-.88-.09-.28-.22-.53-.41-.74-.19-.21-.42-.38-.71-.51-.29-.13-.62-.19-1.01-.19-.72,0-1.33.22-1.83.65-.5.43-.78.99-.83,1.67h4.92Z" />
      <path
        d="M591.42,929.79c.63,0,1.16.11,1.61.33.45.22.81.51,1.1.87.29.36.5.77.63,1.24.13.47.2.95.2,1.44v6h-2.4v-5.28c0-.28-.02-.57-.06-.87-.04-.3-.12-.57-.25-.82-.13-.25-.31-.45-.54-.61-.23-.16-.54-.24-.93-.24s-.72.07-1,.22c-.28.15-.51.34-.7.59-.19.25-.33.52-.42.83-.09.31-.14.62-.14.94v5.24h-2.4v-15.12h2.4v6.86h.04c.09-.2.23-.4.41-.59.18-.19.39-.37.63-.52.24-.15.51-.28.82-.37.31-.09.64-.14,1-.14Z" />
      <path
        d="M598.06,934.83c0-.76.14-1.45.41-2.07.27-.62.64-1.15,1.11-1.59.47-.44,1.02-.78,1.66-1.02.64-.24,1.32-.36,2.04-.36s1.4.12,2.04.36c.64.24,1.19.58,1.66,1.02.47.44.84.97,1.11,1.59.27.62.41,1.31.41,2.07s-.14,1.45-.41,2.08c-.27.63-.64,1.16-1.11,1.61s-1.02.8-1.66,1.05c-.64.25-1.32.38-2.04.38s-1.4-.13-2.04-.38c-.64-.25-1.19-.6-1.66-1.05-.47-.45-.84-.98-1.11-1.61-.27-.63-.41-1.32-.41-2.08ZM600.5,934.83c0,.37.06.75.17,1.12.11.37.28.71.51,1,.23.29.51.53.86.72.35.19.76.28,1.24.28s.89-.09,1.24-.28c.35-.19.63-.43.86-.72.23-.29.4-.63.51-1,.11-.37.17-.75.17-1.12s-.06-.74-.17-1.11c-.11-.37-.28-.7-.51-.99-.23-.29-.51-.53-.86-.71-.35-.18-.76-.27-1.24-.27s-.89.09-1.24.27c-.35.18-.63.42-.86.71-.23.29-.4.62-.51.99-.11.37-.17.74-.17,1.11Z" />
      <path
        d="M620.44,939.67h-2.28v-1.54h-.04c-.21.48-.58.9-1.11,1.27-.53.37-1.15.55-1.87.55-.63,0-1.16-.11-1.61-.33-.45-.22-.81-.51-1.1-.87-.29-.36-.5-.77-.63-1.24-.13-.47-.2-.95-.2-1.44v-6h2.4v5.32c0,.28.02.57.06.88.04.31.13.58.26.83.13.25.32.45.55.61.23.16.54.24.93.24s.7-.08.99-.23c.29-.15.52-.35.7-.59.18-.24.32-.52.41-.83.09-.31.14-.63.14-.95v-5.28h2.4v9.6Z" />
      <path
        d="M629.57,932.63c-.21-.28-.51-.52-.88-.73-.37-.21-.78-.31-1.22-.31-.39,0-.74.08-1.06.24-.32.16-.48.43-.48.8s.18.64.53.79c.35.15.87.31,1.55.47.36.08.72.19,1.09.32.37.13.7.31,1,.53.3.22.54.49.73.82.19.33.28.72.28,1.19,0,.59-.11,1.08-.33,1.49-.22.41-.51.74-.88.99-.37.25-.79.44-1.28.55-.49.11-.99.17-1.51.17-.75,0-1.47-.14-2.18-.41-.71-.27-1.29-.66-1.76-1.17l1.58-1.48c.27.35.61.63,1.04.86.43.23.9.34,1.42.34.17,0,.35-.02.53-.06.18-.04.35-.1.5-.19.15-.09.28-.2.37-.35.09-.15.14-.33.14-.54,0-.4-.18-.69-.55-.86-.37-.17-.92-.35-1.65-.52-.36-.08-.71-.18-1.05-.31-.34-.13-.64-.29-.91-.5-.27-.21-.48-.46-.64-.77-.16-.31-.24-.69-.24-1.14,0-.53.11-.99.33-1.38.22-.39.51-.7.87-.95.36-.25.77-.43,1.22-.55.45-.12.92-.18,1.4-.18.69,0,1.37.12,2.03.36.66.24,1.18.61,1.57,1.1l-1.56,1.38Z" />
      <path
        d="M643.28,934.99v.32c0,.11,0,.21-.02.32h-7.3c.03.35.12.66.27.95.15.29.36.53.61.74.25.21.54.37.86.49.32.12.65.18,1,.18.6,0,1.11-.11,1.52-.33.41-.22.75-.52,1.02-.91l1.6,1.28c-.95,1.28-2.32,1.92-4.12,1.92-.75,0-1.43-.12-2.06-.35-.63-.23-1.17-.56-1.63-.99-.46-.43-.82-.95-1.08-1.57-.26-.62-.39-1.32-.39-2.11s.13-1.48.39-2.11c.26-.63.62-1.17,1.07-1.62.45-.45.99-.79,1.61-1.04.62-.25,1.29-.37,2.01-.37.67,0,1.28.11,1.85.33.57.22,1.06.55,1.47.98.41.43.74.97.97,1.62.23.65.35,1.4.35,2.27ZM640.88,933.91c0-.31-.04-.6-.13-.88-.09-.28-.22-.53-.41-.74-.19-.21-.42-.38-.71-.51-.29-.13-.62-.19-1.01-.19-.72,0-1.33.22-1.83.65-.5.43-.78.99-.83,1.67h4.92Z" />
    </g>
    <g class="text text-02">
      <path
        d="M456.2,962.07h2.6l2,6.88h.04l2.06-6.88h2.56l2.08,6.88h.04l2.04-6.88h2.5l-3.32,9.6h-2.44l-2.18-6.72h-.04l-2.16,6.72h-2.44l-3.34-9.6Z" />
      <path
        d="M474.28,958.81c0-.39.14-.72.43-1.01.29-.29.65-.43,1.09-.43s.81.14,1.11.41c.3.27.45.62.45,1.03s-.15.76-.45,1.03c-.3.27-.67.41-1.11.41s-.8-.14-1.09-.43c-.29-.29-.43-.62-.43-1.01ZM474.62,962.07h2.4v9.6h-2.4v-9.6Z" />
      <path
        d="M479.5,963.99v-1.92h1.68v-2.78h2.36v2.78h2.4v1.92h-2.4v4.46c0,.43.08.78.23,1.06.15.28.5.42,1.03.42.16,0,.33-.02.52-.05.19-.03.35-.08.5-.15l.08,1.88c-.21.08-.47.14-.76.19-.29.05-.57.07-.84.07-.64,0-1.16-.09-1.56-.27-.4-.18-.72-.43-.95-.74-.23-.31-.39-.67-.48-1.08-.09-.41-.13-.84-.13-1.31v-4.48h-1.68Z" />
      <path
        d="M494.04,961.79c.63,0,1.16.11,1.61.33.45.22.81.51,1.1.87.29.36.5.77.63,1.24.13.47.2.95.2,1.44v6h-2.4v-5.28c0-.28-.02-.57-.06-.87-.04-.3-.12-.57-.25-.82-.13-.25-.31-.45-.54-.61-.23-.16-.54-.24-.93-.24s-.72.07-1,.22c-.28.15-.51.34-.7.59-.19.25-.33.52-.42.83-.09.31-.14.62-.14.94v5.24h-2.4v-15.12h2.4v6.86h.04c.09-.2.23-.4.41-.59.18-.19.39-.37.63-.52.24-.15.51-.28.82-.37.31-.09.64-.14,1-.14Z" />
      <path
        d="M513.14,970.45h-.06c-.24.43-.63.78-1.16,1.05-.53.27-1.14.41-1.82.41-.39,0-.79-.05-1.21-.15-.42-.1-.81-.27-1.16-.5-.35-.23-.65-.54-.88-.92-.23-.38-.35-.85-.35-1.41,0-.72.2-1.29.61-1.72.41-.43.93-.75,1.57-.98.64-.23,1.35-.38,2.13-.45.78-.07,1.54-.11,2.29-.11v-.24c0-.6-.22-1.04-.65-1.33-.43-.29-.95-.43-1.55-.43-.51,0-.99.11-1.46.32-.47.21-.85.47-1.16.78l-1.24-1.46c.55-.51,1.18-.89,1.89-1.14.71-.25,1.44-.38,2.17-.38.85,0,1.56.12,2.11.36.55.24.99.55,1.31.94.32.39.54.82.67,1.3.13.48.19.96.19,1.44v5.84h-2.24v-1.22ZM513.1,967.29h-.54c-.39,0-.79.02-1.22.05-.43.03-.82.11-1.18.22-.36.11-.66.27-.9.48-.24.21-.36.49-.36.85,0,.23.05.42.15.57.1.15.23.28.39.37.16.09.34.16.54.2.2.04.4.06.6.06.83,0,1.45-.22,1.88-.66.43-.44.64-1.04.64-1.8v-.34Z" />
      <path
        d="M530.51,961.79c.63,0,1.16.11,1.61.33.45.22.81.51,1.1.87.29.36.5.77.63,1.24.13.47.2.95.2,1.44v6h-2.4v-5.32c0-.28-.02-.57-.06-.88-.04-.31-.13-.58-.26-.83-.13-.25-.32-.45-.55-.61-.23-.16-.54-.24-.93-.24s-.69.08-.96.24c-.27.16-.49.37-.66.62-.17.25-.3.54-.38.85-.08.31-.12.62-.12.93v5.24h-2.4v-5.8c0-.6-.14-1.1-.43-1.49-.29-.39-.74-.59-1.35-.59-.36,0-.67.08-.94.23-.27.15-.48.35-.65.59-.17.24-.29.52-.38.83-.09.31-.13.63-.13.95v5.28h-2.4v-9.6h2.28v1.54h.04c.11-.24.25-.47.43-.68.18-.21.39-.41.64-.58.25-.17.53-.31.85-.41.32-.1.67-.15,1.06-.15.75,0,1.37.17,1.86.5.49.33.87.77,1.14,1.32.32-.59.75-1.04,1.28-1.35.53-.31,1.16-.47,1.88-.47Z" />
      <path
        d="M540.03,962.07v1.34h.06c.12-.19.28-.38.47-.57.19-.19.43-.37.71-.52.28-.15.6-.28.95-.38.35-.1.75-.15,1.19-.15.68,0,1.31.13,1.88.39.57.26,1.07.62,1.48,1.07.41.45.73.99.96,1.6.23.61.34,1.27.34,1.98s-.11,1.37-.33,1.99c-.22.62-.53,1.16-.94,1.62-.41.46-.9.83-1.48,1.1-.58.27-1.24.41-1.97.41-.68,0-1.3-.14-1.87-.42-.57-.28-1-.66-1.31-1.14h-.04v6.08h-2.4v-14.4h2.3ZM545.63,966.83c0-.37-.06-.74-.17-1.11-.11-.37-.28-.7-.51-.99-.23-.29-.51-.53-.86-.71-.35-.18-.75-.27-1.22-.27-.44,0-.83.09-1.18.28-.35.19-.64.43-.89.72-.25.29-.43.63-.56,1-.13.37-.19.75-.19,1.12s.06.74.19,1.11c.13.37.31.7.56.99.25.29.54.53.89.71.35.18.74.27,1.18.27.47,0,.87-.09,1.22-.28.35-.19.63-.43.86-.72.23-.29.4-.63.51-1,.11-.37.17-.75.17-1.12Z" />
      <path d="M551.32,956.55h2.4v15.12h-2.4v-15.12Z" />
      <path
        d="M566.68,966.99v.32c0,.11,0,.21-.02.32h-7.3c.03.35.12.66.27.95.15.29.36.53.61.74.25.21.54.37.86.49.32.12.65.18,1,.18.6,0,1.11-.11,1.52-.33.41-.22.75-.52,1.02-.91l1.6,1.28c-.95,1.28-2.32,1.92-4.12,1.92-.75,0-1.43-.12-2.06-.35-.63-.23-1.17-.56-1.63-.99-.46-.43-.82-.95-1.08-1.57-.26-.62-.39-1.32-.39-2.11s.13-1.48.39-2.11c.26-.63.62-1.17,1.07-1.62.45-.45.99-.79,1.61-1.04.62-.25,1.29-.37,2.01-.37.67,0,1.28.11,1.85.33.57.22,1.06.55,1.47.98.41.43.74.97.97,1.62.23.65.35,1.4.35,2.27ZM564.28,965.91c0-.31-.04-.6-.13-.88-.09-.28-.22-.53-.41-.74-.19-.21-.42-.38-.71-.51-.29-.13-.62-.19-1.01-.19-.72,0-1.33.22-1.83.65-.5.43-.78.99-.83,1.67h4.92Z" />
      <path
        d="M576.18,963.99h-1.82v-1.92h1.82v-1.42c0-.57.06-1.12.19-1.65.13-.53.34-.99.64-1.39.3-.4.7-.72,1.19-.95.49-.23,1.11-.35,1.86-.35.27,0,.49.01.67.03.18.02.36.06.55.11l-.16,2.04c-.13-.04-.28-.07-.43-.1-.15-.03-.32-.04-.49-.04-.35,0-.63.07-.84.2-.21.13-.38.31-.49.52-.11.21-.19.45-.23.7-.04.25-.06.5-.06.74v1.56h2.22v1.92h-2.22v7.68h-2.4v-7.68Z" />
      <path
        d="M592.06,971.67h-2.28v-1.54h-.04c-.21.48-.58.9-1.11,1.27-.53.37-1.15.55-1.87.55-.63,0-1.16-.11-1.61-.33-.45-.22-.81-.51-1.1-.87-.29-.36-.5-.77-.63-1.24-.13-.47-.2-.95-.2-1.44v-6h2.4v5.32c0,.28.02.57.06.88.04.31.13.58.26.83.13.25.32.45.55.61.23.16.54.24.93.24s.7-.08.99-.23c.29-.15.52-.35.7-.59.18-.24.32-.52.41-.83.09-.31.14-.63.14-.95v-5.28h2.4v9.6Z" />
      <path
        d="M595.81,962.07h2.28v1.54h.04c.21-.48.58-.9,1.11-1.27.53-.37,1.15-.55,1.87-.55.63,0,1.16.11,1.61.33.45.22.81.51,1.1.87.29.36.5.77.63,1.24.13.47.2.95.2,1.44v6h-2.4v-5.32c0-.28-.02-.57-.06-.88-.04-.31-.13-.58-.26-.83-.13-.25-.32-.45-.55-.61-.23-.16-.54-.24-.93-.24s-.72.08-1,.23c-.28.15-.51.35-.69.59-.18.24-.32.52-.41.83-.09.31-.14.63-.14.95v5.28h-2.4v-9.6Z" />
      <path
        d="M614.89,964.73c-.19-.27-.47-.49-.84-.67-.37-.18-.75-.27-1.14-.27-.44,0-.83.09-1.16.27-.33.18-.61.42-.83.71-.22.29-.38.62-.49.99-.11.37-.16.74-.16,1.11s.06.74.17,1.11c.11.37.28.7.51.99.23.29.51.53.85.71.34.18.74.27,1.19.27.37,0,.75-.07,1.12-.22.37-.15.67-.36.9-.64l1.5,1.52c-.4.43-.91.76-1.53.99-.62.23-1.29.35-2.01.35s-1.38-.11-2.01-.34c-.63-.23-1.19-.56-1.66-1-.47-.44-.85-.97-1.12-1.6-.27-.63-.41-1.34-.41-2.14s.14-1.47.41-2.1c.27-.63.64-1.16,1.11-1.6.47-.44,1.01-.78,1.63-1.02.62-.24,1.28-.36,1.99-.36s1.39.13,2.05.4c.66.27,1.18.63,1.57,1.1l-1.64,1.44Z" />
      <path
        d="M618.35,963.99v-1.92h1.68v-2.78h2.36v2.78h2.4v1.92h-2.4v4.46c0,.43.08.78.23,1.06.15.28.5.42,1.03.42.16,0,.33-.02.52-.05.19-.03.35-.08.5-.15l.08,1.88c-.21.08-.47.14-.76.19-.29.05-.57.07-.84.07-.64,0-1.16-.09-1.56-.27-.4-.18-.72-.43-.95-.74-.23-.31-.39-.67-.48-1.08-.09-.41-.13-.84-.13-1.31v-4.48h-1.68Z" />
      <path
        d="M627.14,958.81c0-.39.14-.72.43-1.01.29-.29.65-.43,1.09-.43s.81.14,1.11.41c.3.27.45.62.45,1.03s-.15.76-.45,1.03c-.3.27-.67.41-1.11.41s-.8-.14-1.09-.43c-.29-.29-.43-.62-.43-1.01ZM627.48,962.07h2.4v9.6h-2.4v-9.6Z" />
      <path
        d="M633.05,966.83c0-.76.14-1.45.41-2.07.27-.62.64-1.15,1.11-1.59.47-.44,1.02-.78,1.66-1.02.64-.24,1.32-.36,2.04-.36s1.4.12,2.04.36c.64.24,1.19.58,1.66,1.02.47.44.84.97,1.11,1.59.27.62.41,1.31.41,2.07s-.14,1.45-.41,2.08c-.27.63-.64,1.16-1.11,1.61-.47.45-1.02.8-1.66,1.05-.64.25-1.32.38-2.04.38s-1.4-.13-2.04-.38c-.64-.25-1.19-.6-1.66-1.05s-.84-.98-1.11-1.61c-.27-.63-.41-1.32-.41-2.08ZM635.49,966.83c0,.37.06.75.17,1.12.11.37.28.71.51,1,.23.29.51.53.86.72.35.19.76.28,1.24.28s.89-.09,1.24-.28c.35-.19.63-.43.86-.72.23-.29.4-.63.51-1,.11-.37.17-.75.17-1.12s-.06-.74-.17-1.11c-.11-.37-.28-.7-.51-.99-.23-.29-.51-.53-.86-.71-.35-.18-.76-.27-1.24-.27s-.89.09-1.24.27c-.35.18-.63.42-.86.71-.23.29-.4.62-.51.99-.11.37-.17.74-.17,1.11Z" />
      <path
        d="M646.66,962.07h2.28v1.54h.04c.21-.48.58-.9,1.11-1.27.53-.37,1.15-.55,1.87-.55.63,0,1.16.11,1.61.33.45.22.81.51,1.1.87.29.36.5.77.63,1.24.13.47.2.95.2,1.44v6h-2.4v-5.32c0-.28-.02-.57-.06-.88-.04-.31-.13-.58-.26-.83-.13-.25-.32-.45-.55-.61-.23-.16-.54-.24-.93-.24s-.72.08-1,.23c-.28.15-.51.35-.69.59-.18.24-.32.52-.41.83-.09.31-.14.63-.14.95v5.28h-2.4v-9.6Z" />
      <path
        d="M665.13,970.45h-.06c-.24.43-.63.78-1.16,1.05-.53.27-1.14.41-1.82.41-.39,0-.79-.05-1.21-.15-.42-.1-.81-.27-1.16-.5-.35-.23-.65-.54-.88-.92-.23-.38-.35-.85-.35-1.41,0-.72.2-1.29.61-1.72.41-.43.93-.75,1.57-.98.64-.23,1.35-.38,2.13-.45.78-.07,1.54-.11,2.29-.11v-.24c0-.6-.22-1.04-.65-1.33-.43-.29-.95-.43-1.55-.43-.51,0-.99.11-1.46.32-.47.21-.85.47-1.16.78l-1.24-1.46c.55-.51,1.18-.89,1.89-1.14.71-.25,1.44-.38,2.17-.38.85,0,1.56.12,2.11.36.55.24.99.55,1.31.94.32.39.54.82.67,1.3.13.48.19.96.19,1.44v5.84h-2.24v-1.22ZM665.09,967.29h-.54c-.39,0-.79.02-1.22.05-.43.03-.82.11-1.18.22-.36.11-.66.27-.9.48-.24.21-.36.49-.36.85,0,.23.05.42.15.57.1.15.23.28.39.37.16.09.34.16.54.2.2.04.4.06.6.06.83,0,1.45-.22,1.88-.66.43-.44.64-1.04.64-1.8v-.34Z" />
      <path d="M671.08,956.55h2.4v15.12h-2.4v-15.12Z" />
      <path
        d="M676.93,958.81c0-.39.14-.72.43-1.01.29-.29.65-.43,1.09-.43s.81.14,1.11.41c.3.27.45.62.45,1.03s-.15.76-.45,1.03c-.3.27-.67.41-1.11.41s-.8-.14-1.09-.43c-.29-.29-.43-.62-.43-1.01ZM677.27,962.07h2.4v9.6h-2.4v-9.6Z" />
      <path
        d="M682.16,963.99v-1.92h1.68v-2.78h2.36v2.78h2.4v1.92h-2.4v4.46c0,.43.08.78.23,1.06.15.28.5.42,1.03.42.16,0,.33-.02.52-.05.19-.03.35-.08.5-.15l.08,1.88c-.21.08-.47.14-.76.19-.29.05-.57.07-.84.07-.64,0-1.16-.09-1.56-.27-.4-.18-.72-.43-.95-.74-.23-.31-.39-.67-.48-1.08-.09-.41-.13-.84-.13-1.31v-4.48h-1.68Z" />
      <path
        d="M690.48,962.07h2.66l2.68,6.98h.04l2.38-6.98h2.5l-4.54,11.66c-.17.44-.36.83-.56,1.17-.2.34-.44.63-.72.86-.28.23-.61.41-.99.53-.38.12-.84.18-1.37.18-.2,0-.4,0-.61-.03-.21-.02-.42-.06-.63-.11l.2-2.08c.16.05.32.09.47.11.15.02.3.03.43.03.25,0,.47-.03.64-.09.17-.06.32-.15.44-.28.12-.13.23-.28.32-.47.09-.19.19-.41.3-.66l.48-1.22-4.12-9.6Z" />
      <path
        d="M714.94,970.45h-.06c-.24.43-.63.78-1.16,1.05-.53.27-1.14.41-1.82.41-.39,0-.79-.05-1.21-.15-.42-.1-.81-.27-1.16-.5-.35-.23-.65-.54-.88-.92-.23-.38-.35-.85-.35-1.41,0-.72.2-1.29.61-1.72.41-.43.93-.75,1.57-.98.64-.23,1.35-.38,2.13-.45.78-.07,1.54-.11,2.29-.11v-.24c0-.6-.22-1.04-.65-1.33-.43-.29-.95-.43-1.55-.43-.51,0-.99.11-1.46.32-.47.21-.85.47-1.16.78l-1.24-1.46c.55-.51,1.18-.89,1.89-1.14.71-.25,1.44-.38,2.17-.38.85,0,1.56.12,2.11.36.55.24.99.55,1.31.94.32.39.54.82.67,1.3.13.48.19.96.19,1.44v5.84h-2.24v-1.22ZM714.9,967.29h-.54c-.39,0-.79.02-1.22.05-.43.03-.82.11-1.18.22-.36.11-.66.27-.9.48-.24.21-.36.49-.36.85,0,.23.05.42.15.57.1.15.23.28.39.37.16.09.34.16.54.2.2.04.4.06.6.06.83,0,1.45-.22,1.88-.66.43-.44.64-1.04.64-1.8v-.34Z" />
      <path
        d="M720.86,962.07h2.28v1.54h.04c.21-.48.58-.9,1.11-1.27.53-.37,1.15-.55,1.87-.55.63,0,1.16.11,1.61.33.45.22.81.51,1.1.87.29.36.5.77.63,1.24.13.47.2.95.2,1.44v6h-2.4v-5.32c0-.28-.02-.57-.06-.88-.04-.31-.13-.58-.26-.83-.13-.25-.32-.45-.55-.61-.23-.16-.54-.24-.93-.24s-.72.08-1,.23c-.28.15-.51.35-.69.59-.18.24-.32.52-.41.83-.09.31-.14.63-.14.95v5.28h-2.4v-9.6Z" />
      <path
        d="M743.15,971.67h-2.28v-1.44h-.04c-.33.56-.8.99-1.39,1.28-.59.29-1.23.44-1.91.44-.73,0-1.39-.14-1.97-.41-.58-.27-1.07-.64-1.48-1.1-.41-.46-.72-1-.94-1.62-.22-.62-.33-1.28-.33-1.99s.11-1.37.34-1.98c.23-.61.55-1.15.96-1.6.41-.45.91-.81,1.48-1.07.57-.26,1.2-.39,1.88-.39.44,0,.83.05,1.18.15.35.1.65.22.91.37.26.15.48.31.67.48.19.17.34.34.46.5h.06v-6.74h2.4v15.12ZM735.25,966.83c0,.37.06.75.17,1.12.11.37.28.71.51,1,.23.29.51.53.86.72.35.19.75.28,1.22.28.44,0,.83-.09,1.18-.27.35-.18.64-.42.89-.71.25-.29.43-.62.56-.99.13-.37.19-.74.19-1.11s-.06-.75-.19-1.12c-.13-.37-.31-.71-.56-1-.25-.29-.54-.53-.89-.72-.35-.19-.74-.28-1.18-.28-.47,0-.87.09-1.22.27-.35.18-.63.42-.86.71-.23.29-.4.62-.51.99-.11.37-.17.74-.17,1.11Z" />
      <path
        d="M752.57,958.81c0-.39.14-.72.43-1.01.29-.29.65-.43,1.09-.43s.81.14,1.11.41c.3.27.45.62.45,1.03s-.15.76-.45,1.03c-.3.27-.67.41-1.11.41s-.8-.14-1.09-.43c-.29-.29-.43-.62-.43-1.01ZM752.91,962.07h2.4v9.6h-2.4v-9.6Z" />
      <path
        d="M768.81,971.67h-2.28v-1.44h-.04c-.33.56-.8.99-1.39,1.28-.59.29-1.23.44-1.91.44-.73,0-1.39-.14-1.97-.41-.58-.27-1.07-.64-1.48-1.1-.41-.46-.72-1-.94-1.62-.22-.62-.33-1.28-.33-1.99s.11-1.37.34-1.98c.23-.61.55-1.15.96-1.6.41-.45.91-.81,1.48-1.07.57-.26,1.2-.39,1.88-.39.44,0,.83.05,1.18.15.35.1.65.22.91.37.26.15.48.31.67.48.19.17.34.34.46.5h.06v-6.74h2.4v15.12ZM760.91,966.83c0,.37.06.75.17,1.12.11.37.28.71.51,1,.23.29.51.53.86.72.35.19.75.28,1.22.28.44,0,.83-.09,1.18-.27.35-.18.64-.42.89-.71.25-.29.43-.62.56-.99.13-.37.19-.74.19-1.11s-.06-.75-.19-1.12c-.13-.37-.31-.71-.56-1-.25-.29-.54-.53-.89-.72-.35-.19-.74-.28-1.18-.28-.47,0-.87.09-1.22.27-.35.18-.63.42-.86.71-.23.29-.4.62-.51.99-.11.37-.17.74-.17,1.11Z" />
      <path
        d="M781.74,966.99v.32c0,.11,0,.21-.02.32h-7.3c.03.35.12.66.27.95.15.29.36.53.61.74.25.21.54.37.86.49.32.12.65.18,1,.18.6,0,1.11-.11,1.52-.33.41-.22.75-.52,1.02-.91l1.6,1.28c-.95,1.28-2.32,1.92-4.12,1.92-.75,0-1.43-.12-2.06-.35-.63-.23-1.17-.56-1.63-.99-.46-.43-.82-.95-1.08-1.57-.26-.62-.39-1.32-.39-2.11s.13-1.48.39-2.11c.26-.63.62-1.17,1.07-1.62.45-.45.99-.79,1.61-1.04.62-.25,1.29-.37,2.01-.37.67,0,1.28.11,1.85.33.57.22,1.06.55,1.47.98.41.43.74.97.97,1.62.23.65.35,1.4.35,2.27ZM779.34,965.91c0-.31-.04-.6-.13-.88-.09-.28-.22-.53-.41-.74-.19-.21-.42-.38-.71-.51-.29-.13-.62-.19-1.01-.19-.72,0-1.33.22-1.83.65-.5.43-.78.99-.83,1.67h4.92Z" />
      <path
        d="M790.83,970.45h-.06c-.24.43-.63.78-1.16,1.05-.53.27-1.14.41-1.82.41-.39,0-.79-.05-1.21-.15-.42-.1-.81-.27-1.16-.5-.35-.23-.65-.54-.88-.92-.23-.38-.35-.85-.35-1.41,0-.72.2-1.29.61-1.72.41-.43.93-.75,1.57-.98.64-.23,1.35-.38,2.13-.45.78-.07,1.54-.11,2.29-.11v-.24c0-.6-.22-1.04-.65-1.33-.43-.29-.95-.43-1.55-.43-.51,0-.99.11-1.46.32-.47.21-.85.47-1.16.78l-1.24-1.46c.55-.51,1.18-.89,1.89-1.14.71-.25,1.44-.38,2.17-.38.85,0,1.56.12,2.11.36.55.24.99.55,1.31.94.32.39.54.82.67,1.3.13.48.19.96.19,1.44v5.84h-2.24v-1.22ZM790.79,967.29h-.54c-.39,0-.79.02-1.22.05-.43.03-.82.11-1.18.22-.36.11-.66.27-.9.48-.24.21-.36.49-.36.85,0,.23.05.42.15.57.1.15.23.28.39.37.16.09.34.16.54.2.2.04.4.06.6.06.83,0,1.45-.22,1.88-.66.43-.44.64-1.04.64-1.8v-.34Z" />
      <path d="M796.78,956.55h2.4v15.12h-2.4v-15.12Z" />
      <path
        d="M818.66,971.67h-2.28v-1.44h-.04c-.33.56-.8.99-1.39,1.28-.59.29-1.23.44-1.91.44-.73,0-1.39-.14-1.97-.41-.58-.27-1.07-.64-1.48-1.1-.41-.46-.72-1-.94-1.62-.22-.62-.33-1.28-.33-1.99s.11-1.37.34-1.98c.23-.61.55-1.15.96-1.6.41-.45.91-.81,1.48-1.07.57-.26,1.2-.39,1.88-.39.44,0,.83.05,1.18.15.35.1.65.22.91.37.26.15.48.31.67.48.19.17.34.34.46.5h.06v-6.74h2.4v15.12ZM810.76,966.83c0,.37.06.75.17,1.12.11.37.28.71.51,1,.23.29.51.53.86.72.35.19.75.28,1.22.28.44,0,.83-.09,1.18-.27.35-.18.64-.42.89-.71.25-.29.43-.62.56-.99.13-.37.19-.74.19-1.11s-.06-.75-.19-1.12c-.13-.37-.31-.71-.56-1-.25-.29-.54-.53-.89-.72-.35-.19-.74-.28-1.18-.28-.47,0-.87.09-1.22.27-.35.18-.63.42-.86.71-.23.29-.4.62-.51.99-.11.37-.17.74-.17,1.11Z" />
      <path
        d="M831.59,966.99v.32c0,.11,0,.21-.02.32h-7.3c.03.35.12.66.27.95.15.29.36.53.61.74.25.21.54.37.86.49.32.12.65.18,1,.18.6,0,1.11-.11,1.52-.33.41-.22.75-.52,1.02-.91l1.6,1.28c-.95,1.28-2.32,1.92-4.12,1.92-.75,0-1.43-.12-2.06-.35-.63-.23-1.17-.56-1.63-.99-.46-.43-.82-.95-1.08-1.57-.26-.62-.39-1.32-.39-2.11s.13-1.48.39-2.11c.26-.63.62-1.17,1.07-1.62.45-.45.99-.79,1.61-1.04.62-.25,1.29-.37,2.01-.37.67,0,1.28.11,1.85.33.57.22,1.06.55,1.47.98.41.43.74.97.97,1.62.23.65.35,1.4.35,2.27ZM829.19,965.91c0-.31-.04-.6-.13-.88-.09-.28-.22-.53-.41-.74-.19-.21-.42-.38-.71-.51-.29-.13-.62-.19-1.01-.19-.72,0-1.33.22-1.83.65-.5.43-.78.99-.83,1.67h4.92Z" />
      <path
        d="M840.1,964.63c-.21-.28-.51-.52-.88-.73-.37-.21-.78-.31-1.22-.31-.39,0-.74.08-1.06.24-.32.16-.48.43-.48.8s.18.64.53.79c.35.15.87.31,1.55.47.36.08.72.19,1.09.32.37.13.7.31,1,.53.3.22.54.49.73.82.19.33.28.72.28,1.19,0,.59-.11,1.08-.33,1.49-.22.41-.51.74-.88.99-.37.25-.79.44-1.28.55-.49.11-.99.17-1.51.17-.75,0-1.47-.14-2.18-.41-.71-.27-1.29-.66-1.76-1.17l1.58-1.48c.27.35.61.63,1.04.86.43.23.9.34,1.42.34.17,0,.35-.02.53-.06.18-.04.35-.1.5-.19.15-.09.28-.2.37-.35.09-.15.14-.33.14-.54,0-.4-.18-.69-.55-.86-.37-.17-.92-.35-1.65-.52-.36-.08-.71-.18-1.05-.31-.34-.13-.64-.29-.91-.5-.27-.21-.48-.46-.64-.77-.16-.31-.24-.69-.24-1.14,0-.53.11-.99.33-1.38.22-.39.51-.7.87-.95.36-.25.77-.43,1.22-.55.45-.12.92-.18,1.4-.18.69,0,1.37.12,2.03.36.66.24,1.18.61,1.57,1.1l-1.56,1.38Z" />
      <path
        d="M844.4,958.81c0-.39.14-.72.43-1.01.29-.29.65-.43,1.09-.43s.81.14,1.11.41c.3.27.45.62.45,1.03s-.15.76-.45,1.03c-.3.27-.67.41-1.11.41s-.8-.14-1.09-.43c-.29-.29-.43-.62-.43-1.01ZM844.74,962.07h2.4v9.6h-2.4v-9.6Z" />
      <path
        d="M860.63,962.07v8.74c0,.87-.11,1.65-.32,2.35-.21.7-.54,1.29-.99,1.78-.45.49-1.01.86-1.69,1.13-.68.27-1.49.4-2.42.4-.39,0-.8-.03-1.23-.1-.43-.07-.86-.17-1.28-.3-.42-.13-.82-.3-1.21-.5-.39-.2-.73-.43-1.04-.68l1.38-1.86c.47.44.99.78,1.58,1.01.59.23,1.18.35,1.78.35s1.06-.08,1.45-.25c.39-.17.71-.4.94-.69.23-.29.4-.64.5-1.04.1-.4.15-.84.15-1.33v-.7h-.04c-.35.47-.79.83-1.33,1.08-.54.25-1.14.37-1.81.37-.72,0-1.37-.13-1.96-.4-.59-.27-1.08-.63-1.49-1.08-.41-.45-.72-.98-.95-1.59-.23-.61-.34-1.25-.34-1.93s.11-1.35.33-1.96c.22-.61.53-1.15.94-1.6.41-.45.9-.81,1.48-1.08.58-.27,1.23-.4,1.95-.4.68,0,1.31.14,1.9.42.59.28,1.05.71,1.4,1.3h.04v-1.44h2.28ZM855.51,963.75c-.44,0-.83.08-1.17.24-.34.16-.63.38-.86.65-.23.27-.41.59-.54.97-.13.37-.19.77-.19,1.2,0,.39.06.76.19,1.12.13.36.31.68.54.97.23.29.52.51.86.69.34.17.72.26,1.15.26s.84-.08,1.19-.25c.35-.17.65-.39.9-.67.25-.28.44-.6.57-.97.13-.37.2-.75.2-1.15s-.07-.8-.2-1.18c-.13-.37-.32-.7-.57-.98-.25-.28-.54-.5-.89-.66-.35-.16-.74-.24-1.18-.24Z" />
      <path
        d="M864.36,962.07h2.28v1.54h.04c.21-.48.58-.9,1.11-1.27.53-.37,1.15-.55,1.87-.55.63,0,1.16.11,1.61.33.45.22.81.51,1.1.87.29.36.5.77.63,1.24.13.47.2.95.2,1.44v6h-2.4v-5.32c0-.28-.02-.57-.06-.88-.04-.31-.13-.58-.26-.83-.13-.25-.32-.45-.55-.61-.23-.16-.54-.24-.93-.24s-.72.08-1,.23c-.28.15-.51.35-.69.59-.18.24-.32.52-.41.83-.09.31-.14.63-.14.95v5.28h-2.4v-9.6Z" />
      <path
        d="M876.57,970.27c0-.43.16-.79.47-1.1.31-.31.69-.46,1.13-.46s.8.15,1.12.44c.32.29.48.65.48,1.08s-.16.79-.47,1.1c-.31.31-.69.46-1.13.46-.21,0-.42-.04-.61-.12-.19-.08-.36-.19-.51-.32-.15-.13-.26-.29-.35-.48-.09-.19-.13-.39-.13-.6Z" />
    </g>
  </g>
  <g class="text-small">
    <g class="text text-01">
      <path
        d="M1454.15,640.98h2.18l6.1,14.16h-2.88l-1.32-3.24h-6.14l-1.28,3.24h-2.82l6.16-14.16ZM1457.35,649.74l-2.18-5.76-2.22,5.76h4.4Z" />
      <path
        d="M1470.42,648.1c-.21-.28-.51-.52-.88-.73-.37-.21-.78-.31-1.22-.31-.39,0-.74.08-1.06.24-.32.16-.48.43-.48.8s.18.64.53.79c.35.15.87.31,1.55.47.36.08.72.19,1.09.32.37.13.7.31,1,.53.3.22.54.49.73.82.19.33.28.72.28,1.19,0,.59-.11,1.08-.33,1.49-.22.41-.51.74-.88.99-.37.25-.79.44-1.28.55-.49.11-.99.17-1.51.17-.75,0-1.47-.14-2.18-.41-.71-.27-1.29-.66-1.76-1.17l1.58-1.48c.27.35.61.63,1.04.86.43.23.9.34,1.42.34.17,0,.35-.02.53-.06.18-.04.35-.1.5-.19.15-.09.28-.2.37-.35.09-.15.14-.33.14-.54,0-.4-.18-.69-.55-.86-.37-.17-.92-.35-1.65-.52-.36-.08-.71-.18-1.05-.31-.34-.13-.64-.29-.91-.5-.27-.21-.48-.46-.64-.77-.16-.31-.24-.69-.24-1.14,0-.53.11-.99.33-1.38.22-.39.51-.7.87-.95.36-.25.77-.43,1.22-.55.45-.12.92-.18,1.4-.18.69,0,1.37.12,2.03.36.66.24,1.18.61,1.57,1.1l-1.56,1.38Z" />
      <path
        d="M1474.05,647.46v-1.92h1.68v-2.78h2.36v2.78h2.4v1.92h-2.4v4.46c0,.43.08.78.23,1.06.15.28.5.42,1.03.42.16,0,.33-.02.52-.05s.35-.08.5-.15l.08,1.88c-.21.08-.47.14-.76.19-.29.05-.57.07-.84.07-.64,0-1.16-.09-1.56-.27-.4-.18-.72-.43-.95-.74-.23-.31-.39-.67-.48-1.08-.09-.41-.13-.84-.13-1.31v-4.48h-1.68Z" />
      <path
        d="M1492.2,650.46v.32c0,.11,0,.21-.02.32h-7.3c.03.35.12.66.27.95.15.29.36.53.61.74.25.21.54.37.86.49s.65.18,1,.18c.6,0,1.11-.11,1.52-.33.41-.22.75-.52,1.02-.91l1.6,1.28c-.95,1.28-2.32,1.92-4.12,1.92-.75,0-1.43-.12-2.06-.35-.63-.23-1.17-.56-1.63-.99-.46-.43-.82-.95-1.08-1.57-.26-.62-.39-1.32-.39-2.11s.13-1.48.39-2.11c.26-.63.62-1.17,1.07-1.62.45-.45.99-.79,1.61-1.04.62-.25,1.29-.37,2.01-.37.67,0,1.28.11,1.85.33.57.22,1.06.55,1.47.98.41.43.74.97.97,1.62.23.65.35,1.4.35,2.27ZM1489.8,649.38c0-.31-.04-.6-.13-.88-.09-.28-.22-.53-.41-.74-.19-.21-.42-.38-.71-.51-.29-.13-.62-.19-1.01-.19-.72,0-1.33.22-1.83.65s-.78.99-.83,1.67h4.92Z" />
      <path
        d="M1495.41,645.54h2.3v1.6h.04c.27-.56.64-1.01,1.12-1.36.48-.35,1.04-.52,1.68-.52.09,0,.19,0,.3,0s.2.02.28.05v2.2c-.16-.04-.3-.07-.41-.08-.11-.01-.22-.02-.33-.02-.55,0-.99.1-1.32.3-.33.2-.59.44-.78.72-.19.28-.31.57-.38.86-.07.29-.1.53-.1.7v5.14h-2.4v-9.6Z" />
      <path
        d="M1514.83,645.26c.63,0,1.16.11,1.61.33s.81.51,1.1.87c.29.36.5.77.63,1.24.13.47.2.95.2,1.44v6h-2.4v-5.28c0-.28-.02-.57-.06-.87-.04-.3-.12-.57-.25-.82-.13-.25-.31-.45-.54-.61-.23-.16-.54-.24-.93-.24s-.72.07-1,.22c-.28.15-.51.34-.7.59-.19.25-.33.52-.42.83-.09.31-.14.62-.14.94v5.24h-2.4v-15.12h2.4v6.86h.04c.09-.2.23-.4.41-.59.18-.19.39-.37.63-.52s.51-.28.82-.37c.31-.09.64-.14,1-.14Z" />
      <path
        d="M1521.47,650.3c0-.76.14-1.45.41-2.07.27-.62.64-1.15,1.11-1.59.47-.44,1.02-.78,1.66-1.02.64-.24,1.32-.36,2.04-.36s1.4.12,2.04.36c.64.24,1.19.58,1.66,1.02.47.44.84.97,1.11,1.59.27.62.41,1.31.41,2.07s-.14,1.45-.41,2.08c-.27.63-.64,1.16-1.11,1.61-.47.45-1.02.8-1.66,1.05-.64.25-1.32.38-2.04.38s-1.4-.13-2.04-.38c-.64-.25-1.19-.6-1.66-1.05-.47-.45-.84-.98-1.11-1.61-.27-.63-.41-1.32-.41-2.08ZM1523.91,650.3c0,.37.06.75.17,1.12.11.37.28.71.51,1,.23.29.51.53.86.72.35.19.76.28,1.24.28s.89-.09,1.24-.28c.35-.19.63-.43.86-.72.23-.29.4-.63.51-1s.17-.75.17-1.12-.06-.74-.17-1.11c-.11-.37-.28-.7-.51-.99-.23-.29-.51-.53-.86-.71-.35-.18-.76-.27-1.24-.27s-.89.09-1.24.27c-.35.18-.63.42-.86.71-.23.29-.4.62-.51.99-.11.37-.17.74-.17,1.11Z" />
      <path
        d="M1543.85,655.14h-2.28v-1.54h-.04c-.21.48-.58.9-1.11,1.27-.53.37-1.15.55-1.87.55-.63,0-1.16-.11-1.61-.33-.45-.22-.81-.51-1.1-.87-.29-.36-.5-.77-.63-1.24-.13-.47-.2-.95-.2-1.44v-6h2.4v5.32c0,.28.02.57.06.88.04.31.13.58.26.83.13.25.32.45.55.61.23.16.54.24.93.24s.7-.08.99-.23c.29-.15.52-.35.7-.59.18-.24.32-.52.41-.83.09-.31.14-.63.14-.95v-5.28h2.4v9.6Z" />
      <path
        d="M1552.98,648.1c-.21-.28-.51-.52-.88-.73-.37-.21-.78-.31-1.22-.31-.39,0-.74.08-1.06.24-.32.16-.48.43-.48.8s.18.64.53.79c.35.15.87.31,1.55.47.36.08.72.19,1.09.32.37.13.7.31,1,.53.3.22.54.49.73.82.19.33.28.72.28,1.19,0,.59-.11,1.08-.33,1.49-.22.41-.51.74-.88.99-.37.25-.79.44-1.28.55-.49.11-.99.17-1.51.17-.75,0-1.47-.14-2.18-.41-.71-.27-1.29-.66-1.76-1.17l1.58-1.48c.27.35.61.63,1.04.86.43.23.9.34,1.42.34.17,0,.35-.02.53-.06.18-.04.35-.1.5-.19.15-.09.28-.2.37-.35.09-.15.14-.33.14-.54,0-.4-.18-.69-.55-.86-.37-.17-.92-.35-1.65-.52-.36-.08-.71-.18-1.05-.31-.34-.13-.64-.29-.91-.5-.27-.21-.48-.46-.64-.77-.16-.31-.24-.69-.24-1.14,0-.53.11-.99.33-1.38.22-.39.51-.7.87-.95.36-.25.77-.43,1.22-.55.45-.12.92-.18,1.4-.18.69,0,1.37.12,2.03.36.66.24,1.18.61,1.57,1.1l-1.56,1.38Z" />
      <path
        d="M1566.68,650.46v.32c0,.11,0,.21-.02.32h-7.3c.03.35.12.66.27.95.15.29.36.53.61.74.25.21.54.37.86.49.32.12.65.18,1,.18.6,0,1.11-.11,1.52-.33.41-.22.75-.52,1.02-.91l1.6,1.28c-.95,1.28-2.32,1.92-4.12,1.92-.75,0-1.43-.12-2.06-.35-.63-.23-1.17-.56-1.63-.99-.46-.43-.82-.95-1.08-1.57-.26-.62-.39-1.32-.39-2.11s.13-1.48.39-2.11c.26-.63.62-1.17,1.07-1.62.45-.45.99-.79,1.61-1.04.62-.25,1.29-.37,2.01-.37.67,0,1.28.11,1.85.33.57.22,1.06.55,1.47.98.41.43.74.97.97,1.62.23.65.35,1.4.35,2.27ZM1564.29,649.38c0-.31-.04-.6-.13-.88-.09-.28-.22-.53-.41-.74-.19-.21-.42-.38-.71-.51-.29-.13-.62-.19-1.01-.19-.72,0-1.33.22-1.83.65s-.78.99-.83,1.67h4.92Z" />
      <path
        d="M1575.51,642.28c0-.39.14-.72.43-1.01.29-.29.65-.43,1.09-.43s.81.14,1.11.41c.3.27.45.62.45,1.03s-.15.76-.45,1.03c-.3.27-.67.41-1.11.41s-.8-.14-1.09-.43c-.29-.29-.43-.62-.43-1.01ZM1575.85,645.54h2.4v9.6h-2.4v-9.6Z" />
      <path
        d="M1587.38,648.1c-.21-.28-.51-.52-.88-.73-.37-.21-.78-.31-1.22-.31-.39,0-.74.08-1.06.24-.32.16-.48.43-.48.8s.18.64.53.79.87.31,1.55.47c.36.08.72.19,1.09.32.37.13.7.31,1,.53.3.22.54.49.73.82.19.33.28.72.28,1.19,0,.59-.11,1.08-.33,1.49-.22.41-.51.74-.88.99-.37.25-.79.44-1.28.55-.49.11-.99.17-1.51.17-.75,0-1.47-.14-2.18-.41-.71-.27-1.29-.66-1.76-1.17l1.58-1.48c.27.35.61.63,1.04.86.43.23.9.34,1.42.34.17,0,.35-.02.53-.06.18-.04.35-.1.5-.19.15-.09.28-.2.37-.35.09-.15.14-.33.14-.54,0-.4-.18-.69-.55-.86-.37-.17-.92-.35-1.65-.52-.36-.08-.71-.18-1.05-.31-.34-.13-.64-.29-.91-.5-.27-.21-.48-.46-.64-.77-.16-.31-.24-.69-.24-1.14,0-.53.11-.99.33-1.38.22-.39.51-.7.87-.95.36-.25.77-.43,1.22-.55s.92-.18,1.4-.18c.69,0,1.37.12,2.03.36.66.24,1.18.61,1.57,1.1l-1.56,1.38Z" />
    </g>
    <g class="text text-02">
      <path
        d="M1455.55,685.92h-.06c-.24.43-.63.78-1.16,1.05-.53.27-1.14.41-1.82.41-.39,0-.79-.05-1.21-.15-.42-.1-.81-.27-1.16-.5-.35-.23-.65-.54-.88-.92-.23-.38-.35-.85-.35-1.41,0-.72.2-1.29.61-1.72.41-.43.93-.75,1.57-.98.64-.23,1.35-.38,2.13-.45.78-.07,1.54-.11,2.29-.11v-.24c0-.6-.22-1.04-.65-1.33-.43-.29-.95-.43-1.55-.43-.51,0-.99.11-1.46.32-.47.21-.85.47-1.16.78l-1.24-1.46c.55-.51,1.18-.89,1.89-1.14.71-.25,1.44-.38,2.17-.38.85,0,1.56.12,2.11.36.55.24.99.55,1.31.94.32.39.54.82.67,1.3.13.48.19.96.19,1.44v5.84h-2.24v-1.22ZM1455.51,682.76h-.54c-.39,0-.79.02-1.22.05-.43.03-.82.11-1.18.22-.36.11-.66.27-.9.48-.24.21-.36.49-.36.85,0,.23.05.42.15.57.1.15.23.28.39.37.16.09.34.16.54.2.2.04.4.06.6.06.83,0,1.45-.22,1.88-.66.43-.44.64-1.04.64-1.8v-.34Z" />
      <path
        d="M1472.65,680.1c-.21-.28-.51-.52-.88-.73-.37-.21-.78-.31-1.22-.31-.39,0-.74.08-1.06.24-.32.16-.48.43-.48.8s.18.64.53.79c.35.15.87.31,1.55.47.36.08.72.19,1.09.32.37.13.7.31,1,.53.3.22.54.49.73.82.19.33.28.72.28,1.19,0,.59-.11,1.08-.33,1.49-.22.41-.51.74-.88.99-.37.25-.79.44-1.28.55-.49.11-.99.17-1.51.17-.75,0-1.47-.14-2.18-.41-.71-.27-1.29-.66-1.76-1.17l1.58-1.48c.27.35.61.63,1.04.86.43.23.9.34,1.42.34.17,0,.35-.02.53-.06.18-.04.35-.1.5-.19.15-.09.28-.2.37-.35.09-.15.14-.33.14-.54,0-.4-.18-.69-.55-.86-.37-.17-.92-.35-1.65-.52-.36-.08-.71-.18-1.05-.31-.34-.13-.64-.29-.91-.5-.27-.21-.48-.46-.64-.77-.16-.31-.24-.69-.24-1.14,0-.53.11-.99.33-1.38.22-.39.51-.7.87-.95.36-.25.77-.43,1.22-.55.45-.12.92-.18,1.4-.18.69,0,1.37.12,2.03.36.66.24,1.18.61,1.57,1.1l-1.56,1.38Z" />
      <path
        d="M1483.27,685.92h-.06c-.24.43-.63.78-1.16,1.05-.53.27-1.14.41-1.82.41-.39,0-.79-.05-1.21-.15-.42-.1-.81-.27-1.16-.5-.35-.23-.65-.54-.88-.92-.23-.38-.35-.85-.35-1.41,0-.72.2-1.29.61-1.72.41-.43.93-.75,1.57-.98.64-.23,1.35-.38,2.13-.45.78-.07,1.54-.11,2.29-.11v-.24c0-.6-.22-1.04-.65-1.33-.43-.29-.95-.43-1.55-.43-.51,0-.99.11-1.46.32-.47.21-.85.47-1.16.78l-1.24-1.46c.55-.51,1.18-.89,1.89-1.14.71-.25,1.44-.38,2.17-.38.85,0,1.56.12,2.11.36.55.24.99.55,1.31.94.32.39.54.82.67,1.3.13.48.19.96.19,1.44v5.84h-2.24v-1.22ZM1483.23,682.76h-.54c-.39,0-.79.02-1.22.05-.43.03-.82.11-1.18.22-.36.11-.66.27-.9.48-.24.21-.36.49-.36.85,0,.23.05.42.15.57.1.15.23.28.39.37.16.09.34.16.54.2.2.04.4.06.6.06.83,0,1.45-.22,1.88-.66.43-.44.64-1.04.64-1.8v-.34Z" />
      <path
        d="M1491.49,677.54v1.34h.06c.12-.19.28-.38.47-.57.19-.19.43-.37.71-.52s.6-.28.95-.38c.35-.1.75-.15,1.19-.15.68,0,1.31.13,1.88.39.57.26,1.07.62,1.48,1.07.41.45.73.99.96,1.6.23.61.34,1.27.34,1.98s-.11,1.37-.33,1.99c-.22.62-.53,1.16-.94,1.62-.41.46-.9.83-1.48,1.1-.58.27-1.24.41-1.97.41-.68,0-1.3-.14-1.87-.42-.57-.28-1-.66-1.31-1.14h-.04v6.08h-2.4v-14.4h2.3ZM1497.09,682.3c0-.37-.06-.74-.17-1.11-.11-.37-.28-.7-.51-.99-.23-.29-.51-.53-.86-.71-.35-.18-.75-.27-1.22-.27-.44,0-.83.09-1.18.28s-.64.43-.89.72c-.25.29-.43.63-.56,1-.13.37-.19.75-.19,1.12s.06.74.19,1.11c.13.37.31.7.56.99.25.29.54.53.89.71.35.18.74.27,1.18.27.47,0,.87-.09,1.22-.28.35-.19.63-.43.86-.72.23-.29.4-.63.51-1,.11-.37.17-.75.17-1.12Z" />
      <path
        d="M1505.03,677.54v1.34h.06c.12-.19.28-.38.47-.57.19-.19.43-.37.71-.52s.6-.28.95-.38c.35-.1.75-.15,1.19-.15.68,0,1.31.13,1.88.39.57.26,1.07.62,1.48,1.07.41.45.73.99.96,1.6.23.61.34,1.27.34,1.98s-.11,1.37-.33,1.99c-.22.62-.53,1.16-.94,1.62-.41.46-.9.83-1.48,1.1-.58.27-1.24.41-1.97.41-.68,0-1.3-.14-1.87-.42-.57-.28-1-.66-1.31-1.14h-.04v6.08h-2.4v-14.4h2.3ZM1510.63,682.3c0-.37-.06-.74-.17-1.11-.11-.37-.28-.7-.51-.99-.23-.29-.51-.53-.86-.71-.35-.18-.75-.27-1.22-.27-.44,0-.83.09-1.18.28s-.64.43-.89.72c-.25.29-.43.63-.56,1-.13.37-.19.75-.19,1.12s.06.74.19,1.11c.13.37.31.7.56.99.25.29.54.53.89.71.35.18.74.27,1.18.27.47,0,.87-.09,1.22-.28.35-.19.63-.43.86-.72.23-.29.4-.63.51-1,.11-.37.17-.75.17-1.12Z" />
      <path
        d="M1515.73,682.3c0-.76.14-1.45.41-2.07.27-.62.64-1.15,1.11-1.59.47-.44,1.02-.78,1.66-1.02.64-.24,1.32-.36,2.04-.36s1.4.12,2.04.36c.64.24,1.19.58,1.66,1.02.47.44.84.97,1.11,1.59.27.62.41,1.31.41,2.07s-.14,1.45-.41,2.08c-.27.63-.64,1.16-1.11,1.61-.47.45-1.02.8-1.66,1.05-.64.25-1.32.38-2.04.38s-1.4-.13-2.04-.38c-.64-.25-1.19-.6-1.66-1.05-.47-.45-.84-.98-1.11-1.61-.27-.63-.41-1.32-.41-2.08ZM1518.17,682.3c0,.37.06.75.17,1.12.11.37.28.71.51,1,.23.29.51.53.86.72.35.19.76.28,1.24.28s.89-.09,1.24-.28c.35-.19.63-.43.86-.72.23-.29.4-.63.51-1s.17-.75.17-1.12-.06-.74-.17-1.11c-.11-.37-.28-.7-.51-.99-.23-.29-.51-.53-.86-.71-.35-.18-.76-.27-1.24-.27s-.89.09-1.24.27c-.35.18-.63.42-.86.71-.23.29-.4.62-.51.99-.11.37-.17.74-.17,1.11Z" />
      <path
        d="M1529.34,677.54h2.3v1.6h.04c.27-.56.64-1.01,1.12-1.36.48-.35,1.04-.52,1.68-.52.09,0,.19,0,.3,0s.2.02.28.05v2.2c-.16-.04-.3-.07-.41-.08-.11-.01-.22-.02-.33-.02-.55,0-.99.1-1.32.3-.33.2-.59.44-.78.72-.19.28-.31.57-.38.86-.07.29-.1.53-.1.7v5.14h-2.4v-9.6Z" />
      <path
        d="M1536.96,682.3c0-.76.14-1.45.41-2.07.27-.62.64-1.15,1.11-1.59.47-.44,1.02-.78,1.66-1.02.64-.24,1.32-.36,2.04-.36s1.4.12,2.04.36c.64.24,1.19.58,1.66,1.02.47.44.84.97,1.11,1.59.27.62.41,1.31.41,2.07s-.14,1.45-.41,2.08c-.27.63-.64,1.16-1.11,1.61-.47.45-1.02.8-1.66,1.05-.64.25-1.32.38-2.04.38s-1.4-.13-2.04-.38c-.64-.25-1.19-.6-1.66-1.05-.47-.45-.84-.98-1.11-1.61-.27-.63-.41-1.32-.41-2.08ZM1539.4,682.3c0,.37.06.75.17,1.12.11.37.28.71.51,1,.23.29.51.53.86.72.35.19.76.28,1.24.28s.89-.09,1.24-.28c.35-.19.63-.43.86-.72.23-.29.4-.63.51-1s.17-.75.17-1.12-.06-.74-.17-1.11c-.11-.37-.28-.7-.51-.99-.23-.29-.51-.53-.86-.71-.35-.18-.76-.27-1.24-.27s-.89.09-1.24.27c-.35.18-.63.42-.86.71-.23.29-.4.62-.51.99-.11.37-.17.74-.17,1.11Z" />
      <path
        d="M1556.52,677.54h2.3v1.6h.04c.27-.56.64-1.01,1.12-1.36.48-.35,1.04-.52,1.68-.52.09,0,.19,0,.3,0,.11,0,.2.02.28.05v2.2c-.16-.04-.3-.07-.41-.08-.11-.01-.22-.02-.33-.02-.55,0-.99.1-1.32.3-.33.2-.59.44-.78.72-.19.28-.31.57-.38.86-.07.29-.1.53-.1.7v5.14h-2.4v-9.6Z" />
      <path
        d="M1573.86,682.46v.32c0,.11,0,.21-.02.32h-7.3c.03.35.12.66.27.95.15.29.36.53.61.74.25.21.54.37.86.49.32.12.65.18,1,.18.6,0,1.11-.11,1.52-.33.41-.22.75-.52,1.02-.91l1.6,1.28c-.95,1.28-2.32,1.92-4.12,1.92-.75,0-1.43-.12-2.06-.35-.63-.23-1.17-.56-1.63-.99-.46-.43-.82-.95-1.08-1.57-.26-.62-.39-1.32-.39-2.11s.13-1.48.39-2.11c.26-.63.62-1.17,1.07-1.62.45-.45.99-.79,1.61-1.04.62-.25,1.29-.37,2.01-.37.67,0,1.28.11,1.85.33.57.22,1.06.55,1.47.98.41.43.74.97.97,1.62.23.65.35,1.4.35,2.27ZM1571.46,681.38c0-.31-.04-.6-.13-.88-.09-.28-.22-.53-.41-.74-.19-.21-.42-.38-.71-.51-.29-.13-.62-.19-1.01-.19-.72,0-1.33.22-1.83.65s-.78.99-.83,1.67h4.92Z" />
      <path
        d="M1582.94,685.92h-.06c-.24.43-.63.78-1.16,1.05-.53.27-1.14.41-1.82.41-.39,0-.79-.05-1.21-.15-.42-.1-.81-.27-1.16-.5-.35-.23-.65-.54-.88-.92-.23-.38-.35-.85-.35-1.41,0-.72.2-1.29.61-1.72.41-.43.93-.75,1.57-.98.64-.23,1.35-.38,2.13-.45.78-.07,1.54-.11,2.29-.11v-.24c0-.6-.22-1.04-.65-1.33-.43-.29-.95-.43-1.55-.43-.51,0-.99.11-1.46.32-.47.21-.85.47-1.16.78l-1.24-1.46c.55-.51,1.18-.89,1.89-1.14.71-.25,1.44-.38,2.17-.38.85,0,1.56.12,2.11.36.55.24.99.55,1.31.94.32.39.54.82.67,1.3.13.48.19.96.19,1.44v5.84h-2.24v-1.22ZM1582.9,682.76h-.54c-.39,0-.79.02-1.22.05-.43.03-.82.11-1.18.22-.36.11-.66.27-.9.48-.24.21-.36.49-.36.85,0,.23.05.42.15.57.1.15.23.28.39.37.16.09.34.16.54.2.2.04.4.06.6.06.83,0,1.45-.22,1.88-.66.43-.44.64-1.04.64-1.8v-.34Z" />
      <path d="M1588.89,672.02h2.4v15.12h-2.4v-15.12Z" />
      <path
        d="M1610.17,682.46v.32c0,.11,0,.21-.02.32h-7.3c.03.35.12.66.27.95s.36.53.61.74c.25.21.54.37.86.49s.65.18,1,.18c.6,0,1.11-.11,1.52-.33.41-.22.75-.52,1.02-.91l1.6,1.28c-.95,1.28-2.32,1.92-4.12,1.92-.75,0-1.43-.12-2.06-.35-.63-.23-1.17-.56-1.63-.99-.46-.43-.82-.95-1.08-1.57-.26-.62-.39-1.32-.39-2.11s.13-1.48.39-2.11c.26-.63.62-1.17,1.07-1.62.45-.45.99-.79,1.61-1.04.62-.25,1.29-.37,2.01-.37.67,0,1.28.11,1.85.33.57.22,1.06.55,1.47.98.41.43.74.97.97,1.62.23.65.35,1.4.35,2.27ZM1607.77,681.38c0-.31-.04-.6-.13-.88-.09-.28-.22-.53-.41-.74-.19-.21-.42-.38-.71-.51-.29-.13-.62-.19-1.01-.19-.72,0-1.33.22-1.83.65s-.78.99-.83,1.67h4.92Z" />
      <path
        d="M1618.68,680.1c-.21-.28-.51-.52-.88-.73-.37-.21-.78-.31-1.22-.31-.39,0-.74.08-1.06.24-.32.16-.48.43-.48.8s.18.64.53.79.87.31,1.55.47c.36.08.72.19,1.09.32.37.13.7.31,1,.53.3.22.54.49.73.82.19.33.28.72.28,1.19,0,.59-.11,1.08-.33,1.49-.22.41-.51.74-.88.99-.37.25-.79.44-1.28.55-.49.11-.99.17-1.51.17-.75,0-1.47-.14-2.18-.41-.71-.27-1.29-.66-1.76-1.17l1.58-1.48c.27.35.61.63,1.04.86s.9.34,1.42.34c.17,0,.35-.02.53-.06.18-.04.35-.1.5-.19.15-.09.28-.2.37-.35.09-.15.14-.33.14-.54,0-.4-.18-.69-.55-.86-.37-.17-.92-.35-1.65-.52-.36-.08-.71-.18-1.05-.31-.34-.13-.64-.29-.91-.5-.27-.21-.48-.46-.64-.77-.16-.31-.24-.69-.24-1.14,0-.53.11-.99.33-1.38.22-.39.51-.7.87-.95.36-.25.77-.43,1.22-.55.45-.12.92-.18,1.4-.18.69,0,1.37.12,2.03.36.66.24,1.18.61,1.57,1.1l-1.56,1.38Z" />
      <path
        d="M1622.31,679.46v-1.92h1.68v-2.78h2.36v2.78h2.4v1.92h-2.4v4.46c0,.43.08.78.23,1.06.15.28.5.42,1.03.42.16,0,.33-.02.52-.05.19-.03.35-.08.5-.15l.08,1.88c-.21.08-.47.14-.76.19-.29.05-.57.07-.84.07-.64,0-1.16-.09-1.56-.27-.4-.18-.72-.43-.95-.74-.23-.31-.39-.67-.48-1.08-.09-.41-.13-.84-.13-1.31v-4.48h-1.68Z" />
      <path
        d="M1637.57,685.92h-.06c-.24.43-.63.78-1.16,1.05-.53.27-1.14.41-1.82.41-.39,0-.79-.05-1.21-.15-.42-.1-.81-.27-1.16-.5-.35-.23-.65-.54-.88-.92-.23-.38-.35-.85-.35-1.41,0-.72.2-1.29.61-1.72.41-.43.93-.75,1.57-.98.64-.23,1.35-.38,2.13-.45.78-.07,1.54-.11,2.29-.11v-.24c0-.6-.22-1.04-.65-1.33-.43-.29-.95-.43-1.55-.43-.51,0-.99.11-1.46.32-.47.21-.85.47-1.16.78l-1.24-1.46c.55-.51,1.18-.89,1.89-1.14.71-.25,1.44-.38,2.17-.38.85,0,1.56.12,2.11.36.55.24.99.55,1.31.94.32.39.54.82.67,1.3.13.48.19.96.19,1.44v5.84h-2.24v-1.22ZM1637.53,682.76h-.54c-.39,0-.79.02-1.22.05-.43.03-.82.11-1.18.22-.36.11-.66.27-.9.48-.24.21-.36.49-.36.85,0,.23.05.42.15.57.1.15.23.28.39.37.16.09.34.16.54.2.2.04.4.06.6.06.83,0,1.45-.22,1.88-.66.43-.44.64-1.04.64-1.8v-.34Z" />
      <path
        d="M1642.13,679.46v-1.92h1.68v-2.78h2.36v2.78h2.4v1.92h-2.4v4.46c0,.43.08.78.23,1.06.15.28.5.42,1.03.42.16,0,.33-.02.52-.05s.35-.08.5-.15l.08,1.88c-.21.08-.47.14-.76.19-.29.05-.57.07-.84.07-.64,0-1.16-.09-1.56-.27-.4-.18-.72-.43-.95-.74-.23-.31-.39-.67-.48-1.08-.09-.41-.13-.84-.13-1.31v-4.48h-1.68Z" />
      <path
        d="M1660.28,682.46v.32c0,.11,0,.21-.02.32h-7.3c.03.35.12.66.27.95.15.29.36.53.61.74.25.21.54.37.86.49.32.12.65.18,1,.18.6,0,1.11-.11,1.52-.33.41-.22.75-.52,1.02-.91l1.6,1.28c-.95,1.28-2.32,1.92-4.12,1.92-.75,0-1.43-.12-2.06-.35-.63-.23-1.17-.56-1.63-.99-.46-.43-.82-.95-1.08-1.57-.26-.62-.39-1.32-.39-2.11s.13-1.48.39-2.11c.26-.63.62-1.17,1.07-1.62.45-.45.99-.79,1.61-1.04.62-.25,1.29-.37,2.01-.37.67,0,1.28.11,1.85.33.57.22,1.06.55,1.47.98.41.43.74.97.97,1.62.23.65.35,1.4.35,2.27ZM1657.88,681.38c0-.31-.04-.6-.13-.88-.09-.28-.22-.53-.41-.74-.19-.21-.42-.38-.71-.51-.29-.13-.62-.19-1.01-.19-.72,0-1.33.22-1.83.65s-.78.99-.83,1.67h4.92Z" />
      <path
        d="M1675.96,680.2c-.19-.27-.47-.49-.84-.67-.37-.18-.75-.27-1.14-.27-.44,0-.83.09-1.16.27-.33.18-.61.42-.83.71-.22.29-.38.62-.49.99-.11.37-.16.74-.16,1.11s.06.74.17,1.11c.11.37.28.7.51.99.23.29.51.53.85.71.34.18.74.27,1.19.27.37,0,.75-.07,1.12-.22.37-.15.67-.36.9-.64l1.5,1.52c-.4.43-.91.76-1.53.99-.62.23-1.29.35-2.01.35s-1.38-.11-2.01-.34c-.63-.23-1.19-.56-1.66-1-.47-.44-.85-.97-1.12-1.6-.27-.63-.41-1.34-.41-2.14s.14-1.47.41-2.1c.27-.63.64-1.16,1.11-1.6.47-.44,1.01-.78,1.63-1.02.62-.24,1.28-.36,1.99-.36s1.39.13,2.05.4c.66.27,1.18.63,1.57,1.1l-1.64,1.44Z" />
      <path
        d="M1679.38,682.3c0-.76.14-1.45.41-2.07.27-.62.64-1.15,1.11-1.59.47-.44,1.02-.78,1.66-1.02.64-.24,1.32-.36,2.04-.36s1.4.12,2.04.36c.64.24,1.19.58,1.66,1.02.47.44.84.97,1.11,1.59.27.62.41,1.31.41,2.07s-.14,1.45-.41,2.08c-.27.63-.64,1.16-1.11,1.61-.47.45-1.02.8-1.66,1.05-.64.25-1.32.38-2.04.38s-1.4-.13-2.04-.38c-.64-.25-1.19-.6-1.66-1.05-.47-.45-.84-.98-1.11-1.61-.27-.63-.41-1.32-.41-2.08ZM1681.82,682.3c0,.37.06.75.17,1.12.11.37.28.71.51,1,.23.29.51.53.86.72.35.19.76.28,1.24.28s.89-.09,1.24-.28c.35-.19.63-.43.86-.72.23-.29.4-.63.51-1,.11-.37.17-.75.17-1.12s-.06-.74-.17-1.11c-.11-.37-.28-.7-.51-.99-.23-.29-.51-.53-.86-.71-.35-.18-.76-.27-1.24-.27s-.89.09-1.24.27c-.35.18-.63.42-.86.71-.23.29-.4.62-.51.99-.11.37-.17.74-.17,1.11Z" />
      <path
        d="M1704.45,677.26c.63,0,1.16.11,1.61.33s.81.51,1.1.87c.29.36.5.77.63,1.24.13.47.2.95.2,1.44v6h-2.4v-5.32c0-.28-.02-.57-.06-.88-.04-.31-.13-.58-.26-.83-.13-.25-.32-.45-.55-.61-.23-.16-.54-.24-.93-.24s-.69.08-.96.24c-.27.16-.49.37-.66.62-.17.25-.3.54-.38.85-.08.31-.12.62-.12.93v5.24h-2.4v-5.8c0-.6-.14-1.1-.43-1.49-.29-.39-.74-.59-1.35-.59-.36,0-.67.08-.94.23-.27.15-.48.35-.65.59-.17.24-.29.52-.38.83-.09.31-.13.63-.13.95v5.28h-2.4v-9.6h2.28v1.54h.04c.11-.24.25-.47.43-.68.18-.21.39-.41.64-.58.25-.17.53-.31.85-.41.32-.1.67-.15,1.06-.15.75,0,1.37.17,1.86.5.49.33.87.77,1.14,1.32.32-.59.75-1.04,1.28-1.35.53-.31,1.16-.47,1.88-.47Z" />
      <path
        d="M1713.97,677.54v1.34h.06c.12-.19.28-.38.47-.57.19-.19.43-.37.71-.52s.6-.28.95-.38c.35-.1.75-.15,1.19-.15.68,0,1.31.13,1.88.39.57.26,1.07.62,1.48,1.07.41.45.73.99.96,1.6.23.61.34,1.27.34,1.98s-.11,1.37-.33,1.99c-.22.62-.53,1.16-.94,1.62-.41.46-.9.83-1.48,1.1-.58.27-1.24.41-1.97.41-.68,0-1.3-.14-1.87-.42-.57-.28-1-.66-1.31-1.14h-.04v6.08h-2.4v-14.4h2.3ZM1719.57,682.3c0-.37-.06-.74-.17-1.11-.11-.37-.28-.7-.51-.99-.23-.29-.51-.53-.86-.71-.35-.18-.75-.27-1.22-.27-.44,0-.83.09-1.18.28s-.64.43-.89.72-.43.63-.56,1c-.13.37-.19.75-.19,1.12s.06.74.19,1.11c.13.37.31.7.56.99.25.29.54.53.89.71.35.18.74.27,1.18.27.47,0,.87-.09,1.22-.28.35-.19.63-.43.86-.72.23-.29.4-.63.51-1,.11-.37.17-.75.17-1.12Z" />
      <path
        d="M1731.11,685.92h-.06c-.24.43-.63.78-1.16,1.05-.53.27-1.14.41-1.82.41-.39,0-.79-.05-1.21-.15-.42-.1-.81-.27-1.16-.5-.35-.23-.65-.54-.88-.92-.23-.38-.35-.85-.35-1.41,0-.72.2-1.29.61-1.72.41-.43.93-.75,1.57-.98.64-.23,1.35-.38,2.13-.45.78-.07,1.54-.11,2.29-.11v-.24c0-.6-.22-1.04-.65-1.33-.43-.29-.95-.43-1.55-.43-.51,0-.99.11-1.46.32-.47.21-.85.47-1.16.78l-1.24-1.46c.55-.51,1.18-.89,1.89-1.14.71-.25,1.44-.38,2.17-.38.85,0,1.56.12,2.11.36.55.24.99.55,1.31.94.32.39.54.82.67,1.3.13.48.19.96.19,1.44v5.84h-2.24v-1.22ZM1731.07,682.76h-.54c-.39,0-.79.02-1.22.05-.43.03-.82.11-1.18.22-.36.11-.66.27-.9.48-.24.21-.36.49-.36.85,0,.23.05.42.15.57.1.15.23.28.39.37.16.09.34.16.54.2.2.04.4.06.6.06.83,0,1.45-.22,1.88-.66.43-.44.64-1.04.64-1.8v-.34Z" />
      <path
        d="M1737.03,677.54h2.28v1.54h.04c.21-.48.58-.9,1.11-1.27.53-.37,1.15-.55,1.87-.55.63,0,1.16.11,1.61.33.45.22.81.51,1.1.87.29.36.5.77.63,1.24.13.47.2.95.2,1.44v6h-2.4v-5.32c0-.28-.02-.57-.06-.88-.04-.31-.13-.58-.26-.83-.13-.25-.32-.45-.55-.61-.23-.16-.54-.24-.93-.24s-.72.08-1,.23c-.28.15-.51.35-.69.59-.18.24-.32.52-.41.83-.09.31-.14.63-.14.95v5.28h-2.4v-9.6Z" />
      <path
        d="M1747.81,677.54h2.66l2.68,6.98h.04l2.38-6.98h2.5l-4.54,11.66c-.17.44-.36.83-.56,1.17-.2.34-.44.63-.72.86-.28.23-.61.41-.99.53-.38.12-.84.18-1.37.18-.2,0-.4,0-.61-.03-.21-.02-.42-.06-.63-.11l.2-2.08c.16.05.32.09.47.11.15.02.3.03.43.03.25,0,.47-.03.64-.09.17-.06.32-.15.44-.28.12-.13.23-.28.32-.47.09-.19.19-.41.3-.66l.48-1.22-4.12-9.6Z" />
    </g>
    <g class="text text-03">
      <path
        d="M1458.75,714.46v.32c0,.11,0,.21-.02.32h-7.3c.03.35.12.66.27.95.15.29.36.53.61.74.25.21.54.37.86.49.32.12.65.18,1,.18.6,0,1.11-.11,1.52-.33.41-.22.75-.52,1.02-.91l1.6,1.28c-.95,1.28-2.32,1.92-4.12,1.92-.75,0-1.43-.12-2.06-.35-.63-.23-1.17-.56-1.63-.99-.46-.43-.82-.95-1.08-1.57-.26-.62-.39-1.32-.39-2.11s.13-1.48.39-2.11c.26-.63.62-1.17,1.07-1.62.45-.45.99-.79,1.61-1.04.62-.25,1.29-.37,2.01-.37.67,0,1.28.11,1.85.33.57.22,1.06.55,1.47.98.41.43.74.97.97,1.62.23.65.35,1.4.35,2.27ZM1456.35,713.38c0-.31-.04-.6-.13-.88-.09-.28-.22-.53-.41-.74-.19-.21-.42-.38-.71-.51-.29-.13-.62-.19-1.01-.19-.72,0-1.33.22-1.83.65s-.78.99-.83,1.67h4.92Z" />
      <path
        d="M1467.26,712.1c-.21-.28-.51-.52-.88-.73-.37-.21-.78-.31-1.22-.31-.39,0-.74.08-1.06.24-.32.16-.48.43-.48.8s.18.64.53.79c.35.15.87.31,1.55.47.36.08.72.19,1.09.32.37.13.7.31,1,.53.3.22.54.49.73.82.19.33.28.72.28,1.19,0,.59-.11,1.08-.33,1.49-.22.41-.51.74-.88.99-.37.25-.79.44-1.28.55-.49.11-.99.17-1.51.17-.75,0-1.47-.14-2.18-.41-.71-.27-1.29-.66-1.76-1.17l1.58-1.48c.27.35.61.63,1.04.86s.9.34,1.42.34c.17,0,.35-.02.53-.06.18-.04.35-.1.5-.19.15-.09.28-.2.37-.35.09-.15.14-.33.14-.54,0-.4-.18-.69-.55-.86-.37-.17-.92-.35-1.65-.52-.36-.08-.71-.18-1.05-.31-.34-.13-.64-.29-.91-.5-.27-.21-.48-.46-.64-.77-.16-.31-.24-.69-.24-1.14,0-.53.11-.99.33-1.38.22-.39.51-.7.87-.95.36-.25.77-.43,1.22-.55.45-.12.92-.18,1.4-.18.69,0,1.37.12,2.03.36.66.24,1.18.61,1.57,1.1l-1.56,1.38Z" />
      <path
        d="M1470.89,711.46v-1.92h1.68v-2.78h2.36v2.78h2.4v1.92h-2.4v4.46c0,.43.08.78.23,1.06.15.28.5.42,1.03.42.16,0,.33-.02.52-.05s.35-.08.5-.15l.08,1.88c-.21.08-.47.14-.76.19-.29.05-.57.07-.84.07-.64,0-1.16-.09-1.56-.27-.4-.18-.72-.43-.95-.74-.23-.31-.39-.67-.48-1.08-.09-.41-.13-.84-.13-1.31v-4.48h-1.68Z" />
      <path
        d="M1486.15,717.92h-.06c-.24.43-.63.78-1.16,1.05-.53.27-1.14.41-1.82.41-.39,0-.79-.05-1.21-.15-.42-.1-.81-.27-1.16-.5-.35-.23-.65-.54-.88-.92-.23-.38-.35-.85-.35-1.41,0-.72.2-1.29.61-1.72.41-.43.93-.75,1.57-.98.64-.23,1.35-.38,2.13-.45.78-.07,1.54-.11,2.29-.11v-.24c0-.6-.22-1.04-.65-1.33-.43-.29-.95-.43-1.55-.43-.51,0-.99.11-1.46.32-.47.21-.85.47-1.16.78l-1.24-1.46c.55-.51,1.18-.89,1.89-1.14.71-.25,1.44-.38,2.17-.38.85,0,1.56.12,2.11.36.55.24.99.55,1.31.94.32.39.54.82.67,1.3.13.48.19.96.19,1.44v5.84h-2.24v-1.22ZM1486.11,714.76h-.54c-.39,0-.79.02-1.22.05-.43.03-.82.11-1.18.22-.36.11-.66.27-.9.48-.24.21-.36.49-.36.85,0,.23.05.42.15.57.1.15.23.28.39.37.16.09.34.16.54.2.2.04.4.06.6.06.83,0,1.45-.22,1.88-.66.43-.44.64-1.04.64-1.8v-.34Z" />
      <path
        d="M1494.49,704.02v6.74h.06c.12-.16.27-.33.46-.5.19-.17.41-.33.67-.48.26-.15.56-.27.91-.37.35-.1.74-.15,1.18-.15.68,0,1.31.13,1.88.39.57.26,1.07.62,1.48,1.07.41.45.73.99.96,1.6.23.61.34,1.27.34,1.98s-.11,1.37-.33,1.99c-.22.62-.53,1.16-.94,1.62-.41.46-.9.83-1.48,1.1-.58.27-1.24.41-1.97.41-.68,0-1.32-.15-1.91-.44-.59-.29-1.06-.72-1.39-1.28h-.04v1.44h-2.28v-15.12h2.4ZM1499.99,714.3c0-.37-.06-.74-.17-1.11-.11-.37-.28-.7-.51-.99-.23-.29-.51-.53-.86-.71-.35-.18-.75-.27-1.22-.27-.44,0-.83.09-1.18.28-.35.19-.64.43-.89.72-.25.29-.43.63-.56,1-.13.37-.19.75-.19,1.12s.06.74.19,1.11c.13.37.31.7.56.99.25.29.54.53.89.71.35.18.74.27,1.18.27.47,0,.87-.09,1.22-.28.35-.19.63-.43.86-.72.23-.29.4-.63.51-1s.17-.75.17-1.12Z" />
      <path d="M1505.66,704.02h2.4v15.12h-2.4v-15.12Z" />
      <path
        d="M1511.51,706.28c0-.39.14-.72.43-1.01.29-.29.65-.43,1.09-.43s.81.14,1.11.41c.3.27.45.62.45,1.03s-.15.76-.45,1.03c-.3.27-.67.41-1.11.41s-.8-.14-1.09-.43c-.29-.29-.43-.62-.43-1.01ZM1511.85,709.54h2.4v9.6h-2.4v-9.6Z" />
      <path
        d="M1523.39,712.1c-.21-.28-.51-.52-.88-.73-.37-.21-.78-.31-1.22-.31-.39,0-.74.08-1.06.24-.32.16-.48.43-.48.8s.18.64.53.79c.35.15.87.31,1.55.47.36.08.72.19,1.09.32.37.13.7.31,1,.53.3.22.54.49.73.82.19.33.28.72.28,1.19,0,.59-.11,1.08-.33,1.49-.22.41-.51.74-.88.99-.37.25-.79.44-1.28.55-.49.11-.99.17-1.51.17-.75,0-1.47-.14-2.18-.41-.71-.27-1.29-.66-1.76-1.17l1.58-1.48c.27.35.61.63,1.04.86s.9.34,1.42.34c.17,0,.35-.02.53-.06.18-.04.35-.1.5-.19.15-.09.28-.2.37-.35.09-.15.14-.33.14-.54,0-.4-.18-.69-.55-.86-.37-.17-.92-.35-1.65-.52-.36-.08-.71-.18-1.05-.31-.34-.13-.64-.29-.91-.5-.27-.21-.48-.46-.64-.77-.16-.31-.24-.69-.24-1.14,0-.53.11-.99.33-1.38.22-.39.51-.7.87-.95.36-.25.77-.43,1.22-.55.45-.12.92-.18,1.4-.18.69,0,1.37.12,2.03.36.66.24,1.18.61,1.57,1.1l-1.56,1.38Z" />
      <path
        d="M1533.35,709.26c.63,0,1.16.11,1.61.33.45.22.81.51,1.1.87.29.36.5.77.63,1.24.13.47.2.95.2,1.44v6h-2.4v-5.28c0-.28-.02-.57-.06-.87-.04-.3-.12-.57-.25-.82-.13-.25-.31-.45-.54-.61-.23-.16-.54-.24-.93-.24s-.72.07-1,.22c-.28.15-.51.34-.7.59-.19.25-.33.52-.42.83-.09.31-.14.62-.14.94v5.24h-2.4v-15.12h2.4v6.86h.04c.09-.2.23-.4.41-.59.18-.19.39-.37.63-.52s.51-.28.82-.37c.31-.09.64-.14,1-.14Z" />
      <path
        d="M1549.74,714.46v.32c0,.11,0,.21-.02.32h-7.3c.03.35.12.66.27.95.15.29.36.53.61.74.25.21.54.37.86.49.32.12.65.18,1,.18.6,0,1.11-.11,1.52-.33.41-.22.75-.52,1.02-.91l1.6,1.28c-.95,1.28-2.32,1.92-4.12,1.92-.75,0-1.43-.12-2.06-.35-.63-.23-1.17-.56-1.63-.99-.46-.43-.82-.95-1.08-1.57-.26-.62-.39-1.32-.39-2.11s.13-1.48.39-2.11c.26-.63.62-1.17,1.07-1.62.45-.45.99-.79,1.61-1.04.62-.25,1.29-.37,2.01-.37.67,0,1.28.11,1.85.33.57.22,1.06.55,1.47.98.41.43.74.97.97,1.62.23.65.35,1.4.35,2.27ZM1547.34,713.38c0-.31-.04-.6-.13-.88-.09-.28-.22-.53-.41-.74-.19-.21-.42-.38-.71-.51-.29-.13-.62-.19-1.01-.19-.72,0-1.33.22-1.83.65s-.78.99-.83,1.67h4.92Z" />
      <path
        d="M1562.72,719.14h-2.28v-1.44h-.04c-.33.56-.8.99-1.39,1.28-.59.29-1.23.44-1.91.44-.73,0-1.39-.14-1.97-.41-.58-.27-1.07-.64-1.48-1.1-.41-.46-.72-1-.94-1.62-.22-.62-.33-1.28-.33-1.99s.11-1.37.34-1.98c.23-.61.55-1.15.96-1.6.41-.45.91-.81,1.48-1.07.57-.26,1.2-.39,1.88-.39.44,0,.83.05,1.18.15.35.1.65.22.91.37.26.15.48.31.67.48.19.17.34.34.46.5h.06v-6.74h2.4v15.12ZM1554.82,714.3c0,.37.06.75.17,1.12.11.37.28.71.51,1,.23.29.51.53.86.72.35.19.75.28,1.22.28.44,0,.83-.09,1.18-.27.35-.18.64-.42.89-.71.25-.29.43-.62.56-.99.13-.37.19-.74.19-1.11s-.06-.75-.19-1.12c-.13-.37-.31-.71-.56-1-.25-.29-.54-.53-.89-.72-.35-.19-.74-.28-1.18-.28-.47,0-.87.09-1.22.27-.35.18-.63.42-.86.71-.23.29-.4.62-.51.99-.11.37-.17.74-.17,1.11Z" />
      <path
        d="M1572.14,706.28c0-.39.14-.72.43-1.01.29-.29.65-.43,1.09-.43s.81.14,1.11.41c.3.27.45.62.45,1.03s-.15.76-.45,1.03c-.3.27-.67.41-1.11.41s-.8-.14-1.09-.43c-.29-.29-.43-.62-.43-1.01ZM1572.48,709.54h2.4v9.6h-2.4v-9.6Z" />
      <path
        d="M1578.64,709.54h2.28v1.54h.04c.21-.48.58-.9,1.11-1.27.53-.37,1.15-.55,1.87-.55.63,0,1.16.11,1.61.33.45.22.81.51,1.1.87.29.36.5.77.63,1.24.13.47.2.95.2,1.44v6h-2.4v-5.32c0-.28-.02-.57-.06-.88-.04-.31-.13-.58-.26-.83-.13-.25-.32-.45-.55-.61-.23-.16-.54-.24-.93-.24s-.72.08-1,.23c-.28.15-.51.35-.69.59-.18.24-.32.52-.41.83-.09.31-.14.63-.14.95v5.28h-2.4v-9.6Z" />
      <path d="M1601.22,707.9l-2.8,2.3-1.4-1.66,4.42-3.56h2.18v14.16h-2.4v-11.24Z" />
      <path
        d="M1610.53,719.14l3.64-5.26-.02-.02c-.2.09-.44.16-.73.2-.29.04-.55.06-.79.06-.63,0-1.21-.12-1.76-.35-.55-.23-1.03-.55-1.44-.96-.41-.41-.74-.89-.97-1.44-.23-.55-.35-1.15-.35-1.79,0-.75.13-1.43.4-2.04s.63-1.14,1.09-1.57c.46-.43,1.01-.77,1.64-1s1.31-.35,2.03-.35,1.42.12,2.05.37c.63.25,1.18.59,1.65,1.03.47.44.83.96,1.09,1.55.26.59.39,1.23.39,1.91,0,.4-.03.78-.1,1.13-.07.35-.16.69-.29,1.02-.13.33-.28.66-.46.99-.18.33-.38.68-.61,1.04l-3.54,5.48h-2.92ZM1616.01,709.42c0-.37-.06-.73-.19-1.06-.13-.33-.31-.63-.55-.89-.24-.26-.53-.47-.86-.62-.33-.15-.71-.23-1.12-.23-.81,0-1.47.26-1.97.79-.5.53-.75,1.21-.75,2.05,0,.4.06.77.19,1.11.13.34.31.63.55.87.24.24.52.43.85.57.33.14.69.21,1.09.21s.77-.07,1.11-.2c.34-.13.63-.32.88-.57.25-.25.44-.54.57-.89.13-.35.2-.73.2-1.14Z" />
      <path
        d="M1625.9,704.62c.61,0,1.19.09,1.74.26.55.17,1.02.43,1.43.76.41.33.73.74.96,1.21.23.47.35,1.01.35,1.61,0,.83-.21,1.51-.62,2.06-.41.55-.93.93-1.57,1.14v.04c.37.09.72.24,1.04.45.32.21.6.46.84.76.24.3.43.64.57,1.01.14.37.21.78.21,1.22,0,.71-.13,1.33-.39,1.87-.26.54-.61,1-1.06,1.37-.45.37-.97.65-1.57.84s-1.24.28-1.92.28-1.32-.09-1.92-.28c-.6-.19-1.12-.47-1.57-.84-.45-.37-.8-.83-1.06-1.37-.26-.54-.39-1.16-.39-1.87,0-.45.07-.87.22-1.26.15-.39.34-.73.59-1.02.25-.29.53-.54.85-.73.32-.19.65-.34,1-.43v-.04c-.64-.23-1.17-.59-1.58-1.1-.41-.51-.62-1.17-.62-2,0-.6.12-1.14.35-1.63.23-.49.55-.9.96-1.24.41-.34.88-.6,1.42-.79.54-.19,1.12-.28,1.75-.28ZM1625.91,712.7c-.35,0-.67.06-.97.18-.3.12-.56.28-.78.49-.22.21-.39.46-.52.76-.13.3-.19.63-.19.99,0,.75.23,1.33.7,1.75.47.42,1.05.62,1.76.62s1.27-.21,1.74-.62c.47-.41.7-1,.7-1.75,0-.35-.06-.67-.19-.97-.13-.3-.3-.56-.52-.77-.22-.21-.48-.38-.78-.5-.3-.12-.62-.18-.95-.18ZM1625.91,706.62c-.6,0-1.09.18-1.47.54s-.57.84-.57,1.45c0,.57.18,1.06.55,1.45.37.4.86.6,1.49.6.28,0,.55-.05.8-.16.25-.11.47-.25.66-.44.19-.19.33-.4.44-.66.11-.25.16-.52.16-.8,0-.3-.06-.58-.17-.83-.11-.25-.27-.45-.46-.63-.19-.17-.41-.3-.66-.4-.25-.09-.5-.14-.77-.14Z" />
      <path
        d="M1635.79,719.14l3.64-5.26-.02-.02c-.2.09-.44.16-.73.2-.29.04-.55.06-.79.06-.63,0-1.21-.12-1.76-.35-.55-.23-1.03-.55-1.44-.96-.41-.41-.74-.89-.97-1.44-.23-.55-.35-1.15-.35-1.79,0-.75.13-1.43.4-2.04s.63-1.14,1.09-1.57c.46-.43,1.01-.77,1.64-1s1.31-.35,2.03-.35,1.42.12,2.05.37c.63.25,1.18.59,1.65,1.03.47.44.83.96,1.09,1.55.26.59.39,1.23.39,1.91,0,.4-.03.78-.1,1.13-.07.35-.16.69-.29,1.02-.13.33-.28.66-.46.99-.18.33-.38.68-.61,1.04l-3.54,5.48h-2.92ZM1641.27,709.42c0-.37-.06-.73-.19-1.06-.13-.33-.31-.63-.55-.89-.24-.26-.53-.47-.86-.62-.33-.15-.71-.23-1.12-.23-.81,0-1.47.26-1.97.79-.5.53-.75,1.21-.75,2.05,0,.4.06.77.19,1.11.13.34.31.63.55.87.24.24.52.43.85.57.33.14.69.21,1.09.21s.77-.07,1.11-.2c.34-.13.63-.32.88-.57.25-.25.44-.54.57-.89.13-.35.2-.73.2-1.14Z" />
      <path
        d="M1645.13,717.74c0-.43.16-.79.47-1.1.31-.31.69-.46,1.13-.46s.8.15,1.12.44c.32.29.48.65.48,1.08s-.16.79-.47,1.1c-.31.31-.69.46-1.13.46-.21,0-.42-.04-.61-.12-.19-.08-.36-.19-.51-.32-.15-.13-.26-.29-.35-.48-.09-.19-.13-.39-.13-.6Z" />
    </g>
  </g>
  <g class="text-tilt">
    <path d="M550.11,235.41l3.13.98-4.62,14.79,7.47,2.33-.87,2.78-10.6-3.31,5.49-17.57Z" />
    <path
      d="M562.02,245.34l2.98.93-3.72,11.91-2.98-.93,3.72-11.91ZM562.86,241.16c.15-.48.46-.84.92-1.09.47-.24.97-.28,1.52-.11.55.17.95.48,1.22.94.27.46.32.94.16,1.45-.16.51-.48.88-.96,1.1-.48.22-.99.25-1.54.08-.55-.17-.94-.49-1.19-.96-.24-.47-.29-.94-.14-1.42Z" />
    <path
      d="M569.52,250.29l-2.26-.71.74-2.38,2.26.71.55-1.76c.22-.71.51-1.37.88-1.97.36-.6.81-1.1,1.33-1.48.53-.38,1.14-.62,1.84-.72.7-.1,1.52,0,2.44.29.33.1.6.2.82.3.22.09.43.21.64.35l-.99,2.47c-.15-.1-.32-.2-.49-.29-.18-.09-.38-.17-.59-.24-.43-.13-.8-.16-1.12-.08-.32.08-.59.23-.81.46-.22.22-.41.48-.56.78-.15.3-.27.6-.36.9l-.6,1.94,2.75.86-.74,2.38-2.75-.86-2.98,9.53-2.98-.93,2.98-9.53Z" />
    <path
      d="M588.42,260.28c-.04.13-.08.26-.12.4-.04.13-.09.26-.15.39l-9.06-2.83c-.1.44-.11.87-.03,1.28.08.42.24.8.47,1.15.23.35.53.67.88.94.35.27.74.48,1.17.61.74.23,1.42.29,2.01.18.6-.11,1.14-.36,1.62-.73l1.49,2.21c-1.67,1.22-3.62,1.48-5.86.79-.93-.29-1.73-.7-2.42-1.23-.69-.53-1.23-1.15-1.64-1.86-.41-.71-.65-1.5-.73-2.37-.08-.87.03-1.79.33-2.77.3-.96.73-1.78,1.3-2.47.57-.68,1.22-1.22,1.96-1.6.74-.38,1.54-.6,2.4-.67.86-.07,1.74.04,2.64.32.83.26,1.55.63,2.17,1.13.62.49,1.1,1.09,1.44,1.79.34.7.54,1.49.58,2.39.04.89-.11,1.88-.45,2.95ZM585.86,258.01c.12-.38.18-.76.18-1.14,0-.38-.07-.74-.22-1.08-.15-.34-.38-.64-.68-.91-.31-.27-.7-.48-1.18-.63-.89-.28-1.73-.25-2.52.1-.79.34-1.35.93-1.68,1.75l6.11,1.91Z" />
    <path
      d="M599.19,259.56l.74-2.38,2.08.65,1.08-3.45,2.93.91-1.08,3.45,2.98.93-.74,2.38-2.98-.93-1.73,5.53c-.17.53-.21,1-.13,1.4.08.41.45.71,1.12.92.2.06.42.11.66.14.24.03.47.03.68,0l-.63,2.36c-.3.02-.63,0-1.02-.06-.38-.06-.74-.14-1.07-.24-.79-.25-1.4-.56-1.83-.94-.43-.38-.72-.81-.89-1.29-.17-.48-.23-.99-.18-1.53.05-.54.17-1.1.35-1.68l1.74-5.56-2.08-.65Z" />
    <path
      d="M618.03,262.44c.78.24,1.4.59,1.87,1.03.47.45.81.95,1.03,1.51.22.56.32,1.15.3,1.78-.02.63-.12,1.25-.31,1.86l-2.32,7.45-2.98-.93,2.05-6.55c.11-.35.2-.72.26-1.1.07-.39.07-.76,0-1.11-.06-.36-.21-.68-.43-.97-.23-.29-.58-.51-1.06-.66-.48-.15-.92-.19-1.33-.11-.4.07-.77.23-1.1.46-.33.23-.61.52-.84.87-.23.34-.41.72-.54,1.11l-2.03,6.5-2.98-.93,5.86-18.76,2.98.93-2.66,8.51.05.02c.19-.21.44-.4.74-.57.3-.17.63-.3.98-.4.36-.1.74-.14,1.16-.14.42,0,.85.07,1.3.21Z" />
    <path
      d="M630.99,278.28l-.07-.02c-.46.44-1.08.72-1.85.85-.77.13-1.57.07-2.42-.2-.48-.15-.96-.37-1.44-.66-.48-.29-.9-.64-1.25-1.07-.35-.43-.59-.92-.74-1.48-.14-.56-.1-1.19.11-1.89.28-.89.75-1.53,1.42-1.9.67-.37,1.45-.57,2.33-.61.88-.03,1.82.06,2.82.27,1,.21,1.96.46,2.88.75l.09-.3c.23-.74.14-1.38-.29-1.9-.43-.52-1.01-.9-1.76-1.13-.63-.2-1.27-.25-1.94-.17-.66.08-1.24.26-1.74.52l-.97-2.29c.87-.42,1.8-.64,2.79-.68.98-.04,1.93.09,2.84.37,1.06.33,1.89.75,2.48,1.26.59.51,1.01,1.07,1.26,1.67.25.6.36,1.23.33,1.87-.03.64-.14,1.26-.32,1.86l-2.26,7.25-2.78-.87.47-1.51ZM632.16,274.35l-.67-.21c-.48-.15-.99-.29-1.53-.41-.54-.12-1.06-.18-1.55-.18-.49,0-.92.08-1.3.25-.38.16-.64.47-.78.92-.09.28-.1.54-.03.77.06.23.18.43.34.61.16.18.36.33.59.46s.47.23.72.31c1.03.32,1.89.29,2.59-.09.7-.38,1.2-1.04,1.49-1.99l.13-.42Z" />
    <path
      d="M639.1,272.02l.74-2.38,2.08.65,1.08-3.45,2.93.91-1.08,3.45,2.98.93-.74,2.38-2.98-.93-1.73,5.53c-.17.53-.21,1-.13,1.4.08.41.45.71,1.12.92.2.06.42.11.66.14.24.03.47.03.68,0l-.63,2.36c-.3.02-.63,0-1.02-.06-.38-.06-.74-.14-1.07-.24-.79-.25-1.4-.56-1.83-.94-.43-.38-.72-.81-.89-1.29-.17-.48-.23-.99-.18-1.53.05-.54.17-1.1.35-1.68l1.74-5.56-2.08-.65Z" />
    <path
      d="M667.89,285.09c-.04.13-.08.26-.12.4-.04.13-.09.26-.15.39l-9.06-2.83c-.1.44-.11.87-.03,1.28.08.42.24.8.47,1.15.23.35.53.67.88.94.35.27.74.48,1.17.61.74.23,1.42.29,2.01.18.6-.11,1.14-.36,1.62-.73l1.49,2.21c-1.67,1.22-3.62,1.48-5.86.79-.93-.29-1.73-.7-2.42-1.23-.69-.53-1.23-1.15-1.64-1.86-.41-.71-.65-1.5-.73-2.37-.08-.87.03-1.79.33-2.77.3-.96.73-1.78,1.3-2.47.57-.68,1.22-1.22,1.96-1.6.74-.38,1.54-.6,2.4-.67.86-.07,1.74.04,2.64.32.83.26,1.55.63,2.17,1.13.62.49,1.1,1.09,1.44,1.79.34.7.54,1.49.58,2.39.04.89-.11,1.88-.45,2.95ZM665.33,282.82c.12-.38.18-.76.18-1.14,0-.38-.07-.74-.22-1.08-.15-.34-.38-.64-.68-.91-.31-.27-.7-.48-1.18-.63-.89-.28-1.73-.25-2.52.1-.79.34-1.35.93-1.68,1.75l6.11,1.91Z" />
    <path
      d="M673.73,280.22l2.83.88-.6,1.91.05.02c.45-.51,1.07-.89,1.87-1.15.8-.25,1.64-.24,2.53.04.78.24,1.4.59,1.87,1.03.47.45.81.95,1.03,1.51.22.56.32,1.15.3,1.78-.02.63-.12,1.25-.31,1.86l-2.32,7.45-2.98-.93,2.06-6.6c.11-.35.2-.72.27-1.12.07-.4.07-.77,0-1.13-.07-.36-.22-.68-.45-.97-.23-.29-.58-.51-1.06-.66-.48-.15-.92-.18-1.33-.1-.41.08-.77.24-1.08.46-.32.23-.59.52-.83.87-.24.35-.42.73-.54,1.12l-2.05,6.55-2.98-.93,3.72-11.91Z" />
    <path
      d="M689.22,285.05l2.85.89-.62,1.99.05.02c.55-.59,1.19-1.01,1.92-1.25.73-.24,1.49-.24,2.29,0,.12.04.24.08.37.13.13.05.24.11.33.17l-.85,2.73c-.18-.11-.34-.2-.48-.26-.14-.06-.27-.11-.4-.15-.68-.21-1.26-.26-1.75-.14-.49.12-.91.32-1.25.59-.34.28-.61.58-.8.92-.2.34-.33.62-.4.83l-1.99,6.38-2.98-.93,3.72-11.91Z" />
    <path
      d="M699.39,288.23l2.98.93-3.72,11.91-2.98-.93,3.72-11.91ZM700.24,284.05c.15-.48.46-.84.92-1.09.47-.24.97-.28,1.52-.11.55.17.95.48,1.22.94.27.46.32.94.16,1.45-.16.51-.48.88-.96,1.1-.48.22-.99.25-1.54.08-.55-.17-.94-.49-1.19-.96-.24-.47-.29-.94-.14-1.42Z" />
    <path
      d="M714.06,296.43c-.13-.4-.39-.79-.78-1.16-.39-.37-.83-.63-1.31-.78-.55-.17-1.06-.21-1.54-.11-.48.09-.92.28-1.3.56-.39.28-.72.62-.99,1.04-.27.41-.48.85-.63,1.32-.14.46-.22.94-.22,1.44,0,.5.08.97.25,1.43.17.45.43.86.78,1.21.35.36.81.62,1.37.8.46.14.95.2,1.47.16.52-.04.97-.19,1.36-.45l1.27,2.47c-.66.37-1.42.59-2.28.64-.86.05-1.74-.07-2.63-.34-.88-.27-1.66-.67-2.36-1.2-.7-.53-1.26-1.15-1.67-1.88-.42-.73-.67-1.54-.77-2.42-.1-.88.01-1.82.32-2.81.3-.96.74-1.78,1.32-2.45.58-.67,1.25-1.19,2-1.56.75-.37,1.56-.58,2.42-.63.86-.06,1.73.05,2.61.32.88.27,1.67.7,2.39,1.29.72.59,1.22,1.24,1.52,1.97l-2.59,1.15Z" />
    <path
      d="M726.9,296.44c.78.24,1.4.59,1.87,1.03.47.45.81.95,1.03,1.51.22.56.32,1.15.3,1.78-.02.63-.12,1.25-.31,1.86l-2.32,7.45-2.98-.93,2.05-6.55c.11-.35.2-.72.26-1.1.07-.39.07-.76,0-1.11-.06-.36-.21-.68-.43-.97-.23-.29-.58-.51-1.06-.66-.48-.15-.92-.19-1.33-.11-.4.07-.77.23-1.1.46-.33.23-.61.52-.84.87-.23.34-.41.72-.54,1.11l-2.03,6.5-2.98-.93,5.86-18.76,2.98.93-2.66,8.51.05.02c.19-.21.44-.4.74-.57.3-.17.63-.3.98-.4.36-.1.74-.14,1.16-.14.42,0,.85.07,1.3.21Z" />
    <path
      d="M741.31,301.32l3.3,1.03.62,9.7.05.02,5.66-7.74,3.1.97-10.15,12.71c-.39.48-.77.89-1.15,1.23-.38.34-.79.61-1.23.79-.44.18-.92.27-1.43.27-.52,0-1.11-.1-1.77-.31-.25-.08-.5-.17-.75-.27-.25-.1-.5-.23-.74-.38l1.05-2.5c.18.13.36.23.54.32.18.08.36.15.52.2.31.1.59.14.83.14.24,0,.46-.07.65-.18.2-.11.39-.26.58-.46.19-.2.4-.43.63-.7l1.07-1.33-1.39-13.51Z" />
    <path
      d="M754.03,311.77c.29-.94.73-1.75,1.31-2.41.58-.66,1.24-1.18,1.99-1.54.75-.37,1.57-.57,2.46-.62.89-.05,1.78.06,2.67.34.89.28,1.69.69,2.39,1.24.7.55,1.26,1.18,1.66,1.91.41.73.66,1.53.76,2.4.1.88,0,1.78-.29,2.73-.29.94-.73,1.75-1.31,2.42-.58.67-1.25,1.19-2,1.57-.75.37-1.57.59-2.47.66s-1.79-.04-2.68-.32c-.89-.28-1.69-.7-2.38-1.26-.7-.56-1.25-1.21-1.65-1.95-.41-.74-.66-1.54-.75-2.43-.1-.88,0-1.8.3-2.74ZM757.06,312.71c-.14.46-.22.95-.22,1.46,0,.51.08.99.25,1.44.17.45.43.86.79,1.23.36.37.83.64,1.43.83.6.19,1.14.23,1.65.13.5-.1.95-.28,1.35-.56.39-.28.73-.62,1.02-1.04.28-.42.5-.86.64-1.32.14-.46.22-.94.22-1.44,0-.5-.08-.97-.25-1.43-.17-.45-.43-.86-.79-1.21-.36-.36-.84-.63-1.43-.82-.6-.19-1.14-.23-1.64-.15-.5.09-.95.27-1.34.55-.4.28-.73.62-1.02,1.03-.28.41-.5.85-.64,1.31Z" />
    <path
      d="M779.88,326.43l-2.83-.88.6-1.91-.05-.02c-.45.51-1.07.89-1.87,1.15-.8.25-1.64.24-2.53-.04-.78-.24-1.4-.59-1.87-1.03-.47-.45-.81-.95-1.03-1.51-.22-.56-.32-1.15-.3-1.78.02-.63.12-1.25.31-1.86l2.32-7.45,2.98.93-2.06,6.6c-.11.35-.2.72-.27,1.12-.07.4-.07.77,0,1.13.07.36.22.68.45.97.23.29.58.51,1.06.66.46.14.9.18,1.32.1.41-.08.78-.23,1.1-.46.32-.23.59-.52.83-.87.24-.35.42-.73.54-1.12l2.05-6.55,2.98.93-3.72,11.91Z" />
    <path
      d="M788.2,315.95l2.85.89-.62,1.99.05.02c.55-.59,1.19-1.01,1.92-1.25.73-.24,1.49-.24,2.29,0,.12.04.24.08.37.13.13.05.24.11.33.17l-.85,2.73c-.18-.11-.34-.2-.48-.26-.14-.06-.27-.11-.4-.15-.68-.21-1.26-.26-1.75-.14-.49.12-.91.32-1.25.59-.34.27-.61.58-.8.92-.2.34-.33.62-.4.83l-1.99,6.38-2.98-.93,3.72-11.91Z" />
    <path
      d="M812.4,323.13c.78.24,1.4.59,1.87,1.03.47.45.81.95,1.03,1.51.22.56.32,1.15.3,1.78-.02.63-.12,1.25-.31,1.86l-2.32,7.45-2.98-.93,2.05-6.55c.11-.35.2-.72.26-1.1.07-.39.07-.76,0-1.11-.06-.36-.21-.68-.43-.97-.23-.29-.58-.51-1.06-.66-.48-.15-.92-.19-1.33-.11-.4.07-.77.23-1.1.46-.33.23-.61.52-.84.87-.23.34-.41.72-.54,1.11l-2.03,6.5-2.98-.93,5.86-18.76,2.98.93-2.66,8.51.05.02c.19-.21.44-.4.74-.57.3-.17.63-.3.98-.4.36-.1.74-.14,1.16-.14.42,0,.85.07,1.3.21Z" />
    <path
      d="M830.69,335.92c-.04.13-.08.26-.12.4-.04.13-.09.26-.15.39l-9.06-2.83c-.1.44-.11.87-.03,1.28.08.42.24.8.47,1.15.23.35.53.67.88.94.35.27.74.48,1.17.61.74.23,1.42.29,2.01.18.6-.11,1.14-.36,1.62-.73l1.49,2.21c-1.67,1.22-3.62,1.48-5.86.79-.93-.29-1.73-.7-2.42-1.23-.69-.53-1.23-1.15-1.64-1.86-.41-.71-.65-1.5-.73-2.37-.08-.87.03-1.79.33-2.77.3-.96.73-1.78,1.3-2.47.57-.68,1.22-1.22,1.96-1.6.74-.38,1.54-.6,2.4-.67.86-.07,1.74.04,2.64.32.83.26,1.55.63,2.17,1.13.62.49,1.1,1.09,1.44,1.79.34.7.54,1.49.58,2.39.04.89-.11,1.88-.45,2.95ZM828.13,333.65c.12-.38.18-.76.18-1.14,0-.38-.07-.74-.22-1.08-.15-.34-.38-.64-.68-.91-.31-.27-.7-.48-1.18-.63-.89-.28-1.73-.25-2.52.1-.79.34-1.35.93-1.68,1.75l6.11,1.91Z" />
    <path
      d="M840.57,343.72l-.07-.02c-.46.44-1.08.72-1.85.85-.77.13-1.57.07-2.42-.2-.48-.15-.96-.37-1.44-.66-.48-.29-.9-.64-1.25-1.07-.35-.43-.59-.92-.74-1.48-.14-.56-.1-1.19.11-1.89.28-.89.75-1.53,1.42-1.9.67-.37,1.45-.57,2.33-.61.88-.03,1.82.06,2.82.27,1,.21,1.96.46,2.88.75l.09-.3c.23-.74.13-1.38-.29-1.9-.43-.52-1.01-.9-1.76-1.13-.63-.2-1.27-.25-1.94-.17-.66.08-1.24.26-1.74.52l-.97-2.29c.87-.42,1.8-.64,2.79-.68.98-.04,1.93.09,2.84.37,1.06.33,1.89.75,2.48,1.26.59.51,1.01,1.07,1.26,1.67.25.6.36,1.23.33,1.87-.03.64-.14,1.26-.32,1.86l-2.26,7.25-2.78-.87.47-1.51ZM841.75,339.78l-.67-.21c-.48-.15-.99-.29-1.53-.41-.54-.12-1.06-.19-1.55-.18-.49,0-.92.08-1.3.25-.38.16-.64.47-.78.92-.09.28-.1.54-.03.77.06.23.18.43.34.61.16.18.36.33.59.46.23.13.47.23.72.31,1.03.32,1.89.29,2.59-.09.7-.38,1.2-1.04,1.49-1.99l.13-.42Z" />
    <path
      d="M851.12,335.6l2.85.89-.62,1.99.05.02c.55-.59,1.19-1.01,1.92-1.25.73-.24,1.49-.24,2.29,0,.12.04.24.08.37.13.13.05.24.11.33.17l-.85,2.73c-.18-.11-.34-.2-.48-.26-.14-.06-.27-.11-.4-.15-.68-.21-1.26-.26-1.75-.14-.49.12-.91.32-1.25.59-.34.28-.61.58-.8.92-.2.34-.33.61-.4.83l-1.99,6.38-2.98-.93,3.72-11.91Z" />
    <path
      d="M859.69,340.89l.74-2.38,2.08.65,1.08-3.45,2.93.91-1.08,3.45,2.98.93-.74,2.38-2.98-.93-1.73,5.53c-.17.53-.21,1-.13,1.4.08.41.45.71,1.12.92.2.06.42.11.66.14.24.03.47.03.68,0l-.63,2.36c-.3.02-.63,0-1.02-.06-.38-.06-.74-.14-1.07-.24-.79-.25-1.4-.56-1.83-.94-.43-.38-.72-.81-.89-1.29-.17-.48-.23-.99-.18-1.53.05-.54.17-1.1.35-1.68l1.74-5.56-2.08-.65Z" />
    <path
      d="M868.33,352.14c.17-.53.5-.92,1.01-1.18.51-.26,1.03-.3,1.58-.13.53.17.94.49,1.22.98.28.49.34,1,.18,1.53-.17.53-.5.92-1.01,1.18-.51.26-1.03.3-1.58.13-.26-.08-.5-.21-.71-.39-.21-.17-.38-.37-.51-.59-.13-.22-.21-.47-.25-.73-.04-.27-.01-.53.07-.79Z" />
  </g>
  <polyline class="border-line border-line_square"
    points="613.93 0 613.93 147.49 930.18 147.49 930.18 0" />
  <polyline class="border-line border-line_tilt" points="333.21 1060 333.21 918.82 0 959.11" />
  <g class="border-box border-box_big">
    <line x1="877.93" y1="388.12" x2="419.99" y2="245.95" />
    <line x1="877.53" y1="830.46" x2="877.53" y2="386.72" />
    <line x1="194.8" y1="829.69" x2="879.03" y2="829.69" />
    <line x1="196.6" y1="388.87" x2="196.6" y2="829.69" />
    <line x1="420.79" y1="245.55" x2="196.6" y2="390.47" />
  </g>
  <g class="border-box border-box_medium">
    <line x1="1692.95" y1="313.94" x2="1368.01" y2="227.05" />
    <line x1="1692.95" y1="551.53" x2="1692.95" y2="312.34" />
    <line x1="1043.08" y1="549.43" x2="1692.95" y2="549.43" />
    <line x1="1043.08" y1="311.84" x2="1043.08" y2="551.43" />
    <line x1="1369.61" y1="227.05" x2="1043.08" y2="313.94" />
  </g>
  <g class="border-box border-box_small">
    <line x1="1382.74" y1="744.09" x2="1236.54" y2="681.38" />
    <line x1="1381.84" y1="999.72" x2="1381.84" y2="743.09" />
    <line x1="1093.56" y1="999.58" x2="1383.64" y2="999.58" />
    <line x1="1095.54" y1="741.57" x2="1095.54" y2="999.58" />
    <line x1="1237.74" y1="681.38" x2="1094.44" y2="743.19" />
  </g>
</svg>