<?xml version="1.0" encoding="utf-8"?>
<svg xmlns="http://www.w3.org/2000/svg" version="1.1" viewBox="0 0 375.25 720.75">
  <defs>
    <style>
      /* TOPアニメーション 赤線 ------- */
      /* 線 */
      .border-box,.border-line{fill:none;stroke:#c91933;stroke-miterlimit:10;stroke-width:2px;}
      /* 多角形 ------ */
      .border-box line{animation:border_box 1s forwards;animation-delay:0s;}
      .border-box_big
      line:nth-of-type(1){transform:translate(34px,10px);stroke-dasharray:170;stroke-dashoffset:170;}
      .border-box_big
      line:nth-of-type(2){transform:translate(0,35px);stroke-dasharray:160;stroke-dashoffset:160;}
      .border-box_big
      line:nth-of-type(3){transform:translate(-48px,0);stroke-dasharray:240;stroke-dashoffset:240;}
      .border-box_big
      line:nth-of-type(4){transform:translate(0,-47px);stroke-dasharray:160;stroke-dashoffset:160;}
      .border-box_big
      line:nth-of-type(5){transform:translate(25px,-17px);stroke-dasharray:100;stroke-dashoffset:100;}
      .border-box_medium
      line:nth-of-type(1){transform:translate(42px,11px);stroke-dasharray:130;stroke-dashoffset:130;}
      .border-box_medium
      line:nth-of-type(2){transform:translate(0,27px);stroke-dasharray:90;stroke-dashoffset:90;}
      .border-box_medium
      line:nth-of-type(3){transform:translate(-46px,0);stroke-dasharray:230;stroke-dashoffset:230;}
      .border-box_medium
      line:nth-of-type(4){transform:translate(0,-34px);stroke-dasharray:90;stroke-dashoffset:90;}
      .border-box_medium
      line:nth-of-type(5){transform:translate(40px,-12px);stroke-dasharray:120;stroke-dashoffset:120;}
      .border-box_small
      line:nth-of-type(1){transform:translate(65px,21px);stroke-dasharray:130;stroke-dashoffset:130;}
      .border-box_small
      line:nth-of-type(2){transform:translate(0,25px);stroke-dasharray:110;stroke-dashoffset:110;}
      .border-box_small
      line:nth-of-type(3){transform:translate(-40px,0);stroke-dasharray:170;stroke-dashoffset:170;}
      .border-box_small
      line:nth-of-type(4){transform:translate(44px,-21px);stroke-dasharray:50;stroke-dashoffset:50;}
      @keyframes border_box{
      100%{stroke-dashoffset:0;}
      100%{stroke-dashoffset:0;transform:translate(0,0);}
      }
      /* ライン ------ */
      .border-line{animation:border_line 1s forwards;animation-delay:0s;}
      .border-line_square{stroke-dasharray:200;stroke-dashoffset:200;}
      .border-line_tilt{stroke-dasharray:190;stroke-dashoffset:190;}
      @keyframes border_line{
      100%{stroke-dashoffset:0;stroke-dasharray:200;}
      }
      /* 文字 ------- */
      .text,.text-tilt{opacity:0;animation:text 1s forwards;animation-delay:1s;}
      .text-tilt{fill:#231815;transform:translate(-5px,10px);}
      .text-small{fill:#1c1c1c;}
      .text-small .text{transform:translate(0,10px);}
      .text-02{animation-delay:1.1s;}
      .text-03{animation-delay:1.4s;}
      @keyframes text{
      100%{opacity:1;transform:translate(0,0);}
      }
    </style>
  </defs>
  <polyline class="border-line border-line_square"
    points="375.5 315 306.69 315 306.69 261 375.5 246" />
  <polyline class="border-line border-line_tilt" points="0 164.2 57 164.2 57 98.5 0 85.5" />
  <g class="border-box border-box_big">
    <line x1="324.79" y1="371.85" x2="167.98" y2="323" />
    <line x1="324.05" y1="524.01" x2="324.05" y2="371.35" />
    <line x1="90.78" y1="523.11" x2="324.05" y2="523.11" />
    <line x1="90.78" y1="371.95" x2="90.78" y2="524.11" />
    <line x1="168.58" y1="323" x2="90.78" y2="372.65" />
  </g>
  <g class="border-box border-box_medium">
    <line x1="345.25" y1="129.61" x2="229.29" y2="97.33" />
    <line x1="344.55" y1="214.59" x2="344.55" y2="129.21" />
    <line x1="115.04" y1="213.69" x2="345.55" y2="213.69" />
    <line x1="116.04" y1="129.01" x2="116.04" y2="213.69" />
    <line x1="230.29" y1="97.33" x2="115.54" y2="129.99" />
  </g>
  <g class="border-box border-box_small">
    <line x1="162.04" y1="587.94" x2="42.53" y2="549.36" />
    <line x1="161.54" y1="692.95" x2="161.54" y2="587.24" />
    <line x1="0" y1="691.95" x2="161.54" y2="691.95" />
    <line x1="43.53" y1="549.06" x2="0" y2="569.75" />
  </g>
  <!-- Bottom right house shape as polyline -->
  <polyline class="border-line border-line_square" points="258,618 336,588.8 375.6,606.3" />
  <polyline class="border-line border-line_square" points="258,618 258,660 375.6,660.8" />
  <g class="text-small">
    <g class="text text-01">
      <path
        d="M72.93,261.95c0-.51.09-.97.26-1.38s.41-.76.71-1.05.66-.51,1.08-.67c.42-.16.87-.23,1.36-.23s.96.08,1.38.23c.42.16.78.38,1.09.67.31.29.54.64.72,1.05s.26.87.26,1.38-.09.95-.26,1.36-.41.76-.72,1.06c-.31.3-.67.53-1.09.69s-.88.25-1.38.25-.95-.08-1.36-.25-.78-.4-1.08-.69c-.3-.3-.54-.65-.71-1.06s-.26-.87-.26-1.36ZM74.16,261.95c0,.34.05.66.16.94.11.28.25.53.45.74s.43.37.69.49c.27.12.56.18.89.18s.62-.06.89-.18c.27-.12.5-.28.7-.49s.34-.46.45-.74c.1-.29.16-.6.16-.94s-.05-.64-.16-.92c-.11-.28-.25-.53-.45-.74-.19-.21-.42-.38-.69-.5-.27-.12-.57-.18-.9-.18s-.63.06-.9.18c-.27.12-.5.29-.69.5-.19.21-.34.46-.45.74-.1.28-.16.59-.16.92Z" />
      <path
        d="M81.21,260.83h1.04v.72h.02c.12-.25.29-.46.5-.61s.47-.23.76-.23c.04,0,.09,0,.14,0,.05,0,.09.01.13.02v.99c-.07-.02-.13-.03-.18-.04-.05,0-.1,0-.15,0-.25,0-.44.04-.59.13-.15.09-.27.2-.35.32s-.14.25-.17.39c-.03.13-.04.24-.04.31v2.31h-1.08v-4.32Z" />
      <path
        d="M89.26,265.15h-1.03v-.65h-.02c-.15.25-.36.44-.63.58s-.55.2-.86.2c-.33,0-.62-.06-.89-.18-.26-.12-.48-.29-.67-.49-.18-.21-.32-.45-.42-.73-.1-.28-.15-.58-.15-.9s.05-.61.15-.89c.1-.28.25-.52.43-.72.19-.2.41-.36.67-.48s.54-.18.85-.18c.2,0,.38.02.53.07s.29.1.41.17c.12.07.22.14.3.22.08.08.15.15.21.23h.03v-3.03h1.08v6.8ZM85.71,262.98c0,.17.03.34.08.5.05.17.13.32.23.45.1.13.23.24.39.32s.34.13.55.13c.2,0,.38-.04.53-.12s.29-.19.4-.32c.11-.13.2-.28.25-.45s.09-.33.09-.5-.03-.34-.09-.5c-.06-.17-.14-.32-.25-.45s-.24-.24-.4-.32-.33-.13-.53-.13c-.21,0-.39.04-.55.12-.16.08-.29.19-.39.32-.1.13-.18.28-.23.45-.05.17-.08.33-.08.5Z" />
      <path
        d="M95.04,263.05v.14s0,.1,0,.14h-3.29c.01.16.05.3.12.43.07.13.16.24.27.33.11.09.24.17.39.22.14.05.29.08.45.08.27,0,.5-.05.68-.15.19-.1.34-.24.46-.41l.72.58c-.43.58-1.04.86-1.85.86-.34,0-.64-.05-.93-.16-.28-.1-.53-.25-.73-.45-.21-.19-.37-.43-.49-.71-.12-.28-.17-.6-.17-.95s.06-.66.17-.95c.12-.29.28-.53.48-.73.2-.2.45-.36.72-.47.28-.11.58-.17.91-.17.3,0,.58.05.83.15.25.1.48.25.66.44.19.19.33.44.44.73.11.29.16.63.16,1.02ZM93.96,262.56c0-.14-.02-.27-.06-.4s-.1-.24-.18-.33c-.08-.1-.19-.17-.32-.23-.13-.06-.28-.09-.46-.09-.32,0-.6.1-.82.29-.22.19-.35.45-.37.75h2.21Z" />
      <path
        d="M96.45,260.83h1.04v.72h.02c.12-.25.29-.46.5-.61.22-.16.47-.23.76-.23.04,0,.09,0,.13,0s.09.01.13.02v.99c-.07-.02-.13-.03-.18-.04-.05,0-.1,0-.15,0-.25,0-.44.04-.59.13-.15.09-.27.2-.35.32s-.14.25-.17.39-.04.24-.04.31v2.31h-1.08v-4.32Z" />
      <path
        d="M107.58,260.71c.28,0,.52.05.72.15.2.1.37.23.5.39s.22.35.28.56c.06.21.09.43.09.65v2.7h-1.08v-2.39c0-.13,0-.26-.03-.4-.02-.14-.06-.26-.12-.37-.06-.11-.14-.2-.25-.27-.11-.07-.24-.11-.42-.11s-.31.04-.43.11-.22.17-.3.28c-.08.11-.13.24-.17.38-.04.14-.05.28-.05.42v2.36h-1.08v-2.61c0-.27-.06-.49-.19-.67-.13-.18-.33-.27-.61-.27-.16,0-.3.03-.42.1s-.22.16-.29.27c-.08.11-.13.23-.17.37-.04.14-.06.28-.06.43v2.38h-1.08v-4.32h1.03v.69h.02c.05-.11.11-.21.19-.31.08-.1.18-.18.29-.26s.24-.14.38-.18c.14-.04.3-.07.48-.07.34,0,.62.08.84.22.22.15.39.35.51.59.14-.26.34-.47.58-.61.24-.14.52-.21.85-.21Z" />
      <path
        d="M113.47,264.6h-.03c-.11.19-.28.35-.52.47-.24.12-.51.18-.82.18-.17,0-.36-.02-.54-.07-.19-.04-.36-.12-.52-.23-.16-.1-.29-.24-.4-.41-.1-.17-.16-.38-.16-.63,0-.32.09-.58.27-.77.18-.19.42-.34.71-.44.29-.1.61-.17.96-.2s.69-.05,1.03-.05v-.11c0-.27-.1-.47-.29-.6-.2-.13-.43-.19-.7-.19-.23,0-.45.05-.66.14s-.38.21-.52.35l-.56-.66c.25-.23.53-.4.85-.51.32-.11.65-.17.98-.17.38,0,.7.05.95.16.25.11.45.25.59.42.14.17.24.37.3.58.06.22.09.43.09.65v2.63h-1.01v-.55ZM113.45,263.18h-.24c-.17,0-.36,0-.55.02-.19.02-.37.05-.53.1-.16.05-.3.12-.4.22-.11.09-.16.22-.16.38,0,.1.02.19.07.26.04.07.1.12.18.17.07.04.15.07.24.09.09.02.18.03.27.03.37,0,.65-.1.85-.3.19-.2.29-.47.29-.81v-.15Z" />
      <path
        d="M120.49,265.15h-1.03v-.65h-.02c-.15.25-.36.44-.63.58s-.55.2-.86.2c-.33,0-.62-.06-.89-.18-.26-.12-.48-.29-.67-.49-.18-.21-.32-.45-.42-.73-.1-.28-.15-.58-.15-.9s.05-.61.15-.89c.1-.28.25-.52.43-.72.19-.2.41-.36.67-.48s.54-.18.85-.18c.2,0,.38.02.53.07s.29.1.41.17c.12.07.22.14.3.22.08.08.15.15.21.23h.03v-3.03h1.08v6.8ZM116.94,262.98c0,.17.03.34.08.5.05.17.13.32.23.45.1.13.23.24.39.32s.34.13.55.13c.2,0,.38-.04.53-.12s.29-.19.4-.32c.11-.13.2-.28.25-.45s.09-.33.09-.5-.03-.34-.09-.5c-.06-.17-.14-.32-.25-.45s-.24-.24-.4-.32-.33-.13-.53-.13c-.21,0-.39.04-.55.12-.16.08-.29.19-.39.32-.1.13-.18.28-.23.45-.05.17-.08.33-.08.5Z" />
      <path
        d="M126.28,263.05v.14s0,.1,0,.14h-3.29c.01.16.05.3.12.43.07.13.16.24.27.33.11.09.24.17.39.22.14.05.29.08.45.08.27,0,.5-.05.68-.15.19-.1.34-.24.46-.41l.72.58c-.43.58-1.04.86-1.85.86-.34,0-.64-.05-.93-.16-.28-.1-.53-.25-.73-.45-.21-.19-.37-.43-.49-.71-.12-.28-.17-.6-.17-.95s.06-.66.17-.95c.12-.29.28-.53.48-.73.2-.2.45-.36.72-.47.28-.11.58-.17.91-.17.3,0,.58.05.83.15.25.1.48.25.66.44.19.19.33.44.44.73.11.29.16.63.16,1.02ZM125.2,262.56c0-.14-.02-.27-.06-.4s-.1-.24-.18-.33c-.08-.1-.19-.17-.32-.23-.13-.06-.28-.09-.46-.09-.32,0-.6.1-.82.29-.22.19-.35.45-.37.75h2.21Z" />
      <path
        d="M132.42,260.71c.28,0,.52.05.72.15.2.1.37.23.5.39s.22.35.28.56.09.43.09.65v2.7h-1.08v-2.38c0-.13,0-.26-.03-.39-.02-.14-.06-.26-.11-.37-.06-.11-.14-.2-.24-.27-.11-.07-.25-.11-.42-.11s-.32.03-.45.1-.23.15-.31.27c-.08.11-.15.24-.19.37-.04.14-.06.28-.06.42v2.36h-1.08v-6.8h1.08v3.09h.02c.04-.09.1-.18.18-.27s.18-.17.28-.23c.11-.07.23-.12.37-.17.14-.04.29-.06.45-.06Z" />
      <path
        d="M135.37,262.98c0-.34.06-.65.18-.93.12-.28.29-.52.5-.71.21-.2.46-.35.75-.46.29-.11.59-.16.92-.16s.63.05.92.16c.29.11.54.26.75.46.21.2.38.44.5.71.12.28.18.59.18.93s-.06.65-.18.94c-.12.28-.29.52-.5.72-.21.2-.46.36-.75.47s-.59.17-.92.17-.63-.06-.92-.17-.54-.27-.75-.47c-.21-.2-.38-.44-.5-.72-.12-.28-.18-.59-.18-.94ZM136.47,262.98c0,.17.03.34.08.5.05.17.13.32.23.45.1.13.23.24.39.32s.34.13.56.13.4-.04.56-.13.29-.19.39-.32c.1-.13.18-.28.23-.45.05-.17.08-.34.08-.5s-.03-.33-.08-.5-.13-.31-.23-.45c-.1-.13-.23-.24-.39-.32-.16-.08-.34-.12-.56-.12s-.4.04-.56.12c-.16.08-.29.19-.39.32-.1.13-.18.28-.23.45s-.08.33-.08.5Z" />
      <path
        d="M145.4,265.15h-1.03v-.69h-.02c-.1.22-.26.41-.5.57s-.52.25-.84.25c-.28,0-.52-.05-.72-.15s-.37-.23-.5-.39c-.13-.16-.22-.35-.28-.56s-.09-.43-.09-.65v-2.7h1.08v2.39c0,.13,0,.26.03.4.02.14.06.26.12.37.06.11.14.2.25.27.1.07.24.11.42.11s.32-.03.45-.1c.13-.07.23-.16.32-.27.08-.11.14-.23.18-.37s.06-.28.06-.43v-2.38h1.08v4.32Z" />
      <path
        d="M149.47,261.99c-.1-.13-.23-.24-.4-.33-.17-.09-.35-.14-.55-.14-.17,0-.33.04-.48.11-.14.07-.22.19-.22.36s.08.29.24.36.39.14.7.21c.16.04.33.08.49.14.16.06.31.14.45.24.14.1.25.22.33.37s.13.33.13.54c0,.26-.05.49-.15.67-.1.18-.23.33-.4.45-.17.11-.36.2-.58.25-.22.05-.45.08-.68.08-.34,0-.66-.06-.98-.18-.32-.12-.58-.3-.79-.53l.71-.67c.12.16.28.28.47.39.19.1.41.15.64.15.08,0,.16,0,.24-.03.08-.02.16-.05.22-.09.07-.04.12-.09.17-.16.04-.07.06-.15.06-.24,0-.18-.08-.31-.25-.39s-.41-.16-.74-.23c-.16-.04-.32-.08-.47-.14-.15-.06-.29-.13-.41-.22s-.22-.21-.29-.35c-.07-.14-.11-.31-.11-.51,0-.24.05-.45.15-.62s.23-.32.39-.43c.16-.11.34-.19.55-.25.2-.05.41-.08.63-.08.31,0,.62.05.91.16.3.11.53.27.71.49l-.7.62Z" />
      <path
        d="M155.6,263.05v.14s0,.1,0,.14h-3.29c.01.16.05.3.12.43.07.13.16.24.27.33.11.09.24.17.39.22s.29.08.45.08c.27,0,.5-.05.68-.15.19-.1.34-.24.46-.41l.72.58c-.43.58-1.04.86-1.85.86-.34,0-.65-.05-.93-.16-.28-.1-.53-.25-.73-.45-.21-.19-.37-.43-.49-.71s-.18-.6-.18-.95.06-.66.18-.95.28-.53.48-.73c.2-.2.45-.36.72-.47.28-.11.58-.17.9-.17.3,0,.58.05.83.15.25.1.47.25.66.44.19.19.33.44.44.73.1.29.16.63.16,1.02ZM154.52,262.56c0-.14-.02-.27-.06-.4s-.1-.24-.18-.33c-.08-.1-.19-.17-.32-.23-.13-.06-.28-.09-.45-.09-.32,0-.6.1-.82.29-.23.19-.35.45-.37.75h2.21Z" />
      <path
        d="M158.73,260.83h1.17l.9,3.1h.02l.93-3.1h1.15l.94,3.1h.02l.92-3.1h1.12l-1.49,4.32h-1.1l-.98-3.02h-.02l-.97,3.02h-1.1l-1.5-4.32Z" />
      <path
        d="M166.82,259.37c0-.17.06-.33.19-.45.13-.13.29-.19.49-.19s.37.06.5.18.2.28.2.46-.07.34-.2.46c-.13.12-.3.18-.5.18s-.36-.06-.49-.19-.19-.28-.19-.45ZM166.97,260.83h1.08v4.32h-1.08v-4.32Z" />
      <path
        d="M169.13,261.7v-.86h.76v-1.25h1.06v1.25h1.08v.86h-1.08v2.01c0,.19.03.35.1.48s.22.19.46.19c.07,0,.15,0,.23-.02.08-.02.16-.04.23-.07l.04.85c-.1.04-.21.06-.34.09s-.26.03-.38.03c-.29,0-.52-.04-.7-.12-.18-.08-.32-.19-.43-.33-.11-.14-.18-.3-.22-.49s-.06-.38-.06-.59v-2.02h-.76Z" />
      <path
        d="M175.63,260.71c.28,0,.52.05.72.15.2.1.37.23.5.39s.22.35.28.56c.06.21.09.43.09.65v2.7h-1.08v-2.38c0-.13,0-.26-.03-.39-.02-.14-.06-.26-.11-.37-.06-.11-.14-.2-.24-.27-.1-.07-.24-.11-.42-.11s-.32.03-.45.1-.23.15-.32.27c-.08.11-.15.24-.19.37-.04.14-.06.28-.06.42v2.36h-1.08v-6.8h1.08v3.09h.02c.04-.09.1-.18.18-.27.08-.09.17-.17.28-.23.11-.07.23-.12.37-.17.14-.04.29-.06.45-.06Z" />
    </g>
    <g class="text text-02">
      <path
        d="M75.86,278.6h-.03c-.11.19-.28.35-.52.47-.24.12-.51.18-.82.18-.17,0-.36-.02-.54-.07-.19-.04-.36-.12-.52-.23-.16-.1-.29-.24-.4-.41-.1-.17-.16-.38-.16-.63,0-.32.09-.58.27-.77.18-.19.42-.34.71-.44.29-.1.61-.17.96-.2s.69-.05,1.03-.05v-.11c0-.27-.1-.47-.29-.6-.2-.13-.43-.19-.7-.19-.23,0-.45.05-.66.14s-.38.21-.52.35l-.56-.66c.25-.23.53-.4.85-.51.32-.11.65-.17.98-.17.38,0,.7.05.95.16.25.11.45.25.59.42.14.17.24.37.3.58.06.22.09.43.09.65v2.63h-1.01v-.55ZM75.85,277.18h-.24c-.17,0-.36,0-.55.02-.19.02-.37.05-.53.1-.16.05-.3.12-.4.22-.11.09-.16.22-.16.38,0,.1.02.19.07.26.04.07.1.12.18.17.07.04.15.07.24.09.09.02.18.03.27.03.37,0,.65-.1.85-.3.19-.2.29-.47.29-.81v-.15Z" />
      <path
        d="M83.64,274.71c.28,0,.52.05.72.15.2.1.37.23.5.39s.22.35.28.56c.06.21.09.43.09.65v2.7h-1.08v-2.39c0-.13,0-.26-.03-.4-.02-.14-.06-.26-.12-.37-.06-.11-.14-.2-.25-.27-.11-.07-.24-.11-.42-.11s-.31.04-.43.11-.22.17-.3.28c-.08.11-.13.24-.17.38-.04.14-.05.28-.05.42v2.36h-1.08v-2.61c0-.27-.06-.49-.19-.67-.13-.18-.33-.27-.61-.27-.16,0-.3.03-.42.1s-.22.16-.29.27c-.08.11-.13.23-.17.37-.04.14-.06.28-.06.43v2.38h-1.08v-4.32h1.03v.69h.02c.05-.11.11-.21.19-.31.08-.1.18-.18.29-.26s.24-.14.38-.18c.14-.04.3-.07.48-.07.34,0,.62.08.84.22.22.15.39.35.51.59.14-.26.34-.47.58-.61.24-.14.52-.21.85-.21Z" />
      <path
        d="M87.89,274.83v.6h.03c.05-.08.12-.17.21-.26s.19-.17.32-.23c.13-.07.27-.13.43-.17s.34-.07.54-.07c.31,0,.59.06.85.18s.48.28.67.48c.19.2.33.44.43.72.1.28.15.57.15.89s-.05.62-.15.9c-.1.28-.24.52-.42.73-.18.21-.41.37-.67.49-.26.12-.56.18-.89.18-.31,0-.59-.06-.84-.19s-.45-.3-.59-.51h-.02v2.74h-1.08v-6.48h1.04ZM90.41,276.98c0-.17-.03-.33-.08-.5s-.13-.31-.23-.45c-.1-.13-.23-.24-.39-.32-.16-.08-.34-.12-.55-.12-.2,0-.38.04-.53.13s-.29.19-.4.32-.2.28-.25.45c-.06.17-.09.34-.09.5s.03.33.09.5c.06.17.14.31.25.45.11.13.24.24.4.32s.33.12.53.12c.21,0,.39-.04.55-.13s.29-.19.39-.32c.1-.13.18-.28.23-.45.05-.17.08-.34.08-.5Z" />
      <path d="M92.92,272.35h1.08v6.8h-1.08v-6.8Z" />
      <path
        d="M99.8,277.05v.14s0,.1,0,.14h-3.29c.01.16.05.3.12.43.07.13.16.24.27.33.11.09.24.17.39.22.14.05.29.08.45.08.27,0,.5-.05.68-.15.19-.1.34-.24.46-.41l.72.58c-.43.58-1.04.86-1.85.86-.34,0-.64-.05-.93-.16-.28-.1-.53-.25-.73-.45-.21-.19-.37-.43-.49-.71-.12-.28-.17-.6-.17-.95s.06-.66.17-.95c.12-.29.28-.53.48-.73.2-.2.45-.36.72-.47.28-.11.58-.17.91-.17.3,0,.58.05.83.15.25.1.48.25.66.44.19.19.33.44.44.73.11.29.16.63.16,1.02ZM98.72,276.56c0-.14-.02-.27-.06-.4s-.1-.24-.18-.33c-.08-.1-.19-.17-.32-.23-.13-.06-.28-.09-.46-.09-.32,0-.6.1-.82.29-.22.19-.35.45-.37.75h2.21Z" />
      <path
        d="M103.71,275.7h-.82v-.86h.82v-.64c0-.26.03-.51.09-.74.06-.24.15-.45.29-.62.13-.18.31-.32.54-.43s.5-.16.84-.16c.12,0,.22,0,.3.01s.16.03.25.05l-.07.92c-.06-.02-.12-.03-.19-.04-.07-.01-.14-.02-.22-.02-.16,0-.28.03-.38.09-.1.06-.17.14-.22.23s-.09.2-.1.31-.03.23-.03.33v.7h1v.86h-1v3.46h-1.08v-3.46Z" />
      <path
        d="M110.81,279.15h-1.03v-.69h-.02c-.1.22-.26.41-.5.57s-.52.25-.84.25c-.28,0-.52-.05-.72-.15s-.37-.23-.5-.39c-.13-.16-.22-.35-.28-.56s-.09-.43-.09-.65v-2.7h1.08v2.39c0,.13,0,.26.03.4.02.14.06.26.12.37.06.11.14.2.25.27.1.07.24.11.42.11s.32-.03.45-.1c.13-.07.23-.16.32-.27.08-.11.14-.23.18-.37s.06-.28.06-.43v-2.38h1.08v4.32Z" />
      <path
        d="M112.46,274.83h1.03v.69h.02c.1-.22.26-.41.5-.57.24-.17.52-.25.84-.25.28,0,.52.05.72.15.2.1.37.23.5.39s.22.35.28.56c.06.21.09.43.09.65v2.7h-1.08v-2.39c0-.13,0-.26-.03-.4-.02-.14-.06-.26-.12-.37-.06-.11-.14-.2-.25-.27-.11-.07-.24-.11-.42-.11s-.32.03-.45.1-.23.16-.31.27c-.08.11-.14.23-.18.37-.04.14-.06.28-.06.43v2.38h-1.08v-4.32Z" />
      <path
        d="M121.01,276.03c-.08-.12-.21-.22-.38-.3-.17-.08-.34-.12-.51-.12-.2,0-.37.04-.52.12-.15.08-.27.19-.37.32-.1.13-.17.28-.22.45-.05.17-.07.33-.07.5s.03.33.08.5.13.31.23.45c.1.13.23.24.38.32.15.08.33.12.54.12.17,0,.34-.03.5-.1s.3-.16.41-.29l.67.68c-.18.19-.41.34-.69.45-.28.11-.58.16-.9.16s-.62-.05-.9-.15c-.29-.1-.53-.25-.75-.45s-.38-.44-.5-.72-.18-.6-.18-.96.06-.66.18-.95.29-.52.5-.72c.21-.2.46-.35.73-.46.28-.11.58-.16.9-.16s.63.06.92.18.53.29.71.5l-.74.65Z" />
      <path
        d="M122.51,275.7v-.86h.76v-1.25h1.06v1.25h1.08v.86h-1.08v2.01c0,.19.03.35.1.48.07.13.22.19.46.19.07,0,.15,0,.23-.02.08-.02.16-.04.22-.07l.04.85c-.1.04-.21.06-.34.09s-.26.03-.38.03c-.29,0-.52-.04-.7-.12s-.32-.19-.43-.33c-.1-.14-.18-.3-.22-.49s-.06-.38-.06-.59v-2.02h-.76Z" />
      <path
        d="M126.42,273.37c0-.17.06-.33.19-.45.13-.13.29-.19.49-.19s.37.06.5.18.2.28.2.46-.07.34-.2.46c-.13.12-.3.18-.5.18s-.36-.06-.49-.19-.19-.28-.19-.45ZM126.57,274.83h1.08v4.32h-1.08v-4.32Z" />
      <path
        d="M129.04,276.98c0-.34.06-.65.18-.93.12-.28.29-.52.5-.71.21-.2.46-.35.75-.46.29-.11.59-.16.92-.16s.63.05.92.16c.29.11.54.26.75.46.21.2.38.44.5.71.12.28.18.59.18.93s-.06.65-.18.94c-.12.28-.29.52-.5.72-.21.2-.46.36-.75.47s-.59.17-.92.17-.63-.06-.92-.17-.54-.27-.75-.47c-.21-.2-.38-.44-.5-.72-.12-.28-.18-.59-.18-.94ZM130.14,276.98c0,.17.03.34.08.5.05.17.13.32.23.45.1.13.23.24.39.32s.34.13.56.13.4-.04.56-.13.29-.19.39-.32c.1-.13.18-.28.23-.45.05-.17.08-.34.08-.5s-.03-.33-.08-.5-.13-.31-.23-.45c-.1-.13-.23-.24-.39-.32-.16-.08-.34-.12-.56-.12s-.4.04-.56.12c-.16.08-.29.19-.39.32-.1.13-.18.28-.23.45s-.08.33-.08.5Z" />
      <path
        d="M135.13,274.83h1.03v.69h.02c.1-.22.26-.41.5-.57.24-.17.52-.25.84-.25.28,0,.52.05.72.15.2.1.37.23.5.39s.22.35.28.56c.06.21.09.43.09.65v2.7h-1.08v-2.39c0-.13,0-.26-.03-.4-.02-.14-.06-.26-.12-.37-.06-.11-.14-.2-.25-.27-.11-.07-.24-.11-.42-.11s-.32.03-.45.1-.23.16-.31.27c-.08.11-.14.23-.18.37-.04.14-.06.28-.06.43v2.38h-1.08v-4.32Z" />
      <path
        d="M143.4,278.6h-.03c-.11.19-.28.35-.52.47s-.51.18-.82.18c-.17,0-.36-.02-.54-.07-.19-.04-.36-.12-.52-.23s-.29-.24-.4-.41c-.11-.17-.16-.38-.16-.63,0-.32.09-.58.28-.77.18-.19.42-.34.71-.44.29-.1.61-.17.96-.2.35-.03.69-.05,1.03-.05v-.11c0-.27-.1-.47-.29-.6-.2-.13-.43-.19-.7-.19-.23,0-.45.05-.66.14s-.38.21-.52.35l-.56-.66c.25-.23.53-.4.85-.51s.65-.17.98-.17c.38,0,.7.05.95.16.25.11.45.25.59.42.14.17.24.37.3.58.06.22.08.43.08.65v2.63h-1.01v-.55ZM143.38,277.18h-.24c-.17,0-.36,0-.55.02-.19.02-.37.05-.53.1-.16.05-.3.12-.41.22-.11.09-.16.22-.16.38,0,.1.02.19.07.26.05.07.1.12.18.17s.15.07.24.09c.09.02.18.03.27.03.37,0,.65-.1.85-.3.19-.2.29-.47.29-.81v-.15Z" />
      <path d="M146.04,272.35h1.08v6.8h-1.08v-6.8Z" />
      <path
        d="M148.63,273.37c0-.17.06-.33.19-.45.13-.13.29-.19.49-.19s.36.06.5.18c.14.12.2.28.2.46s-.07.34-.2.46c-.13.12-.3.18-.5.18s-.36-.06-.49-.19-.19-.28-.19-.45ZM148.78,274.83h1.08v4.32h-1.08v-4.32Z" />
      <path
        d="M150.94,275.7v-.86h.76v-1.25h1.06v1.25h1.08v.86h-1.08v2.01c0,.19.03.35.1.48.07.13.22.19.46.19.07,0,.15,0,.23-.02.08-.02.16-.04.22-.07l.04.85c-.1.04-.21.06-.34.09s-.26.03-.38.03c-.29,0-.52-.04-.7-.12s-.32-.19-.43-.33c-.1-.14-.18-.3-.22-.49s-.06-.38-.06-.59v-2.02h-.76Z" />
      <path
        d="M154.63,274.83h1.2l1.21,3.14h.02l1.07-3.14h1.12l-2.04,5.25c-.08.2-.16.37-.25.53-.09.15-.2.28-.32.39s-.27.18-.45.24c-.17.05-.38.08-.62.08-.09,0-.18,0-.27-.01s-.19-.03-.28-.05l.09-.94c.07.02.14.04.21.05.07,0,.13.01.19.01.11,0,.21-.01.29-.04.08-.03.14-.07.2-.13.05-.06.1-.13.14-.21s.09-.18.13-.3l.22-.55-1.85-4.32Z" />
      <path
        d="M165.28,278.6h-.03c-.11.19-.28.35-.52.47s-.51.18-.82.18c-.17,0-.36-.02-.54-.07-.19-.04-.36-.12-.52-.23s-.29-.24-.4-.41c-.11-.17-.16-.38-.16-.63,0-.32.09-.58.28-.77.18-.19.42-.34.71-.44.29-.1.61-.17.96-.2s.69-.05,1.03-.05v-.11c0-.27-.1-.47-.29-.6-.2-.13-.43-.19-.7-.19-.23,0-.45.05-.66.14s-.38.21-.52.35l-.56-.66c.25-.23.53-.4.85-.51s.65-.17.98-.17c.38,0,.7.05.95.16.25.11.45.25.59.42.14.17.24.37.3.58.06.22.08.43.08.65v2.63h-1.01v-.55ZM165.26,277.18h-.24c-.17,0-.36,0-.55.02-.19.02-.37.05-.53.1-.16.05-.3.12-.41.22-.11.09-.16.22-.16.38,0,.1.02.19.07.26.05.07.1.12.18.17s.15.07.24.09c.09.02.18.03.27.03.37,0,.65-.1.85-.3.19-.2.29-.47.29-.81v-.15Z" />
      <path
        d="M167.9,274.83h1.03v.69h.02c.1-.22.26-.41.5-.57.24-.17.52-.25.84-.25.28,0,.52.05.72.15.2.1.37.23.5.39s.22.35.28.56c.06.21.09.43.09.65v2.7h-1.08v-2.39c0-.13,0-.26-.03-.4-.02-.14-.06-.26-.12-.37-.06-.11-.14-.2-.25-.27-.11-.07-.24-.11-.42-.11s-.32.04-.43.11-.22.17-.3.28c-.08.11-.13.24-.17.38-.04.14-.05.28-.05.42v2.36h-1.08v-4.32Z" />
      <path
        d="M177.89,279.15h-1.03v-.65h-.02c-.15.25-.36.44-.62.58-.27.13-.55.2-.86.2-.33,0-.63-.06-.89-.18-.26-.12-.48-.29-.67-.49-.18-.21-.32-.45-.42-.73-.1-.28-.15-.58-.15-.9s.05-.61.15-.89c.1-.28.25-.52.43-.72.19-.2.41-.36.67-.48.26-.12.54-.18.85-.18.2,0,.38.02.53.07.16.04.29.1.41.17s.22.14.3.22c.08.08.15.15.21.23h.03v-3.03h1.08v6.8ZM174.34,276.98c0,.17.03.34.08.5.05.17.13.32.23.45.1.13.23.24.39.32.16.08.34.13.55.13.2,0,.38-.04.53-.12.16-.08.29-.19.4-.32.11-.13.19-.28.25-.45.06-.17.08-.33.08-.5s-.03-.34-.08-.5c-.06-.17-.14-.32-.25-.45-.11-.13-.25-.24-.4-.32-.16-.08-.33-.13-.53-.13-.21,0-.39.04-.55.12-.16.08-.29.19-.39.32-.1.13-.18.28-.23.45s-.08.33-.08.5Z" />
      <path
        d="M181.77,273.37c0-.17.06-.33.19-.45.13-.13.29-.19.49-.19s.37.06.5.18.2.28.2.46-.07.34-.2.46c-.13.12-.3.18-.5.18s-.36-.06-.49-.19-.19-.28-.19-.45ZM181.92,274.83h1.08v4.32h-1.08v-4.32Z" />
      <path
        d="M189.04,279.15h-1.03v-.65h-.02c-.15.25-.36.44-.63.58s-.55.2-.86.2c-.33,0-.62-.06-.89-.18-.26-.12-.48-.29-.67-.49-.18-.21-.32-.45-.42-.73-.1-.28-.15-.58-.15-.9s.05-.61.15-.89c.1-.28.25-.52.43-.72.19-.2.41-.36.67-.48s.54-.18.85-.18c.2,0,.38.02.53.07s.29.1.41.17c.12.07.22.14.3.22.08.08.15.15.21.23h.03v-3.03h1.08v6.8ZM185.48,276.98c0,.17.03.34.08.5.05.17.13.32.23.45.1.13.23.24.39.32s.34.13.55.13c.2,0,.38-.04.53-.12s.29-.19.4-.32c.11-.13.2-.28.25-.45s.09-.33.09-.5-.03-.34-.09-.5c-.06-.17-.14-.32-.25-.45s-.24-.24-.4-.32-.33-.13-.53-.13c-.21,0-.39.04-.55.12-.16.08-.29.19-.39.32-.1.13-.18.28-.23.45-.05.17-.08.33-.08.5Z" />
      <path
        d="M194.82,277.05v.14s0,.1,0,.14h-3.29c.01.16.05.3.12.43.07.13.16.24.27.33.11.09.24.17.39.22.14.05.29.08.45.08.27,0,.5-.05.68-.15.19-.1.34-.24.46-.41l.72.58c-.43.58-1.04.86-1.85.86-.34,0-.64-.05-.93-.16-.28-.1-.53-.25-.73-.45-.21-.19-.37-.43-.49-.71-.12-.28-.17-.6-.17-.95s.06-.66.17-.95c.12-.29.28-.53.48-.73.2-.2.45-.36.72-.47.28-.11.58-.17.91-.17.3,0,.58.05.83.15.25.1.48.25.66.44.19.19.33.44.44.73.11.29.16.63.16,1.02ZM193.74,276.56c0-.14-.02-.27-.06-.4s-.1-.24-.18-.33c-.08-.1-.19-.17-.32-.23-.13-.06-.28-.09-.46-.09-.32,0-.6.1-.82.29-.22.19-.35.45-.37.75h2.21Z" />
      <path
        d="M198.87,278.6h-.03c-.11.19-.28.35-.52.47-.24.12-.51.18-.82.18-.17,0-.36-.02-.54-.07-.19-.04-.36-.12-.52-.23-.16-.1-.29-.24-.4-.41-.1-.17-.16-.38-.16-.63,0-.32.09-.58.27-.77.18-.19.42-.34.71-.44.29-.1.61-.17.96-.2s.69-.05,1.03-.05v-.11c0-.27-.1-.47-.29-.6-.2-.13-.43-.19-.7-.19-.23,0-.45.05-.66.14s-.38.21-.52.35l-.56-.66c.25-.23.53-.4.85-.51.32-.11.65-.17.98-.17.38,0,.7.05.95.16.25.11.45.25.59.42.14.17.24.37.3.58.06.22.09.43.09.65v2.63h-1.01v-.55ZM198.85,277.18h-.24c-.17,0-.36,0-.55.02-.19.02-.37.05-.53.1-.16.05-.3.12-.4.22-.11.09-.16.22-.16.38,0,.1.02.19.07.26.04.07.1.12.18.17.07.04.15.07.24.09.09.02.18.03.27.03.37,0,.65-.1.85-.3.19-.2.29-.47.29-.81v-.15Z" />
      <path d="M201.51,272.35h1.08v6.8h-1.08v-6.8Z" />
      <path
        d="M211,279.15h-1.03v-.65h-.02c-.15.25-.36.44-.63.58s-.55.2-.86.2c-.33,0-.62-.06-.89-.18-.26-.12-.48-.29-.67-.49-.18-.21-.32-.45-.42-.73-.1-.28-.15-.58-.15-.9s.05-.61.15-.89c.1-.28.25-.52.43-.72.19-.2.41-.36.67-.48s.54-.18.85-.18c.2,0,.38.02.53.07s.29.1.41.17c.12.07.22.14.3.22.08.08.15.15.21.23h.03v-3.03h1.08v6.8ZM207.44,276.98c0,.17.03.34.08.5.05.17.13.32.23.45.1.13.23.24.39.32s.34.13.55.13c.2,0,.38-.04.53-.12s.29-.19.4-.32c.11-.13.2-.28.25-.45s.09-.33.09-.5-.03-.34-.09-.5c-.06-.17-.14-.32-.25-.45s-.24-.24-.4-.32-.33-.13-.53-.13c-.21,0-.39.04-.55.12-.16.08-.29.19-.39.32-.1.13-.18.28-.23.45-.05.17-.08.33-.08.5Z" />
      <path
        d="M216.78,277.05v.14s0,.1,0,.14h-3.29c.01.16.05.3.12.43.07.13.16.24.27.33.11.09.24.17.39.22.14.05.29.08.45.08.27,0,.5-.05.68-.15.19-.1.34-.24.46-.41l.72.58c-.43.58-1.04.86-1.85.86-.34,0-.64-.05-.93-.16-.28-.1-.53-.25-.73-.45-.21-.19-.37-.43-.49-.71-.12-.28-.17-.6-.17-.95s.06-.66.17-.95c.12-.29.28-.53.48-.73.2-.2.45-.36.72-.47.28-.11.58-.17.91-.17.3,0,.58.05.83.15.25.1.48.25.66.44.19.19.33.44.44.73.11.29.16.63.16,1.02ZM215.7,276.56c0-.14-.02-.27-.06-.4s-.1-.24-.18-.33c-.08-.1-.19-.17-.32-.23-.13-.06-.28-.09-.46-.09-.32,0-.6.1-.82.29-.22.19-.35.45-.37.75h2.21Z" />
      <path
        d="M220.57,275.99c-.1-.13-.23-.24-.4-.33-.17-.09-.35-.14-.55-.14-.17,0-.33.04-.48.11s-.22.19-.22.36.08.29.24.36c.16.07.39.14.7.21.16.04.33.08.49.14s.32.14.45.24c.13.1.24.22.33.37s.13.33.13.54c0,.26-.05.49-.15.67-.1.18-.23.33-.4.45-.17.11-.36.2-.58.25-.22.05-.45.08-.68.08-.34,0-.66-.06-.98-.18-.32-.12-.58-.3-.79-.53l.71-.67c.12.16.28.28.47.39.19.1.41.15.64.15.08,0,.16,0,.24-.03.08-.02.16-.05.22-.09.07-.04.12-.09.17-.16.04-.07.06-.15.06-.24,0-.18-.08-.31-.25-.39s-.41-.16-.74-.23c-.16-.04-.32-.08-.47-.14-.15-.06-.29-.13-.41-.22s-.22-.21-.29-.35c-.07-.14-.11-.31-.11-.51,0-.24.05-.45.15-.62s.23-.32.39-.43c.16-.11.34-.19.55-.25.2-.05.41-.08.63-.08.31,0,.62.05.91.16.3.11.53.27.71.49l-.7.62Z" />
      <path
        d="M222.46,273.37c0-.17.06-.33.19-.45.13-.13.29-.19.49-.19s.36.06.5.18c.14.12.2.28.2.46s-.07.34-.2.46c-.13.12-.3.18-.5.18s-.36-.06-.49-.19-.19-.28-.19-.45ZM222.61,274.83h1.08v4.32h-1.08v-4.32Z" />
      <path
        d="M229.72,274.83v3.93c0,.39-.05.74-.14,1.06-.1.32-.24.58-.45.8-.2.22-.45.39-.76.51-.31.12-.67.18-1.09.18-.17,0-.36-.01-.55-.04-.19-.03-.39-.08-.58-.13-.19-.06-.37-.13-.54-.23-.17-.09-.33-.19-.47-.31l.62-.84c.21.2.45.35.71.45.26.1.53.16.8.16s.48-.04.65-.11.32-.18.42-.31c.11-.13.18-.29.23-.47s.07-.38.07-.6v-.32h-.02c-.16.21-.36.37-.6.49-.24.11-.51.17-.81.17-.32,0-.62-.06-.88-.18-.26-.12-.49-.28-.67-.49-.18-.2-.33-.44-.43-.72-.1-.27-.15-.56-.15-.87s.05-.61.15-.88c.1-.28.24-.52.42-.72.18-.2.41-.37.67-.49.26-.12.55-.18.88-.18.31,0,.59.06.86.19.26.13.47.32.63.58h.02v-.65h1.03ZM227.42,275.59c-.2,0-.37.04-.53.11-.15.07-.28.17-.39.29-.11.12-.19.27-.24.43-.06.17-.08.35-.08.54,0,.17.03.34.08.5.06.16.14.31.24.43.1.13.23.23.39.31.15.08.33.12.52.12s.38-.04.54-.11c.16-.08.29-.17.4-.3.11-.13.2-.27.26-.44.06-.16.09-.34.09-.52s-.03-.36-.09-.53c-.06-.17-.15-.31-.26-.44-.11-.13-.24-.22-.4-.3-.16-.07-.33-.11-.53-.11Z" />
      <path
        d="M231.36,274.83h1.03v.69h.02c.1-.22.26-.41.5-.57.24-.17.52-.25.84-.25.28,0,.52.05.72.15.2.1.37.23.5.39s.22.35.28.56c.06.21.09.43.09.65v2.7h-1.08v-2.39c0-.13,0-.26-.03-.4-.02-.14-.06-.26-.12-.37-.06-.11-.14-.2-.25-.27-.11-.07-.24-.11-.42-.11s-.32.03-.45.1-.23.16-.31.27c-.08.11-.14.23-.18.37-.04.14-.06.28-.06.43v2.38h-1.08v-4.32Z" />
      <path
        d="M236.82,278.52c0-.19.07-.36.21-.5s.31-.21.51-.21.36.07.5.2c.14.13.22.29.22.49s-.07.36-.21.5c-.14.14-.31.21-.51.21-.1,0-.19-.02-.27-.05s-.16-.08-.23-.14c-.07-.06-.12-.13-.16-.22s-.06-.17-.06-.27Z" />
    </g>
  </g>
  <g class="text-tilt">
    <path d="M207.55,320.93l1.08.34-1.6,5.12,2.59.81-.3.96-3.67-1.15,1.9-6.08Z" />
    <path
      d="M211.82,324.41l1.03.32-1.29,4.12-1.03-.32,1.29-4.12ZM212.11,322.97c.05-.17.16-.29.32-.38.16-.08.34-.1.53-.04.19.06.33.17.42.33.09.16.11.33.06.5-.06.18-.17.3-.33.38s-.34.09-.53.03c-.19-.06-.33-.17-.41-.33s-.1-.33-.05-.49Z" />
    <path
      d="M214.56,326.17l-.78-.24.26-.82.78.24.19-.61c.08-.25.18-.47.3-.68.13-.21.28-.38.46-.51.18-.13.4-.21.64-.25.24-.03.52,0,.85.1.11.04.21.07.28.1.07.03.15.07.22.12l-.34.85c-.05-.03-.11-.07-.17-.1-.06-.03-.13-.06-.21-.08-.15-.05-.28-.06-.39-.03-.11.03-.2.08-.28.16s-.14.17-.19.27c-.05.1-.09.21-.12.31l-.21.67.95.3-.26.83-.95-.3-1.03,3.3-1.03-.32,1.03-3.3Z" />
    <path
      d="M221.25,329.68s-.03.09-.04.14c-.01.04-.03.09-.05.13l-3.14-.98c-.04.15-.04.3-.01.44.03.14.08.28.16.4.08.12.18.23.3.33.12.09.26.17.41.21.26.08.49.1.7.06.21-.04.39-.12.56-.25l.52.76c-.58.42-1.25.51-2.03.27-.32-.1-.6-.24-.84-.43-.24-.18-.43-.4-.57-.64-.14-.24-.23-.52-.25-.82-.03-.3.01-.62.12-.96.1-.33.25-.62.45-.85.2-.24.42-.42.68-.55.25-.13.53-.21.83-.23.3-.02.6.01.91.11.29.09.54.22.75.39.21.17.38.38.5.62.12.24.19.52.2.83s-.04.65-.15,1.02ZM220.37,328.89c.04-.13.06-.26.06-.4,0-.13-.02-.26-.08-.37-.05-.12-.13-.22-.24-.31-.11-.09-.24-.17-.41-.22-.31-.1-.6-.08-.87.03s-.47.32-.58.61l2.11.66Z" />
    <path
      d="M224.98,329.43l.26-.82.72.23.37-1.19,1.01.32-.37,1.19,1.03.32-.26.82-1.03-.32-.6,1.92c-.06.18-.07.35-.04.49.03.14.16.25.39.32.07.02.15.04.23.05.08.01.16.01.23,0l-.22.82c-.1,0-.22,0-.35-.02-.13-.02-.26-.05-.37-.08-.27-.09-.49-.19-.63-.33-.15-.13-.25-.28-.31-.44-.06-.17-.08-.34-.06-.53.02-.19.06-.38.12-.58l.6-1.92-.72-.23Z" />
    <path
      d="M231.65,330.47c.27.08.48.2.65.36.16.15.28.33.36.52.08.19.11.4.1.62,0,.22-.04.43-.11.65l-.8,2.58-1.03-.32.71-2.27c.04-.12.07-.25.09-.38s.02-.26,0-.39c-.02-.12-.07-.23-.15-.33-.08-.1-.2-.18-.37-.23-.17-.05-.32-.06-.46-.04-.14.03-.27.08-.38.16-.11.08-.21.18-.29.3-.08.12-.14.25-.19.38l-.7,2.25-1.03-.32,2.03-6.49,1.03.32-.92,2.95h.02c.07-.07.15-.13.25-.19s.22-.11.34-.14c.12-.03.26-.05.4-.05.14,0,.29.03.45.07Z" />
    <path
      d="M236.28,336h-.03c-.16.14-.37.24-.64.29-.27.05-.54.02-.84-.07-.17-.05-.33-.13-.5-.23s-.31-.22-.43-.37c-.12-.15-.21-.32-.25-.51-.05-.19-.04-.41.04-.65.1-.31.26-.53.49-.66.23-.13.5-.2.81-.21.31-.01.63.02.98.09.34.07.68.16,1,.26l.03-.1c.08-.26.05-.48-.1-.66-.15-.18-.35-.31-.61-.39-.22-.07-.44-.09-.67-.06-.23.03-.43.09-.6.18l-.34-.79c.3-.14.62-.22.96-.24.34-.01.67.03.98.13.37.11.65.26.86.44.21.18.35.37.44.58.09.21.12.42.11.65-.01.22-.05.44-.11.64l-.78,2.51-.96-.3.16-.52ZM236.69,334.64l-.23-.07c-.17-.05-.34-.1-.53-.14-.19-.04-.37-.06-.54-.06-.17,0-.32.03-.45.09-.13.06-.22.16-.27.32-.03.1-.03.19-.01.26.02.08.06.15.12.21.06.06.12.11.21.16.08.04.16.08.25.11.35.11.65.1.9-.03.24-.13.41-.36.52-.69l.05-.15Z" />
    <path
      d="M239.24,333.88l.26-.82.72.23.37-1.19,1.01.32-.37,1.19,1.03.32-.26.83-1.03-.32-.6,1.92c-.06.18-.07.34-.04.49.03.14.16.25.39.32.07.02.15.04.23.05.08.01.16.01.23,0l-.22.82c-.1,0-.22,0-.35-.02-.13-.02-.26-.05-.37-.08-.27-.09-.49-.19-.63-.33-.15-.13-.25-.28-.31-.44-.06-.17-.08-.34-.06-.53s.06-.38.12-.58l.6-1.92-.72-.23Z" />
    <path
      d="M249.21,338.4s-.03.09-.04.14c-.01.05-.03.09-.05.13l-3.14-.98c-.04.15-.04.3-.01.44.03.14.08.28.16.4.08.12.18.23.3.33.12.09.26.17.41.21.26.08.49.1.7.06s.39-.12.56-.25l.52.76c-.58.42-1.25.51-2.03.27-.32-.1-.6-.24-.84-.43-.24-.18-.43-.4-.57-.64-.14-.24-.22-.52-.25-.82-.03-.3.01-.62.12-.96.1-.33.25-.62.45-.85.2-.24.42-.42.68-.55.25-.13.53-.21.83-.23.3-.02.6.01.91.11.29.09.54.22.75.39.21.17.38.38.5.62.12.24.19.52.2.83.01.31-.04.65-.15,1.02ZM248.32,337.62c.04-.13.06-.26.06-.4,0-.13-.03-.26-.08-.37-.05-.12-.13-.22-.24-.31-.11-.09-.24-.17-.41-.22-.31-.1-.6-.09-.87.03-.27.12-.47.32-.58.61l2.11.66Z" />
    <path
      d="M251.38,336.76l.98.31-.21.66h.02c.16-.17.37-.3.65-.39.27-.09.57-.08.88.02.27.08.49.2.65.36.16.15.28.33.36.52.07.19.11.4.1.62,0,.22-.04.43-.11.65l-.8,2.58-1.03-.32.71-2.29c.04-.12.07-.25.09-.39.02-.14.02-.27,0-.39-.02-.12-.08-.24-.15-.34-.08-.1-.2-.18-.37-.23-.17-.05-.32-.06-.46-.03-.14.03-.27.08-.38.16-.11.08-.21.18-.29.3-.08.12-.14.25-.19.39l-.71,2.27-1.03-.32,1.29-4.12Z" />
    <path
      d="M256.89,338.49l.99.31-.21.69h.02c.19-.2.41-.34.66-.43.25-.08.52-.08.79,0,.04.01.08.03.13.04.04.02.08.04.11.06l-.3.94c-.06-.04-.12-.07-.17-.09-.05-.02-.09-.04-.14-.05-.23-.07-.44-.09-.61-.05s-.31.11-.43.2c-.12.1-.21.2-.28.32-.07.12-.11.21-.14.29l-.69,2.21-1.03-.32,1.29-4.12Z" />
    <path
      d="M260.56,339.63l1.03.32-1.29,4.12-1.03-.32,1.29-4.12ZM260.85,338.19c.05-.17.16-.29.32-.38.16-.08.34-.1.53-.04.19.06.33.17.42.33.09.16.11.33.06.5-.06.18-.17.31-.33.38-.17.08-.34.09-.53.03-.19-.06-.33-.17-.41-.33s-.1-.33-.05-.49Z" />
    <path
      d="M265.79,342.52c-.04-.14-.13-.27-.27-.4-.14-.13-.29-.22-.45-.27-.19-.06-.37-.07-.53-.04-.17.03-.32.1-.45.19-.13.1-.25.22-.34.36-.1.14-.17.29-.22.46-.05.16-.08.33-.08.5,0,.17.03.34.09.49.06.16.15.3.27.42s.28.21.47.28c.16.05.33.07.51.06.18-.01.34-.06.47-.15l.44.85c-.23.13-.49.2-.79.22-.3.02-.6-.02-.91-.12-.3-.09-.58-.23-.82-.42-.24-.18-.43-.4-.58-.65s-.23-.53-.27-.84c-.03-.31,0-.63.11-.98.1-.33.26-.61.46-.85.2-.23.43-.41.69-.54.26-.13.54-.2.84-.22.3-.02.6.02.9.11.3.09.58.24.83.45.25.2.42.43.53.68l-.9.4Z" />
    <path
      d="M270.39,342.57c.27.08.49.2.65.36.16.15.28.33.36.52.08.19.11.4.1.62,0,.22-.04.43-.11.65l-.8,2.58-1.03-.32.71-2.27c.04-.12.07-.25.09-.38.02-.13.02-.26,0-.39-.02-.12-.07-.23-.15-.33s-.2-.18-.37-.23c-.17-.05-.32-.06-.46-.04-.14.02-.27.08-.38.16-.11.08-.21.18-.29.3s-.14.25-.19.39l-.7,2.25-1.03-.32,2.03-6.49,1.03.32-.92,2.95h.02c.07-.07.15-.13.26-.19.1-.06.22-.11.34-.14.12-.03.26-.05.4-.05s.29.03.45.07Z" />
    <path
      d="M275.37,344.26l1.14.36.22,3.36h.02s1.96-2.67,1.96-2.67l1.07.34-3.51,4.4c-.13.17-.27.31-.4.43-.13.12-.27.21-.42.27-.15.06-.32.09-.5.1-.18,0-.38-.04-.61-.11-.09-.03-.17-.06-.26-.09-.09-.04-.17-.08-.26-.13l.36-.87c.06.04.12.08.19.11s.12.05.18.07c.11.03.2.05.29.05.08,0,.16-.02.23-.06.07-.04.13-.09.2-.16.07-.07.14-.15.22-.24l.37-.46-.48-4.68Z" />
    <path
      d="M279.93,347.92c.1-.33.25-.6.45-.83.2-.23.43-.41.69-.53.26-.13.54-.2.85-.22.31-.02.62.02.92.12.31.1.58.24.83.43.24.19.43.41.58.66.14.25.23.53.26.83s0,.62-.1.94c-.1.33-.25.61-.46.84-.2.23-.43.41-.69.54-.26.13-.54.21-.85.23-.31.02-.62-.01-.93-.11-.31-.1-.58-.24-.83-.44-.24-.19-.43-.42-.57-.67-.14-.25-.23-.53-.26-.84-.03-.31,0-.62.1-.95ZM280.98,348.25c-.05.16-.08.33-.08.5,0,.18.03.34.08.5.06.16.15.3.27.43.12.13.29.22.5.29.21.06.4.08.57.05.17-.03.33-.1.47-.19.14-.1.25-.22.35-.36.1-.15.17-.3.22-.46.05-.16.08-.33.08-.5,0-.17-.03-.34-.09-.49-.06-.16-.15-.3-.27-.42-.12-.12-.29-.22-.5-.28s-.4-.08-.57-.05c-.17.03-.33.09-.46.19-.14.1-.25.22-.35.36-.1.14-.17.29-.22.45Z" />
    <path
      d="M289.03,353.05l-.98-.31.21-.66h-.02c-.16.17-.37.3-.65.39-.27.09-.57.08-.88-.01-.27-.08-.48-.2-.65-.36-.16-.15-.28-.33-.36-.52s-.11-.4-.1-.62c0-.22.04-.43.11-.65l.8-2.58,1.03.32-.71,2.29c-.04.12-.07.25-.09.39-.02.14-.02.27,0,.39.02.12.08.24.15.34.08.1.2.18.37.23.16.05.31.06.46.03.14-.03.27-.08.38-.16.11-.08.2-.18.29-.3.08-.12.15-.25.19-.39l.71-2.27,1.03.32-1.29,4.12Z" />
    <path
      d="M292.06,349.47l.99.31-.21.69h.02c.19-.2.41-.34.66-.43s.52-.08.79,0c.04.01.08.03.13.04s.08.04.11.06l-.29.94c-.06-.04-.12-.07-.17-.09-.05-.02-.09-.04-.14-.05-.23-.07-.44-.09-.61-.05s-.31.11-.43.2c-.12.1-.21.2-.28.32-.07.12-.11.21-.14.29l-.69,2.21-1.03-.32,1.29-4.12Z" />
    <path
      d="M300.44,351.95c.27.08.48.2.65.36.16.15.28.33.36.52.07.19.11.4.1.62,0,.22-.04.43-.11.65l-.8,2.58-1.03-.32.71-2.27c.04-.12.07-.25.09-.38.02-.13.02-.26,0-.39-.02-.12-.07-.23-.15-.33-.08-.1-.2-.18-.37-.23-.17-.05-.32-.06-.46-.04-.14.02-.27.08-.38.16-.11.08-.21.18-.29.3-.08.12-.14.25-.19.39l-.7,2.25-1.03-.32,2.03-6.49,1.03.32-.92,2.95h.02c.07-.07.15-.13.25-.19.1-.06.22-.11.34-.14.12-.03.26-.05.4-.05s.29.03.45.07Z" />
    <path
      d="M306.92,356.42l-.04.14s-.03.09-.05.13l-3.14-.98c-.04.15-.04.3-.01.44.03.14.08.28.16.4.08.12.18.23.3.33.12.09.26.17.41.21.26.08.49.1.7.06.21-.04.39-.12.56-.25l.52.76c-.58.42-1.25.51-2.03.27-.32-.1-.6-.24-.84-.43-.24-.18-.43-.4-.57-.64-.14-.24-.22-.52-.25-.82-.03-.3,0-.62.12-.96.1-.33.25-.62.45-.85.2-.24.42-.42.68-.55.25-.13.53-.21.83-.23.3-.02.6.01.91.11.29.09.54.22.75.39.21.17.38.38.5.62.12.24.19.52.2.83.01.31-.04.65-.15,1.02ZM306.03,355.64c.04-.13.06-.26.06-.4,0-.13-.02-.26-.08-.37-.05-.12-.13-.22-.24-.31-.11-.09-.24-.17-.41-.22-.31-.1-.6-.08-.87.03-.27.12-.47.32-.58.61l2.11.66Z" />
    <path
      d="M310.49,359.17h-.03c-.16.14-.37.24-.64.29-.27.05-.54.02-.84-.07-.17-.05-.33-.13-.5-.23-.17-.1-.31-.22-.43-.37-.12-.15-.21-.32-.25-.51-.05-.19-.04-.41.04-.65.1-.31.26-.53.49-.66.23-.13.5-.2.81-.21.3-.01.63.02.98.09.34.07.68.16,1,.26l.03-.1c.08-.26.05-.48-.1-.66-.15-.18-.35-.31-.61-.39-.22-.07-.44-.09-.67-.06s-.43.09-.6.18l-.34-.79c.3-.14.62-.22.96-.24.34-.01.67.03.98.13.37.11.65.26.86.44.21.18.35.37.44.58.09.21.12.42.11.65-.01.22-.05.44-.11.64l-.78,2.51-.96-.3.16-.52ZM310.9,357.81l-.23-.07c-.17-.05-.34-.1-.53-.14s-.37-.06-.54-.06c-.17,0-.32.03-.45.09s-.22.16-.27.32c-.03.1-.03.19-.01.26.02.08.06.15.12.21.06.06.12.12.21.16.08.04.16.08.25.11.35.11.65.1.9-.03.24-.13.41-.36.52-.69l.05-.15Z" />
    <path
      d="M314.29,356.41l.99.31-.21.69h.02c.19-.2.41-.34.66-.43.25-.08.52-.08.79,0,.04.01.08.03.13.04.04.02.08.04.11.06l-.29.94c-.06-.04-.12-.07-.17-.09-.05-.02-.09-.04-.14-.05-.23-.07-.44-.09-.61-.05s-.31.11-.43.2c-.12.09-.21.2-.28.32-.07.12-.11.21-.14.29l-.69,2.21-1.03-.32,1.29-4.12Z" />
    <path
      d="M317.38,358.28l.26-.83.72.23.37-1.19,1.01.32-.37,1.19,1.03.32-.26.82-1.03-.32-.6,1.92c-.06.18-.07.35-.04.49.03.14.16.25.39.32.07.02.15.04.23.05.08.01.16.01.23,0l-.22.82c-.1,0-.22,0-.35-.02-.13-.02-.26-.05-.37-.08-.28-.09-.49-.19-.63-.33-.15-.13-.25-.28-.31-.44-.06-.17-.08-.34-.06-.53s.06-.38.12-.58l.6-1.92-.72-.23Z" />
    <path
      d="M320.51,362.22c.06-.18.17-.32.35-.41.18-.09.36-.1.55-.05.18.06.32.17.42.34.1.17.12.34.06.53-.06.18-.17.32-.35.41-.18.09-.36.11-.55.05-.09-.03-.17-.07-.25-.13-.07-.06-.13-.13-.18-.21-.04-.08-.07-.16-.09-.25-.01-.09,0-.18.02-.28Z" />
  </g>
</svg>

