<?xml version="1.0" encoding="utf-8"?>
<svg xmlns="http://www.w3.org/2000/svg" version="1.1" viewBox="0 0 841.7 475.48">
  <defs>
    <style>
      /* 文字 */
      .text{opacity:0;transform:translate(0, 10px);animation:text 1s forwards;}
      .text_box{fill:#1c1c1c;}
      .text-01{animation-delay:0.8s;}
      .text-02{animation-delay:1s;}
      .text-03{animation-delay:1.2s;}
      .text-04{animation-delay:1.4s;}
      .text-05{animation-delay:1.6s;}
      .text-06{animation-delay:1.8s;}
      @keyframes text{
      100%{opacity:1;transform:translate(0, 0);}
      }
      /* 線 */
      .line{fill:none;stroke:#c91933;stroke-miterlimit:10;stroke-width:3px;stroke-linecap:round;animation:line
      1s forwards;}
      .line-01{transform:translate(0, 85px);stroke-dasharray:330;stroke-dashoffset:330;}
      .line-02{transform:translate(-125px, 0);stroke-dasharray:550;stroke-dashoffset:550;}
      .line-03{transform:translate(0, -94px);stroke-dasharray:250;stroke-dashoffset:250;}
      .line-04{transform:translate(123px, -20px);stroke-dasharray:560;stroke-dashoffset:560;}
      @keyframes line{
      100%{stroke-dashoffset:0;transform:translate(0, 0);}
      }
    </style>
  </defs>
  <line class="line line-01" x1="690.13" y1="370.84" x2="690.13" y2="42.64" />
  <line class="line line-02" x1="145.57" y1="370.84" x2="690.13" y2="370.84" />
  <line class="line line-03" x1="145.57" y1="123.77" x2="145.57" y2="370.84" />
  <line class="line line-04" x1="690.13" y1="42.64" x2="145.57" y2="123.77" />
  <g class="text_box">
    <g class="text text-01">
      <path
        d="M472.05,167.93h-1.8v-1.68h2.02l.36-2.44h-1.8v-1.68h2.02l.6-4.18h1.76l-.6,4.18h2.06l.6-4.18h1.74l-.6,4.18h1.8v1.68h-2.04l-.34,2.44h1.8v1.68h-2l-.62,4.18h-1.74l.6-4.18h-2.08l-.6,4.18h-1.74l.6-4.18ZM474.37,163.81l-.34,2.44h2.06l.34-2.44h-2.06Z" />
      <path
        d="M482.81,164.99c0-1.13.19-2.16.57-3.07.38-.91.91-1.69,1.58-2.33.67-.64,1.47-1.13,2.4-1.48.93-.35,1.94-.52,3.03-.52s2.13.17,3.06.52c.93.35,1.74.84,2.42,1.48.68.64,1.21,1.42,1.59,2.33s.57,1.94.57,3.07-.19,2.12-.57,3.03c-.38.91-.91,1.7-1.59,2.36-.68.66-1.49,1.17-2.42,1.54-.93.37-1.95.55-3.06.55s-2.1-.18-3.03-.55c-.93-.37-1.73-.88-2.4-1.54-.67-.66-1.2-1.45-1.58-2.36-.38-.91-.57-1.92-.57-3.03ZM485.55,164.99c0,.76.12,1.46.35,2.09.23.63.57,1.18,1,1.65s.95.83,1.54,1.09c.59.26,1.25.39,1.97.39s1.38-.13,1.98-.39c.6-.26,1.12-.62,1.55-1.09.43-.47.77-1.02,1-1.65.23-.63.35-1.33.35-2.09s-.12-1.41-.35-2.04c-.23-.63-.56-1.17-.99-1.64-.43-.47-.94-.83-1.54-1.1s-1.27-.4-2-.4-1.4.13-1.99.4c-.59.27-1.1.63-1.53,1.1-.43.47-.76,1.01-.99,1.64-.23.63-.35,1.31-.35,2.04Z" />
      <path
        d="M501.31,162.51h2.3v1.6h.04c.27-.56.64-1.01,1.12-1.36.48-.35,1.04-.52,1.68-.52.09,0,.19,0,.3,0,.11,0,.2.02.28.05v2.2c-.16-.04-.3-.07-.41-.08-.11-.01-.22-.02-.33-.02-.55,0-.99.1-1.32.3-.33.2-.59.44-.78.72-.19.28-.31.57-.38.86-.07.29-.1.53-.1.7v5.14h-2.4v-9.6Z" />
      <path
        d="M519.29,172.11h-2.28v-1.44h-.04c-.33.56-.8.99-1.39,1.28-.59.29-1.23.44-1.91.44-.73,0-1.39-.14-1.97-.41-.58-.27-1.07-.64-1.48-1.1-.41-.46-.72-1-.94-1.62-.22-.62-.33-1.28-.33-1.99s.11-1.37.34-1.98c.23-.61.55-1.15.96-1.6.41-.45.91-.81,1.48-1.07.57-.26,1.2-.39,1.88-.39.44,0,.83.05,1.18.15.35.1.65.22.91.37.26.15.48.31.67.48.19.17.34.34.46.5h.06v-6.74h2.4v15.12ZM511.39,167.27c0,.37.06.75.17,1.12.11.37.28.71.51,1,.23.29.51.53.86.72.35.19.75.28,1.22.28.44,0,.83-.09,1.18-.27.35-.18.64-.42.89-.71.25-.29.43-.62.56-.99.13-.37.19-.74.19-1.11s-.06-.75-.19-1.12c-.13-.37-.31-.71-.56-1-.25-.29-.54-.53-.89-.72-.35-.19-.74-.28-1.18-.28-.47,0-.87.09-1.22.27-.35.18-.63.42-.86.71-.23.29-.4.62-.51.99-.11.37-.17.74-.17,1.11Z" />
      <path
        d="M532.22,167.43v.32c0,.11,0,.21-.02.32h-7.3c.03.35.12.66.27.95.15.29.36.53.61.74.25.21.54.37.86.49.32.12.65.18,1,.18.6,0,1.11-.11,1.52-.33.41-.22.75-.52,1.02-.91l1.6,1.28c-.95,1.28-2.32,1.92-4.12,1.92-.75,0-1.43-.12-2.06-.35-.63-.23-1.17-.56-1.63-.99-.46-.43-.82-.95-1.08-1.57-.26-.62-.39-1.32-.39-2.11s.13-1.48.39-2.11c.26-.63.62-1.17,1.07-1.62.45-.45.99-.79,1.61-1.04.62-.25,1.29-.37,2.01-.37.67,0,1.28.11,1.85.33.57.22,1.06.55,1.47.98.41.43.74.97.97,1.62.23.65.35,1.4.35,2.27ZM529.82,166.35c0-.31-.04-.6-.13-.88s-.22-.53-.41-.74c-.19-.21-.42-.38-.71-.51-.29-.13-.62-.19-1.01-.19-.72,0-1.33.22-1.83.65-.5.43-.78.99-.83,1.67h4.92Z" />
      <path
        d="M535.43,162.51h2.3v1.6h.04c.27-.56.64-1.01,1.12-1.36.48-.35,1.04-.52,1.68-.52.09,0,.19,0,.3,0,.11,0,.2.02.28.05v2.2c-.16-.04-.3-.07-.41-.08-.11-.01-.22-.02-.33-.02-.55,0-.99.1-1.32.3-.33.2-.59.44-.78.72-.19.28-.31.57-.38.86-.07.29-.1.53-.1.7v5.14h-2.4v-9.6Z" />
      <path
        d="M555.1,162.23c.63,0,1.16.11,1.61.33.45.22.81.51,1.1.87.29.36.5.77.63,1.24.13.47.2.95.2,1.44v6h-2.4v-5.32c0-.28-.02-.57-.06-.88-.04-.31-.13-.58-.26-.83-.13-.25-.32-.45-.55-.61s-.54-.24-.93-.24-.69.08-.96.24c-.27.16-.49.37-.66.62-.17.25-.3.54-.38.85s-.12.62-.12.93v5.24h-2.4v-5.8c0-.6-.14-1.1-.43-1.49-.29-.39-.74-.59-1.35-.59-.36,0-.67.08-.94.23-.27.15-.48.35-.65.59-.17.24-.29.52-.38.83-.09.31-.13.63-.13.95v5.28h-2.4v-9.6h2.28v1.54h.04c.11-.24.25-.47.43-.68.18-.21.39-.41.64-.58.25-.17.53-.31.85-.41s.67-.15,1.06-.15c.75,0,1.37.17,1.86.5.49.33.87.77,1.14,1.32.32-.59.75-1.04,1.28-1.35.53-.31,1.16-.47,1.88-.47Z" />
      <path
        d="M568.28,170.89h-.06c-.24.43-.63.78-1.16,1.05-.53.27-1.14.41-1.82.41-.39,0-.79-.05-1.21-.15s-.81-.27-1.16-.5c-.35-.23-.65-.54-.88-.92-.23-.38-.35-.85-.35-1.41,0-.72.2-1.29.61-1.72.41-.43.93-.75,1.57-.98.64-.23,1.35-.38,2.13-.45.78-.07,1.54-.11,2.29-.11v-.24c0-.6-.22-1.04-.65-1.33-.43-.29-.95-.43-1.55-.43-.51,0-.99.11-1.46.32-.47.21-.85.47-1.16.78l-1.24-1.46c.55-.51,1.18-.89,1.89-1.14.71-.25,1.44-.38,2.17-.38.85,0,1.56.12,2.11.36.55.24.99.55,1.31.94.32.39.54.82.67,1.3.13.48.19.96.19,1.44v5.84h-2.24v-1.22ZM568.23,167.73h-.54c-.39,0-.79.02-1.22.05-.43.03-.82.11-1.18.22-.36.11-.66.27-.9.48-.24.21-.36.49-.36.85,0,.23.05.42.15.57.1.15.23.28.39.37.16.09.34.16.54.2.2.04.4.06.6.06.83,0,1.45-.22,1.88-.66.43-.44.64-1.04.64-1.8v-.34Z" />
      <path
        d="M583.97,172.11h-2.28v-1.44h-.04c-.33.56-.8.99-1.39,1.28-.59.29-1.23.44-1.91.44-.73,0-1.39-.14-1.97-.41-.58-.27-1.07-.64-1.48-1.1-.41-.46-.72-1-.94-1.62-.22-.62-.33-1.28-.33-1.99s.11-1.37.34-1.98c.23-.61.55-1.15.96-1.6.41-.45.91-.81,1.48-1.07.57-.26,1.2-.39,1.88-.39.44,0,.83.05,1.18.15s.65.22.91.37c.26.15.48.31.67.48.19.17.34.34.46.5h.06v-6.74h2.4v15.12ZM576.07,167.27c0,.37.06.75.17,1.12.11.37.28.71.51,1,.23.29.51.53.86.72.35.19.75.28,1.22.28.44,0,.83-.09,1.18-.27.35-.18.64-.42.89-.71.25-.29.43-.62.56-.99.13-.37.19-.74.19-1.11s-.06-.75-.19-1.12c-.13-.37-.31-.71-.56-1-.25-.29-.54-.53-.89-.72-.35-.19-.74-.28-1.18-.28-.47,0-.87.09-1.22.27-.35.18-.63.42-.86.71-.23.29-.4.62-.51.99-.11.37-.17.74-.17,1.11Z" />
      <path
        d="M596.91,167.43v.32c0,.11,0,.21-.02.32h-7.3c.03.35.12.66.27.95.15.29.36.53.61.74.25.21.54.37.86.49.32.12.65.18,1,.18.6,0,1.11-.11,1.52-.33.41-.22.75-.52,1.02-.91l1.6,1.28c-.95,1.28-2.32,1.92-4.12,1.92-.75,0-1.43-.12-2.06-.35-.63-.23-1.17-.56-1.63-.99-.46-.43-.82-.95-1.08-1.57-.26-.62-.39-1.32-.39-2.11s.13-1.48.39-2.11.62-1.17,1.07-1.62c.45-.45.99-.79,1.61-1.04.62-.25,1.29-.37,2.01-.37.67,0,1.28.11,1.85.33.57.22,1.06.55,1.47.98.41.43.74.97.97,1.62.23.65.35,1.4.35,2.27ZM594.51,166.35c0-.31-.04-.6-.13-.88-.09-.28-.22-.53-.41-.74-.19-.21-.42-.38-.71-.51-.29-.13-.62-.19-1.01-.19-.72,0-1.33.22-1.83.65-.5.43-.78.99-.83,1.67h4.92Z" />
    </g>
    <g class="text text-02">
      <path
        d="M472.05,201.93h-1.8v-1.68h2.02l.36-2.44h-1.8v-1.68h2.02l.6-4.18h1.76l-.6,4.18h2.06l.6-4.18h1.74l-.6,4.18h1.8v1.68h-2.04l-.34,2.44h1.8v1.68h-2l-.62,4.18h-1.74l.6-4.18h-2.08l-.6,4.18h-1.74l.6-4.18ZM474.37,197.81l-.34,2.44h2.06l.34-2.44h-2.06Z" />
      <path
        d="M483.51,191.95h4.92c.67,0,1.31.07,1.94.21.63.14,1.18.37,1.67.69.49.32.88.74,1.17,1.26.29.52.44,1.15.44,1.9,0,1.03-.29,1.86-.87,2.51-.58.65-1.37,1.08-2.37,1.31l3.78,6.28h-3.04l-3.28-6h-1.84v6h-2.52v-14.16ZM488.09,198.05c.36,0,.72-.03,1.08-.08.36-.05.68-.15.97-.3.29-.15.52-.36.71-.63.19-.27.28-.62.28-1.05,0-.39-.09-.7-.26-.95-.17-.25-.39-.44-.66-.59-.27-.15-.57-.25-.91-.3-.34-.05-.67-.08-.99-.08h-2.28v3.98h2.06Z" />
      <path
        d="M505.84,201.43v.32c0,.11,0,.21-.02.32h-7.3c.03.35.12.66.27.95.15.29.36.53.61.74.25.21.54.37.86.49.32.12.65.18,1,.18.6,0,1.11-.11,1.52-.33.41-.22.75-.52,1.02-.91l1.6,1.28c-.95,1.28-2.32,1.92-4.12,1.92-.75,0-1.43-.12-2.06-.35-.63-.23-1.17-.56-1.63-.99-.46-.43-.82-.95-1.08-1.57-.26-.62-.39-1.32-.39-2.11s.13-1.48.39-2.11c.26-.63.62-1.17,1.07-1.62.45-.45.99-.79,1.61-1.04.62-.25,1.29-.37,2.01-.37.67,0,1.28.11,1.85.33.57.22,1.06.55,1.47.98.41.43.74.97.97,1.62.23.65.35,1.4.35,2.27ZM503.44,200.35c0-.31-.04-.6-.13-.88-.09-.28-.22-.53-.41-.74-.19-.21-.42-.38-.71-.51-.29-.13-.62-.19-1.01-.19-.72,0-1.33.22-1.83.65-.5.43-.78.99-.83,1.67h4.92Z" />
      <path
        d="M514.92,204.89h-.06c-.24.43-.63.78-1.16,1.05-.53.27-1.14.41-1.82.41-.39,0-.79-.05-1.21-.15s-.81-.27-1.16-.5c-.35-.23-.65-.54-.88-.92-.23-.38-.35-.85-.35-1.41,0-.72.2-1.29.61-1.72.41-.43.93-.75,1.57-.98.64-.23,1.35-.38,2.13-.45.78-.07,1.54-.11,2.29-.11v-.24c0-.6-.22-1.04-.65-1.33-.43-.29-.95-.43-1.55-.43-.51,0-.99.11-1.46.32-.47.21-.85.47-1.16.78l-1.24-1.46c.55-.51,1.18-.89,1.89-1.14.71-.25,1.44-.38,2.17-.38.85,0,1.56.12,2.11.36.55.24.99.55,1.31.94.32.39.54.82.67,1.3.13.48.19.96.19,1.44v5.84h-2.24v-1.22ZM514.88,201.73h-.54c-.39,0-.79.02-1.22.05-.43.03-.82.11-1.18.22-.36.11-.66.27-.9.48-.24.21-.36.49-.36.85,0,.23.05.42.15.57.1.15.23.28.39.37.16.09.34.16.54.2.2.04.4.06.6.06.83,0,1.45-.22,1.88-.66.43-.44.64-1.04.64-1.8v-.34Z" />
      <path
        d="M530.62,206.11h-2.28v-1.44h-.04c-.33.56-.8.99-1.39,1.28-.59.29-1.23.44-1.91.44-.73,0-1.39-.14-1.97-.41-.58-.27-1.07-.64-1.48-1.1-.41-.46-.72-1-.94-1.62-.22-.62-.33-1.28-.33-1.99s.11-1.37.34-1.98c.23-.61.55-1.15.96-1.6.41-.45.91-.81,1.48-1.07.57-.26,1.2-.39,1.88-.39.44,0,.83.05,1.18.15s.65.22.91.37c.26.15.48.31.67.48.19.17.34.34.46.5h.06v-6.74h2.4v15.12ZM522.72,201.27c0,.37.06.75.17,1.12.11.37.28.71.51,1,.23.29.51.53.86.72.35.19.75.28,1.22.28.44,0,.83-.09,1.18-.27.35-.18.64-.42.89-.71.25-.29.43-.62.56-.99.13-.37.19-.74.19-1.11s-.06-.75-.19-1.12c-.13-.37-.31-.71-.56-1-.25-.29-.54-.53-.89-.72-.35-.19-.74-.28-1.18-.28-.47,0-.87.09-1.22.27-.35.18-.63.42-.86.71-.23.29-.4.62-.51.99-.11.37-.17.74-.17,1.11Z" />
      <path
        d="M533.08,196.51h2.66l2.68,6.98h.04l2.38-6.98h2.5l-4.54,11.66c-.17.44-.36.83-.56,1.17-.2.34-.44.63-.72.86-.28.23-.61.41-.99.53-.38.12-.84.18-1.37.18-.2,0-.4,0-.61-.03-.21-.02-.42-.06-.63-.11l.2-2.08c.16.05.32.09.47.11s.3.03.43.03c.25,0,.47-.03.64-.09.17-.06.32-.15.44-.28.12-.13.23-.28.32-.47.09-.19.19-.41.3-.66l.48-1.22-4.12-9.6Z" />
      <path d="M549.86,202.21h-4.8v-2.04h4.8v2.04Z" />
      <path
        d="M555.65,190.99v6.74h.06c.12-.16.27-.33.46-.5.19-.17.41-.33.67-.48.26-.15.56-.27.91-.37.35-.1.74-.15,1.18-.15.68,0,1.31.13,1.88.39.57.26,1.07.62,1.48,1.07.41.45.73.99.96,1.6.23.61.34,1.27.34,1.98s-.11,1.37-.33,1.99c-.22.62-.53,1.16-.94,1.62-.41.46-.9.83-1.48,1.1-.58.27-1.24.41-1.97.41-.68,0-1.32-.15-1.91-.44-.59-.29-1.06-.72-1.39-1.28h-.04v1.44h-2.28v-15.12h2.4ZM561.15,201.27c0-.37-.06-.74-.17-1.11-.11-.37-.28-.7-.51-.99-.23-.29-.51-.53-.86-.71-.35-.18-.75-.27-1.22-.27-.44,0-.83.09-1.18.28-.35.19-.64.43-.89.72-.25.29-.43.63-.56,1-.13.37-.19.75-.19,1.12s.06.74.19,1.11c.13.37.31.7.56.99.25.29.54.53.89.71.35.18.74.27,1.18.27.47,0,.87-.09,1.22-.28.35-.19.63-.43.86-.72.23-.29.4-.63.51-1,.11-.37.17-.75.17-1.12Z" />
      <path
        d="M575.55,206.11h-2.28v-1.54h-.04c-.21.48-.58.9-1.11,1.27-.53.37-1.15.55-1.87.55-.63,0-1.16-.11-1.61-.33-.45-.22-.81-.51-1.1-.87-.29-.36-.5-.77-.63-1.24-.13-.47-.2-.95-.2-1.44v-6h2.4v5.32c0,.28.02.57.06.88.04.31.13.58.26.83.13.25.32.45.55.61.23.16.54.24.93.24s.7-.08.99-.23c.29-.15.52-.35.7-.59.18-.24.32-.52.41-.83.09-.31.14-.63.14-.95v-5.28h2.4v9.6Z" />
      <path
        d="M578.97,193.25c0-.39.14-.72.43-1.01.29-.29.65-.43,1.09-.43s.81.14,1.11.41c.3.27.45.62.45,1.03s-.15.76-.45,1.03c-.3.27-.67.41-1.11.41s-.8-.14-1.09-.43c-.29-.29-.43-.62-.43-1.01ZM579.31,196.51h2.4v9.6h-2.4v-9.6Z" />
      <path d="M585.48,190.99h2.4v15.12h-2.4v-15.12Z" />
      <path
        d="M590.41,198.43v-1.92h1.68v-2.78h2.36v2.78h2.4v1.92h-2.4v4.46c0,.43.08.78.23,1.06.15.28.5.42,1.03.42.16,0,.33-.02.52-.05.19-.03.35-.08.5-.15l.08,1.88c-.21.08-.47.14-.76.19-.29.05-.57.07-.84.07-.64,0-1.16-.09-1.56-.27-.4-.18-.72-.43-.95-.74-.23-.31-.39-.67-.48-1.08-.09-.41-.13-.84-.13-1.31v-4.48h-1.68Z" />
    </g>
    <g class="text text-03">
      <path
        d="M472.05,235.93h-1.8v-1.68h2.02l.36-2.44h-1.8v-1.68h2.02l.6-4.18h1.76l-.6,4.18h2.06l.6-4.18h1.74l-.6,4.18h1.8v1.68h-2.04l-.34,2.44h1.8v1.68h-2l-.62,4.18h-1.74l.6-4.18h-2.08l-.6,4.18h-1.74l.6-4.18ZM474.37,231.81l-.34,2.44h2.06l.34-2.44h-2.06Z" />
      <path
        d="M483.51,225.95h5.02c.92,0,1.85.12,2.78.36.93.24,1.77.64,2.52,1.19.75.55,1.35,1.28,1.82,2.18s.7,2.02.7,3.35c0,1.24-.23,2.31-.7,3.2-.47.89-1.07,1.63-1.82,2.2-.75.57-1.59,1-2.52,1.27-.93.27-1.86.41-2.78.41h-5.02v-14.16ZM488.13,237.91c.65,0,1.31-.08,1.96-.23.65-.15,1.24-.41,1.77-.78.53-.37.96-.86,1.29-1.49.33-.63.5-1.42.5-2.38,0-1.01-.17-1.84-.5-2.48-.33-.64-.76-1.14-1.29-1.5-.53-.36-1.12-.61-1.77-.74-.65-.13-1.31-.2-1.96-.2h-2.1v9.8h2.1Z" />
      <path
        d="M508.67,235.43v.32c0,.11,0,.21-.02.32h-7.3c.03.35.12.66.27.95.15.29.36.53.61.74.25.21.54.37.86.49.32.12.65.18,1,.18.6,0,1.11-.11,1.52-.33.41-.22.75-.52,1.02-.91l1.6,1.28c-.95,1.28-2.32,1.92-4.12,1.92-.75,0-1.43-.12-2.06-.35-.63-.23-1.17-.56-1.63-.99-.46-.43-.82-.95-1.08-1.57-.26-.62-.39-1.32-.39-2.11s.13-1.48.39-2.11c.26-.63.62-1.17,1.07-1.62.45-.45.99-.79,1.61-1.04.62-.25,1.29-.37,2.01-.37.67,0,1.28.11,1.85.33.57.22,1.06.55,1.47.98.41.43.74.97.97,1.62.23.65.35,1.4.35,2.27ZM506.27,234.35c0-.31-.04-.6-.13-.88s-.22-.53-.41-.74c-.19-.21-.42-.38-.71-.51-.29-.13-.62-.19-1.01-.19-.72,0-1.33.22-1.83.65-.5.43-.78.99-.83,1.67h4.92Z" />
      <path
        d="M517.18,233.07c-.21-.28-.51-.52-.88-.73-.37-.21-.78-.31-1.22-.31-.39,0-.74.08-1.06.24-.32.16-.48.43-.48.8s.18.64.53.79c.35.15.87.31,1.55.47.36.08.72.19,1.09.32s.7.31,1,.53c.3.22.54.49.73.82.19.33.28.72.28,1.19,0,.59-.11,1.08-.33,1.49-.22.41-.51.74-.88.99s-.79.44-1.28.55c-.49.11-.99.17-1.51.17-.75,0-1.47-.14-2.18-.41-.71-.27-1.29-.66-1.76-1.17l1.58-1.48c.27.35.61.63,1.04.86.43.23.9.34,1.42.34.17,0,.35-.02.53-.06s.35-.1.5-.19c.15-.09.28-.2.37-.35.09-.15.14-.33.14-.54,0-.4-.18-.69-.55-.86-.37-.17-.92-.35-1.65-.52-.36-.08-.71-.18-1.05-.31-.34-.13-.64-.29-.91-.5-.27-.21-.48-.46-.64-.77-.16-.31-.24-.69-.24-1.14,0-.53.11-.99.33-1.38.22-.39.51-.7.87-.95.36-.25.77-.43,1.22-.55.45-.12.92-.18,1.4-.18.69,0,1.37.12,2.03.36.66.24,1.18.61,1.57,1.1l-1.56,1.38Z" />
      <path
        d="M521.48,227.25c0-.39.14-.72.43-1.01.29-.29.65-.43,1.09-.43s.81.14,1.11.41c.3.27.45.62.45,1.03s-.15.76-.45,1.03c-.3.27-.67.41-1.11.41s-.8-.14-1.09-.43c-.29-.29-.43-.62-.43-1.01ZM521.82,230.51h2.4v9.6h-2.4v-9.6Z" />
      <path
        d="M537.71,230.51v8.74c0,.87-.11,1.65-.32,2.35-.21.7-.54,1.29-.99,1.78-.45.49-1.01.86-1.69,1.13-.68.27-1.49.4-2.42.4-.39,0-.8-.03-1.23-.1-.43-.07-.86-.17-1.28-.3-.42-.13-.82-.3-1.21-.5s-.73-.43-1.04-.68l1.38-1.86c.47.44.99.78,1.58,1.01.59.23,1.18.35,1.78.35s1.06-.08,1.45-.25c.39-.17.71-.4.94-.69.23-.29.4-.64.5-1.04.1-.4.15-.84.15-1.33v-.7h-.04c-.35.47-.79.83-1.33,1.08-.54.25-1.14.37-1.81.37-.72,0-1.37-.13-1.96-.4-.59-.27-1.08-.63-1.49-1.08-.41-.45-.72-.98-.95-1.59-.23-.61-.34-1.25-.34-1.93s.11-1.35.33-1.96c.22-.61.53-1.15.94-1.6.41-.45.9-.81,1.48-1.08s1.23-.4,1.95-.4c.68,0,1.31.14,1.9.42.59.28,1.05.71,1.4,1.3h.04v-1.44h2.28ZM532.59,232.19c-.44,0-.83.08-1.17.24-.34.16-.63.38-.86.65-.23.27-.41.59-.54.97-.13.37-.19.77-.19,1.2,0,.39.06.76.19,1.12s.31.68.54.97c.23.29.52.52.86.69.34.17.72.26,1.15.26s.84-.08,1.19-.25c.35-.17.65-.39.9-.67.25-.28.44-.6.57-.97.13-.37.2-.75.2-1.15s-.07-.8-.2-1.18c-.13-.37-.32-.7-.57-.98-.25-.28-.54-.5-.89-.66-.35-.16-.74-.24-1.18-.24Z" />
      <path
        d="M541.44,230.51h2.28v1.54h.04c.21-.48.58-.9,1.11-1.27.53-.37,1.15-.55,1.87-.55.63,0,1.16.11,1.61.33.45.22.81.51,1.1.87.29.36.5.77.63,1.24.13.47.2.95.2,1.44v6h-2.4v-5.32c0-.28-.02-.57-.06-.88-.04-.31-.13-.58-.26-.83-.13-.25-.32-.45-.55-.61s-.54-.24-.93-.24-.72.08-1,.23c-.28.15-.51.35-.69.59-.18.24-.32.52-.41.83-.09.31-.14.63-.14.95v5.28h-2.4v-9.6Z" />
    </g>
    <g class="text text-04">
      <path
        d="M472.05,269.93h-1.8v-1.68h2.02l.36-2.44h-1.8v-1.68h2.02l.6-4.18h1.76l-.6,4.18h2.06l.6-4.18h1.74l-.6,4.18h1.8v1.68h-2.04l-.34,2.44h1.8v1.68h-2l-.62,4.18h-1.74l.6-4.18h-2.08l-.6,4.18h-1.74l.6-4.18ZM474.37,265.81l-.34,2.44h2.06l.34-2.44h-2.06Z" />
      <path
        d="M493.71,263.27c-.37-.51-.86-.88-1.46-1.11-.6-.23-1.19-.35-1.76-.35-.73,0-1.4.13-2,.4s-1.12.63-1.55,1.1c-.43.47-.77,1.01-1,1.64-.23.63-.35,1.31-.35,2.04,0,.77.11,1.48.34,2.12.23.64.55,1.19.97,1.65.42.46.92.82,1.51,1.07.59.25,1.25.38,1.98.38s1.43-.15,2.02-.45c.59-.3,1.06-.7,1.42-1.19l2.02,1.42c-.63.79-1.39,1.4-2.3,1.83-.91.43-1.97.65-3.18.65-1.11,0-2.12-.18-3.05-.55-.93-.37-1.72-.88-2.39-1.54-.67-.66-1.19-1.45-1.56-2.36-.37-.91-.56-1.92-.56-3.03s.2-2.16.59-3.07c.39-.91.93-1.69,1.62-2.33.69-.64,1.5-1.13,2.43-1.48.93-.35,1.95-.52,3.04-.52.45,0,.93.04,1.42.13.49.09.97.22,1.42.4.45.18.88.4,1.28.67.4.27.74.59,1.02.96l-1.92,1.52Z" />
      <path
        d="M497.73,269.27c0-.76.14-1.45.41-2.07.27-.62.64-1.15,1.11-1.59.47-.44,1.02-.78,1.66-1.02.64-.24,1.32-.36,2.04-.36s1.4.12,2.04.36c.64.24,1.19.58,1.66,1.02.47.44.84.97,1.11,1.59.27.62.41,1.31.41,2.07s-.14,1.45-.41,2.08c-.27.63-.64,1.16-1.11,1.61-.47.45-1.02.8-1.66,1.05-.64.25-1.32.38-2.04.38s-1.4-.13-2.04-.38c-.64-.25-1.19-.6-1.66-1.05-.47-.45-.84-.98-1.11-1.61-.27-.63-.41-1.32-.41-2.08ZM500.17,269.27c0,.37.06.75.17,1.12.11.37.28.71.51,1,.23.29.51.53.86.72.35.19.76.28,1.24.28s.89-.09,1.24-.28c.35-.19.63-.43.86-.72.23-.29.4-.63.51-1,.11-.37.17-.75.17-1.12s-.06-.74-.17-1.11c-.11-.37-.28-.7-.51-.99-.23-.29-.51-.53-.86-.71-.35-.18-.76-.27-1.24-.27s-.89.09-1.24.27c-.35.18-.63.42-.86.71-.23.29-.4.62-.51.99-.11.37-.17.74-.17,1.11Z" />
      <path
        d="M516.62,267.07c-.21-.28-.51-.52-.88-.73-.37-.21-.78-.31-1.22-.31-.39,0-.74.08-1.06.24-.32.16-.48.43-.48.8s.18.64.53.79c.35.15.87.31,1.55.47.36.08.72.19,1.09.32s.7.31,1,.53c.3.22.54.49.73.82.19.33.28.72.28,1.19,0,.59-.11,1.08-.33,1.49-.22.41-.51.74-.88.99s-.79.44-1.28.55c-.49.11-.99.17-1.51.17-.75,0-1.47-.14-2.18-.41-.71-.27-1.29-.66-1.76-1.17l1.58-1.48c.27.35.61.63,1.04.86.43.23.9.34,1.42.34.17,0,.35-.02.53-.06s.35-.1.5-.19c.15-.09.28-.2.37-.35.09-.15.14-.33.14-.54,0-.4-.18-.69-.55-.86-.37-.17-.92-.35-1.65-.52-.36-.08-.71-.18-1.05-.31-.34-.13-.64-.29-.91-.5-.27-.21-.48-.46-.64-.77-.16-.31-.24-.69-.24-1.14,0-.53.11-.99.33-1.38.22-.39.51-.7.87-.95.36-.25.77-.43,1.22-.55.45-.12.92-.18,1.4-.18.69,0,1.37.12,2.03.36.66.24,1.18.61,1.57,1.1l-1.56,1.38Z" />
      <path
        d="M520.25,266.43v-1.92h1.68v-2.78h2.36v2.78h2.4v1.92h-2.4v4.46c0,.43.08.78.23,1.06.15.28.5.42,1.03.42.16,0,.33-.02.52-.05s.35-.08.5-.15l.08,1.88c-.21.08-.47.14-.76.19-.29.05-.57.07-.84.07-.64,0-1.16-.09-1.56-.27-.4-.18-.72-.43-.95-.74-.23-.31-.39-.67-.48-1.08-.09-.41-.13-.84-.13-1.31v-4.48h-1.68Z" />
      <path
        d="M529.63,259.95h4.62c.81,0,1.55.07,2.2.22.65.15,1.21.39,1.68.72.47.33.83.76,1.08,1.28.25.52.38,1.15.38,1.88,0,.79-.15,1.45-.44,1.98-.29.53-.69.96-1.19,1.29s-1.08.56-1.75.71c-.67.15-1.37.22-2.12.22h-1.94v5.86h-2.52v-14.16ZM533.91,266.13c.41,0,.81-.03,1.18-.09.37-.06.71-.17,1-.32.29-.15.53-.36.7-.63.17-.27.26-.61.26-1.04s-.09-.75-.26-1.01c-.17-.26-.4-.46-.69-.61-.29-.15-.61-.24-.98-.29-.37-.05-.74-.07-1.13-.07h-1.84v4.06h1.76Z" />
      <path
        d="M551.18,269.43v.32c0,.11,0,.21-.02.32h-7.3c.03.35.12.66.27.95.15.29.36.53.61.74.25.21.54.37.86.49.32.12.65.18,1,.18.6,0,1.11-.11,1.52-.33.41-.22.75-.52,1.02-.91l1.6,1.28c-.95,1.28-2.32,1.92-4.12,1.92-.75,0-1.43-.12-2.06-.35-.63-.23-1.17-.56-1.63-.99-.46-.43-.82-.95-1.08-1.57-.26-.62-.39-1.32-.39-2.11s.13-1.48.39-2.11c.26-.63.62-1.17,1.07-1.62.45-.45.99-.79,1.61-1.04.62-.25,1.29-.37,2.01-.37.67,0,1.28.11,1.85.33.57.22,1.06.55,1.47.98.41.43.74.97.97,1.62.23.65.35,1.4.35,2.27ZM548.78,268.35c0-.31-.04-.6-.13-.88-.09-.28-.22-.53-.41-.74-.19-.21-.42-.38-.71-.51-.29-.13-.62-.19-1.01-.19-.72,0-1.33.22-1.83.65-.5.43-.78.99-.83,1.67h4.92Z" />
      <path
        d="M554.38,264.51h2.3v1.6h.04c.27-.56.64-1.01,1.12-1.36.48-.35,1.04-.52,1.68-.52.09,0,.19,0,.3,0,.11,0,.2.02.28.05v2.2c-.16-.04-.3-.07-.41-.08-.11-.01-.22-.02-.33-.02-.55,0-.99.1-1.32.3-.33.2-.59.44-.78.72-.19.28-.31.57-.38.86-.07.29-.1.53-.1.7v5.14h-2.4v-9.6Z" />
      <path
        d="M563.71,266.43h-1.82v-1.92h1.82v-1.42c0-.57.06-1.12.19-1.65.13-.53.34-.99.64-1.39.3-.4.7-.72,1.19-.95.49-.23,1.11-.35,1.86-.35.27,0,.49.01.67.03.18.02.36.06.55.11l-.16,2.04c-.13-.04-.28-.07-.43-.1-.15-.03-.32-.04-.49-.04-.35,0-.63.07-.84.2s-.38.31-.49.52c-.11.21-.19.45-.23.7-.04.25-.06.5-.06.74v1.56h2.22v1.92h-2.22v7.68h-2.4v-7.68Z" />
      <path
        d="M570.2,269.27c0-.76.14-1.45.41-2.07.27-.62.64-1.15,1.11-1.59.47-.44,1.02-.78,1.66-1.02.64-.24,1.32-.36,2.04-.36s1.4.12,2.04.36c.64.24,1.19.58,1.66,1.02.47.44.84.97,1.11,1.59.27.62.41,1.31.41,2.07s-.14,1.45-.41,2.08c-.27.63-.64,1.16-1.11,1.61-.47.45-1.02.8-1.66,1.05-.64.25-1.32.38-2.04.38s-1.4-.13-2.04-.38c-.64-.25-1.19-.6-1.66-1.05-.47-.45-.84-.98-1.11-1.61-.27-.63-.41-1.32-.41-2.08ZM572.63,269.27c0,.37.06.75.17,1.12.11.37.28.71.51,1,.23.29.51.53.86.72.35.19.76.28,1.24.28s.89-.09,1.24-.28c.35-.19.63-.43.86-.72.23-.29.4-.63.51-1,.11-.37.17-.75.17-1.12s-.06-.74-.17-1.11c-.11-.37-.28-.7-.51-.99-.23-.29-.51-.53-.86-.71-.35-.18-.76-.27-1.24-.27s-.89.09-1.24.27c-.35.18-.63.42-.86.71-.23.29-.4.62-.51.99-.11.37-.17.74-.17,1.11Z" />
      <path
        d="M583.81,264.51h2.3v1.6h.04c.27-.56.64-1.01,1.12-1.36.48-.35,1.04-.52,1.68-.52.09,0,.19,0,.3,0,.11,0,.2.02.28.05v2.2c-.16-.04-.3-.07-.41-.08-.11-.01-.22-.02-.33-.02-.55,0-.99.1-1.32.3-.33.2-.59.44-.78.72-.19.28-.31.57-.38.86-.07.29-.1.53-.1.7v5.14h-2.4v-9.6Z" />
      <path
        d="M603.48,264.23c.63,0,1.16.11,1.61.33.45.22.81.51,1.1.87.29.36.5.77.63,1.24.13.47.2.95.2,1.44v6h-2.4v-5.32c0-.28-.02-.57-.06-.88-.04-.31-.13-.58-.26-.83-.13-.25-.32-.45-.55-.61s-.54-.24-.93-.24-.69.08-.96.24c-.27.16-.49.37-.66.62-.17.25-.3.54-.38.85s-.12.62-.12.93v5.24h-2.4v-5.8c0-.6-.14-1.1-.43-1.49-.29-.39-.74-.59-1.35-.59-.36,0-.67.08-.94.23-.27.15-.48.35-.65.59-.17.24-.29.52-.38.83-.09.31-.13.63-.13.95v5.28h-2.4v-9.6h2.28v1.54h.04c.11-.24.25-.47.43-.68.18-.21.39-.41.64-.58.25-.17.53-.31.85-.41s.67-.15,1.06-.15c.75,0,1.37.17,1.86.5.49.33.87.77,1.14,1.32.32-.59.75-1.04,1.28-1.35.53-.31,1.16-.47,1.88-.47Z" />
      <path
        d="M616.65,272.89h-.06c-.24.43-.63.78-1.16,1.05-.53.27-1.14.41-1.82.41-.39,0-.79-.05-1.21-.15s-.81-.27-1.16-.5c-.35-.23-.65-.54-.88-.92-.23-.38-.35-.85-.35-1.41,0-.72.2-1.29.61-1.72.41-.43.93-.75,1.57-.98.64-.23,1.35-.38,2.13-.45.78-.07,1.54-.11,2.29-.11v-.24c0-.6-.22-1.04-.65-1.33-.43-.29-.95-.43-1.55-.43-.51,0-.99.11-1.46.32-.47.21-.85.47-1.16.78l-1.24-1.46c.55-.51,1.18-.89,1.89-1.14.71-.25,1.44-.38,2.17-.38.85,0,1.56.12,2.11.36.55.24.99.55,1.31.94.32.39.54.82.67,1.3.13.48.19.96.19,1.44v5.84h-2.24v-1.22ZM616.61,269.73h-.54c-.39,0-.79.02-1.22.05-.43.03-.82.11-1.18.22-.36.11-.66.27-.9.48-.24.21-.36.49-.36.85,0,.23.05.42.15.57.1.15.23.28.39.37.16.09.34.16.54.2.2.04.4.06.6.06.83,0,1.45-.22,1.88-.66.43-.44.64-1.04.64-1.8v-.34Z" />
      <path
        d="M622.57,264.51h2.28v1.54h.04c.21-.48.58-.9,1.11-1.27.53-.37,1.15-.55,1.87-.55.63,0,1.16.11,1.61.33.45.22.81.51,1.1.87.29.36.5.77.63,1.24s.2.95.2,1.44v6h-2.4v-5.32c0-.28-.02-.57-.06-.88-.04-.31-.13-.58-.26-.83-.13-.25-.32-.45-.55-.61-.23-.16-.54-.24-.93-.24s-.72.08-1,.23c-.28.15-.51.35-.69.59-.18.24-.32.52-.41.83-.09.31-.14.63-.14.95v5.28h-2.4v-9.6Z" />
      <path
        d="M641.65,267.17c-.19-.27-.47-.49-.84-.67-.37-.18-.75-.27-1.14-.27-.44,0-.83.09-1.16.27-.33.18-.61.42-.83.71-.22.29-.38.62-.49.99-.11.37-.16.74-.16,1.11s.06.74.17,1.11.28.7.51.99c.23.29.51.53.85.71.34.18.74.27,1.19.27.37,0,.75-.07,1.12-.22.37-.15.67-.36.9-.64l1.5,1.52c-.4.43-.91.76-1.53.99-.62.23-1.29.35-2.01.35s-1.38-.11-2.01-.34c-.63-.23-1.19-.56-1.66-1-.47-.44-.85-.97-1.12-1.6-.27-.63-.41-1.34-.41-2.14s.14-1.47.41-2.1c.27-.63.64-1.16,1.11-1.6.47-.44,1.01-.78,1.63-1.02.62-.24,1.28-.36,1.99-.36s1.39.13,2.05.4c.66.27,1.18.63,1.57,1.1l-1.64,1.44Z" />
      <path
        d="M654.78,269.43v.32c0,.11,0,.21-.02.32h-7.3c.03.35.12.66.27.95.15.29.36.53.61.74.25.21.54.37.86.49.32.12.65.18,1,.18.6,0,1.11-.11,1.52-.33.41-.22.75-.52,1.02-.91l1.6,1.28c-.95,1.28-2.32,1.92-4.12,1.92-.75,0-1.43-.12-2.06-.35-.63-.23-1.17-.56-1.63-.99-.46-.43-.82-.95-1.08-1.57-.26-.62-.39-1.32-.39-2.11s.13-1.48.39-2.11c.26-.63.62-1.17,1.07-1.62.45-.45.99-.79,1.61-1.04.62-.25,1.29-.37,2.01-.37.67,0,1.28.11,1.85.33.57.22,1.06.55,1.47.98.41.43.74.97.97,1.62.23.65.35,1.4.35,2.27ZM652.38,268.35c0-.31-.04-.6-.13-.88-.09-.28-.22-.53-.41-.74-.19-.21-.42-.38-.71-.51-.29-.13-.62-.19-1.01-.19-.72,0-1.33.22-1.83.65-.5.43-.78.99-.83,1.67h4.92Z" />
    </g>
    <g class="text text-05">
      <path
        d="M472.05,303.93h-1.8v-1.68h2.02l.36-2.44h-1.8v-1.68h2.02l.6-4.18h1.76l-.6,4.18h2.06l.6-4.18h1.74l-.6,4.18h1.8v1.68h-2.04l-.34,2.44h1.8v1.68h-2l-.62,4.18h-1.74l.6-4.18h-2.08l-.6,4.18h-1.74l.6-4.18ZM474.37,299.81l-.34,2.44h2.06l.34-2.44h-2.06Z" />
      <path d="M483.51,293.95h9.38v2.2h-6.86v3.6h6.5v2.12h-6.5v4h7.22v2.24h-9.74v-14.16Z" />
      <path
        d="M499.32,303.01l-3.46-4.5h2.88l2.08,2.98,2.14-2.98h2.76l-3.44,4.5,3.92,5.1h-2.92l-2.5-3.5-2.52,3.5h-2.84l3.9-5.1Z" />
      <path
        d="M507.7,300.43v-1.92h1.68v-2.78h2.36v2.78h2.4v1.92h-2.4v4.46c0,.43.08.78.23,1.06.15.28.5.42,1.03.42.16,0,.33-.02.52-.05.19-.03.35-.08.5-.15l.08,1.88c-.21.08-.47.14-.76.19-.29.05-.57.07-.84.07-.64,0-1.16-.09-1.56-.27-.4-.18-.72-.43-.95-.74-.23-.31-.39-.67-.48-1.08-.09-.41-.13-.84-.13-1.31v-4.48h-1.68Z" />
      <path
        d="M525.86,303.43v.32c0,.11,0,.21-.02.32h-7.3c.03.35.12.66.27.95.15.29.36.53.61.74.25.21.54.37.86.49.32.12.65.18,1,.18.6,0,1.11-.11,1.52-.33.41-.22.75-.52,1.02-.91l1.6,1.28c-.95,1.28-2.32,1.92-4.12,1.92-.75,0-1.43-.12-2.06-.35-.63-.23-1.17-.56-1.63-.99-.46-.43-.82-.95-1.08-1.57-.26-.62-.39-1.32-.39-2.11s.13-1.48.39-2.11.62-1.17,1.07-1.62c.45-.45.99-.79,1.61-1.04.62-.25,1.29-.37,2.01-.37.67,0,1.28.11,1.85.33.57.22,1.06.55,1.47.98.41.43.74.97.97,1.62.23.65.35,1.4.35,2.27ZM523.45,302.35c0-.31-.04-.6-.13-.88s-.22-.53-.41-.74c-.19-.21-.42-.38-.71-.51-.29-.13-.62-.19-1.01-.19-.72,0-1.33.22-1.83.65-.5.43-.78.99-.83,1.67h4.92Z" />
      <path
        d="M529.06,298.51h2.3v1.6h.04c.27-.56.64-1.01,1.12-1.36.48-.35,1.04-.52,1.68-.52.09,0,.19,0,.3,0,.11,0,.2.02.28.05v2.2c-.16-.04-.3-.07-.41-.08-.11-.01-.22-.02-.33-.02-.55,0-.99.1-1.32.3-.33.2-.59.44-.78.72-.19.28-.31.57-.38.86-.07.29-.1.53-.1.7v5.14h-2.4v-9.6Z" />
      <path
        d="M536.96,295.25c0-.39.14-.72.43-1.01.29-.29.65-.43,1.09-.43s.81.14,1.11.41c.3.27.45.62.45,1.03s-.15.76-.45,1.03c-.3.27-.67.41-1.11.41s-.8-.14-1.09-.43c-.29-.29-.43-.62-.43-1.01ZM537.3,298.51h2.4v9.6h-2.4v-9.6Z" />
      <path
        d="M542.87,303.27c0-.76.14-1.45.41-2.07.27-.62.64-1.15,1.11-1.59.47-.44,1.02-.78,1.66-1.02.64-.24,1.32-.36,2.04-.36s1.4.12,2.04.36c.64.24,1.19.58,1.66,1.02.47.44.84.97,1.11,1.59.27.62.41,1.31.41,2.07s-.14,1.45-.41,2.08c-.27.63-.64,1.16-1.11,1.61-.47.45-1.02.8-1.66,1.05-.64.25-1.32.38-2.04.38s-1.4-.13-2.04-.38c-.64-.25-1.19-.6-1.66-1.05-.47-.45-.84-.98-1.11-1.61-.27-.63-.41-1.32-.41-2.08ZM545.3,303.27c0,.37.06.75.17,1.12.11.37.28.71.51,1,.23.29.51.53.86.72.35.19.76.28,1.24.28s.89-.09,1.24-.28c.35-.19.63-.43.86-.72.23-.29.4-.63.51-1,.11-.37.17-.75.17-1.12s-.06-.74-.17-1.11c-.11-.37-.28-.7-.51-.99-.23-.29-.51-.53-.86-.71-.35-.18-.76-.27-1.24-.27s-.89.09-1.24.27c-.35.18-.63.42-.86.71s-.4.62-.51.99c-.11.37-.17.74-.17,1.11Z" />
      <path
        d="M556.48,298.51h2.3v1.6h.04c.27-.56.64-1.01,1.12-1.36.48-.35,1.04-.52,1.68-.52.09,0,.19,0,.3,0,.11,0,.2.02.28.05v2.2c-.16-.04-.3-.07-.41-.08-.11-.01-.22-.02-.33-.02-.55,0-.99.1-1.32.3-.33.2-.59.44-.78.72-.19.28-.31.57-.38.86-.07.29-.1.53-.1.7v5.14h-2.4v-9.6Z" />
    </g>
    <g class="text text-06">
      <path
        d="M472.05,337.93h-1.8v-1.68h2.02l.36-2.44h-1.8v-1.68h2.02l.6-4.18h1.76l-.6,4.18h2.06l.6-4.18h1.74l-.6,4.18h1.8v1.68h-2.04l-.34,2.44h1.8v1.68h-2l-.62,4.18h-1.74l.6-4.18h-2.08l-.6,4.18h-1.74l.6-4.18ZM474.37,333.81l-.34,2.44h2.06l.34-2.44h-2.06Z" />
      <path d="M483.5,327.95h2.52v14.16h-2.52v-14.16Z" />
      <path
        d="M489.93,332.51h2.28v1.54h.04c.21-.48.58-.9,1.11-1.27.53-.37,1.15-.55,1.87-.55.63,0,1.16.11,1.61.33.45.22.81.51,1.1.87.29.36.5.77.63,1.24s.2.95.2,1.44v6h-2.4v-5.32c0-.28-.02-.57-.06-.88-.04-.31-.13-.58-.26-.83-.13-.25-.32-.45-.55-.61s-.54-.24-.93-.24-.72.08-1,.23c-.28.15-.51.35-.69.59-.18.24-.32.52-.41.83-.09.31-.14.63-.14.95v5.28h-2.4v-9.6Z" />
      <path
        d="M501.11,334.43v-1.92h1.68v-2.78h2.36v2.78h2.4v1.92h-2.4v4.46c0,.43.08.78.23,1.06.15.28.5.42,1.03.42.16,0,.33-.02.52-.05s.35-.08.5-.15l.08,1.88c-.21.08-.47.14-.76.19-.29.05-.57.07-.84.07-.64,0-1.16-.09-1.56-.27-.4-.18-.72-.43-.95-.74-.23-.31-.39-.67-.48-1.08-.09-.41-.13-.84-.13-1.31v-4.48h-1.68Z" />
      <path
        d="M519.26,337.43v.32c0,.11,0,.21-.02.32h-7.3c.03.35.12.66.27.95.15.29.36.53.61.74.25.21.54.37.86.49.32.12.65.18,1,.18.6,0,1.11-.11,1.52-.33.41-.22.75-.52,1.02-.91l1.6,1.28c-.95,1.28-2.32,1.92-4.12,1.92-.75,0-1.43-.12-2.06-.35-.63-.23-1.17-.56-1.63-.99-.46-.43-.82-.95-1.08-1.57-.26-.62-.39-1.32-.39-2.11s.13-1.48.39-2.11c.26-.63.62-1.17,1.07-1.62.45-.45.99-.79,1.61-1.04.62-.25,1.29-.37,2.01-.37.67,0,1.28.11,1.85.33.57.22,1.06.55,1.47.98.41.43.74.97.97,1.62.23.65.35,1.4.35,2.27ZM516.86,336.35c0-.31-.04-.6-.13-.88-.09-.28-.22-.53-.41-.74-.19-.21-.42-.38-.71-.51-.29-.13-.62-.19-1.01-.19-.72,0-1.33.22-1.83.65-.5.43-.78.99-.83,1.67h4.92Z" />
      <path
        d="M522.47,332.51h2.3v1.6h.04c.27-.56.64-1.01,1.12-1.36.48-.35,1.04-.52,1.68-.52.09,0,.19,0,.3,0,.11,0,.2.02.28.05v2.2c-.16-.04-.3-.07-.41-.08-.11-.01-.22-.02-.33-.02-.55,0-.99.1-1.32.3-.33.2-.59.44-.78.72-.19.28-.31.57-.38.86-.07.29-.1.53-.1.7v5.14h-2.4v-9.6Z" />
      <path
        d="M530.36,329.25c0-.39.14-.72.43-1.01.29-.29.65-.43,1.09-.43s.81.14,1.11.41c.3.27.45.62.45,1.03s-.15.76-.45,1.03c-.3.27-.67.41-1.11.41s-.8-.14-1.09-.43c-.29-.29-.43-.62-.43-1.01ZM530.7,332.51h2.4v9.6h-2.4v-9.6Z" />
      <path
        d="M536.27,337.27c0-.76.14-1.45.41-2.07.27-.62.64-1.15,1.11-1.59.47-.44,1.02-.78,1.66-1.02.64-.24,1.32-.36,2.04-.36s1.4.12,2.04.36c.64.24,1.19.58,1.66,1.02.47.44.84.97,1.11,1.59s.41,1.31.41,2.07-.14,1.45-.41,2.08c-.27.63-.64,1.16-1.11,1.61-.47.45-1.02.8-1.66,1.05-.64.25-1.32.38-2.04.38s-1.4-.13-2.04-.38c-.64-.25-1.19-.6-1.66-1.05-.47-.45-.84-.98-1.11-1.61-.27-.63-.41-1.32-.41-2.08ZM538.71,337.27c0,.37.06.75.17,1.12.11.37.28.71.51,1,.23.29.51.53.86.72.35.19.76.28,1.24.28s.89-.09,1.24-.28c.35-.19.63-.43.86-.72.23-.29.4-.63.51-1,.11-.37.17-.75.17-1.12s-.06-.74-.17-1.11c-.11-.37-.28-.7-.51-.99-.23-.29-.51-.53-.86-.71-.35-.18-.76-.27-1.24-.27s-.89.09-1.24.27c-.35.18-.63.42-.86.71-.23.29-.4.62-.51.99-.11.37-.17.74-.17,1.11Z" />
      <path
        d="M549.88,332.51h2.3v1.6h.04c.27-.56.64-1.01,1.12-1.36.48-.35,1.04-.52,1.68-.52.09,0,.19,0,.3,0,.11,0,.2.02.28.05v2.2c-.16-.04-.3-.07-.41-.08-.11-.01-.22-.02-.33-.02-.55,0-.99.1-1.32.3-.33.2-.59.44-.78.72-.19.28-.31.57-.38.86-.07.29-.1.53-.1.7v5.14h-2.4v-9.6Z" />
    </g>
  </g>
</svg>