<?xml version="1.0" encoding="UTF-8"?>
<svg id="uuid-986f4103-6b48-4250-9b4a-9304613249cf" data-name="レイヤー_2" xmlns="http://www.w3.org/2000/svg" viewBox="0 0 29.1 28.99">
  <g id="uuid-8ac037b2-93cd-41c4-967d-ff052f0bedea" data-name="レイヤー_1">
    <path id="uuid-d46cae18-e6d1-412c-8703-d727f07a705f" data-name="Initiator" d="M29.1,14.55C29.1,6.51,22.58,0,14.55,0S0,6.51,0,14.55c0,6.82,4.7,12.55,11.03,14.12v-9.67h-3v-4.45h3v-1.92c0-4.95,2.24-7.25,7.1-7.25.92,0,2.51.18,3.16.36v4.03c-.34-.04-.94-.05-1.68-.05-2.39,0-3.31.9-3.31,3.25v1.57h4.75l-.82,4.45h-3.94v10c7.2-.87,12.79-7,12.79-14.44Z" style="fill: #fff;"/>
  </g>
</svg>