<?xml version="1.0" encoding="UTF-8"?>
<svg id="_レイヤー_2" data-name="レイヤー 2" xmlns="http://www.w3.org/2000/svg" viewBox="0 0 59 113.89">
  <defs>
    <style>
      .cls-1 {
        stroke: #c91933;
      }

      .cls-1, .cls-2 {
        fill: none;
        stroke-miterlimit: 10;
      }

      .cls-3 {
        fill: #c81932;
      }

      .cls-2 {
        stroke: #c9002e;
      }
    </style>
  </defs>
  <g id="_レイヤー_1-2" data-name="レイヤー 1">
    <g>
      <line class="cls-1" x1="29.5" y1="55.15" x2="29.5"/>
      <circle class="cls-2" cx="29.5" cy="84.39" r="29"/>
      <path class="cls-3" d="M15.6,73.63h2.77c.49,0,.93.04,1.32.13.39.09.73.23,1.01.43.28.2.5.46.65.77.15.31.23.69.23,1.13,0,.47-.09.87-.26,1.19-.18.32-.41.58-.71.77-.3.2-.65.34-1.05.43-.4.09-.82.13-1.27.13h-1.16v3.52h-1.51v-8.5ZM18.17,77.34c.25,0,.48-.02.71-.05.22-.04.42-.1.6-.19.18-.09.32-.22.42-.38.1-.16.16-.37.16-.62s-.05-.45-.16-.61c-.1-.16-.24-.28-.41-.37s-.37-.15-.59-.17c-.22-.03-.45-.04-.68-.04h-1.1v2.44h1.06Z"/>
      <path class="cls-3" d="M21.92,79.22c0-.46.08-.87.25-1.24s.39-.69.67-.95c.28-.26.61-.47,1-.61.38-.14.79-.22,1.22-.22s.84.07,1.22.22c.38.14.72.35,1,.61.28.26.5.58.67.95s.25.79.25,1.24-.08.87-.25,1.25-.39.7-.67.97c-.28.27-.61.48-1,.63-.38.15-.79.23-1.22.23s-.84-.08-1.22-.23c-.38-.15-.72-.36-1-.63-.28-.27-.5-.59-.67-.97s-.25-.79-.25-1.25ZM23.39,79.22c0,.22.03.45.1.67.07.22.17.42.31.6.14.18.31.32.52.43.21.11.46.17.74.17s.54-.06.74-.17c.21-.11.38-.26.52-.43.14-.18.24-.38.31-.6.07-.22.1-.45.1-.67s-.03-.45-.1-.67c-.07-.22-.17-.42-.31-.59-.14-.18-.31-.32-.52-.43-.21-.11-.46-.16-.74-.16s-.54.05-.74.16c-.21.11-.38.25-.52.43-.14.18-.24.37-.31.59-.07.22-.1.44-.1.67Z"/>
      <path class="cls-3" d="M29.86,74.41c0-.23.09-.43.26-.61.17-.17.39-.26.65-.26s.49.08.67.25c.18.16.27.37.27.62s-.09.45-.27.62c-.18.16-.4.25-.67.25s-.48-.09-.65-.26-.26-.37-.26-.61ZM30.06,76.37h1.44v5.76h-1.44v-5.76Z"/>
      <path class="cls-3" d="M33.67,76.37h1.37v.92h.02c.13-.29.35-.54.67-.76.32-.22.69-.33,1.12-.33.38,0,.7.07.97.2s.49.31.66.52.3.46.38.74c.08.28.12.57.12.86v3.6h-1.44v-3.19c0-.17-.01-.34-.04-.53-.02-.18-.08-.35-.16-.5-.08-.15-.19-.27-.33-.37-.14-.1-.33-.14-.56-.14s-.43.05-.6.14-.31.21-.41.35c-.11.14-.19.31-.25.5-.06.19-.08.38-.08.57v3.17h-1.44v-5.76Z"/>
      <path class="cls-3" d="M40.29,77.52v-1.15h1.01v-1.67h1.42v1.67h1.44v1.15h-1.44v2.68c0,.26.05.47.14.64.09.17.3.25.62.25.1,0,.2,0,.31-.03.11-.02.21-.05.3-.09l.05,1.13c-.13.05-.28.09-.46.11-.18.03-.34.04-.5.04-.38,0-.7-.05-.94-.16-.24-.11-.43-.26-.57-.44-.14-.19-.24-.4-.29-.65-.05-.24-.08-.51-.08-.79v-2.69h-1.01Z"/>
      <path class="cls-3" d="M33.09,99.54h-7.39v-1.49l4.51-4.48c.34-.35.63-.72.88-1.1.25-.38.37-.82.37-1.3,0-.3-.05-.57-.16-.81-.11-.24-.25-.45-.43-.62-.18-.17-.39-.3-.64-.39-.25-.09-.51-.14-.78-.14-.58,0-1.05.18-1.42.55-.37.37-.61.84-.7,1.42l-1.52-.26c.06-.43.2-.82.41-1.19.21-.37.47-.69.79-.96.32-.27.69-.48,1.11-.63.42-.15.87-.22,1.35-.22s.92.07,1.35.21c.43.14.81.34,1.14.61s.59.6.79,1.01.3.87.3,1.39c0,.36-.05.7-.14,1.01-.1.31-.23.6-.39.88-.17.28-.36.54-.58.79-.22.25-.46.5-.7.74l-3.68,3.58h5.55v1.39Z"/>
    </g>
  </g>
</svg>