<?xml version="1.0" encoding="UTF-8"?>
<svg id="uuid-64bc850c-d5ff-4d0f-bd88-9f5abc9de926" data-name="レイヤー_2" xmlns="http://www.w3.org/2000/svg" viewBox="0 0 40.12 28.08">
  <g id="uuid-09182667-87df-4ee1-82b2-8721a3f1fd4a" data-name="レイヤー_1">
    <path d="M39.28,4.38c-.46-1.73-1.82-3.09-3.55-3.55-3.13-.84-15.67-.84-15.67-.84,0,0-12.54,0-15.67.84-1.73.46-3.09,1.82-3.55,3.55-.84,3.13-.84,9.66-.84,9.66,0,0,0,6.53.84,9.66.46,1.73,1.82,3.09,3.55,3.55,3.13.84,15.67.84,15.67.84,0,0,12.54,0,15.67-.84,1.73-.46,3.09-1.82,3.55-3.55.84-3.13.84-9.66.84-9.66,0,0,0-6.53-.84-9.66ZM16.05,20.06v-12.03l10.42,6.02-10.42,6.02Z" style="fill: #fff;"/>
  </g>
</svg>