<?xml version="1.0" encoding="UTF-8"?>
<svg id="_レイヤー_2" data-name="レイヤー 2" xmlns="http://www.w3.org/2000/svg" viewBox="0 0 151.29 73.01">
  <defs>
    <style>
      .cls-1 {
        stroke: #1c1c1c;
        stroke-miterlimit: 10;
        stroke-width: 2px;
      }

      .cls-1, .cls-2 {
        fill: none;
      }

      .cls-3 {
        fill: #1c1c1c;
      }
    </style>
  </defs>
  <g id="_レイヤー_1-2" data-name="レイヤー 1">
    <g>
      <polyline class="cls-1" points="1 73.01 1 31.38 81.31 19.15 150.29 31.38 150.29 73.01"/>
      <path class="cls-3" d="M27.45,60.82c1.69,1.43,4,2.18,8.03,2.18s6.55-.1,9.88-.49c-.36.6-.62,1.22-.73,1.9q-.18.86-.99.88c-2.6.18-4.84.26-8.19.26s-6.6-.39-8.89-2.39c-.18-.16-.36-.29-.52-.47-.75,1.01-1.66,1.95-2.73,2.89-.29.23-.44.36-.57.36-.16,0-.26-.18-.47-.52-.39-.68-.86-1.2-1.35-1.61,1.38-1.01,2.5-2.03,3.38-3.17-.75-1.09-1.43-2.39-2.03-3.98-.18-.42-.18-.49.16-.68l1.27-.68c.44-.23.47-.13.65.31.36,1.14.78,2.08,1.25,2.89.65-1.38,1.09-3.02,1.35-5.02h-2.24l-.42.62c-.1.16-.18.23-.31.23-.18,0-.47-.13-1.09-.42-.78-.36-1.04-.47-1.04-.62,0-.08.05-.18.16-.31,1.72-2.39,2.96-4.65,3.98-6.81h-1.72c-1.69,0-2.21.05-2.37.05-.26,0-.29-.03-.29-.29v-1.92c0-.29.03-.31.29-.31.16,0,.68.05,2.37.05h2.83c.26,0,.47-.03.57-.05s.21-.08.31-.08c.16,0,.34.1.86.75.44.57.68.88.68,1.12s-.1.31-.26.44c-.29.16-.49.6-.7.96-.6,1.09-1.38,2.6-2.37,4.26h1.25c.26,0,.44-.03.6-.13.16-.08.21-.13.34-.13.21,0,.42.16.94.75.52.55.62.73.62.94s-.08.31-.29.52c-.18.21-.23.49-.31.91-.36,2.63-.99,4.78-2.03,6.68l.13.1ZM33.12,60.32c-2.47,0-3.33.05-3.48.05-.26,0-.29-.03-.29-.31v-1.59c0-.29.03-.31.29-.31.16,0,1.01.05,3.48.05h2.08v-1.46h-1.14c-2.34,0-3.17.05-3.33.05-.26,0-.29-.03-.29-.29v-1.51c0-.26.03-.29.29-.29.16,0,.99.05,3.33.05h1.14v-1.46h-1.4c-2.03,0-2.68.05-2.83.05-.26,0-.29-.03-.29-.29v-1.46c0-.26.03-.29.29-.29.16,0,.81.05,2.83.05h1.4v-1.46h-2.34c-2.39,0-3.2.05-3.35.05-.26,0-.29-.03-.29-.31v-1.53c0-.26.03-.29.29-.29.16,0,.96.05,3.35.05h2.34v-1.43h-.96c-2.31,0-3.07.05-3.22.05-.26,0-.29-.03-.29-.29v-1.51c0-.26.03-.29.29-.29.16,0,.91.05,3.22.05h.96c-.03-.91-.08-1.51-.18-2.11.99.03,1.69.08,2.55.18.26.03.42.1.42.26s-.08.26-.16.42c-.1.18-.16.44-.16,1.25h1.51c2.39,0,3.54-.05,3.69-.05.29,0,.31.03.31.29,0,.16-.05.94-.05,2.57v.6c.81,0,1.61-.05,1.74-.05.26,0,.29.03.29.29v1.56c0,.26-.03.29-.29.29-.13,0-.94-.03-1.74-.05v.62c0,1.64.05,2.39.05,2.52,0,.26-.03.29-.31.29-.16,0-1.3-.05-3.69-.05h-1.51v1.46h2.18c2.34,0,3.15-.05,3.3-.05.29,0,.31.03.31.29v1.51c0,.26-.03.29-.31.29-.16,0-.96-.05-3.3-.05h-2.18v1.46h3.07c2.5,0,3.35-.05,3.51-.05.26,0,.29.03.29.31v1.59c0,.29-.03.31-.29.31-.16,0-1.01-.05-3.51-.05h-3.07c.03,1.14.05,1.69.05,1.79,0,.29-.03.31-.29.31h-1.98c-.29,0-.31-.03-.31-.31,0-.05.03-.65.03-1.79h-2.05ZM37.67,46.49v1.43h3.04v-1.43h-3.04ZM40.71,49.95h-3.04v1.46h3.04v-1.46Z"/>
      <path class="cls-3" d="M52.69,50.24c-.13,1.07-.31,2.13-.55,3.04-.13.44-.18.62-.34.62-.1,0-.29-.1-.57-.26-.42-.21-1.09-.42-1.53-.52.73-2.42,1.01-4.78,1.09-6.81.03-.49.03-1.01-.05-1.66.7.08,1.56.18,2.18.29.29.05.39.16.39.31s-.03.23-.1.42c-.1.21-.13.47-.16.88-.03.42-.05.83-.1,1.27h1.25v-1.43c0-1.85-.05-2.63-.21-3.93.96.03,1.79.08,2.68.18.26.03.42.13.42.26,0,.21-.08.34-.16.55-.13.31-.16.96-.16,2.89v1.48c1.38,0,1.9-.05,2.03-.05.26,0,.29.03.29.26v1.77c1.38-1.64,2.24-3.35,2.89-5.28.21-.68.36-1.3.47-2.08.7.1,1.69.26,2.44.44.29.08.44.18.44.36s-.08.31-.26.52-.31.55-.52,1.2c-.23.7-.52,1.4-.83,2.13h6.06c1.98,0,2.6-.05,2.76-.05.29,0,.36.08.36.34-.03.7-.05,1.4-.05,2.03-.05,6.21-.26,9.52-.75,12.51-.42,2.78-1.56,4.11-3.87,4.11-.47,0-1.2,0-1.87-.05q-.81-.05-.96-.91c-.16-.83-.36-1.46-.62-1.95,1.2.21,2.11.26,3.04.26,1.17,0,1.56-.78,1.77-2.16.39-2.81.7-5.69.81-11.23-1.85,6.55-4.42,11.18-8.92,14.67-.31.23-.49.36-.65.36-.18,0-.31-.16-.55-.49-.44-.65-.96-1.12-1.43-1.43,4.91-3.33,7.57-7.77,9.26-13.65h-1.72c-1.22,4.03-3.12,7.07-5.75,9.46-.29.29-.47.42-.62.42s-.29-.13-.52-.44c-.44-.55-.99-1.01-1.46-1.33,2.73-2,4.71-4.63,5.85-8.11h-1.38c-.55.91-1.2,1.79-1.92,2.63-.29.31-.42.44-.55.44-.16,0-.29-.13-.57-.42-.49-.47-1.04-.83-1.48-1.09l.68-.7c-.26,0-.83-.03-1.87-.05v4.19c.75-.36,1.56-.75,2.42-1.22,0,.47,0,1.17.05,1.74.05.78.05.81-.65,1.17-.62.34-1.22.65-1.82.94v4.39c0,2.96.05,4.45.05,4.58,0,.26-.03.29-.29.29h-2.11c-.26,0-.29-.03-.29-.29,0-.16.05-1.61.05-4.55v-3.22c-.6.26-1.22.49-1.82.73-.39.18-.7.34-.83.47-.16.16-.29.26-.44.26-.18,0-.31-.08-.42-.29-.31-.75-.62-1.72-.88-2.52.86-.18,1.59-.39,2.44-.68.65-.21,1.3-.44,1.95-.68v-5.3h-1.51Z"/>
      <path class="cls-3" d="M80.6,56.58c0-.94,0-2.11.03-3.22-.39.57-.83,1.12-1.3,1.69-.21.23-.36.36-.47.36-.16,0-.23-.16-.29-.44-.16-.88-.47-1.82-.78-2.37,2-2.34,3.41-5.2,4.45-8.37.18-.62.34-1.22.42-1.87.86.26,1.66.52,2.39.88.26.1.42.23.42.47,0,.18-.13.31-.29.47-.18.16-.29.39-.52,1.04-.47,1.33-.94,2.55-1.48,3.72v13.16c0,2.52.05,3.8.05,3.93,0,.26-.03.29-.29.29h-2.11c-.26,0-.29-.03-.29-.29,0-.16.05-1.4.05-3.93v-5.51ZM89.12,46.75c-2.55,0-3.41.05-3.56.05-.26,0-.29-.03-.29-.29v-1.92c0-.29.03-.31.29-.31.16,0,1.01.05,3.56.05h9.2c2.55,0,3.41-.05,3.56-.05.26,0,.29.03.29.31v1.92c0,.26-.03.29-.29.29-.16,0-1.01-.05-3.56-.05h-1.66v4h.81c2.52,0,3.43-.05,3.61-.05.26,0,.29.03.29.29,0,.16-.05,1.17-.05,4.26v4.52c0,4.58.05,5.54.05,5.69,0,.26-.03.29-.29.29h-2.03c-.26,0-.29-.03-.29-.29v-1.09h-10.89v1.2c0,.26-.03.29-.29.29h-2c-.26,0-.29-.03-.29-.29,0-.16.05-1.12.05-5.72v-4.11c0-3.59-.05-4.58-.05-4.76,0-.26.03-.29.29-.29.16,0,1.04.05,3.56.05h.68v-4h-.7ZM89.83,62.07v-9.02h-1.95v9.02h1.95ZM94.25,50.76v-4h-2v4h2ZM94.25,62.07v-9.02h-2v9.02h2ZM96.67,53.04v9.02h2.11v-9.02h-2.11Z"/>
      <path class="cls-3" d="M126.38,44.91c.21,0,.36-.03.47-.08.1-.05.21-.08.29-.08.21,0,.44.08,1.01.68.55.62.62.81.62,1.01,0,.18-.08.31-.29.47-.18.13-.34.31-.6.78-.86,1.61-1.92,3.07-3.22,4.39,1.9,1.27,4.11,2.18,6.5,2.73-.36.55-.65,1.17-.81,1.79q-.21.81-1.01.6c-.39-.13-.81-.26-1.17-.42,0,.18-.05.91-.05,2.55v2.29c0,3.54.05,4.19.05,4.32,0,.26-.03.29-.29.29h-2.05c-.26,0-.29-.03-.29-.29v-1.01h-6.06v1.04c0,.26-.03.29-.29.29h-2c-.26,0-.29-.03-.29-.29,0-.16.05-.81.05-4.32v-1.98c0-1.38-.03-2.11-.05-2.5l-.78.31c-.29.1-.47.18-.62.18-.23,0-.34-.21-.55-.7-.18-.52-.52-1.09-.88-1.51,2.63-.83,4.91-2,6.79-3.38-.81-.83-1.51-1.74-2.11-2.73-.55.65-1.12,1.25-1.74,1.82-.31.29-.47.42-.6.42-.16,0-.31-.16-.57-.49-.36-.44-.75-.83-1.2-1.12-.29,0-.75-.03-1.43-.03.7,1.22,1.53,2.26,2.47,3.12-.34.47-.65,1.04-.83,1.64-.1.34-.16.49-.29.49-.08,0-.21-.13-.39-.39-.44-.6-.88-1.27-1.25-2,0,7.05.18,12.69.18,13.13,0,.29-.03.31-.31.31h-2.11c-.26,0-.29-.03-.29-.31,0-.42.16-5.43.18-11.52-.6,2.11-1.48,4.06-2.55,5.75-.16.26-.29.42-.39.42s-.21-.13-.29-.42c-.21-.68-.52-1.38-.91-1.98,1.72-2.29,3.04-4.91,3.9-8.24h-.55c-1.82,0-2.39.05-2.55.05-.23,0-.26-.03-.26-.29v-1.85c0-.26.03-.29.26-.29.16,0,.73.05,2.55.05h.7v-1.64c0-1.61-.03-2.47-.21-3.56.99.03,1.79.08,2.6.18.26.03.44.13.44.29,0,.21-.08.36-.16.55-.16.31-.18.73-.18,2.5v1.69c1.53,0,2.03-.05,2.18-.05.26,0,.29.03.29.29v1.33c1.61-1.59,2.94-3.48,3.82-5.49.23-.52.39-.99.49-1.48.88.13,1.69.29,2.39.47.29.08.42.18.42.31s-.08.23-.21.36c-.21.18-.34.39-.49.73l-.36.81h4.84ZM124.82,56.58c1.56,0,2.37-.03,2.76-.03-1.77-.75-3.38-1.64-4.78-2.76-1.3,1.04-2.81,1.98-4.5,2.78h6.53ZM119.49,62.66h6.06v-3.72h-6.06v3.72ZM120.22,47.32c.65,1.2,1.51,2.26,2.5,3.2,1.09-1.07,1.98-2.21,2.6-3.38h-4.99l-.1.18Z"/>
      <path class="cls-3" d="M.62,7.64l2.49-.37.85,5.66,6.55-.98-.85-5.66,2.49-.38,2.1,14-2.49.37-.93-6.21-6.55.98.93,6.21-2.49.37L.62,7.64Z"/>
      <path class="cls-3" d="M16.36,14.7c-.11-.75-.08-1.45.1-2.11.18-.65.46-1.23.86-1.74.4-.5.89-.92,1.49-1.26.6-.33,1.25-.55,1.96-.66.71-.11,1.4-.09,2.07.05.67.14,1.27.4,1.79.76.53.37.97.84,1.33,1.41.36.57.6,1.23.71,1.99.11.75.08,1.46-.1,2.12-.18.66-.46,1.25-.86,1.76-.39.51-.89.94-1.49,1.28-.6.35-1.25.57-1.96.68-.71.11-1.4.08-2.07-.07-.67-.15-1.27-.42-1.8-.79-.53-.37-.97-.85-1.34-1.43-.36-.58-.6-1.24-.72-2ZM18.78,14.34c.06.37.17.73.34,1.08.17.35.38.66.65.91.27.26.59.45.96.58.37.13.79.16,1.27.09s.87-.23,1.18-.46c.31-.24.56-.52.74-.84.18-.32.3-.68.36-1.06.06-.39.06-.76,0-1.13-.06-.37-.17-.73-.33-1.07-.17-.35-.38-.65-.65-.9-.27-.26-.59-.45-.96-.57-.37-.13-.79-.15-1.27-.08-.47.07-.87.22-1.19.45-.32.23-.56.51-.75.83-.18.32-.3.68-.36,1.05-.06.38-.06.75,0,1.12Z"/>
      <path class="cls-3" d="M38.72,16.24l-2.25.34-.23-1.52h-.04c-.14.51-.44.99-.91,1.43-.47.44-1.06.71-1.77.82-.62.09-1.17.06-1.64-.09-.47-.15-.88-.38-1.22-.7-.34-.31-.61-.69-.81-1.13-.2-.44-.34-.91-.41-1.39l-.89-5.93,2.37-.36.79,5.26c.04.28.1.56.19.86.09.3.21.56.38.78.17.22.38.4.63.52.25.12.57.16.96.1.37-.06.68-.18.94-.37.26-.19.46-.42.61-.69.14-.26.24-.56.28-.88.05-.32.04-.64,0-.96l-.79-5.22,2.37-.36,1.43,9.49Z"/>
      <path class="cls-3" d="M46.21,7.99c-.25-.25-.58-.44-.98-.59-.4-.15-.82-.19-1.25-.13-.38.06-.72.19-1.01.39-.29.21-.41.49-.36.86.06.37.27.6.64.7.37.1.91.18,1.6.23.37.03.74.08,1.13.15.38.08.74.2,1.07.38.33.17.61.41.84.7.23.3.38.67.45,1.14.09.58.05,1.09-.1,1.52-.16.44-.4.81-.72,1.11-.32.31-.72.55-1.18.73-.46.18-.95.32-1.47.39-.74.11-1.48.08-2.22-.08-.74-.17-1.38-.46-1.91-.9l1.34-1.7c.31.3.7.54,1.16.7.46.16.94.2,1.45.12.17-.03.34-.07.52-.14.17-.07.33-.15.47-.26.14-.11.24-.24.31-.4.07-.16.09-.34.06-.55-.06-.4-.28-.65-.67-.77-.39-.12-.96-.21-1.71-.27-.37-.03-.73-.08-1.09-.15-.36-.08-.68-.19-.97-.36-.29-.16-.54-.39-.75-.67-.2-.28-.34-.64-.41-1.09-.08-.53-.04-1,.12-1.41.16-.42.4-.77.72-1.07.32-.3.69-.54,1.12-.73.43-.19.88-.31,1.36-.39.69-.1,1.37-.09,2.06.05.69.14,1.26.42,1.72.85l-1.34,1.6Z"/>
      <path class="cls-3" d="M49.1,1.67c-.06-.38.03-.74.28-1.06.24-.33.58-.52,1.01-.59.43-.07.82.02,1.16.24.34.23.54.54.6.95.06.41-.04.77-.29,1.09-.26.31-.6.51-1.04.57-.44.07-.82-.02-1.14-.26-.33-.24-.52-.55-.58-.94ZM49.92,4.85l2.37-.36,1.43,9.49-2.37.36-1.43-9.49Z"/>
      <path class="cls-3" d="M55.52,4l2.25-.34.23,1.52h.04c.14-.51.44-.99.91-1.43.47-.44,1.06-.71,1.77-.82.62-.09,1.17-.06,1.64.09.47.15.88.38,1.22.7.34.31.61.69.81,1.13.2.44.34.91.41,1.39l.89,5.93-2.37.36-.79-5.26c-.04-.28-.1-.56-.19-.86-.08-.3-.21-.56-.38-.78-.17-.22-.38-.4-.64-.52-.25-.12-.57-.16-.96-.1s-.7.18-.95.38c-.25.19-.45.42-.59.69-.14.26-.24.56-.28.88-.05.32-.05.64,0,.96l.78,5.22-2.37.36-1.43-9.49Z"/>
      <path class="cls-3" d="M77.06.77l1.3,8.64c.13.86.14,1.65.03,2.37-.11.72-.35,1.36-.71,1.91-.37.55-.87,1-1.5,1.37-.63.37-1.41.62-2.33.76-.38.06-.79.09-1.23.08-.44,0-.88-.04-1.31-.11-.44-.07-.86-.17-1.27-.31-.41-.14-.79-.31-1.13-.52l1.09-2.04c.53.37,1.1.62,1.71.76.61.14,1.22.17,1.81.08.57-.09,1.03-.24,1.4-.46.36-.22.64-.5.83-.82.19-.33.3-.69.34-1.11.04-.41.02-.86-.05-1.33l-.1-.69h-.04c-.27.52-.66.95-1.15,1.27s-1.08.54-1.73.64c-.71.11-1.38.07-2-.1-.62-.18-1.17-.46-1.63-.85-.47-.39-.86-.86-1.18-1.43-.31-.57-.52-1.19-.62-1.86-.1-.69-.09-1.35.04-1.99.13-.64.36-1.21.69-1.72.34-.51.77-.94,1.3-1.29.53-.35,1.16-.58,1.87-.69.67-.1,1.32-.06,1.94.13.62.19,1.15.55,1.58,1.08h.04s-.21-1.43-.21-1.43l2.25-.34ZM72.25,3.19c-.44.07-.81.2-1.12.41-.31.21-.56.46-.75.77-.19.3-.32.65-.39,1.04-.07.39-.07.79,0,1.21.06.38.18.74.35,1.08.18.34.4.63.68.88.27.25.59.43.95.55.36.12.75.15,1.18.09.44-.06.81-.21,1.14-.42.32-.22.59-.48.79-.79.2-.31.34-.66.42-1.04.08-.38.09-.77.03-1.16-.06-.41-.19-.79-.37-1.13-.19-.35-.42-.64-.71-.88-.29-.24-.61-.41-.98-.52-.37-.11-.77-.13-1.2-.06Z"/>
      <path class="cls-3" d="M94.55,2.41l-.23,1.32h.06c.15-.15.34-.31.56-.47.22-.16.49-.29.79-.39.3-.1.64-.17,1-.21.36-.04.76-.02,1.2.06.67.12,1.26.36,1.78.71.52.36.94.79,1.27,1.31.33.52.55,1.1.66,1.74.12.64.11,1.31-.01,2.01-.12.7-.35,1.33-.67,1.9-.33.57-.73,1.05-1.21,1.43-.48.38-1.03.66-1.65.82-.62.17-1.29.19-2.01.06-.67-.12-1.26-.37-1.77-.74-.51-.38-.87-.83-1.09-1.35h-.04s-1.07,5.98-1.07,5.98l-2.36-.42,2.52-14.18,2.26.4ZM99.23,8.07c.07-.37.07-.74.03-1.12-.05-.38-.16-.74-.33-1.06-.17-.33-.41-.61-.72-.85-.31-.24-.69-.4-1.15-.48-.43-.08-.84-.05-1.21.07-.37.12-.71.31-1,.55-.29.25-.54.54-.73.89-.19.35-.32.7-.38,1.07-.07.37-.07.74,0,1.13.06.38.19.74.38,1.07.19.33.44.62.75.85.31.24.68.4,1.11.47.46.08.88.06,1.25-.06.37-.12.7-.31.97-.56.27-.25.5-.55.68-.89.18-.35.3-.71.36-1.07Z"/>
      <path class="cls-3" d="M105.13,4.29l2.26.4-.28,1.58h.04c.36-.5.81-.88,1.34-1.14.53-.26,1.12-.33,1.75-.22.09.02.19.04.29.06.1.03.19.06.27.1l-.39,2.17c-.15-.07-.28-.12-.39-.15-.11-.03-.22-.06-.32-.08-.54-.1-.99-.07-1.35.06-.36.14-.66.33-.89.57-.23.24-.41.5-.52.78-.12.28-.19.5-.22.67l-.9,5.06-2.36-.42,1.68-9.45Z"/>
      <path class="cls-3" d="M112.75,5.65l2.36.42-1.68,9.45-2.36-.42,1.68-9.45ZM112.98,2.38c.07-.38.27-.69.6-.92.33-.23.72-.31,1.15-.23.43.08.77.28,1.02.6.25.32.34.69.26,1.09-.07.41-.28.72-.62.94-.34.22-.73.29-1.16.21-.43-.08-.77-.28-1-.61-.23-.33-.31-.69-.25-1.07Z"/>
      <path class="cls-3" d="M124.28,10.4c-.14-.29-.37-.56-.71-.81-.34-.24-.69-.4-1.07-.47-.43-.08-.83-.06-1.19.06-.36.12-.67.3-.94.55-.27.25-.49.55-.66.89-.17.34-.29.7-.35,1.06-.07.37-.07.74-.03,1.12s.16.74.33,1.06c.17.33.41.61.71.85.3.24.68.39,1.12.47.37.07.75.06,1.14-.02.39-.08.73-.24,1-.47l1.21,1.76c-.47.35-1.03.59-1.68.71-.65.12-1.33.12-2.04,0-.7-.12-1.34-.35-1.92-.69s-1.07-.76-1.46-1.28c-.39-.52-.66-1.11-.82-1.77-.16-.67-.17-1.39-.03-2.18.14-.76.39-1.43.77-2,.38-.57.84-1.03,1.37-1.38.54-.35,1.13-.59,1.78-.72.65-.13,1.33-.13,2.02,0,.7.12,1.34.38,1.95.75.6.38,1.05.83,1.35,1.36l-1.87,1.13Z"/>
      <path class="cls-3" d="M136.32,14.84c-.02.11-.04.21-.06.31-.02.11-.04.21-.08.31l-7.19-1.28c-.03.35,0,.67.1.98s.26.59.47.84c.21.25.47.46.76.63.29.17.61.29.95.35.59.11,1.11.09,1.55-.06.45-.14.83-.38,1.16-.72l1.35,1.54c-1.16,1.09-2.62,1.48-4.39,1.17-.74-.13-1.39-.37-1.97-.71-.58-.34-1.05-.76-1.43-1.26-.38-.5-.64-1.08-.79-1.73-.15-.66-.15-1.37-.01-2.15.14-.76.39-1.43.75-2.01.37-.58.81-1.05,1.34-1.41.52-.36,1.11-.61,1.77-.74.65-.13,1.33-.14,2.04-.01.66.12,1.24.33,1.76.65.52.32.94.72,1.27,1.22.33.5.56,1.09.67,1.77.12.68.1,1.44-.05,2.3ZM134.15,13.36c.05-.3.06-.6.03-.89-.04-.29-.13-.56-.27-.8-.15-.24-.35-.45-.61-.63-.26-.18-.58-.3-.96-.36-.71-.13-1.35-.02-1.92.32-.57.34-.94.84-1.11,1.5l4.84.86Z"/>
      <path class="cls-3" d="M144.62,13.92c-.16-.31-.41-.6-.74-.87-.33-.27-.71-.44-1.15-.52-.38-.07-.74-.05-1.09.05-.34.1-.55.34-.61.7-.07.37.06.66.38.87.32.21.8.46,1.44.73.34.14.68.31,1.02.51.34.2.64.43.89.7.26.27.45.58.57.93.13.35.15.76.07,1.22-.1.58-.3,1.05-.59,1.41-.29.36-.64.64-1.04.82-.41.19-.86.29-1.36.32-.5.03-1,0-1.52-.1-.74-.13-1.43-.39-2.07-.79-.65-.39-1.16-.88-1.53-1.46l1.82-1.18c.2.39.49.73.87,1.03.38.3.83.49,1.34.58.17.03.35.04.53.03.18,0,.36-.04.53-.1.17-.06.31-.15.43-.28.12-.13.19-.3.23-.51.07-.39-.06-.71-.39-.94-.33-.23-.84-.5-1.53-.8-.34-.14-.67-.3-.98-.49-.31-.18-.58-.4-.81-.65-.23-.25-.39-.54-.5-.87-.1-.33-.12-.72-.04-1.16.09-.52.28-.96.57-1.3.28-.34.62-.6,1.02-.78.4-.18.83-.29,1.3-.33.47-.04.94-.02,1.41.07.68.12,1.33.36,1.94.71.61.35,1.06.81,1.35,1.36l-1.78,1.09Z"/>
      <rect class="cls-2" x="5.22" y="15.69" width="75.84" height="9.21" transform="translate(-2.56 6.72) rotate(-8.66)"/>
      <rect class="cls-2" x="81.68" y="14.99" width="57.16" height="9.21" transform="translate(5.12 -18.95) rotate(10.05)"/>
    </g>
  </g>
</svg>