<?xml version="1.0" encoding="UTF-8"?>
<svg id="_レイヤー_2" data-name="レイヤー 2" xmlns="http://www.w3.org/2000/svg" viewBox="0 0 175 100">
  <g id="_レイヤー_4" data-name="レイヤー 4">
    <g>
      <polyline points="5.49 69.09 86.34 49.21 168.64 66.01" style="fill: none; stroke: #1c1c1c; stroke-miterlimit: 10; stroke-width: 2px;"/>
      <path d="M34.09,97.39c-2.31,0-3.09.05-3.25.05-.23,0-.26-.03-.26-.29v-2.16c0-.26.03-.29.26-.29.16,0,.94.05,3.25.05h6.42v-8.87h-4.13c-2.55,0-3.41.05-3.56.05-.26,0-.29-.03-.29-.29v-2.16c0-.26.03-.29.29-.29.16,0,1.01.05,3.56.05h4.13v-4.03c0-1.77-.03-2.91-.21-4.08.96.03,2.13.08,3.04.18.23.03.42.13.42.31,0,.21-.08.39-.16.57-.13.31-.16.88-.16,2.96v4.08h4.58c2.52,0,3.38-.05,3.54-.05.29,0,.31.03.31.29v2.16c0,.26-.03.29-.31.29-.16,0-1.01-.05-3.54-.05h-4.58v8.87h6.84c2.31,0,3.09-.05,3.25-.05.23,0,.26.03.26.29v2.16c0,.26-.03.29-.26.29-.16,0-.94-.05-3.25-.05h-16.2Z" style="fill: #231815;"/>
      <path d="M64.25,90.58c.83-.34,1.64-.73,2.52-1.2-.05.47-.05,1.07-.03,1.61q.05.83-.68,1.2c-1.61.81-3.46,1.56-5.17,2.21-.44.18-.75.31-.86.42s-.29.18-.44.18-.29-.08-.39-.31c-.26-.68-.47-1.43-.7-2.31.83-.16,1.64-.34,2.57-.65l.6-.18v-7.38h-.21c-1.69,0-2.21.05-2.37.05-.26,0-.26-.03-.26-.29v-1.98c0-.26,0-.29.26-.29.16,0,.68.05,2.37.05h.21v-2.44c0-1.72-.03-2.78-.21-3.82,1.01.03,1.82.08,2.68.18.26.03.42.16.42.31,0,.18-.08.31-.16.52-.13.31-.16.96-.16,2.47v2.78c1.48,0,1.98-.05,2.13-.05.23,0,.26.03.26.29v1.98c0,.26-.03.29-.26.29-.16,0-.65-.05-2.13-.05v6.42ZM70.81,94.19c0,.68.13.99.49,1.17.36.21,1.17.29,3.74.29,2.81,0,3.67-.13,4.19-.55.42-.36.55-.88.62-2.94.52.31,1.12.62,1.87.83q.65.18.57.86c-.23,2.26-.55,2.96-1.4,3.51-.88.6-2.13.86-6.16.86-3.54,0-4.84-.31-5.49-.73-.62-.39-.99-1.17-.99-2.57v-8.11c-1.33.47-1.87.7-2.08.75-.26.08-.29.05-.34-.21l-.34-2.03c-.05-.26-.03-.26.21-.34.21-.05.88-.21,2.55-.75v-2.86c.03-1.43-.03-2.65-.16-3.69.88.03,1.72.08,2.5.16.36.05.52.16.52.29,0,.21-.05.31-.16.55-.13.26-.16.83-.16,2.47v2.24l2.5-.83v-3.77c0-1.56-.05-2.37-.21-3.69.99.03,1.79.08,2.65.21.26.03.42.13.42.29,0,.18-.08.31-.16.52-.13.31-.16.96-.16,2.34v3.28l2-.68c2.44-.81,3.22-1.14,3.41-1.17.18-.03.29.05.29.26l-.08,3.33c-.05,2.63-.26,4.55-.62,5.88-.39,1.51-1.12,1.98-2.24,1.98-.31,0-.62,0-.96-.05q-.57-.05-.7-.86c-.08-.6-.29-1.35-.55-1.87.55.13,1.01.18,1.38.18.44,0,.62-.13.78-.96.18-.99.29-2,.31-4.55l-3.02,1.04v4.52c0,2.6.05,3.87.05,4.03,0,.26-.03.29-.29.29h-2.08c-.26,0-.29-.03-.29-.29,0-.18.05-1.43.05-4.03v-3.67l-2.5.86v8.24Z" style="fill: #231815;"/>
      <path d="M89.31,89.02c0-.94,0-2.11.03-3.22-.39.57-.83,1.12-1.3,1.69-.21.23-.36.36-.47.36-.16,0-.23-.16-.29-.44-.16-.88-.47-1.82-.78-2.37,2-2.34,3.41-5.2,4.45-8.37.18-.62.34-1.22.42-1.87.86.26,1.66.52,2.39.88.26.1.42.23.42.47,0,.18-.13.31-.29.47-.18.16-.29.39-.52,1.04-.47,1.33-.94,2.55-1.48,3.72v13.16c0,2.52.05,3.8.05,3.93,0,.26-.03.29-.29.29h-2.11c-.26,0-.29-.03-.29-.29,0-.16.05-1.4.05-3.93v-5.51ZM97.84,79.19c-2.55,0-3.41.05-3.56.05-.26,0-.29-.03-.29-.29v-1.92c0-.29.03-.31.29-.31.16,0,1.01.05,3.56.05h9.2c2.55,0,3.41-.05,3.56-.05.26,0,.29.03.29.31v1.92c0,.26-.03.29-.29.29-.16,0-1.01-.05-3.56-.05h-1.66v4h.81c2.52,0,3.43-.05,3.61-.05.26,0,.29.03.29.29,0,.16-.05,1.17-.05,4.26v4.52c0,4.58.05,5.54.05,5.69,0,.26-.03.29-.29.29h-2.03c-.26,0-.29-.03-.29-.29v-1.09h-10.89v1.2c0,.26-.03.29-.29.29h-2c-.26,0-.29-.03-.29-.29,0-.16.05-1.12.05-5.72v-4.11c0-3.59-.05-4.58-.05-4.76,0-.26.03-.29.29-.29.16,0,1.04.05,3.56.05h.68v-4h-.7ZM98.54,94.51v-9.02h-1.95v9.02h1.95ZM102.96,83.2v-4h-2v4h2ZM102.96,94.51v-9.02h-2v9.02h2ZM105.38,85.48v9.02h2.11v-9.02h-2.11Z" style="fill: #231815;"/>
      <path d="M135.09,77.35c.21,0,.36-.03.47-.08.1-.05.21-.08.29-.08.21,0,.44.08,1.01.68.55.62.62.81.62,1.01,0,.18-.08.31-.29.47-.18.13-.34.31-.6.78-.86,1.61-1.92,3.07-3.22,4.39,1.9,1.27,4.11,2.18,6.5,2.73-.36.55-.65,1.17-.81,1.79q-.21.81-1.01.6c-.39-.13-.81-.26-1.17-.42,0,.18-.05.91-.05,2.55v2.29c0,3.54.05,4.19.05,4.32,0,.26-.03.29-.29.29h-2.05c-.26,0-.29-.03-.29-.29v-1.01h-6.06v1.04c0,.26-.03.29-.29.29h-2c-.26,0-.29-.03-.29-.29,0-.16.05-.81.05-4.32v-1.98c0-1.38-.03-2.11-.05-2.5l-.78.31c-.29.1-.47.18-.62.18-.23,0-.34-.21-.55-.7-.18-.52-.52-1.09-.88-1.51,2.63-.83,4.91-2,6.79-3.38-.81-.83-1.51-1.74-2.11-2.73-.55.65-1.12,1.25-1.74,1.82-.31.29-.47.42-.6.42-.16,0-.31-.16-.57-.49-.36-.44-.75-.83-1.2-1.12-.29,0-.75-.03-1.43-.03.7,1.22,1.53,2.26,2.47,3.12-.34.47-.65,1.04-.83,1.64-.1.34-.16.49-.29.49-.08,0-.21-.13-.39-.39-.44-.6-.88-1.27-1.25-2,0,7.05.18,12.69.18,13.13,0,.29-.03.31-.31.31h-2.11c-.26,0-.29-.03-.29-.31,0-.42.16-5.43.18-11.52-.6,2.11-1.48,4.06-2.55,5.75-.16.26-.29.42-.39.42s-.21-.13-.29-.42c-.21-.68-.52-1.38-.91-1.98,1.72-2.29,3.04-4.91,3.9-8.24h-.55c-1.82,0-2.39.05-2.55.05-.23,0-.26-.03-.26-.29v-1.85c0-.26.03-.29.26-.29.16,0,.73.05,2.55.05h.7v-1.64c0-1.61-.03-2.47-.21-3.56.99.03,1.79.08,2.6.18.26.03.44.13.44.29,0,.21-.08.36-.16.55-.16.31-.18.73-.18,2.5v1.69c1.53,0,2.03-.05,2.18-.05.26,0,.29.03.29.29v1.33c1.61-1.59,2.94-3.48,3.82-5.49.23-.52.39-.99.49-1.48.88.13,1.69.29,2.39.47.29.08.42.18.42.31s-.08.23-.21.36c-.21.18-.34.39-.49.73l-.36.81h4.84ZM133.53,89.02c1.56,0,2.37-.03,2.76-.03-1.77-.75-3.38-1.64-4.78-2.76-1.3,1.04-2.81,1.98-4.5,2.78h6.53ZM128.2,95.1h6.06v-3.72h-6.06v3.72ZM128.93,79.76c.65,1.2,1.51,2.26,2.5,3.2,1.09-1.07,1.98-2.21,2.6-3.38h-4.99l-.1.18Z" style="fill: #231815;"/>
      <path d="M34.89,37.77l2.45-.6,2.85,11.58,5.85-1.44.53,2.18-8.29,2.04-3.38-13.75Z" style="fill: #231815;"/>
      <path d="M54.33,46.32h-.06c-.13.49-.42.92-.88,1.31-.45.39-1.01.67-1.67.83-.38.09-.78.14-1.21.14-.43,0-.85-.07-1.25-.21-.4-.14-.76-.37-1.07-.68-.32-.31-.54-.74-.68-1.29-.17-.7-.11-1.3.18-1.82.29-.51.72-.95,1.29-1.33.57-.37,1.22-.69,1.96-.95s1.47-.48,2.2-.65l-.06-.23c-.14-.58-.46-.96-.95-1.14-.49-.17-1.03-.19-1.61-.05-.49.12-.94.34-1.34.66-.4.32-.72.66-.94,1.03l-1.55-1.12c.41-.62.93-1.14,1.56-1.56.63-.42,1.3-.71,2.02-.89.83-.2,1.54-.26,2.13-.15.59.1,1.09.3,1.5.6.4.3.72.67.96,1.1.24.44.41.89.53,1.35l1.39,5.67-2.18.53-.29-1.19ZM53.54,43.26l-.52.13c-.38.09-.77.21-1.17.34-.41.13-.77.3-1.09.5-.32.2-.58.42-.76.68-.18.26-.23.56-.15.91.05.22.15.39.28.52.13.12.29.21.47.27.18.05.37.07.57.07.2,0,.4-.04.6-.09.8-.2,1.36-.56,1.67-1.09.31-.53.37-1.16.19-1.9l-.08-.33Z" style="fill: #231815;"/>
      <path d="M57.59,36.89l2.21-.54.37,1.5h.04c.09-.53.35-1.03.77-1.51.42-.48.99-.81,1.68-.98.61-.15,1.16-.17,1.64-.06.49.11.91.3,1.28.58.36.28.67.63.91,1.05.24.42.42.87.54,1.35l1.43,5.83-2.33.57-1.27-5.17c-.07-.27-.16-.55-.27-.84-.11-.29-.26-.54-.45-.74-.19-.21-.41-.36-.68-.46-.26-.1-.59-.1-.96-.01-.38.09-.68.25-.92.46-.24.22-.41.46-.53.74-.12.28-.18.58-.2.9-.02.33.01.65.09.96l1.26,5.13-2.33.57-2.29-9.32Z" style="fill: #231815;"/>
      <path d="M81.04,41.01l-2.21.54-.34-1.4h-.04c-.19.63-.54,1.16-1.04,1.58-.51.43-1.09.72-1.75.88-.71.18-1.38.2-2.01.07-.63-.13-1.2-.37-1.7-.71-.5-.35-.94-.8-1.3-1.35-.36-.55-.63-1.17-.8-1.85-.17-.69-.22-1.35-.14-2,.07-.65.26-1.24.55-1.78.29-.54.69-1,1.18-1.39.49-.39,1.07-.66,1.73-.83.43-.1.82-.15,1.18-.14.36.01.68.06.97.14.29.08.54.18.77.31.22.12.41.25.57.38h.06s-1.61-6.56-1.61-6.56l2.33-.57,3.61,14.68ZM72.22,38.19c.09.36.23.71.43,1.05.2.34.44.62.73.85.29.23.63.4,1.01.49.38.1.8.09,1.25-.02.43-.11.79-.29,1.08-.54.29-.26.53-.56.69-.9.17-.34.27-.71.31-1.09.04-.39,0-.76-.08-1.12-.09-.36-.24-.71-.45-1.04-.21-.33-.47-.61-.78-.84-.31-.23-.65-.39-1.04-.49-.38-.1-.79-.1-1.21,0-.45.11-.83.3-1.12.55-.29.26-.52.56-.67.89-.15.34-.24.7-.26,1.08-.02.38.01.76.1,1.12Z" style="fill: #231815;"/>
      <path d="M96.73,32.08l-.27,1.31h.06c.15-.15.35-.3.57-.45.23-.15.49-.27.8-.37.3-.09.64-.15,1.01-.18.37-.03.76,0,1.2.09.67.14,1.25.39,1.76.76.51.37.92.82,1.24,1.35.31.53.52,1.11.62,1.76.1.65.08,1.32-.06,2.01-.14.69-.38,1.32-.72,1.88-.34.56-.76,1.03-1.25,1.4-.49.37-1.05.63-1.67.78-.62.15-1.29.15-2.01,0-.67-.14-1.25-.4-1.75-.79-.5-.39-.85-.85-1.05-1.38h-.04s-1.22,5.95-1.22,5.95l-2.35-.48,2.89-14.11,2.25.46ZM101.26,37.87c.07-.37.09-.74.06-1.12-.04-.38-.14-.74-.3-1.07-.16-.33-.4-.62-.7-.87-.3-.25-.68-.42-1.14-.51-.43-.09-.84-.08-1.21.04-.38.11-.72.29-1.02.53-.3.24-.55.53-.75.87-.2.34-.34.69-.41,1.06-.07.37-.09.74-.04,1.13.05.38.17.75.35,1.08.18.34.43.63.73.87.3.25.67.41,1.1.5.46.09.87.08,1.25-.03.38-.11.71-.29.99-.53.28-.24.51-.53.7-.88.19-.34.32-.7.39-1.06Z" style="fill: #231815;"/>
      <path d="M107.26,34.23l2.25.46-.32,1.57h.04c.37-.49.83-.86,1.37-1.1.54-.24,1.12-.3,1.75-.17.09.02.19.04.29.07.1.03.19.06.26.11l-.44,2.16c-.15-.07-.28-.12-.39-.16-.11-.04-.21-.06-.32-.09-.54-.11-.99-.1-1.35.03-.37.13-.67.31-.91.55-.24.24-.42.49-.54.77-.12.27-.2.5-.24.67l-1.03,5.04-2.35-.48,1.93-9.4Z" style="fill: #231815;"/>
      <path d="M114.84,35.79l2.35.48-1.93,9.4-2.35-.48,1.93-9.4ZM115.16,32.52c.08-.38.29-.68.62-.9.34-.22.72-.29,1.15-.2.43.09.77.3,1.01.62.24.33.32.69.23,1.1-.08.4-.3.71-.65.92-.35.21-.74.27-1.17.18-.43-.09-.76-.3-.98-.64-.22-.34-.3-.7-.22-1.08Z" style="fill: #231815;"/>
      <path d="M126.25,40.84c-.13-.3-.36-.57-.69-.82-.33-.25-.68-.42-1.06-.49-.43-.09-.83-.08-1.19.03-.36.11-.68.29-.96.53-.27.24-.5.53-.68.87-.18.34-.3.69-.38,1.06-.07.37-.09.74-.06,1.12.04.38.14.74.3,1.07.16.33.39.62.69.87s.67.41,1.11.5c.37.07.75.08,1.14,0,.4-.07.73-.22,1.01-.45l1.16,1.79c-.48.34-1.04.56-1.7.66-.65.1-1.33.08-2.04-.06-.69-.14-1.33-.39-1.9-.74-.58-.35-1.05-.79-1.43-1.31-.38-.53-.63-1.12-.78-1.79-.14-.67-.13-1.39.03-2.18.15-.76.43-1.42.82-1.98.39-.56.86-1.01,1.41-1.34.55-.34,1.15-.56,1.8-.67.66-.11,1.33-.1,2.02.05.69.14,1.34.41,1.93.8.59.39,1.03.86,1.32,1.39l-1.9,1.08Z" style="fill: #231815;"/>
      <path d="M138.17,45.58c-.02.1-.04.21-.06.31-.02.1-.05.21-.08.31l-7.15-1.46c-.04.35-.02.67.07.98.09.31.24.59.45.85.21.25.45.47.74.65.29.18.6.31.94.38.59.12,1.11.11,1.56-.02.45-.13.84-.36,1.18-.69l1.31,1.57c-1.18,1.06-2.66,1.42-4.42,1.05-.73-.15-1.38-.4-1.95-.76-.57-.35-1.03-.79-1.4-1.3-.37-.51-.61-1.1-.74-1.75-.13-.66-.12-1.37.04-2.15.15-.76.42-1.42.81-1.99.38-.57.84-1.03,1.37-1.37.53-.35,1.13-.58,1.79-.7.66-.12,1.34-.1,2.04.04.65.13,1.24.37,1.75.69.51.33.93.75,1.24,1.26.32.51.53,1.1.63,1.78.1.68.06,1.45-.11,2.29ZM136.04,44.04c.06-.3.08-.6.05-.89-.03-.29-.11-.56-.25-.81-.14-.25-.34-.46-.59-.64-.26-.18-.57-.31-.95-.39-.71-.14-1.35-.05-1.92.27-.58.32-.96.81-1.15,1.47l4.82.99Z" style="fill: #231815;"/>
      <path d="M146.49,44.88c-.15-.32-.39-.61-.72-.89-.32-.28-.7-.46-1.13-.55-.38-.08-.74-.07-1.09.02-.35.09-.56.32-.63.69-.07.37.05.66.36.88.32.22.79.48,1.42.77.34.15.67.33,1,.53.33.2.62.44.87.72.25.28.43.59.55.95.12.36.13.76.04,1.22-.12.57-.33,1.04-.62,1.39-.3.35-.65.62-1.06.79-.41.17-.86.27-1.36.28s-1-.03-1.51-.14c-.73-.15-1.42-.43-2.05-.84-.64-.41-1.13-.91-1.49-1.5l1.84-1.13c.19.39.47.74.85,1.05.37.31.81.51,1.32.62.17.03.35.05.53.05.18,0,.36-.03.53-.09.17-.05.31-.14.43-.27.12-.12.2-.29.25-.5.08-.39-.04-.71-.37-.95-.32-.24-.83-.52-1.51-.84-.34-.15-.66-.32-.97-.51-.31-.19-.57-.42-.79-.67s-.38-.55-.47-.88c-.1-.33-.1-.72,0-1.16.11-.52.31-.95.6-1.29.29-.33.64-.59,1.04-.76.4-.17.84-.27,1.31-.29.47-.03.94,0,1.41.1.68.14,1.32.39,1.92.76.6.37,1.04.83,1.32,1.39l-1.81,1.04Z" style="fill: #231815;"/>
      <rect x="28.9" y="46.95" width="57.16" height="9.21" transform="translate(-10.65 15.22) rotate(-13.81)" style="fill: none;"/>
      <rect x="86.68" y="45.81" width="57.16" height="9.21" transform="translate(12.41 -22.03) rotate(11.54)" style="fill: none;"/>
      <rect y="0" width="175" height="100" style="fill: none;"/>
    </g>
  </g>
</svg>