<?xml version="1.0" encoding="UTF-8"?><svg id="uuid-30c1b6e2-a0e9-4734-bda0-e464df97be4b" xmlns="http://www.w3.org/2000/svg" width="255.07" height="125" viewBox="0 0 255.07 125"><defs><style>.uuid-e8659758-54af-46d6-8347-3a60b53c9a6c{fill:#231815;}.uuid-379ea9dc-e437-4f4a-98ce-73a119d06666,.uuid-4a9939b7-d46f-4829-9059-feb8f9d98e34{fill:none;}.uuid-31b5ac82-cc53-4627-802b-52d22f6c2559{fill:#1c1c1c;}.uuid-4a9939b7-d46f-4829-9059-feb8f9d98e34{stroke:#1c1c1c;stroke-miterlimit:10;stroke-width:3.35px;}</style></defs><g id="uuid-584f8745-cbb3-47a7-b9b4-6fbe77bc4794"><rect class="uuid-379ea9dc-e437-4f4a-98ce-73a119d06666" x=".07" width="255" height="125"/><polyline class="uuid-4a9939b7-d46f-4829-9059-feb8f9d98e34" points="1.68 123.71 1.68 53.93 136.28 33.43 251.87 53.93 251.87 123.71"/><path class="uuid-31b5ac82-cc53-4627-802b-52d22f6c2559" d="M3.87,14.1l4.11-.62,1.4,9.33,10.8-1.62-1.4-9.33,4.11-.62,3.47,23.1-4.11.62-1.54-10.25-10.8,1.62,1.54,10.25-4.11.62L3.87,14.1Z"/><path class="uuid-31b5ac82-cc53-4627-802b-52d22f6c2559" d="M29.71,25.77c-.19-1.24-.13-2.4.16-3.48.29-1.08.77-2.03,1.42-2.87.65-.83,1.47-1.52,2.46-2.07.99-.55,2.07-.91,3.24-1.09,1.17-.18,2.31-.15,3.42.09,1.1.23,2.09.65,2.96,1.26.87.6,1.6,1.38,2.2,2.32.6.94.99,2.04,1.17,3.28.19,1.24.13,2.4-.16,3.49-.29,1.09-.77,2.06-1.42,2.9-.65.84-1.47,1.55-2.45,2.12-.98.57-2.06.94-3.24,1.12-1.17.18-2.32.14-3.42-.12-1.11-.26-2.1-.69-2.97-1.31-.87-.61-1.61-1.4-2.21-2.36-.6-.95-.99-2.05-1.18-3.29ZM33.69,25.17c.09.61.28,1.2.55,1.79.28.58.63,1.08,1.08,1.51.44.42.97.74,1.58.96.61.22,1.31.27,2.09.15.78-.12,1.44-.37,1.96-.76.52-.39.93-.85,1.23-1.39.3-.53.49-1.12.59-1.76.09-.64.09-1.26,0-1.87-.09-.61-.27-1.2-.55-1.77-.27-.57-.63-1.07-1.07-1.49-.44-.42-.97-.74-1.58-.95s-1.31-.25-2.09-.14c-.78.12-1.44.37-1.96.74-.52.38-.93.84-1.23,1.37-.3.53-.49,1.11-.59,1.74-.1.63-.1,1.24,0,1.85Z"/><path class="uuid-31b5ac82-cc53-4627-802b-52d22f6c2559" d="M66.46,28.32l-3.72.56-.38-2.51h-.07c-.23.85-.73,1.63-1.5,2.35-.77.73-1.74,1.18-2.92,1.36-1.02.15-1.92.11-2.71-.14-.78-.25-1.45-.63-2.01-1.15-.56-.52-1-1.14-1.33-1.87-.33-.73-.56-1.5-.68-2.3l-1.47-9.79,3.92-.59,1.3,8.68c.07.46.17.93.31,1.42.14.49.35.92.63,1.29.28.37.63.66,1.05.86.42.2.95.26,1.58.16.61-.09,1.13-.3,1.56-.62.43-.32.76-.7,1-1.13.23-.44.39-.92.46-1.45.08-.53.07-1.06,0-1.58l-1.29-8.62,3.92-.59,2.35,15.66Z"/><path class="uuid-31b5ac82-cc53-4627-802b-52d22f6c2559" d="M78.69,14.73c-.42-.4-.96-.73-1.62-.98-.66-.25-1.35-.31-2.07-.21-.63.09-1.19.31-1.67.65-.48.34-.68.81-.59,1.42.09.61.44,1,1.06,1.16.61.16,1.5.29,2.64.39.61.04,1.22.13,1.86.26.63.13,1.22.33,1.76.62.54.28,1.01.67,1.39,1.16.38.49.63,1.11.75,1.87.14.96.09,1.8-.17,2.51-.26.72-.66,1.33-1.19,1.83-.54.5-1.19.91-1.95,1.21-.77.3-1.57.52-2.42.65-1.22.18-2.44.14-3.66-.13-1.22-.27-2.27-.76-3.16-1.48l2.21-2.8c.52.5,1.16.88,1.91,1.15.75.27,1.55.33,2.4.21.28-.04.57-.12.85-.23.28-.11.54-.25.77-.43.23-.18.4-.4.52-.66.12-.26.15-.57.1-.91-.1-.65-.47-1.08-1.11-1.27-.64-.19-1.58-.34-2.82-.44-.61-.04-1.2-.13-1.79-.25-.59-.12-1.12-.32-1.61-.59-.49-.27-.9-.64-1.23-1.1-.34-.46-.56-1.06-.67-1.8-.13-.87-.06-1.65.2-2.33.26-.68.66-1.27,1.19-1.76.53-.49,1.15-.89,1.86-1.2.71-.31,1.46-.52,2.24-.64,1.13-.17,2.26-.14,3.4.09,1.14.23,2.08.7,2.83,1.41l-2.21,2.63Z"/><path class="uuid-31b5ac82-cc53-4627-802b-52d22f6c2559" d="M83.33,4.33c-.09-.63.06-1.21.46-1.75.4-.54.96-.86,1.67-.97.72-.11,1.36.02,1.91.4.56.37.89.9.99,1.57.1.68-.06,1.27-.48,1.79-.42.52-.99.83-1.71.94-.72.11-1.35-.04-1.88-.43-.54-.4-.86-.91-.95-1.54ZM84.68,9.56l3.92-.59,2.35,15.66-3.92.59-2.35-15.66Z"/><path class="uuid-31b5ac82-cc53-4627-802b-52d22f6c2559" d="M93.79,8.19l3.72-.56.38,2.51h.07c.23-.85.73-1.63,1.5-2.35.77-.73,1.74-1.18,2.92-1.36,1.02-.15,1.92-.11,2.71.14.78.25,1.45.63,2.01,1.15.56.52,1,1.14,1.33,1.87.33.73.56,1.5.68,2.3l1.47,9.79-3.92.59-1.3-8.68c-.07-.46-.17-.93-.31-1.42-.14-.49-.35-.92-.63-1.29-.28-.37-.63-.66-1.05-.86-.42-.2-.95-.26-1.58-.16-.63.09-1.16.3-1.58.62-.42.32-.75.7-.98,1.13-.23.44-.39.92-.46,1.45-.08.53-.07,1.06,0,1.58l1.29,8.62-3.92.59-2.35-15.66Z"/><path class="uuid-31b5ac82-cc53-4627-802b-52d22f6c2559" d="M129.2,2.87l2.14,14.26c.21,1.41.23,2.72.05,3.91-.18,1.19-.57,2.24-1.18,3.15-.61.9-1.44,1.66-2.48,2.26-1.04.6-2.33,1.02-3.85,1.25-.63.09-1.31.14-2.03.14-.72,0-1.44-.06-2.16-.18-.72-.11-1.42-.29-2.1-.52-.68-.23-1.3-.52-1.86-.85l1.8-3.37c.87.6,1.81,1.02,2.83,1.26,1.01.24,2.01.28,2.99.13.94-.14,1.7-.4,2.3-.76s1.06-.82,1.36-1.36c.31-.54.5-1.15.56-1.83.06-.68.04-1.41-.08-2.2l-.17-1.15h-.06c-.45.86-1.08,1.56-1.91,2.1-.82.54-1.77.89-2.86,1.05-1.17.18-2.27.12-3.3-.17-1.02-.29-1.92-.76-2.7-1.4-.77-.64-1.42-1.43-1.94-2.36s-.86-1.96-1.03-3.07c-.17-1.13-.15-2.22.06-3.28.21-1.05.59-2,1.14-2.84.55-.84,1.27-1.55,2.15-2.12.88-.58,1.91-.95,3.08-1.13,1.11-.17,2.18-.09,3.2.22,1.03.31,1.89.91,2.6,1.78h.06s-.35-2.36-.35-2.36l3.72-.56ZM121.26,6.87c-.72.11-1.33.33-1.85.68-.52.34-.93.77-1.24,1.27-.32.5-.53,1.07-.64,1.71-.12.64-.12,1.3-.02,2,.09.63.29,1.22.58,1.78.29.55.67,1.04,1.12,1.45.45.41.97.71,1.57.91.6.2,1.24.25,1.94.14.72-.11,1.34-.34,1.88-.7.54-.36.97-.79,1.31-1.31.33-.52.56-1.09.69-1.72.13-.63.14-1.27.04-1.92-.1-.67-.31-1.3-.61-1.87-.31-.57-.7-1.06-1.17-1.45-.47-.39-1.01-.68-1.61-.85-.6-.18-1.27-.21-1.98-.1Z"/><path class="uuid-31b5ac82-cc53-4627-802b-52d22f6c2559" d="M158.4,5.63l-.39,2.18.1.02c.25-.27.56-.53.93-.79.37-.26.81-.47,1.3-.64.5-.17,1.05-.28,1.65-.34.6-.06,1.26-.03,1.98.1,1.1.2,2.09.59,2.94,1.18.86.59,1.55,1.31,2.1,2.17.54.86.91,1.82,1.1,2.88.19,1.06.18,2.17-.02,3.31-.21,1.15-.58,2.19-1.11,3.14-.54.94-1.2,1.73-2,2.36-.79.63-1.7,1.08-2.72,1.36-1.02.28-2.13.31-3.32.1-1.1-.2-2.08-.6-2.91-1.22-.84-.62-1.44-1.36-1.8-2.23h-.07s-1.76,9.87-1.76,9.87l-3.9-.69,4.17-23.39,3.74.67ZM166.12,14.99c.11-.61.12-1.22.05-1.85-.08-.63-.26-1.21-.54-1.76-.28-.54-.68-1.01-1.19-1.4-.51-.39-1.14-.66-1.9-.79-.72-.13-1.38-.09-2,.11-.62.2-1.17.51-1.65.91-.49.41-.89.89-1.2,1.46-.31.57-.53,1.16-.63,1.76-.11.61-.11,1.23-.01,1.86.1.63.31,1.22.62,1.77.32.55.73,1.02,1.24,1.41.51.39,1.12.65,1.84.78.76.14,1.44.1,2.06-.1.62-.2,1.15-.51,1.61-.92.45-.41.82-.9,1.12-1.48.29-.57.49-1.16.6-1.77Z"/><path class="uuid-31b5ac82-cc53-4627-802b-52d22f6c2559" d="M175.72,8.72l3.74.67-.46,2.6h.06c.6-.82,1.33-1.45,2.21-1.87.88-.42,1.84-.54,2.88-.36.15.03.31.06.48.1.17.04.32.1.44.16l-.64,3.57c-.25-.11-.46-.19-.64-.25-.18-.05-.36-.1-.53-.13-.89-.16-1.63-.12-2.23.11-.6.23-1.09.54-1.47.94-.38.4-.67.83-.87,1.29-.19.46-.32.83-.37,1.11l-1.49,8.35-3.9-.69,2.78-15.59Z"/><path class="uuid-31b5ac82-cc53-4627-802b-52d22f6c2559" d="M188.16,10.93l3.9.69-2.78,15.59-3.9-.69,2.78-15.59ZM188.55,5.54c.11-.63.44-1.13.99-1.52.55-.38,1.18-.51,1.9-.38.72.13,1.28.46,1.68.99.41.53.55,1.13.43,1.8-.12.67-.46,1.19-1.03,1.54-.57.36-1.21.47-1.92.35-.71-.13-1.26-.46-1.65-1.01-.38-.55-.52-1.14-.41-1.76Z"/><path class="uuid-31b5ac82-cc53-4627-802b-52d22f6c2559" d="M207.05,18.75c-.22-.49-.62-.93-1.17-1.33-.55-.4-1.15-.66-1.77-.77-.71-.13-1.37-.09-1.96.1-.59.2-1.11.5-1.55.91-.44.41-.8.9-1.08,1.47-.28.56-.48,1.15-.58,1.76-.11.61-.12,1.22-.04,1.85.08.63.26,1.21.54,1.76.28.54.67,1.01,1.17,1.4.5.39,1.12.65,1.85.78.61.11,1.23.1,1.88-.03.65-.13,1.2-.39,1.65-.78l2,2.9c-.77.58-1.7.97-2.77,1.17-1.07.2-2.2.2-3.37-.01-1.15-.2-2.2-.58-3.17-1.13-.96-.55-1.76-1.25-2.41-2.1-.64-.85-1.09-1.83-1.36-2.92-.26-1.1-.28-2.3-.05-3.6.22-1.26.65-2.35,1.27-3.29.63-.94,1.38-1.7,2.27-2.28.88-.58,1.87-.97,2.94-1.19,1.08-.21,2.19-.21,3.34,0,1.15.2,2.22.62,3.21,1.24.99.62,1.74,1.37,2.23,2.24l-3.08,1.86Z"/><path class="uuid-31b5ac82-cc53-4627-802b-52d22f6c2559" d="M226.79,26.06c-.03.17-.06.35-.09.52-.03.17-.07.34-.12.51l-11.86-2.11c-.06.57,0,1.11.16,1.62.17.51.42.97.78,1.38.35.41.77.76,1.26,1.05.49.29,1.01.48,1.57.58.97.17,1.83.14,2.56-.1.73-.24,1.38-.63,1.92-1.18l2.23,2.54c-1.91,1.81-4.33,2.45-7.25,1.93-1.21-.22-2.29-.6-3.25-1.16-.95-.56-1.74-1.25-2.36-2.08-.62-.83-1.06-1.78-1.3-2.86-.24-1.08-.25-2.26-.02-3.54.22-1.26.64-2.36,1.25-3.31.61-.95,1.34-1.73,2.21-2.32.87-.59,1.84-1,2.92-1.22,1.08-.22,2.2-.23,3.37-.02,1.08.19,2.05.55,2.91,1.07.86.52,1.56,1.19,2.11,2.02.54.82.91,1.79,1.11,2.91.19,1.12.16,2.38-.09,3.79ZM223.2,23.61c.09-.5.1-.99.05-1.47-.06-.48-.21-.92-.45-1.32-.24-.4-.58-.74-1.01-1.03-.43-.29-.96-.49-1.59-.6-1.17-.21-2.22-.03-3.16.53-.94.56-1.55,1.38-1.83,2.47l7.99,1.42Z"/><path class="uuid-31b5ac82-cc53-4627-802b-52d22f6c2559" d="M240.35,24.52c-.27-.52-.67-1-1.22-1.44-.55-.44-1.18-.73-1.89-.86-.63-.11-1.22-.08-1.79.08-.57.17-.9.55-1.01,1.16-.11.61.1,1.09.63,1.44.53.35,1.32.75,2.38,1.21.56.23,1.12.51,1.68.84.56.32,1.05.71,1.47,1.15.42.44.74.96.95,1.54.21.58.24,1.26.11,2.01-.17.95-.49,1.73-.97,2.32-.47.6-1.05,1.05-1.71,1.35-.67.31-1.42.48-2.24.52-.83.04-1.66-.01-2.5-.16-1.21-.22-2.35-.65-3.42-1.3-1.07-.65-1.91-1.45-2.52-2.41l3-1.95c.33.64.81,1.21,1.44,1.7.63.49,1.36.81,2.21.96.28.05.57.07.88.06.3-.01.59-.07.87-.16.27-.1.51-.25.7-.46.19-.21.32-.49.38-.84.12-.65-.1-1.17-.64-1.56-.55-.39-1.39-.83-2.53-1.32-.56-.23-1.1-.5-1.62-.81-.51-.3-.96-.66-1.33-1.08-.37-.41-.64-.89-.82-1.44-.17-.54-.19-1.18-.06-1.92.15-.87.47-1.58.93-2.15.47-.56,1.03-.99,1.69-1.29.66-.3,1.37-.48,2.14-.54.77-.06,1.55-.03,2.33.11,1.12.2,2.19.59,3.19,1.17,1,.58,1.75,1.33,2.23,2.24l-2.93,1.79Z"/><rect class="uuid-379ea9dc-e437-4f4a-98ce-73a119d06666" x="8.74" y="27.64" width="127.09" height="15.44" transform="translate(-4.5 11.29) rotate(-8.66)"/><rect class="uuid-379ea9dc-e437-4f4a-98ce-73a119d06666" x="136.89" y="26.47" width="95.8" height="15.44" transform="translate(8.81 -31.74) rotate(10.05)"/><path class="uuid-e8659758-54af-46d6-8347-3a60b53c9a6c" d="M56.73,106.2c2.47,2.09,5.85,3.19,11.74,3.19s9.57-.15,14.44-.72c-.53.87-.91,1.79-1.06,2.77q-.27,1.25-1.44,1.29c-3.8.27-7.07.38-11.97.38s-9.65-.57-12.99-3.5c-.27-.23-.53-.42-.76-.68-1.1,1.48-2.43,2.85-3.99,4.22-.42.34-.65.53-.84.53-.23,0-.38-.27-.68-.76-.57-.99-1.25-1.75-1.98-2.36,2.01-1.48,3.65-2.96,4.94-4.64-1.1-1.6-2.09-3.5-2.96-5.81-.27-.61-.27-.72.23-.99l1.86-.99c.65-.34.68-.19.95.46.53,1.67,1.14,3.04,1.82,4.22.95-2.01,1.6-4.41,1.97-7.33h-3.27l-.61.91c-.15.23-.27.34-.46.34-.27,0-.68-.19-1.6-.61-1.14-.53-1.52-.68-1.52-.91,0-.11.08-.27.23-.46,2.51-3.5,4.33-6.8,5.81-9.95h-2.51c-2.47,0-3.23.08-3.46.08-.38,0-.42-.04-.42-.42v-2.81c0-.42.04-.46.42-.46.23,0,.99.08,3.46.08h4.14c.38,0,.68-.04.84-.08.15-.04.3-.11.46-.11.23,0,.49.15,1.25,1.1.65.84.99,1.29.99,1.63s-.15.46-.38.65c-.42.23-.72.87-1.03,1.41-.87,1.6-2.01,3.8-3.46,6.23h1.82c.38,0,.65-.04.87-.19.23-.11.3-.19.49-.19.3,0,.61.23,1.37,1.1.76.8.91,1.06.91,1.37s-.11.46-.42.76c-.27.3-.34.72-.46,1.33-.53,3.84-1.44,6.99-2.96,9.76l.19.15ZM65.02,105.48c-3.61,0-4.86.08-5.09.08-.38,0-.42-.04-.42-.46v-2.32c0-.42.04-.46.42-.46.23,0,1.48.08,5.09.08h3.04v-2.13h-1.67c-3.42,0-4.63.08-4.86.08-.38,0-.42-.04-.42-.42v-2.2c0-.38.04-.42.42-.42.23,0,1.44.08,4.86.08h1.67v-2.13h-2.05c-2.96,0-3.91.08-4.14.08-.38,0-.42-.04-.42-.42v-2.13c0-.38.04-.42.42-.42.23,0,1.18.08,4.14.08h2.05v-2.13h-3.42c-3.5,0-4.67.08-4.9.08-.38,0-.42-.04-.42-.46v-2.24c0-.38.04-.42.42-.42.23,0,1.41.08,4.9.08h3.42v-2.09h-1.41c-3.38,0-4.48.08-4.71.08-.38,0-.42-.04-.42-.42v-2.2c0-.38.04-.42.42-.42.23,0,1.33.08,4.71.08h1.41c-.04-1.33-.11-2.2-.27-3.08,1.44.04,2.47.11,3.72.27.38.04.61.15.61.38s-.11.38-.23.61c-.15.27-.23.65-.23,1.82h2.2c3.5,0,5.17-.08,5.4-.08.42,0,.46.04.46.42,0,.23-.08,1.37-.08,3.76v.87c1.18,0,2.36-.08,2.55-.08.38,0,.42.04.42.42v2.28c0,.38-.04.42-.42.42-.19,0-1.37-.04-2.55-.08v.91c0,2.39.08,3.5.08,3.68,0,.38-.04.42-.46.42-.23,0-1.9-.08-5.4-.08h-2.2v2.13h3.19c3.42,0,4.6-.08,4.83-.08.42,0,.46.04.46.42v2.2c0,.38-.04.42-.46.42-.23,0-1.41-.08-4.83-.08h-3.19v2.13h4.48c3.65,0,4.9-.08,5.13-.08.38,0,.42.04.42.46v2.32c0,.42-.04.46-.42.46-.23,0-1.48-.08-5.13-.08h-4.48c.04,1.67.08,2.47.08,2.62,0,.42-.04.46-.42.46h-2.89c-.42,0-.46-.04-.46-.46,0-.08.04-.95.04-2.62h-3ZM71.66,85.27v2.09h4.45v-2.09h-4.45ZM76.11,90.32h-4.45v2.13h4.45v-2.13Z"/><path class="uuid-e8659758-54af-46d6-8347-3a60b53c9a6c" d="M93.48,90.74c-.19,1.56-.46,3.12-.8,4.45-.19.65-.27.91-.49.91-.15,0-.42-.15-.84-.38-.61-.3-1.6-.61-2.24-.76,1.06-3.53,1.48-6.99,1.6-9.95.04-.72.04-1.48-.08-2.43,1.03.11,2.28.27,3.19.42.42.08.57.23.57.46s-.04.34-.15.61c-.15.3-.19.68-.23,1.29-.04.61-.08,1.22-.15,1.86h1.82v-2.09c0-2.7-.08-3.84-.3-5.74,1.41.04,2.62.11,3.91.27.38.04.61.19.61.38,0,.3-.11.49-.23.8-.19.46-.23,1.41-.23,4.22v2.17c2.01,0,2.77-.08,2.96-.08.38,0,.42.04.42.38v2.58c2.01-2.39,3.27-4.9,4.22-7.71.3-.99.53-1.9.68-3.04,1.03.15,2.47.38,3.57.65.42.11.65.27.65.53s-.11.46-.38.76c-.27.3-.46.8-.76,1.75-.34,1.03-.76,2.05-1.22,3.12h8.85c2.89,0,3.8-.08,4.03-.08.42,0,.53.11.53.49-.04,1.03-.08,2.05-.08,2.96-.08,9.08-.38,13.91-1.1,18.28-.61,4.07-2.28,6-5.66,6-.68,0-1.75,0-2.74-.08q-1.18-.08-1.41-1.33c-.23-1.22-.53-2.13-.91-2.85,1.75.3,3.08.38,4.45.38,1.71,0,2.28-1.14,2.58-3.15.57-4.1,1.03-8.32,1.18-16.41-2.7,9.57-6.46,16.34-13.03,21.43-.46.34-.72.53-.95.53-.27,0-.46-.23-.8-.72-.65-.95-1.41-1.63-2.09-2.09,7.18-4.86,11.06-11.36,13.53-19.95h-2.51c-1.79,5.89-4.56,10.33-8.4,13.83-.42.42-.68.61-.91.61s-.42-.19-.76-.65c-.65-.8-1.44-1.48-2.13-1.94,3.99-2.93,6.88-6.76,8.55-11.85h-2.01c-.8,1.33-1.75,2.62-2.81,3.84-.42.46-.61.65-.8.65-.23,0-.42-.19-.84-.61-.72-.68-1.52-1.22-2.17-1.6l.99-1.03c-.38,0-1.22-.04-2.74-.08v6.12c1.1-.53,2.28-1.1,3.53-1.79,0,.68,0,1.71.08,2.55.08,1.14.08,1.18-.95,1.71-.91.49-1.79.95-2.66,1.37v6.42c0,4.33.08,6.5.08,6.69,0,.38-.04.42-.42.42h-3.08c-.38,0-.42-.04-.42-.42,0-.23.08-2.36.08-6.65v-4.71c-.87.38-1.79.72-2.66,1.06-.57.27-1.03.49-1.22.68-.23.23-.42.38-.65.38-.27,0-.46-.11-.61-.42-.45-1.1-.91-2.51-1.29-3.69,1.25-.27,2.32-.57,3.57-.99.95-.3,1.9-.65,2.85-.99v-7.75h-2.2Z"/><path class="uuid-e8659758-54af-46d6-8347-3a60b53c9a6c" d="M134.11,100.01c0-1.37,0-3.08.04-4.71-.57.84-1.21,1.63-1.9,2.47-.3.34-.53.53-.68.53-.23,0-.34-.23-.42-.65-.23-1.29-.68-2.66-1.14-3.46,2.93-3.42,4.98-7.6,6.5-12.23.27-.91.49-1.79.61-2.74,1.25.38,2.43.76,3.5,1.29.38.15.61.34.61.68,0,.27-.19.46-.42.68-.27.23-.42.57-.76,1.52-.68,1.94-1.37,3.72-2.17,5.43v19.23c0,3.69.08,5.55.08,5.74,0,.38-.04.42-.42.42h-3.08c-.38,0-.42-.04-.42-.42,0-.23.08-2.05.08-5.74v-8.05ZM146.57,85.65c-3.72,0-4.98.08-5.21.08-.38,0-.42-.04-.42-.42v-2.81c0-.42.04-.46.42-.46.23,0,1.48.08,5.21.08h13.45c3.72,0,4.98-.08,5.21-.08.38,0,.42.04.42.46v2.81c0,.38-.04.42-.42.42-.23,0-1.48-.08-5.21-.08h-2.43v5.85h1.18c3.69,0,5.01-.08,5.28-.08.38,0,.42.04.42.42,0,.23-.08,1.71-.08,6.23v6.61c0,6.69.08,8.09.08,8.32,0,.38-.04.42-.42.42h-2.96c-.38,0-.42-.04-.42-.42v-1.6h-15.92v1.75c0,.38-.04.42-.42.42h-2.92c-.38,0-.42-.04-.42-.42,0-.23.08-1.63.08-8.36v-6c0-5.24-.08-6.69-.08-6.95,0-.38.04-.42.42-.42.23,0,1.52.08,5.21.08h.99v-5.85h-1.03ZM147.6,108.03v-13.18h-2.85v13.18h2.85ZM154.06,91.5v-5.85h-2.92v5.85h2.92ZM154.06,108.03v-13.18h-2.92v13.18h2.92ZM157.59,94.84v13.18h3.08v-13.18h-3.08Z"/><path class="uuid-e8659758-54af-46d6-8347-3a60b53c9a6c" d="M200.87,82.95c.3,0,.53-.04.68-.11s.3-.11.42-.11c.3,0,.65.11,1.48.99.8.91.91,1.18.91,1.48,0,.27-.11.46-.42.68-.27.19-.49.46-.87,1.14-1.25,2.36-2.81,4.48-4.71,6.42,2.77,1.86,6,3.19,9.5,3.99-.53.8-.95,1.71-1.18,2.62q-.3,1.18-1.48.87c-.57-.19-1.18-.38-1.71-.61,0,.27-.08,1.33-.08,3.72v3.34c0,5.17.08,6.12.08,6.31,0,.38-.04.42-.42.42h-3c-.38,0-.42-.04-.42-.42v-1.48h-8.85v1.52c0,.38-.04.42-.42.42h-2.93c-.38,0-.42-.04-.42-.42,0-.23.08-1.18.08-6.31v-2.89c0-2.01-.04-3.08-.08-3.65l-1.14.46c-.42.15-.68.27-.91.27-.34,0-.49-.3-.8-1.03-.27-.76-.76-1.6-1.29-2.2,3.84-1.22,7.18-2.93,9.92-4.94-1.18-1.22-2.2-2.55-3.08-3.99-.8.95-1.63,1.82-2.54,2.66-.46.42-.68.61-.88.61-.23,0-.46-.23-.83-.72-.53-.65-1.1-1.22-1.75-1.63-.42,0-1.1-.04-2.09-.04,1.03,1.79,2.24,3.31,3.61,4.56-.49.68-.95,1.52-1.22,2.39-.15.49-.23.72-.42.72-.11,0-.3-.19-.57-.57-.65-.87-1.29-1.86-1.82-2.93,0,10.3.27,18.54.27,19.19,0,.42-.04.46-.46.46h-3.08c-.38,0-.42-.04-.42-.46,0-.61.23-7.94.27-16.83-.87,3.08-2.17,5.93-3.72,8.4-.23.38-.42.61-.57.61s-.3-.19-.42-.61c-.3-.99-.76-2.01-1.33-2.89,2.51-3.34,4.45-7.18,5.7-12.04h-.8c-2.66,0-3.5.08-3.72.08-.34,0-.38-.04-.38-.42v-2.7c0-.38.04-.42.38-.42.23,0,1.06.08,3.72.08h1.03v-2.39c0-2.36-.04-3.61-.3-5.21,1.44.04,2.62.11,3.8.27.38.04.65.19.65.42,0,.3-.11.53-.23.8-.23.46-.27,1.06-.27,3.65v2.47c2.24,0,2.96-.08,3.19-.08.38,0,.42.04.42.42v1.94c2.36-2.32,4.29-5.09,5.59-8.02.34-.76.57-1.44.72-2.17,1.29.19,2.47.42,3.5.68.42.11.61.27.61.46s-.11.34-.3.53c-.3.27-.49.57-.72,1.06l-.53,1.18h7.07ZM198.59,100.01c2.28,0,3.46-.04,4.03-.04-2.58-1.1-4.94-2.39-6.99-4.03-1.9,1.52-4.1,2.89-6.57,4.07h9.54ZM190.8,108.9h8.85v-5.43h-8.85v5.43ZM191.87,86.49c.95,1.75,2.2,3.31,3.65,4.67,1.6-1.56,2.89-3.23,3.8-4.94h-7.29l-.15.27Z"/></g></svg>