<?xml version="1.0" encoding="UTF-8"?>
<svg id="uuid-a7b59b7e-4b9e-4f15-a39d-23511e7da95e" data-name="レイヤー_2" xmlns="http://www.w3.org/2000/svg" viewBox="0 0 40.01 40.01">
  <g id="uuid-e8d9c890-b0ad-40fc-af99-1a8b381b67b9" data-name="レイヤー_1">
    <path d="M39.66,23.69c.22-1.2.35-2.42.35-3.68s-.13-2.49-.35-3.68l-14.76,1.66,11.61-9.27c-1.4-2.04-3.17-3.81-5.21-5.21l-9.27,11.61L23.69.35c-1.2-.22-2.42-.35-3.68-.35s-2.49.13-3.68.35l1.66,14.76L8.71,3.5c-2.04,1.4-3.81,3.17-5.21,5.21l11.61,9.27L.35,16.32c-.22,1.2-.35,2.42-.35,3.68s.13,2.49.35,3.68l14.76-1.66L3.5,31.3c1.4,2.04,3.17,3.81,5.21,5.21l9.27-11.61-1.66,14.76c1.2.22,2.42.35,3.68.35s2.49-.13,3.68-.35l-1.66-14.76,9.27,11.61c2.04-1.4,3.81-3.17,5.21-5.21l-11.61-9.27,14.76,1.66Z" style="fill: #c91933;"/>
  </g>
</svg>