<?xml version="1.0" encoding="utf-8"?>
<svg xmlns="http://www.w3.org/2000/svg" version="1.1" viewBox="0 0 800 800.04">
  <defs>
    <style>

      /* 文字 */
      .text {
      fill: #231815;
      transform: translate(0, 0);
      animation: text 0.7s forwards;
      }
      /* 花 */
      .flower {
      fill: #c9002e;
      transform-box: fill-box;
      transform-origin: center center;
      animation: flower 3s forwards;
      animation-delay: 0.5s;
      }
      @keyframes flower {
      10% {
      }
      100% {
      transform: rotate(720deg);
      }
      }
    </style>
  </defs>
  <path class="text"
    d="M221.58,202.46c-10.69.14-18,5.99-18,15.64v15.67h7.34v-14.61c0-7.62,5.92-10.26,12.54-9.34l-1.87-7.36Z" />
  <path class="flower"
    d="M228.48,183.01c.24-1.29.38-2.62.38-3.98s-.14-2.69-.38-3.98l-15.94,1.79,12.54-10.01c-1.51-2.21-3.42-4.12-5.63-5.63l-10.01,12.54,1.79-15.94c-1.29-.24-2.62-.38-3.98-.38s-2.69.14-3.98.38l1.79,15.94-10.01-12.54c-2.21,1.51-4.12,3.42-5.63,5.63l12.54,10.01-15.94-1.79c-.24,1.29-.38,2.62-.38,3.98s.14,2.69.38,3.98l15.94-1.79-12.54,10.01c1.51,2.21,3.42,4.12,5.63,5.63l10.01-12.54-1.79,15.94c1.29.24,2.62.38,3.98.38s2.69-.14,3.98-.38l-1.79-15.94,10.01,12.54c2.21-1.51,4.12-3.42,5.63-5.63l-12.54-10.01,15.94,1.79Z" />
</svg>