<?xml version="1.0" encoding="UTF-8"?>
<svg id="_レイヤー_2" data-name="レイヤー 2" xmlns="http://www.w3.org/2000/svg" viewBox="0 0 158.99 36.52">
  <g id="_レイヤー_1-2" data-name="レイヤー 1">
    <g>
      <path d="M74.87,11.76c.11-.59.18-1.2.18-1.83s-.06-1.23-.18-1.83l-7.32.82,5.76-4.6c-.69-1.01-1.57-1.89-2.59-2.59l-4.6,5.76.82-7.32c-.59-.11-1.2-.18-1.83-.18s-1.23.06-1.83.18l.82,7.32-4.6-5.76c-1.01.69-1.89,1.57-2.59,2.59l5.76,4.6-7.32-.82c-.11.59-.18,1.2-.18,1.83s.06,1.23.18,1.83l7.32-.82-5.76,4.6c.69,1.01,1.57,1.89,2.59,2.59l4.6-5.76-.82,7.32c.59.11,1.2.18,1.83.18s1.23-.06,1.83-.18l-.82-7.32,4.6,5.76c1.01-.69,1.89-1.57,2.59-2.59l-5.76-4.6,7.32.82Z" style="fill: #b91f3a;"/>
      <path d="M11.78,16.63L0,34.71l2.83,1.81,4.71-7.22h9c.31,1.8.42,3.66.42,5.4h3.41c0-9.54-2.97-15.46-8.59-18.07ZM9.29,26.6l3.44-5.28c1.51,1.4,2.51,3.24,3.16,5.28h-6.6Z"/>
      <path d="M40.98,28.9c0-1.26,0-3.44,0-5.56h3.95l-.51-2.7h-3.45c0-1.75,0-3.04,0-3.04l-3.45-.92v12.31c0,4.43,2.75,6.11,6.51,6.08l.95-3.09c-.77.08-4.01.2-4.01-3.1Z"/>
      <path d="M63.43,27.88v7.2h3.37v-6.71c0-3.5,2.72-4.71,5.76-4.29l-.86-3.38c-4.91.06-8.27,2.75-8.27,7.18Z"/>
      <path d="M56.6,21.25c-2.98-1.35-6.6-.43-8.32,2.57-1.39,2.42-1.44,5.85-.06,8.23,1.21,2.07,3.63,3.14,6.14,3.07,3.72-.1,5.66-2.98,5.66-2.98l-2.53-1.99c-.51,1.07-1.7,2.16-3.71,2.01-1.72-.13-2.92-1.01-3.3-2.88h9.79c.34-2.84-.44-6.56-3.66-8.02ZM57.09,26.64h-6.65c.34-2.06,1.57-3.31,3.42-3.29,2.05.02,3.33,1.6,3.24,3.29Z"/>
      <path d="M31.91,27.65c-1.16-.49-2.68-1.12-3.41-1.41-1.11-.44-1.59-1.14-1.21-2,.5-1.15,2.83-1.22,4.88,1.09l2.09-2.34s-2.07-2.12-4.73-2.28c-2.61-.15-4.56.87-5.29,2.67-.76,1.87-.24,3.83,2.04,4.84.97.43,2,.83,3.29,1.36,1.2.49,1.94.92,1.76,1.67-.21.85-1.16,1.08-2.43.88-1.72-.26-3.05-1.11-3.69-1.84l-2.1,2.4c.79.79,2.93,2.17,5.56,2.37,2.59.2,4.99-.82,5.64-2.73.74-2.18-.38-3.83-2.4-4.69Z"/>
      <path d="M112.11,22.56c-.63-.63-1.37-1.11-2.23-1.45-.86-.34-1.77-.51-2.74-.51s-1.88.17-2.74.51c-.86.34-1.6.83-2.23,1.45-.63.63-1.12,1.38-1.49,2.27-.37.88-.55,1.87-.55,2.95s.18,2.07.55,2.97c.37.89.86,1.66,1.49,2.29.63.64,1.37,1.14,2.23,1.5.86.36,1.77.54,2.74.54s1.88-.18,2.74-.54c.86-.36,1.6-.86,2.23-1.5.63-.64,1.12-1.4,1.49-2.29.37-.89.55-1.88.55-2.97s-.18-2.07-.55-2.95c-.37-.88-.86-1.64-1.49-2.27ZM110.64,29.37c-.15.53-.38,1.01-.68,1.43-.31.42-.69.76-1.16,1.03-.47.27-1.02.4-1.67.4s-1.2-.13-1.67-.4c-.47-.27-.85-.61-1.16-1.03-.31-.42-.53-.89-.69-1.43-.15-.53-.23-1.06-.23-1.6s.08-1.06.23-1.58c.15-.52.38-.99.69-1.41.3-.42.69-.76,1.16-1.01.47-.26,1.02-.38,1.67-.38s1.2.13,1.67.38c.47.26.85.59,1.16,1.01.3.42.53.89.68,1.41.15.52.23,1.05.23,1.58s-.08,1.07-.23,1.6Z"/>
      <polygon points="93.72 25.07 84.66 25.07 84.66 17.61 81.21 16.68 81.21 34.69 84.66 34.69 84.66 27.77 93.72 27.77 93.72 34.69 97.17 34.69 97.17 17.61 93.72 16.68 93.72 25.07"/>
      <path d="M141.14,27.65c-1.16-.49-2.68-1.12-3.41-1.41-1.11-.44-1.59-1.14-1.21-2,.5-1.15,2.83-1.22,4.88,1.09l2.09-2.34s-1.88-2.14-4.73-2.28c-2.62-.12-4.56.87-5.29,2.67-.76,1.87-.24,3.83,2.04,4.84.97.43,2,.83,3.29,1.36,1.2.49,1.94.92,1.76,1.67-.21.85-1.16,1.08-2.43.88-1.72-.26-3.05-1.11-3.69-1.84l-2.1,2.4c.79.79,2.93,2.17,5.56,2.37,2.59.2,4.94-.59,5.58-2.49.74-2.18-.32-4.06-2.34-4.92Z"/>
      <path d="M155.26,21.25c-2.98-1.35-6.6-.43-8.32,2.57-1.39,2.42-1.44,5.85-.06,8.23,1.21,2.07,3.63,3.14,6.14,3.07,3.72-.1,5.66-2.98,5.66-2.98l-2.53-1.99c-.51,1.07-1.7,2.16-3.71,2.01-1.72-.13-2.92-1.01-3.3-2.88h9.79c.34-2.84-.44-6.56-3.66-8.02ZM155.75,26.64h-6.65c.34-2.06,1.57-3.31,3.42-3.29,2.05.02,3.33,1.6,3.24,3.29Z"/>
      <path d="M126.31,28.59c0,2.06-.75,3.57-3.04,3.57s-3.03-1.3-3.03-3.48v-7.16l-3.45-.92v8.7c0,3.33,2.07,5.78,6.48,5.78,4.77,0,6.49-2.84,6.49-5.78v-7.78l-3.45-.92v7.99Z"/>
    </g>
  </g>
</svg>