<?xml version="1.0" encoding="utf-8"?>
<svg xmlns="http://www.w3.org/2000/svg" version="1.1" viewBox="0 0 669.13 421.83">
  <defs>
    <style>
      /* 文字 */
      .text{opacity:0;transform:translate(-5px,10px);animation:fadeIn 0.7s
      forwards;animation-delay:1.4s;}
      /* 人 */
      .human,.table{fill:none;stroke:#c9002e;stroke-miterlimit:10;stroke-width:3px;}
      .human{opacity:0;transform:translate(0,10px);animation:fadeIn 0.7s
      forwards;animation-delay:0.7s;}
      .test{opacity:0;}
      @keyframes fadeIn{
      100%{opacity:1;transform:translate(0,0);}
      }
      /* テーブル */
      .table{animation:line 1.3s forwards;animation-delay:0.3s;}
      .table-01{stroke-dasharray:80;stroke-dashoffset:80;}
      .table-02{stroke-dasharray:160;stroke-dashoffset:160;}
      /* 線 */
      .line{fill:none;stroke:#b90b37;stroke-miterlimit:10;stroke-width:3px;stroke-linecap:round;animation:line
      1s forwards;}
      .line-01{transform:translate(83px,27px);stroke-dasharray:340;stroke-dashoffset:340;}
      .line-02{transform:translate(0,70px);stroke-dasharray:180;stroke-dashoffset:180;}
      .line-03{transform:translate(-112px,0);stroke-dasharray:450;stroke-dashoffset:450;}
      .line-04{transform:translate(0,-77px);stroke-dasharray:210;stroke-dashoffset:210;}
      .line-05{transform:translate(62px,-33px);stroke-dasharray:150;stroke-dashoffset:150;}
      @keyframes line{
      100%{stroke-dashoffset:0;}
      100%{stroke-dashoffset:0;transform:translate(0,0);}
      }
    </style>
  </defs>
  <g class="text">
    <path d="M272.34,34.07l2.88.92-4.33,13.63,6.88,2.19-.81,2.56-9.77-3.1,5.15-16.19Z" />
    <path
      d="M283.64,43.4l2.75.87-3.49,10.98-2.74-.87,3.49-10.98ZM284.44,39.55c.14-.44.43-.77.86-1,.43-.22.9-.25,1.4-.1.5.16.88.45,1.12.87.24.42.29.87.14,1.34-.15.47-.45.81-.89,1.01-.44.2-.92.23-1.42.07-.5-.16-.87-.46-1.09-.89-.22-.43-.27-.87-.12-1.31Z" />
    <path
      d="M290.89,48.12l-2.08-.66.7-2.2,2.08.66.52-1.62c.21-.66.48-1.26.82-1.82.34-.56.75-1.01,1.24-1.36.49-.35,1.06-.57,1.71-.65.65-.09,1.4,0,2.25.28.3.1.56.19.75.28.2.09.39.2.59.33l-.92,2.27c-.14-.09-.29-.18-.46-.27-.17-.09-.35-.16-.55-.22-.4-.13-.74-.15-1.03-.08-.29.07-.54.21-.75.42-.21.2-.38.44-.52.72-.14.27-.25.55-.34.82l-.57,1.78,2.54.81-.7,2.2-2.54-.81-2.79,8.78-2.75-.87,2.79-8.78Z" />
    <path
      d="M308.65,57.54c-.04.12-.08.24-.12.37-.04.12-.09.24-.14.36l-8.35-2.65c-.1.41-.11.8-.04,1.18.07.38.21.74.43,1.07.21.33.48.62.8.87.32.25.68.44,1.08.57.69.22,1.3.28,1.86.17.55-.1,1.05-.32,1.5-.67l1.37,2.05c-1.55,1.12-3.35,1.35-5.41.7-.85-.27-1.6-.65-2.23-1.15-.63-.49-1.13-1.07-1.5-1.72-.37-.66-.59-1.38-.66-2.19-.07-.8.03-1.65.32-2.56.28-.88.69-1.64,1.21-2.27.53-.63,1.13-1.12,1.81-1.46.68-.35,1.42-.55,2.22-.6.8-.06,1.61.05,2.43.31.76.24,1.43.59,2,1.05.57.46,1.01,1.01,1.32,1.66.32.65.49,1.38.52,2.21.03.82-.11,1.73-.42,2.72ZM306.3,55.43c.11-.35.17-.7.17-1.05,0-.35-.06-.68-.2-1-.14-.31-.34-.59-.63-.84-.28-.25-.64-.44-1.09-.58-.82-.26-1.6-.24-2.33.08-.73.31-1.25.85-1.56,1.61l5.63,1.79Z" />
    <path
      d="M319.28,57.14l.7-2.2,1.92.61,1.01-3.18,2.7.86-1.01,3.18,2.74.87-.7,2.2-2.75-.87-1.62,5.1c-.16.49-.2.92-.12,1.3.07.38.42.66,1.03.85.18.06.39.1.61.13s.43.03.63.01l-.59,2.18c-.27.01-.59,0-.94-.06-.35-.05-.68-.13-.99-.23-.73-.23-1.29-.52-1.69-.88-.39-.35-.66-.75-.82-1.19-.15-.44-.21-.91-.16-1.41.05-.5.16-1.01.33-1.55l1.63-5.12-1.92-.61Z" />
    <path
      d="M337.02,60.01c.72.23,1.29.55,1.72.96.43.41.75.88.94,1.39.2.52.29,1.07.27,1.65-.02.58-.12,1.16-.29,1.72l-2.18,6.86-2.74-.87,1.92-6.04c.1-.32.18-.66.25-1.02.06-.36.07-.7.01-1.03-.06-.33-.19-.63-.4-.89-.21-.27-.53-.47-.98-.61-.44-.14-.85-.18-1.22-.11-.37.07-.71.21-1.01.42-.3.21-.56.48-.78.8-.22.32-.39.66-.5,1.02l-1.91,5.99-2.74-.87,5.5-17.29,2.74.87-2.49,7.85h.05c.18-.18.41-.35.68-.51.28-.16.58-.28.91-.37.33-.09.69-.13,1.07-.13.38,0,.78.07,1.2.2Z" />
    <path
      d="M349.26,74.8l-.07-.02c-.43.4-1,.66-1.71.78-.71.12-1.45.05-2.23-.19-.44-.14-.88-.34-1.33-.61-.44-.27-.83-.6-1.14-.99-.32-.4-.54-.85-.67-1.37-.13-.52-.09-1.1.11-1.74.26-.82.7-1.41,1.32-1.75.62-.34,1.34-.52,2.15-.55.81-.03,1.68.06,2.6.26.92.2,1.8.44,2.66.71l.09-.27c.22-.69.13-1.27-.26-1.76-.39-.49-.93-.84-1.62-1.05-.58-.18-1.17-.24-1.79-.17-.61.07-1.15.23-1.61.47l-.89-2.12c.81-.38,1.67-.59,2.58-.62.91-.03,1.78.09,2.62.35.97.31,1.74.7,2.28,1.18.55.48.93.99,1.16,1.55s.32,1.14.29,1.73c-.03.6-.13,1.17-.31,1.72l-2.12,6.68-2.56-.81.44-1.4ZM350.36,71.17l-.62-.2c-.44-.14-.91-.27-1.41-.39-.5-.12-.98-.18-1.43-.18-.45,0-.85.07-1.2.22-.35.15-.59.43-.72.84-.08.26-.09.5-.04.71.06.21.16.4.31.56.15.16.33.31.54.42.21.12.44.21.67.29.94.3,1.74.28,2.39-.07.65-.35,1.11-.96,1.39-1.83l.12-.39Z" />
    <path
      d="M357.13,69.17l.7-2.2,1.92.61,1.01-3.18,2.7.86-1.01,3.18,2.74.87-.7,2.2-2.75-.87-1.62,5.1c-.16.49-.2.92-.12,1.3.07.38.42.66,1.03.85.18.06.39.1.61.13.22.03.43.03.62.01l-.59,2.18c-.27.01-.59,0-.94-.06-.35-.05-.68-.13-.99-.23-.73-.23-1.29-.52-1.69-.88-.39-.35-.66-.75-.82-1.19-.15-.44-.2-.91-.16-1.41.05-.5.16-1.01.33-1.55l1.63-5.12-1.92-.61Z" />
    <path
      d="M384.34,81.59c-.04.12-.08.24-.12.37-.04.12-.09.24-.14.36l-8.35-2.65c-.1.41-.11.8-.04,1.18.07.38.21.74.43,1.07.21.33.48.62.8.87.32.25.68.44,1.08.57.69.22,1.31.28,1.86.18.55-.1,1.05-.32,1.5-.67l1.37,2.05c-1.55,1.12-3.35,1.35-5.41.7-.85-.27-1.6-.65-2.23-1.15-.63-.49-1.13-1.07-1.5-1.72-.37-.66-.59-1.38-.66-2.19-.07-.8.03-1.65.32-2.55.28-.88.69-1.64,1.21-2.27.53-.63,1.13-1.12,1.81-1.46.68-.35,1.42-.55,2.22-.6.8-.06,1.61.05,2.43.31.76.24,1.43.59,2,1.05.57.46,1.01,1.01,1.32,1.66.32.65.49,1.38.52,2.21.03.82-.11,1.73-.42,2.72ZM381.98,79.49c.11-.35.17-.7.17-1.05,0-.35-.06-.68-.2-1-.14-.31-.34-.59-.63-.84-.28-.25-.64-.44-1.08-.58-.82-.26-1.6-.23-2.33.08-.73.31-1.25.85-1.56,1.61l5.63,1.79Z" />
    <path
      d="M390.1,77.23l2.61.83-.56,1.76h.05c.42-.46,1-.81,1.73-1.03.73-.23,1.51-.21,2.34.05.72.23,1.29.55,1.72.96.43.41.75.88.94,1.39.2.52.29,1.07.27,1.65-.02.58-.12,1.16-.29,1.72l-2.18,6.86-2.74-.87,1.93-6.08c.1-.32.19-.66.25-1.03.07-.37.07-.71,0-1.04-.06-.33-.2-.63-.41-.9-.21-.27-.53-.47-.98-.61-.44-.14-.85-.17-1.23-.1-.38.07-.71.21-1,.42-.29.21-.55.48-.77.8-.22.32-.39.67-.5,1.04l-1.92,6.04-2.74-.87,3.49-10.98Z" />
    <path
      d="M404.73,81.88l2.63.84-.58,1.83h.05c.51-.53,1.1-.91,1.78-1.13.67-.22,1.38-.22,2.11.02.11.03.22.07.34.12.12.05.22.1.3.16l-.8,2.52c-.17-.1-.31-.18-.44-.24-.12-.06-.25-.1-.37-.14-.63-.2-1.17-.24-1.62-.14-.45.11-.84.29-1.15.54-.32.25-.56.53-.75.85-.18.31-.31.57-.37.76l-1.87,5.88-2.74-.87,3.49-10.98Z" />
    <path
      d="M414.46,84.97l2.75.87-3.49,10.98-2.74-.87,3.49-10.98ZM415.26,81.12c.14-.44.43-.78.86-1,.43-.22.9-.26,1.4-.1.5.16.88.45,1.12.87.24.42.29.87.14,1.34-.15.47-.45.81-.89,1.01-.44.2-.91.23-1.42.07-.5-.16-.87-.46-1.09-.89-.22-.43-.27-.87-.12-1.31Z" />
    <path
      d="M428.32,92.73c-.12-.37-.36-.73-.72-1.07-.36-.34-.76-.58-1.21-.72-.5-.16-.98-.2-1.42-.11-.45.08-.85.25-1.21.51s-.67.57-.92.95c-.26.38-.45.78-.59,1.21-.14.43-.21.87-.21,1.33,0,.46.07.9.22,1.32.15.42.39.79.71,1.12.32.33.74.58,1.26.74.43.14.88.19,1.36.16.48-.03.9-.17,1.26-.4l1.16,2.28c-.61.34-1.31.54-2.11.58-.79.04-1.6-.07-2.43-.33-.81-.26-1.53-.63-2.17-1.12-.64-.49-1.15-1.07-1.54-1.75-.38-.68-.61-1.42-.7-2.24-.08-.82.02-1.68.31-2.6.28-.88.69-1.63,1.23-2.25.54-.62,1.16-1.09,1.85-1.43.69-.33,1.44-.52,2.24-.57.8-.05,1.6.05,2.41.31.81.26,1.54.66,2.2,1.2.66.54,1.12,1.15,1.4,1.83l-2.4,1.05Z" />
    <path
      d="M440.53,92.91c.72.23,1.29.55,1.72.96.43.41.75.88.94,1.39.2.52.29,1.07.27,1.65-.02.58-.12,1.16-.29,1.72l-2.18,6.86-2.74-.87,1.92-6.04c.1-.32.18-.66.25-1.02.06-.36.07-.7.01-1.03-.06-.33-.19-.63-.4-.89-.21-.27-.53-.47-.98-.61-.44-.14-.85-.18-1.22-.11-.37.07-.71.21-1.01.42-.3.21-.56.48-.78.8-.22.32-.39.66-.5,1.02l-1.91,5.99-2.74-.87,5.5-17.29,2.74.87-2.49,7.85h.05c.18-.18.41-.36.68-.51.28-.15.58-.28.91-.37.33-.09.69-.13,1.07-.12s.78.07,1.2.2Z" />
    <path
      d="M454.5,97.7l3.04.97.53,8.96h.05s5.26-7.1,5.26-7.1l2.86.91-9.43,11.68c-.36.44-.71.82-1.07,1.13-.35.32-.73.56-1.13.72-.41.17-.85.25-1.33.25-.48,0-1.02-.1-1.63-.29-.23-.07-.46-.16-.69-.26-.23-.1-.46-.22-.68-.36l.99-2.31c.16.12.33.22.5.3s.33.14.48.19c.29.09.54.14.76.13.22,0,.42-.06.6-.16.18-.1.36-.24.54-.42.17-.18.37-.4.58-.65l.99-1.22-1.22-12.48Z" />
    <path
      d="M466.54,107.52c.28-.87.68-1.61,1.22-2.22.54-.61,1.15-1.08,1.85-1.41.69-.33,1.45-.52,2.27-.56.82-.04,1.64.07,2.46.33.82.26,1.56.65,2.2,1.15.65.51,1.15,1.1,1.53,1.77.37.67.6,1.41.69,2.22.09.81,0,1.65-.28,2.52-.28.87-.69,1.61-1.23,2.23-.54.62-1.16,1.1-1.85,1.44-.7.34-1.46.54-2.28.6-.82.06-1.65-.04-2.47-.31-.82-.26-1.56-.65-2.2-1.18-.64-.52-1.15-1.12-1.52-1.8-.37-.68-.6-1.43-.68-2.25-.09-.82.01-1.66.29-2.53ZM469.33,108.4c-.14.43-.21.87-.21,1.34,0,.47.07.91.22,1.33.15.42.39.8.72,1.14.33.34.77.6,1.32.77.55.17,1.06.22,1.52.13.46-.09.88-.26,1.24-.51.37-.25.68-.57.95-.96.27-.39.47-.79.6-1.22.14-.43.21-.87.21-1.33,0-.46-.07-.9-.22-1.32-.15-.42-.39-.79-.72-1.12-.33-.33-.77-.58-1.32-.76s-1.05-.22-1.52-.14c-.46.08-.88.25-1.24.5-.37.25-.68.57-.94.95-.26.38-.46.78-.6,1.21Z" />
    <path
      d="M490.69,121.29l-2.61-.83.56-1.76h-.05c-.42.46-1,.81-1.73,1.03-.74.23-1.51.21-2.34-.05-.72-.23-1.29-.55-1.72-.96-.43-.41-.75-.88-.94-1.39-.2-.52-.29-1.06-.27-1.65.02-.58.11-1.16.29-1.72l2.18-6.86,2.75.87-1.93,6.08c-.1.32-.19.66-.25,1.03-.07.37-.07.71,0,1.04.06.33.2.63.41.9.21.27.53.47.98.61.43.14.83.17,1.22.1.38-.07.72-.21,1.01-.42s.55-.48.77-.8.39-.67.5-1.04l1.92-6.04,2.74.87-3.49,10.98Z" />
    <path
      d="M498.77,111.77l2.63.84-.58,1.83h.05c.51-.53,1.1-.91,1.78-1.13.67-.22,1.38-.22,2.11.02.11.03.22.07.34.12.12.05.22.1.3.16l-.8,2.52c-.17-.1-.31-.18-.44-.24-.12-.06-.25-.1-.37-.14-.62-.2-1.17-.24-1.62-.14-.45.11-.84.29-1.15.54-.32.25-.56.53-.75.85-.18.31-.31.57-.37.76l-1.87,5.88-2.74-.87,3.49-10.98Z" />
    <path
      d="M521.77,118.72c.72.23,1.29.55,1.72.96.43.41.75.88.94,1.39.2.52.29,1.07.27,1.65-.02.58-.12,1.16-.29,1.72l-2.18,6.86-2.74-.87,1.92-6.04c.1-.32.18-.66.25-1.02.06-.36.07-.7.01-1.03-.06-.33-.19-.63-.4-.89-.21-.27-.54-.47-.98-.61-.44-.14-.85-.18-1.22-.11-.37.07-.71.21-1.01.42-.3.21-.56.48-.78.8-.22.32-.39.66-.5,1.02l-1.91,5.99-2.74-.87,5.5-17.29,2.74.87-2.49,7.85h.05c.18-.18.41-.36.68-.51.28-.15.58-.28.91-.37.33-.09.69-.13,1.07-.12.38,0,.78.07,1.2.2Z" />
    <path
      d="M538.94,130.73c-.04.12-.08.24-.12.37-.04.12-.09.24-.14.36l-8.35-2.65c-.1.41-.11.8-.04,1.18.07.38.21.74.43,1.07.21.33.48.62.8.87.32.25.68.44,1.08.57.69.22,1.3.28,1.86.17.55-.1,1.05-.32,1.5-.67l1.37,2.05c-1.55,1.12-3.35,1.35-5.41.7-.85-.27-1.6-.65-2.23-1.15-.63-.49-1.13-1.07-1.5-1.72-.37-.65-.59-1.38-.66-2.19-.07-.8.03-1.65.32-2.55.28-.88.69-1.64,1.21-2.27.53-.63,1.13-1.12,1.81-1.46.68-.35,1.42-.55,2.22-.6.8-.06,1.61.05,2.43.31.76.24,1.43.59,2,1.05.57.46,1.01,1.01,1.32,1.66.32.65.49,1.38.52,2.21.03.82-.11,1.73-.42,2.72ZM536.59,128.62c.11-.35.17-.7.17-1.05,0-.35-.06-.68-.2-1-.14-.31-.34-.59-.63-.84-.28-.25-.64-.44-1.08-.58-.82-.26-1.6-.24-2.33.08-.73.31-1.25.85-1.56,1.61l5.63,1.79Z" />
    <path
      d="M548.38,138.09l-.07-.02c-.43.4-1,.66-1.71.78-.71.12-1.45.06-2.23-.19-.44-.14-.88-.34-1.33-.61-.44-.27-.83-.6-1.14-.99-.32-.4-.54-.85-.67-1.37-.13-.52-.09-1.1.11-1.74.26-.82.7-1.41,1.32-1.75.62-.34,1.34-.52,2.15-.55.81-.03,1.68.06,2.6.26.92.2,1.8.44,2.66.71l.09-.27c.22-.69.13-1.27-.26-1.76-.39-.49-.93-.84-1.62-1.06-.58-.18-1.17-.24-1.79-.16-.61.07-1.15.23-1.61.47l-.89-2.12c.81-.38,1.67-.59,2.58-.62.91-.03,1.78.09,2.62.35.98.31,1.74.7,2.28,1.18.55.48.93.99,1.16,1.55s.32,1.14.29,1.73c-.03.6-.13,1.17-.31,1.72l-2.12,6.68-2.56-.81.44-1.4ZM549.49,134.46l-.62-.2c-.44-.14-.91-.27-1.41-.39-.5-.12-.98-.18-1.43-.18-.45,0-.85.07-1.2.22-.35.15-.59.43-.72.84-.08.26-.09.5-.04.71.06.21.16.4.31.57.15.16.33.31.55.42.21.12.44.21.66.29.95.3,1.74.28,2.39-.07.65-.35,1.11-.96,1.39-1.83l.12-.39Z" />
    <path
      d="M558.51,130.75l2.63.84-.58,1.83h.05c.51-.53,1.1-.91,1.77-1.13.68-.22,1.38-.22,2.11.02.11.03.22.07.34.12.12.05.22.1.3.16l-.8,2.52c-.17-.1-.32-.18-.44-.24-.13-.06-.25-.1-.37-.14-.62-.2-1.17-.25-1.62-.14-.45.11-.84.29-1.15.54-.32.25-.56.53-.75.85-.18.31-.31.57-.37.76l-1.87,5.88-2.75-.87,3.49-10.98Z" />
    <path
      d="M566.75,135.79l.7-2.2,1.92.61,1.01-3.18,2.7.86-1.01,3.18,2.74.87-.7,2.2-2.74-.87-1.62,5.1c-.16.49-.2.92-.12,1.3.07.38.42.66,1.03.85.18.06.39.1.61.13.22.03.43.03.63,0l-.59,2.18c-.27.01-.59,0-.94-.06s-.68-.13-.99-.23c-.73-.23-1.29-.52-1.69-.88-.39-.35-.66-.75-.82-1.19-.15-.44-.21-.91-.16-1.41.05-.5.16-1.01.33-1.55l1.63-5.12-1.92-.61Z" />
    <path
      d="M575.03,146.33c.16-.49.47-.85.94-1.09.47-.24.96-.27,1.46-.12.49.16.86.46,1.12.91.26.45.31.92.16,1.41-.16.49-.47.85-.94,1.09-.47.24-.96.27-1.46.12-.24-.08-.46-.2-.65-.36-.19-.16-.35-.35-.47-.55-.12-.21-.19-.43-.23-.68-.03-.24,0-.49.07-.73Z" />
  </g>
  <line class="line line-01" x1="571.16" y1="166.14" x2="253.68" y2="64.93" />
  <line class="line line-02" x1="571.16" y1="338.79" x2="571.16" y2="166.14" />
  <line class="line line-03" x1="124.68" y1="338.79" x2="571.16" y2="338.79" />
  <line class="line line-04" x1="124.68" y1="135.3" x2="124.68" y2="338.79" />
  <line class="line line-05" x1="253.68" y1="64.93" x2="124.68" y2="135.3" />
  <line class="table-01 table" x1="254.45" y1="274.57" x2="332.94" y2="274.57" />
  <path class="table-02 table" d="M375.25,290.56l-17.29,18.05h-125.36" />
  <g class="human">
    <circle class="st0" cx="196.5" cy="248.28" r="24.23" />
    <path class="st0" d="M160.4,308.61c0-19.94,16.16-36.1,36.1-36.1s36.1,16.16,36.1,36.1" />
    <circle class="st0" cx="335" cy="196.28" r="24.23" />
    <path class="st0" d="M298.89,256.61c0-19.94,16.16-36.1,36.1-36.1s36.1,16.16,36.1,36.1" />
  </g>
</svg>