<?xml version="1.0" encoding="UTF-8"?>
<svg id="_レイヤー_2" data-name="レイヤー 2" xmlns="http://www.w3.org/2000/svg" viewBox="0 0 308.33 109.41">
  <g id="_レイヤー_1-2" data-name="レイヤー 1">
    <g>
      <g>
        <path d="M4.18,11.4c.63-.29,1.24-.58,1.87-.92-.02.31-.02.77,0,1.17q.02.59-.45.86c-1.19.63-2.52,1.21-3.89,1.73-.29.13-.47.2-.56.27-.11.09-.18.13-.29.13-.09,0-.16-.05-.23-.23-.16-.47-.31-1.04-.45-1.69.54-.09,1.06-.23,1.69-.43l.52-.18v-3.91c-1.13,0-1.48.04-1.58.04-.18,0-.2-.02-.2-.2v-1.3c0-.2.02-.22.2-.22.11,0,.45.04,1.58.04v-3.17h-.11c-1.21,0-1.58.04-1.69.04-.16,0-.18-.02-.18-.2v-1.31c0-.2.02-.22.18-.22.11,0,.49.04,1.69.04h1.87c1.22,0,1.6-.04,1.69-.04.18,0,.2.02.2.22v1.31c0,.18-.02.2-.2.2-.09,0-.47-.04-1.67-.04v3.17c.99,0,1.33-.04,1.44-.04.18,0,.18.02.18.22v1.3c0,.18,0,.2-.18.2-.11,0-.45-.04-1.44-.04v3.21ZM7.47,16.22c-1.78,0-2.39.04-2.5.04-.18,0-.2-.02-.2-.2v-1.28c0-.18.02-.2.2-.2.11,0,.72.04,2.5.04h2.74v-1.76h-1.12c-1.66,0-2.21.04-2.32.04-.18,0-.2-.02-.2-.2v-1.24c0-.18.02-.2.2-.2.11,0,.67.04,2.32.04h1.12v-1.55h-1.17c-1.64,0-2.23.04-2.34.04-.2,0-.22-.02-.22-.18,0-.11.04-.68.04-2v-4c0-1.28-.04-1.84-.04-1.96,0-.18.02-.2.22-.2.11,0,.7.04,2.34.04h4.29c1.66,0,2.23-.04,2.36-.04.18,0,.2.02.2.2,0,.11-.04.68-.04,1.96v4c0,1.31.04,1.89.04,2,0,.16-.02.18-.2.18-.13,0-.7-.04-2.36-.04h-1.31v1.55h1.37c1.64,0,2.21-.04,2.32-.04.18,0,.2.02.2.2v1.24c0,.18-.02.2-.2.2-.11,0-.68-.04-2.32-.04h-1.37v1.76h2.07c1.76,0,2.4-.04,2.48-.04.18,0,.2.02.2.2v1.28c0,.18-.02.2-.2.2-.09,0-.72-.04-2.48-.04h-6.61ZM10.21,4.83v-1.82h-2v1.82h2ZM10.21,8.23v-1.93h-2v1.93h2ZM12.01,3.01v1.82h2.12v-1.82h-2.12ZM14.13,6.3h-2.12v1.93h2.12v-1.93Z"/>
        <path d="M23.53,2.2c0-.76-.02-1.13-.11-1.6.63.02,1.15.04,1.75.09.16.02.23.07.23.18s-.05.22-.07.29c-.04.11-.09.34-.09,1.03v.79h.23c1.44,0,1.89-.04,2-.04.2,0,.22.02.22.2v1.28c0,.18-.02.2-.22.2-.11,0-.56-.04-2-.04h-.04c.67,1.03,1.6,2.02,2.48,2.61-.25.32-.47.67-.63,1.06-.11.25-.18.38-.29.38-.09,0-.2-.09-.36-.27-.56-.58-1.06-1.22-1.48-2,.04,2.27.09,3.91.09,4.25,0,.2-.02.22-.2.22h-1.37c-.18,0-.2-.02-.2-.22,0-.32.05-1.78.07-3.89-.5.99-1.22,1.89-2.16,2.75-.16.14-.27.22-.36.22-.13,0-.22-.13-.36-.4-.22-.41-.5-.81-.77-1.06,1.35-.94,2.47-2.05,3.33-3.66h-.59c-1.46,0-1.93.04-2.03.04-.18,0-.2-.02-.2-.2v-1.28c0-.18.02-.2.2-.2.11,0,.58.04,2.03.04h.88v-.77ZM20.44,15.25c-.23-.16-.22-.23-.11-.36.68-.94,1.15-1.94,1.51-3.19.05-.2.09-.18.32-.09l1.13.43c.23.09.25.13.2.32-.41,1.4-.92,2.5-1.62,3.58-.05.09-.09.13-.14.13s-.13-.02-.22-.09l-1.08-.74ZM26.54,14.19c0,.36.07.59.25.7.29.16.81.2,1.67.2,1.1,0,1.75-.02,2.14-.27.27-.2.43-.79.45-1.62.36.22.85.41,1.35.52.47.09.45.14.38.63-.16,1.17-.45,1.62-.99,1.93-.67.38-1.6.45-3.49.45-1.66,0-2.57-.11-3.01-.4-.4-.27-.61-.61-.61-1.53v-2.02c0-.54-.04-.99-.11-1.5.59,0,1.31.04,1.84.09.23.04.32.11.32.2,0,.11-.02.16-.07.29-.07.16-.13.41-.13.81v1.51ZM33.13,1.35c1.4,0,1.87-.04,2-.04.18,0,.2.02.2.2,0,.11-.04.74-.04,2.11v4.75c0,1.37.04,2,.04,2.11,0,.2-.02.22-.2.22-.13,0-.59-.04-2-.04h-2.56c-.88,0-1.37.02-1.66.02.65.61,1.24,1.28,1.75,2.04.09.14.09.2-.11.32l-1.04.65c-.11.07-.18.11-.23.11s-.09-.04-.14-.13c-.47-.83-1.12-1.71-1.8-2.34-.11-.13-.09-.2.09-.31l.95-.56c0-.14.04-.77.04-2.09V3.62c0-1.37-.04-1.98-.04-2.11,0-.18.02-.2.22-.2.11,0,.56.04,1.98.04h2.56ZM30.11,4.05h3.47v-1.22h-3.47v1.22ZM33.58,6.59v-1.21h-3.47v1.21h3.47ZM33.58,7.93h-3.47v1.26h3.47v-1.26ZM34.05,11.4c.22-.09.27-.07.38.07.76.95,1.42,1.98,1.96,3.24.05.14.04.2-.16.32l-1.21.7c-.11.07-.18.11-.23.11s-.09-.05-.13-.16c-.49-1.4-1.06-2.34-1.85-3.38-.13-.16-.11-.2.13-.32l1.12-.58Z"/>
        <path d="M48.28,4.59c-.41,3.06-1.17,5.87-2.25,7.76-.77,1.35-1.71,2.07-3.06,2.07-1.58,0-3.19-1.69-3.19-4.63,0-1.73.74-3.38,2.03-4.68,1.51-1.51,3.42-2.3,5.85-2.3,4.32,0,6.86,2.67,6.86,6.25,0,3.35-1.89,5.46-5.55,6.55-.38.11-.54.04-.77-.32-.2-.31-.58-.72-1.26-1.13,3.04-.72,5.44-1.98,5.44-5.38,0-2.14-1.62-4.18-4.03-4.18h-.07ZM43.11,6.34c-.86.97-1.4,2.18-1.4,3.33,0,1.66.67,2.58,1.22,2.58.47,0,.86-.23,1.35-1.1.79-1.46,1.6-4.05,1.91-6.45-1.26.25-2.27.76-3.08,1.64Z"/>
        <path d="M67.4,8.36c-.11,2.02-.36,3.22-1.06,4.59-.72,1.4-2.02,2.72-3.17,3.4-.2.13-.38.22-.54.22-.13,0-.25-.05-.38-.18-.36-.36-.97-.72-1.6-.95,1.76-.95,2.83-1.84,3.58-3.21.67-1.19.85-2.16.92-3.87h-3.42c-.9,0-1.78.05-2.7.11-.16.02-.22-.11-.23-.34-.09-.5-.14-1.19-.14-1.73,1.01.09,2.02.09,3.06.09h8.08c1.4,0,2.45-.04,3.51-.11.18,0,.2.11.2.36.02.23.02,1.15,0,1.39,0,.23-.11.31-.27.31-.94-.04-2.18-.07-3.42-.07h-2.41ZM63.83,4.18c-.83,0-1.55.04-2.56.07-.23,0-.29-.09-.31-.31-.05-.43-.07-1.08-.13-1.73,1.26.07,2.18.09,2.99.09h3.31c1.01,0,2.14-.02,3.04-.07.18,0,.22.11.22.34.04.43.04.88,0,1.31,0,.25-.04.34-.23.34-.97-.04-2.03-.05-3.02-.05h-3.31ZM71.58,1.05c.09-.05.16-.04.25.05.52.49,1.1,1.28,1.53,2.09.05.11.05.2-.09.29l-.81.49c-.13.07-.22.04-.29-.09-.47-.88-.97-1.62-1.62-2.25l1.03-.58ZM73.29.04c.11-.07.16-.04.25.05.61.58,1.19,1.35,1.53,2.02.05.11.07.22-.09.32l-.76.49c-.16.09-.25.02-.31-.09-.41-.81-.92-1.55-1.6-2.23l.97-.56Z"/>
        <path d="M90,5.69c.88,0,1.89-.02,2.72-.05.22-.02.23.09.25.29.04.45.04.97,0,1.42-.02.23-.05.31-.31.29-.61,0-1.71-.02-2.59-.02h-.74c-.11,2.58-.5,4.09-1.39,5.55-.9,1.49-2.36,2.57-4.25,3.35-.25.11-.4.16-.5.16s-.2-.05-.34-.2c-.54-.56-.88-.81-1.49-1.08,2.56-.79,3.94-1.71,4.86-3.19.7-1.15.99-2.4,1.06-4.59h-3.84v.65c0,1.06,0,2.03.05,2.99.02.2-.11.23-.31.25-.47.04-1.06.04-1.55,0-.23-.02-.34-.05-.32-.25.05-.94.09-1.82.09-2.95v-.68h-.54c-.97,0-2.41.05-2.97.09-.14,0-.2-.11-.22-.34-.07-.38-.09-1.01-.13-1.75.76.05,1.93.09,3.31.09h.54v-1.31c0-1.15-.04-1.6-.22-2.65.94.09,1.82.18,2.2.29.2.04.27.13.27.25,0,.11-.05.23-.11.38-.13.32-.13.5-.13,1.73v1.31h3.87l.02-1.76c.02-1.01-.04-1.84-.16-2.47.68.07,1.67.18,2.11.31.25.05.32.14.32.29,0,.07-.02.18-.07.32-.13.34-.14.81-.14,1.58v1.71h.63ZM90.9,1.33c.09-.04.16-.04.25.07.49.52,1.01,1.33,1.39,2.18.05.13.04.2-.11.27l-.74.38c-.14.07-.23.04-.31-.11-.4-.9-.85-1.66-1.46-2.34l.97-.45ZM92.59.56c.11-.05.16-.04.25.07.58.61,1.1,1.42,1.39,2.11.05.11.05.23-.11.31l-.72.36c-.16.07-.23.02-.29-.09-.36-.85-.83-1.62-1.46-2.34l.94-.41Z"/>
        <path d="M105.38,12.26c0,1.24.02,2.3.05,3.75.02.23-.07.31-.27.31-.58.04-1.22.04-1.8,0-.2,0-.27-.07-.25-.29.02-1.3.07-2.47.07-3.69v-4.2c-1.58,1.33-3.51,2.7-4.95,3.46-.09.05-.18.07-.27.07-.14,0-.25-.05-.38-.18-.41-.41-1.01-.77-1.55-1.06,2.48-1.28,4.02-2.32,5.67-3.69,1.42-1.17,2.72-2.43,3.83-3.76.61-.72.85-1.08,1.13-1.85.81.45,1.6.94,2,1.26.11.07.14.18.14.27,0,.14-.11.31-.25.4-.31.2-.59.47-1.08.99-.7.85-1.37,1.55-2.11,2.27v5.96Z"/>
        <path d="M115.11,3.01c.07-.09.16-.14.25-.14.07,0,.14.04.23.09.92.49,2.41,1.58,3.44,2.56.11.11.16.18.16.25s-.04.14-.11.23c-.27.36-.86,1.08-1.12,1.35-.09.09-.14.14-.22.14s-.14-.05-.23-.14c-1.08-1.12-2.38-2.14-3.67-2.94.4-.49.92-1.04,1.26-1.4ZM116.68,12.5c2.2-1.13,3.37-1.89,5.19-3.35,2.2-1.78,3.4-2.93,4.93-4.9.11.9.27,1.51.5,2.11.05.13.09.23.09.34,0,.16-.09.31-.29.54-.95,1.12-2.5,2.56-4.14,3.82-1.49,1.17-3.01,2.18-5.44,3.53-.81.49-1.04.67-1.21.83-.11.11-.22.18-.32.18-.09,0-.2-.07-.31-.2-.45-.5-1.01-1.24-1.44-2,.92-.25,1.48-.42,2.43-.9Z"/>
        <path d="M140.38,13.04c0,.2-.11.29-.34.32-.23.04-.77.09-1.28.09-.16,0-.23-.11-.23-.29,0-.65,0-1.55.02-2.2-1.6.83-2.18,1.53-2.18,2.4,0,.76.61,1.24,2.5,1.24,1.66,0,3.1-.16,4.48-.36.16-.02.23.04.25.2.09.41.16,1.04.16,1.48.02.22-.05.34-.2.34-1.55.2-2.72.23-4.47.23-2.95,0-4.52-.88-4.52-2.97,0-1.73,1.08-2.99,3.8-4.39-.05-.92-.27-1.28-1.08-1.24-.85.04-1.66.58-2.48,1.3-.77.76-1.22,1.28-1.8,1.96-.09.11-.14.16-.22.16-.05,0-.13-.05-.2-.13-.25-.25-.79-.81-1.03-1.19-.05-.07-.07-.13-.07-.16,0-.07.04-.13.13-.2,1.39-1.24,2.72-2.67,3.76-4.46-.85.04-1.82.05-2.88.05-.16,0-.22-.09-.25-.29-.05-.29-.13-.95-.18-1.49,1.37.07,2.77.05,4.14-.02.2-.49.36-.92.54-1.55.07-.31.13-.61.13-1.1.79.13,1.58.32,2.05.5.14.05.22.18.22.31,0,.09-.04.2-.13.27-.11.09-.22.25-.31.43-.11.25-.2.49-.41.97,1.1-.13,2.2-.31,3.28-.56.2-.04.25.02.29.18.09.36.16.77.18,1.3.02.18-.05.25-.31.29-1.35.2-2.9.4-4.21.54-.41.67-.81,1.33-1.35,2l.02.04c.58-.38,1.31-.56,1.8-.56,1.19,0,2.02.54,2.2,1.94.7-.32,1.73-.79,2.65-1.26.34-.18.92-.5,1.37-.97.59.63,1.06,1.26,1.26,1.58.11.16.14.29.14.4,0,.14-.09.22-.27.25-.38.05-.74.14-1.1.27-1.17.41-2.34.81-3.87,1.44v2.9Z"/>
        <path d="M155.93,17.09c-.18,0-.2-.02-.2-.2,0-.11.02-.67.04-1.78-1.44.31-3.22.63-4.68.85-.29.04-.56.13-.65.18-.07.04-.18.11-.29.11s-.2-.11-.25-.29c-.16-.49-.25-.92-.36-1.44.63-.02,1.13-.05,1.69-.13.11,0,.22-.02.32-.04v-5.65c-1.22.02-1.69.04-1.78.04-.18,0-.2-.02-.2-.2v-1.13c0-.18.02-.2.2-.2.11,0,.63.04,2.2.04h11.56c1.57,0,2.09-.04,2.2-.04.16,0,.18.02.18.2v1.13c0,.18-.02.2-.18.2-.11,0-.63-.04-2.2-.04h-6.1v6.03c0,1.39.04,2.05.04,2.16,0,.18-.02.2-.2.2h-1.33ZM161.01,1.24c1.78,0,2.41-.04,2.52-.04.18,0,.2.02.2.22,0,.11-.04.5-.04,1.48v1.89c0,.97.04,1.37.04,1.48,0,.2-.02.22-.2.22-.11,0-.74-.04-2.52-.04h-6.55c-1.78,0-2.39.04-2.52.04-.18,0-.2-.02-.2-.22,0-.11.04-.5.04-1.48v-1.89c0-.97-.04-1.37-.04-1.48,0-.2.02-.22.2-.22.13,0,.74.04,2.52.04h6.55ZM155.77,9.65v-.96h-2.54v.96h2.54ZM155.77,11.74v-.94h-2.54v.94h2.54ZM155.77,12.89h-2.54v1.24c.85-.13,1.73-.25,2.54-.4v-.85ZM153.56,3.33h8.35v-.76h-8.35v.76ZM161.91,4.41h-8.35v.77h8.35v-.77ZM163.14,9.76c.11,0,.23-.04.32-.07.09-.04.18-.07.27-.07.13,0,.22.04.63.41.43.41.49.54.49.67,0,.14-.05.23-.18.32-.14.09-.27.31-.49.76-.4.79-.86,1.53-1.46,2.18.88.56,1.94.95,3.19,1.22-.2.29-.45.68-.63,1.15-.18.49-.22.49-.68.34-1.21-.38-2.21-.9-3.08-1.55-.79.61-1.69,1.15-2.72,1.58-.18.07-.29.13-.36.13-.13,0-.2-.13-.32-.41-.2-.43-.41-.77-.67-1.03,1.15-.34,2.11-.79,2.9-1.35-.7-.79-1.3-1.75-1.76-2.88-.29.02-.41.02-.47.02-.18,0-.2-.02-.2-.22v-1.04c0-.18.02-.2.2-.2.11,0,.56.04,1.98.04h3.04ZM160.22,11.15c.34.72.77,1.35,1.31,1.87.5-.54.92-1.17,1.24-1.87h-2.56Z"/>
        <path d="M173.49,13.18c.38.76.88,1.15,1.62,1.46.67.22,1.76.32,3.33.32,2.3,0,5.08-.13,7.78-.38-.23.38-.38.83-.45,1.31q-.09.58-.67.59c-2.3.14-4.5.18-6.39.18s-3.33-.13-4.2-.49c-.83-.32-1.4-.79-1.89-1.57-.5.54-1.01.99-1.64,1.53-.2.16-.32.27-.41.38-.07.09-.11.13-.23.13-.09,0-.18-.07-.25-.22-.25-.47-.49-1.03-.74-1.66.45-.22.7-.36,1.04-.59.5-.32.9-.68,1.35-1.13v-4h-.74c-.94,0-1.17.04-1.26.04-.2,0-.22-.02-.22-.22v-1.37c0-.18.02-.2.22-.2.09,0,.32.04,1.26.04h1.03c.94,0,1.21-.04,1.3-.04.18,0,.2.02.2.2,0,.11-.04.63-.04,1.75v3.92ZM170.95,1.17c.11-.07.16-.09.22-.09s.11.02.18.09c.79.74,1.58,1.64,2.23,2.63.11.16.11.2-.11.36l-.95.81c-.11.09-.18.14-.23.14s-.09-.04-.14-.13c-.67-1.1-1.44-2.05-2.21-2.83-.14-.13-.13-.18.07-.31l.95-.68ZM181.32,7.29c.72,0,1.19-.04,1.3-.04.2,0,.22.02.22.2v.9c0,.18-.02.2-.22.2-.11,0-.58-.04-1.3-.04h-.72v.97c1.03,0,1.31-.02,1.44-.02.18,0,.2.02.2.2,0,.11-.04.38-.04,1.13v1.8c.2.02.36.02.54.02.41,0,.5-.09.5-.5v-6.1h-6.72v5.73c0,1.51.04,2.14.04,2.25,0,.2-.02.22-.2.22h-1.39c-.18,0-.2-.02-.2-.22,0-.11.04-.68.04-2.21v-4.86c0-1.37-.04-1.98-.04-2.11,0-.18.02-.2.2-.2.13,0,.68.04,2.27.04-.18-.45-.41-.92-.63-1.3-1.57,0-2.14.04-2.23.04-.2,0-.22-.02-.22-.2v-1.12c0-.18.02-.2.22-.2.11,0,.72.04,2.52.04h1.96c0-.52-.04-.95-.11-1.37.68.02,1.3.05,1.87.13.18.02.29.11.29.2,0,.14-.05.2-.13.31-.07.13-.09.27-.09.61v.13h2.27c1.75,0,2.36-.04,2.47-.04.18,0,.2.02.2.2v1.12c0,.18-.02.2-.2.2-.11,0-.7-.04-2.36-.04l-.05.13c-.13.31-.27.68-.49,1.17,1.53,0,2.12-.04,2.23-.04.18,0,.2.02.2.2,0,.11-.04.85-.04,2.27v2.59c0,1.1.05,2.18.05,2.75,0,.65-.11,1.08-.49,1.39-.36.29-.95.41-1.98.41-.43,0-.47-.02-.52-.41l-.11-.58c-.2-.02-.54-.04-1.3-.04h-1.48c-.99,0-1.3.04-1.4.04-.2,0-.22-.02-.22-.2,0-.11.04-.38.04-1.13v-1.1c0-.76-.04-1.03-.04-1.13,0-.18.02-.2.22-.2.11,0,.41.02,1.39.02v-.97h-.5c-.88,0-1.37.04-1.48.04-.18,0-.2-.02-.2-.2v-.9c0-.18.02-.2.2-.2.11,0,.59.04,1.48.04h.5c-.02-.38-.04-.67-.09-1.04.54.02,1.04.05,1.51.11.16.02.23.07.23.18,0,.09-.05.16-.09.25-.05.13-.07.23-.07.5h.72ZM178.41,3.35c.2.4.41.85.58,1.3h1.84c.22-.47.4-.94.52-1.3h-2.93ZM180.75,10.66h-1.76v1.35h1.76v-1.35Z"/>
        <path d="M197.5,3.69c.16-.05.23-.05.27.14.09.45.14.99.16,1.46,0,.16-.07.2-.22.22-.97.2-1.85.32-2.97.49-1.15,3.04-2.21,5.53-3.51,7.72-.07.13-.13.18-.2.18-.05,0-.13-.04-.22-.09-.41-.25-.94-.63-1.24-.92-.09-.07-.13-.13-.13-.2,0-.05.02-.13.09-.22,1.35-2.23,2.3-4.12,3.11-6.28-.68.04-1.24.04-1.8.04-.4,0-.54,0-.99-.02-.18,0-.22-.05-.25-.29-.09-.34-.14-.94-.18-1.53.74.05,1.15.07,1.67.07.7,0,1.24-.02,2.07-.09.22-.76.34-1.37.47-2.02.11-.63.11-.9.11-1.46.77.11,1.55.22,2.11.38.18.04.29.14.29.27,0,.14-.05.23-.16.34-.11.14-.18.31-.29.67-.13.43-.27.99-.43,1.53.7-.07,1.53-.23,2.23-.4ZM198.01,8.52c-.02-.49-.04-.77-.14-1.28.88.09,1.35.16,1.96.34.16.04.25.13.25.29,0,.04-.04.16-.11.38-.07.22-.09.43-.07.74,0,1.06.05,1.84.2,3.06,1.3.52,2.18.92,3.24,1.67.18.13.2.2.11.38-.27.56-.52,1.01-.83,1.46-.05.09-.11.13-.16.13s-.11-.04-.18-.11c-.79-.68-1.46-1.08-2.2-1.51,0,1.8-1.3,2.63-3.35,2.63s-3.31-1.01-3.31-2.56,1.3-2.63,3.33-2.63c.34,0,.85.02,1.42.11-.11-1.15-.14-2.25-.16-3.1ZM196.73,13.06c-.9,0-1.6.36-1.6,1.04,0,.58.5.86,1.53.86.97,0,1.57-.52,1.57-1.28,0-.16,0-.25-.02-.36-.43-.14-.92-.27-1.48-.27ZM200.08,4.4c.11-.18.2-.2.38-.13,1.06.29,2.48,1.01,3.53,1.69.11.07.16.13.16.2,0,.05-.02.13-.07.22-.18.4-.5.95-.76,1.33-.05.09-.11.13-.16.13s-.09-.02-.16-.07c-1.06-.72-2.36-1.51-3.73-1.96.31-.54.58-1.08.81-1.4Z"/>
        <path d="M218.4,5.84h-6.28c-1.22,0-2.07.04-2.7.11-.2,0-.27-.09-.27-.31-.05-.49-.09-1.33-.09-1.93,1.08.11,1.71.13,3.01.13h5.35c.94,0,1.89-.04,2.84-.07.29,0,.38.07.36.31,0,.95-.04,1.89-.04,2.84v4.3c0,1.31.05,2.75.07,3.26,0,.18-.07.23-.32.25-.5.04-1.08.04-1.58,0-.29-.02-.34-.04-.34-.31v-.72h-6.19c-1.13,0-2.09.05-2.95.07-.16,0-.23-.07-.25-.27-.05-.47-.09-1.12-.09-1.87.85.05,1.89.09,3.31.09h6.18v-5.89Z"/>
        <path d="M235.42,3.12c.65,0,.97-.02,1.24-.16.07-.05.13-.07.2-.07.11,0,.2.07.31.14.41.32.83.79,1.17,1.26.05.09.09.16.09.23,0,.11-.07.23-.23.36-.23.2-.47.47-.67.79-.74,1.26-1.44,2.27-2.3,3.37,1.73,1.28,3.33,2.68,4.99,4.36.09.09.14.18.14.25s-.04.16-.13.27c-.34.41-.76.85-1.21,1.22-.07.07-.14.11-.22.11-.09,0-.16-.05-.25-.14-1.51-1.76-3.06-3.19-4.68-4.46-2.03,2.12-4.09,3.65-6.05,4.75-.16.07-.29.14-.41.14-.11,0-.22-.05-.31-.16-.4-.49-.92-.85-1.51-1.17,2.81-1.42,4.48-2.7,6.34-4.59,1.3-1.35,2.29-2.63,3.39-4.52l-4.65.02c-.94,0-1.87.04-2.84.11-.14.02-.2-.11-.23-.31-.09-.38-.16-1.24-.16-1.87.97.07,1.87.07,3.04.07h4.95Z"/>
        <path d="M249.2,6.38c2.2.68,3.94,1.39,5.73,2.45.2.11.29.23.2.47-.23.59-.52,1.15-.77,1.57-.07.13-.14.2-.23.2-.05,0-.13-.02-.2-.09-1.66-1.06-3.28-1.85-4.74-2.3v3.98c0,1.17.04,2.23.07,3.53.02.22-.07.27-.32.27-.52.04-1.08.04-1.6,0-.25,0-.34-.05-.34-.27.05-1.33.07-2.39.07-3.55V3.77c0-1.35-.05-1.94-.18-2.66.83.05,1.73.14,2.25.29.25.05.34.16.34.31,0,.11-.05.25-.14.41-.13.23-.13.68-.13,1.69v2.58Z"/>
        <path d="M267.5,4.83c-2.2.41-4.12.79-6.05,1.19-.68.16-.86.2-1.13.29-.13.05-.25.14-.4.14-.13,0-.27-.11-.34-.27-.23-.49-.43-1.12-.67-1.94.92-.04,1.46-.11,2.86-.31,2.21-.32,6.18-.92,10.82-1.53.27-.04.36.07.38.2.09.41.18,1.08.2,1.58,0,.22-.11.27-.34.27-.85.05-1.42.14-2.2.4-3.06,1.04-4.59,3.15-4.59,5.31,0,2.32,1.66,3.58,4.79,3.78.29,0,.4.07.4.27,0,.47-.07,1.1-.2,1.55-.05.27-.13.38-.34.38-3.17,0-6.64-1.82-6.64-5.56,0-2.56,1.28-4.29,3.46-5.71v-.04ZM271.07,6.77c.09-.07.16-.05.27.04.56.43,1.21,1.15,1.71,1.93.07.11.07.2-.05.29l-.76.56c-.13.09-.22.07-.31-.05-.54-.83-1.12-1.51-1.82-2.09l.95-.67ZM272.67,5.6c.11-.07.16-.05.27.04.67.5,1.31,1.22,1.71,1.85.07.11.09.22-.05.32l-.72.56c-.14.11-.23.05-.31-.05-.49-.77-1.06-1.46-1.8-2.07l.9-.65Z"/>
        <path d="M283.14,14.82c0,1.44-1.17,2.59-2.61,2.59s-2.61-1.15-2.61-2.59,1.17-2.59,2.61-2.59,2.61,1.15,2.61,2.59ZM279.04,14.82c0,.85.65,1.49,1.49,1.49s1.49-.65,1.49-1.49-.65-1.49-1.49-1.49-1.49.65-1.49,1.49Z"/>
        <path d="M5.67,53.4c.63,1.19,1.46,2.05,2.36,2.88-.25.36-.52.86-.68,1.31-.07.2-.14.31-.23.31-.07,0-.18-.09-.31-.25-.61-.74-1.04-1.44-1.44-2.32,0,4.3.09,7.22.09,7.54,0,.16-.02.18-.2.18h-1.53c-.18,0-.2-.02-.2-.18,0-.32.09-3.26.11-7.38-.63,1.75-1.48,3.19-2.4,4.46-.13.18-.22.27-.31.27-.07,0-.14-.09-.23-.31-.18-.5-.45-1.1-.7-1.44,1.24-1.31,2.29-2.81,3.21-5.08h-.52c-1.51,0-2.02.04-2.12.04-.18,0-.18-.02-.18-.2v-1.3c0-.18,0-.2.18-.2.11,0,.61.04,2.12.04h.92v-2.14c-.58.13-1.19.25-1.8.36q-.58.09-.79-.43c-.16-.4-.34-.72-.58-.99,2.18-.29,4.29-.92,5.4-1.39.43-.18.65-.29.94-.49.5.41.88.76,1.21,1.12.11.13.18.22.18.34s-.13.22-.34.25c-.23.04-.47.09-.77.2-.52.2-1.06.38-1.64.54v2.63h.47c1.53,0,2.02-.04,2.12-.04.18,0,.2.02.2.2v1.3c0,.18-.02.2-.2.2-.11,0-.59-.04-2.12-.04h-.2ZM13.59,54.92c.25-.11.27-.11.36.07,1.21,2.21,2.12,4.43,2.81,6.7.05.18.04.22-.2.32l-1.22.54c-.27.11-.29.13-.34-.07l-.47-1.53c-2.07.43-4.16.83-6.64,1.22-.29.05-.5.13-.63.2-.11.07-.2.13-.31.13-.13,0-.22-.07-.27-.25-.18-.54-.34-1.17-.47-1.91.54,0,1.06-.02,1.62-.05,1.13-3.85,1.78-7.17,2.38-10.86.13-.79.22-1.53.2-2.25.74.11,1.35.22,1.96.38.2.05.34.14.34.27,0,.14-.05.22-.13.34-.14.22-.23.47-.32.97-.72,3.85-1.46,7.38-2.47,10.93,1.37-.18,2.75-.38,4.2-.67-.47-1.24-.99-2.43-1.6-3.66-.09-.18-.05-.23.14-.32l1.06-.5Z"/>
        <path d="M29.12,49.77c.2-.05.27.04.29.18.05.4.11.92.13,1.3.02.23-.04.29-.27.34-1.12.31-2.03.5-3.13.68-1.22,4-2.14,6.75-3.29,9.74-.09.25-.2.23-.4.18-.18-.07-1.06-.45-1.44-.67-.14-.09-.2-.23-.14-.36,1.37-3.15,2.23-5.53,3.11-8.53-1.04.11-2.3.2-3.15.2-.27,0-.34-.05-.38-.29-.07-.38-.16-.99-.25-1.64.38.05.59.05,1.33.05.9,0,1.87-.05,2.92-.18.18-.72.32-1.51.45-2.25.07-.54.11-1.08.11-1.66.95.14,1.69.27,2.27.5.14.05.2.18.2.29,0,.07,0,.16-.09.29-.14.25-.29.43-.38.72-.18.65-.31,1.26-.43,1.71.7-.13,1.67-.36,2.56-.61ZM28.42,58.37c.18,0,.25.07.27.25.14,1.31,1.03,1.69,2.75,1.69,1.01,0,2.3-.16,3.02-.25.14-.02.2.02.22.16.07.47.14,1.08.14,1.57.02.22,0,.27-.29.29-.61.09-1.78.2-2.45.2-2.36,0-3.58-.32-4.39-1.17-.58-.58-.77-1.42-.81-2.47.56-.14,1.3-.27,1.53-.27ZM28.22,53.6c0-.25.05-.31.32-.36,1.13-.23,2.47-.41,3.51-.41.7,0,1.48.07,2.11.18.25.04.31.05.31.27.04.45.04.95.02,1.44,0,.31-.09.38-.34.32-.63-.13-1.46-.22-2.23-.22-1.08,0-2.45.18-3.62.41-.04-.63-.07-1.28-.07-1.64Z"/>
        <path d="M42.81,48.74c.07-.79.05-1.26-.04-1.75,1.03.11,1.69.23,2.16.38.23.07.36.18.36.32,0,.09-.07.22-.13.29-.13.16-.27.47-.31.67-.09.49-.16.85-.25,1.48.9-.13,2.38-.4,3.39-.67.25-.07.34-.05.38.18.07.41.13.9.13,1.33,0,.2-.05.25-.22.29-1.55.34-2.52.54-4.03.74-.25,1.49-.5,2.7-.83,3.96,1.4-1.22,3.2-1.91,5.17-1.91,2.39,0,4.02,1.55,4.02,3.4,0,1.58-.67,2.75-2.05,3.64-1.08.7-2.63,1.13-4.59,1.44-.45.07-.88.13-1.33.13-.18,0-.31-.09-.45-.43-.29-.59-.56-.94-.97-1.28,2.63-.16,3.73-.4,5.17-.99,1.39-.58,2.05-1.4,2.05-2.54,0-.94-.68-1.71-2.05-1.71-1.94,0-3.73.9-4.74,2.23-.16.23-.34.45-.5.68-.13.22-.18.29-.34.27-.4-.04-.99-.23-1.35-.4-.29-.13-.4-.2-.4-.36,0-.07.02-.2.07-.36.09-.31.16-.58.23-.85.4-1.58.65-2.92.95-4.72-.97.07-2.11.16-3.02.16-.2,0-.31-.09-.34-.25-.05-.22-.18-.97-.25-1.57,1.4,0,2.52-.05,3.91-.16.09-.63.16-1.22.22-1.66Z"/>
        <path d="M60.51,48.22c.2.11.27.22.27.36,0,.13-.05.25-.13.4-.13.22-.2.47-.32.99-.59,2.72-.9,5.24-.9,6.55,0,.72,0,1.55.05,2.3.36-.83.74-1.6,1.12-2.5.25.58.4.83.63,1.13.07.09.11.16.11.25s-.04.18-.11.29c-.63,1.42-.85,2.21-.92,2.74-.07.5-.04.77-.02.95.02.13-.05.18-.22.23-.34.13-.86.23-1.35.31-.2.05-.27.04-.36-.22-.5-1.28-.77-3.42-.77-5.49,0-1.73.14-3.17.74-6.82.09-.63.2-1.4.13-2.12.72.18,1.69.47,2.05.65ZM66.7,53.02c-1.22.04-2.48.07-3.71-.02-.23,0-.31-.05-.32-.23-.07-.43-.13-1.08-.13-1.64,1.35.13,2.75.14,4.11.05,0-.65-.02-1.22-.02-1.89-.02-.65-.07-1.12-.23-1.76,1.04.09,1.58.16,2.18.34.2.05.32.14.32.31,0,.09-.04.14-.11.31-.07.16-.13.4-.14.63-.04.61-.04,1.08-.04,1.91.85-.07,1.78-.2,2.56-.32.22-.05.25.02.29.22.07.32.11.9.11,1.28,0,.16-.07.25-.2.27-.65.16-1.84.31-2.77.38,0,2.02.04,3.28.13,4.83,1.06.43,1.98.94,2.99,1.73.16.11.18.16.09.36-.23.47-.52.97-.83,1.39-.05.07-.11.11-.16.11s-.11-.04-.16-.09c-.56-.52-1.15-.97-1.94-1.44-.14,1.51-1.17,2.34-3.29,2.34s-3.22-.97-3.22-2.52,1.33-2.54,3.15-2.54c.47,0,1.01.05,1.44.14-.04-1.39-.05-2.7-.07-4.12ZM65.24,58.62c-.85,0-1.35.31-1.35.86s.4.9,1.46.9c.9,0,1.48-.52,1.48-1.17,0-.13,0-.22-.02-.36-.58-.18-1.06-.23-1.57-.23Z"/>
        <path d="M79.51,57.4c.63-.29,1.24-.58,1.87-.92-.02.31-.02.77,0,1.17q.02.59-.45.86c-1.19.63-2.52,1.21-3.89,1.73-.29.13-.47.2-.56.27-.11.09-.18.13-.29.13-.09,0-.16-.05-.23-.23-.16-.47-.31-1.04-.45-1.69.54-.09,1.06-.23,1.69-.43l.52-.18v-3.91c-1.13,0-1.48.04-1.58.04-.18,0-.2-.02-.2-.2v-1.3c0-.2.02-.22.2-.22.11,0,.45.04,1.58.04v-3.17h-.11c-1.21,0-1.58.04-1.69.04-.16,0-.18-.02-.18-.2v-1.31c0-.2.02-.22.18-.22.11,0,.49.04,1.69.04h1.87c1.22,0,1.6-.04,1.69-.04.18,0,.2.02.2.22v1.31c0,.18-.02.2-.2.2-.09,0-.47-.04-1.67-.04v3.17c.99,0,1.33-.04,1.44-.04.18,0,.18.02.18.22v1.3c0,.18,0,.2-.18.2-.11,0-.45-.04-1.44-.04v3.21ZM82.81,62.22c-1.78,0-2.39.04-2.5.04-.18,0-.2-.02-.2-.2v-1.28c0-.18.02-.2.2-.2.11,0,.72.04,2.5.04h2.74v-1.76h-1.12c-1.66,0-2.21.04-2.32.04-.18,0-.2-.02-.2-.2v-1.24c0-.18.02-.2.2-.2.11,0,.67.04,2.32.04h1.12v-1.55h-1.17c-1.64,0-2.23.04-2.34.04-.2,0-.22-.02-.22-.18,0-.11.04-.68.04-2v-4c0-1.28-.04-1.84-.04-1.96,0-.18.02-.2.22-.2.11,0,.7.04,2.34.04h4.29c1.66,0,2.23-.04,2.36-.04.18,0,.2.02.2.2,0,.11-.04.68-.04,1.96v4c0,1.31.04,1.89.04,2,0,.16-.02.18-.2.18-.13,0-.7-.04-2.36-.04h-1.31v1.55h1.37c1.64,0,2.21-.04,2.32-.04.18,0,.2.02.2.2v1.24c0,.18-.02.2-.2.2-.11,0-.68-.04-2.32-.04h-1.37v1.76h2.07c1.76,0,2.4-.04,2.48-.04.18,0,.2.02.2.2v1.28c0,.18-.02.2-.2.2-.09,0-.72-.04-2.48-.04h-6.61ZM85.54,50.83v-1.82h-2v1.82h2ZM85.54,54.23v-1.93h-2v1.93h2ZM87.34,49.01v1.82h2.12v-1.82h-2.12ZM89.47,52.3h-2.12v1.93h2.12v-1.93Z"/>
        <path d="M98.87,48.2c0-.76-.02-1.13-.11-1.6.63.02,1.15.04,1.75.09.16.02.23.07.23.18s-.05.22-.07.29c-.04.11-.09.34-.09,1.03v.79h.23c1.44,0,1.89-.04,2-.04.2,0,.22.02.22.2v1.28c0,.18-.02.2-.22.2-.11,0-.56-.04-2-.04h-.04c.67,1.03,1.6,2.02,2.48,2.61-.25.32-.47.67-.63,1.06-.11.25-.18.38-.29.38-.09,0-.2-.09-.36-.27-.56-.58-1.06-1.22-1.48-2,.04,2.27.09,3.91.09,4.25,0,.2-.02.22-.2.22h-1.37c-.18,0-.2-.02-.2-.22,0-.32.05-1.78.07-3.89-.5.99-1.22,1.89-2.16,2.75-.16.14-.27.22-.36.22-.13,0-.22-.13-.36-.4-.22-.41-.5-.81-.77-1.06,1.35-.94,2.47-2.05,3.33-3.66h-.59c-1.46,0-1.93.04-2.03.04-.18,0-.2-.02-.2-.2v-1.28c0-.18.02-.2.2-.2.11,0,.58.04,2.03.04h.88v-.77ZM95.77,61.25c-.23-.16-.22-.23-.11-.36.68-.94,1.15-1.94,1.51-3.19.05-.2.09-.18.32-.09l1.13.43c.23.09.25.13.2.32-.41,1.4-.92,2.5-1.62,3.58-.05.09-.09.13-.14.13s-.13-.02-.22-.09l-1.08-.74ZM101.88,60.19c0,.36.07.59.25.7.29.16.81.2,1.67.2,1.1,0,1.75-.02,2.14-.27.27-.2.43-.79.45-1.62.36.22.85.41,1.35.52.47.09.45.14.38.63-.16,1.17-.45,1.62-.99,1.93-.67.38-1.6.45-3.49.45-1.66,0-2.57-.11-3.01-.4-.4-.27-.61-.61-.61-1.53v-2.02c0-.54-.04-.99-.11-1.5.59,0,1.31.04,1.84.09.23.04.32.11.32.2,0,.11-.02.16-.07.29-.07.16-.13.41-.13.81v1.51ZM108.47,47.35c1.4,0,1.87-.04,2-.04.18,0,.2.02.2.2,0,.11-.04.74-.04,2.11v4.75c0,1.37.04,2,.04,2.11,0,.2-.02.22-.2.22-.13,0-.59-.04-2-.04h-2.56c-.88,0-1.37.02-1.66.02.65.61,1.24,1.28,1.75,2.04.09.14.09.2-.11.32l-1.04.65c-.11.07-.18.11-.23.11s-.09-.04-.14-.13c-.47-.83-1.12-1.71-1.8-2.34-.11-.13-.09-.2.09-.31l.95-.56c0-.14.04-.77.04-2.09v-4.75c0-1.37-.04-1.98-.04-2.11,0-.18.02-.2.22-.2.11,0,.56.04,1.98.04h2.56ZM105.44,50.05h3.48v-1.22h-3.48v1.22ZM108.92,52.59v-1.21h-3.48v1.21h3.48ZM108.92,53.93h-3.48v1.26h3.48v-1.26ZM109.38,57.4c.22-.09.27-.07.38.07.76.95,1.42,1.98,1.96,3.24.05.14.04.2-.16.32l-1.21.7c-.11.07-.18.11-.23.11s-.09-.05-.13-.16c-.49-1.4-1.06-2.34-1.85-3.38-.13-.16-.11-.2.13-.32l1.12-.58Z"/>
        <path d="M123.62,50.59c-.41,3.06-1.17,5.87-2.25,7.76-.77,1.35-1.71,2.07-3.06,2.07-1.58,0-3.19-1.69-3.19-4.63,0-1.73.74-3.38,2.03-4.68,1.51-1.51,3.42-2.3,5.85-2.3,4.32,0,6.86,2.67,6.86,6.25,0,3.35-1.89,5.46-5.55,6.55-.38.11-.54.04-.77-.32-.2-.31-.58-.72-1.26-1.13,3.04-.72,5.44-1.98,5.44-5.38,0-2.14-1.62-4.18-4.03-4.18h-.07ZM118.45,52.34c-.86.97-1.4,2.18-1.4,3.33,0,1.66.67,2.58,1.22,2.58.47,0,.86-.23,1.35-1.1.79-1.46,1.6-4.05,1.91-6.45-1.26.25-2.27.76-3.08,1.64Z"/>
        <path d="M150.4,54.36c-.11,2.02-.36,3.22-1.06,4.59-.72,1.4-2.02,2.72-3.17,3.4-.2.13-.38.22-.54.22-.13,0-.25-.05-.38-.18-.36-.36-.97-.72-1.6-.95,1.76-.95,2.83-1.84,3.58-3.21.67-1.19.85-2.16.92-3.87h-3.42c-.9,0-1.78.05-2.7.11-.16.02-.22-.11-.23-.34-.09-.5-.14-1.19-.14-1.73,1.01.09,2.02.09,3.06.09h8.08c1.4,0,2.45-.04,3.51-.11.18,0,.2.11.2.36.02.23.02,1.15,0,1.39,0,.23-.11.31-.27.31-.94-.04-2.18-.07-3.42-.07h-2.41ZM146.84,50.18c-.83,0-1.55.04-2.56.07-.23,0-.29-.09-.31-.31-.05-.43-.07-1.08-.13-1.73,1.26.07,2.18.09,2.99.09h3.31c1.01,0,2.14-.02,3.04-.07.18,0,.22.11.22.34.04.43.04.88,0,1.31,0,.25-.04.34-.23.34-.97-.04-2.03-.05-3.02-.05h-3.31ZM154.58,47.05c.09-.05.16-.04.25.05.52.49,1.1,1.28,1.53,2.09.05.11.05.2-.09.29l-.81.49c-.13.07-.22.04-.29-.09-.47-.88-.97-1.62-1.62-2.25l1.03-.58ZM156.29,46.04c.11-.07.16-.04.25.05.61.58,1.19,1.35,1.53,2.02.05.11.07.22-.09.32l-.76.49c-.16.09-.25.02-.31-.09-.41-.81-.92-1.55-1.6-2.23l.97-.56Z"/>
        <path d="M173,51.69c.88,0,1.89-.02,2.72-.05.22-.02.23.09.25.29.04.45.04.97,0,1.42-.02.23-.05.31-.31.29-.61,0-1.71-.02-2.59-.02h-.74c-.11,2.58-.5,4.09-1.39,5.55-.9,1.49-2.36,2.57-4.25,3.35-.25.11-.4.16-.5.16s-.2-.05-.34-.2c-.54-.56-.88-.81-1.49-1.08,2.56-.79,3.94-1.71,4.86-3.19.7-1.15.99-2.4,1.06-4.59h-3.83v.65c0,1.06,0,2.03.05,2.99.02.2-.11.23-.31.25-.47.04-1.06.04-1.55,0-.23-.02-.34-.05-.32-.25.05-.94.09-1.82.09-2.95v-.68h-.54c-.97,0-2.41.05-2.97.09-.14,0-.2-.11-.22-.34-.07-.38-.09-1.01-.13-1.75.76.05,1.93.09,3.31.09h.54v-1.31c0-1.15-.04-1.6-.22-2.65.94.09,1.82.18,2.2.29.2.04.27.13.27.25,0,.11-.05.23-.11.38-.13.32-.13.5-.13,1.73v1.31h3.87l.02-1.76c.02-1.01-.04-1.84-.16-2.47.68.07,1.67.18,2.11.31.25.05.32.14.32.29,0,.07-.02.18-.07.32-.13.34-.14.81-.14,1.58v1.71h.63ZM173.9,47.33c.09-.04.16-.04.25.07.49.52,1.01,1.33,1.39,2.18.05.13.04.2-.11.27l-.74.38c-.14.07-.23.04-.31-.11-.4-.9-.85-1.66-1.46-2.34l.97-.45ZM175.59,46.56c.11-.05.16-.04.25.07.58.61,1.1,1.42,1.39,2.11.05.11.05.23-.11.31l-.72.36c-.16.07-.23.02-.29-.09-.36-.85-.83-1.62-1.46-2.34l.94-.41Z"/>
        <path d="M188.38,58.26c0,1.24.02,2.3.05,3.75.02.23-.07.31-.27.31-.58.04-1.22.04-1.8,0-.2,0-.27-.07-.25-.29.02-1.3.07-2.47.07-3.69v-4.2c-1.58,1.33-3.51,2.7-4.95,3.46-.09.05-.18.07-.27.07-.14,0-.25-.05-.38-.18-.41-.41-1.01-.77-1.55-1.06,2.48-1.28,4.02-2.32,5.67-3.69,1.42-1.17,2.72-2.43,3.84-3.76.61-.72.85-1.08,1.13-1.85.81.45,1.6.94,2,1.26.11.07.14.18.14.27,0,.14-.11.31-.25.4-.31.2-.59.47-1.08.99-.7.85-1.37,1.55-2.11,2.27v5.96Z"/>
        <path d="M198.11,49.01c.07-.09.16-.14.25-.14.07,0,.14.04.23.09.92.49,2.41,1.58,3.44,2.56.11.11.16.18.16.25s-.04.14-.11.23c-.27.36-.86,1.08-1.12,1.35-.09.09-.14.14-.22.14s-.14-.05-.23-.14c-1.08-1.12-2.38-2.14-3.67-2.94.4-.49.92-1.04,1.26-1.4ZM199.68,58.5c2.2-1.13,3.37-1.89,5.19-3.35,2.2-1.78,3.4-2.93,4.93-4.9.11.9.27,1.51.5,2.11.05.13.09.23.09.34,0,.16-.09.31-.29.54-.95,1.12-2.5,2.56-4.14,3.82-1.49,1.17-3.01,2.18-5.44,3.53-.81.49-1.04.67-1.21.83-.11.11-.22.18-.32.18-.09,0-.2-.07-.31-.2-.45-.5-1.01-1.24-1.44-2,.92-.25,1.48-.42,2.43-.9Z"/>
        <path d="M218.67,47.57c.22.05.32.14.32.29,0,.25-.13.5-.13.76,0,.36.05.79.09,1.21.16,1.26.34,2.16.58,3.1.9-.49,1.55-.83,2.56-1.37.52-.31.95-.61,1.24-.97.58.59,1.04,1.22,1.31,1.69.07.11.13.25.13.38,0,.18-.11.32-.36.36-.54.09-1.15.31-1.73.54-1.55.63-2.99,1.3-4.23,2.11-1.57,1.03-2.12,1.87-2.12,2.72,0,1.06.79,1.51,2.86,1.51,2.27,0,4.1-.16,5.49-.41.2-.04.29,0,.32.22.09.49.14,1.13.18,1.67.02.2-.11.29-.32.31-1.64.22-3.08.27-5.37.27-3.4,0-5.2-1.12-5.2-3.46,0-2,1.31-3.31,3.42-4.65-.43-1.39-.76-3.01-.94-4.39-.13-.96-.25-1.58-.47-2.09.86,0,1.69.05,2.36.22Z"/>
        <path d="M240.49,51.84h-6.28c-1.22,0-2.07.04-2.7.11-.2,0-.27-.09-.27-.31-.05-.49-.09-1.33-.09-1.93,1.08.11,1.71.13,3.01.13h5.35c.94,0,1.89-.04,2.85-.07.29,0,.38.07.36.31,0,.95-.04,1.89-.04,2.84v4.3c0,1.31.05,2.75.07,3.26,0,.18-.07.23-.32.25-.5.04-1.08.04-1.58,0-.29-.02-.34-.04-.34-.31v-.72h-6.19c-1.13,0-2.09.05-2.95.07-.16,0-.23-.07-.25-.27-.05-.47-.09-1.12-.09-1.87.85.05,1.89.09,3.31.09h6.18v-5.89Z"/>
        <path d="M257.51,49.12c.65,0,.97-.02,1.24-.16.07-.05.13-.07.2-.07.11,0,.2.07.31.14.41.32.83.79,1.17,1.26.05.09.09.16.09.23,0,.11-.07.23-.23.36-.23.2-.47.47-.67.79-.74,1.26-1.44,2.27-2.3,3.37,1.73,1.28,3.33,2.68,4.99,4.36.09.09.14.18.14.25s-.04.16-.13.27c-.34.41-.76.85-1.21,1.22-.07.07-.14.11-.22.11-.09,0-.16-.05-.25-.14-1.51-1.76-3.06-3.19-4.68-4.46-2.03,2.12-4.09,3.65-6.05,4.75-.16.07-.29.14-.41.14-.11,0-.22-.05-.31-.16-.4-.49-.92-.85-1.51-1.17,2.81-1.42,4.48-2.7,6.34-4.59,1.3-1.35,2.29-2.63,3.38-4.52l-4.65.02c-.94,0-1.87.04-2.84.11-.14.02-.2-.11-.23-.31-.09-.38-.16-1.24-.16-1.87.97.07,1.87.07,3.04.07h4.95Z"/>
        <path d="M270.13,53.38c.49-1.1.76-2.02.81-2.66.92.32,1.73.65,2.23.92.16.07.22.18.22.29,0,.13-.07.25-.18.36-.2.2-.34.45-.63,1.1-1.06,2.4-2.12,4.23-3.85,6.05-.16.18-.32.27-.5.27-.14,0-.27-.05-.41-.18-.36-.29-.94-.58-1.58-.77,1.89-1.67,3.19-3.73,3.91-5.37ZM276.86,50.94c.09-.07.18-.11.25-.11.09,0,.16.04.27.14,1.96,1.96,3.48,4.3,4.52,6.61.05.09.07.16.07.25,0,.11-.05.2-.18.29-.34.27-.92.65-1.49.96-.23.11-.36.07-.43-.16-1.33-3.01-2.67-5.11-4.45-7,.65-.43,1.13-.77,1.44-.97ZM282.93,49.71c0,1.08-.86,1.93-1.94,1.93s-1.94-.85-1.94-1.93.86-1.93,1.94-1.93,1.94.85,1.94,1.93ZM279.93,49.71c0,.61.45,1.06,1.06,1.06s1.06-.45,1.06-1.06-.45-1.06-1.06-1.06-1.06.45-1.06,1.06Z"/>
        <path d="M303.09,59.04c0,.2-.11.29-.34.32-.23.04-.77.09-1.28.09-.16,0-.23-.11-.23-.29,0-.65,0-1.55.02-2.2-1.6.83-2.18,1.53-2.18,2.4,0,.76.61,1.24,2.5,1.24,1.66,0,3.1-.16,4.48-.36.16-.02.23.04.25.2.09.41.16,1.04.16,1.48.02.22-.05.34-.2.34-1.55.2-2.72.23-4.47.23-2.95,0-4.52-.88-4.52-2.97,0-1.73,1.08-2.99,3.8-4.39-.05-.92-.27-1.28-1.08-1.24-.85.04-1.66.58-2.48,1.3-.77.76-1.22,1.28-1.8,1.96-.09.11-.14.16-.22.16-.05,0-.13-.05-.2-.13-.25-.25-.79-.81-1.03-1.19-.05-.07-.07-.13-.07-.16,0-.07.04-.13.13-.2,1.39-1.24,2.72-2.67,3.76-4.46-.85.04-1.82.05-2.88.05-.16,0-.22-.09-.25-.29-.05-.29-.13-.95-.18-1.49,1.37.07,2.77.05,4.14-.02.2-.49.36-.92.54-1.55.07-.31.13-.61.13-1.1.79.13,1.58.32,2.05.5.14.05.22.18.22.31,0,.09-.04.2-.13.27-.11.09-.22.25-.31.43-.11.25-.2.49-.41.97,1.1-.13,2.2-.31,3.28-.56.2-.04.25.02.29.18.09.36.16.77.18,1.3.02.18-.05.25-.31.29-1.35.2-2.9.4-4.21.54-.41.67-.81,1.33-1.35,2l.02.04c.58-.38,1.31-.56,1.8-.56,1.19,0,2.02.54,2.2,1.94.7-.32,1.73-.79,2.65-1.26.34-.18.92-.5,1.37-.97.59.63,1.06,1.26,1.26,1.58.11.16.14.29.14.4,0,.14-.09.22-.27.25-.38.05-.74.14-1.1.27-1.17.41-2.34.81-3.87,1.44v2.9Z"/>
        <path d="M6.34,99.91c0,3.46.04,4.09.04,4.2,0,.18-.02.2-.2.2h-1.39c-.18,0-.2-.02-.2-.2v-.95h-1.85v1.78c0,.18-.02.2-.2.2h-1.4c-.18,0-.2-.02-.2-.2,0-.13.04-.81.04-4.5v-2.61c0-2.63-.04-3.33-.04-3.46,0-.18.02-.2.2-.2.13,0,.49.04,1.64.04h1.76c1.17,0,1.53-.04,1.64-.04.18,0,.2.02.2.2,0,.11-.04.77-.04,2.84v2.7ZM2.74,95.93v5.47h1.85v-5.47h-1.85ZM10.68,95.28c0-1.28-.02-1.84-.14-2.72.7.02,1.44.05,2.05.13.18.02.29.09.29.18,0,.13-.05.25-.09.38-.09.25-.13.67-.13,1.98v3.24h1.49c1.69,0,2.27-.04,2.38-.04.18,0,.2.02.2.2v1.53c0,.18-.02.2-.2.2-.11,0-.68-.04-2.38-.04h-1.49v5.37c0,2.05.04,3.08.04,3.17,0,.18-.02.2-.2.2h-1.64c-.2,0-.22-.02-.22-.2,0-.11.04-1.12.04-3.15v-5.38h-1.12c-1.69,0-2.27.04-2.38.04-.18,0-.2-.02-.2-.2v-1.53c0-.18.02-.2.2-.2.11,0,.68.04,2.38.04h1.12v-3.19Z"/>
        <path d="M24.99,98.07c1.39-.22,2.39-.41,3.13-.58.31-.09.49-.14.72-.29.16-.09.23-.13.4-.13.11,0,.16.04.31.13.32.2.74.54,1.06.96.13.13.2.31.2.41,0,.16-.11.31-.32.41-.25.13-.38.25-.58.41-1.33,1.26-2.07,2.02-3.28,3.31.23-.07.47-.09.65-.09.85,0,1.66.54,1.96,1.82.36,1.48.65,1.76,1.98,1.76,1.06,0,1.91-.13,2.79-.32.2-.04.29.07.32.27.07.38.13.99.13,1.58,0,.18-.09.25-.32.29-.79.14-1.78.23-2.65.23-2.65,0-3.51-.7-3.89-2.48-.29-1.22-.5-1.73-1.13-1.73-.47,0-1.03.25-1.69.9-.81.83-2.12,2.41-2.74,3.17-.05.07-.14.13-.25.13-.05,0-.13-.02-.2-.07-.47-.32-.94-.77-1.26-1.1-.05-.05-.09-.13-.09-.18,0-.09.05-.2.14-.29,1.15-1.17,2.25-2.29,3.4-3.46.7-.72,1.64-1.76,3.56-3.83-1.35.36-2.56.65-3.75.95-.56.16-.83.25-.97.32-.14.07-.25.11-.38.11s-.22-.09-.31-.31c-.23-.45-.45-1.12-.72-2.02,1.55,0,2.27-.07,3.76-.31ZM30.01,94.22c.18.04.25.14.2.4-.11.43-.32,1.12-.49,1.48-.05.14-.16.23-.31.2-1.58-.31-3.69-.94-5.02-1.51-.11-.04-.22-.13-.16-.32.11-.42.34-1.01.61-1.67,1.8.67,3.44,1.1,5.17,1.44Z"/>
        <path d="M47.37,95.77c.2-.05.27.04.29.18.05.4.11.92.13,1.3.02.23-.04.29-.27.34-1.12.31-2.03.5-3.13.68-1.22,4-2.14,6.75-3.29,9.74-.09.25-.2.23-.4.18-.18-.07-1.06-.45-1.44-.67-.14-.09-.2-.23-.14-.36,1.37-3.15,2.23-5.53,3.11-8.53-1.04.11-2.3.2-3.15.2-.27,0-.34-.05-.38-.29-.07-.38-.16-.99-.25-1.64.38.05.59.05,1.33.05.9,0,1.87-.05,2.92-.18.18-.72.32-1.51.45-2.25.07-.54.11-1.08.11-1.66.95.14,1.69.27,2.27.5.14.05.2.18.2.29,0,.07,0,.16-.09.29-.14.25-.29.43-.38.72-.18.65-.31,1.26-.43,1.71.7-.13,1.67-.36,2.56-.61ZM46.67,104.37c.18,0,.25.07.27.25.14,1.31,1.03,1.69,2.75,1.69,1.01,0,2.3-.16,3.03-.25.14-.02.2.02.22.16.07.47.14,1.08.14,1.57.02.22,0,.27-.29.29-.61.09-1.78.2-2.45.2-2.36,0-3.58-.32-4.39-1.17-.58-.58-.77-1.42-.81-2.47.56-.14,1.3-.27,1.53-.27ZM46.47,99.6c0-.25.05-.31.32-.36,1.13-.23,2.47-.41,3.51-.41.7,0,1.48.07,2.11.18.25.04.31.05.31.27.04.45.04.95.02,1.44,0,.31-.09.38-.34.32-.63-.13-1.46-.22-2.23-.22-1.08,0-2.45.18-3.62.41-.04-.63-.07-1.28-.07-1.64Z"/>
        <path d="M58.88,99.85c-.32.43-.68.86-1.04,1.28-.14.16-.25.23-.32.23s-.13-.09-.2-.31c-.13-.58-.38-1.21-.59-1.55,1.57-1.67,2.65-3.64,3.4-5.74.14-.41.23-.81.29-1.26.65.16,1.24.31,1.78.54.2.09.27.14.27.27s-.04.22-.18.32c-.13.09-.22.25-.38.72-.34.88-.74,1.76-1.19,2.61v9.13c0,1.76.04,2.65.04,2.74,0,.18-.02.2-.18.2h-1.55c-.16,0-.18-.02-.18-.2,0-.11.04-.97.04-2.74v-6.25ZM64.17,108.28c-1.76,0-2.39.04-2.5.04-.18,0-.2-.02-.2-.22v-1.39c0-.18.02-.2.2-.2.11,0,.74.04,2.5.04h2.2v-3.73h-1.21c-1.67,0-2.25.04-2.36.04-.2,0-.22-.02-.22-.2v-1.35c0-.18.02-.2.22-.2.11,0,.68.04,2.36.04h1.21v-3.11h-1.69c-1.75,0-2.34.04-2.45.04-.18,0-.2-.02-.2-.2v-1.37c0-.2.02-.2.2-.2.11,0,.7.02,2.45.02h5.64c1.73,0,2.34-.02,2.45-.02.2,0,.22,0,.22.2v1.37c0,.18-.02.2-.22.2-.11,0-.72-.04-2.45-.04h-2.02v3.11h1.42c1.69,0,2.27-.04,2.38-.04.18,0,.2.02.2.2v1.35c0,.18-.02.2-.2.2-.11,0-.68-.04-2.38-.04h-1.42v3.73h2.54c1.76,0,2.38-.04,2.48-.04.18,0,.2.02.2.2v1.39c0,.2-.02.22-.2.22-.11,0-.72-.04-2.48-.04h-6.66ZM65.74,92.76c.13-.14.22-.14.38-.07,1.04.43,2.12,1.08,3.13,1.82.09.07.14.11.14.16,0,.04-.05.11-.13.2l-.85.95c-.18.22-.25.22-.4.11-.9-.76-2.07-1.44-3.13-1.93-.09-.05-.13-.09-.13-.14s.04-.11.13-.2l.85-.9Z"/>
        <path d="M89.83,101.33c1.55-.18,2.07-.29,2.27-.31.18-.02.2,0,.22.18l.14,1.35c.02.18,0,.22-.18.23-.18.02-.77.05-2.32.23l-5.11.58v2.61c0,.52.11.74.5.81.31.07.95.13,1.93.13,1.48,0,2.25-.13,2.59-.43.29-.27.45-.76.49-2,.4.2.9.4,1.42.5q.49.13.45.61c-.14,1.24-.54,1.96-1.04,2.34-.54.43-1.78.67-3.8.67-1.4,0-2.88-.11-3.44-.31-.7-.27-1.01-.97-1.01-1.76v-2.97l-3.58.4c-1.55.2-2.02.27-2.25.31-.18.02-.22,0-.23-.2l-.14-1.37c-.02-.18,0-.2.2-.22.23-.02.72-.04,2.27-.22l3.75-.41v-2c-1.1.22-2.27.42-3.51.58q-.49.07-.67-.45c-.16-.49-.4-.9-.65-1.21,3.04-.27,6.43-.97,8.61-1.62.52-.14.94-.34,1.33-.58.47.34.9.79,1.19,1.13.11.13.18.2.18.36,0,.11-.09.2-.31.22-.2.04-.45.09-.72.16-1.12.38-2.29.7-3.55.99v2.21l4.99-.56ZM89.63,94.43c1.66,0,2.25-.04,2.38-.04.18,0,.2.02.2.18,0,.11-.04.43-.04.95v.79c0,1.62.04,1.91.04,2.02,0,.18-.02.2-.2.2h-1.49c-.2,0-.22-.02-.22-.2v-2.23h-11.42v2.27c0,.2-.02.22-.2.22h-1.51c-.18,0-.2-.02-.2-.22,0-.11.04-.38.04-2.02v-.65c0-.68-.04-1.01-.04-1.13,0-.16.02-.18.2-.18.13,0,.72.04,2.38.04h3.96v-.14c0-.77-.02-1.26-.13-1.71.67.02,1.3.05,1.93.11.18,0,.27.07.27.18,0,.13-.05.22-.09.34-.07.16-.09.38-.09,1.08v.14h4.23Z"/>
        <path d="M105.57,105.04c0,.2-.11.29-.34.32s-.77.09-1.28.09c-.16,0-.23-.11-.23-.29,0-.65,0-1.55.02-2.2-1.6.83-2.18,1.53-2.18,2.4,0,.76.61,1.24,2.5,1.24,1.66,0,3.1-.16,4.48-.36.16-.02.23.04.25.2.09.41.16,1.04.16,1.48.02.22-.05.34-.2.34-1.55.2-2.72.23-4.47.23-2.95,0-4.52-.88-4.52-2.97,0-1.73,1.08-2.99,3.8-4.39-.05-.92-.27-1.28-1.08-1.24-.85.04-1.66.58-2.48,1.3-.77.76-1.22,1.28-1.8,1.96-.09.11-.14.16-.22.16-.05,0-.13-.05-.2-.13-.25-.25-.79-.81-1.03-1.19-.05-.07-.07-.13-.07-.16,0-.07.04-.13.13-.2,1.39-1.24,2.72-2.67,3.76-4.46-.85.04-1.82.05-2.88.05-.16,0-.22-.09-.25-.29-.05-.29-.13-.95-.18-1.49,1.37.07,2.77.05,4.14-.02.2-.49.36-.92.54-1.55.07-.31.13-.61.13-1.1.79.13,1.58.32,2.05.5.14.05.22.18.22.31,0,.09-.04.2-.13.27-.11.09-.22.25-.31.43-.11.25-.2.49-.41.97,1.1-.13,2.2-.31,3.28-.56.2-.04.25.02.29.18.09.36.16.77.18,1.3.02.18-.05.25-.31.29-1.35.2-2.9.4-4.21.54-.41.67-.81,1.33-1.35,2l.02.04c.58-.38,1.31-.56,1.8-.56,1.19,0,2.02.54,2.2,1.94.7-.32,1.73-.79,2.65-1.26.34-.18.92-.5,1.37-.97.59.63,1.06,1.26,1.26,1.58.11.16.14.29.14.4,0,.14-.09.22-.27.25-.38.05-.74.14-1.1.27-1.17.41-2.34.81-3.87,1.44v2.9Z"/>
        <path d="M117.06,102.54c.16.09.18.18.09.32-.27.41-.47,1.01-.47,1.37,0,1.13,1.17,1.69,4.27,1.69,1.75,0,3.4-.2,4.88-.52.25-.05.34,0,.38.16.09.34.25,1.31.29,1.76.02.16-.09.23-.31.27-1.67.31-3.33.43-5.28.43-4.16,0-6.19-1.3-6.19-3.64,0-.74.27-1.51.95-2.58.47.23.92.47,1.39.72ZM121.13,95.48c1.31,0,2.59-.07,3.75-.16.18-.02.25.05.27.2.07.41.14.92.16,1.53,0,.25-.09.36-.31.38-1.71.25-2.95.85-4.41,1.78-.14.11-.31.16-.45.16-.13,0-.25-.04-.38-.11-.36-.23-.74-.43-1.26-.58.94-.61,1.73-1.12,2.36-1.49-.4.05-.95.05-1.31.05-.74,0-2.29-.11-3.31-.31-.16-.04-.23-.11-.23-.32,0-.43.04-.95.07-1.6,1.37.32,3.1.47,5.06.47ZM126.02,93.48c.09-.07.16-.05.27.04.56.43,1.21,1.15,1.71,1.93.07.11.07.2-.05.29l-.76.56c-.13.09-.22.07-.31-.05-.54-.83-1.12-1.51-1.82-2.09l.95-.67ZM127.63,92.31c.11-.07.16-.05.27.04.67.5,1.31,1.22,1.71,1.85.07.11.09.22-.05.32l-.72.56c-.14.11-.23.05-.31-.05-.49-.77-1.06-1.46-1.8-2.07l.9-.65Z"/>
        <path d="M136.08,103.13c0,1.73.05,2.7.05,3.6,0,.99-.14,1.48-.58,1.78-.4.29-.85.38-1.98.4q-.56.02-.7-.54c-.11-.5-.27-.97-.43-1.3.43.05.85.05,1.31.05s.56-.16.56-.68v-3.55c-.27.09-.52.18-.77.25-.32.11-.52.22-.63.31-.09.07-.2.11-.29.11-.11,0-.18-.07-.22-.22-.13-.49-.23-1.12-.31-1.73.52-.07,1.01-.16,1.64-.34l.58-.16v-3.37h-.23c-1.22,0-1.58.04-1.69.04-.18,0-.2-.02-.2-.2v-1.31c0-.18.02-.2.2-.2.11,0,.47.04,1.69.04h.23v-.95c0-1.15-.02-1.73-.13-2.56.67.02,1.21.05,1.84.13.16.02.29.09.29.2,0,.14-.07.25-.13.38-.11.22-.11.59-.11,1.82v.99c1.06,0,1.42-.04,1.53-.04.18,0,.2.02.2.2v1.31c0,.18-.02.2-.2.2-.11,0-.47-.04-1.53-.04v2.79c.5-.2,1.03-.4,1.55-.65-.04.36-.05.76-.07,1.17,0,.59-.02.56-.54.79l-.94.41v.86ZM140.58,101.81c-1.71,0-2.32.04-2.43.04-.18,0-.2-.02-.2-.18v-1.22c0-.2.02-.22.2-.22.11,0,.72.04,2.43.04h5.29c1.73,0,2.32-.04,2.43-.04.2,0,.22.02.22.22v1.22c0,.16-.02.18-.22.18-.11,0-.7-.04-2.43-.04h-1.94v1.71h1.6c1.26,0,1.71-.04,1.84-.04.18,0,.2.02.2.2v1.17c0,.18-.02.2-.2.2-.13,0-.58-.04-1.84-.04h-1.6v1.89c.76.13,1.62.16,2.61.18.83,0,1.58-.02,2.41-.07-.14.31-.25.7-.32,1.15-.07.59-.14.61-.67.61h-1.22c-3.37-.05-5.55-.61-6.95-2.59-.41.88-.95,1.67-1.71,2.45-.16.16-.27.25-.36.25-.13,0-.23-.11-.41-.32-.29-.36-.63-.65-.94-.83,1.64-1.24,2.25-2.81,2.61-4.36.09-.4.13-.72.14-1.03.58.13.97.22,1.48.36.23.07.34.13.34.27,0,.13-.05.2-.14.31-.07.09-.11.22-.18.47-.09.31-.16.61-.25.9.47.81,1.06,1.37,1.8,1.73v-4.57h-1.58ZM144.77,93.15c1.57,0,2.09-.04,2.2-.04.18,0,.2.02.2.22,0,.11-.04.56-.04,1.64v2.5c0,1.06.04,1.53.04,1.64,0,.18-.02.2-.2.2-.11,0-.63-.04-2.2-.04h-3.51c-1.58,0-2.11.04-2.21.04-.18,0-.2-.02-.2-.2,0-.13.04-.58.04-1.64v-2.5c0-1.08-.04-1.53-.04-1.64,0-.2.02-.22.2-.22.11,0,.63.04,2.21.04h3.51ZM140.63,94.54v1.04h4.74v-1.04h-4.74ZM145.37,96.86h-4.74v1.06h4.74v-1.06Z"/>
        <path d="M164.83,98.21c-.49.7-1.04,1.28-1.67,1.76,1.4.38,2.83.81,4.34,1.33.09.04.14.07.14.13,0,.04-.04.11-.11.2l-.72.95c-.14.22-.2.22-.38.14-1.62-.65-3.24-1.26-4.92-1.76-.59.29-1.22.52-1.93.7.58.02,1.08.07,1.64.13.18.02.27.11.27.2,0,.18-.09.32-.11.47-.04.18-.07.4-.07.7h4.66c1.6,0,2.16-.04,2.27-.04.2,0,.22.02.22.2v1.17c0,.18-.02.2-.22.2-.11,0-.67-.04-2.27-.04h-3.4c1.55,1.1,3.39,1.78,6.3,2.43-.29.32-.56.74-.76,1.21-.22.52-.25.5-.79.36-2.59-.79-4.52-1.8-6.05-3.31.02,1.82.07,3.12.07,3.48,0,.18-.02.2-.2.2h-1.48c-.18,0-.2-.02-.2-.2,0-.36.07-1.58.09-3.44-1.64,1.49-3.66,2.59-5.87,3.29-.2.05-.32.09-.41.09-.16,0-.23-.11-.4-.41-.22-.41-.45-.79-.76-1.1,2.59-.7,4.54-1.44,6.07-2.59h-3.1c-1.6,0-2.16.04-2.27.04-.2,0-.22-.02-.22-.2v-1.17c0-.18.02-.2.22-.2.11,0,.67.04,2.27.04h4.43c-.02-.41-.04-.86-.13-1.44-1.42.36-3.06.58-4.97.7-.45.04-.5.02-.65-.38-.18-.49-.38-.79-.59-1.06,2.65-.09,4.52-.31,5.94-.67-.54-.13-1.12-.25-1.69-.36-.13.13-.25.23-.36.32-.13.13-.16.13-.45.04l-1.03-.32c-.25-.07-.23-.2-.11-.31.31-.27.65-.63.95-.94l.49-.54h-1.57c-1.64,0-2.2.04-2.3.04-.2,0-.22-.02-.22-.18v-1.1c0-.18.02-.2.22-.2.11,0,.67.04,2.3.04h2.65l.09-.14c.25-.38.47-.79.65-1.22.65.09,1.21.2,1.75.32.13.04.22.11.22.23,0,.09-.11.18-.23.25-.11.05-.29.23-.5.56h5.85c1.64,0,2.2-.04,2.3-.04.18,0,.2.02.2.2v1.1c0,.16-.02.18-.2.18-.11,0-.67-.04-2.3-.04h-1.01ZM155.04,96.16c0,.16-.02.18-.2.18h-1.44c-.2,0-.22-.02-.22-.18,0-.13.04-.25.04-1.37v-.29c0-.29-.04-.45-.04-.56,0-.18.02-.2.22-.2.11,0,.72.04,2.43.04h3.66c0-.45-.04-.88-.13-1.3.65,0,1.3.04,1.93.09.16.02.27.09.27.18,0,.13-.05.23-.11.36s-.07.34-.07.67h3.91c1.69,0,2.3-.04,2.43-.04.18,0,.2.02.2.2,0,.11-.04.27-.04.5v.34c0,1.12.04,1.26.04,1.37,0,.16-.02.18-.2.18h-1.46c-.18,0-.2-.02-.2-.18v-.94h-11.02v.94ZM158.98,98.21c-.2.27-.4.52-.59.74.97.16,1.93.36,2.86.56.63-.36,1.13-.79,1.6-1.3h-3.87Z"/>
        <path d="M176.47,93.75c.31.07.43.16.43.34,0,.2-.11.41-.18.59-.09.25-.16.81-.25,2.2-.18,2.77-.27,4.61-.27,6.97,0,1.82.22,2.23,1.66,2.23,1.6,0,4.1-.97,6.3-3.31.07.68.23,1.28.41,1.71.09.2.14.32.14.43,0,.16-.07.31-.36.56-1.94,1.78-4.48,2.7-6.82,2.7s-3.38-.92-3.38-3.67c0-3.03.16-5.62.25-7.78.04-1.06.09-2.21-.18-3.29.83.09,1.69.18,2.25.32Z"/>
        <path d="M195.32,101.53c-1.24.04-2.47.04-3.71-.07-.2,0-.27-.07-.29-.31-.07-.4-.11-1.12-.11-1.53,1.33.16,2.7.2,4.05.14-.02-.68-.02-1.39-.04-2.07-1.73.05-3.02.05-4.3-.09-.2,0-.29-.07-.31-.25-.05-.45-.09-.88-.13-1.62,1.57.18,3.13.18,4.72.18,0-.67-.02-1.13-.04-1.75-.04-.42-.07-.74-.22-1.21.95.05,1.73.16,2.27.32.22.07.32.32.2.54-.13.25-.25.56-.27.86-.02.36-.02.61-.04,1.15,1.67-.13,2.88-.32,3.94-.54.22-.05.29,0,.31.22.07.5.09.99.09,1.31,0,.23-.05.27-.2.29-1.28.22-2.43.36-4.16.47,0,.72.02,1.39.02,2.03,1.37-.09,2.23-.27,3.53-.47.22-.05.27-.02.29.14.02.34.05.94.05,1.48,0,.18-.07.23-.27.25-1.19.2-2.02.32-3.53.43.04.83.07,1.71.13,2.54,1.73.49,3.21,1.13,4.77,2.18.18.16.18.22.13.43-.13.34-.5,1.01-.79,1.33-.07.11-.14.14-.23.14-.05,0-.13-.02-.2-.09-1.1-.86-2.21-1.5-3.58-2.05-.02,1.94-1.19,2.74-3.66,2.74s-3.67-1.03-3.67-2.52,1.42-2.56,3.6-2.56c.45,0,.88,0,1.73.07-.04-.79-.07-1.53-.09-2.14ZM193.77,105.16c-1.31,0-1.94.38-1.94.95,0,.47.54.81,1.78.81.72,0,1.39-.22,1.64-.54.14-.2.2-.5.2-1.01-.52-.13-1.17-.22-1.67-.22Z"/>
        <path d="M214.27,94.34c-.04-.52-.07-.77-.22-1.31.81.05,1.67.16,2.11.25.31.05.5.18.5.34,0,.14-.05.23-.16.41-.05.11-.11.29-.14.52-.02.23-.02.47-.04,1.15,1.94-.07,3.8-.09,5.53-.09.22,0,.25.04.27.27.02.45.02.92,0,1.37,0,.2-.09.25-.31.23-1.87-.05-3.62-.05-5.49-.04,0,1.1,0,2.25.02,3.35.18.49.27,1.19.27,1.78,0,2.09-.85,4.27-3.21,5.82-.31.2-.54.34-.7.34s-.36-.13-.54-.27c-.41-.34-.9-.58-1.37-.72,2.11-.94,3.37-2.45,3.69-3.96-.36.52-1.1.72-1.69.72-1.42,0-2.5-1.03-2.5-2.75s1.26-2.7,2.72-2.7c.54,0,1.08.11,1.37.36,0-.63-.02-1.24-.02-1.84-2.27.13-4.81.34-6.23.54-.4.05-.68.22-.85.22-.18,0-.25-.07-.31-.25-.14-.36-.31-1.08-.45-1.82.67.07,1.24,0,2.2-.07,1.1-.09,3.42-.23,5.58-.36-.02-.56-.02-1.01-.04-1.49ZM211.97,101.64c0,.79.5,1.22,1.15,1.22s1.22-.41,1.22-1.24c0-.74-.47-1.15-1.19-1.15-.56,0-1.19.38-1.19,1.17Z"/>
        <path d="M231.1,106.82c0,1.44-1.17,2.59-2.61,2.59s-2.61-1.15-2.61-2.59,1.17-2.59,2.61-2.59,2.61,1.15,2.61,2.59ZM227,106.82c0,.85.65,1.49,1.49,1.49s1.49-.65,1.49-1.49-.65-1.49-1.49-1.49-1.49.65-1.49,1.49Z"/>
      </g>
      <polygon points="290.78 70.25 290.78 40.21 215.41 27 137.04 40.21 137.04 70.25 290.78 70.25" style="fill: none; stroke: #c91933; stroke-miterlimit: 10; stroke-width: 2px;"/>
    </g>
  </g>
</svg>