<?xml version="1.0" encoding="UTF-8"?>
<svg id="_レイヤー_2" data-name="レイヤー 2" xmlns="http://www.w3.org/2000/svg" viewBox="0 0 1700 143.71">
  <g id="_レイヤー_1-2" data-name="レイヤー 1">
    <g>
      <g>
        <path d="M42.46,85.91c1.96,3.7,4.54,6.38,7.34,8.96-.78,1.12-1.62,2.69-2.13,4.09-.22.62-.45.95-.73.95-.22,0-.56-.28-.95-.78-1.9-2.3-3.25-4.48-4.48-7.22,0,13.38.28,22.46.28,23.46,0,.5-.06.56-.62.56h-4.76c-.56,0-.62-.06-.62-.56,0-1.01.28-10.14.34-22.96-1.96,5.43-4.59,9.91-7.45,13.89-.39.56-.67.84-.95.84-.22,0-.45-.28-.73-.95-.56-1.57-1.4-3.42-2.18-4.48,3.86-4.09,7.11-8.74,9.97-15.79h-1.62c-4.7,0-6.27.11-6.61.11-.56,0-.56-.06-.56-.62v-4.03c0-.56,0-.62.56-.62.34,0,1.9.11,6.61.11h2.86v-6.66c-1.79.39-3.7.78-5.6,1.12q-1.79.28-2.46-1.34c-.5-1.23-1.06-2.24-1.79-3.08,6.78-.9,13.33-2.86,16.8-4.31,1.34-.56,2.02-.9,2.91-1.51,1.57,1.29,2.74,2.35,3.75,3.47.34.39.56.67.56,1.06s-.39.67-1.06.78c-.73.11-1.46.28-2.41.62-1.62.62-3.3,1.18-5.1,1.68v8.18h1.46c4.76,0,6.27-.11,6.61-.11.56,0,.62.06.62.62v4.03c0,.56-.06.62-.62.62-.34,0-1.85-.11-6.61-.11h-.62ZM67.1,90.61c.78-.34.84-.34,1.12.22,3.75,6.89,6.61,13.78,8.74,20.83.17.56.11.67-.62,1.01l-3.81,1.68c-.84.34-.9.39-1.06-.22l-1.46-4.76c-6.44,1.34-12.94,2.58-20.66,3.81-.9.17-1.57.39-1.96.62-.34.22-.62.39-.95.39-.39,0-.67-.22-.84-.78-.56-1.68-1.06-3.64-1.46-5.94,1.68,0,3.3-.06,5.04-.17,3.53-11.98,5.54-22.29,7.39-33.77.39-2.46.67-4.76.62-7,2.3.34,4.2.67,6.1,1.18.62.17,1.06.45,1.06.84,0,.45-.17.67-.39,1.06-.45.67-.73,1.46-1.01,3.02-2.24,11.98-4.54,22.96-7.67,33.99,4.26-.56,8.57-1.18,13.05-2.07-1.46-3.86-3.08-7.56-4.98-11.37-.28-.56-.17-.73.45-1.01l3.3-1.57Z" style="fill: #1c1c1c;"/>
        <path d="M114.04,74.59c.62-.17.84.11.9.56.17,1.23.34,2.86.39,4.03.06.73-.11.9-.84,1.06-3.47.95-6.33,1.57-9.74,2.13-3.81,12.43-6.66,21-10.25,30.3-.28.78-.62.73-1.23.56-.56-.22-3.3-1.4-4.48-2.07-.45-.28-.62-.73-.45-1.12,4.26-9.8,6.94-17.19,9.69-26.54-3.25.34-7.17.62-9.8.62-.84,0-1.06-.17-1.18-.9-.22-1.18-.5-3.08-.78-5.1,1.18.17,1.85.17,4.14.17,2.8,0,5.82-.17,9.07-.56.56-2.24,1.01-4.7,1.4-7,.22-1.68.34-3.36.34-5.15,2.97.45,5.26.84,7.06,1.57.45.17.62.56.62.9,0,.22,0,.5-.28.9-.45.78-.9,1.34-1.18,2.24-.56,2.02-.95,3.92-1.34,5.32,2.18-.39,5.21-1.12,7.95-1.9ZM111.85,101.36c.56,0,.78.22.84.78.45,4.09,3.19,5.26,8.57,5.26,3.14,0,7.17-.5,9.41-.78.45-.06.62.06.67.5.22,1.46.45,3.36.45,4.87.06.67,0,.84-.9.9-1.9.28-5.54.62-7.62.62-7.34,0-11.14-1.01-13.66-3.64-1.79-1.79-2.41-4.42-2.52-7.67,1.74-.45,4.03-.84,4.76-.84ZM111.24,86.52c0-.78.17-.95,1.01-1.12,3.53-.73,7.67-1.29,10.92-1.29,2.18,0,4.59.22,6.55.56.78.11.95.17.95.84.11,1.4.11,2.97.06,4.48,0,.95-.28,1.18-1.06,1.01-1.96-.39-4.54-.67-6.94-.67-3.36,0-7.62.56-11.26,1.29-.11-1.96-.22-3.98-.22-5.1Z" style="fill: #1c1c1c;"/>
        <path d="M155.07,71.4c.22-2.46.17-3.92-.11-5.43,3.19.34,5.26.73,6.72,1.18.73.22,1.12.56,1.12,1.01,0,.28-.22.67-.39.9-.39.5-.84,1.46-.95,2.07-.28,1.51-.5,2.63-.78,4.59,2.8-.39,7.39-1.23,10.53-2.07.78-.22,1.06-.17,1.18.56.22,1.29.39,2.8.39,4.14,0,.62-.17.78-.67.9-4.82,1.06-7.84,1.68-12.54,2.3-.78,4.65-1.57,8.4-2.58,12.32,4.37-3.81,9.97-5.94,16.07-5.94,7.45,0,12.49,4.82,12.49,10.58,0,4.93-2.07,8.57-6.38,11.31-3.36,2.18-8.18,3.53-14.28,4.48-1.4.22-2.74.39-4.14.39-.56,0-.95-.28-1.4-1.34-.9-1.85-1.74-2.91-3.02-3.98,8.18-.5,11.59-1.23,16.07-3.08,4.31-1.79,6.38-4.37,6.38-7.9,0-2.91-2.13-5.32-6.38-5.32-6.05,0-11.59,2.8-14.73,6.94-.5.73-1.06,1.4-1.57,2.13-.39.67-.56.9-1.06.84-1.23-.11-3.08-.73-4.2-1.23-.9-.39-1.23-.62-1.23-1.12,0-.22.06-.62.22-1.12.28-.95.5-1.79.73-2.63,1.23-4.93,2.02-9.07,2.97-14.67-3.02.22-6.55.5-9.41.5-.62,0-.95-.28-1.06-.78-.17-.67-.56-3.02-.78-4.87,4.37,0,7.84-.17,12.15-.5.28-1.96.5-3.81.67-5.15Z" style="fill: #1c1c1c;"/>
        <path d="M208.6,69.78c.62.34.84.67.84,1.12,0,.39-.17.78-.39,1.23-.39.67-.62,1.46-1.01,3.08-1.85,8.46-2.8,16.3-2.8,20.38,0,2.24,0,4.82.17,7.17,1.12-2.58,2.3-4.98,3.47-7.78.78,1.79,1.23,2.58,1.96,3.53.22.28.34.5.34.78s-.11.56-.34.9c-1.96,4.42-2.63,6.89-2.86,8.51-.22,1.57-.11,2.41-.06,2.97.06.39-.17.56-.67.73-1.06.39-2.69.73-4.2.95-.62.17-.84.11-1.12-.67-1.57-3.98-2.41-10.64-2.41-17.08,0-5.38.45-9.86,2.3-21.22.28-1.96.62-4.37.39-6.61,2.24.56,5.26,1.46,6.38,2.02ZM227.86,84.73c-3.81.11-7.73.22-11.54-.06-.73,0-.95-.17-1.01-.73-.22-1.34-.39-3.36-.39-5.1,4.2.39,8.57.45,12.77.17,0-2.02-.06-3.81-.06-5.88-.06-2.02-.22-3.47-.73-5.49,3.25.28,4.93.5,6.78,1.06.62.17,1.01.45,1.01.95,0,.28-.11.45-.34.95s-.39,1.23-.45,1.96c-.11,1.9-.11,3.36-.11,5.94,2.63-.22,5.54-.62,7.95-1.01.67-.17.78.06.9.67.22,1.01.34,2.8.34,3.98,0,.5-.22.78-.62.84-2.02.5-5.71.95-8.62,1.18,0,6.27.11,10.19.39,15.01,3.3,1.34,6.16,2.91,9.3,5.38.5.34.56.5.28,1.12-.73,1.46-1.62,3.02-2.58,4.31-.17.22-.34.34-.5.34s-.34-.11-.5-.28c-1.74-1.62-3.58-3.02-6.05-4.48-.45,4.7-3.64,7.28-10.25,7.28s-10.02-3.02-10.02-7.84,4.14-7.9,9.8-7.9c1.46,0,3.14.17,4.48.45-.11-4.31-.17-8.4-.22-12.82ZM223.32,102.15c-2.63,0-4.2.95-4.2,2.69s1.23,2.8,4.54,2.8c2.8,0,4.59-1.62,4.59-3.64,0-.39,0-.67-.06-1.12-1.79-.56-3.3-.73-4.87-.73Z" style="fill: #1c1c1c;"/>
        <path d="M266.41,98.34c1.96-.9,3.86-1.79,5.82-2.86-.06.95-.06,2.41,0,3.64q.06,1.85-1.4,2.69c-3.7,1.96-7.84,3.75-12.1,5.38-.9.39-1.46.62-1.74.84-.34.28-.56.39-.9.39-.28,0-.5-.17-.73-.73-.5-1.46-.95-3.25-1.4-5.26,1.68-.28,3.3-.73,5.26-1.34l1.62-.56v-12.15c-3.53,0-4.59.11-4.93.11-.56,0-.62-.06-.62-.62v-4.03c0-.62.06-.67.62-.67.34,0,1.4.11,4.93.11v-9.86h-.34c-3.75,0-4.93.11-5.26.11-.5,0-.56-.06-.56-.62v-4.09c0-.62.06-.67.56-.67.34,0,1.51.11,5.26.11h5.82c3.81,0,4.98-.11,5.26-.11.56,0,.62.06.62.67v4.09c0,.56-.06.62-.62.62-.28,0-1.46-.11-5.21-.11v9.86c3.08,0,4.14-.11,4.48-.11.56,0,.56.06.56.67v4.03c0,.56,0,.62-.56.62-.34,0-1.4-.11-4.48-.11v9.97ZM276.66,113.35c-5.54,0-7.45.11-7.78.11-.56,0-.62-.06-.62-.62v-3.98c0-.56.06-.62.62-.62.34,0,2.24.11,7.78.11h8.51v-5.49h-3.47c-5.15,0-6.89.11-7.22.11-.56,0-.62-.06-.62-.62v-3.86c0-.56.06-.62.62-.62.34,0,2.07.11,7.22.11h3.47v-4.82h-3.64c-5.1,0-6.94.11-7.28.11-.62,0-.67-.06-.67-.56,0-.34.11-2.13.11-6.22v-12.43c0-3.98-.11-5.71-.11-6.1,0-.56.06-.62.67-.62.34,0,2.18.11,7.28.11h13.33c5.15,0,6.94-.11,7.34-.11.56,0,.62.06.62.62,0,.34-.11,2.13-.11,6.1v12.43c0,4.09.11,5.88.11,6.22,0,.5-.06.56-.62.56-.39,0-2.18-.11-7.34-.11h-4.09v4.82h4.26c5.1,0,6.89-.11,7.22-.11.56,0,.62.06.62.62v3.86c0,.56-.06.62-.62.62-.34,0-2.13-.11-7.22-.11h-4.26v5.49h6.44c5.49,0,7.45-.11,7.73-.11.56,0,.62.06.62.62v3.98c0,.56-.06.62-.62.62-.28,0-2.24-.11-7.73-.11h-20.55ZM285.17,77.9v-5.66h-6.22v5.66h6.22ZM285.17,88.48v-5.99h-6.22v5.99h6.22ZM290.77,72.24v5.66h6.61v-5.66h-6.61ZM297.38,82.49h-6.61v5.99h6.61v-5.99Z" style="fill: #1c1c1c;"/>
        <path d="M325.39,69.72c0-2.35-.06-3.53-.34-4.98,1.96.06,3.58.11,5.43.28.5.06.73.22.73.56s-.17.67-.22.9c-.11.34-.28,1.06-.28,3.19v2.46h.73c4.48,0,5.88-.11,6.22-.11.62,0,.67.06.67.62v3.98c0,.56-.06.62-.67.62-.34,0-1.74-.11-6.22-.11h-.11c2.07,3.19,4.98,6.27,7.73,8.12-.78,1.01-1.46,2.07-1.96,3.3-.34.78-.56,1.18-.9,1.18-.28,0-.62-.28-1.12-.84-1.74-1.79-3.3-3.81-4.59-6.22.11,7.06.28,12.15.28,13.22,0,.62-.06.67-.62.67h-4.26c-.56,0-.62-.06-.62-.67,0-1.01.17-5.54.22-12.1-1.57,3.08-3.81,5.88-6.72,8.57-.5.45-.84.67-1.12.67-.39,0-.67-.39-1.12-1.23-.67-1.29-1.57-2.52-2.41-3.3,4.2-2.91,7.67-6.38,10.36-11.37h-1.85c-4.54,0-5.99.11-6.33.11-.56,0-.62-.06-.62-.62v-3.98c0-.56.06-.62.62-.62.34,0,1.79.11,6.33.11h2.74v-2.41ZM315.75,110.32c-.73-.5-.67-.73-.34-1.12,2.13-2.91,3.58-6.05,4.7-9.91.17-.62.28-.56,1.01-.28l3.53,1.34c.73.28.78.39.62,1.01-1.29,4.37-2.86,7.78-5.04,11.14-.17.28-.28.39-.45.39s-.39-.06-.67-.28l-3.36-2.3ZM334.74,107.02c0,1.12.22,1.85.78,2.18.9.5,2.52.62,5.21.62,3.42,0,5.43-.06,6.66-.84.84-.62,1.34-2.46,1.4-5.04,1.12.67,2.63,1.29,4.2,1.62,1.46.28,1.4.45,1.18,1.96-.5,3.64-1.4,5.04-3.08,5.99-2.07,1.18-4.98,1.4-10.86,1.4-5.15,0-8.01-.34-9.35-1.23-1.23-.84-1.9-1.9-1.9-4.76v-6.27c0-1.68-.11-3.08-.34-4.65,1.85,0,4.09.11,5.71.28.73.11,1.01.34,1.01.62,0,.34-.06.5-.22.9-.22.5-.39,1.29-.39,2.52v4.7ZM355.23,67.09c4.37,0,5.82-.11,6.22-.11.56,0,.62.06.62.62,0,.34-.11,2.3-.11,6.55v14.78c0,4.26.11,6.22.11,6.55,0,.62-.06.67-.62.67-.39,0-1.85-.11-6.22-.11h-7.95c-2.74,0-4.26.06-5.15.06,2.02,1.9,3.86,3.98,5.43,6.33.28.45.28.62-.34,1.01l-3.25,2.02c-.34.22-.56.34-.73.34s-.28-.11-.45-.39c-1.46-2.58-3.47-5.32-5.6-7.28-.34-.39-.28-.62.28-.95l2.97-1.74c0-.45.11-2.41.11-6.5v-14.78c0-4.26-.11-6.16-.11-6.55,0-.56.06-.62.67-.62.34,0,1.74.11,6.16.11h7.95ZM345.82,75.49h10.81v-3.81h-10.81v3.81ZM356.63,83.39v-3.75h-10.81v3.75h10.81ZM356.63,87.53h-10.81v3.92h10.81v-3.92ZM358.09,98.34c.67-.28.84-.22,1.18.22,2.35,2.97,4.42,6.16,6.1,10.08.17.45.11.62-.5,1.01l-3.75,2.18c-.34.22-.56.34-.73.34s-.28-.17-.39-.5c-1.51-4.37-3.3-7.28-5.77-10.53-.39-.5-.34-.62.39-1.01l3.47-1.79Z" style="fill: #1c1c1c;"/>
        <path d="M400.93,77.17c-1.29,9.52-3.64,18.26-7,24.14-2.41,4.2-5.32,6.44-9.52,6.44-4.93,0-9.91-5.26-9.91-14.39,0-5.38,2.3-10.53,6.33-14.56,4.7-4.7,10.64-7.17,18.2-7.17,13.44,0,21.34,8.29,21.34,19.43,0,10.42-5.88,16.97-17.25,20.38-1.18.34-1.68.11-2.41-1.01-.62-.95-1.79-2.24-3.92-3.53,9.46-2.24,16.91-6.16,16.91-16.74,0-6.66-5.04-12.99-12.54-12.99h-.22ZM384.86,82.6c-2.69,3.02-4.37,6.78-4.37,10.36,0,5.15,2.07,8.01,3.81,8.01,1.46,0,2.69-.73,4.2-3.42,2.46-4.54,4.98-12.6,5.94-20.05-3.92.78-7.06,2.35-9.58,5.1Z" style="fill: #1c1c1c;"/>
        <path d="M483.14,88.87c-.34,6.27-1.12,10.02-3.3,14.28-2.24,4.37-6.27,8.46-9.86,10.58-.62.39-1.18.67-1.68.67-.39,0-.78-.17-1.18-.56-1.12-1.12-3.02-2.24-4.98-2.97,5.49-2.97,8.79-5.71,11.14-9.97,2.07-3.7,2.63-6.72,2.86-12.04h-10.64c-2.8,0-5.54.17-8.4.34-.5.06-.67-.34-.73-1.06-.28-1.57-.45-3.7-.45-5.38,3.14.28,6.27.28,9.52.28h25.14c4.37,0,7.62-.11,10.92-.34.56,0,.62.34.62,1.12.06.73.06,3.58,0,4.31,0,.73-.34.95-.84.95-2.91-.11-6.78-.22-10.64-.22h-7.5ZM472.05,75.88c-2.58,0-4.82.11-7.95.22-.73,0-.9-.28-.95-.95-.17-1.34-.22-3.36-.39-5.38,3.92.22,6.78.28,9.3.28h10.3c3.14,0,6.66-.06,9.46-.22.56,0,.67.34.67,1.06.11,1.34.11,2.74,0,4.09,0,.78-.11,1.06-.73,1.06-3.02-.11-6.33-.17-9.41-.17h-10.3ZM496.13,66.14c.28-.17.5-.11.78.17,1.62,1.51,3.42,3.98,4.76,6.5.17.34.17.62-.28.9l-2.52,1.51c-.39.22-.67.11-.9-.28-1.46-2.74-3.02-5.04-5.04-7l3.19-1.79ZM501.45,63c.34-.22.5-.11.78.17,1.9,1.79,3.7,4.2,4.76,6.27.17.34.22.67-.28,1.01l-2.35,1.51c-.5.28-.78.06-.95-.28-1.29-2.52-2.86-4.82-4.98-6.94l3.02-1.74Z" style="fill: #1c1c1c;"/>
        <path d="M552.09,80.59c2.74,0,5.88-.06,8.46-.17.67-.06.73.28.78.9.11,1.4.11,3.02,0,4.42-.06.73-.17.95-.95.9-1.9,0-5.32-.06-8.06-.06h-2.3c-.34,8.01-1.57,12.71-4.31,17.25-2.8,4.65-7.34,8.01-13.22,10.42-.78.34-1.23.5-1.57.5s-.62-.17-1.06-.62c-1.68-1.74-2.74-2.52-4.65-3.36,7.95-2.46,12.26-5.32,15.12-9.91,2.18-3.58,3.08-7.45,3.3-14.28h-11.93v2.02c0,3.3,0,6.33.17,9.3.06.62-.34.73-.95.78-1.46.11-3.3.11-4.82,0-.73-.06-1.06-.17-1.01-.78.17-2.91.28-5.66.28-9.18v-2.13h-1.68c-3.02,0-7.5.17-9.24.28-.45,0-.62-.34-.67-1.06-.22-1.18-.28-3.14-.39-5.43,2.35.17,5.99.28,10.3.28h1.68v-4.09c0-3.58-.11-4.98-.67-8.23,2.91.28,5.66.56,6.83.9.62.11.84.39.84.78,0,.34-.17.73-.34,1.18-.39,1.01-.39,1.57-.39,5.38v4.09h12.04l.06-5.49c.06-3.14-.11-5.71-.5-7.67,2.13.22,5.21.56,6.55.95.78.17,1.01.45,1.01.9,0,.22-.06.56-.22,1.01-.39,1.06-.45,2.52-.45,4.93v5.32h1.96ZM554.89,67.03c.28-.11.5-.11.78.22,1.51,1.62,3.14,4.14,4.31,6.78.17.39.11.62-.34.84l-2.3,1.18c-.45.22-.73.11-.95-.34-1.23-2.8-2.63-5.15-4.54-7.28l3.02-1.4ZM560.15,64.63c.34-.17.5-.11.78.22,1.79,1.9,3.42,4.42,4.31,6.55.17.34.17.73-.34.95l-2.24,1.12c-.5.22-.73.06-.9-.28-1.12-2.63-2.58-5.04-4.54-7.28l2.91-1.29Z" style="fill: #1c1c1c;"/>
        <path d="M598.31,101.03c0,3.86.06,7.17.17,11.65.06.73-.22.95-.84.95-1.79.11-3.81.11-5.6,0-.62,0-.84-.22-.78-.9.06-4.03.22-7.67.22-11.48v-13.05c-4.93,4.14-10.92,8.4-15.4,10.75-.28.17-.56.22-.84.22-.45,0-.78-.17-1.18-.56-1.29-1.29-3.14-2.41-4.82-3.3,7.73-3.98,12.49-7.22,17.64-11.48,4.42-3.64,8.46-7.56,11.93-11.7,1.9-2.24,2.63-3.36,3.53-5.77,2.52,1.4,4.98,2.91,6.22,3.92.34.22.45.56.45.84,0,.45-.34.95-.78,1.23-.95.62-1.85,1.46-3.36,3.08-2.18,2.63-4.26,4.82-6.55,7.06v18.54Z" style="fill: #1c1c1c;"/>
        <path d="M626.82,72.24c.22-.28.5-.45.78-.45.22,0,.45.11.73.28,2.86,1.51,7.5,4.93,10.7,7.95.34.34.5.56.5.78s-.11.45-.34.73c-.84,1.12-2.69,3.36-3.47,4.2-.28.28-.45.45-.67.45s-.45-.17-.73-.45c-3.36-3.47-7.39-6.66-11.42-9.13,1.23-1.51,2.86-3.25,3.92-4.37ZM631.69,101.75c6.83-3.53,10.47-5.88,16.13-10.42,6.83-5.54,10.58-9.13,15.34-15.23.34,2.8.84,4.7,1.57,6.55.17.39.28.73.28,1.06,0,.5-.28.95-.9,1.68-2.97,3.47-7.78,7.95-12.88,11.87-4.65,3.64-9.35,6.78-16.91,10.98-2.52,1.51-3.25,2.07-3.75,2.58-.34.34-.67.56-1.01.56-.28,0-.62-.22-.95-.62-1.4-1.57-3.14-3.86-4.48-6.22,2.86-.78,4.59-1.29,7.56-2.8Z" style="fill: #1c1c1c;"/>
        <path d="M688.83,67.76c.67.17,1.01.45,1.01.9,0,.78-.39,1.57-.39,2.35,0,1.12.17,2.46.28,3.75.5,3.92,1.06,6.72,1.79,9.63,2.8-1.51,4.82-2.58,7.95-4.26,1.62-.95,2.97-1.9,3.86-3.02,1.79,1.85,3.25,3.81,4.09,5.26.22.34.39.78.39,1.18,0,.56-.34,1.01-1.12,1.12-1.68.28-3.58.95-5.38,1.68-4.82,1.96-9.3,4.03-13.16,6.55-4.87,3.19-6.61,5.82-6.61,8.46,0,3.3,2.46,4.7,8.9,4.7,7.06,0,12.77-.5,17.08-1.29.62-.11.9,0,1.01.67.28,1.51.45,3.53.56,5.21.06.62-.34.9-1.01.95-5.1.67-9.58.84-16.69.84-10.58,0-16.18-3.47-16.18-10.75,0-6.22,4.09-10.3,10.64-14.45-1.34-4.31-2.35-9.35-2.91-13.66-.39-2.97-.78-4.93-1.46-6.5,2.69,0,5.26.17,7.34.67Z" style="fill: #1c1c1c;"/>
        <path d="M754.94,81.03h-19.54c-3.81,0-6.44.11-8.4.34-.62,0-.84-.28-.84-.95-.17-1.51-.28-4.14-.28-5.99,3.36.34,5.32.39,9.35.39h16.63c2.91,0,5.88-.11,8.85-.22.9,0,1.18.22,1.12.95,0,2.97-.11,5.88-.11,8.85v13.38c0,4.09.17,8.57.22,10.14,0,.56-.22.73-1.01.78-1.57.11-3.36.11-4.93,0-.9-.06-1.06-.11-1.06-.95v-2.24h-19.26c-3.53,0-6.5.17-9.18.22-.5,0-.73-.22-.78-.84-.17-1.46-.28-3.47-.28-5.82,2.63.17,5.88.28,10.3.28h19.21v-18.31Z" style="fill: #1c1c1c;"/>
        <path d="M806.35,72.58c2.02,0,3.02-.06,3.86-.5.22-.17.39-.22.62-.22.34,0,.62.22.95.45,1.29,1.01,2.58,2.46,3.64,3.92.17.28.28.5.28.73,0,.34-.22.73-.73,1.12-.73.62-1.46,1.46-2.07,2.46-2.3,3.92-4.48,7.06-7.17,10.47,5.38,3.98,10.36,8.34,15.51,13.55.28.28.45.56.45.78s-.11.5-.39.84c-1.06,1.29-2.35,2.63-3.75,3.81-.22.22-.45.34-.67.34-.28,0-.5-.17-.78-.45-4.7-5.49-9.52-9.91-14.56-13.89-6.33,6.61-12.71,11.37-18.82,14.78-.5.22-.9.45-1.29.45-.34,0-.67-.17-.95-.5-1.23-1.51-2.86-2.63-4.7-3.64,8.74-4.42,13.94-8.4,19.71-14.28,4.03-4.2,7.11-8.18,10.53-14.06l-14.45.06c-2.91,0-5.82.11-8.85.34-.45.06-.62-.34-.73-.95-.28-1.18-.5-3.86-.5-5.82,3.02.22,5.82.22,9.46.22h15.4Z" style="fill: #1c1c1c;"/>
        <path d="M844.24,85.85c1.51-3.42,2.35-6.27,2.52-8.29,2.86,1.01,5.38,2.02,6.94,2.86.5.22.67.56.67.9,0,.39-.22.78-.56,1.12-.62.62-1.06,1.4-1.96,3.42-3.3,7.45-6.61,13.16-11.98,18.82-.5.56-1.01.84-1.57.84-.45,0-.84-.17-1.29-.56-1.12-.9-2.91-1.79-4.93-2.41,5.88-5.21,9.91-11.59,12.15-16.69ZM865.19,78.23c.28-.22.56-.34.78-.34.28,0,.5.11.84.45,6.1,6.1,10.81,13.38,14.06,20.55.17.28.22.5.22.78,0,.34-.17.62-.56.9-1.06.84-2.86,2.02-4.65,2.97-.73.34-1.12.22-1.34-.5-4.14-9.35-8.29-15.9-13.83-21.78,2.02-1.34,3.53-2.41,4.48-3.02ZM884.06,74.43c0,3.36-2.69,5.99-6.05,5.99s-6.05-2.63-6.05-5.99,2.69-5.99,6.05-5.99,6.05,2.63,6.05,5.99ZM874.7,74.43c0,1.9,1.4,3.3,3.3,3.3s3.3-1.4,3.3-3.3-1.4-3.3-3.3-3.3-3.3,1.4-3.3,3.3Z" style="fill: #1c1c1c;"/>
        <path d="M945.66,103.43c0,.62-.34.9-1.06,1.01-.73.11-2.41.28-3.98.28-.5,0-.73-.34-.73-.9,0-2.02,0-4.82.06-6.83-4.98,2.58-6.78,4.76-6.78,7.45,0,2.35,1.9,3.86,7.78,3.86,5.15,0,9.63-.5,13.94-1.12.5-.06.73.11.78.62.28,1.29.5,3.25.5,4.59.06.67-.17,1.06-.62,1.06-4.82.62-8.46.73-13.89.73-9.18,0-14.06-2.74-14.06-9.24,0-5.38,3.36-9.3,11.82-13.66-.17-2.86-.84-3.98-3.36-3.86-2.63.11-5.15,1.79-7.73,4.03-2.41,2.35-3.81,3.98-5.6,6.1-.28.34-.45.5-.67.5-.17,0-.39-.17-.62-.39-.78-.78-2.46-2.52-3.19-3.7-.17-.22-.22-.39-.22-.5,0-.22.11-.39.39-.62,4.31-3.86,8.46-8.29,11.7-13.89-2.63.11-5.66.17-8.96.17-.5,0-.67-.28-.78-.9-.17-.9-.39-2.97-.56-4.65,4.26.22,8.62.17,12.88-.06.62-1.51,1.12-2.86,1.68-4.82.22-.95.39-1.9.39-3.42,2.46.39,4.93,1.01,6.38,1.57.45.17.67.56.67.95,0,.28-.11.62-.39.84-.34.28-.67.78-.95,1.34-.34.78-.62,1.51-1.29,3.02,3.42-.39,6.83-.95,10.19-1.74.62-.11.78.06.9.56.28,1.12.5,2.41.56,4.03.06.56-.17.78-.95.9-4.2.62-9.02,1.23-13.1,1.68-1.29,2.07-2.52,4.14-4.2,6.22l.06.11c1.79-1.18,4.09-1.74,5.6-1.74,3.7,0,6.27,1.68,6.83,6.05,2.18-1.01,5.38-2.46,8.23-3.92,1.06-.56,2.86-1.57,4.26-3.02,1.85,1.96,3.3,3.92,3.92,4.93.34.5.45.9.45,1.23,0,.45-.28.67-.84.78-1.18.17-2.3.45-3.42.84-3.64,1.29-7.28,2.52-12.04,4.48v9.02Z" style="fill: #1c1c1c;"/>
        <path d="M990.74,87.47c0,10.75.11,12.71.11,13.05,0,.56-.06.62-.62.62h-4.31c-.56,0-.62-.06-.62-.62v-2.97h-5.77v5.54c0,.56-.06.62-.62.62h-4.37c-.56,0-.62-.06-.62-.62,0-.39.11-2.52.11-14v-8.12c0-8.18-.11-10.36-.11-10.75,0-.56.06-.62.62-.62.39,0,1.51.11,5.1.11h5.49c3.64,0,4.76-.11,5.1-.11.56,0,.62.06.62.62,0,.34-.11,2.41-.11,8.85v8.4ZM979.54,75.1v17.02h5.77v-17.02h-5.77ZM1004.24,73.08c0-3.98-.06-5.71-.45-8.46,2.18.06,4.48.17,6.38.39.56.06.9.28.9.56,0,.39-.17.78-.28,1.18-.28.78-.39,2.07-.39,6.16v10.08h4.65c5.26,0,7.06-.11,7.39-.11.56,0,.62.06.62.62v4.76c0,.56-.06.62-.62.62-.34,0-2.13-.11-7.39-.11h-4.65v16.69c0,6.38.11,9.58.11,9.86,0,.56-.06.62-.62.62h-5.1c-.62,0-.67-.06-.67-.62,0-.34.11-3.47.11-9.8v-16.74h-3.47c-5.26,0-7.06.11-7.39.11-.56,0-.62-.06-.62-.62v-4.76c0-.56.06-.62.62-.62.34,0,2.13.11,7.39.11h3.47v-9.91Z" style="fill: #1c1c1c;"/>
        <path d="M1047.32,81.76c4.31-.67,7.45-1.29,9.74-1.79.95-.28,1.51-.45,2.24-.9.5-.28.73-.39,1.23-.39.34,0,.5.11.95.39,1.01.62,2.3,1.68,3.3,2.97.39.39.62.95.62,1.29,0,.5-.34.95-1.01,1.29-.78.39-1.18.78-1.79,1.29-4.14,3.92-6.44,6.27-10.19,10.3.73-.22,1.46-.28,2.02-.28,2.63,0,5.15,1.68,6.1,5.66,1.12,4.59,2.02,5.49,6.16,5.49,3.3,0,5.94-.39,8.68-1.01.62-.11.9.22,1.01.84.22,1.18.39,3.08.39,4.93,0,.56-.28.78-1.01.9-2.46.45-5.54.73-8.23.73-8.23,0-10.92-2.18-12.1-7.73-.9-3.81-1.57-5.38-3.53-5.38-1.46,0-3.19.78-5.26,2.8-2.52,2.58-6.61,7.5-8.51,9.86-.17.22-.45.39-.78.39-.17,0-.39-.06-.62-.22-1.46-1.01-2.91-2.41-3.92-3.42-.17-.17-.28-.39-.28-.56,0-.28.17-.62.45-.9,3.58-3.64,7-7.11,10.58-10.75,2.18-2.24,5.1-5.49,11.09-11.93-4.2,1.12-7.95,2.02-11.65,2.97-1.74.5-2.58.78-3.02,1.01s-.78.34-1.18.34-.67-.28-.95-.95c-.73-1.4-1.4-3.47-2.24-6.27,4.82,0,7.06-.22,11.7-.95ZM1062.95,69.78c.56.11.78.45.62,1.23-.34,1.34-1.01,3.47-1.51,4.59-.17.45-.5.73-.95.62-4.93-.95-11.48-2.91-15.62-4.7-.34-.11-.67-.39-.5-1.01.34-1.29,1.06-3.14,1.9-5.21,5.6,2.07,10.7,3.42,16.07,4.48Z" style="fill: #1c1c1c;"/>
        <path d="M1115.48,74.59c.62-.17.84.11.9.56.17,1.23.34,2.86.39,4.03.06.73-.11.9-.84,1.06-3.47.95-6.33,1.57-9.74,2.13-3.81,12.43-6.66,21-10.25,30.3-.28.78-.62.73-1.23.56-.56-.22-3.3-1.4-4.48-2.07-.45-.28-.62-.73-.45-1.12,4.26-9.8,6.94-17.19,9.69-26.54-3.25.34-7.17.62-9.8.62-.84,0-1.06-.17-1.18-.9-.22-1.18-.5-3.08-.78-5.1,1.18.17,1.85.17,4.14.17,2.8,0,5.82-.17,9.07-.56.56-2.24,1.01-4.7,1.4-7,.22-1.68.34-3.36.34-5.15,2.97.45,5.26.84,7.06,1.57.45.17.62.56.62.9,0,.22,0,.5-.28.9-.45.78-.9,1.34-1.18,2.24-.56,2.02-.95,3.92-1.34,5.32,2.18-.39,5.21-1.12,7.95-1.9ZM1113.29,101.36c.56,0,.78.22.84.78.45,4.09,3.19,5.26,8.57,5.26,3.14,0,7.17-.5,9.41-.78.45-.06.62.06.67.5.22,1.46.45,3.36.45,4.87.06.67,0,.84-.9.9-1.9.28-5.54.62-7.62.62-7.34,0-11.14-1.01-13.66-3.64-1.79-1.79-2.41-4.42-2.52-7.67,1.74-.45,4.03-.84,4.76-.84ZM1112.68,86.52c0-.78.17-.95,1.01-1.12,3.53-.73,7.67-1.29,10.92-1.29,2.18,0,4.59.22,6.55.56.78.11.95.17.95.84.11,1.4.11,2.97.06,4.48,0,.95-.28,1.18-1.06,1.01-1.96-.39-4.54-.67-6.94-.67-3.36,0-7.62.56-11.26,1.29-.11-1.96-.22-3.98-.22-5.1Z" style="fill: #1c1c1c;"/>
        <path d="M1149.95,87.31c-1.01,1.34-2.13,2.69-3.25,3.98-.45.5-.78.73-1.01.73s-.39-.28-.62-.95c-.39-1.79-1.18-3.75-1.85-4.82,4.87-5.21,8.23-11.31,10.58-17.86.45-1.29.73-2.52.9-3.92,2.02.5,3.86.95,5.54,1.68.62.28.84.45.84.84s-.11.67-.56,1.01c-.39.28-.67.78-1.18,2.24-1.06,2.74-2.3,5.49-3.7,8.12v28.39c0,5.49.11,8.23.11,8.51,0,.56-.06.62-.56.62h-4.82c-.5,0-.56-.06-.56-.62,0-.34.11-3.02.11-8.51v-19.43ZM1166.41,113.51c-5.49,0-7.45.11-7.78.11-.56,0-.62-.06-.62-.67v-4.31c0-.56.06-.62.62-.62.34,0,2.3.11,7.78.11h6.83v-11.59h-3.75c-5.21,0-7,.11-7.34.11-.62,0-.67-.06-.67-.62v-4.2c0-.56.06-.62.67-.62.34,0,2.13.11,7.34.11h3.75v-9.69h-5.26c-5.43,0-7.28.11-7.62.11-.56,0-.62-.06-.62-.62v-4.26c0-.62.06-.62.62-.62.34,0,2.18.06,7.62.06h17.53c5.38,0,7.28-.06,7.62-.06.62,0,.67,0,.67.62v4.26c0,.56-.06.62-.67.62-.34,0-2.24-.11-7.62-.11h-6.27v9.69h4.42c5.26,0,7.06-.11,7.39-.11.56,0,.62.06.62.62v4.2c0,.56-.06.62-.62.62-.34,0-2.13-.11-7.39-.11h-4.42v11.59h7.9c5.49,0,7.39-.11,7.73-.11.56,0,.62.06.62.62v4.31c0,.62-.06.67-.62.67-.34,0-2.24-.11-7.73-.11h-20.72ZM1171.29,65.24c.39-.45.67-.45,1.18-.22,3.25,1.34,6.61,3.36,9.74,5.66.28.22.45.34.45.5,0,.11-.17.34-.39.62l-2.63,2.97c-.56.67-.78.67-1.23.34-2.8-2.35-6.44-4.48-9.74-5.99-.28-.17-.39-.28-.39-.45s.11-.34.39-.62l2.63-2.8Z" style="fill: #1c1c1c;"/>
        <path d="M1244.88,91.9c4.82-.56,6.44-.9,7.06-.95.56-.06.62,0,.67.56l.45,4.2c.06.56,0,.67-.56.73-.56.06-2.41.17-7.22.73l-15.9,1.79v8.12c0,1.62.34,2.3,1.57,2.52.95.22,2.97.39,5.99.39,4.59,0,7-.39,8.06-1.34.9-.84,1.4-2.35,1.51-6.22,1.23.62,2.8,1.23,4.42,1.57q1.51.39,1.4,1.9c-.45,3.86-1.68,6.1-3.25,7.28-1.68,1.34-5.54,2.07-11.82,2.07-4.37,0-8.96-.34-10.7-.95-2.18-.84-3.14-3.02-3.14-5.49v-9.24l-11.14,1.23c-4.82.62-6.27.84-7,.95-.56.06-.67,0-.73-.62l-.45-4.26c-.06-.56,0-.62.62-.67.73-.06,2.24-.11,7.06-.67l11.65-1.29v-6.22c-3.42.67-7.06,1.29-10.92,1.79q-1.51.22-2.07-1.4c-.5-1.51-1.23-2.8-2.02-3.75,9.46-.84,19.99-3.02,26.77-5.04,1.62-.45,2.91-1.06,4.14-1.79,1.46,1.06,2.8,2.46,3.7,3.53.34.39.56.62.56,1.12,0,.34-.28.62-.95.67-.62.11-1.4.28-2.24.5-3.47,1.18-7.11,2.18-11.03,3.08v6.89l15.51-1.74ZM1244.26,70.45c5.15,0,7-.11,7.39-.11.56,0,.62.06.62.56,0,.34-.11,1.34-.11,2.97v2.46c0,5.04.11,5.94.11,6.27,0,.56-.06.62-.62.62h-4.65c-.62,0-.67-.06-.67-.62v-6.94h-35.5v7.06c0,.62-.06.67-.62.67h-4.7c-.56,0-.62-.06-.62-.67,0-.34.11-1.18.11-6.27v-2.02c0-2.13-.11-3.14-.11-3.53,0-.5.06-.56.62-.56.39,0,2.24.11,7.39.11h12.32v-.45c0-2.41-.06-3.92-.39-5.32,2.07.06,4.03.17,5.99.34.56,0,.84.22.84.56,0,.39-.17.67-.28,1.06-.22.5-.28,1.18-.28,3.36v.45h13.16Z" style="fill: #1c1c1c;"/>
        <path d="M1292.44,103.43c0,.62-.34.9-1.06,1.01-.73.11-2.41.28-3.98.28-.5,0-.73-.34-.73-.9,0-2.02,0-4.82.06-6.83-4.98,2.58-6.78,4.76-6.78,7.45,0,2.35,1.9,3.86,7.78,3.86,5.15,0,9.63-.5,13.94-1.12.5-.06.73.11.78.62.28,1.29.5,3.25.5,4.59.06.67-.17,1.06-.62,1.06-4.82.62-8.46.73-13.89.73-9.18,0-14.06-2.74-14.06-9.24,0-5.38,3.36-9.3,11.82-13.66-.17-2.86-.84-3.98-3.36-3.86-2.63.11-5.15,1.79-7.73,4.03-2.41,2.35-3.81,3.98-5.6,6.1-.28.34-.45.5-.67.5-.17,0-.39-.17-.62-.39-.78-.78-2.46-2.52-3.19-3.7-.17-.22-.22-.39-.22-.5,0-.22.11-.39.39-.62,4.31-3.86,8.46-8.29,11.7-13.89-2.63.11-5.66.17-8.96.17-.5,0-.67-.28-.78-.9-.17-.9-.39-2.97-.56-4.65,4.26.22,8.62.17,12.88-.06.62-1.51,1.12-2.86,1.68-4.82.22-.95.39-1.9.39-3.42,2.46.39,4.93,1.01,6.38,1.57.45.17.67.56.67.95,0,.28-.11.62-.39.84-.34.28-.67.78-.95,1.34-.34.78-.62,1.51-1.29,3.02,3.42-.39,6.83-.95,10.19-1.74.62-.11.78.06.9.56.28,1.12.5,2.41.56,4.03.06.56-.17.78-.95.9-4.2.62-9.02,1.23-13.1,1.68-1.29,2.07-2.52,4.14-4.2,6.22l.06.11c1.79-1.18,4.09-1.74,5.6-1.74,3.7,0,6.27,1.68,6.83,6.05,2.18-1.01,5.38-2.46,8.23-3.92,1.06-.56,2.86-1.57,4.26-3.02,1.85,1.96,3.3,3.92,3.92,4.93.34.5.45.9.45,1.23,0,.45-.28.67-.84.78-1.18.17-2.3.45-3.42.84-3.64,1.29-7.28,2.52-12.04,4.48v9.02Z" style="fill: #1c1c1c;"/>
        <path d="M1326.45,95.65c.5.28.56.56.28,1.01-.84,1.29-1.46,3.14-1.46,4.26,0,3.53,3.64,5.26,13.27,5.26,5.43,0,10.58-.62,15.18-1.62.78-.17,1.06,0,1.18.5.28,1.06.78,4.09.9,5.49.06.5-.28.73-.95.84-5.21.95-10.36,1.34-16.41,1.34-12.94,0-19.26-4.03-19.26-11.31,0-2.3.84-4.7,2.97-8.01,1.46.73,2.86,1.46,4.31,2.24ZM1339.11,73.7c4.09,0,8.06-.22,11.65-.5.56-.06.78.17.84.62.22,1.29.45,2.86.5,4.76,0,.78-.28,1.12-.95,1.18-5.32.78-9.18,2.63-13.72,5.54-.45.34-.95.5-1.4.5-.39,0-.78-.11-1.18-.34-1.12-.73-2.3-1.34-3.92-1.79,2.91-1.9,5.38-3.47,7.34-4.65-1.23.17-2.97.17-4.09.17-2.3,0-7.11-.34-10.3-.95-.5-.11-.73-.34-.73-1.01,0-1.34.11-2.97.22-4.98,4.26,1.01,9.63,1.46,15.74,1.46ZM1354.34,67.48c.28-.22.5-.17.84.11,1.74,1.34,3.75,3.58,5.32,5.99.22.34.22.62-.17.9l-2.35,1.74c-.39.28-.67.22-.95-.17-1.68-2.58-3.47-4.7-5.66-6.5l2.97-2.07ZM1359.32,63.84c.34-.22.5-.17.84.11,2.07,1.57,4.09,3.81,5.32,5.77.22.34.28.67-.17,1.01l-2.24,1.74c-.45.34-.73.17-.95-.17-1.51-2.41-3.3-4.54-5.6-6.44l2.8-2.02Z" style="fill: #1c1c1c;"/>
        <path d="M1384.32,97.5c0,5.38.17,8.4.17,11.2,0,3.08-.45,4.59-1.79,5.54-1.23.9-2.63,1.18-6.16,1.23q-1.74.06-2.18-1.68c-.34-1.57-.84-3.02-1.34-4.03,1.34.17,2.63.17,4.09.17s1.74-.5,1.74-2.13v-11.03c-.84.28-1.62.56-2.41.78-1.01.34-1.62.67-1.96.95-.28.22-.62.34-.9.34-.34,0-.56-.22-.67-.67-.39-1.51-.73-3.47-.95-5.38,1.62-.22,3.14-.5,5.1-1.06l1.79-.5v-10.47h-.73c-3.81,0-4.93.11-5.26.11-.56,0-.62-.06-.62-.62v-4.09c0-.56.06-.62.62-.62.34,0,1.46.11,5.26.11h.73v-2.97c0-3.58-.06-5.38-.39-7.95,2.07.06,3.75.17,5.71.39.5.06.9.28.9.62,0,.45-.22.78-.39,1.18-.34.67-.34,1.85-.34,5.66v3.08c3.3,0,4.42-.11,4.76-.11.56,0,.62.06.62.62v4.09c0,.56-.06.62-.62.62-.34,0-1.46-.11-4.76-.11v8.68c1.57-.62,3.19-1.23,4.82-2.02-.11,1.12-.17,2.35-.22,3.64,0,1.85-.06,1.74-1.68,2.46l-2.91,1.29v2.69ZM1398.32,93.41c-5.32,0-7.22.11-7.56.11-.56,0-.62-.06-.62-.56v-3.81c0-.62.06-.67.62-.67.34,0,2.24.11,7.56.11h16.46c5.38,0,7.22-.11,7.56-.11.62,0,.67.06.67.67v3.81c0,.5-.06.56-.67.56-.34,0-2.18-.11-7.56-.11h-6.05v5.32h4.98c3.92,0,5.32-.11,5.71-.11.56,0,.62.06.62.62v3.64c0,.56-.06.62-.62.62-.39,0-1.79-.11-5.71-.11h-4.98v5.88c2.35.39,5.04.5,8.12.56,2.58,0,4.93-.06,7.5-.22-.45.95-.78,2.18-1.01,3.58-.22,1.85-.45,1.9-2.07,1.9h-3.81c-10.47-.17-17.25-1.9-21.62-8.06-1.29,2.74-2.97,5.21-5.32,7.62-.5.5-.84.78-1.12.78-.39,0-.73-.34-1.29-1.01-.9-1.12-1.96-2.02-2.91-2.58,5.1-3.86,7-8.74,8.12-13.55.28-1.23.39-2.24.45-3.19,1.79.39,3.02.67,4.59,1.12.73.22,1.06.39,1.06.84,0,.39-.17.62-.45.95-.22.28-.34.67-.56,1.46-.28.95-.5,1.9-.78,2.8,1.46,2.52,3.3,4.26,5.6,5.38v-14.22h-4.93ZM1411.36,66.47c4.87,0,6.5-.11,6.83-.11.56,0,.62.06.62.67,0,.34-.11,1.74-.11,5.1v7.78c0,3.3.11,4.76.11,5.1,0,.56-.06.62-.62.62-.34,0-1.96-.11-6.83-.11h-10.92c-4.93,0-6.55.11-6.89.11-.56,0-.62-.06-.62-.62,0-.39.11-1.79.11-5.1v-7.78c0-3.36-.11-4.76-.11-5.1,0-.62.06-.67.62-.67.34,0,1.96.11,6.89.11h10.92ZM1398.48,70.79v3.25h14.73v-3.25h-14.73ZM1413.21,78.01h-14.73v3.3h14.73v-3.3Z" style="fill: #1c1c1c;"/>
        <path d="M1472.59,82.21c-1.51,2.18-3.25,3.98-5.21,5.49,4.37,1.18,8.79,2.52,13.5,4.14.28.11.45.22.45.39,0,.11-.11.34-.34.62l-2.24,2.97c-.45.67-.62.67-1.18.45-5.04-2.02-10.08-3.92-15.29-5.49-1.85.9-3.81,1.62-5.99,2.18,1.79.06,3.36.22,5.1.39.56.06.84.34.84.62,0,.56-.28,1.01-.34,1.46-.11.56-.22,1.23-.22,2.18h14.5c4.98,0,6.72-.11,7.06-.11.62,0,.67.06.67.62v3.64c0,.56-.06.62-.67.62-.34,0-2.07-.11-7.06-.11h-10.58c4.82,3.42,10.53,5.54,19.6,7.56-.9,1.01-1.74,2.3-2.35,3.75-.67,1.62-.78,1.57-2.46,1.12-8.06-2.46-14.06-5.6-18.82-10.3.06,5.66.22,9.69.22,10.81,0,.56-.06.62-.62.62h-4.59c-.56,0-.62-.06-.62-.62,0-1.12.22-4.93.28-10.7-5.1,4.65-11.37,8.06-18.26,10.25-.62.17-1.01.28-1.29.28-.5,0-.73-.34-1.23-1.29-.67-1.29-1.4-2.46-2.35-3.42,8.06-2.18,14.11-4.48,18.87-8.06h-9.63c-4.98,0-6.72.11-7.06.11-.62,0-.67-.06-.67-.62v-3.64c0-.56.06-.62.67-.62.34,0,2.07.11,7.06.11h13.78c-.06-1.29-.11-2.69-.39-4.48-4.42,1.12-9.52,1.79-15.46,2.18-1.4.11-1.57.06-2.02-1.18-.56-1.51-1.18-2.46-1.85-3.3,8.23-.28,14.06-.95,18.48-2.07-1.68-.39-3.47-.78-5.26-1.12-.39.39-.78.73-1.12,1.01-.39.39-.5.39-1.4.11l-3.19-1.01c-.78-.22-.73-.62-.34-.95.95-.84,2.02-1.96,2.97-2.91l1.51-1.68h-4.87c-5.1,0-6.83.11-7.17.11-.62,0-.67-.06-.67-.56v-3.42c0-.56.06-.62.67-.62.34,0,2.07.11,7.17.11h8.23l.28-.45c.78-1.18,1.46-2.46,2.02-3.81,2.02.28,3.75.62,5.43,1.01.39.11.67.34.67.73,0,.28-.34.56-.73.78-.34.17-.9.73-1.57,1.74h18.2c5.1,0,6.83-.11,7.17-.11.56,0,.62.06.62.62v3.42c0,.5-.06.56-.62.56-.34,0-2.07-.11-7.17-.11h-3.14ZM1442.13,75.83c0,.5-.06.56-.62.56h-4.48c-.62,0-.67-.06-.67-.56,0-.39.11-.78.11-4.26v-.9c0-.9-.11-1.4-.11-1.74,0-.56.06-.62.67-.62.34,0,2.24.11,7.56.11h11.37c0-1.4-.11-2.74-.39-4.03,2.02,0,4.03.11,5.99.28.5.06.84.28.84.56,0,.39-.17.73-.34,1.12-.17.39-.22,1.06-.22,2.07h12.15c5.26,0,7.17-.11,7.56-.11.56,0,.62.06.62.62,0,.34-.11.84-.11,1.57v1.06c0,3.47.11,3.92.11,4.26,0,.5-.06.56-.62.56h-4.54c-.56,0-.62-.06-.62-.56v-2.91h-34.27v2.91ZM1454.39,82.21c-.62.84-1.23,1.62-1.85,2.3,3.02.5,5.99,1.12,8.9,1.74,1.96-1.12,3.53-2.46,4.98-4.03h-12.04Z" style="fill: #1c1c1c;"/>
        <path d="M1507.16,68.32c.95.22,1.34.5,1.34,1.06,0,.62-.34,1.29-.56,1.85-.28.78-.5,2.52-.78,6.83-.56,8.62-.84,14.34-.84,21.67,0,5.66.67,6.94,5.15,6.94,4.98,0,12.77-3.02,19.6-10.3.22,2.13.73,3.98,1.29,5.32.28.62.45,1.01.45,1.34,0,.5-.22.95-1.12,1.74-6.05,5.54-13.94,8.4-21.22,8.4s-10.53-2.86-10.53-11.42c0-9.41.5-17.47.78-24.19.11-3.3.28-6.89-.56-10.25,2.58.28,5.26.56,7,1.01Z" style="fill: #1c1c1c;"/>
        <path d="M1564.14,92.51c-3.86.11-7.67.11-11.54-.22-.62,0-.84-.22-.9-.95-.22-1.23-.34-3.47-.34-4.76,4.14.5,8.4.62,12.6.45-.06-2.13-.06-4.31-.11-6.44-5.38.17-9.41.17-13.38-.28-.62,0-.9-.22-.95-.78-.17-1.4-.28-2.74-.39-5.04,4.87.56,9.74.56,14.67.56,0-2.07-.06-3.53-.11-5.43-.11-1.29-.22-2.3-.67-3.75,2.97.17,5.38.5,7.06,1.01.67.22,1.01,1.01.62,1.68-.39.78-.78,1.74-.84,2.69-.06,1.12-.06,1.9-.11,3.58,5.21-.39,8.96-1.01,12.26-1.68.67-.17.9,0,.95.67.22,1.57.28,3.08.28,4.09,0,.73-.17.84-.62.9-3.98.67-7.56,1.12-12.94,1.46,0,2.24.06,4.31.06,6.33,4.26-.28,6.94-.84,10.98-1.46.67-.17.84-.06.9.45.06,1.06.17,2.91.17,4.59,0,.56-.22.73-.84.78-3.7.62-6.27,1.01-10.98,1.34.11,2.58.22,5.32.39,7.9,5.38,1.51,9.97,3.53,14.84,6.78.56.5.56.67.39,1.34-.39,1.06-1.57,3.14-2.46,4.14-.22.34-.45.45-.73.45-.17,0-.39-.06-.62-.28-3.42-2.69-6.89-4.65-11.14-6.38-.06,6.05-3.7,8.51-11.37,8.51s-11.42-3.19-11.42-7.84,4.42-7.95,11.2-7.95c1.4,0,2.74,0,5.38.22-.11-2.46-.22-4.76-.28-6.66ZM1559.33,103.83c-4.09,0-6.05,1.18-6.05,2.97,0,1.46,1.68,2.52,5.54,2.52,2.24,0,4.31-.67,5.1-1.68.45-.62.62-1.57.62-3.14-1.62-.39-3.64-.67-5.21-.67Z" style="fill: #1c1c1c;"/>
        <path d="M1621.55,70.17c-.11-1.62-.22-2.41-.67-4.09,2.52.17,5.21.5,6.55.78.95.17,1.57.56,1.57,1.06,0,.45-.17.73-.5,1.29-.17.34-.34.9-.45,1.62-.06.73-.06,1.46-.11,3.58,6.05-.22,11.82-.28,17.19-.28.67,0,.78.11.84.84.06,1.4.06,2.86,0,4.26,0,.62-.28.78-.95.73-5.82-.17-11.26-.17-17.08-.11,0,3.42,0,7,.06,10.42.56,1.51.84,3.7.84,5.54,0,6.5-2.63,13.27-9.97,18.09-.95.62-1.68,1.06-2.18,1.06s-1.12-.39-1.68-.84c-1.29-1.06-2.8-1.79-4.26-2.24,6.55-2.91,10.47-7.62,11.48-12.32-1.12,1.62-3.42,2.24-5.26,2.24-4.42,0-7.78-3.19-7.78-8.57s3.92-8.4,8.46-8.4c1.68,0,3.36.34,4.26,1.12,0-1.96-.06-3.86-.06-5.71-7.06.39-14.95,1.06-19.38,1.68-1.23.17-2.13.67-2.63.67-.56,0-.78-.22-.95-.78-.45-1.12-.95-3.36-1.4-5.66,2.07.22,3.86,0,6.83-.22,3.42-.28,10.64-.73,17.36-1.12-.06-1.74-.06-3.14-.11-4.65ZM1614.38,92.85c0,2.46,1.57,3.81,3.58,3.81s3.81-1.29,3.81-3.86c0-2.3-1.46-3.58-3.7-3.58-1.74,0-3.7,1.18-3.7,3.64Z" style="fill: #1c1c1c;"/>
        <path d="M1673.35,108.98c0,4.48-3.64,8.06-8.12,8.06s-8.12-3.58-8.12-8.06,3.64-8.06,8.12-8.06,8.12,3.58,8.12,8.06ZM1660.58,108.98c0,2.63,2.02,4.65,4.65,4.65s4.65-2.02,4.65-4.65-2.02-4.65-4.65-4.65-4.65,2.02-4.65,4.65Z" style="fill: #1c1c1c;"/>
        <polygon points="904.1 137.67 904.1 46.81 671.44 7 438.77 46.81 438.77 137.67 904.1 137.67" style="fill: none; stroke: #c91933; stroke-miterlimit: 10; stroke-width: 3px;"/>
      </g>
      <rect width="1700" height="143.71" style="fill: none;"/>
    </g>
  </g>
</svg>