<?xml version="1.0" encoding="utf-8"?>
<svg xmlns="http://www.w3.org/2000/svg" version="1.1" viewBox="0 0 413.22 379.12">
  <defs>
    <style>
      .line, .speech-e, .speech-q {
      fill: none;
      stroke: #c9002e;
      stroke-miterlimit: 10;
      stroke-width: 3px;
      }
      .speech-e, .speech-q {
      opacity: 0;
      transform: translate(0, 10px);
      animation: anime 0.5s forwards;
      }
      .speech-q {
      animation-delay: 1s;
      }
      .speech-e {
      animation-delay: 2s;
      }
      @keyframes anime {
      100% {
      opacity: 1;
      transform: translate(0, 0);
      }
      }
    </style>
  </defs>
  <g class="line">
      <circle cx="142.75" cy="294.9" r="27.69" />
      <circle cx="323.8" cy="196.68" r="27.69" />
      <circle cx="49.79" cy="307.44" r="22.66" transform="translate(-113.86 42.46) rotate(-22.5)" />
      <path d="M16.03,363.86c0-18.65,15.12-33.76,33.76-33.76s33.76,15.12,33.76,33.76" />
      <path d="M281.48,267.63v-.86c0-22.79,18.48-41.27,41.27-41.27s41.27,18.48,41.27,41.27" />
      <path
      d="M101.48,363.86c0-22.79,18.48-41.27,41.27-41.27s41.27,18.48,41.27,41.27h139.65l73.52-68.96" />
      <line x1="196.17" y1="284.44" x2="338.15" y2="284.44" />
  </g>
  <g class="speech-q">
      <polyline
      points="57.4 218.75 19.07 218.74 19.07 109.61 181.78 109.61 181.78 218.75 94.28 218.75 58.68 248.8" />
      <path
      d="M82.34,146.27c0-9.98,8.09-18.08,18.08-18.08s18.08,8.09,18.08,18.08-8.09,18.08-18.08,18.08v17.15" />
      <path
      d="M105.61,194.98c0,2.86-2.32,5.18-5.18,5.18s-5.18-2.32-5.18-5.18,2.32-5.18,5.18-5.18,5.18,2.32,5.18,5.18Z" />
  </g>
  <g class="speech-e">
      <polyline points="210.86 124.4 244.05 124.4 277.26 153.96" />
      <polyline points="284.41 124.4 322.75 124.4 322.75 15.26 160.03 15.26 160.03 85.93" />
      <line x1="241.39" y1="35.85" x2="241.39" y2="83.24" />
      <path
          d="M246.57,96.71c0,2.86-2.32,5.18-5.18,5.18s-5.18-2.32-5.18-5.18,2.32-5.18,5.18-5.18,5.18,2.32,5.18,5.18Z" />
  </g>
</svg>