<?xml version="1.0" encoding="UTF-8"?>
<svg id="_レイヤー_2" data-name="レイヤー 2" xmlns="http://www.w3.org/2000/svg" viewBox="0 0 422.24 292.85">
  <g id="_レイヤー_1-2" data-name="レイヤー 1">
    <g>
      <circle cx="275.32" cy="199.44" r="24.23" style="fill: #fff; stroke: #b91f3a; stroke-miterlimit: 10; stroke-width: 3px;"/>
      <path d="M239.22,259.77c0-19.94,16.16-36.1,36.1-36.1s36.1,16.16,36.1,36.1" style="fill: #fff; stroke: #b91f3a; stroke-miterlimit: 10; stroke-width: 3px;"/>
      <circle cx="209.68" cy="210.42" r="19.82" style="fill: #fff; stroke: #b91f3a; stroke-miterlimit: 10; stroke-width: 3px;"/>
      <path d="M180.15,259.77c0-16.31,13.22-29.54,29.54-29.54s29.54,13.22,29.54,29.54" style="fill: #fff; stroke: #b91f3a; stroke-miterlimit: 10; stroke-width: 3px;"/>
      <circle cx="340.96" cy="210.42" r="19.82" style="fill: #fff; stroke: #b91f3a; stroke-miterlimit: 10; stroke-width: 3px;"/>
      <path d="M311.42,259.77c0-16.31,13.22-29.54,29.54-29.54s29.54,13.22,29.54,29.54" style="fill: #fff; stroke: #b91f3a; stroke-miterlimit: 10; stroke-width: 3px;"/>
      <rect x="213.19" y="50.86" width="213.96" height="19.5" transform="translate(50.34 -122.07) rotate(23.38)" style="fill: none;"/>
      <rect x="-1.04" y="57.63" width="226.12" height="19.5" transform="translate(-18.14 55.29) rotate(-25.72)" style="fill: none;"/>
      <polygon points="413.96 291.35 413.96 111.77 218.11 27.1 14 125.42 15.54 291.35 413.96 291.35" style="fill: none; stroke: #b91f3a; stroke-miterlimit: 10; stroke-width: 3px;"/>
      <g>
        <path d="M236.6,4.62c-.1-.41-.31-.82-.62-1.22-.31-.4-.71-.71-1.2-.92-.43-.18-.85-.26-1.28-.24-.43.02-.73.24-.91.65-.18.41-.11.79.21,1.12s.81.76,1.48,1.25c.36.26.71.55,1.05.87.34.32.62.67.85,1.06.23.39.36.8.41,1.25.05.45-.04.93-.26,1.44-.28.65-.64,1.14-1.07,1.48-.44.34-.92.57-1.44.67-.53.1-1.08.1-1.67,0s-1.17-.28-1.75-.53c-.82-.36-1.56-.85-2.21-1.49-.65-.64-1.11-1.35-1.38-2.13l2.44-.88c.13.51.38.99.74,1.44.36.45.83.8,1.4,1.05.19.08.39.14.61.19.22.04.43.05.64.03.21-.02.4-.09.57-.21.17-.12.31-.29.41-.53.19-.44.12-.84-.2-1.21-.32-.37-.85-.82-1.57-1.36-.36-.26-.69-.54-1.01-.84-.31-.3-.57-.63-.76-.98-.2-.35-.31-.74-.34-1.15-.03-.41.06-.87.28-1.37.25-.59.59-1.04,1.02-1.36.43-.32.9-.53,1.41-.63.51-.1,1.05-.11,1.6-.03.56.08,1.1.24,1.63.47.76.33,1.45.78,2.07,1.36.61.58,1.01,1.23,1.21,1.96l-2.38.78Z"/>
        <path d="M250.11,13.54c-.05.12-.1.24-.15.35-.05.12-.11.23-.17.34l-8.04-3.47c-.14.39-.19.79-.15,1.17.03.39.14.76.32,1.11s.42.66.71.95c.29.29.63.51,1.02.67.66.29,1.27.41,1.83.36s1.08-.22,1.56-.52l1.15,2.17c-1.65.96-3.47,1.01-5.45.15-.82-.36-1.52-.81-2.1-1.37-.58-.56-1.02-1.18-1.32-1.87-.3-.69-.45-1.44-.44-2.24,0-.81.2-1.64.57-2.51.37-.85.84-1.56,1.43-2.14.59-.57,1.24-1,1.95-1.28.71-.28,1.47-.4,2.27-.38.8.02,1.6.21,2.39.55.73.32,1.36.73,1.88,1.24s.9,1.11,1.15,1.78c.25.67.35,1.42.3,2.25-.05.82-.28,1.71-.69,2.67ZM247.98,11.21c.15-.34.24-.68.28-1.03.04-.35,0-.69-.1-1.01-.1-.32-.28-.62-.54-.9-.25-.28-.6-.51-1.02-.69-.79-.34-1.57-.39-2.33-.15-.76.24-1.33.72-1.71,1.45l5.42,2.34Z"/>
        <path d="M263.28,19.23c-.05.12-.1.23-.15.35s-.11.23-.17.34l-8.04-3.47c-.14.4-.19.79-.15,1.18.03.39.14.76.32,1.11.18.35.42.66.71.95s.63.51,1.02.67c.66.29,1.27.41,1.83.36.56-.05,1.08-.22,1.56-.52l1.15,2.17c-1.65.96-3.47,1.01-5.45.16-.82-.36-1.52-.81-2.1-1.37s-1.02-1.18-1.32-1.87c-.3-.69-.45-1.44-.44-2.24s.2-1.64.57-2.51c.37-.85.85-1.57,1.43-2.14s1.24-1,1.95-1.28c.71-.28,1.47-.4,2.27-.38.8.02,1.6.21,2.39.55.73.32,1.36.73,1.88,1.24.52.51.9,1.11,1.15,1.78.25.67.35,1.42.3,2.25-.05.82-.28,1.71-.69,2.67ZM261.15,16.9c.15-.34.24-.68.28-1.03.04-.35,0-.69-.1-1.01-.1-.32-.28-.62-.54-.9-.26-.28-.6-.51-1.02-.69-.79-.34-1.57-.39-2.33-.15-.76.24-1.33.72-1.71,1.44l5.42,2.34Z"/>
        <path d="M268.64,15.12l2.64,1.14-4.57,10.58-2.64-1.14,4.57-10.58ZM269.82,11.36c.18-.43.5-.73.95-.91.45-.18.92-.16,1.41.04.49.21.83.54,1.03.98s.2.89,0,1.35c-.2.46-.53.76-.99.92-.46.16-.93.13-1.42-.08-.49-.21-.82-.54-1-.99-.18-.45-.18-.89,0-1.32Z"/>
        <path d="M274.97,17.85l2.51,1.08-.73,1.7.04.02c.46-.43,1.07-.72,1.83-.87.75-.15,1.53-.06,2.32.28.69.3,1.23.67,1.62,1.13.39.45.65.95.8,1.48.15.53.18,1.09.1,1.67-.08.58-.23,1.14-.46,1.68l-2.85,6.61-2.64-1.14,2.53-5.86c.13-.31.25-.64.35-1,.1-.36.14-.7.11-1.04-.03-.33-.13-.65-.32-.93-.18-.29-.48-.52-.91-.71-.43-.18-.83-.26-1.21-.22-.38.04-.73.14-1.04.32s-.6.42-.85.72c-.25.3-.45.63-.61.98l-2.51,5.82-2.64-1.14,4.57-10.58Z"/>
        <path d="M299.05,28.25l-4.16,9.63c-.41.95-.9,1.77-1.47,2.44-.57.67-1.21,1.17-1.94,1.49-.72.32-1.52.47-2.4.44-.88-.03-1.83-.27-2.86-.71-.43-.18-.86-.42-1.31-.7s-.87-.59-1.27-.94c-.4-.35-.76-.72-1.09-1.13s-.61-.82-.82-1.24l2.41-1.39c.3.71.72,1.33,1.26,1.86.54.54,1.13.95,1.79,1.23.63.27,1.2.41,1.72.41.51,0,.97-.1,1.36-.32.4-.21.75-.52,1.05-.91.3-.39.57-.86.79-1.39l.33-.77-.04-.02c-.61.35-1.27.54-1.98.56-.71.02-1.44-.13-2.17-.45-.79-.34-1.45-.8-1.97-1.37s-.9-1.21-1.13-1.9c-.23-.69-.33-1.43-.29-2.2.04-.78.22-1.54.54-2.29.33-.76.76-1.43,1.3-2,.53-.57,1.13-1.01,1.8-1.32.66-.31,1.38-.47,2.14-.49.77-.02,1.54.14,2.34.49.75.32,1.38.78,1.89,1.37.51.59.82,1.29.92,2.1l.04.02.69-1.59,2.51,1.08ZM292.61,27.66c-.48-.21-.95-.31-1.4-.29-.45.01-.87.12-1.26.3-.39.19-.74.46-1.05.81-.32.35-.58.76-.78,1.23-.18.42-.29.86-.32,1.32-.03.46.01.9.13,1.32.12.43.33.81.62,1.17.29.35.67.63,1.14.83.49.21.96.31,1.43.29.47-.02.9-.12,1.31-.31.41-.19.77-.45,1.09-.79.32-.34.58-.73.77-1.17.2-.45.31-.92.34-1.39.03-.47-.02-.92-.16-1.35-.14-.42-.36-.81-.67-1.15-.31-.34-.7-.62-1.19-.82Z"/>
        <path d="M307.25,31.78l2.93,1.27-.37,8.96.04.02,5.94-6.56,2.75,1.19-10.55,10.69c-.4.4-.79.74-1.17,1.02-.38.28-.78.48-1.2.6-.42.12-.87.16-1.34.11s-1.01-.2-1.59-.45c-.22-.09-.44-.2-.66-.32-.22-.12-.43-.26-.64-.42l1.21-2.2c.15.13.31.25.47.35.16.09.31.17.46.24.28.12.53.19.75.21.22.02.42-.02.62-.1.19-.08.38-.2.58-.37.19-.16.41-.36.64-.58l1.11-1.12.03-12.54Z"/>
        <path d="M317.49,42.43c.36-.84.84-1.53,1.44-2.09.6-.55,1.26-.96,1.98-1.22.72-.26,1.5-.37,2.31-.33.82.04,1.62.23,2.42.57.79.34,1.49.8,2.08,1.37.59.57,1.04,1.21,1.34,1.91.3.71.46,1.47.47,2.28,0,.81-.17,1.64-.53,2.48-.36.84-.84,1.54-1.44,2.1-.6.56-1.26.98-1.99,1.25s-1.5.39-2.33.37-1.63-.21-2.43-.55c-.79-.34-1.48-.81-2.07-1.39-.59-.58-1.03-1.23-1.33-1.95s-.45-1.48-.46-2.3.18-1.65.54-2.49ZM320.17,43.59c-.18.41-.29.85-.35,1.31-.05.47-.02.91.09,1.34.11.43.31.83.61,1.2.29.37.7.67,1.23.9.53.23,1.03.32,1.5.28.47-.04.9-.17,1.29-.38.39-.21.74-.5,1.04-.86.3-.36.54-.74.72-1.15.18-.41.29-.85.34-1.3s.02-.9-.09-1.33c-.11-.43-.31-.83-.61-1.19-.3-.36-.71-.66-1.24-.89-.53-.23-1.03-.33-1.49-.29-.47.03-.9.16-1.29.37-.39.22-.73.5-1.03.85-.3.35-.54.73-.71,1.14Z"/>
        <path d="M339.37,58.21l-2.51-1.08.73-1.7-.04-.02c-.46.43-1.07.72-1.83.87-.75.15-1.53.06-2.32-.28-.69-.3-1.23-.67-1.62-1.13-.39-.46-.65-.95-.8-1.48s-.18-1.09-.1-1.67c.07-.58.23-1.14.46-1.68l2.85-6.61,2.64,1.14-2.53,5.86c-.13.31-.25.64-.35,1-.1.36-.14.7-.11,1.04.03.33.13.65.32.93.18.29.48.52.91.71.41.18.81.25,1.2.22.39-.03.74-.14,1.05-.32.31-.18.59-.42.85-.72s.45-.63.61-.98l2.51-5.82,2.64,1.14-4.57,10.58Z"/>
        <path d="M358.3,57.18c-.1-.41-.31-.82-.62-1.22-.31-.41-.71-.71-1.2-.92-.43-.18-.85-.26-1.28-.24-.43.02-.73.24-.91.65-.18.41-.11.79.21,1.12.32.34.81.76,1.48,1.25.36.26.71.55,1.05.87.34.32.62.67.85,1.06.23.39.36.8.41,1.25.05.45-.04.93-.26,1.44-.28.65-.64,1.14-1.07,1.48-.44.34-.92.57-1.44.67-.53.1-1.08.1-1.67,0s-1.17-.28-1.74-.53c-.82-.36-1.56-.85-2.21-1.49-.65-.64-1.11-1.35-1.38-2.13l2.45-.88c.13.51.37.99.74,1.44.36.45.83.8,1.4,1.05.19.08.39.14.61.19.22.04.43.05.64.03.21-.02.4-.09.57-.21.17-.12.31-.29.41-.53.19-.44.12-.84-.2-1.21-.32-.37-.85-.82-1.57-1.36-.36-.26-.7-.54-1.01-.84s-.57-.63-.76-.98c-.2-.35-.31-.74-.34-1.15s.06-.87.28-1.37c.25-.59.59-1.04,1.02-1.36.43-.32.9-.53,1.41-.63.51-.1,1.05-.11,1.61-.03.56.08,1.1.24,1.63.47.76.33,1.45.78,2.07,1.36.61.58,1.01,1.23,1.21,1.96l-2.38.78Z"/>
        <path d="M361.18,61.3c.36-.84.84-1.53,1.44-2.09.6-.55,1.26-.96,1.98-1.22s1.5-.37,2.31-.33c.82.04,1.63.23,2.42.57.79.34,1.48.8,2.08,1.37.59.57,1.04,1.21,1.34,1.91.31.71.46,1.47.47,2.28,0,.81-.17,1.64-.53,2.48-.36.84-.84,1.54-1.44,2.1-.6.56-1.26.98-1.99,1.25-.73.27-1.5.39-2.33.37s-1.63-.21-2.43-.55c-.79-.34-1.48-.81-2.07-1.39-.58-.58-1.03-1.23-1.33-1.95-.3-.71-.45-1.48-.46-2.3,0-.82.18-1.65.54-2.49ZM363.87,62.46c-.18.41-.29.85-.34,1.31-.05.47-.02.91.08,1.34.11.43.31.83.61,1.2s.71.67,1.23.9c.53.23,1.03.32,1.5.28.47-.04.9-.17,1.29-.38.39-.21.74-.5,1.04-.86.3-.36.54-.74.72-1.15.18-.41.29-.85.34-1.3.05-.46.02-.9-.09-1.33-.11-.43-.31-.83-.61-1.19s-.71-.66-1.24-.89c-.53-.23-1.03-.33-1.49-.29-.47.03-.9.16-1.29.37s-.73.5-1.03.85c-.3.35-.54.73-.72,1.14Z"/>
        <path d="M375.09,67.3c.36-.84.84-1.53,1.44-2.09.6-.55,1.26-.96,1.98-1.22.72-.26,1.5-.37,2.31-.33s1.62.23,2.42.57c.79.34,1.49.8,2.08,1.37.59.57,1.04,1.21,1.34,1.91.3.71.46,1.47.47,2.28,0,.81-.17,1.64-.53,2.48-.36.84-.84,1.54-1.44,2.1s-1.26.98-1.99,1.25-1.5.39-2.33.37c-.83-.03-1.63-.21-2.43-.55-.79-.34-1.48-.81-2.07-1.39-.59-.58-1.03-1.23-1.33-1.95-.3-.71-.45-1.48-.46-2.3,0-.82.18-1.65.54-2.49ZM377.78,68.46c-.18.41-.29.85-.35,1.31-.05.47-.02.91.09,1.34.11.43.31.83.61,1.2.29.37.7.67,1.23.9.53.23,1.03.32,1.5.28.47-.04.9-.17,1.29-.38.39-.21.73-.5,1.04-.86.3-.36.54-.74.72-1.15.18-.41.29-.84.34-1.3.05-.46.02-.9-.09-1.33s-.31-.83-.61-1.19c-.3-.36-.71-.66-1.24-.89-.53-.23-1.03-.33-1.49-.29-.47.03-.9.16-1.29.37-.39.22-.73.5-1.03.85-.3.35-.54.73-.71,1.14Z"/>
        <path d="M391.88,68.33l2.51,1.08-.73,1.7.04.02c.46-.43,1.07-.72,1.83-.87.75-.15,1.53-.06,2.32.28.69.3,1.23.67,1.62,1.13.39.45.65.95.8,1.48.14.53.18,1.09.1,1.67-.08.58-.23,1.14-.46,1.68l-2.85,6.61-2.64-1.14,2.53-5.86c.13-.31.25-.64.35-1s.14-.7.11-1.04c-.03-.33-.13-.65-.32-.93-.18-.29-.48-.52-.91-.71-.43-.18-.83-.26-1.21-.22-.38.04-.73.14-1.04.32-.31.18-.6.42-.85.72-.25.3-.45.63-.61.98l-2.51,5.82-2.64-1.14,4.57-10.58Z"/>
        <path d="M401.35,83.14c.2-.47.55-.8,1.04-.99.49-.19.98-.18,1.46.03.47.2.81.54,1.02,1.02.21.48.22.95.01,1.42-.2.47-.55.8-1.04.99-.49.19-.98.18-1.46-.03-.24-.1-.44-.24-.62-.42-.18-.18-.31-.38-.41-.6-.1-.22-.15-.45-.16-.7,0-.25.04-.49.14-.72ZM405.88,81.12l-2.64-1.14,4.62-10.71,2.64,1.14-4.62,10.71Z"/>
      </g>
      <g>
        <path d="M0,91.7l2.98-1.44,8.38,9.81.04-.02-2.04-12.87,2.81-1.35,8.73,9.65.04-.02-2.39-12.7,2.9-1.4,2.9,17.46-2.64,1.27-9.12-9.75-.04.02,1.95,13.21-2.64,1.27L0,91.7Z"/>
        <path d="M37.71,86.15c.06.12.11.23.17.35.05.12.1.23.14.36l-7.89,3.8c.21.36.47.66.79.89.32.23.66.39,1.04.48.38.09.78.12,1.18.08.41-.04.8-.15,1.17-.33.65-.31,1.14-.7,1.47-1.15s.54-.96.63-1.51l2.4.55c-.36,1.88-1.51,3.28-3.45,4.22-.81.39-1.61.62-2.41.69-.8.07-1.56,0-2.28-.22-.72-.22-1.38-.6-1.99-1.13-.6-.53-1.11-1.23-1.52-2.08-.4-.84-.63-1.66-.68-2.48-.05-.82.06-1.59.31-2.31.26-.72.66-1.37,1.2-1.96.54-.59,1.2-1.07,1.98-1.45.72-.35,1.44-.55,2.17-.61.73-.06,1.43.04,2.1.29.67.25,1.3.67,1.89,1.25.59.58,1.11,1.33,1.56,2.27ZM34.55,86.24c-.16-.33-.36-.63-.6-.88s-.52-.45-.83-.59c-.31-.13-.66-.19-1.03-.18-.38.01-.77.12-1.19.32-.78.38-1.32.93-1.64,1.66-.32.73-.33,1.48-.03,2.24l5.32-2.56Z"/>
        <path d="M41.3,70.51l2.59-1.25,7.88,16.34-2.59,1.25-7.88-16.34Z"/>
        <path d="M52.3,78.91c-.4-.82-.61-1.64-.63-2.45-.03-.81.1-1.58.37-2.3s.7-1.37,1.26-1.97c.57-.59,1.24-1.08,2.02-1.45s1.58-.6,2.39-.67,1.59,0,2.33.24,1.41.61,2.03,1.14c.62.53,1.13,1.2,1.52,2.02.4.82.61,1.64.64,2.46.03.82-.09,1.59-.36,2.32-.27.73-.69,1.39-1.25,2-.56.61-1.23,1.1-2.01,1.47-.78.38-1.58.59-2.4.65-.82.06-1.6-.03-2.34-.27-.74-.24-1.42-.63-2.04-1.16-.62-.53-1.13-1.21-1.53-2.03ZM54.93,77.64c.2.4.45.78.77,1.12.32.34.67.62,1.07.82.4.2.83.31,1.3.33.47.02.97-.09,1.49-.34s.92-.57,1.19-.95c.28-.38.46-.79.55-1.23.09-.44.1-.88.03-1.35-.07-.46-.21-.9-.4-1.3-.19-.4-.45-.77-.76-1.11-.31-.34-.67-.61-1.07-.8-.4-.2-.83-.31-1.3-.32-.47-.01-.96.1-1.48.35s-.92.56-1.2.94c-.28.38-.47.78-.56,1.22-.09.44-.11.88-.04,1.34.07.46.2.89.39,1.29Z"/>
        <path d="M65.94,72.33c-.4-.82-.61-1.64-.64-2.45-.03-.81.1-1.58.37-2.3.27-.72.7-1.37,1.26-1.97.57-.59,1.24-1.08,2.02-1.45s1.58-.6,2.39-.67c.82-.07,1.59,0,2.32.24.73.23,1.41.61,2.03,1.14.62.53,1.13,1.2,1.52,2.02.4.82.61,1.64.64,2.46.03.82-.09,1.59-.36,2.32s-.69,1.39-1.25,2c-.56.61-1.23,1.1-2.01,1.47-.78.38-1.58.59-2.4.65-.82.06-1.6-.03-2.34-.27s-1.42-.63-2.04-1.16c-.62-.53-1.13-1.21-1.53-2.03ZM68.58,71.06c.2.4.45.78.77,1.12.32.34.67.62,1.07.82s.83.31,1.3.33c.47.02.97-.09,1.49-.34.52-.25.92-.57,1.2-.95.28-.38.46-.79.55-1.23.09-.44.1-.88.03-1.35-.07-.46-.21-.9-.4-1.3-.19-.4-.45-.77-.76-1.11-.31-.34-.67-.61-1.07-.8-.4-.2-.83-.31-1.3-.32-.47-.01-.96.1-1.48.35-.52.25-.92.56-1.2.94-.28.38-.47.78-.56,1.22-.09.44-.1.88-.04,1.34.07.46.2.89.39,1.29Z"/>
        <path d="M74.87,54.34l2.59-1.25,4.98,10.33.06-.03,1.83-6.26,3.33-1.6-2.24,6.86,7.52,3.38-3.44,1.66-6.67-3.34-.06.03,2.56,5.32-2.59,1.25-7.88-16.34Z"/>
        <path d="M97.34,53.42l-1.97.95-1-2.08,1.97-.95-.74-1.54c-.3-.62-.52-1.25-.65-1.88-.14-.64-.15-1.25-.03-1.84.12-.59.38-1.14.79-1.65.41-.51,1.02-.96,1.83-1.35.29-.14.54-.24.74-.32.21-.07.42-.13.65-.17l.89,2.29c-.17.03-.34.06-.52.12-.18.05-.36.12-.55.21-.38.18-.64.4-.8.65s-.25.53-.26.82c-.01.29.03.58.12.88.09.3.2.57.32.83l.81,1.69,2.4-1.16,1,2.08-2.4,1.16,4,8.3-2.59,1.25-4-8.3Z"/>
        <path d="M105.37,53.33c-.4-.82-.61-1.64-.63-2.45-.03-.81.1-1.58.37-2.3.28-.72.7-1.37,1.26-1.97.57-.59,1.24-1.08,2.02-1.45.78-.38,1.58-.6,2.39-.67.82-.07,1.59,0,2.33.24.73.23,1.41.61,2.03,1.14.62.53,1.12,1.2,1.52,2.02.4.82.61,1.64.64,2.46.03.82-.09,1.59-.36,2.32s-.69,1.39-1.25,2c-.56.61-1.23,1.1-2.01,1.47-.78.38-1.58.59-2.4.65s-1.6-.03-2.34-.27c-.74-.24-1.42-.63-2.04-1.16s-1.13-1.21-1.53-2.03ZM108.01,52.05c.2.4.45.78.77,1.12.32.34.67.62,1.07.82.4.2.83.31,1.3.33.47.02.97-.09,1.49-.34.52-.25.92-.57,1.2-.95.28-.38.46-.79.55-1.23.09-.44.1-.88.03-1.35-.07-.46-.21-.9-.4-1.3-.19-.4-.45-.77-.76-1.11-.31-.34-.67-.61-1.07-.8-.4-.2-.83-.31-1.3-.32-.47-.01-.96.1-1.48.35-.52.25-.92.56-1.2.94-.28.38-.47.78-.56,1.22-.09.44-.1.88-.04,1.34s.2.88.39,1.29Z"/>
        <path d="M117.15,41.31l2.49-1.2.83,1.73.04-.02c0-.74.16-1.43.5-2.05.34-.62.85-1.1,1.55-1.44.1-.05.21-.1.33-.15.12-.05.23-.08.33-.09l1.15,2.38c-.19.04-.36.08-.49.13-.13.04-.25.09-.37.15-.59.28-1.01.62-1.27,1.01-.26.39-.41.79-.47,1.18-.06.4-.04.78.04,1.13.08.35.17.62.26.81l2.68,5.56-2.59,1.25-5-10.38Z"/>
        <path d="M124.86,37.59l2.81-1.35,5.75,6.4.04-.02-1.36-8.51,2.77-1.33,5.83,6.35.04-.02-1.38-8.5,2.7-1.3,1.41,12.11-2.64,1.27-5.86-6.13-.04.02,1.17,8.39-2.64,1.27-8.61-8.64Z"/>
        <path d="M155.01,34.22l-.07.03c-.04.59-.27,1.17-.71,1.74-.43.57-1.02,1.04-1.75,1.39-.42.2-.88.36-1.39.47-.51.11-1.01.13-1.51.06-.5-.07-.98-.25-1.43-.54-.45-.29-.82-.74-1.11-1.34-.38-.78-.45-1.5-.24-2.18.22-.67.61-1.3,1.19-1.88.57-.58,1.26-1.11,2.07-1.6.81-.49,1.61-.92,2.42-1.31l-.12-.26c-.31-.65-.78-1.01-1.4-1.1-.62-.08-1.25.03-1.9.34-.55.26-1.02.63-1.41,1.11-.39.47-.68.96-.85,1.45l-2.1-.93c.33-.83.81-1.57,1.45-2.22.64-.65,1.35-1.16,2.15-1.54.92-.44,1.75-.68,2.47-.71.72-.03,1.36.08,1.91.33.55.25,1.02.6,1.4,1.06s.71.94.96,1.46l3.04,6.31-2.42,1.17-.63-1.32ZM153.32,30.83l-.58.28c-.42.2-.85.43-1.29.69-.44.26-.83.54-1.16.85s-.57.64-.72.99-.13.72.05,1.11c.12.25.27.42.46.54.19.11.39.18.61.2.22.02.45,0,.69-.06.24-.06.46-.14.68-.25.89-.43,1.46-.99,1.69-1.69.23-.7.15-1.46-.25-2.28l-.18-.37Z"/>
        <path d="M156.58,22.3l2.49-1.2.83,1.73.04-.02c0-.74.16-1.43.5-2.05.34-.62.85-1.1,1.54-1.44.1-.05.21-.1.33-.15.12-.05.23-.08.33-.09l1.15,2.38c-.19.04-.36.08-.48.13-.13.04-.25.09-.37.15-.59.29-1.02.62-1.27,1.01-.26.39-.41.79-.47,1.19s-.04.78.04,1.13c.08.35.17.62.26.81l2.68,5.56-2.59,1.25-5-10.38Z"/>
        <path d="M180.56,23.53l-2.46,1.19-.75-1.56-.04.02c-.07.78-.35,1.48-.84,2.11-.49.63-1.1,1.12-1.83,1.47-.79.38-1.57.58-2.34.58-.77,0-1.49-.13-2.17-.42-.68-.29-1.3-.71-1.86-1.26-.56-.56-1.03-1.22-1.39-1.98-.37-.76-.59-1.54-.66-2.32-.08-.78,0-1.52.2-2.23.21-.71.56-1.35,1.04-1.93.48-.58,1.09-1.05,1.83-1.4.48-.23.93-.38,1.35-.45.43-.07.82-.1,1.18-.07.36.02.68.08.97.17.29.09.54.19.76.3l.07-.03-3.51-7.29,2.59-1.25,7.88,16.34ZM169.5,22.42c.19.4.45.78.77,1.12.32.34.67.62,1.07.82.4.2.83.31,1.3.33.47.02.96-.09,1.46-.33.47-.23.85-.53,1.13-.91.28-.38.48-.79.59-1.23s.14-.9.09-1.36c-.05-.46-.18-.9-.37-1.3-.2-.4-.46-.77-.79-1.11-.33-.34-.71-.6-1.13-.79-.42-.19-.87-.29-1.34-.31-.47-.02-.95.08-1.42.31-.5.24-.9.55-1.18.93-.28.38-.47.78-.56,1.22-.09.44-.1.88-.04,1.34.07.46.2.89.39,1.29Z"/>
        <path d="M184.71,11.3l-1-2.08,1.82-.88-1.45-3.01,2.55-1.23,1.45,3.01,2.59-1.25,1,2.08-2.59,1.25,2.32,4.82c.22.46.49.8.8,1.03.31.22.76.2,1.33-.08.17-.08.35-.19.54-.32.18-.13.34-.27.46-.42l1.07,1.99c-.19.2-.43.4-.72.6-.29.2-.58.37-.87.51-.69.33-1.3.51-1.83.52-.53.01-1-.09-1.41-.3-.42-.22-.78-.52-1.08-.92-.31-.39-.58-.84-.82-1.35l-2.33-4.84-1.82.88Z"/>
        <path d="M194.85,10.2c-.4-.82-.61-1.64-.64-2.45-.03-.81.1-1.58.37-2.3.27-.72.7-1.37,1.26-1.97.57-.59,1.24-1.08,2.02-1.45.78-.38,1.58-.6,2.39-.67.82-.07,1.59,0,2.33.24.73.23,1.41.61,2.03,1.14.62.53,1.12,1.2,1.52,2.02.4.82.61,1.64.64,2.46s-.09,1.59-.36,2.32-.69,1.39-1.25,2c-.56.61-1.23,1.1-2.01,1.47-.78.38-1.58.59-2.4.65-.82.06-1.6-.03-2.34-.27s-1.42-.63-2.04-1.16c-.62-.54-1.13-1.21-1.53-2.04ZM197.49,8.93c.2.4.45.78.77,1.12.32.34.67.62,1.07.82s.83.31,1.3.33c.47.02.97-.09,1.49-.34.52-.25.92-.57,1.2-.95.28-.38.46-.79.55-1.23.09-.43.1-.88.03-1.35-.07-.46-.21-.9-.4-1.3-.19-.4-.45-.77-.76-1.11-.31-.34-.67-.61-1.07-.8-.4-.2-.83-.31-1.3-.32-.47-.01-.96.1-1.48.35-.52.25-.92.56-1.2.94s-.47.78-.56,1.22c-.09.44-.1.88-.04,1.34.07.46.2.89.39,1.29Z"/>
      </g>
    </g>
  </g>
</svg>