<?xml version="1.0" encoding="UTF-8"?><svg id="uuid-75c15365-f259-4b20-9a68-5b54d8abbee0" xmlns="http://www.w3.org/2000/svg" width="653.32" height="155.73" viewBox="0 0 653.32 155.73"><defs><style>.uuid-7869287e-bb31-4810-b2ce-ca36b1ab1eb6{fill:#fff;stroke:#b91f3a;stroke-miterlimit:10;stroke-width:3px;}.uuid-106116a5-cfdf-46b5-bed7-0745cab61a2e{fill:#b91f3a;}</style></defs><g id="uuid-703c47ca-a0ae-4927-a9ad-335ebbcdeccf"><polyline class="uuid-7869287e-bb31-4810-b2ce-ca36b1ab1eb6" points="438.33 32.45 1.5 32.45 1.5 154.23 651.82 154.23 651.82 32.45 476.74 32.45 439.66 1.15"/><path class="uuid-106116a5-cfdf-46b5-bed7-0745cab61a2e" d="M72.67,76.4v2.08h7.4v-2.08h4.2v2.08h9.96v3.32h-9.96v1.56h4.88v10.52h-13.76c-.28.4-.68.92-1.04,1.36h20.2v3.12h-8.12c3.12,2.36,5.2,3.52,9,4.88-1.2,1.2-2,2.32-2.64,3.72-1.4-.64-3.36-1.6-5.48-2.92v8.48h-4.64v-1h-13.24v1.16h-4.36v-8.72c-1.16.76-2.96,1.92-4.96,2.8-.52-1.16-1.24-2.28-2.52-3.68,1.72-.68,4.64-1.84,8.28-4.72h-7.28v-3.12h10.44c.4-.4.8-.88,1.16-1.36h-6.36v-10.52h4.48v-1.56h-9.48v-3.32h9.48v-2.08h4.36ZM68.03,86.08v1.4h16.76v-1.4h-16.76ZM68.03,89.83v1.4h16.76v-1.4h-16.76ZM69.43,102.67v1.68h13.24v-1.68h-13.24ZM69.43,106.95v1.76h13.24v-1.76h-13.24ZM71.75,98.35l-1.48,1.44h11.88l-1.36-1.44h-9.04ZM72.67,81.8v1.56h7.4v-1.56h-7.4Z"/><path class="uuid-106116a5-cfdf-46b5-bed7-0745cab61a2e" d="M111.97,85.92c-.92,2.68-1.84,5.48-2.52,10,5.04-3.4,9.16-4.16,12.32-4.16,6.44,0,10,3.68,10,8.24s-3.28,8.72-9.52,10.56c-1.52.44-5.72,1.6-12.16,1.6,0-1.48-.44-3.36-1.36-5.04,1.08.04,2,.08,2.76.08,10.48,0,14.6-3.68,14.6-7.2,0-2.04-1.48-3.84-4.84-3.84-2.4,0-4.68.68-6.8,1.76-3.48,1.8-5.16,3.88-6.32,5.4l-3.84-2c.28-4.56.96-9.88,2.36-16.8l5.32,1.4ZM122.01,84.84c-5.16-1.16-8.76-2.28-13.24-4.68l1.96-4.28c4.68,2.12,6.56,2.8,12.76,4.2l-1.48,4.76Z"/><path class="uuid-106116a5-cfdf-46b5-bed7-0745cab61a2e" d="M150.1,78.64c-.76,6.92-1.24,16.84-1.24,20.12,0,2.8.08,4.24.6,5.28.36.72,1.44,2.24,4.36,2.24,7.04,0,11.68-7.28,13.92-11.8,1.24,1.36,2.84,2.56,4.44,3.24-2.36,4.04-8.2,13.44-18.48,13.44-5.8,0-7.88-3-8.44-3.92-1.4-2.44-1.4-5.44-1.4-9.52,0-2.76.28-16.24.28-19.28l5.96.2Z"/><path class="uuid-106116a5-cfdf-46b5-bed7-0745cab61a2e" d="M196.37,106.39c10.88-1.36,13-7.76,13-11.96,0-2.44-.84-4.96-2.12-6.48-1.56-2-4-3.12-7.24-3.6-2.92,16.52-8.88,23.68-12.84,23.68-4.32,0-6.68-6.28-6.68-11.16,0-8.96,7.04-16.72,18.08-16.72s16.16,6.08,16.16,14.48c0,3.96-1,9.36-7.24,13.32-1.88,1.16-4.32,2.32-8.92,3.36-.44-1.8-1.24-3.56-2.2-4.92ZM187.17,89.95c-1,1.52-1.8,3.8-1.8,6.36s.96,6.08,2.48,6.08c1.24,0,2.08-1.8,2.36-2.28,3.2-6.64,4.2-11.88,4.84-15.44-1.72.44-5.44,1.44-7.88,5.28Z"/><path class="uuid-106116a5-cfdf-46b5-bed7-0745cab61a2e" d="M230.73,97.99c-.92,1.44-1.72,2.8-1.72,3.92,0,1.72,2.16,2.24,4.16,2.52.88.12,4.2.48,6.88.48,4.52,0,8.12-.32,12.04-.92l.56,5.52c-3.6.4-6.32.56-11.56.56-4.04,0-17.28-.28-17.28-7.28,0-1.72.68-4,2.64-6.84l4.28,2.04ZM249.12,86.28c-4.48.56-7.52.8-10.6.8-5.32,0-8-.52-11.48-1.48l1.24-4.76c2.44.6,5.16,1.24,9.44,1.24,3.36,0,7.08-.44,10.88-.88l.52,5.08Z"/><path class="uuid-106116a5-cfdf-46b5-bed7-0745cab61a2e" d="M277.24,77.24c-.28,4.32-.32,7.48-.32,8,0,1.52.08,2.84.48,5.48,3.08-1.08,3.96-1.32,12.24-3.6l1.64,5.24c-7.6,1.52-16.72,3.36-21.24,7.24-.52.44-1.8,1.56-1.8,3.2,0,4.08,7.68,4.08,10.52,4.08,3.52,0,7.84-.2,12.48-.8l.24,5.24c-4.12.4-6.48.56-10.04.56-3.88,0-9.48-.24-12.92-1.64-4.2-1.72-5.32-4.96-5.32-7.08,0-5.96,6.44-9.04,9.72-10.68-1.12-4.04-1.12-4.8-1.12-15.16l5.44-.08Z"/><path class="uuid-106116a5-cfdf-46b5-bed7-0745cab61a2e" d="M307.36,101.75c2.28,2.28,3.92,3.96,6.44,7.24l-4.04,3.2c-1.6-2.36-2.04-2.88-5.96-7.28l3.56-3.16Z"/><path class="uuid-106116a5-cfdf-46b5-bed7-0745cab61a2e" d="M343.04,77.12c-.24,2.88-.36,4-.44,6.48,1.96-.32,2.84-.6,5.84-1.52l.12,5.12c-2.72.72-3.08.8-6.2,1.48,0,1.52-.04,3.44-.04,4.96,2.56-.84,6.2-1.88,9.88-1.88,9.04,0,10.12,7.16,10.12,9.72,0,5.96-4.48,9.32-9.4,9.32-3.4,0-6.24-1.64-8.64-4.88,1.44-.68,3.04-1.76,4.08-3,1.44,2.36,3.16,3,4.56,3,2.92,0,4.2-2.84,4.2-4.56,0-2-.96-5.24-5.88-5.24-1.64,0-5,.56-8.88,1.96.04,3,.08,7.28.08,9.52,0,1.48-.48,4.12-3.68,4.12-3.84,0-10.04-3.92-10.04-7.8,0-1.88,1.64-5.08,8.84-8.56,0-1.52-.04-4.16-.04-6.12-1.92.08-2.8.12-3.72.12s-1.8-.04-3.44-.12l.16-5c2.12.12,2.84.16,4.16.16.84,0,1.76-.08,3-.16,0-1.08.04-6.08.04-7.12h5.32ZM337.68,100.19c-2.12,1.2-4.32,2.56-4.32,3.76s2.72,2.88,3.44,2.88c.32,0,.88,0,.88-1.2v-5.44ZM359.83,90.59c-2.8-2.28-4.6-3.44-8.96-5.44l2.48-3.84c3.96,1.4,7,3.24,9.56,5.2l-3.08,4.08Z"/><path class="uuid-106116a5-cfdf-46b5-bed7-0745cab61a2e" d="M378.44,112.51h-4.72v-18.72c-.68,1.4-1.8,3.04-2.92,4.68-.52-1.52-1.28-3.28-2.48-4.88,4.64-6.12,6.76-11.72,8.8-17.52l4.88,1.64c-.88,2.36-2.32,5.4-3.56,8.04v26.76ZM395,91.99h10.44v4.44h-10.44v10.36h9.08v4.48h-22.64v-4.48h8.8v-10.36h-10.64v-4.44h10.64v-7.32c-2.24.36-5.24.84-7.84,1.12-.4-1.24-.88-2.44-1.8-4.2,5.4-.48,14.24-1.8,20.92-3.8l2.48,4.08c-2.32.72-3,.88-9,2.08v8.04Z"/><path class="uuid-106116a5-cfdf-46b5-bed7-0745cab61a2e" d="M440.48,78.44c0,1.36.12,7.28.12,8.44l7.44-.56.08,5c-1.08.08-6,.2-7.64.2-.2,8.88-.6,11.44-4.2,11.44-1.68,0-4.56-.96-6.48-1.76.56-1.6.8-3.2.8-4.76,1.84,1.08,3.4,1.44,3.68,1.44.68,0,.8-.88.84-1.28.08-.6.24-2.36.24-4.84-1.6.12-8.68.52-10.08.6-.08,4.36-.08,5.88-.08,9.28,0,2.4,0,3.44,2.92,3.92.8.12,3.92.4,6.44.4,2.2,0,5.04-.2,8.52-.72l.12,5.24c-3.64.28-6.4.44-9.4.44-7.12,0-12.84-.6-13.56-5.52-.16-.92-.2-2.2-.2-6.32,0-1.44,0-3.32.04-6.24-2.16.16-4.72.44-6.84.6l-.12-4.96c2.24-.08,5.2-.2,7-.36,0-2.12,0-4.76-.08-7.16l5.76-.12c-.16,2.04-.2,5-.36,7,1.52-.08,7-.48,9.92-.64,0-3.84-.04-4.32-.24-8.84l5.36.08Z"/><path class="uuid-106116a5-cfdf-46b5-bed7-0745cab61a2e" d="M481.46,81.84c-8.08,6.08-12.76,8.72-14.76,9.8-2.4,1.32-2.68,1.48-2.68,1.96,0,.52.48.84,1.48,1.52,7.68,5.16,11.84,9.36,16.32,13.88l-4.52,3.76c-5.72-6.68-11.48-11.52-15.48-14.52-4.04-3.12-4.28-3.28-4.28-4.72,0-1.88.96-2.48,4.64-4.72,4.84-2.92,9.72-6.4,15.48-11.28l3.8,4.32Z"/><path class="uuid-106116a5-cfdf-46b5-bed7-0745cab61a2e" d="M509.37,78.56c-.48,1.72-1.16,3.64-1.48,4.92,2.68-.4,4.4-.76,7.72-1.72l.24,4.8c-3.44.88-5.76,1.32-9.44,1.76-2.76,8.2-4.2,12.48-9.2,23.48l-4.64-2.44c3.48-6.68,6-12.76,8.6-20.6-1.32.04-2.84.12-4.24.12-.6,0-1.28-.04-1.88-.08l.12-4.84c1.28.12,2.64.16,4,.16,1.04,0,2.16-.04,3.24-.12.56-1.92,1.24-4.4,1.72-6.84l5.24,1.4ZM510.37,100.87c-.08,1.96.2,3.56,2.04,4.4,1.76.76,6.88.92,7.48.92,1.84,0,3.72-.16,7.44-.6l.24,5.08c-1.4.2-3.2.4-6.84.4-11.8,0-15-2.56-15-10.48l4.64.28ZM525.61,93.39c-2.28-.12-3.68-.16-4.8-.16-3.88,0-7.48.32-11,.76l-.44-4.28c6.64-1,10.48-1.12,13.28-1.12.92,0,1.92.04,3.08.04l-.12,4.76ZM523.29,85.56c-1.32-1.44-2.96-3.04-4.56-4.32l2.24-2.12c1.6,1.16,3.4,2.84,4.76,4.12l-2.44,2.32ZM524.45,75.76c1.64,1.12,3.36,2.64,4.92,4.08l-2.6,2.32c-1.4-1.52-2.96-3.04-4.56-4.24l2.24-2.16Z"/><path class="uuid-106116a5-cfdf-46b5-bed7-0745cab61a2e" d="M551.67,77.12c.4,1.52.96,3.4,2.16,6.36,3.2-.68,3.84-.92,9.64-2.92l1.4,5.12c-4.68,1.44-6.12,1.84-8.72,2.36,1.92,3.4,4.28,6.12,7.48,8.68l-2.72,4.16c-2.2-1.08-4.8-2.24-10.36-2.24-2.44,0-5.08.24-6.6,1.16-.96.64-1.56,1.72-1.56,2.44,0,1.92,2.88,4.36,11.04,4.36,3.08,0,6.08-.36,8.76-.76l.2,5.12c-3.76.56-5.72.64-7.88.64-8.04,0-11.32-1.24-13.36-2.52-3.24-1.96-4-4.52-4-6.4,0-1.76.76-8.28,12.64-8.28,2.2,0,3.88.28,5.48.56-1.44-1.56-2.4-2.84-4.36-6-3.44.52-5.64.68-8.4.68-1.6,0-3.36-.08-6.12-.36l.28-5.04c2.8.36,4.28.4,5.64.4,2.28,0,3.88-.04,6.2-.32-.44-1.24-.8-2.04-1.16-2.76-.4-.96-.72-1.84-1.16-3.52l5.48-.92Z"/><path class="uuid-106116a5-cfdf-46b5-bed7-0745cab61a2e" d="M582.47,81.48c-.8,2.4-1.12,3.76-1.32,4.84-.48,2.56-.8,5.24-.8,7.88,0,3.92,1.08,8.76,2.08,8.76.84,0,2-3.84,2.32-4.96,1,1.24,2.4,2.4,3.96,3.24-2.8,8.52-5.72,8.6-6.2,8.6-2.8,0-7.12-5.84-7.12-16.64,0-5.56.84-9.8,1.56-13.12l5.52,1.4ZM599.26,81.88c5.16,7,7.2,14.12,8.4,20.68l-5.32,1.4c-.64-4.64-1.92-8.84-2.52-10.52-.4-1.36-1.96-5.36-4.76-9.6l4.2-1.96Z"/></g></svg>