<?xml version="1.0" encoding="UTF-8"?>
<svg id="_レイヤー_2" data-name="レイヤー 2" xmlns="http://www.w3.org/2000/svg" viewBox="0 0 396.9 283.51">
  <defs>
    <style>
      .cls-1 {
        fill: #c91933;
      }

      .cls-2 {
        fill: #fff;
        stroke: #c91933;
        stroke-miterlimit: 10;
        stroke-width: 3px;
      }
    </style>
  </defs>
  <g id="_レイヤー_1-2" data-name="レイヤー 1">
    <g>
      <polyline class="cls-2" points="106.03 41.9 1.5 41.9 1.5 166.96 268.77 166.96 268.77 282.01 395.4 282.01 395.4 41.9 149.53 41.9 112.94 1"/>
      <g>
        <path class="cls-1" d="M79.24,106.92h-23.94v17.94h27.99v8.09h-38.12v-58.3h37.84v8.17h-27.71v16.1h23.94v8.01Z"/>
        <path class="cls-1" d="M112.8,103.87l8.25-14.25h10.81l-13.25,21.34,13.69,21.98h-10.73l-8.65-14.81-8.61,14.81h-10.81l13.69-21.98-13.21-21.34h10.73l8.09,14.25Z"/>
        <path class="cls-1" d="M157.81,79.09v10.53h7.65v7.21h-7.65v24.18c0,1.66.33,2.85.98,3.58.65.73,1.82,1.1,3.5,1.1,1.12,0,2.26-.13,3.4-.4v7.53c-2.22.61-4.35.92-6.41.92-7.47,0-11.21-4.12-11.21-12.37v-24.54h-7.13v-7.21h7.13v-10.53h9.73Z"/>
        <path class="cls-1" d="M195.65,133.74c-6.17,0-11.16-1.94-14.99-5.83-3.83-3.88-5.75-9.06-5.75-15.52v-1.2c0-4.32.83-8.19,2.5-11.59,1.67-3.4,4.01-6.05,7.03-7.95,3.02-1.9,6.38-2.84,10.09-2.84,5.9,0,10.46,1.88,13.67,5.65,3.22,3.76,4.82,9.09,4.82,15.98v3.92h-28.31c.29,3.58,1.49,6.41,3.58,8.49,2.1,2.08,4.73,3.12,7.91,3.12,4.46,0,8.09-1.8,10.89-5.41l5.25,5c-1.74,2.59-4.05,4.6-6.95,6.03-2.9,1.43-6.15,2.14-9.75,2.14ZM194.49,96.63c-2.67,0-4.82.93-6.47,2.8-1.64,1.87-2.69,4.47-3.14,7.81h18.54v-.72c-.21-3.26-1.08-5.72-2.6-7.39-1.52-1.67-3.63-2.5-6.33-2.5Z"/>
        <path class="cls-1" d="M248.49,98.51c-1.28-.21-2.6-.32-3.96-.32-4.46,0-7.46,1.71-9.01,5.12v29.63h-9.73v-43.32h9.29l.24,4.84c2.35-3.76,5.61-5.65,9.77-5.65,1.39,0,2.54.19,3.44.56l-.04,9.13Z"/>
        <path class="cls-1" d="M259.15,78.37c0-1.49.47-2.74,1.42-3.72.95-.99,2.3-1.48,4.06-1.48s3.12.49,4.08,1.48c.96.99,1.44,2.23,1.44,3.72s-.48,2.69-1.44,3.66c-.96.97-2.32,1.46-4.08,1.46s-3.12-.49-4.06-1.46c-.95-.97-1.42-2.2-1.42-3.66ZM269.48,132.94h-9.73v-43.32h9.73v43.32Z"/>
        <path class="cls-1" d="M282.58,110.88c0-4.24.84-8.07,2.52-11.47,1.68-3.4,4.04-6.02,7.09-7.85,3.04-1.83,6.54-2.74,10.49-2.74,5.85,0,10.59,1.88,14.23,5.65,3.64,3.76,5.61,8.76,5.91,14.97l.04,2.28c0,4.27-.82,8.09-2.46,11.45-1.64,3.36-3.99,5.97-7.05,7.81-3.06,1.84-6.59,2.76-10.59,2.76-6.11,0-11-2.04-14.67-6.11-3.67-4.07-5.51-9.5-5.51-16.28v-.48ZM292.31,111.72c0,4.46.92,7.95,2.76,10.47s4.4,3.78,7.69,3.78,5.84-1.28,7.67-3.84c1.83-2.56,2.74-6.31,2.74-11.25,0-4.38-.94-7.85-2.82-10.41-1.88-2.56-4.44-3.84-7.67-3.84s-5.7,1.26-7.57,3.78c-1.87,2.52-2.8,6.29-2.8,11.31Z"/>
        <path class="cls-1" d="M358.62,98.51c-1.28-.21-2.6-.32-3.96-.32-4.46,0-7.46,1.71-9.01,5.12v29.63h-9.73v-43.32h9.29l.24,4.84c2.35-3.76,5.61-5.65,9.77-5.65,1.39,0,2.54.19,3.44.56l-.04,9.13Z"/>
      </g>
      <g>
        <path class="cls-1" d="M319.54,172.88c.18-.23.27-.31.41-.31s.27.09.45.27c1.39,1.22,2.65,2.39,3.96,3.87,1.35-2.92,2.38-6.16,3.1-9.76h-6.39c-1.93,4.14-4.46,7.83-7.65,11.29-.41.45-.68.68-.9.68s-.45-.27-.76-.9c-.58-1.08-1.35-1.98-2.25-2.74,4.72-4.72,7.56-9.58,9.45-15.93.41-1.39.54-2.38.58-3.55,1.84.32,3.11.54,4.59.99.45.13.67.36.67.63,0,.36-.13.59-.31.76-.36.36-.54,1.08-.9,2.29-.27.81-.5,1.58-.76,2.29h4.63c.72,0,1.04-.09,1.35-.27.27-.13.36-.18.63-.18.32,0,.81.13,1.98,1.21,1.08.94,1.3,1.3,1.3,1.57s-.18.45-.45.77l-.27.45c1.35,2.2,2.88,4.09,4.5,5.76v-9.54c0-3.2-.04-4.77-.36-6.84,1.67.04,3.42.13,4.95.36.4.05.67.18.67.45,0,.31-.13.63-.23.9-.22.59-.31,1.71-.31,4.99v13.63c3.1,2.16,6.61,3.82,10.57,5.4-.67.85-1.48,2.2-1.98,3.55-.32.81-.45,1.12-.81,1.12-.22,0-.54-.14-1.03-.36-2.48-1.17-4.68-2.38-6.75-3.78v6.48c0,5.04.09,7.6.09,7.83,0,.45-.04.5-.5.5h-3.91c-.45,0-.49-.05-.49-.5,0-.27.09-2.79.09-7.83v-10.21c-2.07-1.93-3.92-4.09-5.62-6.66-2.7,10.44-8.14,17.77-16.33,23.67-.54.4-.86.63-1.08.63-.27,0-.5-.32-.99-.9-.72-.94-1.62-1.71-2.61-2.38,5.13-3.06,9.27-6.93,12.29-11.79-1.62-1.89-2.92-3.19-4.46-4.59-.18-.18-.27-.27-.27-.41s.09-.31.27-.54l1.84-2.38Z"/>
        <path class="cls-1" d="M315.63,224.46c-3.91,0-5.22.09-5.49.09-.41,0-.45-.05-.45-.5v-2.79c0-.45.04-.5.45-.5.27,0,1.58.09,5.49.09h2.29c.36-1.03.72-2.16.99-3.33h-2.97c-.45.72-1.04,1.53-1.71,2.38-.41.5-.63.72-.9.72-.22,0-.49-.18-.99-.54-.81-.54-1.71-.99-2.38-1.3,1.93-1.98,3.06-3.69,4.18-5.76.36-.77.76-1.76.99-2.79,1.35.27,2.47.5,3.55.77.4.09.67.27.67.63,0,.27-.18.45-.5.76-.27.27-.45.63-.95,1.66h5.27c3.91,0,5.17-.09,5.44-.09.45,0,.5.05.5.5v2.61c0,.49-.04.54-.5.54-.27,0-1.53-.09-5.44-.09h-.09c-.27,1.17-.58,2.29-.94,3.33h2.07c3.87,0,5.17-.09,5.45-.09.45,0,.5.05.5.5v2.79c0,.45-.04.5-.5.5-.27,0-1.58-.09-5.45-.09h-3.51c-.67,1.35-1.39,2.61-2.29,3.82h3.06c.22-.41.36-.77.49-1.08.27-.63.45-1.26.58-2.16,1.12.18,2.83.41,3.6.63.45.14.63.27.63.45,0,.22-.13.4-.32.54-.31.27-.45.45-.58.77l-.4.86c2.61,0,3.42-.09,3.69-.09.45,0,.5.05.5.49v2.34c0,.49-.04.54-.5.54-.27,0-1.08-.09-3.87-.09h-.58v2.61c2.52,0,3.51-.09,3.74-.09.45,0,.5.05.5.5v2.25c0,.45-.05.5-.5.5-.23,0-1.21-.05-3.74-.09v2.61c2.52,0,3.51-.09,3.74-.09.45,0,.5.05.5.49v2.2c0,.45-.05.5-.5.5-.23,0-1.21-.05-3.74-.09v2.7c2.61,0,3.55-.09,3.83-.09.45,0,.5.05.5.54v1.44c3.73-2.02,5.13-5.04,5.49-9.67-1.66.04-2.38.04-2.61.04-.45,0-.5,0-.5-.49,0-.27.09-1.93.09-5.58v-13.36c0-3.6-.09-5.31-.09-5.58,0-.45.04-.49.5-.49.31,0,1.44.09,4.99.09h6.48c3.51,0,4.72-.09,4.99-.09.5,0,.54.04.54.49,0,.27-.09,1.98-.09,5.58v13.36c0,3.64.09,5.31.09,5.58,0,.49-.04.49-.54.49-.22,0-1.26-.04-3.55-.04v8.05c0,.81-.04.99.13,1.17.23.23.5.23,1.08.23.77,0,1.21-.09,1.44-.41.4-.45.45-1.76.54-4.77.94.72,2.07,1.21,2.88,1.48.85.27.85.36.81,1.35-.22,3.33-.76,4.72-1.62,5.49-.94.81-2.56.9-4.5.9-1.62,0-2.83-.05-3.78-.54-.76-.45-1.17-1.48-1.17-2.97v-9.99h-1.84c-.54,6.43-2.38,10.26-7.38,13.45-.58.36-.9.54-1.21.54s-.54-.27-.95-.9c-.67-.99-1.21-1.62-1.8-2.07-.76,0-2.03-.04-4-.04h-6.34v2.16c0,.4-.04.45-.5.45h-3.1c-.45,0-.5-.04-.5-.45,0-.27.09-1.12.09-4.05v-12.6l-1.67,1.44c-.45.36-.72.59-.94.59s-.36-.32-.54-.99c-.36-1.17-.86-2.11-1.31-2.74,3.42-2.25,5.94-4.81,7.7-8.01h-.72ZM320.94,234.09v-2.61h-3.83v2.61h3.83ZM320.94,239.76v-2.61h-3.83v2.61h3.83ZM320.94,245.47v-2.7h-3.83v2.7h3.83ZM335.79,216.18v3.38h8.73v-3.38h-8.73ZM344.52,226.62v-3.46h-8.73v3.46h8.73ZM344.52,230.22h-8.73v3.69h8.73v-3.69Z"/>
      </g>
    </g>
  </g>
</svg>