<?xml version="1.0" encoding="UTF-8"?><svg id="uuid-0a2efd07-2226-4f62-9cf1-1592bd47419e" xmlns="http://www.w3.org/2000/svg" width="283.78" height="155.73" viewBox="0 0 283.78 155.73"><defs><style>.uuid-66df16dc-faca-4408-bc91-fd270230033c{fill:#c91933;}.uuid-c548f95f-4035-4f26-ab95-52d5dabfe75d{fill:#fff;stroke:#c91933;stroke-miterlimit:10;stroke-width:3px;}</style></defs><g id="uuid-1a0051f3-3f46-4ca1-bad8-c7f3bbfc53ff"><polyline class="uuid-c548f95f-4035-4f26-ab95-52d5dabfe75d" points="41.43 123.28 1.5 123.28 1.5 1.5 282.28 1.5 282.28 123.28 79.84 123.28 42.76 154.58"/><path class="uuid-66df16dc-faca-4408-bc91-fd270230033c" d="M64.74,83.37c-.4,0-.44-.04-.44-.44,0-.72.2-8.64.28-18.16-1.04,3.2-2.56,6.28-4.52,9.16-.28.4-.48.6-.64.6s-.28-.2-.4-.64c-.36-1.28-.88-2.52-1.44-3.4,2.8-3.28,5-7.32,6.52-12.16h-.92c-2.92,0-3.88.08-4.12.08-.4,0-.44-.04-.44-.44v-2.92c0-.4.04-.44.44-.44.24,0,1.2.08,4.12.08h1.28v-2.48c0-2.48-.04-3.76-.32-5.44,1.44.04,2.72.12,4,.28.4.04.64.2.64.4,0,.36-.12.56-.24.84-.2.48-.28,1.12-.28,3.88v2.52c2.96,0,3.92-.08,4.16-.08.4,0,.44.04.44.44v2.92c0,.4-.04.44-.44.44-.24,0-1.16-.08-3.92-.08,1.16,2.72,3.24,5.4,5.28,7.64-.56.84-1.04,1.84-1.52,3.08-.2.44-.32.64-.44.64-.16,0-.32-.2-.56-.56-1.28-1.84-2.36-3.8-3.12-5.96.04,10.6.28,19.04.28,19.76,0,.4-.04.44-.44.44h-3.24ZM75.14,83.17c-.4,0-.44-.04-.44-.4,0-.24.08-2.88.08-15.12v-7.88c0-7.92-.08-10.56-.08-10.84,0-.4.04-.44.44-.44.28,0,1.48.08,4.92.08h7.68c3.44,0,4.64-.08,4.88-.08.4,0,.44.04.44.44,0,.24-.08,2.92-.08,9.52v9.16c0,12.16.08,14.8.08,15.04,0,.36-.04.4-.44.4h-3.28c-.36,0-.4-.04-.4-.4v-1.84h-10.08v1.96c0,.36-.04.4-.48.4h-3.24ZM78.86,58.1h10.08v-5.68h-10.08v5.68ZM88.94,67.41v-5.56h-10.08v5.56h10.08ZM88.94,76.97v-5.8h-10.08v5.8h10.08Z"/><path class="uuid-66df16dc-faca-4408-bc91-fd270230033c" d="M110.9,53.78c3.04,0,4-.08,4.24-.08.4,0,.44.04.44.44v2.84c0,.44-.04.48-.44.48-.24,0-1.2-.08-4.24-.08h-4.44c-3,0-4,.08-4.2.08-.4,0-.44-.04-.44-.48v-2.84c0-.4.04-.44.44-.44.2,0,1.2.08,4.2.08h4.44ZM114.42,79.81c6.92-2,9.32-6.4,9.76-12.84.12-1.4.12-2.48-.04-3.8,1.4.08,2.68.16,3.84.4.48.08.76.24.76.52s-.04.44-.24.72c-.2.28-.28.68-.44,2.4,1.12,6.6,5.56,10.52,10.52,12.28-.56.72-1.2,1.8-1.64,2.8-.32.68-.44,1-.76,1-.2,0-.44-.12-.92-.36-3.76-2-6.8-5-8.52-9.28-1.44,4.04-4.04,7.24-8.76,9.36-.44.16-.68.28-.92.28-.32,0-.48-.28-.84-1-.52-.92-1.08-1.8-1.8-2.44.04,1.72.08,2.24.08,2.4,0,.4-.04.44-.4.44h-2.88c-.4,0-.44-.04-.44-.44v-1.08h-3.72v1.84c0,.36-.04.4-.44.4h-2.88c-.4,0-.44-.04-.44-.4,0-.28.08-1.2.08-6.04v-2.56c0-2.52-.08-3.48-.08-3.76,0-.4.04-.44.44-.44.24,0,1.08.08,3.64.08h3.04c2.56,0,3.4-.08,3.68-.08.36,0,.4.04.4.44,0,.24-.08,1.2-.08,3.08v6.08ZM110.62,48.3c2.56,0,3.36-.08,3.6-.08.4,0,.44.04.44.44v2.68c0,.36-.04.4-.44.4-.24,0-1.04-.08-3.6-.08h-3.24c-2.6,0-3.4.08-3.64.08-.36,0-.4-.04-.4-.4v-2.68c0-.4.04-.44.4-.44.24,0,1.04.08,3.64.08h3.24ZM110.18,59.46c2.36,0,3.08-.08,3.32-.08.44,0,.48.04.48.44v2.6c0,.4-.04.44-.48.44-.24,0-.96-.08-3.32-.08h-2.56c-2.44,0-3.16.08-3.4.08-.4,0-.44-.04-.44-.44v-2.6c0-.4.04-.44.44-.44.24,0,.96.08,3.4.08h2.56ZM110.18,64.85c2.36,0,3.08-.08,3.32-.08.44,0,.48.04.48.44v2.56c0,.4-.04.44-.48.44-.24,0-.96-.08-3.32-.08h-2.56c-2.44,0-3.16.08-3.4.08-.4,0-.44-.04-.44-.44v-2.56c0-.4.04-.44.44-.44.24,0,.96.08,3.4.08h2.56ZM107.06,73.61v4.28h3.72v-4.28h-3.72ZM136.89,64.14c-.36.76-.44,1.04-.8,1.04-.16,0-.44-.08-.88-.24-3.6-1.4-6.8-4.04-8.52-8.16-1.44,3.64-4.04,6.44-8.48,8.2-.44.16-.68.28-.88.28-.32,0-.48-.28-.88-1-.48-.84-1.08-1.68-1.64-2.2,6.4-1.88,9.12-5.68,9.44-11.4.08-1.36.08-2.56-.04-3.68,1.4.08,2.64.24,3.72.4.48.08.8.2.8.48s-.08.44-.28.72c-.2.24-.28.6-.4,2.04,1.04,6.56,5.32,9.4,10.36,11-.52.6-1.12,1.64-1.52,2.52ZM115.42,72.73c-.48-.36-.44-.44-.16-.76,1.36-1.48,2.52-3.28,3.32-5,.2-.4.28-.44.8-.16l2,1.04c.52.28.56.36.4.76-.84,1.96-1.92,3.76-3.48,5.6-.16.2-.24.28-.4.28-.12,0-.28-.08-.48-.24l-2-1.52ZM116.26,56.1c-.48-.32-.48-.4-.2-.72,1.2-1.4,2.2-3.12,2.88-4.88.16-.44.2-.36.76-.16l2.08.8c.48.2.52.28.4.68-.8,2.04-1.72,3.84-3.12,5.56-.16.2-.24.28-.36.28s-.28-.08-.48-.24l-1.96-1.32ZM132.97,68.01c.36-.52.56-.96.76-1.52,1.08.32,2.16.72,3.08,1.2.56.28.72.48.72.68,0,.32-.16.44-.44.6-.24.16-.48.48-.68.76-.76,1.04-1.6,2.16-2.68,3.28-.4.4-.64.64-.88.64-.28,0-.52-.24-1.04-.64-.68-.56-1.32-1-2.08-1.4,1.44-1.24,2.48-2.48,3.24-3.6ZM133.05,51.38c.36-.52.56-.96.72-1.52,1.04.36,2.16.84,3,1.28.52.28.64.36.64.6,0,.28-.16.4-.4.6-.2.16-.44.44-.68.8-.68,1-1.36,1.96-2.52,3.16-.48.48-.72.72-.96.72s-.48-.2-.92-.56c-.72-.6-1.4-1.04-2.04-1.28,1.52-1.44,2.52-2.76,3.16-3.8Z"/><path class="uuid-66df16dc-faca-4408-bc91-fd270230033c" d="M153.35,72.73c-3.72,0-5.04.08-5.28.08-.4,0-.44-.04-.44-.44v-2.8c0-.4.04-.44.44-.44.2,0,1.32.08,4.2.08v-5.4h-1.16c-3.48,0-4.68.08-4.92.08-.36,0-.4-.04-.4-.44v-2.92c0-.4.04-.44.4-.44.24,0,1.44.08,4.92.08h1.16v-4c-.64.68-1.32,1.32-2,1.92-.48.36-.72.52-.92.52-.24,0-.44-.24-.88-.8-.6-.76-1.16-1.32-1.8-1.76,3.2-2.16,5.44-4.84,6.96-7.44.48-.92.76-1.6,1-2.4,1.16.24,2.4.6,3.44,1,.32.12.56.32.56.52s-.12.4-.36.56c-.32.24-.56.56-.92,1.16-.4.64-.84,1.32-1.32,2h18.16c3.88,0,5.24-.08,5.48-.08.44,0,.48.04.48.44v2.88c0,.36-.04.4-.48.4-.2,0-1.16-.04-3.64-.08v5.16h.64c3.48,0,4.68-.08,4.92-.08.36,0,.4.04.4.44v2.92c0,.4-.04.44-.4.44-.24,0-1.44-.08-4.92-.08h-.64v5.4c2.72,0,3.8-.08,4-.08.4,0,.44.04.44.44v2.8c0,.4-.04.44-.44.44-.24,0-1.52-.08-5.28-.08h-21.4ZM146.71,81.05c-.28-.16-.4-.32-.4-.44s.08-.2.24-.36c1.92-1.8,3.44-3.84,4.52-6.16.16-.4.24-.4.8-.16l2.32.96c.52.24.52.32.36.72-1.2,2.64-2.88,5.04-4.72,7-.12.16-.24.24-.36.24s-.24-.08-.48-.24l-2.28-1.56ZM159.03,60.18v-5.16h-3.08v5.16h3.08ZM159.03,69.21v-5.4h-3.08v5.4h3.08ZM160.47,74.73c.48-.04.6-.04.68.4.52,2.08.76,4.32.92,6.64.04.4-.04.52-.52.56l-2.88.24c-.64.08-.68,0-.68-.4-.04-2.28-.24-4.56-.68-6.6-.08-.48,0-.56.6-.6l2.56-.24ZM165.67,60.18v-5.16h-3.16v5.16h3.16ZM165.67,69.21v-5.4h-3.16v5.4h3.16ZM168.27,74.53c.52-.08.6-.04.76.32.92,2.08,1.56,4.24,2.04,6.36.08.44.04.52-.48.64l-2.84.56c-.6.12-.68.12-.76-.32-.4-2.24-.92-4.48-1.68-6.44-.16-.4-.08-.48.48-.6l2.48-.52ZM172.35,60.18v-5.16h-3.2v5.16h3.2ZM172.35,69.21v-5.4h-3.2v5.4h3.2ZM175.87,73.85c.48-.24.6-.2.88.12,1.68,1.96,3.12,4,4.32,6.32.2.36.16.44-.36.72l-2.52,1.4c-.48.24-.6.2-.8-.16-1.16-2.44-2.4-4.52-4.04-6.68-.24-.32-.2-.4.32-.64l2.2-1.08Z"/><path class="uuid-66df16dc-faca-4408-bc91-fd270230033c" d="M196.27,52.34c0-2.56-.08-3.84-.32-5.64,1.48.04,2.68.12,4.04.28.4.04.64.24.64.4,0,.36-.12.56-.24.84-.24.48-.28,1.32-.28,4.04v7.52h.32c3.08,0,4.08-.08,4.32-.08.4,0,.44.04.44.44v2.84c0,.36-.04.4-.44.4-.24,0-1.2-.08-4.08-.08,1.68,2.76,3.24,4.72,5.4,6.92-.6.72-1.16,1.68-1.6,2.64-.24.48-.4.72-.56.72s-.36-.2-.64-.6c-1.16-1.68-2.28-3.52-3.24-5.72,0,7.92.28,15.08.28,15.68,0,.4-.04.44-.48.44h-3.28c-.4,0-.44-.04-.44-.44,0-.6.2-7.2.28-14.68-1.2,3.24-2.8,6.32-4.84,9.12-.32.4-.52.64-.72.64-.16,0-.32-.2-.48-.68-.36-1.12-.96-2.36-1.44-2.92,2.88-3.32,4.96-6.92,6.44-11.12h-.72c-3.12,0-4.12.08-4.36.08-.4,0-.44-.04-.44-.4v-2.84c0-.4.04-.44.44-.44.24,0,1.24.08,4.36.08h1.64v-7.44ZM192.43,49.62c.48-.2.52-.16.72.24,1.04,2.36,1.68,4.4,2.16,6.72.08.4,0,.52-.52.72l-1.72.64c-.6.24-.64.2-.72-.24-.44-2.4-1.12-4.56-2.04-6.68-.16-.44-.08-.52.44-.72l1.68-.68ZM202.71,50.94c.08-.4.2-1.12.24-1.72,1.08.36,2.32.76,3.04,1.12.32.16.44.28.44.48s-.08.32-.24.4c-.24.16-.36.44-.48.88-.48,1.64-1.08,3.24-1.84,5.08-.24.6-.36.84-.6.84-.16,0-.4-.12-.8-.36-.6-.32-1.24-.56-1.6-.68.84-2.08,1.48-4.32,1.84-6.04ZM217.23,69.05v-16c0-2.84-.04-4.08-.32-6.08,1.52.04,2.84.12,4.24.28.36.04.6.2.6.44,0,.28-.12.48-.24.8-.2.48-.24,1.48-.24,4.44v15.32c2.32-.48,3.24-.76,3.6-.84.36-.08.36-.04.44.4l.48,3.12c.04.36.04.4-.4.48-.28.08-1.36.24-4.12.8v3.72c0,4.44.08,6.72.08,6.92,0,.4-.04.44-.44.44h-3.32c-.4,0-.44-.04-.44-.44,0-.24.08-2.44.08-6.88v-2.96l-5.48,1.08c-3.48.68-4.76.96-5.16,1.04s-.48.04-.52-.32l-.52-3.16c-.08-.44-.04-.44.36-.52.4-.08,1.72-.2,5.2-.88l6.12-1.2ZM208.43,58.86c.2-.2.28-.28.36-.28.12,0,.2.08.4.24,1.84,1.28,3.92,3.16,5.52,5.12.28.36.28.44-.12.84l-1.96,1.96c-.44.4-.52.4-.8.08-1.64-2.08-3.44-3.96-5.28-5.44-.16-.16-.28-.24-.28-.32,0-.12.12-.24.32-.44l1.84-1.76ZM209.51,49.74c.36-.32.4-.4.76-.16,2,1.4,4.04,3.12,5.64,5.08.24.28.24.44-.12.76l-1.92,1.88c-.44.44-.52.48-.76.12-1.64-2.08-3.68-3.96-5.44-5.24-.28-.2-.32-.4.08-.76l1.76-1.68Z"/></g></svg>