<?xml version="1.0" encoding="UTF-8"?>
<svg id="_レイヤー_2" data-name="レイヤー 2" xmlns="http://www.w3.org/2000/svg" viewBox="0 0 251.36 108.51">
  <g id="_レイヤー_1-2" data-name="レイヤー 1">
    <g>
      <polyline points="5.48 61.63 125.44 33.69 249.25 56.3" style="fill: none; stroke: #231815; stroke-miterlimit: 10; stroke-width: 3px;"/>
      <path d="M51.45,106.53c-3.38,0-4.52.08-4.75.08-.34,0-.38-.04-.38-.42v-3.15c0-.38.04-.42.38-.42.23,0,1.37.08,4.75.08h9.38v-12.96h-6.04c-3.72,0-4.98.08-5.21.08-.38,0-.42-.04-.42-.42v-3.15c0-.38.04-.42.42-.42.23,0,1.48.08,5.21.08h6.04v-5.89c0-2.58-.04-4.26-.3-5.97,1.41.04,3.12.11,4.45.27.34.04.61.19.61.46,0,.3-.12.57-.23.84-.19.46-.23,1.29-.23,4.33v5.96h6.69c3.69,0,4.94-.08,5.17-.08.42,0,.46.04.46.42v3.15c0,.38-.04.42-.46.42-.23,0-1.48-.08-5.17-.08h-6.69v12.96h9.99c3.38,0,4.52-.08,4.75-.08.34,0,.38.04.38.42v3.15c0,.38-.04.42-.38.42-.23,0-1.37-.08-4.75-.08h-23.67Z" style="fill: #231815;"/>
      <path d="M95.38,96.58c1.22-.49,2.39-1.06,3.69-1.75-.08.68-.08,1.56-.04,2.36q.08,1.22-.99,1.75c-2.36,1.18-5.05,2.28-7.56,3.23-.65.27-1.1.46-1.25.61s-.42.27-.65.27-.42-.11-.57-.46c-.38-.99-.68-2.09-1.03-3.38,1.21-.23,2.39-.49,3.76-.95l.87-.27v-10.79h-.3c-2.47,0-3.23.08-3.46.08-.38,0-.38-.04-.38-.42v-2.89c0-.38,0-.42.38-.42.23,0,.99.08,3.46.08h.3v-3.57c0-2.51-.04-4.07-.3-5.59,1.48.04,2.66.11,3.91.27.38.04.61.23.61.46,0,.27-.11.46-.23.76-.19.46-.23,1.41-.23,3.61v4.07c2.17,0,2.89-.08,3.12-.08.34,0,.38.04.38.42v2.89c0,.38-.04.42-.38.42-.23,0-.95-.08-3.12-.08v9.38ZM104.96,101.86c0,.99.19,1.44.72,1.71.53.3,1.71.42,5.47.42,4.1,0,5.36-.19,6.12-.8.61-.53.8-1.29.91-4.29.76.46,1.63.91,2.74,1.22q.95.27.84,1.25c-.34,3.31-.8,4.33-2.05,5.13-1.29.87-3.12,1.25-9,1.25-5.17,0-7.07-.46-8.02-1.06-.91-.57-1.44-1.71-1.44-3.76v-11.85c-1.94.68-2.74,1.03-3.04,1.1-.38.11-.42.08-.49-.3l-.49-2.96c-.08-.38-.04-.38.3-.49.3-.08,1.29-.3,3.72-1.1v-4.18c.04-2.09-.04-3.88-.23-5.4,1.29.04,2.51.11,3.65.23.53.08.76.23.76.42,0,.3-.08.46-.23.8-.19.38-.23,1.22-.23,3.61v3.27l3.65-1.22v-5.51c0-2.28-.08-3.46-.3-5.39,1.44.04,2.62.11,3.88.3.38.04.61.19.61.42,0,.27-.11.46-.23.76-.19.46-.23,1.41-.23,3.42v4.79l2.93-.99c3.57-1.18,4.71-1.67,4.98-1.71.27-.04.42.08.42.38l-.11,4.86c-.08,3.84-.38,6.65-.91,8.59-.57,2.2-1.63,2.89-3.27,2.89-.45,0-.91,0-1.41-.08q-.84-.08-1.03-1.25c-.11-.87-.42-1.98-.8-2.74.8.19,1.48.27,2.01.27.65,0,.91-.19,1.14-1.41.27-1.44.42-2.93.46-6.65l-4.41,1.52v6.61c0,3.8.08,5.66.08,5.89,0,.38-.04.42-.42.42h-3.04c-.38,0-.42-.04-.42-.42,0-.27.08-2.09.08-5.89v-5.36l-3.65,1.25v12.04Z" style="fill: #231815;"/>
      <path d="M131.85,94.3c0-1.37,0-3.08.04-4.71-.57.84-1.22,1.63-1.9,2.47-.3.34-.53.53-.68.53-.23,0-.34-.23-.42-.65-.23-1.29-.68-2.66-1.14-3.46,2.93-3.42,4.98-7.6,6.5-12.23.27-.91.49-1.79.61-2.74,1.25.38,2.43.76,3.5,1.29.38.15.61.34.61.68,0,.27-.19.46-.42.68-.27.23-.42.57-.76,1.52-.68,1.94-1.37,3.72-2.17,5.43v19.23c0,3.68.08,5.55.08,5.74,0,.38-.04.42-.42.42h-3.08c-.38,0-.42-.04-.42-.42,0-.23.08-2.05.08-5.74v-8.06ZM144.31,79.93c-3.72,0-4.98.08-5.21.08-.38,0-.42-.04-.42-.42v-2.81c0-.42.04-.46.42-.46.23,0,1.48.08,5.21.08h13.45c3.72,0,4.98-.08,5.21-.08.38,0,.42.04.42.46v2.81c0,.38-.04.42-.42.42-.23,0-1.48-.08-5.21-.08h-2.43v5.85h1.18c3.69,0,5.02-.08,5.28-.08.38,0,.42.04.42.42,0,.23-.08,1.71-.08,6.23v6.61c0,6.69.08,8.09.08,8.32,0,.38-.04.42-.42.42h-2.96c-.38,0-.42-.04-.42-.42v-1.6h-15.92v1.75c0,.38-.04.42-.42.42h-2.93c-.38,0-.42-.04-.42-.42,0-.23.08-1.63.08-8.36v-6c0-5.24-.08-6.69-.08-6.95,0-.38.04-.42.42-.42.23,0,1.52.08,5.21.08h.99v-5.85h-1.03ZM145.34,102.31v-13.18h-2.85v13.18h2.85ZM151.8,85.79v-5.85h-2.93v5.85h2.93ZM151.8,102.31v-13.18h-2.93v13.18h2.93ZM155.33,89.13v13.18h3.08v-13.18h-3.08Z" style="fill: #231815;"/>
      <path d="M198.61,77.24c.3,0,.53-.04.68-.11.15-.08.3-.11.42-.11.3,0,.65.11,1.48.99.8.91.91,1.18.91,1.48,0,.27-.11.46-.42.68-.27.19-.49.46-.87,1.14-1.25,2.36-2.81,4.48-4.71,6.42,2.77,1.86,6,3.19,9.5,3.99-.53.8-.95,1.71-1.18,2.62q-.3,1.18-1.48.87c-.57-.19-1.18-.38-1.71-.61,0,.27-.08,1.33-.08,3.72v3.34c0,5.17.08,6.12.08,6.31,0,.38-.04.42-.42.42h-3c-.38,0-.42-.04-.42-.42v-1.48h-8.85v1.52c0,.38-.04.42-.42.42h-2.92c-.38,0-.42-.04-.42-.42,0-.23.08-1.18.08-6.31v-2.89c0-2.01-.04-3.08-.08-3.65l-1.14.46c-.42.15-.68.27-.91.27-.34,0-.49-.3-.8-1.03-.27-.76-.76-1.6-1.29-2.2,3.84-1.22,7.18-2.93,9.92-4.94-1.18-1.22-2.2-2.55-3.08-3.99-.8.95-1.63,1.82-2.55,2.66-.46.42-.68.61-.87.61-.23,0-.46-.23-.84-.72-.53-.65-1.1-1.22-1.75-1.63-.42,0-1.1-.04-2.09-.04,1.03,1.79,2.24,3.31,3.61,4.56-.49.68-.95,1.52-1.22,2.39-.15.49-.23.72-.42.72-.11,0-.3-.19-.57-.57-.65-.87-1.29-1.86-1.82-2.93,0,10.3.27,18.54.27,19.19,0,.42-.04.46-.46.46h-3.08c-.38,0-.42-.04-.42-.46,0-.61.23-7.94.27-16.83-.87,3.08-2.16,5.93-3.72,8.4-.23.38-.42.61-.57.61s-.3-.19-.42-.61c-.3-.99-.76-2.01-1.33-2.89,2.51-3.34,4.45-7.18,5.7-12.04h-.8c-2.66,0-3.5.08-3.72.08-.34,0-.38-.04-.38-.42v-2.7c0-.38.04-.42.38-.42.23,0,1.06.08,3.72.08h1.03v-2.39c0-2.36-.04-3.61-.3-5.21,1.44.04,2.62.11,3.8.27.38.04.65.19.65.42,0,.3-.11.53-.23.8-.23.46-.27,1.06-.27,3.65v2.47c2.24,0,2.96-.08,3.19-.08.38,0,.42.04.42.42v1.94c2.36-2.32,4.29-5.09,5.58-8.02.34-.76.57-1.44.72-2.17,1.29.19,2.47.42,3.5.68.42.11.61.27.61.46s-.11.34-.3.53c-.3.27-.49.57-.72,1.06l-.53,1.18h7.07ZM196.33,94.3c2.28,0,3.46-.04,4.03-.04-2.58-1.1-4.94-2.39-6.99-4.03-1.9,1.52-4.1,2.89-6.57,4.06h9.54ZM188.54,103.19h8.85v-5.43h-8.85v5.43ZM189.61,80.77c.95,1.75,2.2,3.31,3.65,4.67,1.6-1.56,2.89-3.23,3.8-4.94h-7.29l-.15.27Z" style="fill: #231815;"/>
      <path d="M57.37,14.18l3.19-.74,3.52,15.09,7.62-1.78.66,2.84-10.81,2.52-4.18-17.93Z" style="fill: #231815;"/>
      <path d="M82.46,25.6l-.08.02c-.18.61-.56,1.17-1.16,1.67s-1.32.86-2.18,1.06c-.49.11-1.01.17-1.58.17-.56,0-1.1-.1-1.62-.29-.52-.19-.98-.49-1.39-.91-.41-.41-.69-.97-.86-1.68-.21-.91-.12-1.7.26-2.36.39-.66.96-1.23,1.7-1.7.74-.48,1.6-.87,2.56-1.2.97-.32,1.92-.59,2.87-.82l-.07-.3c-.18-.76-.58-1.26-1.22-1.49-.63-.24-1.33-.26-2.09-.09-.64.15-1.23.43-1.75.84-.53.41-.94.85-1.24,1.33l-2-1.48c.54-.8,1.23-1.47,2.06-2,.83-.53,1.71-.9,2.63-1.12,1.08-.25,2.01-.31,2.78-.17.77.14,1.42.41,1.94.8.52.4.93.88,1.23,1.45.3.57.52,1.16.67,1.77l1.72,7.39-2.84.66-.36-1.54ZM81.48,21.61l-.68.16c-.49.11-1,.26-1.53.42-.53.17-1.01.38-1.43.63-.42.25-.75.54-1,.87-.24.33-.31.73-.2,1.18.07.29.19.51.36.68.17.16.37.28.6.35s.48.1.74.09c.26,0,.52-.04.78-.1,1.05-.24,1.77-.71,2.18-1.39.41-.68.5-1.51.28-2.47l-.1-.43Z" style="fill: #231815;"/>
      <path d="M86.8,13.41l2.89-.67.45,1.95h.05c.13-.68.47-1.33,1.03-1.95.56-.62,1.29-1.04,2.21-1.25.79-.18,1.5-.2,2.14-.06.63.15,1.18.41,1.65.78.47.37.86.83,1.16,1.38.3.55.53,1.14.68,1.76l1.77,7.6-3.04.71-1.57-6.74c-.08-.35-.19-.72-.33-1.1-.14-.38-.33-.7-.57-.97-.24-.27-.53-.48-.88-.61-.34-.13-.76-.14-1.25-.03-.49.11-.89.31-1.2.59-.31.28-.54.59-.7.95s-.25.75-.27,1.17c-.03.42,0,.84.1,1.24l1.56,6.69-3.04.71-2.83-12.15Z" style="fill: #231815;"/>
      <path d="M117.18,19.14l-2.89.67-.42-1.82h-.05c-.26.82-.72,1.5-1.38,2.04-.67.55-1.43.92-2.29,1.12-.93.22-1.8.24-2.62.06-.81-.17-1.55-.49-2.2-.96-.65-.46-1.21-1.05-1.67-1.77-.46-.72-.8-1.53-1-2.42-.21-.89-.26-1.76-.15-2.61.11-.84.35-1.61.74-2.31.39-.7.91-1.29,1.56-1.79.65-.5,1.4-.85,2.26-1.05.56-.13,1.07-.18,1.54-.16.47.02.89.09,1.26.2.37.11.7.25.99.41.29.16.53.33.73.5l.08-.02-1.99-8.53,3.04-.71,4.46,19.14ZM105.75,15.35c.11.47.29.93.55,1.37.25.44.57.81.94,1.12.37.3.81.52,1.3.66.49.13,1.04.13,1.63,0,.56-.13,1.03-.36,1.41-.69.39-.33.69-.72.92-1.16.23-.44.36-.92.42-1.42.05-.5.02-.99-.09-1.46-.11-.47-.3-.93-.57-1.36-.27-.43-.6-.8-1-1.1-.4-.3-.84-.51-1.34-.65-.49-.13-1.02-.14-1.58,0-.59.14-1.08.37-1.47.7-.39.33-.68.71-.88,1.15-.2.44-.32.91-.35,1.4-.04.5,0,.98.11,1.46Z" style="fill: #231815;"/>
      <rect x=".19" y="32.02" width="125.06" height="16.06" transform="translate(-7.45 15.27) rotate(-13.11)" style="fill: none;"/>
      <path d="M141.57,7.62l-.31,1.71h.08c.2-.2.44-.4.74-.61.29-.2.64-.37,1.03-.5.39-.13.83-.22,1.31-.26.48-.05,1-.02,1.56.09.87.16,1.64.47,2.31.94.67.47,1.22,1.04,1.64,1.72.42.68.71,1.44.85,2.27.15.84.14,1.71-.03,2.61-.17.9-.46,1.73-.89,2.47-.43.74-.96,1.36-1.58,1.85-.63.49-1.35.85-2.15,1.06-.8.21-1.68.23-2.62.06-.87-.16-1.63-.49-2.29-.98-.66-.49-1.13-1.08-1.41-1.77h-.05s-1.43,7.77-1.43,7.77l-3.07-.56,3.38-18.43,2.94.54ZM147.62,15.02c.09-.48.1-.96.04-1.46-.06-.5-.2-.96-.42-1.39-.22-.43-.53-.8-.93-1.11-.4-.31-.9-.52-1.5-.63-.56-.1-1.09-.08-1.58.08-.49.16-.92.4-1.31.71-.39.32-.7.7-.95,1.15-.25.45-.42.91-.51,1.39-.09.48-.09.97-.02,1.47.08.5.24.97.48,1.4.25.43.57.81.97,1.12.4.31.88.52,1.45.62.6.11,1.14.09,1.63-.07s.91-.4,1.27-.72c.36-.32.65-.71.89-1.16.23-.45.39-.92.48-1.39Z" style="fill: #231815;"/>
      <path d="M155.27,10.13l2.94.54-.38,2.05h.05c.47-.64,1.06-1.14,1.75-1.47.7-.33,1.45-.42,2.27-.27.12.02.25.05.38.08.13.03.25.08.35.13l-.52,2.82c-.2-.09-.36-.15-.51-.2-.14-.04-.28-.08-.42-.1-.7-.13-1.29-.1-1.76.07-.47.18-.86.42-1.17.74-.3.31-.53.65-.69,1.01-.15.36-.25.65-.29.87l-1.21,6.58-3.07-.56,2.25-12.29Z" style="fill: #231815;"/>
      <path d="M165.13,11.94l3.07.56-2.25,12.29-3.07-.56,2.25-12.29ZM165.46,7.69c.09-.49.35-.89.79-1.19.43-.3.93-.4,1.5-.29.56.1,1,.37,1.32.79.32.42.43.89.33,1.42-.1.53-.37.93-.82,1.21-.45.28-.95.37-1.52.26-.56-.1-.99-.37-1.3-.81-.3-.43-.4-.9-.31-1.39Z" style="fill: #231815;"/>
      <path d="M180.05,18.19c-.18-.38-.48-.74-.92-1.05-.44-.32-.9-.52-1.4-.61-.56-.1-1.08-.08-1.55.07-.47.15-.88.39-1.23.71-.35.32-.64.71-.86,1.15-.22.44-.38.91-.46,1.38-.09.48-.1.96-.04,1.46.06.5.2.96.42,1.39.22.43.53.8.92,1.11.39.31.88.52,1.46.62.48.09.97.08,1.48-.02.51-.1.95-.3,1.3-.61l1.56,2.3c-.61.45-1.34.75-2.19.91-.85.15-1.73.14-2.65-.02-.91-.17-1.74-.47-2.49-.91-.76-.44-1.39-1-1.89-1.67-.5-.67-.86-1.44-1.06-2.31-.2-.87-.21-1.81-.02-2.83.18-.99.52-1.85,1.02-2.59.5-.74,1.1-1.33,1.79-1.79.7-.45,1.48-.76,2.33-.92s1.73-.16,2.63,0c.9.17,1.75.5,2.53.99.78.5,1.37,1.09,1.75,1.78l-2.44,1.46Z" style="fill: #231815;"/>
      <path d="M195.64,24.04c-.03.14-.05.27-.08.41-.03.14-.06.27-.1.41l-9.34-1.71c-.05.45,0,.88.12,1.28.13.4.33.77.61,1.09.28.32.6.6.99.83.38.23.79.38,1.24.47.77.14,1.44.12,2.02-.07s1.09-.49,1.52-.93l1.75,2.01c-1.51,1.42-3.42,1.91-5.72,1.49-.96-.18-1.81-.49-2.55-.93-.75-.45-1.37-1-1.85-1.65-.49-.65-.83-1.41-1.01-2.26-.19-.85-.19-1.78,0-2.79.18-.99.51-1.86.99-2.61.48-.75,1.06-1.36,1.75-1.82.69-.47,1.45-.78,2.3-.95.85-.17,1.74-.17,2.66,0,.85.16,1.62.44,2.29.86.67.41,1.22.95,1.65,1.6.43.65.71,1.42.86,2.3.15.88.12,1.88-.08,2.99ZM192.82,22.1c.07-.39.09-.78.04-1.16-.04-.38-.16-.73-.35-1.04-.19-.32-.45-.59-.79-.82-.34-.23-.75-.39-1.25-.48-.92-.17-1.75-.03-2.49.4-.74.44-1.23,1.08-1.45,1.94l6.3,1.15Z" style="fill: #231815;"/>
      <path d="M206.4,22.89c-.21-.41-.53-.79-.95-1.14-.43-.35-.92-.58-1.49-.68-.5-.09-.97-.07-1.41.06-.45.13-.71.43-.8.91-.09.48.08.86.49,1.14.42.28,1.04.6,1.87.97.44.19.88.41,1.32.67.44.26.82.56,1.15.91.33.35.58.76.74,1.22s.19.99.08,1.59c-.14.75-.4,1.36-.77,1.83-.38.47-.83.82-1.36,1.06-.53.24-1.12.37-1.77.4-.65.03-1.31-.02-1.97-.14-.96-.17-1.85-.52-2.69-1.04-.84-.52-1.5-1.15-1.98-1.91l2.37-1.52c.26.51.64.95,1.13,1.34.49.39,1.07.65,1.74.77.22.04.45.06.69.05.24,0,.47-.05.68-.13s.4-.2.56-.36c.15-.17.26-.38.31-.66.09-.51-.07-.92-.5-1.23-.43-.31-1.09-.66-1.99-1.05-.44-.19-.87-.4-1.27-.64-.41-.24-.75-.53-1.05-.85-.29-.33-.51-.71-.64-1.14-.13-.43-.15-.93-.04-1.52.12-.68.37-1.25.75-1.69.37-.44.82-.78,1.34-1.01.52-.23,1.08-.37,1.69-.42.61-.05,1.22-.01,1.83.1.89.16,1.72.48,2.51.94.79.46,1.37,1.05,1.75,1.78l-2.32,1.4Z" style="fill: #231815;"/>
      <rect x="125.87" y="28.99" width="125.06" height="16.06" transform="translate(9.72 -33.24) rotate(10.35)" style="fill: none;"/>
    </g>
  </g>
</svg>