<?xml version="1.0" encoding="UTF-8"?>
<svg id="_レイヤー_2" data-name="レイヤー 2" xmlns="http://www.w3.org/2000/svg" viewBox="0 0 546.73 383.72">
  <g id="_レイヤー_1-2" data-name="レイヤー 1">
    <g>
      <g>
        <g>
          <polyline points="540.64 314.76 540.64 126.03 273.37 40.14 6.1 126.03 6.1 302.4" style="fill: none; stroke: #000; stroke-miterlimit: 10; stroke-width: 4px;"/>
          <g>
            <path d="M74.03,150.16l18.46,49.04,18.41-49.04h14.37v63.98h-11.07v-21.09l1.1-28.21-18.9,49.31h-7.95l-18.85-49.26,1.1,28.17v21.09h-11.07v-63.98h14.41Z"/>
            <path d="M140.63,189.93c0-4.66.92-8.86,2.77-12.59,1.85-3.74,4.44-6.61,7.78-8.61,3.34-2.01,7.18-3.01,11.51-3.01,6.42,0,11.62,2.07,15.62,6.2,4,4.13,6.16,9.61,6.48,16.44l.04,2.5c0,4.69-.9,8.88-2.7,12.57-1.8,3.69-4.38,6.55-7.73,8.57-3.35,2.02-7.23,3.03-11.62,3.03-6.71,0-12.08-2.23-16.11-6.7-4.03-4.47-6.04-10.42-6.04-17.86v-.53ZM151.31,190.85c0,4.89,1.01,8.72,3.03,11.49,2.02,2.77,4.83,4.15,8.44,4.15s6.41-1.41,8.42-4.22c2.01-2.81,3.01-6.93,3.01-12.35,0-4.8-1.03-8.61-3.1-11.43-2.07-2.81-4.87-4.22-8.42-4.22s-6.26,1.38-8.31,4.15c-2.05,2.77-3.08,6.91-3.08,12.41Z"/>
            <path d="M197.22,190.02c0-7.32,1.7-13.21,5.1-17.64,3.4-4.44,7.96-6.66,13.67-6.66,5.04,0,9.11,1.76,12.22,5.27v-24.35h10.68v67.5h-9.67l-.53-4.92c-3.19,3.87-7.46,5.8-12.79,5.8s-10.07-2.24-13.51-6.72c-3.44-4.48-5.16-10.58-5.16-18.28ZM207.9,190.94c0,4.83.93,8.61,2.79,11.32,1.86,2.71,4.5,4.07,7.93,4.07,4.37,0,7.56-1.95,9.58-5.84v-20.3c-1.96-3.81-5.13-5.71-9.49-5.71-3.46,0-6.12,1.37-8,4.11-1.88,2.74-2.81,6.86-2.81,12.37Z"/>
            <path d="M275.97,215.02c-6.77,0-12.25-2.13-16.46-6.39-4.2-4.26-6.31-9.94-6.31-17.03v-1.32c0-4.75.92-8.99,2.75-12.72,1.83-3.74,4.4-6.64,7.71-8.72,3.31-2.08,7-3.12,11.07-3.12,6.47,0,11.48,2.07,15.01,6.2,3.53,4.13,5.29,9.98,5.29,17.53v4.31h-31.07c.32,3.93,1.63,7.03,3.93,9.32,2.3,2.29,5.19,3.43,8.68,3.43,4.89,0,8.88-1.98,11.95-5.93l5.76,5.49c-1.91,2.84-4.45,5.05-7.62,6.61-3.18,1.57-6.75,2.35-10.7,2.35ZM274.7,174.29c-2.93,0-5.3,1.03-7.1,3.08-1.8,2.05-2.95,4.91-3.45,8.57h20.35v-.79c-.23-3.57-1.19-6.28-2.86-8.11-1.67-1.83-3.98-2.75-6.94-2.75Z"/>
            <path d="M320.14,214.15h-10.68v-67.5h10.68v67.5Z"/>
          </g>
          <g>
            <path d="M280.46,300.23h-11.07v-28.39h-28.61v28.39h-11.12v-63.98h11.12v26.63h28.61v-26.63h11.07v63.98Z"/>
            <path d="M295.82,276.01c0-4.66.92-8.86,2.77-12.59,1.85-3.74,4.44-6.61,7.78-8.61,3.34-2.01,7.18-3.01,11.51-3.01,6.42,0,11.62,2.07,15.62,6.2,4,4.13,6.16,9.61,6.48,16.44l.04,2.5c0,4.69-.9,8.88-2.7,12.57-1.8,3.69-4.38,6.55-7.73,8.57-3.35,2.02-7.23,3.03-11.62,3.03-6.71,0-12.08-2.23-16.11-6.7-4.03-4.47-6.04-10.42-6.04-17.86v-.53ZM306.5,276.94c0,4.89,1.01,8.72,3.03,11.49,2.02,2.77,4.83,4.15,8.44,4.15s6.41-1.41,8.42-4.22c2.01-2.81,3.01-6.93,3.01-12.35,0-4.8-1.03-8.61-3.1-11.43-2.07-2.81-4.87-4.22-8.42-4.22s-6.26,1.38-8.31,4.15c-2.05,2.77-3.08,6.91-3.08,12.41Z"/>
            <path d="M382.97,295.57c-3.13,3.69-7.59,5.54-13.36,5.54-5.16,0-9.06-1.51-11.71-4.53-2.65-3.02-3.98-7.38-3.98-13.1v-30.81h10.68v30.67c0,6.04,2.51,9.05,7.52,9.05s8.69-1.86,10.5-5.58v-34.15h10.68v47.55h-10.06l-.26-4.66Z"/>
            <path d="M435.85,287.31c0-1.9-.78-3.35-2.35-4.35-1.57-1-4.17-1.87-7.8-2.64-3.63-.76-6.67-1.73-9.1-2.9-5.33-2.58-8-6.31-8-11.21,0-4.1,1.73-7.53,5.19-10.28,3.46-2.75,7.85-4.13,13.18-4.13,5.68,0,10.28,1.41,13.78,4.22,3.5,2.81,5.25,6.46,5.25,10.94h-10.68c0-2.05-.76-3.76-2.29-5.12-1.52-1.36-3.54-2.04-6.06-2.04-2.34,0-4.26.54-5.73,1.63-1.48,1.08-2.22,2.53-2.22,4.35,0,1.64.69,2.92,2.07,3.82,1.38.91,4.16,1.82,8.35,2.75,4.19.92,7.48,2.02,9.87,3.3,2.39,1.27,4.16,2.81,5.32,4.59,1.16,1.79,1.74,3.96,1.74,6.5,0,4.28-1.77,7.74-5.32,10.39-3.54,2.65-8.19,3.98-13.93,3.98-3.9,0-7.37-.7-10.42-2.11-3.05-1.41-5.42-3.34-7.12-5.8-1.7-2.46-2.55-5.11-2.55-7.95h10.37c.15,2.52,1.1,4.46,2.86,5.82s4.09,2.04,6.99,2.04,4.95-.53,6.42-1.6c1.46-1.07,2.2-2.47,2.2-4.2Z"/>
            <path d="M481.26,301.11c-6.77,0-12.25-2.13-16.46-6.39-4.2-4.26-6.31-9.94-6.31-17.03v-1.32c0-4.75.92-8.99,2.75-12.72,1.83-3.74,4.4-6.64,7.71-8.72,3.31-2.08,7-3.12,11.07-3.12,6.47,0,11.48,2.07,15.01,6.2,3.53,4.13,5.29,9.98,5.29,17.53v4.31h-31.07c.32,3.93,1.63,7.03,3.93,9.32,2.3,2.29,5.19,3.43,8.68,3.43,4.89,0,8.88-1.98,11.95-5.93l5.76,5.49c-1.91,2.84-4.45,5.05-7.62,6.61-3.18,1.57-6.75,2.35-10.7,2.35ZM479.99,260.37c-2.93,0-5.3,1.03-7.1,3.08-1.8,2.05-2.95,4.91-3.45,8.57h20.35v-.79c-.23-3.57-1.19-6.28-2.86-8.11-1.67-1.83-3.98-2.75-6.94-2.75Z"/>
          </g>
        </g>
        <g>
          <path d="M305.1,11.87l6.02,1.93c2.43.78,5.07,1.56,7.17,2.13.29.09.3.28.2.71-.18.8-.47,1.67-.78,2.43-.21.54-.33.57-.8.38-2.25-.76-4.74-1.59-6.87-2.28l-6.05-1.94-1.57,4.89c-.32,1-.19,1.58.32,2,.61.45,1.54.89,3.41,1.49,1.91.61,4.28,1.23,5.82,1.44.29.09.35.25.23.61-.12.6-.4,1.59-.72,2.59-.18.55-.37.6-.87.47-1.22-.21-3.49-.8-6.11-1.64-2.82-.9-4.3-1.74-5.32-2.67-1.27-1.16-1.52-2.6-.87-4.63l1.85-5.76-2.07-.67c-2.85-.92-5.27-1.59-6.78-2-.43-.1-.46-.36-.35-.79.1-.75.48-2.06.76-3.15,1.92.8,4.47,1.65,7.48,2.62l2.04.66,1.64-5.11c-3.11-1-4.5-1.45-5.65-1.75-.42-.14-.5-.34-.36-.76.21-1,.52-2.05.84-3.05,1.51.63,4.06,1.48,6.55,2.28l6.54,2.1c2.56.82,4.65,1.42,6.42,1.92.39.12.43.32.31.71-.22.79-.46,1.64-.71,2.42-.15.45-.35.53-.86.33-1.91-.61-4.1-1.35-6.24-2.04l-2.98-.96-1.64,5.11Z" style="fill: #231815;"/>
          <path d="M341.15,24.92c-1.36,3.56-2.51,5.58-4.56,7.64-2.11,2.11-5.2,3.72-7.66,4.29-.43.11-.8.17-1.1.08-.23-.07-.42-.24-.58-.54-.44-.86-1.33-1.86-2.33-2.64,3.72-.7,6.14-1.67,8.29-3.69,1.88-1.75,2.77-3.4,3.89-6.43l-6.15-1.98c-1.62-.52-3.24-.93-4.92-1.37-.3-.06-.33-.32-.22-.75.13-.96.43-2.22.74-3.19,1.76.74,3.57,1.33,5.45,1.93l14.53,4.67c2.52.81,4.42,1.35,6.37,1.83.32.1.29.31.15.76-.1.43-.63,2.08-.8,2.49-.14.42-.37.49-.66.39-1.66-.61-3.88-1.39-6.11-2.11l-4.34-1.39ZM337.15,15.35c-1.49-.48-2.8-.83-4.64-1.35-.42-.13-.47-.33-.37-.73.15-.81.49-1.98.77-3.18,2.22.86,3.86,1.42,5.32,1.89l5.96,1.91c1.81.58,3.86,1.21,5.51,1.63.32.1.33.32.19.74-.18.8-.44,1.61-.76,2.36-.15.45-.26.59-.62.48-1.73-.63-3.63-1.27-5.41-1.84l-5.96-1.91ZM352.88,14.19c.19-.04.31.03.42.24.66,1.18,1.24,2.93,1.54,4.64.03.23-.02.39-.33.47l-1.74.41c-.27.06-.41-.06-.47-.33-.33-1.86-.81-3.47-1.61-4.98l2.18-.44ZM356.53,13.37c.24-.07.31.03.42.24.77,1.39,1.36,3.11,1.59,4.51.04.22,0,.43-.35.53l-1.64.44c-.34.07-.46-.11-.5-.34-.28-1.7-.76-3.31-1.59-4.94l2.07-.44Z" style="fill: #231815;"/>
          <path d="M369.12,25.7c.5.34.44.75.1,1.14-.58.6-.85,1.3-1.1,2.08-1.36,4.02-2.97,6.9-4.8,8.95-1.48,1.71-3.58,3.35-6.55,4.61-.41.15-.72.23-.98.15-.19-.06-.36-.22-.53-.46-.63-.81-1.28-1.45-2.31-2.24,3.14-1.1,5.49-2.52,7.44-4.71,1.61-1.91,2.61-3.56,4.3-8.72.39-1.23.5-1.77.55-2.82,1.77.82,3.19,1.52,3.88,2.03ZM371.9,41.7c1.86-.33,3.67-.86,5.56-1.53,2.42-.87,4.88-1.97,7.43-3.68-.23,1.17-.25,2.35-.05,3.59.02.26.07.45.02.61-.07.23-.27.41-.75.65-2.15,1.13-4.06,1.98-6.15,2.7-2.1.75-4.32,1.43-7.01,2.03-.71.2-.79.25-1.16.38-.25.1-.5.12-.73.05-.19-.06-.39-.23-.6-.48-.56-.71-1.03-1.79-1.31-2.6-.1-.35-.13-.58-.07-.77.05-.16.13-.28.29-.44.36-.35.45-.75.99-2.4l3.25-10.13c.91-2.82,1.33-4.14,1.49-5.74,1.24.58,2.95,1.38,3.83,1.98.39.23.49.48.41.74-.06.19-.25.45-.52.73-.49.52-.7,1.17-1.45,3.5l-3.47,10.81Z" style="fill: #231815;"/>
          <path d="M396.83,40.49c1.51-1.69,2.52-3.19,3-4.32,1.46,1.11,2.73,2.16,3.48,2.94.25.22.29.45.22.64-.07.23-.28.41-.53.54-.47.24-.88.61-1.77,1.61-3.29,3.69-6.26,6.38-10.42,8.65-.4.23-.74.3-1.06.19-.26-.08-.46-.25-.64-.56-.48-.73-1.35-1.58-2.4-2.31,4.37-1.92,7.88-4.86,10.12-7.39ZM410.35,39.98c.2-.08.39-.09.52-.05.16.05.27.16.4.41,2.39,4.66,3.76,9.74,4.31,14.49.04.19.04.33-.02.49-.06.19-.21.32-.49.41-.77.29-2.03.63-3.24.85-.48.06-.69-.08-.68-.54-.66-6.18-1.84-10.73-3.95-15.16,1.42-.4,2.49-.74,3.15-.92Z" style="fill: #231815;"/>
          <path d="M444.7,49.84c1.52.49,2.04.55,2.54.42.16-.06.34-.07.51-.02.26.08.48.3.61.55.49.69,1.16,1.84,1.52,2.7.11.21.12.4.07.56-.08.26-.29.44-.55.61-.56.29-.88.86-1.22,1.36-2.07,3.01-4.29,5.91-7.14,8.21-2.81,2.31-7,4.35-10.9,5.25-.24.07-.42.08-.58.03-.23-.07-.38-.26-.58-.54-.79-1-1.6-1.69-2.77-2.5,5.38-1.06,8.62-2.48,11.85-5.08,2.7-2.17,4.73-4.62,6.66-7.82l-14.08-4.52-.87,2.72c-.42,1.29-.78,2.64-1.16,3.95-.17.52-.29.58-.72.45-.99-.25-2.03-.58-2.98-.96-.42-.13-.49-.26-.36-.65.56-1.64.94-2.7,1.35-3.99l.84-2.62c.33-1.04.71-2.2.94-3.16.06-.3.3-.37.59-.28,1.5.55,3.27,1.16,4.89,1.68l3.3,1.06.41-1.26c.55-1.72.98-3.04,1.06-4.41,1.54.64,3.01,1.29,3.86,1.78.61.34.69.76.26,1.19-.31.4-.75,1.01-1.19,2.37l-.5,1.55,4.34,1.39Z" style="fill: #231815;"/>
          <path d="M474.86,57.5c1.17.37,1.76.53,2.33.43.16-.06.27-.06.4-.02.19.06.31.24.47.44.56.82,1.03,1.9,1.38,2.94.04.19.07.34.03.47-.06.19-.26.38-.63.51-.54.22-1.11.57-1.65,1.04-2.06,1.84-3.9,3.25-6.09,4.72,2.37,3.3,4.44,6.75,6.45,10.71.11.21.16.41.11.54-.04.13-.16.27-.38.41-.85.55-1.85,1.08-2.88,1.5-.17.09-.32.11-.45.07-.16-.05-.26-.19-.37-.4-1.7-4.05-3.66-7.5-5.84-10.73-4.88,2.64-9.46,4.21-13.62,5.05-.33.04-.6.09-.83.02-.19-.06-.36-.22-.46-.47-.43-1.1-1.16-2.05-2.04-2.98,5.87-.94,9.62-2.27,14.05-4.59,3.11-1.68,5.63-3.4,8.7-6.17l-8.36-2.65c-1.68-.54-3.39-1.02-5.18-1.45-.27-.05-.29-.31-.24-.69.06-.73.43-2.33.79-3.46,1.71.69,3.32,1.21,5.43,1.89l8.9,2.86Z" style="fill: #231815;"/>
        </g>
        <g>
          <path d="M12.99,79.17c-1.84.59-3.78,1.35-5.65,2.1-.38.16-.58-.03-.74-.3-.55-.82-1.26-2.38-1.7-3.31,2.25-.54,4.05-1.05,6.64-1.88l13.89-4.45c1.36-.44,1.89-.68,2.17-.91.14-.12.38-.37.54-.42.26-.08.58.03.89.21.91.39,1.74.87,2.6,1.42.22.14.38.31.45.5.08.26,0,.54-.24.83-.27.37-.43.78-.57,1.22-.79,2.79-2.08,5.66-3.7,8.07-.13.26-.33.43-.59.51-.26.08-.59.05-.88-.07-1.02-.39-1.94-.49-3.11-.47,1.97-2.77,3.11-4.67,3.98-7.52l-13.99,4.48ZM18.85,91.21c.49-2.69.14-5.01-.86-8.15-.38-1.2-.69-1.92-1.3-2.94,1.64-.35,3.39-.66,4.37-.72.45-.04.65.15.75.44.06.19.06.41.02.63-.08.53,0,.86.13,1.42.91,3.17,1.51,6.16.94,9.52-.48,2.83-1.69,5.75-3.83,8.33-.23.29-.48.51-.8.61-.23.07-.48.05-.74-.08-1-.43-2.1-.65-3.48-.71,2.94-2.98,4.22-5.32,4.79-8.35Z" style="fill: #231815;"/>
          <path d="M54.54,62.92c1.16-.37,1.74-.59,2.14-1.01.1-.14.19-.2.31-.24.2-.06.4.02.63.08.93.34,1.95.95,2.83,1.59.15.13.25.24.3.37.06.19,0,.46-.21.78-.31.49-.57,1.11-.74,1.81-.6,2.69-1.28,4.91-2.2,7.38,3.84,1.3,7.54,2.9,11.48,4.96.21.11.36.24.4.37.04.13.03.31-.07.56-.38.94-.87,1.96-1.46,2.9-.09.17-.2.28-.33.32-.16.05-.32,0-.54-.11-3.74-2.3-7.34-3.97-10.99-5.33-2.43,4.99-5.24,8.93-8.14,12.03-.25.22-.43.42-.66.5-.2.06-.42.03-.64-.12-.99-.65-2.14-.99-3.39-1.23,4.23-4.18,6.5-7.44,8.75-11.91,1.55-3.18,2.6-6.04,3.48-10.08l-8.34,2.71c-1.68.54-3.35,1.14-5.05,1.83-.25.11-.42-.08-.6-.42-.38-.63-1.01-2.14-1.37-3.27,1.79-.43,3.41-.95,5.51-1.62l8.9-2.85Z" style="fill: #231815;"/>
          <path d="M88.93,52.97c.93-.33,1.29-.66,1.62-1.06.17-.23.32-.35.48-.4.16-.05.39-.02.67.07.85.19,2.03.78,2.83,1.27.26.13.38.31.45.5.06.19.03.42-.16.73-.23.4-.45.82-.58,1.54-.51,3.2-1.18,6.34-2.25,9.36,1.67.64,3.26,1.38,4.54,2.15.17.09.29.23.34.39.04.13.03.31-.06.48-.28.7-.95,2.05-1.35,2.68-.1.14-.21.24-.34.29-.1.03-.25,0-.42-.08-1.07-.66-2.78-1.54-4.15-2.13-2.16,4.62-4.69,8.21-7.73,11.4-.24.25-.46.47-.72.55-.19.06-.42.03-.71-.09-1.31-.51-2.35-.64-3.6-.67,4.2-4.17,6.69-7.53,9.1-12.59-1.55-.61-3.33-1.15-5.64-1.55.46-1.01.87-2.06,1.4-2.98.09-.17.19-.31.35-.36.1-.03.21,0,.37.03,1.34.18,3.07.66,5.01,1.25.91-2.51,1.43-4.99,1.73-7.62l-7.98,2.73c-1.57,4.25-2.95,7.16-4.59,9.51-.17.23-.33.43-.55.5-.16.05-.38.05-.59-.06-1-.32-1.98-.51-3.2-.62,3.38-5.05,4.85-8.8,5.9-13.1.48-2.08.62-3.09.47-4.54,1.23.04,3.09.05,4.3.37.3.05.46.21.52.4.07.23,0,.54-.18.77-.23.29-.37.62-.46.9-.11.54-.2.92-.48,1.94l5.66-1.96Z" style="fill: #231815;"/>
          <path d="M111.11,58.57c-3.21,1.03-4.31,1.81-4.63,1.91-.39.12-.71.01-.96-.44-.4-.69-1.08-2.15-1.74-3.76,2.21-.35,3.85-.81,7.12-1.85l10.42-3.34c2.46-.79,4.93-1.65,7.42-2.48.48-.19.6-.12.73.27.38.95.73,2.05.98,3.04.12.39.04.56-.43.67-2.44.75-4.84,1.48-7.24,2.25l-11.66,3.74Z" style="fill: #231815;"/>
          <path d="M141.15,43.23c.24-2.25.2-4.06-.08-5.26,1.84.05,3.48.17,4.54.36.33.04.49.2.55.39.07.23.02.49-.12.75-.24.47-.36,1.01-.5,2.34-.53,4.92-1.38,8.83-3.44,13.1-.19.42-.43.67-.75.78-.26.08-.52.06-.85-.09-.81-.31-2.02-.5-3.29-.48,2.43-4.1,3.58-8.54,3.93-11.9ZM151.85,34.95c.12-.18.26-.3.39-.34.16-.05.31-.03.57.1,4.66,2.4,8.73,5.73,11.93,9.28.15.13.22.25.28.41.06.19.02.39-.16.62-.46.68-1.28,1.69-2.14,2.58-.36.33-.61.34-.87-.04-4.13-4.64-7.74-7.66-12.03-10.03.92-1.15,1.59-2.05,2.03-2.58Z" style="fill: #231815;"/>
          <path d="M185.53,22.97c1.52-.49,1.98-.74,2.31-1.13.1-.14.24-.25.4-.31.26-.08.56-.04.82.1.8.28,2.01.82,2.81,1.31.21.11.33.25.38.41.08.26.03.53-.1.82-.29.56-.22,1.21-.2,1.81.07,3.66-.05,7.3-1.03,10.83-.94,3.52-3.16,7.62-5.81,10.61-.15.19-.29.31-.46.36-.23.07-.46,0-.78-.11-1.22-.36-2.28-.45-3.7-.42,3.76-3.99,5.57-7.03,6.68-11.03.93-3.33,1.16-6.51.86-10.24l-14.08,4.51.87,2.72c.42,1.29.9,2.6,1.35,3.89.17.52.1.65-.32.78-.95.38-1.99.71-2.98.95-.42.14-.55.07-.67-.32-.5-1.66-.81-2.74-1.22-4.04l-.84-2.62c-.33-1.04-.71-2.2-1.07-3.12-.13-.28.03-.47.32-.57,1.54-.42,3.33-.96,4.95-1.48l3.3-1.06-.4-1.26c-.55-1.72-.98-3.04-1.7-4.2,1.63-.38,3.2-.7,4.17-.8.69-.08,1,.22.9.82-.02.51-.02,1.26.41,2.62l.5,1.55,4.34-1.39Z" style="fill: #231815;"/>
          <path d="M214.51,11.65c1.16-.37,1.74-.59,2.14-1.01.1-.14.18-.2.31-.24.19-.06.4.02.63.08.93.34,1.95.95,2.83,1.59.15.13.25.24.3.37.06.19,0,.46-.21.78-.31.49-.57,1.11-.74,1.81-.6,2.69-1.28,4.91-2.2,7.38,3.84,1.3,7.54,2.9,11.48,4.96.21.11.36.24.4.37.04.13.03.31-.07.56-.38.94-.87,1.96-1.46,2.9-.09.17-.2.28-.33.32-.16.05-.32,0-.54-.11-3.74-2.3-7.34-3.97-10.99-5.33-2.43,4.99-5.24,8.93-8.14,12.03-.25.22-.43.42-.66.5-.19.06-.42.03-.64-.12-.99-.65-2.14-.99-3.39-1.23,4.23-4.18,6.5-7.44,8.75-11.91,1.55-3.18,2.6-6.04,3.48-10.08l-8.34,2.71c-1.68.54-3.35,1.14-5.05,1.83-.25.11-.42-.08-.6-.42-.38-.63-1.01-2.14-1.37-3.27,1.79-.43,3.41-.95,5.51-1.62l8.9-2.85Z" style="fill: #231815;"/>
          <path d="M246.32,4.38c1.02,5.74,1.28,11.23.43,15.25-.61,2.87-1.88,4.71-4.31,5.49-2.85.91-6.71-1.21-8.4-6.48-1-3.11-.62-6.51.96-9.59,1.85-3.59,4.82-6.12,9.19-7.52,7.77-2.49,13.87.84,15.93,7.28,1.93,6.02-.25,10.9-6.19,14.98-.62.41-.95.38-1.58-.14-.53-.44-1.45-.96-2.92-1.31,5.06-3.05,8.64-6.7,6.67-12.81-1.23-3.85-5.32-6.58-9.66-5.19l-.13.04ZM238.04,10.5c-.99,2.25-1.27,4.73-.61,6.8.96,2.98,2.68,4.25,3.69,3.92.84-.27,1.42-.92,1.8-2.75.58-3.08.55-8.21-.28-12.69-2.12,1.18-3.64,2.67-4.59,4.72Z" style="fill: #231815;"/>
        </g>
        <g>
          <path d="M77.71,373.08c-2.52,0-3.39.06-3.56.06-.28,0-.31-.03-.31-.34v-2.04c0-.28.03-.31.31-.31.17,0,1.04.06,3.56.06h6.72v-5.99h-5.15c-2.69,0-3.58.06-3.75.06-.28,0-.31-.03-.31-.31v-2.07c0-.28.03-.31.31-.31.17,0,1.06.06,3.75.06h5.15v-.59c0-1.62-.03-2.18-.2-3.3,1.01.03,2.04.08,3.02.2.28.03.39.17.39.28,0,.28-.11.53-.17.78-.08.36-.14.9-.14,2.02v.62h5.57c2.69,0,3.58-.06,3.75-.06.31,0,.34.03.34.31v2.07c0,.28-.03.31-.34.31-.17,0-1.06-.06-3.75-.06h-5.57v5.99h1.76c.78-1.34,1.43-2.63,1.85-3.81.2-.5.36-.98.45-1.48.92.17,2.02.45,2.83.7.34.11.45.25.45.45,0,.17-.08.28-.25.36-.17.11-.36.39-.7,1.01-.53.92-1.04,1.79-1.68,2.77h2.41c2.52,0,3.39-.06,3.56-.06.28,0,.31.03.31.31v2.04c0,.31-.03.34-.31.34-.17,0-1.04-.06-3.56-.06h-5.35c2.52,2.86,5.57,4.87,10.05,6.75-.56.53-1.06,1.29-1.46,2.04-.22.5-.31.7-.5.7-.14,0-.31-.11-.64-.28-3.72-1.9-6.97-4.51-9.3-7.9.06,4.06.14,7.98.14,9.02,0,.28-.03.31-.31.31h-2.44c-.28,0-.31-.03-.31-.31,0-1.09.11-4.9.14-8.85-2.27,3.3-5.12,5.66-8.74,7.64-.34.17-.53.28-.67.28-.2,0-.28-.2-.53-.67-.39-.78-.81-1.32-1.32-1.85,4.03-1.82,7-3.86,9.32-6.89h-4.84ZM79.59,365.32c.31-.11.39-.11.56.14.64,1.04,1.2,2.04,1.76,3.44.11.28.03.34-.28.45l-2.02.76c-.36.14-.42.11-.53-.17-.48-1.29-1.06-2.52-1.68-3.44-.17-.28-.11-.36.22-.48l1.96-.7Z"/>
          <path d="M109.46,373.52c.76-.36,1.54-.73,2.32-1.15-.03.48-.03,1.12-.03,1.74q0,.9-.73,1.29c-1.62.9-3.36,1.74-5.15,2.41-.48.17-.78.31-.9.39-.17.14-.34.25-.5.25s-.28-.08-.42-.36c-.28-.67-.5-1.48-.76-2.49.92-.17,1.76-.36,2.77-.7.2-.08.42-.14.64-.22v-6.94h-.22c-1.85,0-2.41.06-2.58.06-.25,0-.28-.03-.28-.31v-2.13c0-.28.03-.31.28-.31.17,0,.73.06,2.58.06h.22v-2.41c0-1.99-.03-2.86-.22-4.23,1.09.03,1.93.08,2.86.17.28.03.45.17.45.31,0,.2-.08.36-.17.56-.14.36-.17,1.06-.17,3.11v2.49c1.51,0,2.04-.06,2.21-.06.28,0,.31.03.31.31v2.13c0,.28-.03.31-.31.31-.17,0-.7-.06-2.21-.06v5.8ZM124.36,375.04c-1.4,3.3-3.64,5.96-6.89,8.12-.34.2-.5.31-.67.31-.2,0-.36-.17-.7-.53-.39-.45-.81-.81-1.23-1.06,3.44-1.85,5.6-4.09,6.89-6.83h-1.51c-1.74,2.69-3.95,4.76-6.52,6.22-.34.2-.53.31-.7.31-.22,0-.36-.17-.7-.53-.34-.39-.73-.7-1.18-.98,2.63-1.23,4.73-2.94,6.24-5.01h-1.76c-1.04,1.29-2.32,2.44-3.7,3.3-.36.22-.53.36-.7.36s-.31-.17-.59-.5c-.39-.48-.87-.87-1.34-1.18,2.21-1.2,3.95-2.74,5.18-4.59.25-.36.42-.76.59-1.18-2.3,0-3.16.06-3.3.06-.28,0-.31-.03-.31-.34v-1.82c0-.28.03-.31.31-.31.17,0,1.09.06,3.81.06h9.38c2.72,0,3.67-.06,3.81-.06.28,0,.31.03.31.31v1.82c0,.31-.03.34-.31.34-.14,0-1.09-.06-3.81-.06h-8.4l.92.22c.25.08.39.25.39.36,0,.2-.08.28-.22.36-.14.11-.28.2-.45.5h7.31c2.38,0,3.19-.06,3.36-.06.31,0,.39.06.36.36l-.2,2.83c-.14,2.41-.39,4.12-.87,5.38-.56,1.48-1.46,2.16-3.16,2.16-.53,0-.92,0-1.43-.06q-.64-.06-.87-.92c-.2-.7-.45-1.32-.73-1.85,1.04.17,1.9.17,2.55.17s.84-.08,1.09-.87c.22-.73.5-1.99.73-4.82h-.98ZM122.76,359.02c2.41,0,3.19-.06,3.39-.06.28,0,.31.03.31.31,0,.17-.06.84-.06,2.38v3.39c0,1.6.06,2.24.06,2.41,0,.28-.03.31-.31.31-.2,0-.98-.06-3.39-.06h-5.26c-2.44,0-3.22.06-3.42.06-.28,0-.31-.03-.31-.31,0-.2.06-.81.06-2.41v-3.39c0-1.54-.06-2.21-.06-2.38,0-.28.03-.31.31-.31.2,0,.98.06,3.42.06h5.26ZM116.4,361.12v1.34h7.34v-1.34h-7.34ZM123.74,364.31h-7.34v1.37h7.34v-1.37Z"/>
          <path d="M138.19,369.83c-2.46,0-3.3.06-3.47.06-.31,0-.34-.03-.34-.31v-1.99c0-.28.03-.31.34-.31.17,0,1.01.06,3.47.06h5.12l.59-1.12c.25-.48.39-.84.5-1.43-1.71.56-3.53,1.04-5.54,1.48q-.84.2-1.18-.56c-.36-.67-.81-1.43-1.15-1.74,3.3-.5,5.91-1.15,8.18-1.93-1.68-.64-3.42-1.23-5.26-1.76-.31-.08-.25-.2.03-.45l1.34-1.23c.28-.25.34-.25.62-.17,2.35.73,4.45,1.43,6.52,2.24.98-.48,1.9-1.04,2.86-1.62.42-.28,1.04-.76,1.57-1.29.95.36,1.93.87,2.63,1.23.25.14.31.28.31.45s-.17.31-.39.36c-.22.06-.62.2-.98.45-.95.62-1.88,1.2-2.83,1.71,1.4.62,2.86,1.29,4.42,2.04.14.08.22.14.22.2,0,.08-.08.2-.2.34l-1.32,1.6c-.25.31-.36.28-.62.14-1.9-1.06-3.75-1.99-5.6-2.83-.98.42-2.02.81-3.08,1.18.81.08,1.54.17,2.16.28.34.06.56.17.56.39,0,.17-.03.25-.2.39-.28.22-.48.53-.67.87-.14.28-.31.53-.45.78h9.46c2.46,0,3.3-.06,3.47-.06.25,0,.28.03.28.31v1.99c0,.28-.03.31-.28.31-.17,0-1.01-.06-3.47-.06h-10.95c-.7,1.06-1.43,2.04-2.24,2.94h3.95c0-.84-.06-1.51-.17-2.35,1.06.03,1.96.08,2.94.2.25.03.42.14.42.31,0,.2-.06.34-.14.53-.11.25-.2.59-.2,1.32h3.05c2.63,0,3.98-.06,4.14-.06.28,0,.31.03.31.31,0,.17-.06.98-.06,2.6v1.71c0,.7.06,1.48.06,2.1,0,.73-.2,1.37-.64,1.79-.53.53-1.06.76-3.42.76q-.87,0-1.06-.9c-.14-.56-.31-1.04-.59-1.62.92.08,1.37.11,2.04.11.53,0,.78-.22.78-.81v-3.67h-4.62v4.84c0,2.21.06,3.28.06,3.44,0,.28-.03.31-.31.31h-2.32c-.28,0-.31-.03-.31-.31,0-.17.06-1.23.06-3.44v-4.84h-4.17v4.51c0,1.6.06,2.07.06,2.24,0,.28-.03.31-.34.31h-2.27c-.28,0-.31-.03-.31-.31,0-.17.06-.64.06-2.24v-3.95c-.95.78-2.02,1.57-3.25,2.38-.31.22-.48.34-.62.34-.2,0-.31-.2-.5-.62-.34-.7-.76-1.23-1.23-1.65,3.11-1.68,5.63-3.61,7.64-6.27h-3.5Z"/>
          <path d="M167.79,383.02c-2.46,0-3.3.06-3.47.06-.25,0-.28-.03-.28-.31v-1.85c0-.28.03-.31.28-.31.17,0,1.01.06,3.47.06h7.17v-1.79h-3.61c-2.74,0-3.7.06-3.86.06-.28,0-.31-.03-.31-.34v-1.68c0-.28.03-.31.31-.31.17,0,1.12.06,3.86.06h3.61v-1.76h-5.26c-2.72,0-3.61.06-3.78.06-.28,0-.31-.03-.31-.31v-1.74c0-.28.03-.31.31-.31.17,0,1.06.06,3.78.06h13.78c2.69,0,3.58-.06,3.75-.06.31,0,.34.03.34.31v1.74c0,.28-.03.31-.34.31-.17,0-1.06-.06-3.75-.06h-5.66v1.76h3.98c2.74,0,3.7-.06,3.86-.06.31,0,.34.03.34.31v1.68c0,.31-.03.34-.34.34-.17,0-1.12-.06-3.86-.06h-3.98v1.79h7.5c2.49,0,3.3-.06,3.5-.06.25,0,.28.03.28.31v1.85c0,.28-.03.31-.28.31-.2,0-1.01-.06-3.5-.06h-17.53ZM185.1,358.99c2.1,0,2.83-.06,3-.06.28,0,.34.06.34.31-.06.45-.11,1.37-.17,2.32-.17,3.08-.48,5.71-.73,7.17-.31,1.62-.9,2.74-2.13,3.02-.53.11-1.37.17-2.1.17-.87,0-1.01-.06-1.09-.53-.11-.67-.31-1.43-.59-1.93.9.11,1.71.14,2.38.08.45-.06.73-.7.9-1.6h-5.52c-.56,1.51-1.43,2.77-2.77,3.95-.31.25-.5.39-.67.39-.22,0-.39-.17-.7-.45-.48-.5-1.06-.81-1.71-1.06.45-.25.84-.5,1.2-.81-.08.03-.17.06-.31.06-1.29.14-2.41.17-3.58.17-1.48,0-2.8-.03-3.61-.36-.76-.31-1.15-.98-1.15-2.41v-4.03c-1.09.03-1.57.06-1.68.06-.28,0-.31-.03-.31-.31v-1.96c0-.28.03-.28.31-.28.17,0,.95.03,3.28.03h1.46v-.81c0-.56-.03-1.18-.17-1.99.84.03,2.02.08,2.83.17.25.03.39.14.39.28,0,.2-.08.28-.17.48-.11.22-.14.5-.14,1.04v.84h.84c2.35,0,3.11-.03,3.28-.03.28,0,.31,0,.31.28v1.96c0,.28-.03.31-.31.31-.17,0-.92-.06-3.28-.06h-3.89v2.91c0,.76.08,1.01.42,1.15.39.17.84.2,1.71.2,1.32,0,2.32-.06,3.53-.2.45-.06.48-.03.48.7v1.09c0,.34-.03.5-.08.62,1.93-1.65,2.69-4,2.94-7.95.08-1.2.08-1.82.06-2.63,0-.28.03-.34.28-.34.17,0,.67.06,2.27.06h4.68ZM180.17,364.59c-.06.48-.11.95-.2,1.37h5.24c.06-.42.14-.9.17-1.37h-5.21ZM180.42,361.23l-.06,1.37h5.18l.08-1.37h-5.21Z"/>
          <path d="M207.59,364.31c-.64,4.76-1.82,9.13-3.5,12.07-1.2,2.1-2.66,3.22-4.76,3.22-2.46,0-4.96-2.63-4.96-7.2,0-2.69,1.15-5.26,3.16-7.28,2.35-2.35,5.32-3.58,9.1-3.58,6.72,0,10.67,4.14,10.67,9.72,0,5.21-2.94,8.48-8.62,10.19-.59.17-.84.06-1.2-.5-.31-.48-.9-1.12-1.96-1.76,4.73-1.12,8.46-3.08,8.46-8.37,0-3.33-2.52-6.5-6.27-6.5h-.11ZM199.55,367.03c-1.34,1.51-2.18,3.39-2.18,5.18,0,2.58,1.04,4,1.9,4,.73,0,1.34-.36,2.1-1.71,1.23-2.27,2.49-6.3,2.97-10.02-1.96.39-3.53,1.18-4.79,2.55Z"/>
          <path d="M226.46,365.54c-2.49,0-3.33.06-3.53.06-.28,0-.31-.03-.31-.34v-2.27c0-.31.03-.34.31-.34.2,0,1.04.06,3.53.06h6.86v-1.82c0-1.2-.06-2.07-.2-2.74,1.01,0,2.1.06,3.05.14.28.03.45.14.45.31,0,.2-.08.36-.17.59-.11.22-.17.59-.17,1.62v1.9h7.36c2.52,0,3.36-.06,3.53-.06.25,0,.28.03.28.34v2.27c0,.31-.03.34-.28.34-.17,0-1.01-.06-3.53-.06h-9.69c-.03,1.23-.11,2.38-.22,3.44h6.86c2.35,0,3.14-.06,3.3-.06.28,0,.34.08.34.39-.06.73-.08,1.48-.11,2.18-.22,4.17-.56,6.78-.92,8.32-.62,2.66-1.71,3.47-4.51,3.47-.5,0-1.29,0-2.21-.06-.78-.06-.78-.11-.9-1.01-.11-.87-.34-1.68-.62-2.16,1.46.2,2.72.25,3.44.25.92,0,1.4-.45,1.65-1.4.42-1.4.73-3.98.87-7.11h-7.62c-1.06,5.18-3.44,8.46-8.2,11.28-.36.2-.53.31-.67.31-.2,0-.31-.2-.56-.62-.45-.7-1.04-1.26-1.68-1.71,6.44-3.16,8.54-7.03,8.6-15.54h-4.34Z"/>
          <path d="M258.28,360.62c.31.17.42.34.42.56,0,.2-.08.39-.2.62-.2.34-.31.73-.5,1.54-.92,4.23-1.4,8.15-1.4,10.19,0,1.12,0,2.41.08,3.58.56-1.29,1.15-2.49,1.74-3.89.39.9.62,1.29.98,1.76.11.14.17.25.17.39s-.06.28-.17.45c-.98,2.21-1.32,3.44-1.43,4.26-.11.78-.06,1.2-.03,1.48.03.2-.08.28-.34.36-.53.2-1.34.36-2.1.48-.31.08-.42.06-.56-.34-.78-1.99-1.2-5.32-1.2-8.54,0-2.69.22-4.93,1.15-10.61.14-.98.31-2.18.2-3.3,1.12.28,2.63.73,3.19,1.01ZM267.92,368.09c-1.9.06-3.86.11-5.77-.03-.36,0-.48-.08-.5-.36-.11-.67-.2-1.68-.2-2.55,2.1.2,4.28.22,6.38.08,0-1.01-.03-1.9-.03-2.94-.03-1.01-.11-1.74-.36-2.74,1.62.14,2.46.25,3.39.53.31.08.5.22.5.48,0,.14-.06.22-.17.48-.11.25-.2.62-.22.98-.06.95-.06,1.68-.06,2.97,1.32-.11,2.77-.31,3.98-.5.34-.08.39.03.45.34.11.5.17,1.4.17,1.99,0,.25-.11.39-.31.42-1.01.25-2.86.48-4.31.59,0,3.14.06,5.1.2,7.5,1.65.67,3.08,1.46,4.65,2.69.25.17.28.25.14.56-.36.73-.81,1.51-1.29,2.16-.08.11-.17.17-.25.17s-.17-.06-.25-.14c-.87-.81-1.79-1.51-3.02-2.24-.22,2.35-1.82,3.64-5.12,3.64s-5.01-1.51-5.01-3.92,2.07-3.95,4.9-3.95c.73,0,1.57.08,2.24.22-.06-2.16-.08-4.2-.11-6.41ZM265.65,376.8c-1.32,0-2.1.48-2.1,1.34s.62,1.4,2.27,1.4c1.4,0,2.3-.81,2.3-1.82,0-.2,0-.34-.03-.56-.9-.28-1.65-.36-2.44-.36Z"/>
          <path d="M284.66,362.77c-2.49,0-3.36.06-3.53.06-.28,0-.31-.03-.31-.31v-2.35c0-.28.03-.31.31-.31.17,0,1.04.06,3.53.06h17.05c2.52,0,3.36-.06,3.53-.06.28,0,.31.03.31.31v2.35c0,.28-.03.31-.31.31-.17,0-1.01-.06-3.53-.06h-7.5v3.72c2.63,1.06,5.85,2.58,8.71,4.51.14.08.22.17.22.28,0,.06-.06.17-.14.31l-1.32,1.88c-.22.34-.31.36-.56.2-2.35-1.6-4.65-3.02-6.92-4.09v9.83c0,2.49.06,3.64.06,3.81,0,.28-.03.31-.34.31h-2.58c-.31,0-.34-.03-.34-.31,0-.2.06-1.32.06-3.81v-16.63h-6.41Z"/>
          <path d="M323.67,364.31c-.64,4.76-1.82,9.13-3.5,12.07-1.2,2.1-2.66,3.22-4.76,3.22-2.46,0-4.96-2.63-4.96-7.2,0-2.69,1.15-5.26,3.16-7.28,2.35-2.35,5.32-3.58,9.1-3.58,6.72,0,10.67,4.14,10.67,9.72,0,5.21-2.94,8.48-8.62,10.19-.59.17-.84.06-1.2-.5-.31-.48-.9-1.12-1.96-1.76,4.73-1.12,8.46-3.08,8.46-8.37,0-3.33-2.52-6.5-6.27-6.5h-.11ZM315.63,367.03c-1.34,1.51-2.18,3.39-2.18,5.18,0,2.58,1.04,4,1.9,4,.73,0,1.34-.36,2.1-1.71,1.23-2.27,2.49-6.3,2.97-10.02-1.96.39-3.53,1.18-4.79,2.55Z"/>
          <path d="M345.05,365.18c-1.82,0-3.42.08-4.62.14-.36.03-.48-.17-.53-.56-.08-.56-.2-2.02-.25-2.83,1.26.14,2.74.2,5.38.2h10c.84,0,1.15-.06,1.54-.28.14-.08.28-.11.42-.11.17,0,.34.06.53.14.76.48,1.51,1.18,2.04,1.85.14.17.2.31.2.48,0,.25-.14.48-.39.7-.25.25-.39.53-.64,1.09-1.37,3.3-3.08,6.38-5.43,9.1-2.41,2.74-5.12,5.07-7.95,6.66-.25.17-.5.25-.76.25-.22,0-.48-.08-.7-.31-.64-.62-1.57-1.12-2.6-1.54,4.09-2.07,6.58-4,9.16-7,2.18-2.49,3.61-4.87,4.73-7.98h-10.11Z"/>
          <path d="M376.13,373.5c-.78,1.04-1.71,2.1-2.8,3.08-1.12.98-3.08,2.41-4.28,3.11-.2.11-.34.17-.48.17s-.28-.08-.45-.28c-.56-.67-1.15-1.04-2.02-1.37,2.6-1.43,3.58-2.16,5.21-3.53,1.26-1.09,2.24-2.04,3.05-3.08h-3.22c-1.18,0-2.32.08-3.53.11-.22.03-.39-.14-.42-.45-.08-.62-.14-1.34-.2-2.32,1.71.11,2.69.11,4.06.11h4.76l-.08-1.85c-.08-1.01-.14-1.79-.39-2.74,1.06.03,2.35.14,3.05.25.42.06.5.36.36.7-.17.39-.17.76-.14,1.62l.08,1.99h1.96c1.4,0,3.08-.08,4.26-.08.34-.03.48.08.48.36.03.64.03,1.32,0,1.96,0,.25-.17.42-.48.39-1.06,0-2.52-.06-4.17-.06h-1.85l.36,7.81c.06,1.46-.34,2.13-1.12,2.58-.73.48-2.04.84-3.08.84-.48,0-.67-.14-.81-.48-.36-.92-.92-1.48-1.79-2.13,1.6,0,2.77-.11,3.36-.22.39-.08.56-.28.56-.67l-.25-5.82Z"/>
          <path d="M398.75,372.82c-2.77,0-3.84.34-4.12.34-.34,0-.56-.17-.64-.59-.14-.64-.31-1.96-.42-3.39,1.82.28,3.22.34,6.05.34h9.02c2.13,0,4.28-.06,6.44-.08.42-.03.5.06.5.39.06.84.06,1.79,0,2.63,0,.34-.11.45-.5.42-2.1-.03-4.17-.06-6.24-.06h-10.08Z"/>
          <path d="M433.45,360.92c.2.14.34.28.34.45,0,.14-.08.34-.28.56-.5.64-.84,1.51-1.15,2.32-1.57,4.28-3.05,8.4-4.82,12.6,4.31-.36,6.66-.59,9.8-1.06-.87-1.54-1.9-3.08-3.11-4.48.84-.45,1.65-.92,2.44-1.34.31-.17.48-.06.67.17,2.18,2.55,4.28,6.05,5.66,9.16.08.14.11.25.11.36,0,.17-.11.34-.36.48-.67.45-1.37.81-2.13,1.15-.11.06-.22.08-.34.08-.17,0-.31-.14-.39-.39-.34-.78-.64-1.51-.98-2.24-4.48.67-8.74,1.15-13.3,1.62-1.85.2-2.6.34-3.28.67-.36.17-.67.11-.81-.28-.22-.48-.59-1.88-.98-3.61,1.12.08,2.3.06,3.42.03,1.99-5.01,3.44-9.16,4.9-13.86.45-1.46.73-2.44.81-3.84,1.71.5,2.91.9,3.78,1.46Z"/>
          <path d="M449.43,369.8c.92-.73,2.94-2.46,5.01-4.34.92-.84,1.62-1.18,2.44-1.18.95,0,1.48.25,2.44,1.04,2.1,1.68,3.3,2.8,6.05,4.82,2.49,1.79,4.42,2.88,6.61,4.12.28.11.42.34.28.59-.31.84-.84,1.9-1.37,2.63-.14.2-.25.28-.36.28s-.22-.03-.39-.14c-1.34-.78-4.4-3.02-6.05-4.31-2.02-1.51-4.03-3.3-5.88-4.96-.53-.5-.9-.64-1.23-.64-.31,0-.59.25-.95.59-1.37,1.37-3.39,3.3-4.7,4.62-.56.59-.78.87-1.01,1.23-.14.22-.31.34-.5.34s-.36-.08-.53-.25c-.59-.59-1.62-1.93-2.3-2.91.84-.34,1.54-.78,2.46-1.51Z"/>
        </g>
      </g>
      <rect x="269.93" y="62.05" width="280.23" height="21.48" transform="translate(41.93 -121.96) rotate(17.81)" style="fill: none;"/>
      <rect x="-3.43" y="62.05" width="280.23" height="21.48" transform="translate(-15.71 45.31) rotate(-17.81)" style="fill: none;"/>
    </g>
  </g>
</svg>