<?xml version="1.0" encoding="UTF-8"?><svg id="uuid-fdb3445f-c467-4d18-96ff-8ff5995e95bf" xmlns="http://www.w3.org/2000/svg" width="188.88" height="42.55" viewBox="0 0 188.88 42.55"><defs><style>.uuid-84fe1bec-84b5-430b-acf2-ee139865603d{fill:#fff;stroke:#b91f3a;stroke-miterlimit:10;}.uuid-1a21f0db-7dc3-419b-90e9-28cc4dbd4946{fill:#b91f3a;}</style></defs><g id="uuid-d691e297-8f62-45d6-a4c8-be5d9b60d0b8"><polyline class="uuid-84fe1bec-84b5-430b-acf2-ee139865603d" points="38.56 9.75 .5 9.75 .5 42.05 188.38 42.05 188.38 9.75 50.04 9.75 38.94 .38"/><path class="uuid-1a21f0db-7dc3-419b-90e9-28cc4dbd4946" d="M17.66,20.94v.62h2.22v-.62h1.26v.62h2.99v1h-2.99v.47h1.46v3.15h-4.13c-.08.12-.2.28-.31.41h6.06v.94h-2.43c.94.71,1.56,1.06,2.7,1.46-.36.36-.6.7-.79,1.12-.42-.19-1.01-.48-1.64-.88v2.54h-1.39v-.3h-3.97v.35h-1.31v-2.61c-.35.23-.89.58-1.49.84-.16-.35-.37-.68-.76-1.1.52-.2,1.39-.55,2.48-1.42h-2.18v-.94h3.13c.12-.12.24-.26.35-.41h-1.91v-3.15h1.34v-.47h-2.84v-1h2.84v-.62h1.31ZM16.27,23.84v.42h5.03v-.42h-5.03ZM16.27,24.97v.42h5.03v-.42h-5.03ZM16.69,28.82v.5h3.97v-.5h-3.97ZM16.69,30.1v.53h3.97v-.53h-3.97ZM17.38,27.52l-.44.43h3.56l-.41-.43h-2.71ZM17.66,22.55v.47h2.22v-.47h-2.22Z"/><path class="uuid-1a21f0db-7dc3-419b-90e9-28cc4dbd4946" d="M29.6,23.79c-.28.8-.55,1.64-.75,3,1.51-1.02,2.75-1.25,3.69-1.25,1.93,0,3,1.1,3,2.47s-.98,2.61-2.85,3.17c-.46.13-1.72.48-3.65.48,0-.44-.13-1.01-.41-1.51.32.01.6.02.83.02,3.14,0,4.38-1.1,4.38-2.16,0-.61-.44-1.15-1.45-1.15-.72,0-1.4.2-2.04.53-1.04.54-1.55,1.16-1.9,1.62l-1.15-.6c.08-1.37.29-2.96.71-5.04l1.59.42ZM32.61,23.47c-1.55-.35-2.63-.68-3.97-1.4l.59-1.28c1.4.64,1.97.84,3.83,1.26l-.44,1.43Z"/><path class="uuid-1a21f0db-7dc3-419b-90e9-28cc4dbd4946" d="M41.21,21.61c-.23,2.07-.37,5.05-.37,6.03,0,.84.02,1.27.18,1.58.11.22.43.67,1.31.67,2.11,0,3.5-2.18,4.17-3.54.37.41.85.77,1.33.97-.71,1.21-2.46,4.03-5.54,4.03-1.74,0-2.36-.9-2.53-1.18-.42-.73-.42-1.63-.42-2.85,0-.83.08-4.87.08-5.78l1.79.06Z"/><path class="uuid-1a21f0db-7dc3-419b-90e9-28cc4dbd4946" d="M55.22,29.93c3.26-.41,3.9-2.33,3.9-3.59,0-.73-.25-1.49-.63-1.94-.47-.6-1.2-.94-2.17-1.08-.88,4.95-2.66,7.1-3.85,7.1-1.29,0-2-1.88-2-3.35,0-2.69,2.11-5.01,5.42-5.01s4.84,1.82,4.84,4.34c0,1.19-.3,2.81-2.17,3.99-.56.35-1.29.7-2.67,1.01-.13-.54-.37-1.07-.66-1.48ZM52.46,25c-.3.46-.54,1.14-.54,1.91s.29,1.82.74,1.82c.37,0,.62-.54.71-.68.96-1.99,1.26-3.56,1.45-4.63-.52.13-1.63.43-2.36,1.58Z"/><path class="uuid-1a21f0db-7dc3-419b-90e9-28cc4dbd4946" d="M65.68,27.41c-.28.43-.52.84-.52,1.18,0,.52.65.67,1.25.76.26.04,1.26.14,2.06.14,1.36,0,2.43-.1,3.61-.28l.17,1.66c-1.08.12-1.89.17-3.47.17-1.21,0-5.18-.08-5.18-2.18,0-.52.2-1.2.79-2.05l1.28.61ZM71.19,23.9c-1.34.17-2.25.24-3.18.24-1.6,0-2.4-.16-3.44-.44l.37-1.43c.73.18,1.55.37,2.83.37,1.01,0,2.12-.13,3.26-.26l.16,1.52Z"/><path class="uuid-1a21f0db-7dc3-419b-90e9-28cc4dbd4946" d="M79.79,21.19c-.08,1.3-.1,2.24-.1,2.4,0,.46.02.85.14,1.64.92-.32,1.19-.4,3.67-1.08l.49,1.57c-2.28.46-5.01,1.01-6.37,2.17-.16.13-.54.47-.54.96,0,1.22,2.3,1.22,3.15,1.22,1.06,0,2.35-.06,3.74-.24l.07,1.57c-1.24.12-1.94.17-3.01.17-1.16,0-2.84-.07-3.87-.49-1.26-.52-1.59-1.49-1.59-2.12,0-1.79,1.93-2.71,2.91-3.2-.34-1.21-.34-1.44-.34-4.55l1.63-.02Z"/><path class="uuid-1a21f0db-7dc3-419b-90e9-28cc4dbd4946" d="M88.83,28.54c.68.68,1.17,1.19,1.93,2.17l-1.21.96c-.48-.71-.61-.86-1.79-2.18l1.07-.95Z"/><path class="uuid-1a21f0db-7dc3-419b-90e9-28cc4dbd4946" d="M99.53,21.15c-.07.86-.11,1.2-.13,1.94.59-.1.85-.18,1.75-.46l.04,1.54c-.82.22-.92.24-1.86.44,0,.46-.01,1.03-.01,1.49.77-.25,1.86-.56,2.96-.56,2.71,0,3.04,2.15,3.04,2.91,0,1.79-1.34,2.79-2.82,2.79-1.02,0-1.87-.49-2.59-1.46.43-.2.91-.53,1.22-.9.43.71.95.9,1.37.9.88,0,1.26-.85,1.26-1.37,0-.6-.29-1.57-1.76-1.57-.49,0-1.5.17-2.66.59.01.9.02,2.18.02,2.85,0,.44-.14,1.24-1.1,1.24-1.15,0-3.01-1.18-3.01-2.34,0-.56.49-1.52,2.65-2.57,0-.46-.01-1.25-.01-1.83-.58.02-.84.04-1.12.04s-.54-.01-1.03-.04l.05-1.5c.64.04.85.05,1.25.05.25,0,.53-.02.9-.05,0-.32.01-1.82.01-2.13h1.59ZM97.93,28.07c-.64.36-1.29.77-1.29,1.13s.82.86,1.03.86c.1,0,.26,0,.26-.36v-1.63ZM104.57,25.19c-.84-.68-1.38-1.03-2.69-1.63l.74-1.15c1.19.42,2.1.97,2.87,1.56l-.92,1.22Z"/><path class="uuid-1a21f0db-7dc3-419b-90e9-28cc4dbd4946" d="M110.28,31.77h-1.42v-5.61c-.2.42-.54.91-.88,1.4-.16-.46-.38-.98-.74-1.46,1.39-1.83,2.03-3.51,2.64-5.25l1.46.49c-.26.71-.7,1.62-1.07,2.41v8.02ZM115.25,25.61h3.13v1.33h-3.13v3.11h2.72v1.34h-6.79v-1.34h2.64v-3.11h-3.19v-1.33h3.19v-2.19c-.67.11-1.57.25-2.35.34-.12-.37-.26-.73-.54-1.26,1.62-.14,4.27-.54,6.27-1.14l.74,1.22c-.7.22-.9.26-2.7.62v2.41Z"/><path class="uuid-1a21f0db-7dc3-419b-90e9-28cc4dbd4946" d="M129,21.55c0,.41.04,2.18.04,2.53l2.23-.17.02,1.5c-.32.02-1.8.06-2.29.06-.06,2.66-.18,3.43-1.26,3.43-.5,0-1.37-.29-1.94-.53.17-.48.24-.96.24-1.43.55.32,1.02.43,1.1.43.2,0,.24-.26.25-.38.02-.18.07-.71.07-1.45-.48.04-2.6.16-3.02.18-.02,1.31-.02,1.76-.02,2.78,0,.72,0,1.03.88,1.18.24.04,1.18.12,1.93.12.66,0,1.51-.06,2.55-.22l.04,1.57c-1.09.08-1.92.13-2.82.13-2.13,0-3.85-.18-4.07-1.65-.05-.28-.06-.66-.06-1.9,0-.43,0-1,.01-1.87-.65.05-1.42.13-2.05.18l-.04-1.49c.67-.02,1.56-.06,2.1-.11,0-.64,0-1.43-.02-2.15l1.73-.04c-.05.61-.06,1.5-.11,2.1.46-.02,2.1-.14,2.97-.19,0-1.15-.01-1.3-.07-2.65l1.61.02Z"/><path class="uuid-1a21f0db-7dc3-419b-90e9-28cc4dbd4946" d="M141.45,22.57c-2.42,1.82-3.83,2.61-4.43,2.94-.72.4-.8.44-.8.59,0,.16.14.25.44.46,2.3,1.55,3.55,2.81,4.89,4.16l-1.35,1.13c-1.72-2-3.44-3.45-4.64-4.35-1.21-.94-1.28-.98-1.28-1.42,0-.56.29-.74,1.39-1.42,1.45-.88,2.92-1.92,4.64-3.38l1.14,1.29Z"/><path class="uuid-1a21f0db-7dc3-419b-90e9-28cc4dbd4946" d="M149.98,21.58c-.14.52-.35,1.09-.44,1.48.8-.12,1.32-.23,2.31-.52l.07,1.44c-1.03.26-1.73.4-2.83.53-.83,2.46-1.26,3.74-2.76,7.04l-1.39-.73c1.04-2,1.8-3.83,2.58-6.18-.4.01-.85.04-1.27.04-.18,0-.38-.01-.56-.02l.04-1.45c.38.04.79.05,1.2.05.31,0,.65-.01.97-.04.17-.58.37-1.32.52-2.05l1.57.42ZM150.28,28.28c-.02.59.06,1.07.61,1.32.53.23,2.06.28,2.24.28.55,0,1.12-.05,2.23-.18l.07,1.52c-.42.06-.96.12-2.05.12-3.54,0-4.5-.77-4.5-3.14l1.39.08ZM154.85,26.03c-.68-.04-1.1-.05-1.44-.05-1.16,0-2.24.1-3.3.23l-.13-1.28c1.99-.3,3.14-.34,3.98-.34.28,0,.58.01.92.01l-.04,1.43ZM154.16,23.68c-.4-.43-.89-.91-1.37-1.3l.67-.64c.48.35,1.02.85,1.43,1.24l-.73.7ZM154.5,20.74c.49.34,1.01.79,1.48,1.22l-.78.7c-.42-.46-.89-.91-1.37-1.27l.67-.65Z"/><path class="uuid-1a21f0db-7dc3-419b-90e9-28cc4dbd4946" d="M162.82,21.15c.12.46.29,1.02.65,1.91.96-.2,1.15-.28,2.89-.88l.42,1.54c-1.4.43-1.83.55-2.61.71.58,1.02,1.28,1.83,2.24,2.6l-.82,1.25c-.66-.32-1.44-.67-3.11-.67-.73,0-1.52.07-1.98.35-.29.19-.47.52-.47.73,0,.58.86,1.31,3.31,1.31.92,0,1.82-.11,2.63-.23l.06,1.54c-1.13.17-1.72.19-2.36.19-2.41,0-3.39-.37-4.01-.76-.97-.59-1.2-1.36-1.2-1.92,0-.53.23-2.48,3.79-2.48.66,0,1.16.08,1.64.17-.43-.47-.72-.85-1.31-1.8-1.03.16-1.69.2-2.52.2-.48,0-1.01-.02-1.83-.11l.08-1.51c.84.11,1.28.12,1.69.12.68,0,1.16-.01,1.86-.1-.13-.37-.24-.61-.35-.83-.12-.29-.22-.55-.35-1.06l1.64-.28Z"/><path class="uuid-1a21f0db-7dc3-419b-90e9-28cc4dbd4946" d="M172.23,22.46c-.24.72-.34,1.13-.4,1.45-.14.77-.24,1.57-.24,2.36,0,1.18.32,2.63.62,2.63.25,0,.6-1.15.7-1.49.3.37.72.72,1.19.97-.84,2.55-1.72,2.58-1.86,2.58-.84,0-2.13-1.75-2.13-4.99,0-1.67.25-2.94.47-3.93l1.66.42ZM177.26,22.58c1.55,2.1,2.16,4.23,2.52,6.2l-1.59.42c-.19-1.39-.58-2.65-.76-3.15-.12-.41-.59-1.61-1.43-2.88l1.26-.59Z"/></g></svg>