<?xml version="1.0" encoding="UTF-8"?>
<svg id="_レイヤー_2" data-name="レイヤー 2" xmlns="http://www.w3.org/2000/svg" viewBox="0 0 336.07 437.57">
  <g id="_レイヤー_1-2" data-name="レイヤー 1">
    <g>
      <polyline points="269.17 343.97 269.17 285.3 198.02 285.3 198.02 159.93 297.97 159.93 297.97 1.5 1.5 1.5 1.5 436.07 269.17 436.07 269.17 395.42 335.24 351.37" style="fill: none; stroke: #c91933; stroke-miterlimit: 10; stroke-width: 3px;"/>
      <g>
        <path d="M68.71,101.44h26.47v8.09h-36.6v-58.3h10.13v50.21Z" style="fill: #c91933;"/>
        <path d="M132.08,109.53c-.43-.83-.8-2.18-1.12-4.04-3.1,3.23-6.89,4.84-11.37,4.84s-7.9-1.24-10.65-3.72c-2.75-2.48-4.12-5.55-4.12-9.21,0-4.62,1.71-8.16,5.15-10.63,3.43-2.47,8.33-3.7,14.71-3.7h5.97v-2.84c0-2.24-.63-4.04-1.88-5.39-1.25-1.35-3.16-2.02-5.73-2.02-2.22,0-4.03.55-5.45,1.66-1.42,1.11-2.12,2.52-2.12,4.22h-9.73c0-2.38.79-4.6,2.36-6.67,1.58-2.07,3.72-3.69,6.43-4.86,2.71-1.17,5.73-1.76,9.07-1.76,5.07,0,9.12,1.27,12.13,3.82,3.02,2.55,4.56,6.13,4.64,10.75v19.54c0,3.9.55,7.01,1.64,9.33v.68h-9.93ZM121.39,102.52c1.92,0,3.73-.47,5.42-1.4,1.7-.93,2.97-2.19,3.82-3.76v-8.17h-5.25c-3.6,0-6.31.63-8.13,1.88-1.82,1.25-2.72,3.03-2.72,5.33,0,1.87.62,3.36,1.86,4.46,1.24,1.11,2.9,1.66,4.99,1.66Z" style="fill: #c91933;"/>
        <path d="M163.09,66.21l.28,5c3.2-3.87,7.41-5.81,12.61-5.81,9.02,0,13.61,5.17,13.77,15.5v28.63h-9.73v-28.07c0-2.75-.59-4.78-1.78-6.11s-3.13-1.98-5.83-1.98c-3.92,0-6.85,1.78-8.77,5.33v30.83h-9.73v-43.32h9.17Z" style="fill: #c91933;"/>
        <path d="M201.42,87.55c0-6.67,1.55-12.03,4.64-16.08,3.1-4.04,7.25-6.07,12.45-6.07,4.59,0,8.3,1.6,11.13,4.8v-22.18h9.73v61.5h-8.81l-.48-4.48c-2.91,3.52-6.79,5.29-11.65,5.29s-9.18-2.04-12.31-6.13c-3.14-4.08-4.7-9.64-4.7-16.66ZM211.15,88.39c0,4.4.85,7.84,2.54,10.31,1.69,2.47,4.1,3.7,7.23,3.7,3.98,0,6.89-1.77,8.73-5.33v-18.5c-1.79-3.47-4.67-5.21-8.65-5.21-3.15,0-5.58,1.25-7.29,3.74-1.71,2.5-2.56,6.25-2.56,11.27Z" style="fill: #c91933;"/>
        <path d="M61.07,250.53v-36.12h-6.61v-7.21h6.61v-3.96c0-4.8,1.33-8.51,4-11.13,2.67-2.62,6.41-3.92,11.21-3.92,1.71,0,3.52.24,5.45.72l-.24,7.61c-1.07-.21-2.31-.32-3.72-.32-4.64,0-6.97,2.39-6.97,7.17v3.84h8.81v7.21h-8.81v36.12h-9.73Z" style="fill: #c91933;"/>
        <path d="M87.07,228.47c0-4.24.84-8.07,2.52-11.47,1.68-3.4,4.04-6.02,7.09-7.85,3.04-1.83,6.54-2.74,10.49-2.74,5.85,0,10.59,1.88,14.23,5.65,3.64,3.76,5.61,8.76,5.91,14.97l.04,2.28c0,4.27-.82,8.09-2.46,11.45s-3.99,5.97-7.05,7.81c-3.06,1.84-6.59,2.76-10.59,2.76-6.11,0-11-2.04-14.67-6.11-3.67-4.07-5.51-9.5-5.51-16.28v-.48ZM96.8,229.31c0,4.46.92,7.95,2.76,10.47,1.84,2.52,4.4,3.78,7.69,3.78s5.84-1.28,7.67-3.84,2.74-6.31,2.74-11.25c0-4.38-.94-7.85-2.82-10.41-1.88-2.56-4.44-3.84-7.67-3.84s-5.7,1.26-7.57,3.78c-1.87,2.52-2.8,6.29-2.8,11.31Z" style="fill: #c91933;"/>
        <path d="M161.88,216.1c-1.28-.21-2.6-.32-3.96-.32-4.46,0-7.46,1.71-9.01,5.12v29.63h-9.73v-43.32h9.29l.24,4.84c2.35-3.76,5.61-5.65,9.77-5.65,1.39,0,2.54.19,3.44.56l-.04,9.13Z" style="fill: #c91933;"/>
        <path d="M89.05,376.52c0-2.56-.9-4.54-2.7-5.93-1.8-1.39-5.05-2.79-9.75-4.2-4.7-1.41-8.44-2.99-11.21-4.72-5.31-3.34-7.97-7.69-7.97-13.05,0-4.7,1.92-8.57,5.75-11.61,3.83-3.04,8.8-4.56,14.92-4.56,4.06,0,7.67.75,10.85,2.24,3.18,1.5,5.67,3.62,7.49,6.39,1.82,2.76,2.72,5.83,2.72,9.19h-10.09c0-3.04-.95-5.43-2.86-7.15-1.91-1.72-4.64-2.58-8.19-2.58-3.31,0-5.88.71-7.71,2.12-1.83,1.41-2.74,3.39-2.74,5.93,0,2.14.99,3.92,2.96,5.35,1.97,1.43,5.23,2.82,9.77,4.16,4.54,1.35,8.18,2.88,10.93,4.6,2.75,1.72,4.76,3.7,6.05,5.93,1.28,2.23,1.92,4.84,1.92,7.83,0,4.86-1.86,8.72-5.59,11.59-3.72,2.87-8.78,4.3-15.15,4.3-4.22,0-8.09-.78-11.63-2.34-3.54-1.56-6.29-3.72-8.25-6.47-1.96-2.75-2.94-5.95-2.94-9.61h10.13c0,3.31,1.09,5.87,3.28,7.69,2.19,1.82,5.33,2.72,9.41,2.72,3.52,0,6.17-.71,7.95-2.14,1.78-1.43,2.66-3.32,2.66-5.67Z" style="fill: #c91933;"/>
        <path d="M136.78,391.53c-.43-.83-.8-2.18-1.12-4.04-3.1,3.23-6.89,4.84-11.37,4.84s-7.9-1.24-10.65-3.72c-2.75-2.48-4.12-5.55-4.12-9.21,0-4.62,1.71-8.16,5.14-10.63,3.43-2.47,8.34-3.7,14.71-3.7h5.97v-2.84c0-2.24-.63-4.04-1.88-5.39-1.25-1.35-3.16-2.02-5.73-2.02-2.22,0-4.03.55-5.45,1.66-1.42,1.11-2.12,2.52-2.12,4.22h-9.73c0-2.38.79-4.6,2.36-6.67,1.57-2.07,3.72-3.69,6.43-4.86,2.71-1.17,5.73-1.76,9.07-1.76,5.07,0,9.12,1.27,12.13,3.82,3.02,2.55,4.56,6.13,4.64,10.75v19.54c0,3.9.55,7.01,1.64,9.33v.68h-9.93ZM126.09,384.52c1.92,0,3.73-.47,5.43-1.4,1.69-.93,2.97-2.19,3.82-3.76v-8.17h-5.25c-3.6,0-6.31.63-8.13,1.88-1.82,1.25-2.72,3.03-2.72,5.33,0,1.87.62,3.36,1.86,4.46,1.24,1.11,2.9,1.66,4.98,1.66Z" style="fill: #c91933;"/>
        <path d="M168.79,391.53h-9.73v-61.5h9.73v61.5Z" style="fill: #c91933;"/>
        <path d="M201.67,392.33c-6.17,0-11.17-1.94-15-5.83-3.83-3.88-5.75-9.06-5.75-15.52v-1.2c0-4.32.83-8.19,2.5-11.59,1.67-3.4,4.01-6.05,7.03-7.95,3.02-1.89,6.38-2.84,10.09-2.84,5.9,0,10.46,1.88,13.67,5.65,3.22,3.76,4.83,9.09,4.83,15.98v3.92h-28.31c.29,3.58,1.49,6.41,3.58,8.49s4.73,3.12,7.91,3.12c4.46,0,8.09-1.8,10.89-5.41l5.24,5c-1.73,2.59-4.05,4.6-6.95,6.03-2.9,1.43-6.15,2.14-9.75,2.14ZM200.51,355.22c-2.67,0-4.82.93-6.47,2.8-1.64,1.87-2.69,4.47-3.14,7.81h18.54v-.72c-.21-3.26-1.08-5.72-2.6-7.39-1.52-1.67-3.63-2.5-6.33-2.5Z" style="fill: #c91933;"/>
      </g>
    </g>
  </g>
</svg>