<?xml version="1.0" encoding="UTF-8"?><svg id="uuid-78c12df2-df8b-4869-a2d2-16f112b1d9ac" xmlns="http://www.w3.org/2000/svg" width="8.62" height="8.11" viewBox="0 0 8.62 8.11"><g id="uuid-d2018af2-dac4-4955-97c3-d6b5ced31a65"><path d="M1.37,7.48L.07,4.53c-.08-.18-.09-.35-.02-.52.07-.17.19-.3.37-.38l.73-.32c.18-.08.35-.09.52-.02.17.07.29.19.37.37l.85,1.94s0,.01.02.01c0,0,.01,0,.01-.01C4.1,3.71,5.4,1.92,6.84.24c.12-.14.27-.22.46-.23s.35.05.49.17l.6.53c.14.13.22.29.23.47,0,.19-.05.35-.17.5-1.57,1.84-2.96,3.79-4.18,5.84-.23.39-.58.59-1.03.59h-.91c-.2,0-.39-.06-.56-.17-.18-.12-.31-.27-.4-.45Z"/></g></svg>