<?xml version="1.0" encoding="UTF-8"?>
<svg id="_レイヤー_2" data-name="レイヤー 2" xmlns="http://www.w3.org/2000/svg" viewBox="0 0 50 50">
  <g id="_レイヤー_1-2" data-name="レイヤー 1">
    <g>
      <rect width="50" height="50" style="fill: none;"/>
      <path d="M45.03,14.94c-.48-1.8-1.9-3.22-3.7-3.7-3.26-.87-16.33-.87-16.33-.87,0,0-13.07,0-16.33.87-1.8.48-3.22,1.9-3.7,3.7-.87,3.26-.87,10.06-.87,10.06,0,0,0,6.8.87,10.06.48,1.8,1.9,3.22,3.7,3.7,3.26.87,16.33.87,16.33.87,0,0,13.07,0,16.33-.87,1.8-.48,3.22-1.9,3.7-3.7.87-3.26.87-10.06.87-10.06,0,0,0-6.8-.87-10.06ZM20.82,31.27v-12.54l10.86,6.27-10.86,6.27Z"/>
    </g>
  </g>
</svg>