<?xml version="1.0" encoding="UTF-8"?>
<svg id="_レイヤー_2" data-name="レイヤー 2" xmlns="http://www.w3.org/2000/svg" viewBox="0 0 35.1 62">
  <g id="_レイヤー_1-2" data-name="レイヤー 1">
    <g>
      <path d="M34.79,20.78c.2-1.05.31-2.13.31-3.23s-.11-2.18-.31-3.23l-12.94,1.45,10.18-8.13c-1.23-1.79-2.78-3.34-4.57-4.57l-8.13,10.18L20.78.31c-1.05-.2-2.13-.31-3.23-.31s-2.18.11-3.23.31l1.45,12.94L7.64,3.07c-1.79,1.23-3.34,2.78-4.57,4.57l10.18,8.13L.31,14.32c-.2,1.05-.31,2.13-.31,3.23s.11,2.18.31,3.23l12.94-1.45L3.07,27.46c1.23,1.79,2.78,3.34,4.57,4.57l8.13-10.18-1.45,12.94c1.05.2,2.13.31,3.23.31s2.18-.11,3.23-.31l-1.45-12.94,8.13,10.18c1.79-1.23,3.34-2.78,4.57-4.57l-10.18-8.13,12.94,1.45Z" style="fill: #b91f3a;"/>
      <path d="M29.19,36.57c-8.68.11-14.62,4.86-14.62,12.7v12.73h5.96v-11.87c0-6.19,4.81-8.33,10.18-7.58l-1.52-5.98Z" style="fill: #1c1c1c;"/>
    </g>
  </g>
</svg>