<?xml version="1.0" encoding="UTF-8"?>
<svg id="_レイヤー_2" data-name="レイヤー 2" xmlns="http://www.w3.org/2000/svg" viewBox="0 0 170 110">
  <g id="_レイヤー_1-2" data-name="レイヤー 1">
    <g>
      <polyline points="10.9 98.98 10.9 57.11 66.72 43.94 161.03 57.11 161.03 98.98" style="fill: none; stroke: #1c1c1c; stroke-miterlimit: 10; stroke-width: 2px;"/>
      <path d="M33.79,87.12c.18-.39.26-.7.34-1.17.73.21,1.48.49,2.03.75.26.1.36.21.36.34,0,.16-.05.26-.21.39-.18.18-.23.34-.39.73-.55,1.27-1.12,2.34-1.92,3.43-.26.36-.39.52-.55.52-.13,0-.26-.1-.52-.34-.57-.49-1.12-.78-1.53-.96,1.14-1.22,1.85-2.39,2.39-3.69ZM37.9,69.42c1.69,0,2.18-.05,2.37-.05.26,0,.29.03.29.29,0,.16-.05,1.22-.05,3.48v8.71c0,2.24.05,3.3.05,3.46,0,.26-.03.29-.29.29-.18,0-.68-.05-2.37-.05h-2.5c-1.69,0-2.21.05-2.39.05-.26,0-.29-.03-.29-.29,0-.18.05-1.22.05-3.46v-8.71c0-2.26-.05-3.3-.05-3.48,0-.26.03-.29.29-.29.18,0,.7.05,2.39.05h2.5ZM35.12,71.6v2.52h3.07v-2.52h-3.07ZM38.19,78.62v-2.44h-3.07v2.44h3.07ZM38.19,80.68h-3.07v2.7h3.07v-2.7ZM38.84,85.9c.29-.13.34-.16.47.1.44,1.01.73,1.53,1.38,2.6-.47.31-1.04.78-1.46,1.2-.16.16-.26.23-.36.23-.13,0-.26-.16-.47-.55-.36-.68-.78-1.59-1.14-2.47-.1-.26-.05-.34.21-.47l1.38-.65ZM45.18,75.74h6.32c.44,0,.6-.03.73-.1.13-.08.26-.13.39-.13.18,0,.36.1,1.01.81.68.7.83.94.83,1.14,0,.18-.1.31-.21.42-.18.18-.34.39-.47.94-.65,2.73-1.56,5.07-2.76,7.12,1.17,1.38,2.7,2.6,4.71,3.67-.39.47-.83,1.09-1.17,1.82-.21.42-.26.62-.42.62-.13,0-.29-.1-.57-.31-1.53-1.12-2.89-2.31-4.03-3.64-1.07,1.38-2.29,2.63-3.74,3.77-.29.23-.44.34-.55.34-.16,0-.26-.18-.52-.57-.44-.68-.75-.99-1.2-1.38,1.79-1.2,3.3-2.6,4.5-4.21-1.4-2.21-2.34-4.78-2.76-7.93h-.13c-.05,2.5-.21,4.63-.42,6.6-.31,2.63-1.14,5.23-2.18,6.86-.18.31-.29.49-.44.49-.13,0-.29-.1-.52-.36-.6-.62-1.09-.99-1.64-1.33,1.3-1.56,2.08-3.64,2.37-6.63.21-1.9.31-4.26.31-7.51,0-4.39-.05-6.34-.05-6.5,0-.26.03-.29.31-.29.16,0,.99.05,3.3.05h5.54c2.31,0,3.09-.05,3.25-.05.23,0,.26.03.26.29v2c0,.26-.03.29-.26.29-.16,0-.94-.05-3.25-.05h-6.55v3.77ZM47.55,78.1c.44,2.11,1.07,3.95,1.95,5.56.81-1.61,1.43-3.46,1.87-5.56h-3.82Z" style="fill: #1c1c1c;"/>
      <path d="M67.69,84.13c.08-.83.08-1.56-.03-2.29.94.05,1.85.13,2.7.23.29.05.44.16.44.34,0,.21-.08.31-.16.52-.08.18-.18.75-.26,1.51-.34,3.61-2.03,6.03-7.33,7.49-.29.08-.47.13-.6.13-.23,0-.31-.16-.57-.62-.34-.62-.83-1.3-1.33-1.69,5.33-.94,6.89-2.63,7.12-5.62ZM66.83,77.27c-2.52,0-3.43.05-3.59.05-.23,0-.26-.03-.26-.29v-1.72c0-.26.03-.29.26-.29.16,0,1.07.05,3.59.05h3.74v-1.74h-5.72c-2.39,0-3.2.05-3.35.05-.29,0-.31-.03-.31-.31v-1.77c0-.23.03-.26.31-.26.16,0,.96.05,3.35.05h5.72v-.05c0-1.27-.03-1.92-.21-2.73.99.03,1.98.08,2.86.18.23.03.39.16.39.26,0,.18-.05.31-.13.52-.1.26-.16.81-.16,1.77v.05h6.34c2.39,0,3.22-.05,3.38-.05.26,0,.29.03.29.26v1.77c0,.29-.03.31-.29.31-.16,0-.99-.05-3.38-.05h-6.34v1.74h4.21c2.55,0,3.43-.05,3.56-.05.29,0,.31.03.31.29v1.72c0,.26-.03.29-.31.29-.13,0-1.01-.05-3.56-.05h-10.71ZM79.31,78.8c2.44,0,3.3-.05,3.48-.05.26,0,.29.03.29.26,0,.16-.05.57-.05,1.14v.94c0,1.98.05,2.34.05,2.5,0,.26-.03.29-.29.29h-2.11c-.26,0-.29-.03-.29-.29v-2.6h-16.35v2.6c0,.26-.03.29-.29.29h-2.08c-.29,0-.31-.03-.31-.29,0-.18.05-.52.05-2.5v-.78c0-.73-.05-1.12-.05-1.3,0-.23.03-.26.31-.26.16,0,1.04.05,3.46.05h14.17ZM75.91,88.27c0,.6.08.73.36.83.31.1.81.16,1.85.16s1.77-.1,2.11-.39c.42-.34.52-1.04.55-2.47.57.29,1.17.49,1.87.68.68.18.7.18.62.86-.18,1.74-.55,2.44-1.25,3.02-.68.55-1.82.78-4.16.78-1.87,0-2.83-.08-3.67-.42-.49-.21-.96-.65-.96-1.85v-4.97c0-.96-.05-1.87-.16-2.68.96.05,1.77.1,2.6.18.34.05.49.18.49.31,0,.21-.08.39-.16.52-.08.21-.1.44-.1,1.27v4.16Z" style="fill: #1c1c1c;"/>
      <path d="M91.04,82.5c0-.94,0-2.11.03-3.22-.39.57-.83,1.12-1.3,1.69-.21.23-.36.36-.47.36-.16,0-.23-.16-.29-.44-.16-.88-.47-1.82-.78-2.37,2-2.34,3.41-5.2,4.45-8.37.18-.62.34-1.22.42-1.87.86.26,1.66.52,2.39.88.26.1.42.23.42.47,0,.18-.13.31-.29.47-.18.16-.29.39-.52,1.04-.47,1.33-.94,2.55-1.48,3.72v13.16c0,2.52.05,3.8.05,3.93,0,.26-.03.29-.29.29h-2.11c-.26,0-.29-.03-.29-.29,0-.16.05-1.4.05-3.93v-5.51ZM99.57,72.67c-2.55,0-3.41.05-3.56.05-.26,0-.29-.03-.29-.29v-1.92c0-.29.03-.31.29-.31.16,0,1.01.05,3.56.05h9.2c2.55,0,3.41-.05,3.56-.05.26,0,.29.03.29.31v1.92c0,.26-.03.29-.29.29-.16,0-1.01-.05-3.56-.05h-1.66v4h.81c2.52,0,3.43-.05,3.61-.05.26,0,.29.03.29.29,0,.16-.05,1.17-.05,4.26v4.52c0,4.58.05,5.54.05,5.69,0,.26-.03.29-.29.29h-2.03c-.26,0-.29-.03-.29-.29v-1.09h-10.89v1.2c0,.26-.03.29-.29.29h-2c-.26,0-.29-.03-.29-.29,0-.16.05-1.12.05-5.72v-4.11c0-3.59-.05-4.58-.05-4.76,0-.26.03-.29.29-.29.16,0,1.04.05,3.56.05h.68v-4h-.7ZM100.27,87.98v-9.02h-1.95v9.02h1.95ZM104.69,76.67v-4h-2v4h2ZM104.69,87.98v-9.02h-2v9.02h2ZM107.11,78.96v9.02h2.11v-9.02h-2.11Z" style="fill: #1c1c1c;"/>
      <path d="M136.82,70.82c.21,0,.36-.03.47-.08.1-.05.21-.08.29-.08.21,0,.44.08,1.01.68.55.62.62.81.62,1.01,0,.18-.08.31-.29.47-.18.13-.34.31-.6.78-.86,1.61-1.92,3.07-3.22,4.39,1.9,1.27,4.11,2.18,6.5,2.73-.36.55-.65,1.17-.81,1.79q-.21.81-1.01.6c-.39-.13-.81-.26-1.17-.42,0,.18-.05.91-.05,2.55v2.29c0,3.54.05,4.19.05,4.32,0,.26-.03.29-.29.29h-2.05c-.26,0-.29-.03-.29-.29v-1.01h-6.06v1.04c0,.26-.03.29-.29.29h-2c-.26,0-.29-.03-.29-.29,0-.16.05-.81.05-4.32v-1.98c0-1.38-.03-2.11-.05-2.5l-.78.31c-.29.1-.47.18-.62.18-.23,0-.34-.21-.55-.7-.18-.52-.52-1.09-.88-1.51,2.63-.83,4.91-2,6.79-3.38-.81-.83-1.51-1.74-2.11-2.73-.55.65-1.12,1.25-1.74,1.82-.31.29-.47.42-.6.42-.16,0-.31-.16-.57-.49-.36-.44-.75-.83-1.2-1.12-.29,0-.75-.03-1.43-.03.7,1.22,1.53,2.26,2.47,3.12-.34.47-.65,1.04-.83,1.64-.1.34-.16.49-.29.49-.08,0-.21-.13-.39-.39-.44-.6-.88-1.27-1.25-2,0,7.05.18,12.69.18,13.13,0,.29-.03.31-.31.31h-2.11c-.26,0-.29-.03-.29-.31,0-.42.16-5.43.18-11.52-.6,2.11-1.48,4.06-2.55,5.75-.16.26-.29.42-.39.42s-.21-.13-.29-.42c-.21-.68-.52-1.38-.91-1.98,1.72-2.29,3.04-4.91,3.9-8.24h-.55c-1.82,0-2.39.05-2.55.05-.23,0-.26-.03-.26-.29v-1.85c0-.26.03-.29.26-.29.16,0,.73.05,2.55.05h.7v-1.64c0-1.61-.03-2.47-.21-3.56.99.03,1.79.08,2.6.18.26.03.44.13.44.29,0,.21-.08.36-.16.55-.16.31-.18.73-.18,2.5v1.69c1.53,0,2.03-.05,2.18-.05.26,0,.29.03.29.29v1.33c1.61-1.59,2.94-3.48,3.82-5.49.23-.52.39-.99.49-1.48.88.13,1.69.29,2.39.47.29.08.42.18.42.31s-.08.23-.21.36c-.21.18-.34.39-.49.73l-.36.81h4.84ZM135.26,82.5c1.56,0,2.37-.03,2.76-.03-1.77-.75-3.38-1.64-4.78-2.76-1.3,1.04-2.81,1.98-4.5,2.78h6.53ZM129.93,88.58h6.06v-3.72h-6.06v3.72ZM130.66,73.24c.65,1.2,1.51,2.26,2.5,3.2,1.09-1.07,1.98-2.21,2.6-3.38h-4.99l-.1.18Z" style="fill: #1c1c1c;"/>
      <path d="M18.69,33.51l-4.22,1-.51-2.14,10.9-2.57.51,2.14-4.22,1,2.75,11.64-2.45.58-2.75-11.64Z" style="fill: #1c1c1c;"/>
      <path d="M26.86,38.9c-.17-.74-.2-1.44-.08-2.11.12-.67.36-1.27.71-1.8.35-.54.81-.99,1.38-1.37.57-.38,1.2-.65,1.9-.82.7-.17,1.39-.2,2.07-.12.68.09,1.29.29,1.85.61.56.32,1.04.75,1.45,1.29.41.54.7,1.18.87,1.92.17.74.2,1.45.08,2.12-.12.67-.36,1.28-.71,1.82-.35.54-.81,1.01-1.37,1.4-.56.39-1.2.67-1.9.84-.7.17-1.39.2-2.07.1-.68-.1-1.3-.31-1.86-.64-.56-.33-1.04-.76-1.45-1.31-.41-.55-.7-1.19-.88-1.93ZM29.23,38.34c.09.36.23.71.42,1.05.2.34.44.62.73.86.29.23.62.4,1,.5.38.1.8.1,1.27-.01.47-.11.85-.3,1.14-.56.29-.26.52-.56.67-.9.15-.34.24-.7.27-1.09.02-.39,0-.77-.09-1.13-.09-.36-.23-.71-.42-1.04-.19-.33-.44-.61-.72-.85-.29-.23-.62-.4-1-.49-.38-.1-.8-.09-1.27.02-.47.11-.85.29-1.14.55-.3.25-.52.55-.67.89-.15.34-.24.7-.27,1.08-.03.38,0,.76.09,1.12Z" style="fill: #1c1c1c;"/>
      <path d="M37.7,33.42l-.44-1.87,1.64-.39-.64-2.71,2.3-.54.64,2.71,2.34-.55.44,1.87-2.34.55,1.02,4.34c.1.42.25.74.47.98.21.24.58.29,1.1.17.16-.04.32-.09.49-.17.17-.08.32-.16.45-.26l.51,1.81c-.19.13-.42.25-.7.36-.27.11-.54.2-.8.26-.62.15-1.15.18-1.58.1-.43-.08-.8-.25-1.09-.5-.3-.25-.54-.56-.72-.94-.18-.38-.32-.79-.43-1.25l-1.03-4.36-1.64.39Z" style="fill: #1c1c1c;"/>
      <path d="M53.55,36.32h-.06c-.14.48-.43.91-.89,1.3s-1.02.66-1.68.82c-.38.09-.78.13-1.21.13-.43,0-.85-.07-1.24-.22-.4-.15-.75-.38-1.07-.69-.31-.32-.54-.75-.66-1.29-.17-.7-.1-1.31.2-1.81.3-.51.73-.95,1.3-1.31.57-.37,1.23-.68,1.97-.93s1.48-.46,2.2-.63l-.06-.23c-.14-.58-.45-.97-.94-1.15-.49-.18-1.02-.2-1.61-.06-.49.12-.94.33-1.35.65-.41.32-.72.66-.95,1.03l-1.54-1.14c.42-.62.94-1.13,1.58-1.54.64-.41,1.31-.7,2.02-.87.83-.2,1.54-.24,2.14-.13.59.11,1.09.31,1.49.61.4.3.72.67.95,1.11.23.44.41.89.52,1.36l1.34,5.68-2.18.51-.28-1.19ZM52.78,33.25l-.53.12c-.38.09-.77.2-1.18.33-.41.13-.77.29-1.1.49-.32.19-.58.42-.77.67-.19.26-.24.56-.16.91.05.22.14.39.28.52.13.13.29.22.46.27.18.05.37.08.57.07.2,0,.4-.03.6-.08.8-.19,1.36-.55,1.68-1.07.31-.53.38-1.16.21-1.9l-.08-.33Z" style="fill: #1c1c1c;"/>
      <path d="M55.65,21.54l2.34-.55,3.47,14.72-2.34.55-3.47-14.72Z" style="fill: #1c1c1c;"/>
      <path d="M76.46,26.3l-.19,1.33h.06c.14-.16.33-.33.54-.49.22-.16.48-.3.78-.42.3-.11.63-.19.99-.24.36-.05.76-.04,1.2.02.67.09,1.28.31,1.81.65.53.34.97.76,1.32,1.27.35.51.59,1.08.73,1.72.14.64.16,1.31.06,2.01-.1.7-.3,1.34-.6,1.92-.3.58-.69,1.07-1.16,1.47-.47.4-1.01.69-1.62.88-.61.19-1.28.23-2.01.13-.67-.09-1.27-.32-1.79-.68-.52-.36-.9-.79-1.14-1.31h-.04s-.85,6.02-.85,6.02l-2.38-.33,2-14.26,2.28.32ZM81.34,31.79c.05-.37.05-.74-.01-1.12-.06-.38-.18-.73-.37-1.05-.18-.32-.43-.6-.75-.82-.32-.23-.71-.37-1.17-.44-.44-.06-.84-.02-1.21.11-.37.14-.7.33-.98.59-.29.26-.52.56-.69.91-.18.35-.29.71-.34,1.08-.05.37-.04.75.03,1.13.07.38.21.73.42,1.06.2.32.46.6.78.83.32.23.7.37,1.13.43.46.06.88.03,1.25-.11.37-.14.69-.33.95-.59.27-.26.48-.57.64-.92.16-.35.27-.72.32-1.09Z" style="fill: #1c1c1c;"/>
      <path d="M87.1,27.79l2.28.32-.22,1.58h.04c.34-.51.77-.91,1.3-1.19.52-.28,1.1-.37,1.74-.28.09.01.19.03.3.05.1.02.19.05.27.09l-.31,2.18c-.15-.06-.28-.11-.4-.14-.11-.03-.22-.05-.32-.07-.54-.08-.99-.04-1.35.11-.36.15-.65.35-.87.6-.22.25-.39.52-.5.8-.11.28-.17.51-.2.68l-.71,5.09-2.38-.33,1.33-9.51Z" style="fill: #1c1c1c;"/>
      <path d="M94.76,28.87l2.38.33-1.33,9.51-2.38-.33,1.33-9.51ZM94.88,25.59c.05-.38.24-.7.57-.94.32-.24.7-.34,1.14-.27.44.06.78.25,1.04.56.26.31.36.67.3,1.08-.06.41-.25.73-.59.96-.34.23-.72.31-1.16.25-.44-.06-.78-.25-1.02-.58-.24-.32-.34-.68-.29-1.06Z" style="fill: #1c1c1c;"/>
      <path d="M106.46,33.19c-.15-.29-.39-.55-.74-.78-.34-.23-.71-.37-1.09-.43-.44-.06-.83-.03-1.19.11-.36.13-.66.33-.92.59-.26.26-.47.56-.62.91-.16.35-.26.71-.31,1.08-.05.37-.05.74.01,1.12.06.38.18.73.37,1.05.18.32.43.6.74.82.31.23.69.37,1.14.43.37.05.75.03,1.14-.06.39-.09.72-.26.98-.51l1.27,1.71c-.46.37-1.01.62-1.65.77-.65.14-1.33.17-2.04.07-.7-.1-1.35-.3-1.94-.62s-1.1-.72-1.5-1.22-.7-1.08-.89-1.74c-.18-.66-.22-1.38-.11-2.18.11-.77.34-1.44.7-2.02.36-.58.8-1.06,1.32-1.43.52-.37,1.11-.63,1.76-.78.65-.15,1.32-.18,2.02-.08.7.1,1.36.32,1.97.68.62.36,1.08.79,1.4,1.31l-1.82,1.2Z" style="fill: #1c1c1c;"/>
      <path d="M118.66,37.19c-.01.11-.03.21-.04.32-.01.11-.04.21-.06.31l-7.23-1.01c-.02.35.02.67.14.98.11.31.28.58.5.82.22.24.48.44.78.61.3.16.62.27.97.32.59.08,1.11.04,1.55-.12.44-.16.82-.41,1.14-.76l1.41,1.49c-1.12,1.14-2.56,1.58-4.35,1.33-.74-.1-1.4-.32-1.99-.63-.59-.32-1.08-.72-1.48-1.21-.4-.49-.68-1.05-.85-1.7-.17-.65-.2-1.36-.09-2.14.11-.77.33-1.44.68-2.04.35-.59.77-1.08,1.28-1.46.51-.38,1.09-.65,1.74-.81.65-.16,1.33-.19,2.04-.09.66.09,1.26.29,1.79.58.53.3.97.69,1.32,1.17.35.49.59,1.07.74,1.74.14.67.15,1.44.03,2.3ZM116.43,35.79c.04-.3.04-.6,0-.89-.05-.29-.15-.55-.3-.79-.16-.24-.37-.44-.63-.6-.27-.17-.59-.27-.97-.33-.71-.1-1.35.03-1.9.39-.56.36-.91.87-1.05,1.54l4.87.68Z" style="fill: #1c1c1c;"/>
      <path d="M126.92,35.96c-.17-.31-.43-.59-.77-.85-.34-.26-.73-.42-1.16-.48-.38-.05-.74-.02-1.08.09-.34.11-.53.36-.59.73-.05.37.09.66.41.86.33.2.82.43,1.47.68.35.13.69.29,1.04.47.34.18.65.4.92.66.27.26.47.56.61.91.14.35.18.76.11,1.22-.08.58-.26,1.06-.53,1.43-.27.37-.61.66-1.01.86-.4.2-.85.32-1.34.37-.5.04-1,.03-1.52-.04-.74-.1-1.44-.34-2.1-.71-.66-.37-1.19-.84-1.58-1.4l1.77-1.25c.22.38.52.71.91,1,.39.28.84.46,1.36.53.17.02.35.03.53.01.18-.01.36-.05.52-.12.16-.06.3-.16.41-.29.11-.13.18-.3.21-.52.06-.4-.09-.71-.42-.93-.34-.22-.86-.47-1.56-.74-.35-.13-.68-.28-1-.45-.32-.17-.6-.38-.83-.62-.24-.24-.41-.53-.53-.85-.12-.33-.14-.71-.08-1.16.07-.53.25-.97.52-1.32.27-.35.6-.63.99-.82.39-.19.82-.32,1.28-.38.47-.06.94-.05,1.41.02.69.1,1.34.31,1.96.64.62.33,1.09.77,1.4,1.31l-1.74,1.15Z" style="fill: #1c1c1c;"/>
      <rect x="9.26" y="41.41" width="57.16" height="9.21" transform="translate(-9.56 9.92) rotate(-13.27)" style="fill: none;"/>
      <rect x="67.08" y="38.72" width="57.16" height="9.21" transform="translate(6.91 -12.81) rotate(7.95)" style="fill: none;"/>
    </g>
    <rect width="170" height="110" style="fill: none;"/>
  </g>
</svg>