<?xml version="1.0" encoding="UTF-8"?>
<svg id="_レイヤー_2" data-name="レイヤー 2" xmlns="http://www.w3.org/2000/svg" viewBox="0 0 315.75 160.55">
  <g id="_レイヤー_1-2" data-name="レイヤー 1">
    <g>
      <line x1="156.7" y1="80.28" y2="80.28" style="fill: none; stroke: #c91933; stroke-miterlimit: 10; stroke-width: 3px;"/>
      <circle cx="235.48" cy="80.28" r="78.78" transform="translate(12.21 190.02) rotate(-45)" style="fill: none; stroke: #c91933; stroke-miterlimit: 10; stroke-width: 3px;"/>
      <path d="M201.19,54.9h6.93c1.22,0,2.32.11,3.3.33.98.22,1.82.58,2.52,1.08.7.5,1.24,1.14,1.62,1.92.38.78.57,1.72.57,2.82,0,1.18-.22,2.17-.66,2.97-.44.8-1.04,1.45-1.79,1.94-.75.49-1.62.85-2.62,1.06-1,.22-2.06.33-3.18.33h-2.91v8.79h-3.78v-21.24ZM207.61,64.17c.62,0,1.21-.04,1.77-.13.56-.09,1.06-.25,1.5-.48.44-.23.79-.54,1.05-.94s.39-.92.39-1.56-.13-1.12-.39-1.52c-.26-.39-.61-.69-1.04-.91-.43-.22-.92-.36-1.47-.44-.55-.07-1.12-.11-1.7-.11h-2.76v6.09h2.64Z" style="fill: #c82937;"/>
      <path d="M217,68.88c0-1.14.2-2.18.61-3.11.41-.93.96-1.72,1.66-2.38s1.53-1.17,2.49-1.53c.96-.36,1.98-.54,3.06-.54s2.1.18,3.06.54c.96.36,1.79.87,2.49,1.53.7.66,1.25,1.46,1.67,2.38.41.93.62,1.97.62,3.11s-.21,2.18-.62,3.12c-.41.94-.97,1.75-1.67,2.41-.7.67-1.53,1.2-2.49,1.58-.96.38-1.98.57-3.06.57s-2.1-.19-3.06-.57c-.96-.38-1.79-.9-2.49-1.58-.7-.67-1.25-1.47-1.66-2.41-.41-.94-.61-1.98-.61-3.12ZM220.66,68.88c0,.56.08,1.12.25,1.68.17.56.42,1.06.76,1.5.34.44.77.8,1.29,1.08.52.28,1.14.42,1.86.42s1.34-.14,1.86-.42c.52-.28.95-.64,1.29-1.08.34-.44.59-.94.77-1.5.17-.56.25-1.12.25-1.68s-.09-1.11-.25-1.66c-.17-.55-.43-1.04-.77-1.49-.34-.44-.77-.79-1.29-1.06s-1.14-.4-1.86-.4-1.34.13-1.86.4c-.52.27-.95.63-1.29,1.06-.34.44-.6.94-.76,1.49-.17.55-.25,1.1-.25,1.66Z" style="fill: #c82937;"/>
      <path d="M236.83,56.85c0-.58.21-1.08.65-1.52.43-.43.97-.65,1.63-.65s1.21.21,1.66.62c.45.41.67.93.67,1.55s-.22,1.14-.67,1.54c-.45.41-1,.62-1.66.62s-1.21-.21-1.63-.64c-.43-.43-.65-.93-.65-1.52ZM237.34,61.74h3.6v14.4h-3.6v-14.4Z" style="fill: #c82937;"/>
      <path d="M246.19,61.74h3.42v2.31h.06c.32-.72.87-1.35,1.66-1.91.79-.55,1.73-.82,2.81-.82.94,0,1.74.16,2.41.49.67.33,1.22.77,1.65,1.31.43.54.75,1.16.95,1.86.2.7.3,1.42.3,2.16v9h-3.6v-7.98c0-.42-.03-.86-.09-1.32-.06-.46-.19-.88-.39-1.25s-.48-.68-.83-.92c-.35-.24-.81-.36-1.39-.36s-1.08.12-1.5.34c-.42.23-.76.52-1.04.89-.27.36-.48.78-.62,1.24-.14.47-.21.95-.21,1.43v7.92h-3.6v-14.4Z" style="fill: #c82937;"/>
      <path d="M262.56,64.62v-2.88h2.52v-4.17h3.54v4.17h3.6v2.88h-3.6v6.69c0,.64.11,1.17.34,1.59.23.42.75.63,1.54.63.24,0,.5-.02.78-.08.28-.05.53-.12.75-.23l.12,2.82c-.32.12-.7.21-1.14.28-.44.07-.86.1-1.26.1-.96,0-1.74-.13-2.34-.4-.6-.27-1.08-.64-1.42-1.11-.35-.47-.59-1.01-.72-1.62-.13-.61-.19-1.26-.19-1.96v-6.72h-2.52Z" style="fill: #c82937;"/>
      <path d="M238.82,118.97h-3.65v-22.42l-5.09,4.26-2.17-2.55,7.63-6.19h3.27v26.9Z" style="fill: #c82937;"/>
    </g>
  </g>
</svg>