<?xml version="1.0" encoding="UTF-8"?>
<svg id="uuid-bbe72675-3be3-47e1-934c-0a73124c7704" data-name="レイヤー_2" xmlns="http://www.w3.org/2000/svg" viewBox="0 0 162.72 79.18">
  <g id="uuid-fa917045-9fa7-4982-94ab-c907c508cb79" data-name="レイヤー_1">
    <g>
      <path d="M162.34,25.49c.24-1.29.38-2.61.38-3.96s-.14-2.68-.38-3.96l-15.88,1.78,12.49-9.97c-1.51-2.2-3.41-4.1-5.61-5.61l-9.97,12.49,1.78-15.88c-1.29-.24-2.61-.38-3.96-.38s-2.68.14-3.96.38l1.78,15.88-9.97-12.49c-2.2,1.51-4.1,3.41-5.61,5.61l12.49,9.97-15.88-1.78c-.24,1.29-.38,2.61-.38,3.96s.14,2.68.38,3.96l15.88-1.78-12.49,9.97c1.51,2.2,3.41,4.1,5.61,5.61l9.97-12.49-1.78,15.88c1.29.24,2.61.38,3.96.38s2.68-.14,3.96-.38l-1.78-15.88,9.97,12.49c2.2-1.51,4.1-3.41,5.61-5.61l-12.49-9.97,15.88,1.78Z" style="fill: #c91933;"/>
      <polygon points="31.31 40.52 25.54 36.06 0 75.26 6.13 79.18 31.31 40.52" style="fill: #fff;"/>
      <path d="M44.15,75.23h-7.39c0-12.28-2.49-26.98-14.33-32.46l3.11-6.71c12.18,5.64,18.62,18.48,18.62,39.17Z" style="fill: #fff;"/>
      <rect x="15.41" y="57.68" width="25.35" height="5.84" style="fill: #fff;"/>
      <polygon points="97.41 50.6 81.36 50.6 81.36 44.76 96.31 44.76 97.41 50.6" style="fill: #fff;"/>
      <path d="M88.84,62.66c0-6.51,0-24.48,0-24.48l-7.48-2v26.7c0,9.6,5.97,13.25,14.12,13.19l2.07-6.7c-1.67.18-8.7.44-8.7-6.71Z" style="fill: #fff;"/>
      <path d="M155.47,44.86c-10.65.14-17.93,5.97-17.93,15.58v15.61h7.31v-14.56c0-7.59,5.9-10.22,12.49-9.3l-1.86-7.33Z" style="fill: #fff;"/>
      <path d="M105.32,57.77h18.47c.21-3.67-2.58-7.08-7.02-7.13-4.74-.05-7.61,3.74-7.62,9.75,0,6.21,2.88,8.98,7.45,9.33,4.36.33,6.93-2.03,8.05-4.35l5.48,4.31s-4.21,6.23-12.27,6.45c-5.43.15-10.68-2.16-13.3-6.65-3.01-5.15-2.9-12.59.12-17.84,3.74-6.5,11.58-8.49,18.05-5.56,7,3.17,8.67,11.24,7.94,17.39h-25.34v-5.7Z" style="fill: #fff;"/>
      <path d="M69.18,59.95c-2.51-1.07-5.8-2.42-7.4-3.05-2.41-.95-3.44-2.47-2.63-4.33,1.08-2.5,6.13-2.65,10.58,2.37l4.53-5.08s-4.49-4.6-10.25-4.94c-5.67-.34-9.9,1.89-11.47,5.78-1.64,4.06-.52,8.3,4.43,10.5,2.11.94,4.34,1.8,7.14,2.95,2.6,1.07,4.21,1.99,3.81,3.62-.46,1.85-2.51,2.34-5.28,1.91-3.73-.57-6.62-2.41-7.99-3.99l-4.55,5.2c1.72,1.72,6.35,4.7,12.05,5.13,5.62.42,10.83-1.78,12.23-5.91,1.61-4.73-.82-8.31-5.2-10.17Z" style="fill: #fff;"/>
    </g>
  </g>
</svg>