<?xml version="1.0" encoding="UTF-8"?>
<svg id="uuid-ca6eb8cc-a9f5-49db-a50b-65d7594cd56d" data-name="レイヤー_2" xmlns="http://www.w3.org/2000/svg" viewBox="0 0 306.55 79.18">
  <g id="uuid-ed274cf3-46d6-49e0-b12b-b5b0a65c9c1a" data-name="レイヤー_1">
    <g>
      <path d="M306.17,25.49c.24-1.29.38-2.61.38-3.96s-.14-2.68-.38-3.96l-15.88,1.78,12.49-9.97c-1.51-2.2-3.41-4.1-5.61-5.61l-9.97,12.49,1.78-15.88c-1.29-.24-2.61-.38-3.96-.38s-2.68.14-3.96.38l1.78,15.88-9.97-12.49c-2.2,1.51-4.1,3.41-5.61,5.61l12.49,9.97-15.88-1.78c-.24,1.29-.38,2.61-.38,3.96s.14,2.68.38,3.96l15.88-1.78-12.49,9.97c1.51,2.2,3.41,4.1,5.61,5.61l9.97-12.49-1.78,15.88c1.29.24,2.61.38,3.96.38s2.68-.14,3.96-.38l-1.78-15.88,9.97,12.49c2.2-1.51,4.1-3.41,5.61-5.61l-12.49-9.97,15.88,1.78Z" style="fill: #c91933;"/>
      <polygon points="175.15 40.52 169.37 36.06 143.84 75.26 149.96 79.18 175.15 40.52" style="fill: #fff;"/>
      <path d="M187.99,75.23h-7.39c0-12.28-2.49-26.98-14.33-32.46l3.11-6.71c12.18,5.64,18.62,18.48,18.62,39.17Z" style="fill: #fff;"/>
      <rect x="159.25" y="57.68" width="25.35" height="5.84" style="fill: #fff;"/>
      <polygon points="241.25 50.6 225.19 50.6 225.19 44.76 240.15 44.76 241.25 50.6" style="fill: #fff;"/>
      <path d="M232.68,62.66c0-6.51,0-24.48,0-24.48l-7.48-2v26.7c0,9.6,5.97,13.25,14.12,13.19l2.07-6.7c-1.67.18-8.7.44-8.7-6.71Z" style="fill: #fff;"/>
      <path d="M299.31,44.86c-10.65.14-17.93,5.97-17.93,15.58v15.61h7.31v-14.56c0-7.59,5.9-10.22,12.49-9.3l-1.86-7.33Z" style="fill: #fff;"/>
      <path d="M249.16,57.77h18.47c.21-3.67-2.58-7.08-7.02-7.13-4.74-.05-7.61,3.74-7.62,9.75,0,6.21,2.88,8.98,7.45,9.33,4.36.33,6.93-2.03,8.05-4.35l5.48,4.31s-4.21,6.23-12.27,6.45c-5.43.15-10.68-2.16-13.3-6.65-3.01-5.15-2.9-12.59.12-17.84,3.74-6.5,11.58-8.49,18.05-5.56,7,3.17,8.67,11.24,7.94,17.39h-25.34v-5.7Z" style="fill: #fff;"/>
      <path d="M213.02,59.95c-2.51-1.07-5.8-2.42-7.4-3.05-2.41-.95-3.44-2.47-2.63-4.33,1.08-2.5,6.13-2.65,10.58,2.37l4.53-5.08s-4.49-4.6-10.25-4.94c-5.67-.34-9.9,1.89-11.47,5.78-1.64,4.06-.52,8.3,4.43,10.5,2.11.94,4.34,1.8,7.14,2.95,2.6,1.07,4.21,1.99,3.81,3.62-.46,1.85-2.51,2.34-5.28,1.91-3.73-.57-6.62-2.41-7.99-3.99l-4.55,5.2c1.72,1.72,6.35,4.7,12.05,5.13,5.62.42,10.83-1.78,12.23-5.91,1.61-4.73-.82-8.31-5.2-10.17Z" style="fill: #fff;"/>
      <path d="M125.78,64.46c-1.8,3.81-3.92,5.04-6.75,5.04-4.15,0-6.84-3.21-6.84-8.67,0-3.49,1.54-7.06,3.86-9.5,2.73-2.86,6.66-4.77,12.05-4.39,8.12.56,12.62,5.72,12.8,11.72.18,5.88-3.2,12.11-11.54,13.3l-2.62-4.78c2.53-.04,7.92-1.02,8.69-7.26.55-4.49-1.82-7.62-6.25-7.95-.68,5.12-1.74,8.97-3.41,12.48ZM117.07,60.64c.03,3.47,2.72,5.5,4.47.8,1.01-2.71,1.94-6.46,2.28-9.41-4.63,1.13-6.78,5.65-6.76,8.61Z" style="fill: #fff;"/>
      <polygon points="7.48 38.17 0 36.17 0 58.49 7.48 58.49 7.48 38.17" style="fill: #fff;"/>
      <path d="M19.72,52.21v-16.03l7.48,2s0,7.69,0,10.97c-.01,15.94-3.44,22.8-19.71,26.89l-3.23-6.54c10.44-1.71,15.47-5.16,15.47-17.29Z" style="fill: #fff;"/>
      <path d="M48.03,36.17l7.48,2c0,8.19.32,19.73-5.06,26.66-4.07,5.25-8.79,8.58-16.8,11.2l-3.23-6.54c7.65-1.97,12.66-5.73,15.29-11,3.19-6.38,2.32-14.07,2.32-22.32Z" style="fill: #fff;"/>
      <path d="M84.62,47.4c-2.4-2.54-4.35-3.24-6.4-3.24s-3.86.55-6.76,3.77c-3.85,4.27-10.25,10.98-10.25,10.98l5.17,5.37c2.27-2.76,5.9-6.83,8.41-9.66,1.18-1.34,2.13-2.68,3.58-2.72,1.49-.04,2.47.96,3.57,2.07,6.78,6.8,10.41,10.44,18.88,19.13l4.88-5.25s-15.18-14.22-21.06-20.45Z" style="fill: #fff;"/>
      <path d="M93.58,41.79l-3.16,3.43c2.54,2.05,4.8,4.2,6.72,6.47l3.31-3.6c-2.07-2.39-4.66-4.66-6.87-6.3Z" style="fill: #fff;"/>
      <path d="M98.87,36.56l-3.16,3.43c2.54,2.05,4.8,4.2,6.72,6.47l3.31-3.6c-2.07-2.39-4.66-4.66-6.87-6.3Z" style="fill: #fff;"/>
    </g>
  </g>
</svg>