<?xml version="1.0" encoding="UTF-8"?>
<svg id="uuid-8d5f3ca9-5c03-4be2-8a09-bff62a403de0" data-name="レイヤー_2" xmlns="http://www.w3.org/2000/svg" viewBox="0 0 334.8 76.9">
  <g id="uuid-6965f399-6d05-48b4-926f-e74a44932a69" data-name="レイヤー_1">
    <g>
      <path d="M157.66,24.76c.23-1.25.37-2.53.37-3.85s-.14-2.6-.37-3.85l-15.42,1.73,12.13-9.68c-1.46-2.13-3.31-3.98-5.45-5.45l-9.68,12.13,1.73-15.42c-1.25-.23-2.53-.37-3.85-.37s-2.6.14-3.85.37l1.73,15.42-9.68-12.13c-2.13,1.46-3.98,3.31-5.45,5.45l12.13,9.68-15.42-1.73c-.23,1.25-.37,2.53-.37,3.85s.14,2.6.37,3.85l15.42-1.73-12.13,9.68c1.46,2.13,3.31,3.98,5.45,5.45l9.68-12.13-1.73,15.42c1.25.23,2.53.37,3.85.37s2.6-.14,3.85-.37l-1.73-15.42,9.68,12.13c2.13-1.46,3.98-3.31,5.45-5.45l-12.13-9.68,15.42,1.73Z" style="fill: #c91933;"/>
      <path d="M24.8,35.02L0,73.09l5.95,3.8,9.91-15.21h18.96c.66,3.8.89,7.7.89,11.38h7.18c0-20.1-6.25-32.56-18.08-38.04ZM19.56,56.02l7.25-11.12c3.18,2.94,5.3,6.83,6.65,11.12h-13.9Z"/>
      <path d="M86.29,60.85c0-2.65,0-7.25,0-11.71h8.33l-1.07-5.68h-7.26c0-3.68,0-6.4,0-6.4l-7.26-1.94v25.93c0,9.33,5.8,12.87,13.71,12.81l2.01-6.5c-1.62.17-8.45.43-8.45-6.52Z"/>
      <path d="M133.58,58.7v15.16h7.1v-14.14c0-7.37,5.73-9.93,12.13-9.03l-1.81-7.12c-10.35.13-17.42,5.8-17.42,15.13Z"/>
      <path d="M119.19,44.75c-6.28-2.84-13.9-.92-17.53,5.4-2.93,5.1-3.04,12.32-.12,17.32,2.55,4.37,7.65,6.61,12.92,6.46,7.83-.21,11.92-6.27,11.92-6.27l-5.33-4.19c-1.08,2.26-3.58,4.55-7.81,4.23-3.62-.28-6.15-2.12-6.96-6.06h20.62c.71-5.98-.92-13.81-7.71-16.89ZM120.22,56.1h-14.01c.71-4.34,3.3-6.97,7.19-6.93,4.32.05,7.02,3.36,6.82,6.93Z"/>
      <path d="M67.19,58.22c-2.44-1.04-5.63-2.35-7.19-2.96-2.34-.93-3.34-2.39-2.55-4.21,1.05-2.43,5.95-2.57,10.28,2.3l4.4-4.93s-4.36-4.47-9.95-4.8c-5.51-.33-9.61,1.84-11.14,5.62-1.6,3.94-.5,8.06,4.3,10.2,2.05.91,4.21,1.74,6.94,2.87,2.52,1.04,4.09,1.93,3.7,3.52-.44,1.8-2.43,2.27-5.13,1.86-3.62-.55-6.43-2.34-7.76-3.88l-4.42,5.05c1.67,1.67,6.17,4.56,11.7,4.98,5.45.41,10.51-1.73,11.88-5.74,1.56-4.59-.79-8.07-5.05-9.88Z"/>
      <path d="M236.07,47.51c-1.32-1.32-2.89-2.34-4.7-3.06s-3.74-1.08-5.77-1.08-3.96.36-5.77,1.08c-1.81.72-3.38,1.74-4.7,3.06-1.32,1.32-2.37,2.91-3.14,4.77-.77,1.86-1.16,3.93-1.16,6.21s.39,4.36,1.16,6.24c.77,1.88,1.82,3.49,3.14,4.83,1.32,1.34,2.89,2.39,4.7,3.15,1.81.76,3.74,1.14,5.77,1.14s3.96-.38,5.77-1.14c1.81-.76,3.38-1.81,4.7-3.15,1.32-1.34,2.37-2.95,3.14-4.83.77-1.88,1.16-3.96,1.16-6.24s-.39-4.35-1.16-6.21c-.77-1.86-1.82-3.45-3.14-4.77ZM232.99,61.85c-.32,1.12-.8,2.12-1.44,3-.64.88-1.45,1.6-2.43,2.16-.98.56-2.15.84-3.51.84s-2.53-.28-3.51-.84c-.98-.56-1.79-1.28-2.43-2.16-.64-.88-1.12-1.88-1.44-3-.32-1.12-.48-2.24-.48-3.36s.16-2.23.48-3.33c.32-1.1.8-2.09,1.44-2.97.64-.88,1.45-1.59,2.43-2.13.98-.54,2.15-.81,3.51-.81s2.53.27,3.51.81c.98.54,1.79,1.25,2.43,2.13.64.88,1.12,1.87,1.44,2.97.32,1.1.48,2.21.48,3.33s-.16,2.24-.48,3.36Z"/>
      <polygon points="197.35 52.8 178.27 52.8 178.27 37.07 171.01 35.13 171.01 73.05 178.27 73.05 178.27 58.47 197.35 58.47 197.35 73.05 204.62 73.05 204.62 37.07 197.35 35.13 197.35 52.8"/>
      <path d="M297.2,58.22c-2.44-1.04-5.63-2.35-7.19-2.96-2.34-.93-3.34-2.39-2.55-4.21,1.05-2.43,5.95-2.57,10.28,2.3l4.4-4.93s-3.96-4.51-9.95-4.8c-5.51-.26-9.61,1.84-11.14,5.62-1.6,3.94-.5,8.06,4.3,10.2,2.05.91,4.21,1.74,6.94,2.87,2.52,1.04,4.09,1.93,3.7,3.52-.44,1.8-2.43,2.27-5.13,1.86-3.62-.55-6.43-2.34-7.76-3.88l-4.42,5.05c1.67,1.67,6.17,4.56,11.7,4.98,5.45.41,10.4-1.24,11.76-5.25,1.56-4.59-.68-8.55-4.93-10.37Z"/>
      <path d="M326.94,44.75c-6.28-2.84-13.9-.92-17.53,5.4-2.93,5.1-3.04,12.32-.12,17.32,2.55,4.37,7.65,6.61,12.92,6.46,7.83-.21,11.92-6.27,11.92-6.27l-5.33-4.19c-1.08,2.26-3.58,4.55-7.81,4.23-3.62-.28-6.15-2.12-6.96-6.06h20.62c.71-5.98-.92-13.81-7.71-16.89ZM327.97,56.1h-14.01c.71-4.34,3.3-6.97,7.19-6.93,4.32.05,7.02,3.36,6.82,6.93Z"/>
      <path d="M265.99,60.2c0,4.34-1.58,7.51-6.39,7.51s-6.39-2.73-6.39-7.33v-15.07l-7.26-1.94v18.33c0,7.01,4.36,12.17,13.65,12.17,10.05,0,13.66-5.99,13.66-12.17v-16.38l-7.26-1.94v16.83Z"/>
    </g>
  </g>
</svg>