<?xml version="1.0" encoding="UTF-8"?>
<svg id="_レイヤー_2" data-name="レイヤー 2" xmlns="http://www.w3.org/2000/svg" viewBox="0 0 488.41 268.29">
  <g id="_レイヤー_1-2" data-name="レイヤー 1">
    <g>
      <g>
        <line x1="124.72" y1="101.91" x2="193.26" y2="101.91" style="fill: none; stroke: #b91f3a; stroke-miterlimit: 10; stroke-width: 3px;"/>
        <line x1="124.72" y1="124.03" x2="193.26" y2="124.03" style="fill: none; stroke: #b91f3a; stroke-miterlimit: 10; stroke-width: 3px;"/>
        <polyline points="193.26 50.71 158.99 87.93 158.99 158.33" style="fill: none; stroke: #b91f3a; stroke-miterlimit: 10; stroke-width: 3px;"/>
        <line x1="124.72" y1="50.71" x2="146.9" y2="74.8" style="fill: none; stroke: #b91f3a; stroke-miterlimit: 10; stroke-width: 3px;"/>
        <path d="M187.9,179.97c-9.03,3.22-18.77,4.97-28.91,4.97-47.55,0-86.1-38.55-86.1-86.1S111.44,12.74,158.99,12.74s86.1,38.55,86.1,86.1c0,2.9-.14,5.76-.42,8.59" style="fill: none; stroke: #b91f3a; stroke-miterlimit: 10; stroke-width: 3px;"/>
        <polyline points="415.52 150.36 313.92 98.8 212.32 150.36 212.32 241.29 333.8 241.29 333.8 187.55 364.53 187.55 364.53 241.29 415.52 241.29 415.52 184.95" style="fill: none; stroke: #b91f3a; stroke-miterlimit: 10; stroke-width: 3px;"/>
        <polyline points="267.71 30.66 365.94 30.66 365.94 66.66" style="fill: none; stroke: #b91f3a; stroke-miterlimit: 10; stroke-width: 3px;"/>
        <polyline points="381.66 67.32 365.94 83.04 350.22 67.32" style="fill: none; stroke: #b91f3a; stroke-miterlimit: 10; stroke-width: 3px;"/>
      </g>
      <rect width="488.41" height="268.29" style="fill: none;"/>
    </g>
  </g>
</svg>