<?xml version="1.0" encoding="UTF-8"?>
<svg id="_レイヤー_2" data-name="レイヤー 2" xmlns="http://www.w3.org/2000/svg" viewBox="0 0 399.6 266.4">
  <defs>
    <style>
      .cls-1 {
        fill: #efefef;
      }

      .cls-2 {
        fill: none;
        stroke: #b91f3a;
        stroke-miterlimit: 10;
        stroke-width: 3px;
      }

      .cls-3 {
        fill: #b91f3a;
      }
    </style>
  </defs>
  <g id="_レイヤー_1-2" data-name="レイヤー 1">
    <g>
      <rect class="cls-1" width="399.6" height="266.4"/>
      <g>
        <path class="cls-3" d="M125.64,116.84h14.47v4.42h-20.01v-31.88h5.54v27.46Z"/>
        <path class="cls-3" d="M160.65,121.26c-.23-.45-.44-1.19-.61-2.21-1.69,1.77-3.77,2.65-6.22,2.65s-4.32-.68-5.82-2.04c-1.5-1.36-2.26-3.04-2.26-5.04,0-2.53.94-4.46,2.81-5.81s4.56-2.03,8.05-2.03h3.26v-1.55c0-1.23-.34-2.21-1.03-2.94-.69-.74-1.73-1.11-3.13-1.11-1.21,0-2.2.3-2.98.91-.77.61-1.16,1.38-1.16,2.31h-5.32c0-1.3.43-2.51,1.29-3.65.86-1.13,2.03-2.02,3.51-2.66,1.48-.64,3.13-.96,4.96-.96,2.77,0,4.98.7,6.63,2.09,1.65,1.39,2.5,3.35,2.54,5.88v10.69c0,2.13.3,3.83.9,5.1v.37h-5.43ZM154.8,117.43c1.05,0,2.04-.25,2.97-.77.93-.51,1.62-1.2,2.09-2.06v-4.47h-2.87c-1.97,0-3.45.34-4.44,1.03-.99.69-1.49,1.66-1.49,2.91,0,1.02.34,1.84,1.02,2.44.68.61,1.59.91,2.73.91Z"/>
        <path class="cls-3" d="M177.96,97.57l.15,2.74c1.75-2.12,4.05-3.17,6.9-3.17,4.93,0,7.44,2.82,7.53,8.47v15.66h-5.32v-15.35c0-1.5-.32-2.62-.97-3.34-.65-.72-1.71-1.08-3.19-1.08-2.15,0-3.74.97-4.79,2.91v16.86h-5.32v-23.69h5.01Z"/>
        <path class="cls-3" d="M199.27,109.24c0-3.65.85-6.58,2.54-8.79,1.69-2.21,3.96-3.32,6.81-3.32,2.51,0,4.54.88,6.09,2.63v-12.13h5.32v33.63h-4.82l-.26-2.45c-1.59,1.93-3.71,2.89-6.37,2.89s-5.02-1.12-6.73-3.35c-1.72-2.23-2.57-5.27-2.57-9.11ZM204.59,109.7c0,2.41.46,4.29,1.39,5.64.93,1.35,2.24,2.03,3.95,2.03,2.17,0,3.77-.97,4.77-2.91v-10.12c-.98-1.9-2.55-2.85-4.73-2.85-1.72,0-3.05.68-3.98,2.05-.93,1.36-1.4,3.42-1.4,6.16Z"/>
        <path class="cls-3" d="M121.46,175.76v-19.75h-3.61v-3.94h3.61v-2.17c0-2.63.73-4.66,2.19-6.09,1.46-1.43,3.5-2.15,6.13-2.15.93,0,1.93.13,2.98.39l-.13,4.16c-.58-.12-1.26-.18-2.04-.18-2.54,0-3.81,1.31-3.81,3.92v2.1h4.82v3.94h-4.82v19.75h-5.32Z"/>
        <path class="cls-3" d="M136.06,163.69c0-2.32.46-4.41,1.38-6.27.92-1.86,2.21-3.29,3.88-4.29s3.58-1.5,5.74-1.5c3.2,0,5.79,1.03,7.78,3.09,1.99,2.06,3.07,4.79,3.23,8.19l.02,1.25c0,2.34-.45,4.42-1.35,6.26-.9,1.84-2.18,3.26-3.85,4.27-1.67,1.01-3.6,1.51-5.79,1.51-3.34,0-6.02-1.11-8.02-3.34s-3.01-5.19-3.01-8.9v-.26ZM141.38,164.15c0,2.44.5,4.35,1.51,5.73,1.01,1.38,2.41,2.07,4.2,2.07s3.19-.7,4.19-2.1,1.5-3.45,1.5-6.15c0-2.39-.51-4.29-1.54-5.69-1.03-1.4-2.43-2.1-4.19-2.1s-3.12.69-4.14,2.07-1.53,3.44-1.53,6.19Z"/>
        <path class="cls-3" d="M177.33,156.93c-.7-.12-1.42-.18-2.17-.18-2.44,0-4.08.93-4.93,2.8v16.2h-5.32v-23.69h5.08l.13,2.65c1.28-2.06,3.07-3.09,5.34-3.09.76,0,1.39.1,1.88.31l-.02,4.99Z"/>
        <path class="cls-3" d="M214.41,167.55c0-1.4-.49-2.48-1.48-3.24s-2.76-1.53-5.33-2.3c-2.57-.77-4.61-1.63-6.13-2.58-2.9-1.82-4.36-4.2-4.36-7.14,0-2.57,1.05-4.69,3.14-6.35s4.81-2.5,8.16-2.5c2.22,0,4.2.41,5.93,1.23,1.74.82,3.1,1.98,4.09,3.49.99,1.51,1.49,3.19,1.49,5.03h-5.52c0-1.66-.52-2.97-1.57-3.91-1.04-.94-2.54-1.41-4.48-1.41-1.81,0-3.21.39-4.21,1.16s-1.5,1.85-1.5,3.24c0,1.17.54,2.14,1.62,2.92,1.08.78,2.86,1.54,5.34,2.28s4.47,1.58,5.98,2.52c1.5.94,2.61,2.02,3.31,3.24.7,1.22,1.05,2.65,1.05,4.28,0,2.66-1.02,4.77-3.05,6.34-2.04,1.57-4.8,2.35-8.29,2.35-2.31,0-4.43-.43-6.36-1.28-1.93-.85-3.44-2.03-4.51-3.54-1.07-1.5-1.61-3.25-1.61-5.26h5.54c0,1.81.6,3.21,1.8,4.2,1.2.99,2.91,1.49,5.15,1.49,1.93,0,3.38-.39,4.35-1.17.97-.78,1.46-1.81,1.46-3.1Z"/>
        <path class="cls-3" d="M240.88,175.76c-.23-.45-.44-1.19-.61-2.21-1.69,1.77-3.77,2.65-6.22,2.65s-4.32-.68-5.82-2.04c-1.5-1.36-2.25-3.04-2.25-5.04,0-2.53.94-4.46,2.81-5.81,1.88-1.35,4.56-2.03,8.05-2.03h3.26v-1.55c0-1.23-.34-2.21-1.03-2.95-.69-.74-1.73-1.11-3.13-1.11-1.21,0-2.2.3-2.98.91-.77.61-1.16,1.38-1.16,2.31h-5.32c0-1.3.43-2.51,1.29-3.65.86-1.13,2.03-2.02,3.51-2.66,1.48-.64,3.13-.96,4.96-.96,2.77,0,4.98.7,6.63,2.09,1.65,1.39,2.5,3.35,2.54,5.88v10.69c0,2.13.3,3.83.9,5.1v.37h-5.43ZM235.03,171.93c1.05,0,2.04-.26,2.97-.77.93-.51,1.62-1.2,2.09-2.06v-4.47h-2.87c-1.97,0-3.45.34-4.44,1.03-.99.69-1.49,1.66-1.49,2.91,0,1.02.34,1.84,1.02,2.44.68.61,1.59.91,2.73.91Z"/>
        <path class="cls-3" d="M258.74,175.76h-5.32v-33.63h5.32v33.63Z"/>
        <path class="cls-3" d="M277.09,176.2c-3.37,0-6.11-1.06-8.2-3.19-2.1-2.12-3.14-4.95-3.14-8.48v-.66c0-2.36.46-4.48,1.37-6.34.91-1.86,2.19-3.31,3.84-4.35,1.65-1.04,3.49-1.55,5.52-1.55,3.23,0,5.72,1.03,7.48,3.09,1.76,2.06,2.64,4.97,2.64,8.74v2.15h-15.48c.16,1.96.81,3.5,1.96,4.64,1.15,1.14,2.59,1.71,4.32,1.71,2.44,0,4.42-.99,5.96-2.96l2.87,2.74c-.95,1.42-2.21,2.51-3.8,3.3s-3.36,1.17-5.33,1.17ZM276.45,155.9c-1.46,0-2.64.51-3.54,1.53-.9,1.02-1.47,2.45-1.72,4.27h10.14v-.39c-.12-1.78-.59-3.13-1.42-4.04-.83-.91-1.99-1.37-3.46-1.37Z"/>
      </g>
      <polyline class="cls-2" points="166.48 232.69 135.83 202.78 92.51 202.78 92.51 64.69 251.69 64.69 251.69 124.3 313.31 124.3 313.31 201.92 171 201.92"/>
    </g>
  </g>
</svg>