<?xml version="1.0" encoding="utf-8"?>
<svg xmlns="http://www.w3.org/2000/svg" version="1.1" viewBox="0 0 375.25 409.75">
  <defs>
    <style>
      /* TOPアニメーション 文字 ------- */
      .text_box-big{fill:#040000;}
      .text_box-hd{fill:#1b1b1b;}
      .text_box-hd,.text-one{opacity:0;animation:text_bg 1s forwards;animation-delay:1.4s;}
      .text_box-hd{transform:translate(0,20px);animation-delay:2.3s;}
      .text-d,.text-arrow_box{animation:text_arrow 1s forwards;animation-delay:4.4s;}
      .text-arrow_box{opacity:0;}
      .text-one{transform:translate(0,20px);}
      .text-one:nth-of-type(1){animation-delay:1.4s;}
      .text-one:nth-of-type(2){animation-delay:1.8s;}
      .text-one:nth-of-type(3){animation-delay:2.3s;}
      .text-one:nth-of-type(4){animation-delay:2.6s;}
      .text-one:nth-of-type(5){animation-delay:2.8s;}
      .text-one:nth-of-type(6){animation-delay:3.7s;}
      @keyframes text_bg{
      100%{opacity:1;transform:translate(0,0);}
      }
      @keyframes text_arrow{
      100%{opacity:1;transform:translate(0,-7px);}
      }
      @keyframes fadeIn{
      100%{opacity:1;}
      }
    </style>
  </defs>
  <g class="text_box-big">
    <g class="text-one">
      <path class="st2"
        d="M123.71,81.36h3.58v8.13h9.41v-8.13h3.58v20.13h-3.58v-8.93h-9.41v8.93h-3.58s0-20.13,0-20.13Z" />
      <path class="st2"
        d="M144.99,83.21c0-.55.2-1.03.61-1.44s.92-.61,1.55-.61,1.15.19,1.58.58c.43.39.64.88.64,1.46s-.21,1.08-.64,1.46c-.43.39-.95.58-1.58.58s-1.14-.2-1.55-.61c-.41-.41-.61-.89-.61-1.44v.02ZM145.47,87.84h3.41v13.65h-3.41v-13.65Z" />
      <path class="st2"
        d="M167.76,87.84v12.43c0,1.23-.15,2.35-.46,3.34-.3,1-.77,1.84-1.41,2.53s-1.44,1.23-2.4,1.61c-.97.38-2.11.57-3.44.57-.55,0-1.13-.05-1.75-.14-.62-.1-1.22-.24-1.82-.43s-1.17-.43-1.72-.71-1.04-.61-1.48-.97l1.96-2.65c.66.63,1.41,1.1,2.25,1.44.83.33,1.68.5,2.53.5s1.5-.12,2.06-.36,1-.57,1.34-.98c.33-.42.57-.91.71-1.48s.21-1.2.21-1.88v-1h-.06c-.49.67-1.12,1.18-1.89,1.54-.77.35-1.63.53-2.57.53-1.02,0-1.95-.19-2.79-.57-.83-.38-1.54-.89-2.12-1.54-.58-.64-1.03-1.4-1.35-2.26-.32-.86-.48-1.78-.48-2.74s.16-1.91.47-2.79c.31-.87.76-1.63,1.34-2.27.58-.64,1.28-1.16,2.1-1.54s1.75-.57,2.77-.57,1.87.2,2.7.6,1.5,1.01,1.99,1.85h.06v-2.05h3.25ZM160.48,90.23c-.63,0-1.18.11-1.66.34s-.89.53-1.22.92-.59.85-.77,1.38-.27,1.1-.27,1.7c0,.55.09,1.08.27,1.59s.44.97.77,1.38.74.73,1.22.98,1.03.37,1.64.37,1.19-.12,1.69-.35c.5-.24.93-.55,1.28-.95.35-.4.62-.85.81-1.38.19-.52.28-1.06.28-1.63s-.09-1.14-.28-1.67-.46-.99-.81-1.39c-.35-.4-.77-.71-1.27-.94s-1.05-.34-1.68-.34h0Z" />
      <path class="st2"
        d="M180.3,87.44c.89,0,1.65.16,2.29.47.63.31,1.16.73,1.56,1.24.41.51.71,1.1.9,1.76.19.66.28,1.35.28,2.05v8.53h-3.41v-7.51c0-.4-.03-.81-.08-1.24-.06-.43-.18-.81-.36-1.17-.18-.35-.44-.64-.77-.87-.33-.23-.77-.34-1.32-.34s-1.02.1-1.42.31-.73.49-1,.84-.46.74-.6,1.18-.2.88-.2,1.34v7.45h-3.41v-21.5h3.41v9.75h.06c.13-.28.33-.56.58-.84.26-.27.55-.52.9-.74.34-.22.73-.39,1.17-.53.44-.13.91-.2,1.42-.2v.02Z" />
      <path class="st2" d="M196.09,92.75h-6.82v-2.9h6.82v2.9Z" />
      <path class="st2"
        d="M200.3,81.36h7.14c1.31,0,2.63.17,3.95.51,1.33.34,2.52.91,3.58,1.69,1.06.79,1.92,1.82,2.59,3.1.66,1.28,1,2.87,1,4.76,0,1.76-.33,3.28-1,4.55-.66,1.27-1.53,2.31-2.59,3.13s-2.26,1.42-3.58,1.81c-1.33.39-2.65.58-3.95.58h-7.14v-20.13ZM206.86,98.36c.93,0,1.86-.11,2.79-.33s1.77-.59,2.52-1.11,1.36-1.23,1.83-2.12c.47-.89.71-2.02.71-3.38,0-1.44-.24-2.62-.71-3.53s-1.09-1.62-1.83-2.13-1.59-.86-2.52-1.05c-.93-.19-1.86-.28-2.79-.28h-2.99v13.93h2.99Z" />
      <path class="st2"
        d="M235.73,94.84v.46c0,.15,0,.3-.03.45h-10.38c.04.49.17.94.38,1.35.22.41.51.76.87,1.05.36.29.77.53,1.22.7.46.17.93.26,1.42.26.85,0,1.57-.16,2.16-.47s1.07-.74,1.45-1.29l2.27,1.82c-1.35,1.82-3.3,2.73-5.86,2.73-1.06,0-2.04-.17-2.93-.5s-1.66-.8-2.32-1.41c-.65-.61-1.17-1.35-1.54-2.23s-.55-1.88-.55-3,.18-2.1.55-3,.88-1.67,1.52-2.3c.64-.63,1.41-1.13,2.29-1.48.88-.35,1.83-.53,2.86-.53.95,0,1.82.16,2.63.47s1.5.78,2.09,1.39c.59.62,1.05,1.38,1.38,2.3.33.92.5,2,.5,3.23h.02ZM232.32,93.3c0-.44-.06-.85-.19-1.25-.12-.4-.32-.75-.58-1.05-.27-.3-.6-.54-1.01-.73-.41-.18-.89-.27-1.44-.27-1.02,0-1.89.31-2.6.92s-1.1,1.41-1.18,2.37h7Z" />
      <path class="st2"
        d="M247.36,91.48c-.3-.4-.72-.74-1.25-1.04-.53-.29-1.11-.44-1.73-.44-.55,0-1.05.11-1.51.34-.46.23-.68.61-.68,1.14s.25.91.75,1.12c.5.22,1.24.44,2.2.67.51.11,1.03.27,1.55.46s1,.44,1.42.75c.43.31.77.7,1.04,1.17.27.46.4,1.03.4,1.69,0,.83-.16,1.54-.47,2.12s-.73,1.05-1.25,1.41c-.52.36-1.13.62-1.82.78s-1.41.24-2.15.24c-1.06,0-2.1-.19-3.1-.58-1.01-.39-1.84-.94-2.5-1.66l2.25-2.1c.38.49.87.9,1.48,1.22s1.28.48,2.02.48c.25,0,.5-.03.75-.09.26-.06.49-.15.71-.27s.39-.29.53-.5c.13-.21.2-.46.2-.77,0-.57-.26-.98-.78-1.22-.52-.25-1.3-.49-2.35-.74-.51-.11-1.01-.26-1.49-.44s-.92-.42-1.29-.71c-.38-.29-.68-.66-.91-1.09s-.34-.98-.34-1.62c0-.76.16-1.41.47-1.96s.73-1,1.24-1.35c.51-.35,1.09-.61,1.73-.78s1.31-.26,1.99-.26c.99,0,1.95.17,2.89.51s1.68.86,2.23,1.56l-2.22,1.96h0Z" />
      <path class="st2"
        d="M252.93,83.21c0-.55.2-1.03.61-1.44s.92-.61,1.55-.61,1.15.19,1.58.58c.43.39.64.88.64,1.46s-.21,1.08-.64,1.46c-.43.39-.95.58-1.58.58s-1.14-.2-1.55-.61c-.41-.41-.61-.89-.61-1.44v.02ZM253.42,87.84h3.41v13.65h-3.41v-13.65h0Z" />
      <path class="st2"
        d="M275.71,87.84v12.43c0,1.23-.15,2.35-.46,3.34-.3,1-.77,1.84-1.41,2.53s-1.44,1.23-2.4,1.61c-.97.38-2.11.57-3.44.57-.55,0-1.13-.05-1.75-.14-.62-.1-1.22-.24-1.82-.43s-1.17-.43-1.72-.71-1.04-.61-1.48-.97l1.96-2.65c.66.63,1.41,1.1,2.25,1.44.83.33,1.68.5,2.53.5s1.5-.12,2.06-.36,1-.57,1.34-.98c.33-.42.57-.91.71-1.48.14-.57.21-1.2.21-1.88v-1h-.06c-.49.67-1.12,1.18-1.89,1.54-.77.35-1.63.53-2.57.53-1.02,0-1.95-.19-2.79-.57-.83-.38-1.54-.89-2.12-1.54-.58-.64-1.03-1.4-1.35-2.26-.32-.86-.48-1.78-.48-2.74s.16-1.91.47-2.79c.31-.87.76-1.63,1.34-2.27.58-.64,1.28-1.16,2.1-1.54s1.75-.57,2.77-.57,1.87.2,2.7.6c.83.4,1.5,1.01,1.99,1.85h.06v-2.05h3.25ZM268.43,90.23c-.63,0-1.18.11-1.66.34s-.89.53-1.22.92-.59.85-.77,1.38-.27,1.1-.27,1.7c0,.55.09,1.08.27,1.59s.44.97.77,1.38.74.73,1.22.98,1.03.37,1.64.37,1.19-.12,1.69-.35c.5-.24.93-.55,1.28-.95.35-.4.62-.85.81-1.38.19-.52.28-1.06.28-1.63s-.09-1.14-.28-1.67-.46-.99-.81-1.39c-.35-.4-.77-.71-1.27-.94s-1.05-.34-1.68-.34h0Z" />
      <path class="st2"
        d="M280.66,87.84h3.24v2.19h.06c.3-.68.83-1.28,1.58-1.81.75-.52,1.63-.78,2.66-.78.89,0,1.65.16,2.29.47.63.31,1.16.73,1.56,1.24.41.51.71,1.1.9,1.76s.28,1.35.28,2.05v8.53h-3.41v-7.56c0-.4-.03-.81-.09-1.25s-.18-.83-.37-1.18-.45-.64-.78-.87-.77-.34-1.32-.34-1.02.11-1.42.33c-.4.22-.73.5-.98.84s-.45.73-.58,1.18c-.13.45-.2.9-.2,1.35v7.51h-3.41v-13.65h0Z" />
    </g>
    <g class="text-one">
      <path class="st2"
        d="M123.71,121.65h3.58v8.13h9.41v-8.13h3.58v20.13h-3.58v-8.93h-9.41v8.93h-3.58s0-20.13,0-20.13Z" />
      <path class="st2"
        d="M144.99,123.49c0-.55.2-1.03.61-1.44s.92-.61,1.55-.61,1.15.19,1.58.58c.43.39.64.88.64,1.46s-.21,1.08-.64,1.46c-.43.39-.95.58-1.58.58s-1.14-.2-1.55-.61c-.41-.41-.61-.89-.61-1.44v.02ZM145.47,128.13h3.41v13.65h-3.41v-13.65Z" />
      <path class="st2"
        d="M167.76,128.13v12.43c0,1.23-.15,2.35-.46,3.34-.3,1-.77,1.84-1.41,2.53s-1.44,1.23-2.4,1.61c-.97.38-2.11.57-3.44.57-.55,0-1.13-.05-1.75-.14-.62-.1-1.22-.24-1.82-.43s-1.17-.43-1.72-.71-1.04-.61-1.48-.97l1.96-2.65c.66.63,1.41,1.1,2.25,1.44.83.33,1.68.5,2.53.5s1.5-.12,2.06-.36,1-.57,1.34-.98c.33-.42.57-.91.71-1.48s.21-1.2.21-1.88v-1h-.06c-.49.67-1.12,1.18-1.89,1.54-.77.35-1.63.53-2.57.53-1.02,0-1.95-.19-2.79-.57-.83-.38-1.54-.89-2.12-1.54-.58-.64-1.03-1.4-1.35-2.26-.32-.86-.48-1.78-.48-2.74s.16-1.91.47-2.79c.31-.87.76-1.63,1.34-2.27.58-.64,1.28-1.16,2.1-1.54s1.75-.57,2.77-.57,1.87.2,2.7.6,1.5,1.01,1.99,1.85h.06v-2.05h3.25ZM160.48,130.52c-.63,0-1.18.11-1.66.34s-.89.53-1.22.92-.59.85-.77,1.38-.27,1.1-.27,1.7c0,.55.09,1.08.27,1.59s.44.97.77,1.38.74.73,1.22.98,1.03.37,1.64.37,1.19-.12,1.69-.35c.5-.24.93-.55,1.28-.95.35-.4.62-.85.81-1.38.19-.52.28-1.06.28-1.63s-.09-1.14-.28-1.67-.46-.99-.81-1.39c-.35-.4-.77-.71-1.27-.94s-1.05-.34-1.68-.34h0Z" />
      <path class="st2"
        d="M180.3,127.73c.89,0,1.65.16,2.29.47.63.31,1.16.73,1.56,1.24.41.51.71,1.1.9,1.76.19.66.28,1.35.28,2.05v8.53h-3.41v-7.51c0-.4-.03-.81-.08-1.24-.06-.43-.18-.81-.36-1.17-.18-.35-.44-.64-.77-.87-.33-.23-.77-.34-1.32-.34s-1.02.1-1.42.31-.73.49-1,.84-.46.74-.6,1.18-.2.88-.2,1.34v7.45h-3.41v-21.5h3.41v9.75h.06c.13-.28.33-.56.58-.84.26-.27.55-.52.9-.74.34-.22.73-.39,1.17-.53.44-.13.91-.2,1.42-.2v.02Z" />
      <path class="st2" d="M196.09,133.03h-6.82v-2.9h6.82v2.9Z" />
      <path class="st2"
        d="M214.83,126.37c-.53-.72-1.22-1.25-2.08-1.58-.85-.33-1.69-.5-2.5-.5-1.04,0-1.99.19-2.84.57-.85.38-1.59.9-2.2,1.56-.62.66-1.09,1.44-1.42,2.33-.33.89-.5,1.86-.5,2.9,0,1.1.16,2.1.48,3.01.32.91.78,1.69,1.38,2.35.6.65,1.31,1.16,2.15,1.52.83.36,1.77.54,2.82.54s2.04-.21,2.87-.64c.83-.43,1.51-.99,2.02-1.69l2.87,2.02c-.89,1.12-1.98,1.99-3.27,2.6-1.29.62-2.8.92-4.52.92-1.57,0-3.02-.26-4.34-.78-1.32-.52-2.45-1.25-3.4-2.19s-1.69-2.06-2.22-3.36-.8-2.73-.8-4.31.28-3.07.84-4.37,1.33-2.4,2.3-3.31c.98-.91,2.13-1.61,3.46-2.1,1.33-.49,2.77-.74,4.32-.74.64,0,1.32.06,2.02.19.7.12,1.37.31,2.02.57.64.26,1.25.57,1.82.95s1.05.83,1.45,1.36l-2.73,2.16v.02Z" />
      <path class="st2"
        d="M219.63,134.9c0-1.08.19-2.06.58-2.94s.91-1.64,1.58-2.26c.66-.63,1.45-1.11,2.36-1.45.91-.34,1.88-.51,2.9-.51s1.99.17,2.9.51c.91.34,1.7.82,2.36,1.45s1.19,1.38,1.58,2.26.58,1.86.58,2.94-.19,2.07-.58,2.96-.91,1.65-1.58,2.29c-.66.64-1.45,1.13-2.36,1.49s-1.88.54-2.9.54-1.99-.18-2.9-.54-1.7-.86-2.36-1.49-1.19-1.4-1.58-2.29-.58-1.88-.58-2.96ZM223.1,134.9c0,.53.08,1.06.24,1.59s.4,1.01.73,1.42c.32.42.73.76,1.22,1.02.49.27,1.08.4,1.76.4s1.27-.13,1.76-.4c.49-.27.9-.61,1.22-1.02.32-.42.56-.89.73-1.42.16-.53.24-1.06.24-1.59s-.08-1.06-.24-1.58-.4-.99-.73-1.41c-.32-.42-.73-.75-1.22-1.01s-1.08-.38-1.76-.38-1.27.13-1.76.38-.9.59-1.22,1.01-.56.89-.73,1.41c-.16.52-.24,1.05-.24,1.58Z" />
      <path class="st2"
        d="M246.11,131.77c-.3-.4-.72-.74-1.25-1.04-.53-.29-1.11-.44-1.73-.44-.55,0-1.05.11-1.51.34-.46.23-.68.61-.68,1.14s.25.91.75,1.12c.5.22,1.24.44,2.2.67.51.11,1.03.27,1.55.46s1,.44,1.42.75c.43.31.77.7,1.04,1.17.27.46.4,1.03.4,1.69,0,.83-.16,1.54-.47,2.12s-.73,1.05-1.25,1.41c-.52.36-1.13.62-1.82.78s-1.41.24-2.15.24c-1.06,0-2.1-.19-3.1-.58-1.01-.39-1.84-.94-2.5-1.66l2.25-2.1c.38.49.87.9,1.48,1.22s1.28.48,2.02.48c.25,0,.5-.03.75-.09.26-.06.49-.15.71-.27s.39-.29.53-.5c.13-.21.2-.46.2-.77,0-.57-.26-.98-.78-1.22-.52-.25-1.3-.49-2.35-.74-.51-.11-1.01-.26-1.49-.44s-.92-.42-1.29-.71c-.38-.29-.68-.66-.91-1.09s-.34-.98-.34-1.62c0-.76.16-1.41.47-1.96s.73-1,1.24-1.35c.51-.35,1.09-.61,1.73-.78s1.31-.26,1.99-.26c.99,0,1.95.17,2.89.51s1.68.86,2.23,1.56l-2.22,1.96h0Z" />
      <path class="st2"
        d="M255.38,128.13v1.91h.09c.17-.27.39-.54.67-.81.28-.27.61-.52,1.01-.74.4-.22.85-.4,1.35-.54s1.07-.21,1.69-.21c.97,0,1.86.19,2.67.55.81.37,1.52.88,2.1,1.52.59.64,1.04,1.4,1.37,2.27.32.87.48,1.81.48,2.82s-.16,1.95-.47,2.83c-.31.88-.76,1.65-1.34,2.3s-1.28,1.18-2.1,1.56c-.82.39-1.76.58-2.8.58-.97,0-1.85-.2-2.66-.6s-1.43-.94-1.86-1.62h-.06v8.65h-3.41v-20.48h3.27,0ZM263.34,134.9c0-.53-.08-1.06-.24-1.58s-.4-.99-.73-1.41c-.32-.42-.73-.75-1.22-1.01s-1.07-.38-1.73-.38-1.19.13-1.68.4-.92.61-1.27,1.02c-.35.42-.62.89-.8,1.42-.18.53-.27,1.06-.27,1.59s.09,1.06.27,1.58c.18.52.44.99.8,1.41.35.42.77.75,1.27,1.01.49.26,1.05.38,1.68.38s1.24-.13,1.73-.4c.49-.27.9-.61,1.22-1.02.32-.42.56-.89.73-1.42.16-.53.24-1.06.24-1.59Z" />
      <path class="st2"
        d="M279.44,140.04h-.09c-.34.61-.89,1.1-1.65,1.49s-1.62.58-2.59.58c-.55,0-1.12-.07-1.72-.21s-1.15-.38-1.65-.71-.92-.77-1.25-1.31-.5-1.21-.5-2c0-1.02.29-1.84.87-2.45.58-.61,1.32-1.07,2.23-1.39s1.92-.54,3.03-.64,2.19-.16,3.26-.16v-.34c0-.85-.31-1.48-.92-1.89-.62-.41-1.35-.61-2.2-.61-.72,0-1.41.15-2.08.46-.66.3-1.21.67-1.65,1.11l-1.76-2.08c.78-.72,1.67-1.26,2.69-1.62,1.01-.36,2.04-.54,3.09-.54,1.21,0,2.21.17,3,.51s1.41.79,1.86,1.34.77,1.17.95,1.85c.18.68.27,1.37.27,2.05v8.3h-3.19v-1.73h0ZM279.38,135.55h-.77c-.55,0-1.13.02-1.73.07s-1.17.15-1.68.31c-.51.16-.94.39-1.28.68-.34.29-.51.7-.51,1.21,0,.32.07.59.21.81.14.22.33.39.55.53.23.13.48.23.77.28.28.06.57.09.85.09,1.18,0,2.07-.31,2.67-.94.61-.63.91-1.48.91-2.56v-.48h.01Z" />
    </g>
    <g class="text-one">
      <path class="st2"
        d="M123.71,161.93h3.58v8.13h9.41v-8.13h3.58v20.13h-3.58v-8.93h-9.41v8.93h-3.58s0-20.13,0-20.13Z" />
      <path class="st2"
        d="M144.62,175.18c0-1.08.19-2.06.58-2.94s.91-1.64,1.58-2.26c.66-.63,1.45-1.11,2.36-1.45.91-.34,1.88-.51,2.9-.51s1.99.17,2.9.51c.91.34,1.7.82,2.36,1.45s1.19,1.38,1.58,2.26.58,1.86.58,2.94-.19,2.07-.58,2.96-.91,1.65-1.58,2.29c-.66.64-1.45,1.13-2.36,1.49s-1.88.54-2.9.54-1.99-.18-2.9-.54-1.7-.86-2.36-1.49-1.19-1.4-1.58-2.29-.58-1.88-.58-2.96ZM148.08,175.18c0,.53.08,1.06.24,1.59s.4,1.01.73,1.42c.32.42.73.76,1.22,1.02.49.27,1.08.4,1.76.4s1.27-.13,1.76-.4c.49-.27.9-.61,1.22-1.02.32-.42.56-.89.73-1.42.16-.53.24-1.06.24-1.59s-.08-1.06-.24-1.58-.4-.99-.73-1.41c-.32-.42-.73-.75-1.22-1.01s-1.08-.38-1.76-.38-1.27.13-1.76.38-.9.59-1.22,1.01-.56.89-.73,1.41c-.16.52-.24,1.05-.24,1.58Z" />
      <path class="st2"
        d="M176.07,182.07h-3.24v-2.19h-.06c-.3.68-.83,1.28-1.58,1.81-.75.52-1.63.78-2.66.78-.89,0-1.65-.16-2.29-.47s-1.16-.73-1.56-1.24-.71-1.1-.9-1.76c-.19-.66-.28-1.35-.28-2.05v-8.53h3.41v7.56c0,.4.03.82.09,1.25.06.44.18.83.37,1.18s.45.64.78.87c.33.23.77.34,1.32.34s1-.11,1.41-.33.74-.5,1-.84.45-.73.58-1.18c.13-.44.2-.9.2-1.35v-7.51h3.41v13.65h0Z" />
      <path class="st2"
        d="M188.49,172.06c-.3-.4-.72-.74-1.25-1.04-.53-.29-1.11-.44-1.73-.44-.55,0-1.05.11-1.51.34-.46.23-.68.61-.68,1.14s.25.91.75,1.12c.5.22,1.24.44,2.2.67.51.11,1.03.27,1.55.46s1,.44,1.42.75c.43.31.77.7,1.04,1.17.27.46.4,1.03.4,1.69,0,.83-.16,1.54-.47,2.12s-.73,1.05-1.25,1.41c-.52.36-1.13.62-1.82.78s-1.41.24-2.15.24c-1.06,0-2.1-.19-3.1-.58-1.01-.39-1.84-.94-2.5-1.66l2.25-2.1c.38.49.87.9,1.48,1.22s1.28.48,2.02.48c.25,0,.5-.03.75-.09.26-.06.49-.15.71-.27s.39-.29.53-.5c.13-.21.2-.46.2-.77,0-.57-.26-.98-.78-1.22-.52-.25-1.3-.49-2.35-.74-.51-.11-1.01-.26-1.49-.44s-.92-.42-1.29-.71c-.38-.29-.68-.66-.91-1.09s-.34-.98-.34-1.62c0-.76.16-1.41.47-1.96s.73-1,1.24-1.35c.51-.35,1.09-.61,1.73-.78s1.31-.26,1.99-.26c.99,0,1.95.17,2.89.51s1.68.86,2.23,1.56l-2.22,1.96h0Z" />
      <path class="st2"
        d="M207.52,175.41v.46c0,.15,0,.3-.03.45h-10.38c.04.49.17.94.38,1.35.22.41.51.76.87,1.05.36.29.77.53,1.22.7.46.17.93.26,1.42.26.85,0,1.57-.16,2.16-.47s1.07-.74,1.45-1.29l2.27,1.82c-1.35,1.82-3.3,2.73-5.86,2.73-1.06,0-2.04-.17-2.93-.5s-1.66-.8-2.32-1.41c-.65-.61-1.17-1.35-1.54-2.23s-.55-1.88-.55-3,.18-2.1.55-3,.88-1.67,1.52-2.3c.64-.63,1.41-1.13,2.29-1.48.88-.35,1.83-.53,2.86-.53.95,0,1.82.16,2.63.47s1.5.78,2.09,1.39c.59.62,1.05,1.38,1.38,2.3.33.92.5,2,.5,3.23h.02ZM204.11,173.88c0-.44-.06-.85-.19-1.25-.12-.4-.32-.75-.58-1.05-.27-.3-.6-.54-1.01-.73-.41-.18-.89-.27-1.44-.27-1.02,0-1.89.31-2.6.92s-1.1,1.41-1.18,2.37h7Z" />
    </g>
  </g>
  <g class="text_box-hd">
    <path class="text-h"
      d="M235.33,172.22h1.8v4.08h4.72v-4.08h1.8v10.1h-1.8v-4.48h-4.72v4.48h-1.8v-10.1Z" />
    <path class="text-h"
      d="M260.49,172.22h1.8v4.08h4.72v-4.08h1.8v10.1h-1.8v-4.48h-4.72v4.48h-1.8v-10.1Z" />
    <path class="text-h"
      d="M284.97,172.22h1.8v4.08h4.72v-4.08h1.8v10.1h-1.8v-4.48h-4.72v4.48h-1.8v-10.1Z" />
    <g class="text-h">
      <path class="text-d"
        d="M280.04,174.33c-.27-.36-.61-.63-1.04-.79s-.85-.25-1.26-.25c-.52,0-1,.1-1.43.29s-.8.45-1.11.79c-.31.33-.55.72-.71,1.17s-.25.93-.25,1.46.08,1.06.24,1.51c.16.46.39.85.69,1.18s.66.58,1.08.76c.42.18.89.27,1.41.27s1.02-.11,1.44-.32c.42-.21.76-.5,1.01-.85l1.44,1.01c-.45.56-.99,1-1.64,1.31-.65.31-1.4.46-2.27.46-.79,0-1.52-.13-2.18-.39s-1.23-.63-1.71-1.1c-.48-.47-.85-1.03-1.11-1.68-.27-.65-.4-1.37-.4-2.16s.14-1.54.42-2.19.67-1.21,1.16-1.66c.49-.46,1.07-.81,1.73-1.06.67-.25,1.39-.37,2.17-.37.32,0,.66.03,1.01.09s.69.16,1.01.29.63.29.91.48c.29.19.53.42.73.69l-1.37,1.08.03-.02Z" />
      <path class="text-d"
        d="M247.95,172.22h3.58c.66,0,1.32.09,1.98.26.67.17,1.27.45,1.8.85.53.39.97.91,1.3,1.56.33.64.5,1.44.5,2.39,0,.88-.17,1.65-.5,2.28s-.77,1.16-1.3,1.57-1.13.71-1.8.91c-.67.19-1.33.29-1.98.29h-3.58v-10.1h0ZM251.24,180.75c.47,0,.93-.05,1.4-.16.47-.11.89-.29,1.26-.56.38-.26.68-.62.92-1.06.24-.45.36-1.01.36-1.7s-.12-1.31-.36-1.77-.54-.81-.92-1.07-.8-.43-1.26-.53c-.47-.09-.93-.14-1.4-.14h-1.5v6.99h1.5Z" />
    </g>
    <g class="text-arrow_box">
      <path
        d="M251.15,197.79v-10.09c-.44.61-1.23,1.37-1.95,1.9l-.71-1.28c1.26-.98,2.55-2.44,3.4-3.72.84,1.28,2.14,2.74,3.4,3.72l-.71,1.28c-.73-.53-1.51-1.28-1.95-1.9v10.09h-1.48Z" />
      <path
        d="M276.39,197.54v-10.09c-.44.61-1.23,1.37-1.95,1.9l-.71-1.28c1.26-.98,2.55-2.44,3.4-3.72.84,1.28,2.14,2.74,3.4,3.72l-.71,1.28c-.73-.53-1.51-1.28-1.95-1.9v10.09h-1.48Z" />
    </g>
  </g>
</svg>