<?xml version="1.0" encoding="utf-8"?>
<svg xmlns="http://www.w3.org/2000/svg" version="1.1" viewBox="0 0 1920 1060">
  <defs>
    <style>
      /* TOPアニメーション 文字 ------- */
      .text_box-big{fill:#040000;}
      .text_box-hd{fill:#1b1b1b;}
      .text_box-hd,.text-one{opacity:0;animation:text_bg 1s forwards;animation-delay:1.4s;}
      .text_box-hd{transform:translate(0,20px);animation-delay:2.3s;}
      .text-d,.text-arrow_box{animation:text_arrow 1s forwards;animation-delay:4.1s;}
      .text-arrow_box{opacity:0;}
      .text-one{transform:translate(0,20px);}
      .text-one:nth-of-type(1){animation-delay:1.4s;}
      .text-one:nth-of-type(2){animation-delay:1.8s;}
      .text-one:nth-of-type(3){animation-delay:2.3s;}
      .text-one:nth-of-type(4){animation-delay:2.6s;}
      .text-one:nth-of-type(5){animation-delay:2.8s;}
      .text-one:nth-of-type(6){animation-delay:3.7s;}
      @keyframes text_bg{
      100%{opacity:1;transform:translate(0,0);}
      }
      @keyframes text_arrow{
      100%{opacity:1;transform:translate(0,-20px);}
      }
      @keyframes fadeIn{
      100%{opacity:1;}
      }
    </style>
  </defs>
  <g class="text_box-hd">
    <path class="text-h"
      d="M618.56,713.22h5.25v11.91h13.79v-11.91h5.25v29.5h-5.25v-13.08h-13.79v13.08h-5.25v-29.5Z" />
    <path class="text-h"
      d="M692,713.22h5.25v11.91h13.79v-11.91h5.25v29.5h-5.25v-13.08h-13.79v13.08h-5.25v-29.5Z" />
    <path class="text-h"
      d="M763.45,713.22h5.25v11.91h13.79v-11.91h5.25v29.5h-5.25v-13.08h-13.79v13.08h-5.25v-29.5Z" />
    <g class="text-h">
      <path class="text-d"
        d="M655.39,712.93h10.46c1.92,0,3.85.25,5.79.75,1.94.5,3.69,1.33,5.25,2.48,1.56,1.15,2.82,2.67,3.79,4.54.97,1.87,1.46,4.2,1.46,6.98,0,2.58-.49,4.81-1.46,6.67-.97,1.86-2.24,3.39-3.79,4.58-1.56,1.19-3.31,2.08-5.25,2.65-1.94.57-3.87.85-5.79.85h-10.46v-29.5ZM665.01,737.84c1.36,0,2.72-.16,4.08-.48,1.36-.32,2.59-.86,3.69-1.62,1.1-.76,1.99-1.8,2.69-3.1.69-1.31,1.04-2.96,1.04-4.96,0-2.11-.35-3.83-1.04-5.17-.69-1.33-1.59-2.37-2.69-3.12-1.1-.75-2.33-1.26-3.69-1.54-1.36-.28-2.72-.42-4.08-.42h-4.37v20.41h4.37Z" />
      <path class="text-d"
        d="M749.08,719.84c-.78-1.06-1.79-1.83-3.04-2.31-1.25-.49-2.47-.73-3.67-.73-1.53,0-2.92.28-4.17.83-1.25.56-2.33,1.32-3.23,2.29-.9.97-1.6,2.11-2.08,3.42-.49,1.31-.73,2.72-.73,4.25,0,1.61.24,3.08.71,4.42.47,1.33,1.15,2.48,2.02,3.44.87.96,1.92,1.7,3.15,2.23,1.22.53,2.6.79,4.12.79s2.99-.31,4.21-.94c1.22-.62,2.21-1.45,2.96-2.48l4.21,2.96c-1.31,1.64-2.9,2.91-4.79,3.81-1.89.9-4.1,1.35-6.62,1.35-2.31,0-4.42-.38-6.35-1.15-1.93-.76-3.59-1.83-4.98-3.21-1.39-1.37-2.47-3.01-3.25-4.92-.78-1.9-1.17-4.01-1.17-6.31s.41-4.49,1.23-6.39c.82-1.9,1.94-3.52,3.37-4.85,1.43-1.33,3.12-2.36,5.06-3.08,1.94-.72,4.05-1.08,6.33-1.08.94,0,1.93.09,2.96.27,1.03.18,2.01.46,2.96.83.94.38,1.83.84,2.67,1.4.83.56,1.54,1.22,2.12,2l-4,3.17Z" />
    </g>
    <g class="text-arrow_box">
      <path
        d="M664.73,787.59v-29.45c-1.29,1.79-3.58,4-5.71,5.54l-2.08-3.75c3.67-2.87,7.46-7.12,9.91-10.87,2.46,3.75,6.25,8,9.91,10.87l-2.08,3.75c-2.12-1.54-4.42-3.75-5.71-5.54v29.45h-4.25Z" />
      <path
        d="M738.42,787.59v-29.45c-1.29,1.79-3.58,4-5.71,5.54l-2.08-3.75c3.67-2.87,7.46-7.12,9.91-10.87,2.46,3.75,6.25,8,9.91,10.87l-2.08,3.75c-2.12-1.54-4.42-3.75-5.71-5.54v29.45h-4.25Z" />
    </g>
  </g>
  <g class="text_box-big">
    <g class="text-one">
      <path
        d="M292.74,448h10.46v23.74h27.48v-23.74h10.46v58.77h-10.46v-26.07h-27.48v26.07h-10.46v-58.77Z" />
      <path
        d="M354.83,453.39c0-1.6.59-3,1.78-4.19,1.19-1.19,2.7-1.78,4.52-1.78s3.36.57,4.61,1.7c1.25,1.13,1.87,2.56,1.87,4.28s-.62,3.14-1.87,4.28c-1.25,1.13-2.78,1.7-4.61,1.7s-3.33-.59-4.52-1.78c-1.19-1.19-1.78-2.59-1.78-4.19ZM356.24,466.93h9.96v39.85h-9.96v-39.85Z" />
      <path
        d="M421.33,466.93v36.28c0,3.6-.44,6.85-1.33,9.75-.89,2.91-2.26,5.37-4.11,7.39-1.85,2.02-4.19,3.58-7.01,4.69-2.82,1.11-6.17,1.66-10.04,1.66-1.61,0-3.31-.14-5.11-.42-1.8-.28-3.57-.69-5.31-1.25-1.74-.55-3.42-1.25-5.02-2.08-1.61-.83-3.04-1.77-4.32-2.82l5.73-7.72c1.94,1.83,4.12,3.22,6.56,4.19,2.43.97,4.9,1.45,7.39,1.45s4.39-.35,6.02-1.04c1.63-.7,2.93-1.65,3.9-2.87.97-1.22,1.66-2.67,2.08-4.33.42-1.67.62-3.5.62-5.5v-2.92h-.17c-1.44,1.96-3.28,3.45-5.52,4.49-2.24,1.03-4.75,1.55-7.51,1.55-2.99,0-5.7-.55-8.14-1.66-2.44-1.11-4.5-2.6-6.18-4.48-1.69-1.88-3-4.08-3.94-6.6-.94-2.52-1.41-5.19-1.41-8.01s.46-5.59,1.37-8.14c.91-2.54,2.21-4.76,3.9-6.64,1.69-1.88,3.74-3.38,6.14-4.48,2.41-1.11,5.11-1.66,8.09-1.66,2.82,0,5.45.58,7.89,1.74,2.43,1.16,4.37,2.96,5.81,5.4h.17v-5.98h9.46ZM400.07,473.9c-1.83,0-3.44.33-4.86.99-1.41.66-2.6,1.56-3.57,2.69-.97,1.13-1.72,2.47-2.24,4.01-.53,1.54-.79,3.2-.79,4.96,0,1.6.26,3.14.79,4.63.53,1.49,1.27,2.83,2.24,4.01.97,1.19,2.16,2.14,3.57,2.85,1.41.72,3,1.08,4.77,1.08s3.47-.34,4.94-1.03c1.47-.69,2.71-1.61,3.74-2.77,1.02-1.16,1.81-2.5,2.37-4.01.55-1.52.83-3.1.83-4.76s-.28-3.34-.83-4.88c-.55-1.54-1.34-2.9-2.37-4.05-1.02-1.16-2.26-2.07-3.69-2.73-1.44-.66-3.07-.99-4.9-.99Z" />
      <path
        d="M457.93,465.76c2.6,0,4.83.46,6.68,1.37,1.85.91,3.38,2.12,4.57,3.61,1.19,1.49,2.06,3.21,2.61,5.15.55,1.94.83,3.93.83,5.98v24.9h-9.96v-21.92c0-1.16-.08-2.37-.25-3.61-.17-1.25-.51-2.38-1.04-3.4-.53-1.02-1.27-1.87-2.24-2.53-.97-.66-2.26-1-3.86-1s-2.99.3-4.15.91c-1.16.61-2.13,1.43-2.91,2.45-.78,1.02-1.36,2.17-1.74,3.45-.39,1.27-.58,2.57-.58,3.9v21.75h-9.96v-62.76h9.96v28.47h.17c.39-.83.95-1.65,1.7-2.45.75-.8,1.62-1.52,2.61-2.16,1-.64,2.13-1.15,3.4-1.54,1.27-.39,2.66-.58,4.15-.58Z" />
      <path d="M504,481.25h-19.92v-8.47h19.92v8.47Z" />
      <path
        d="M516.29,448h20.84c3.82,0,7.66.5,11.54,1.49,3.87,1,7.36,2.64,10.46,4.94,3.1,2.3,5.62,5.31,7.55,9.05,1.94,3.74,2.91,8.37,2.91,13.9,0,5.15-.97,9.57-2.91,13.28-1.94,3.71-4.46,6.75-7.55,9.13-3.1,2.38-6.59,4.14-10.46,5.27-3.87,1.14-7.72,1.7-11.54,1.7h-20.84v-58.77ZM535.47,497.64c2.71,0,5.42-.32,8.14-.95,2.71-.64,5.16-1.71,7.35-3.24,2.19-1.52,3.97-3.58,5.35-6.18,1.38-2.6,2.08-5.89,2.08-9.88,0-4.2-.69-7.64-2.08-10.29-1.38-2.66-3.17-4.73-5.35-6.23-2.19-1.49-4.64-2.52-7.35-3.07-2.71-.55-5.42-.83-8.14-.83h-8.72v40.68h8.72Z" />
      <path
        d="M619.72,487.35v1.33c0,.44-.03.89-.08,1.33h-30.3c.11,1.44.48,2.75,1.12,3.94.64,1.19,1.48,2.21,2.53,3.07,1.05.86,2.24,1.54,3.57,2.03,1.33.5,2.71.75,4.15.75,2.49,0,4.59-.46,6.31-1.37,1.71-.91,3.13-2.17,4.23-3.78l6.64,5.31c-3.93,5.31-9.63,7.97-17.1,7.97-3.1,0-5.95-.49-8.55-1.45-2.6-.97-4.86-2.34-6.77-4.11-1.91-1.77-3.4-3.94-4.48-6.52-1.08-2.57-1.62-5.49-1.62-8.76s.54-6.13,1.62-8.76c1.08-2.63,2.56-4.87,4.44-6.72,1.88-1.85,4.11-3.29,6.68-4.32,2.57-1.02,5.35-1.54,8.34-1.54,2.77,0,5.33.46,7.68,1.37,2.35.91,4.39,2.27,6.1,4.07,1.71,1.8,3.06,4.04,4.03,6.72.97,2.68,1.45,5.83,1.45,9.42ZM609.76,482.86c0-1.27-.18-2.49-.54-3.65-.36-1.16-.93-2.19-1.7-3.07-.78-.88-1.76-1.59-2.95-2.12-1.19-.53-2.59-.79-4.19-.79-2.99,0-5.52.9-7.6,2.7-2.08,1.8-3.22,4.11-3.44,6.93h20.42Z" />
      <path
        d="M653.67,477.55c-.89-1.16-2.1-2.17-3.65-3.03-1.55-.86-3.24-1.29-5.06-1.29-1.61,0-3.07.33-4.4,1s-1.99,1.77-1.99,3.32.73,2.64,2.2,3.28c1.47.64,3.61,1.29,6.43,1.95,1.49.33,3,.78,4.52,1.33,1.52.55,2.91,1.29,4.15,2.2,1.25.91,2.25,2.05,3.03,3.4.77,1.36,1.16,3,1.16,4.94,0,2.44-.46,4.5-1.37,6.18-.91,1.69-2.13,3.06-3.65,4.11-1.52,1.05-3.29,1.81-5.31,2.28-2.02.47-4.11.71-6.27.71-3.1,0-6.12-.57-9.05-1.7-2.93-1.13-5.37-2.75-7.3-4.86l6.56-6.14c1.11,1.44,2.54,2.63,4.32,3.57,1.77.94,3.74,1.41,5.89,1.41.72,0,1.45-.08,2.2-.25.75-.17,1.44-.43,2.08-.79.64-.36,1.15-.84,1.54-1.45.39-.61.58-1.36.58-2.24,0-1.66-.76-2.85-2.28-3.57-1.52-.72-3.81-1.44-6.85-2.16-1.49-.33-2.95-.76-4.36-1.29-1.41-.53-2.67-1.22-3.78-2.08-1.11-.86-1.99-1.92-2.66-3.2-.66-1.27-1-2.85-1-4.73,0-2.21.46-4.12,1.37-5.73.91-1.6,2.12-2.92,3.61-3.94,1.49-1.02,3.18-1.78,5.06-2.28,1.88-.5,3.82-.75,5.81-.75,2.88,0,5.69.5,8.43,1.49,2.74,1,4.91,2.52,6.52,4.57l-6.48,5.73Z" />
      <path
        d="M669.94,453.39c0-1.6.59-3,1.78-4.19,1.19-1.19,2.7-1.78,4.52-1.78s3.36.57,4.61,1.7c1.25,1.13,1.87,2.56,1.87,4.28s-.62,3.14-1.87,4.28c-1.25,1.13-2.78,1.7-4.61,1.7s-3.33-.59-4.52-1.78c-1.19-1.19-1.78-2.59-1.78-4.19ZM671.35,466.93h9.96v39.85h-9.96v-39.85Z" />
      <path
        d="M736.43,466.93v36.28c0,3.6-.44,6.85-1.33,9.75-.89,2.91-2.26,5.37-4.11,7.39-1.85,2.02-4.19,3.58-7.01,4.69-2.82,1.11-6.17,1.66-10.04,1.66-1.61,0-3.31-.14-5.11-.42-1.8-.28-3.57-.69-5.31-1.25-1.74-.55-3.42-1.25-5.02-2.08-1.61-.83-3.04-1.77-4.32-2.82l5.73-7.72c1.94,1.83,4.12,3.22,6.56,4.19,2.43.97,4.9,1.45,7.39,1.45s4.39-.35,6.02-1.04c1.63-.7,2.93-1.65,3.9-2.87.97-1.22,1.66-2.67,2.08-4.33.42-1.67.62-3.5.62-5.5v-2.92h-.17c-1.44,1.96-3.28,3.45-5.52,4.49-2.24,1.03-4.75,1.55-7.51,1.55-2.99,0-5.7-.55-8.14-1.66-2.44-1.11-4.5-2.6-6.18-4.48-1.69-1.88-3-4.08-3.94-6.6-.94-2.52-1.41-5.19-1.41-8.01s.46-5.59,1.37-8.14c.91-2.54,2.21-4.76,3.9-6.64,1.69-1.88,3.74-3.38,6.14-4.48,2.41-1.11,5.11-1.66,8.09-1.66,2.82,0,5.45.58,7.89,1.74,2.43,1.16,4.37,2.96,5.81,5.4h.17v-5.98h9.46ZM715.18,473.9c-1.83,0-3.45.33-4.86.99-1.41.66-2.6,1.56-3.57,2.69-.97,1.13-1.72,2.47-2.24,4.01-.53,1.54-.79,3.2-.79,4.96,0,1.6.26,3.14.79,4.63.53,1.49,1.27,2.83,2.24,4.01.97,1.19,2.16,2.14,3.57,2.85,1.41.72,3,1.08,4.77,1.08s3.47-.34,4.94-1.03c1.47-.69,2.71-1.61,3.74-2.77,1.02-1.16,1.81-2.5,2.37-4.01.55-1.52.83-3.1.83-4.76s-.28-3.34-.83-4.88c-.55-1.54-1.34-2.9-2.37-4.05-1.02-1.16-2.26-2.07-3.69-2.73-1.44-.66-3.07-.99-4.9-.99Z" />
      <path
        d="M750.88,466.93h9.46v6.39h.17c.88-1.99,2.42-3.75,4.61-5.27,2.19-1.52,4.77-2.28,7.76-2.28,2.6,0,4.83.46,6.68,1.37,1.85.91,3.38,2.12,4.57,3.61,1.19,1.49,2.06,3.21,2.61,5.15.55,1.94.83,3.93.83,5.98v24.9h-9.96v-22.08c0-1.16-.08-2.38-.25-3.65-.17-1.27-.53-2.42-1.08-3.45-.55-1.02-1.32-1.87-2.28-2.53-.97-.66-2.26-1-3.86-1s-2.99.32-4.15.95c-1.16.64-2.12,1.45-2.86,2.45-.75,1-1.32,2.15-1.7,3.45-.39,1.3-.58,2.61-.58,3.94v21.92h-9.96v-39.85Z" />
    </g>
    <g class="text-one">
      <path
        d="M292.74,565.6h10.46v23.74h27.48v-23.74h10.46v58.77h-10.46v-26.07h-27.48v26.07h-10.46v-58.77Z" />
      <path
        d="M354.83,571c0-1.6.59-3,1.78-4.19,1.19-1.19,2.7-1.78,4.52-1.78s3.36.57,4.61,1.7c1.25,1.13,1.87,2.56,1.87,4.27s-.62,3.14-1.87,4.28c-1.25,1.13-2.78,1.7-4.61,1.7s-3.33-.59-4.52-1.78c-1.19-1.19-1.78-2.59-1.78-4.19ZM356.24,584.53h9.96v39.85h-9.96v-39.85Z" />
      <path
        d="M421.33,584.53v36.28c0,3.6-.44,6.85-1.33,9.75-.89,2.91-2.26,5.37-4.11,7.39-1.85,2.02-4.19,3.58-7.01,4.69-2.82,1.11-6.17,1.66-10.04,1.66-1.61,0-3.31-.14-5.11-.42-1.8-.28-3.57-.69-5.31-1.25-1.74-.55-3.42-1.25-5.02-2.08-1.61-.83-3.04-1.77-4.32-2.82l5.73-7.72c1.94,1.83,4.12,3.22,6.56,4.19,2.43.97,4.9,1.45,7.39,1.45s4.39-.35,6.02-1.04c1.63-.69,2.93-1.65,3.9-2.87.97-1.22,1.66-2.67,2.08-4.33.42-1.67.62-3.5.62-5.5v-2.92h-.17c-1.44,1.96-3.28,3.45-5.52,4.49-2.24,1.03-4.75,1.55-7.51,1.55-2.99,0-5.7-.55-8.14-1.66-2.44-1.11-4.5-2.6-6.18-4.48-1.69-1.88-3-4.08-3.94-6.6-.94-2.52-1.41-5.19-1.41-8.01s.46-5.59,1.37-8.14c.91-2.55,2.21-4.76,3.9-6.64,1.69-1.88,3.74-3.37,6.14-4.48,2.41-1.11,5.11-1.66,8.09-1.66,2.82,0,5.45.58,7.89,1.74,2.43,1.16,4.37,2.96,5.81,5.4h.17v-5.98h9.46ZM400.07,591.5c-1.83,0-3.44.33-4.86.99-1.41.66-2.6,1.56-3.57,2.69-.97,1.13-1.72,2.47-2.24,4.01-.53,1.54-.79,3.2-.79,4.96,0,1.6.26,3.14.79,4.63.53,1.49,1.27,2.83,2.24,4.01.97,1.19,2.16,2.14,3.57,2.85,1.41.72,3,1.08,4.77,1.08s3.47-.34,4.94-1.03c1.47-.69,2.71-1.61,3.74-2.77,1.02-1.16,1.81-2.5,2.37-4.01.55-1.52.83-3.1.83-4.76s-.28-3.34-.83-4.88c-.55-1.54-1.34-2.89-2.37-4.05-1.02-1.16-2.26-2.07-3.69-2.73-1.44-.66-3.07-.99-4.9-.99Z" />
      <path
        d="M457.93,583.36c2.6,0,4.83.46,6.68,1.37,1.85.91,3.38,2.12,4.57,3.61,1.19,1.49,2.06,3.21,2.61,5.15.55,1.94.83,3.93.83,5.98v24.9h-9.96v-21.92c0-1.16-.08-2.37-.25-3.61-.17-1.25-.51-2.38-1.04-3.4-.53-1.02-1.27-1.87-2.24-2.53-.97-.66-2.26-1-3.86-1s-2.99.3-4.15.91c-1.16.61-2.13,1.43-2.91,2.45-.78,1.02-1.36,2.17-1.74,3.44-.39,1.27-.58,2.57-.58,3.9v21.75h-9.96v-62.76h9.96v28.47h.17c.39-.83.95-1.65,1.7-2.45.75-.8,1.62-1.52,2.61-2.16,1-.64,2.13-1.15,3.4-1.54,1.27-.39,2.66-.58,4.15-.58Z" />
      <path d="M504,598.85h-19.92v-8.47h19.92v8.47Z" />
      <path
        d="M558.71,579.38c-1.55-2.1-3.57-3.64-6.06-4.61-2.49-.97-4.93-1.45-7.31-1.45-3.04,0-5.81.55-8.3,1.66-2.49,1.11-4.64,2.63-6.43,4.57-1.8,1.94-3.18,4.21-4.15,6.81-.97,2.6-1.45,5.42-1.45,8.47,0,3.21.47,6.14,1.41,8.8.94,2.66,2.28,4.94,4.03,6.85,1.74,1.91,3.83,3.39,6.27,4.44,2.43,1.05,5.17,1.58,8.22,1.58s5.95-.62,8.38-1.87c2.43-1.25,4.4-2.89,5.89-4.94l8.38,5.89c-2.6,3.27-5.78,5.8-9.55,7.6-3.76,1.8-8.16,2.7-13.2,2.7-4.59,0-8.81-.76-12.66-2.28-3.85-1.52-7.15-3.65-9.92-6.39-2.77-2.74-4.93-6-6.47-9.8-1.55-3.79-2.32-7.98-2.32-12.58s.82-8.95,2.45-12.74c1.63-3.79,3.87-7.01,6.72-9.67,2.85-2.66,6.21-4.7,10.09-6.14,3.87-1.44,8.08-2.16,12.62-2.16,1.88,0,3.85.18,5.89.54,2.05.36,4.01.91,5.89,1.66,1.88.75,3.65,1.67,5.31,2.78,1.66,1.11,3.07,2.44,4.23,3.98l-7.97,6.31Z" />
      <path
        d="M572.74,604.28c0-3.15.57-6.02,1.7-8.59,1.13-2.57,2.67-4.77,4.61-6.6,1.94-1.83,4.23-3.24,6.89-4.23,2.66-1,5.48-1.49,8.47-1.49s5.81.5,8.47,1.49c2.66,1,4.95,2.41,6.89,4.23,1.94,1.83,3.47,4.03,4.61,6.6,1.13,2.57,1.7,5.44,1.7,8.59s-.57,6.03-1.7,8.63c-1.13,2.6-2.67,4.83-4.61,6.68-1.94,1.85-4.23,3.31-6.89,4.36-2.66,1.05-5.48,1.58-8.47,1.58s-5.81-.53-8.47-1.58c-2.66-1.05-4.95-2.5-6.89-4.36-1.94-1.85-3.47-4.08-4.61-6.68-1.13-2.6-1.7-5.48-1.7-8.63ZM582.87,604.28c0,1.55.23,3.1.71,4.65.47,1.55,1.18,2.93,2.12,4.15.94,1.22,2.13,2.21,3.57,2.99,1.44.78,3.15,1.16,5.15,1.16s3.71-.39,5.15-1.16c1.44-.77,2.63-1.77,3.57-2.99.94-1.22,1.65-2.6,2.12-4.15.47-1.55.71-3.1.71-4.65s-.24-3.08-.71-4.61c-.47-1.52-1.18-2.89-2.12-4.11-.94-1.22-2.13-2.2-3.57-2.95-1.44-.75-3.15-1.12-5.15-1.12s-3.71.37-5.15,1.12c-1.44.75-2.63,1.73-3.57,2.95-.94,1.22-1.65,2.59-2.12,4.11-.47,1.52-.71,3.06-.71,4.61Z" />
      <path
        d="M650.02,595.15c-.89-1.16-2.1-2.17-3.65-3.03-1.55-.86-3.24-1.29-5.06-1.29-1.61,0-3.07.33-4.4,1-1.33.66-1.99,1.77-1.99,3.32s.73,2.64,2.2,3.28c1.47.64,3.61,1.29,6.43,1.95,1.49.33,3,.78,4.52,1.33,1.52.55,2.91,1.29,4.15,2.2,1.25.91,2.25,2.05,3.03,3.4.77,1.36,1.16,3,1.16,4.94,0,2.44-.46,4.5-1.37,6.18-.91,1.69-2.13,3.06-3.65,4.11-1.52,1.05-3.29,1.81-5.31,2.28-2.02.47-4.11.71-6.27.71-3.1,0-6.12-.57-9.05-1.7-2.93-1.13-5.37-2.75-7.31-4.86l6.56-6.14c1.11,1.44,2.54,2.63,4.32,3.57,1.77.94,3.74,1.41,5.89,1.41.72,0,1.45-.08,2.2-.25.75-.17,1.44-.43,2.08-.79.64-.36,1.15-.84,1.54-1.45.39-.61.58-1.36.58-2.24,0-1.66-.76-2.85-2.28-3.57-1.52-.72-3.81-1.44-6.85-2.16-1.49-.33-2.95-.76-4.36-1.29-1.41-.53-2.67-1.22-3.78-2.08-1.11-.86-1.99-1.92-2.66-3.2-.66-1.27-1-2.85-1-4.73,0-2.21.46-4.12,1.37-5.73.91-1.6,2.12-2.92,3.61-3.94,1.49-1.02,3.18-1.78,5.06-2.28,1.88-.5,3.82-.75,5.81-.75,2.88,0,5.69.5,8.43,1.49,2.74,1,4.91,2.52,6.52,4.57l-6.47,5.73Z" />
      <path
        d="M677.08,584.53v5.56h.25c.5-.77,1.15-1.56,1.95-2.37.8-.8,1.78-1.52,2.95-2.16,1.16-.64,2.48-1.16,3.94-1.58,1.47-.42,3.11-.62,4.94-.62,2.82,0,5.42.54,7.8,1.62,2.38,1.08,4.43,2.56,6.14,4.44,1.71,1.88,3.04,4.1,3.98,6.64.94,2.55,1.41,5.29,1.41,8.22s-.46,5.69-1.37,8.26c-.91,2.57-2.21,4.81-3.9,6.72-1.69,1.91-3.74,3.43-6.14,4.57-2.41,1.13-5.13,1.7-8.18,1.7-2.82,0-5.41-.58-7.76-1.74-2.35-1.16-4.16-2.74-5.44-4.73h-.17v25.24h-9.96v-59.77h9.55ZM700.33,604.28c0-1.55-.24-3.08-.71-4.61-.47-1.52-1.18-2.89-2.12-4.11-.94-1.22-2.13-2.2-3.57-2.95-1.44-.75-3.13-1.12-5.06-1.12-1.83,0-3.46.39-4.9,1.16-1.44.78-2.67,1.77-3.69,2.99-1.02,1.22-1.8,2.6-2.32,4.15-.53,1.55-.79,3.1-.79,4.65s.26,3.09.79,4.61c.53,1.52,1.3,2.89,2.32,4.11,1.02,1.22,2.25,2.2,3.69,2.95,1.44.75,3.07,1.12,4.9,1.12,1.94,0,3.62-.39,5.06-1.16,1.44-.77,2.63-1.77,3.57-2.99.94-1.22,1.65-2.6,2.12-4.15.47-1.55.71-3.1.71-4.65Z" />
      <path
        d="M747.31,619.31h-.25c-1,1.77-2.6,3.22-4.81,4.36-2.21,1.13-4.73,1.7-7.55,1.7-1.61,0-3.28-.21-5.02-.62-1.74-.41-3.35-1.11-4.81-2.08-1.47-.97-2.68-2.24-3.65-3.82-.97-1.58-1.45-3.53-1.45-5.85,0-2.99.84-5.37,2.53-7.14,1.69-1.77,3.86-3.13,6.52-4.07,2.66-.94,5.6-1.56,8.84-1.87,3.24-.3,6.4-.46,9.5-.46v-1c0-2.49-.9-4.33-2.7-5.52-1.8-1.19-3.94-1.78-6.43-1.78-2.1,0-4.12.44-6.06,1.33-1.94.89-3.54,1.97-4.81,3.24l-5.15-6.06c2.27-2.1,4.88-3.68,7.84-4.73,2.96-1.05,5.96-1.58,9.01-1.58,3.54,0,6.46.5,8.76,1.49,2.3,1,4.11,2.3,5.44,3.9,1.33,1.61,2.25,3.4,2.78,5.4.53,1.99.79,3.98.79,5.98v24.24h-9.3v-5.06ZM747.14,606.19h-2.24c-1.61,0-3.29.07-5.06.21-1.77.14-3.4.44-4.9.91-1.49.47-2.74,1.14-3.74,1.99-1,.86-1.49,2.03-1.49,3.53,0,.94.21,1.73.62,2.37.41.64.95,1.15,1.62,1.54.66.39,1.41.66,2.24.83.83.17,1.66.25,2.49.25,3.43,0,6.03-.91,7.8-2.74,1.77-1.83,2.66-4.32,2.66-7.47v-1.41Z" />
    </g>
    <g class="text-one">
      <path
        d="M292.74,683.2h10.46v23.74h27.48v-23.74h10.46v58.77h-10.46v-26.07h-27.48v26.07h-10.46v-58.77Z" />
      <path
        d="M353.75,721.88c0-3.15.57-6.02,1.7-8.59,1.13-2.57,2.67-4.77,4.61-6.6,1.94-1.83,4.23-3.24,6.89-4.23,2.66-1,5.48-1.49,8.47-1.49s5.81.5,8.47,1.49c2.66,1,4.95,2.41,6.89,4.23,1.94,1.83,3.47,4.03,4.61,6.6,1.13,2.57,1.7,5.44,1.7,8.59s-.57,6.03-1.7,8.63c-1.13,2.6-2.67,4.83-4.61,6.68-1.94,1.85-4.23,3.31-6.89,4.36-2.66,1.05-5.48,1.58-8.47,1.58s-5.81-.53-8.47-1.58c-2.66-1.05-4.95-2.5-6.89-4.36-1.94-1.85-3.47-4.08-4.61-6.68-1.13-2.6-1.7-5.48-1.7-8.63ZM363.88,721.88c0,1.55.23,3.1.71,4.65.47,1.55,1.18,2.93,2.12,4.15.94,1.22,2.13,2.21,3.57,2.99,1.44.78,3.15,1.16,5.15,1.16s3.71-.39,5.15-1.16c1.44-.77,2.63-1.77,3.57-2.99.94-1.22,1.65-2.6,2.12-4.15.47-1.55.71-3.1.71-4.65s-.24-3.08-.71-4.61c-.47-1.52-1.18-2.89-2.12-4.11-.94-1.22-2.13-2.2-3.57-2.95-1.44-.75-3.15-1.12-5.15-1.12s-3.71.37-5.15,1.12c-1.44.75-2.63,1.73-3.57,2.95-.94,1.22-1.65,2.59-2.12,4.11-.47,1.52-.71,3.06-.71,4.61Z" />
      <path
        d="M445.56,741.97h-9.46v-6.39h-.17c-.89,1.99-2.42,3.75-4.61,5.27-2.19,1.52-4.77,2.28-7.76,2.28-2.6,0-4.83-.46-6.68-1.37-1.85-.91-3.38-2.12-4.57-3.61-1.19-1.49-2.06-3.21-2.61-5.15-.55-1.94-.83-3.93-.83-5.98v-24.9h9.96v22.08c0,1.16.08,2.38.25,3.65.17,1.27.53,2.42,1.08,3.45.55,1.02,1.31,1.87,2.28,2.53.97.66,2.25,1,3.86,1s2.92-.32,4.11-.95c1.19-.64,2.16-1.45,2.91-2.45.75-1,1.31-2.14,1.7-3.45.39-1.3.58-2.61.58-3.94v-21.92h9.96v39.85Z" />
      <path
        d="M481.84,712.75c-.89-1.16-2.1-2.17-3.65-3.03-1.55-.86-3.24-1.29-5.06-1.29-1.61,0-3.07.33-4.4,1-1.33.66-1.99,1.77-1.99,3.32s.73,2.64,2.2,3.28c1.47.64,3.61,1.29,6.43,1.95,1.49.33,3,.78,4.52,1.33,1.52.55,2.91,1.29,4.15,2.2,1.25.91,2.25,2.05,3.03,3.4.77,1.36,1.16,3,1.16,4.94,0,2.44-.46,4.5-1.37,6.18-.91,1.69-2.13,3.06-3.65,4.11-1.52,1.05-3.29,1.81-5.31,2.28-2.02.47-4.11.71-6.27.71-3.1,0-6.12-.57-9.05-1.7-2.93-1.13-5.37-2.75-7.31-4.86l6.56-6.14c1.11,1.44,2.54,2.63,4.32,3.57,1.77.94,3.74,1.41,5.89,1.41.72,0,1.45-.08,2.2-.25.75-.17,1.44-.43,2.08-.79.64-.36,1.15-.84,1.54-1.45.39-.61.58-1.36.58-2.24,0-1.66-.76-2.85-2.28-3.57-1.52-.72-3.81-1.44-6.85-2.16-1.49-.33-2.95-.76-4.36-1.29-1.41-.53-2.67-1.22-3.78-2.08-1.11-.86-1.99-1.92-2.66-3.2-.66-1.27-1-2.85-1-4.73,0-2.21.46-4.12,1.37-5.73.91-1.6,2.12-2.92,3.61-3.94,1.49-1.02,3.18-1.78,5.06-2.28,1.88-.5,3.82-.75,5.81-.75,2.88,0,5.69.5,8.43,1.49,2.74,1,4.91,2.52,6.52,4.57l-6.47,5.73Z" />
      <path
        d="M537.37,722.55v1.33c0,.44-.03.89-.08,1.33h-30.3c.11,1.44.48,2.75,1.12,3.94.64,1.19,1.48,2.21,2.53,3.07,1.05.86,2.24,1.54,3.57,2.03,1.33.5,2.71.75,4.15.75,2.49,0,4.59-.46,6.31-1.37,1.71-.91,3.13-2.17,4.23-3.78l6.64,5.31c-3.93,5.31-9.63,7.97-17.1,7.97-3.1,0-5.95-.49-8.55-1.45-2.6-.97-4.86-2.34-6.77-4.11-1.91-1.77-3.4-3.94-4.48-6.52-1.08-2.57-1.62-5.49-1.62-8.76s.54-6.13,1.62-8.76c1.08-2.63,2.56-4.87,4.44-6.72,1.88-1.85,4.11-3.29,6.68-4.32,2.57-1.02,5.35-1.54,8.34-1.54,2.77,0,5.33.46,7.68,1.37,2.35.91,4.39,2.27,6.1,4.07,1.71,1.8,3.06,4.04,4.03,6.72.97,2.68,1.45,5.82,1.45,9.42ZM527.41,718.07c0-1.27-.18-2.49-.54-3.65-.36-1.16-.93-2.19-1.7-3.07-.78-.88-1.76-1.59-2.95-2.12-1.19-.53-2.59-.79-4.19-.79-2.99,0-5.52.9-7.6,2.7-2.08,1.8-3.22,4.11-3.44,6.93h20.42Z" />
    </g>
  </g>
</svg>