<?xml version="1.0" encoding="utf-8"?>
<svg xmlns="http://www.w3.org/2000/svg" version="1.1" viewBox="0 0 375.25 720.75">
  <defs>
    <style>
      /* TOPアニメーション 文字 ------- */
      .text_box-medium{fill:#1b1b1b;}
      .text-one{opacity:0;animation:text_bg 1s forwards;animation-delay:1.4s;}
      .text-d,.text-arrow_box{animation:text_arrow 1s forwards;animation-delay:4.4s;}
      .text-arrow_box{opacity:0;}
      .text-one{transform:translate(0,20px);}
      .text-one:nth-of-type(1){animation-delay:1.4s;}
      .text-one:nth-of-type(2){animation-delay:1.8s;}
      .text-one:nth-of-type(3){animation-delay:2.3s;}
      .text-one:nth-of-type(4){animation-delay:2.6s;}
      .text-one:nth-of-type(5){animation-delay:2.8s;}
      .text-one:nth-of-type(6){animation-delay:3.7s;}
      @keyframes text_bg{
      100%{opacity:1;transform:translate(0,0);}
      }
    </style>
  </defs>
  <g class="text_box-medium">
    <g class="text-one">
      <path
        d="M151.81,154.47c.73-.34,1.45-.67,2.18-1.07-.02.36-.02.9,0,1.36q.02.69-.52,1.01c-1.39.74-2.94,1.41-4.54,2.02-.34.15-.55.23-.65.32-.13.1-.21.15-.34.15-.1,0-.19-.06-.27-.27-.19-.55-.36-1.22-.52-1.97.63-.1,1.24-.27,1.97-.5l.61-.21v-4.56c-1.32,0-1.72.04-1.85.04-.21,0-.23-.02-.23-.23v-1.51c0-.23.02-.25.23-.25.13,0,.52.04,1.85.04v-3.7h-.13c-1.41,0-1.85.04-1.97.04-.19,0-.21-.02-.21-.23v-1.53c0-.23.02-.25.21-.25.13,0,.57.04,1.97.04h2.18c1.43,0,1.87-.04,1.97-.04.21,0,.23.02.23.25v1.53c0,.21-.02.23-.23.23-.1,0-.55-.04-1.95-.04v3.7c1.15,0,1.55-.04,1.68-.04.21,0,.21.02.21.25v1.51c0,.21,0,.23-.21.23-.13,0-.52-.04-1.68-.04v3.74ZM155.65,160.1c-2.08,0-2.79.04-2.92.04-.21,0-.23-.02-.23-.23v-1.49c0-.21.02-.23.23-.23.13,0,.84.04,2.92.04h3.19v-2.06h-1.3c-1.93,0-2.58.04-2.71.04-.21,0-.23-.02-.23-.23v-1.45c0-.21.02-.23.23-.23.13,0,.78.04,2.71.04h1.3v-1.8h-1.36c-1.91,0-2.6.04-2.73.04-.23,0-.25-.02-.25-.21,0-.13.04-.8.04-2.33v-4.66c0-1.49-.04-2.14-.04-2.29,0-.21.02-.23.25-.23.13,0,.82.04,2.73.04h5c1.93,0,2.6-.04,2.75-.04.21,0,.23.02.23.23,0,.13-.04.8-.04,2.29v4.66c0,1.53.04,2.2.04,2.33,0,.19-.02.21-.23.21-.15,0-.82-.04-2.75-.04h-1.53v1.8h1.6c1.91,0,2.58-.04,2.71-.04.21,0,.23.02.23.23v1.45c0,.21-.02.23-.23.23-.13,0-.8-.04-2.71-.04h-1.6v2.06h2.41c2.06,0,2.79-.04,2.9-.04.21,0,.23.02.23.23v1.49c0,.21-.02.23-.23.23-.1,0-.84-.04-2.9-.04h-7.71ZM158.84,146.81v-2.12h-2.33v2.12h2.33ZM158.84,150.78v-2.25h-2.33v2.25h2.33ZM160.94,144.69v2.12h2.48v-2.12h-2.48ZM163.42,148.53h-2.48v2.25h2.48v-2.25Z" />
      <path
        d="M174.37,143.74c0-.88-.02-1.32-.13-1.87.73.02,1.34.04,2.04.1.19.02.27.08.27.21s-.06.25-.08.34c-.04.13-.1.4-.1,1.2v.92h.27c1.68,0,2.2-.04,2.33-.04.23,0,.25.02.25.23v1.49c0,.21-.02.23-.25.23-.13,0-.65-.04-2.33-.04h-.04c.78,1.2,1.87,2.35,2.9,3.04-.29.38-.55.78-.73,1.24-.13.29-.21.44-.34.44-.1,0-.23-.1-.42-.31-.65-.67-1.24-1.43-1.72-2.33.04,2.64.1,4.56.1,4.96,0,.23-.02.25-.23.25h-1.6c-.21,0-.23-.02-.23-.25,0-.38.06-2.08.08-4.54-.59,1.15-1.43,2.2-2.52,3.21-.19.17-.31.25-.42.25-.15,0-.25-.15-.42-.46-.25-.48-.59-.95-.9-1.24,1.57-1.09,2.88-2.39,3.88-4.26h-.69c-1.7,0-2.25.04-2.37.04-.21,0-.23-.02-.23-.23v-1.49c0-.21.02-.23.23-.23.13,0,.67.04,2.37.04h1.03v-.9ZM170.76,158.96c-.27-.19-.25-.27-.13-.42.8-1.09,1.34-2.27,1.76-3.72.06-.23.1-.21.38-.1l1.32.5c.27.1.29.15.23.38-.48,1.64-1.07,2.92-1.89,4.18-.06.1-.1.15-.17.15s-.15-.02-.25-.11l-1.26-.86ZM177.88,157.73c0,.42.08.69.29.82.34.19.94.23,1.95.23,1.28,0,2.04-.02,2.5-.32.31-.23.5-.92.52-1.89.42.25.99.48,1.57.61.55.1.52.17.44.74-.19,1.36-.52,1.89-1.15,2.25-.78.44-1.87.53-4.07.53-1.93,0-3-.13-3.51-.46-.46-.31-.71-.71-.71-1.78v-2.35c0-.63-.04-1.16-.13-1.74.69,0,1.53.04,2.14.11.27.04.38.13.38.23,0,.13-.02.19-.08.34-.08.19-.15.48-.15.95v1.76ZM185.56,142.75c1.64,0,2.18-.04,2.33-.04.21,0,.23.02.23.23,0,.13-.04.86-.04,2.46v5.54c0,1.6.04,2.33.04,2.46,0,.23-.02.25-.23.25-.15,0-.69-.04-2.33-.04h-2.98c-1.03,0-1.6.02-1.93.02.76.71,1.45,1.49,2.04,2.37.1.17.1.23-.13.38l-1.22.76c-.13.08-.21.13-.27.13s-.1-.04-.17-.15c-.55-.96-1.3-1.99-2.1-2.73-.13-.15-.1-.23.1-.36l1.11-.65c0-.17.04-.9.04-2.44v-5.54c0-1.6-.04-2.31-.04-2.46,0-.21.02-.23.25-.23.13,0,.65.04,2.31.04h2.98ZM182.04,145.91h4.05v-1.43h-4.05v1.43ZM186.09,148.87v-1.41h-4.05v1.41h4.05ZM186.09,150.42h-4.05v1.47h4.05v-1.47ZM186.63,154.47c.25-.11.31-.08.44.08.88,1.11,1.66,2.31,2.29,3.78.06.17.04.23-.19.38l-1.41.82c-.13.08-.21.13-.27.13s-.1-.06-.15-.19c-.57-1.64-1.24-2.73-2.16-3.95-.15-.19-.13-.23.15-.38l1.3-.67Z" />
      <path
        d="M203.21,146.53c-.48,3.57-1.36,6.85-2.62,9.05-.9,1.58-1.99,2.42-3.57,2.42-1.85,0-3.72-1.97-3.72-5.4,0-2.02.86-3.95,2.37-5.46,1.76-1.76,3.99-2.69,6.82-2.69,5.04,0,8,3.11,8,7.29,0,3.91-2.2,6.36-6.47,7.64-.44.13-.63.04-.9-.38-.23-.36-.67-.84-1.47-1.32,3.55-.84,6.34-2.31,6.34-6.28,0-2.5-1.89-4.87-4.7-4.87h-.08ZM197.19,148.57c-1.01,1.13-1.64,2.54-1.64,3.88,0,1.93.78,3,1.43,3,.55,0,1.01-.27,1.57-1.28.92-1.7,1.87-4.72,2.23-7.52-1.47.29-2.65.88-3.59,1.91Z" />
      <path
        d="M225.49,150.92c-.13,2.35-.42,3.76-1.24,5.35-.84,1.64-2.35,3.17-3.7,3.97-.23.15-.44.25-.63.25-.15,0-.29-.06-.44-.21-.42-.42-1.13-.84-1.87-1.11,2.06-1.11,3.3-2.14,4.18-3.74.78-1.38.99-2.52,1.07-4.51h-3.99c-1.05,0-2.08.06-3.15.13-.19.02-.25-.13-.27-.4-.1-.59-.17-1.38-.17-2.02,1.18.11,2.35.11,3.57.11h9.43c1.64,0,2.86-.04,4.09-.13.21,0,.23.13.23.42.02.27.02,1.34,0,1.62,0,.27-.13.36-.31.36-1.09-.04-2.54-.08-3.99-.08h-2.81ZM221.33,146.05c-.97,0-1.81.04-2.98.08-.27,0-.34-.11-.36-.36-.06-.5-.08-1.26-.15-2.02,1.47.08,2.54.11,3.49.11h3.86c1.18,0,2.5-.02,3.55-.08.21,0,.25.13.25.4.04.5.04,1.03,0,1.53,0,.29-.04.4-.27.4-1.13-.04-2.37-.06-3.53-.06h-3.86ZM230.36,142.4c.1-.06.19-.04.29.06.61.57,1.28,1.49,1.78,2.44.06.12.06.23-.1.34l-.94.57c-.15.08-.25.04-.34-.11-.55-1.03-1.13-1.89-1.89-2.62l1.2-.67ZM232.35,141.22c.13-.08.19-.04.29.06.71.67,1.39,1.57,1.78,2.35.06.12.08.25-.1.38l-.88.57c-.19.1-.29.02-.36-.1-.48-.95-1.07-1.81-1.87-2.6l1.13-.65Z" />
      <path
        d="M251.83,147.82c1.03,0,2.2-.02,3.17-.06.25-.02.27.1.29.34.04.52.04,1.13,0,1.66-.02.27-.06.36-.36.34-.71,0-1.99-.02-3.02-.02h-.86c-.13,3-.59,4.77-1.62,6.47-1.05,1.74-2.75,3-4.96,3.91-.29.12-.46.19-.59.19s-.23-.06-.4-.23c-.63-.65-1.03-.94-1.74-1.26,2.98-.92,4.6-1.99,5.67-3.72.82-1.34,1.15-2.79,1.24-5.35h-4.47v.76c0,1.24,0,2.37.06,3.49.02.23-.13.27-.36.29-.55.04-1.24.04-1.81,0-.27-.02-.4-.06-.38-.29.06-1.09.1-2.12.1-3.44v-.8h-.63c-1.13,0-2.81.06-3.46.11-.17,0-.23-.13-.25-.4-.08-.44-.1-1.18-.15-2.04.88.06,2.25.11,3.86.11h.63v-1.53c0-1.34-.04-1.87-.25-3.09,1.09.1,2.12.21,2.56.34.23.04.31.15.31.29,0,.13-.06.27-.13.44-.15.38-.15.59-.15,2.02v1.53h4.51l.02-2.06c.02-1.18-.04-2.14-.19-2.88.8.08,1.95.21,2.46.36.29.06.38.17.38.34,0,.08-.02.21-.08.38-.15.4-.17.94-.17,1.85v1.99h.73ZM252.88,142.73c.1-.04.19-.04.29.08.57.61,1.18,1.55,1.62,2.54.06.15.04.23-.13.32l-.86.44c-.17.08-.27.04-.36-.12-.46-1.05-.99-1.93-1.7-2.73l1.13-.52ZM254.85,141.83c.13-.06.19-.04.29.08.67.71,1.28,1.66,1.62,2.46.06.13.06.27-.13.36l-.84.42c-.19.08-.27.02-.34-.11-.42-.99-.97-1.89-1.7-2.73l1.09-.48Z" />
      <path
        d="M269.74,155.48c0,1.45.02,2.69.06,4.37.02.27-.08.36-.31.36-.67.04-1.43.04-2.1,0-.23,0-.31-.08-.29-.34.02-1.51.08-2.88.08-4.3v-4.89c-1.85,1.55-4.09,3.15-5.77,4.03-.1.06-.21.08-.31.08-.17,0-.29-.06-.44-.21-.48-.48-1.18-.9-1.81-1.24,2.9-1.49,4.68-2.71,6.61-4.3,1.66-1.36,3.17-2.83,4.47-4.39.71-.84.99-1.26,1.32-2.16.94.52,1.87,1.09,2.33,1.47.13.08.17.21.17.31,0,.17-.13.36-.29.46-.36.23-.69.54-1.26,1.15-.82.99-1.6,1.81-2.46,2.65v6.95Z" />
      <path
        d="M281.06,144.69c.08-.1.19-.17.29-.17.08,0,.17.04.27.11,1.07.57,2.81,1.85,4.01,2.98.13.13.19.21.19.29s-.04.17-.13.27c-.31.42-1.01,1.26-1.3,1.57-.1.11-.17.17-.25.17s-.17-.06-.27-.17c-1.26-1.3-2.77-2.5-4.28-3.42.46-.57,1.07-1.22,1.47-1.64ZM282.89,155.75c2.56-1.32,3.93-2.2,6.05-3.91,2.56-2.08,3.97-3.42,5.75-5.71.13,1.05.31,1.76.59,2.46.06.15.1.27.1.4,0,.19-.1.36-.34.63-1.11,1.3-2.92,2.98-4.83,4.45-1.74,1.36-3.51,2.54-6.34,4.12-.94.57-1.22.78-1.41.97-.13.13-.25.21-.38.21-.1,0-.23-.08-.36-.23-.52-.59-1.18-1.45-1.68-2.33,1.07-.29,1.72-.48,2.83-1.05Z" />
      <path
        d="M310.51,156.38c0,.23-.13.34-.4.38s-.9.1-1.49.1c-.19,0-.27-.12-.27-.34,0-.76,0-1.8.02-2.56-1.87.96-2.54,1.78-2.54,2.79,0,.88.71,1.45,2.92,1.45,1.93,0,3.61-.19,5.23-.42.19-.02.27.04.29.23.1.48.19,1.22.19,1.72.02.25-.06.4-.23.4-1.81.23-3.17.27-5.21.27-3.44,0-5.27-1.03-5.27-3.46,0-2.02,1.26-3.48,4.43-5.12-.06-1.07-.31-1.49-1.26-1.45-.99.04-1.93.67-2.9,1.51-.9.88-1.43,1.49-2.1,2.29-.1.13-.17.19-.25.19-.06,0-.15-.06-.23-.15-.29-.29-.92-.95-1.2-1.39-.06-.08-.08-.15-.08-.19,0-.08.04-.15.15-.23,1.62-1.45,3.17-3.11,4.39-5.21-.99.04-2.12.06-3.36.06-.19,0-.25-.1-.29-.34-.06-.34-.15-1.11-.21-1.74,1.6.08,3.23.06,4.83-.02.23-.57.42-1.07.63-1.81.08-.36.15-.71.15-1.28.92.15,1.85.38,2.39.59.17.06.25.21.25.36,0,.11-.04.23-.15.31-.13.11-.25.29-.36.5-.13.29-.23.57-.48,1.13,1.28-.15,2.56-.36,3.82-.65.23-.04.29.02.34.21.1.42.19.9.21,1.51.02.21-.06.29-.36.34-1.57.23-3.38.46-4.91.63-.48.78-.94,1.55-1.57,2.33l.02.04c.67-.44,1.53-.65,2.1-.65,1.39,0,2.35.63,2.56,2.27.82-.38,2.02-.92,3.09-1.47.4-.21,1.07-.59,1.6-1.13.69.73,1.24,1.47,1.47,1.85.13.19.17.34.17.46,0,.17-.1.25-.31.29-.44.06-.86.17-1.28.31-1.36.48-2.73.95-4.51,1.68v3.38Z" />
    </g>
    <g class="text-one">
      <path
        d="M154.58,193.11c-.21,0-.23-.02-.23-.23,0-.13.02-.78.04-2.08-1.68.36-3.76.74-5.46.99-.34.04-.65.15-.76.21-.08.04-.21.13-.34.13s-.23-.13-.29-.34c-.19-.57-.29-1.07-.42-1.68.73-.02,1.32-.06,1.97-.15.13,0,.25-.02.38-.04v-6.59c-1.43.02-1.97.04-2.08.04-.21,0-.23-.02-.23-.23v-1.32c0-.21.02-.23.23-.23.13,0,.73.04,2.56.04h13.48c1.83,0,2.44-.04,2.56-.04.19,0,.21.02.21.23v1.32c0,.21-.02.23-.21.23-.13,0-.73-.04-2.56-.04h-7.12v7.03c0,1.62.04,2.39.04,2.52,0,.21-.02.23-.23.23h-1.55ZM160.5,174.63c2.08,0,2.81-.04,2.94-.04.21,0,.23.02.23.25,0,.13-.04.59-.04,1.72v2.2c0,1.13.04,1.6.04,1.72,0,.23-.02.25-.23.25-.13,0-.86-.04-2.94-.04h-7.64c-2.08,0-2.79.04-2.94.04-.21,0-.23-.02-.23-.25,0-.13.04-.59.04-1.72v-2.2c0-1.13-.04-1.6-.04-1.72,0-.23.02-.25.23-.25.15,0,.86.04,2.94.04h7.64ZM154.39,184.43v-1.11h-2.96v1.11h2.96ZM154.39,186.87v-1.09h-2.96v1.09h2.96ZM154.39,188.21h-2.96v1.45c.99-.15,2.02-.29,2.96-.46v-.99ZM151.81,177.07h9.74v-.88h-9.74v.88ZM161.55,178.33h-9.74v.9h9.74v-.9ZM162.98,184.56c.13,0,.27-.04.38-.08s.21-.08.31-.08c.15,0,.25.04.73.48.5.48.57.63.57.78,0,.17-.06.27-.21.38-.17.11-.31.36-.57.88-.46.92-1.01,1.78-1.7,2.54,1.03.65,2.27,1.11,3.72,1.43-.23.34-.52.8-.73,1.34-.21.57-.25.57-.8.4-1.41-.44-2.58-1.05-3.59-1.81-.92.71-1.97,1.34-3.17,1.85-.21.08-.34.15-.42.15-.15,0-.23-.15-.38-.48-.23-.5-.48-.9-.78-1.2,1.34-.4,2.46-.92,3.38-1.57-.82-.92-1.51-2.04-2.06-3.36-.34.02-.48.02-.55.02-.21,0-.23-.02-.23-.25v-1.22c0-.21.02-.23.23-.23.13,0,.65.04,2.31.04h3.55ZM159.58,186.18c.4.84.9,1.58,1.53,2.18.59-.63,1.07-1.36,1.45-2.18h-2.98Z" />
      <path
        d="M175.04,188.55c.44.88,1.03,1.34,1.89,1.7.78.25,2.06.38,3.88.38,2.69,0,5.92-.15,9.07-.44-.27.44-.44.97-.52,1.53q-.1.67-.78.69c-2.69.17-5.25.21-7.45.21s-3.88-.15-4.89-.57c-.97-.38-1.64-.92-2.2-1.83-.59.63-1.18,1.15-1.91,1.79-.23.19-.38.31-.48.44-.08.1-.13.15-.27.15-.1,0-.21-.08-.29-.25-.29-.55-.57-1.2-.86-1.93.52-.25.82-.42,1.22-.69.59-.38,1.05-.8,1.57-1.32v-4.66h-.86c-1.09,0-1.36.04-1.47.04-.23,0-.25-.02-.25-.25v-1.6c0-.21.02-.23.25-.23.1,0,.38.04,1.47.04h1.2c1.09,0,1.41-.04,1.51-.04.21,0,.23.02.23.23,0,.12-.04.73-.04,2.04v4.58ZM172.08,174.55c.13-.08.19-.11.25-.11s.13.02.21.11c.92.86,1.85,1.91,2.6,3.06.13.19.13.23-.13.42l-1.11.95c-.13.11-.21.17-.27.17s-.1-.04-.17-.15c-.78-1.28-1.68-2.39-2.58-3.3-.17-.15-.15-.21.08-.36l1.11-.8ZM184.18,181.68c.84,0,1.39-.04,1.51-.04.23,0,.25.02.25.23v1.05c0,.21-.02.23-.25.23-.13,0-.67-.04-1.51-.04h-.84v1.13c1.2,0,1.53-.02,1.68-.02.21,0,.23.02.23.23,0,.12-.04.44-.04,1.32v2.1c.23.02.42.02.63.02.48,0,.59-.11.59-.59v-7.12h-7.83v6.68c0,1.76.04,2.5.04,2.62,0,.23-.02.25-.23.25h-1.62c-.21,0-.23-.02-.23-.25,0-.13.04-.8.04-2.58v-5.67c0-1.6-.04-2.31-.04-2.46,0-.21.02-.23.23-.23.15,0,.8.04,2.65.04-.21-.52-.48-1.07-.73-1.51-1.83,0-2.5.04-2.6.04-.23,0-.25-.02-.25-.23v-1.3c0-.21.02-.23.25-.23.13,0,.84.04,2.94.04h2.29c0-.61-.04-1.11-.13-1.6.8.02,1.51.06,2.18.15.21.02.34.12.34.23,0,.17-.06.23-.15.36-.08.15-.1.31-.1.71v.15h2.65c2.04,0,2.75-.04,2.88-.04.21,0,.23.02.23.23v1.3c0,.21-.02.23-.23.23-.13,0-.82-.04-2.75-.04l-.06.15c-.15.36-.31.8-.57,1.36,1.78,0,2.48-.04,2.6-.04.21,0,.23.02.23.23,0,.13-.04.99-.04,2.65v3.02c0,1.28.06,2.54.06,3.21,0,.76-.13,1.26-.57,1.62-.42.34-1.11.48-2.31.48-.5,0-.55-.02-.61-.48l-.13-.67c-.23-.02-.63-.04-1.51-.04h-1.72c-1.15,0-1.51.04-1.64.04-.23,0-.25-.02-.25-.23,0-.13.04-.44.04-1.32v-1.28c0-.88-.04-1.2-.04-1.32,0-.21.02-.23.25-.23.13,0,.48.02,1.62.02v-1.13h-.59c-1.03,0-1.6.04-1.72.04-.21,0-.23-.02-.23-.23v-1.05c0-.21.02-.23.23-.23.13,0,.69.04,1.72.04h.59c-.02-.44-.04-.78-.1-1.22.63.02,1.22.06,1.76.13.19.02.27.08.27.21,0,.11-.06.19-.1.29-.06.15-.08.27-.08.59h.84ZM180.78,177.09c.23.46.48.99.67,1.51h2.14c.25-.55.46-1.09.61-1.51h-3.42ZM183.51,185.61h-2.06v1.57h2.06v-1.57Z" />
      <path
        d="M203.03,177.49c.19-.06.27-.06.31.17.1.52.17,1.15.19,1.7,0,.19-.08.23-.25.25-1.13.23-2.16.38-3.46.57-1.34,3.55-2.58,6.45-4.09,9.01-.08.15-.15.21-.23.21-.06,0-.15-.04-.25-.11-.48-.29-1.09-.73-1.45-1.07-.1-.08-.15-.15-.15-.23,0-.06.02-.15.1-.25,1.57-2.6,2.69-4.81,3.63-7.33-.8.04-1.45.04-2.1.04-.46,0-.63,0-1.15-.02-.21,0-.25-.06-.29-.34-.1-.4-.17-1.09-.21-1.79.86.06,1.34.08,1.95.08.82,0,1.45-.02,2.41-.11.25-.88.4-1.6.55-2.35.13-.73.13-1.05.13-1.7.9.13,1.81.25,2.46.44.21.04.34.17.34.32,0,.17-.06.27-.19.4-.13.17-.21.36-.34.78-.15.5-.31,1.16-.5,1.78.82-.08,1.78-.27,2.6-.46ZM203.62,183.11c-.02-.57-.04-.9-.17-1.49,1.03.1,1.57.19,2.29.4.19.04.29.15.29.34,0,.04-.04.19-.13.44s-.1.5-.08.86c0,1.24.06,2.14.23,3.57,1.51.61,2.54,1.07,3.78,1.95.21.15.23.23.13.44-.31.65-.61,1.18-.97,1.7-.06.11-.13.15-.19.15s-.13-.04-.21-.12c-.92-.8-1.7-1.26-2.56-1.76,0,2.1-1.51,3.06-3.91,3.06s-3.86-1.18-3.86-2.98,1.51-3.07,3.88-3.07c.4,0,.99.02,1.66.13-.13-1.34-.17-2.62-.19-3.61ZM202.13,188.4c-1.05,0-1.87.42-1.87,1.22,0,.67.59,1.01,1.78,1.01,1.13,0,1.83-.61,1.83-1.49,0-.19,0-.29-.02-.42-.5-.17-1.07-.31-1.72-.31ZM206.03,178.3c.13-.21.23-.23.44-.15,1.24.34,2.9,1.18,4.12,1.97.13.08.19.15.19.23,0,.06-.02.15-.08.25-.21.46-.59,1.11-.88,1.55-.06.11-.13.15-.19.15s-.1-.02-.19-.08c-1.24-.84-2.75-1.76-4.35-2.29.36-.63.67-1.26.94-1.64Z" />
      <path
        d="M227.38,179.98h-7.33c-1.43,0-2.41.04-3.15.13-.23,0-.31-.1-.31-.36-.06-.57-.1-1.55-.1-2.25,1.26.13,1.99.15,3.51.15h6.24c1.09,0,2.2-.04,3.32-.08.34,0,.44.08.42.36,0,1.11-.04,2.2-.04,3.32v5.02c0,1.53.06,3.21.08,3.8,0,.21-.08.27-.38.29-.59.04-1.26.04-1.85,0-.34-.02-.4-.04-.4-.36v-.84h-7.22c-1.32,0-2.44.06-3.44.08-.19,0-.27-.08-.29-.32-.06-.55-.1-1.3-.1-2.18.99.06,2.2.1,3.86.1h7.2v-6.87Z" />
      <path
        d="M247.21,176.81c.76,0,1.13-.02,1.45-.19.08-.06.15-.08.23-.08.13,0,.23.08.36.17.48.38.97.92,1.36,1.47.06.1.1.19.1.27,0,.13-.08.27-.27.42-.27.23-.55.55-.78.92-.86,1.47-1.68,2.65-2.69,3.93,2.02,1.49,3.88,3.13,5.82,5.08.1.11.17.21.17.29s-.04.19-.15.32c-.4.48-.88.99-1.41,1.43-.08.08-.17.12-.25.12-.1,0-.19-.06-.29-.17-1.76-2.06-3.57-3.72-5.46-5.21-2.37,2.48-4.77,4.26-7.05,5.54-.19.08-.34.17-.48.17-.13,0-.25-.06-.36-.19-.46-.57-1.07-.99-1.76-1.36,3.28-1.66,5.23-3.15,7.39-5.35,1.51-1.58,2.67-3.07,3.95-5.27l-5.42.02c-1.09,0-2.18.04-3.32.13-.17.02-.23-.13-.27-.36-.1-.44-.19-1.45-.19-2.18,1.13.08,2.18.08,3.55.08h5.77Z" />
      <path
        d="M263.24,180.61c2.56.8,4.6,1.62,6.68,2.86.23.13.34.27.23.55-.27.69-.61,1.34-.9,1.83-.08.15-.17.23-.27.23-.06,0-.15-.02-.23-.1-1.93-1.24-3.82-2.16-5.52-2.69v4.64c0,1.36.04,2.6.08,4.12.02.25-.08.32-.38.32-.61.04-1.26.04-1.87,0-.29,0-.4-.06-.4-.32.06-1.55.08-2.79.08-4.14v-10.33c0-1.58-.06-2.27-.21-3.11.97.06,2.02.17,2.62.34.29.06.4.19.4.36,0,.13-.06.29-.17.48-.15.27-.15.8-.15,1.97v3Z" />
      <path
        d="M284.55,178.81c-2.56.48-4.81.92-7.05,1.39-.8.19-1.01.23-1.32.34-.15.06-.29.17-.46.17-.15,0-.31-.13-.4-.32-.27-.57-.5-1.3-.78-2.27,1.07-.04,1.7-.12,3.34-.36,2.58-.38,7.2-1.07,12.62-1.78.31-.04.42.08.44.23.1.48.21,1.26.23,1.85,0,.25-.13.31-.4.31-.99.06-1.66.17-2.56.46-3.57,1.22-5.35,3.67-5.35,6.19,0,2.71,1.93,4.18,5.58,4.41.34,0,.46.08.46.32,0,.54-.08,1.28-.23,1.8-.06.32-.15.44-.4.44-3.7,0-7.75-2.12-7.75-6.49,0-2.98,1.49-5,4.03-6.66v-.04ZM288.71,181.08c.1-.08.19-.06.31.04.65.5,1.41,1.34,1.99,2.25.08.12.08.23-.06.34l-.88.65c-.15.11-.25.08-.36-.06-.63-.97-1.3-1.76-2.12-2.44l1.11-.78ZM290.58,179.71c.13-.08.19-.06.31.04.78.59,1.53,1.43,1.99,2.16.08.13.1.25-.06.38l-.84.65c-.17.12-.27.06-.36-.06-.57-.9-1.24-1.7-2.1-2.42l1.05-.76Z" />
      <path
        d="M302.8,190.46c0,1.68-1.36,3.02-3.04,3.02s-3.04-1.34-3.04-3.02,1.36-3.02,3.04-3.02,3.04,1.34,3.04,3.02ZM298.01,190.46c0,.99.76,1.74,1.74,1.74s1.74-.76,1.74-1.74-.76-1.74-1.74-1.74-1.74.76-1.74,1.74Z" />
    </g>
  </g>
</svg>