<?xml version="1.0" encoding="utf-8"?>
<svg xmlns="http://www.w3.org/2000/svg" version="1.1" viewBox="0 0 375.25 720.75">
  <defs>
    <style>
      /* TOPアニメーション 文字 ------- */
      .text_box-small {
      fill: #231815;
      }
      .text_box-big {
      fill: #040000;
      }
      .text_box-hd {
      fill: #1b1b1b;
      }
      .text-h, .text-arrow_text, .text-one {
      opacity: 0;
      animation: text_bg 1s forwards;
      animation-delay: 7.5s;
      }
      .text-h {
      transform: translate(0, 20px);
      }
      .text-arrow {
      opacity: 0;
      animation: fadeIn 1s forwards;
      animation-delay: 8.5s;
      }
      .text-arrow_box {
      transform: translate(0, 0px);
      animation: text_arrow 1s forwards;
      animation-delay: 8.5s;
      }
      .text-arrow_text {
      transform: translate(0, 20px);
      }
      .text-one {
      transform: translate(0, 20px);
      }
      .text-one:nth-of-type(1) {
      animation-delay: 7.5s;
      }
      .text-one:nth-of-type(2) {
      animation-delay: 7.9s;
      }
      .text-one:nth-of-type(3) {
      animation-delay: 8.4s;
      }
      .text-one:nth-of-type(4) {
      animation-delay: 8.7s;
      }
      .text-one:nth-of-type(5) {
      animation-delay: 8.9s;
      }
      .text-one:nth-of-type(6) {
      animation-delay: 9.82s;
      }
      @keyframes text_bg {
      100% {
      opacity: 1;
      transform: translate(0, 0);
      }
      }
      @keyframes text_arrow {
      100% {
      transform: translate(0, -20px);
      }
      }
      @keyframes fadeIn {
      100% {
      opacity: 1;
      }
      }
    </style>
  </defs>
  <g class="text_box-small">
    <g class="text-one">
      <path
        d="M25.23,595.3h-.81v-.76h.91l.16-1.1h-.81v-.76h.91l.27-1.88h.79l-.27,1.88h.93l.27-1.88h.78l-.27,1.88h.81v.76h-.92l-.15,1.1h.81v.76h-.9l-.28,1.88h-.78l.27-1.88h-.94l-.27,1.88h-.78l.27-1.88ZM26.28,593.45l-.15,1.1h.93l.15-1.1h-.93Z" />
      <path
        d="M30.04,593.98c0-.51.09-.97.26-1.38s.41-.76.71-1.05.66-.51,1.08-.67c.42-.16.87-.23,1.36-.23s.96.08,1.38.23c.42.16.78.38,1.09.67.31.29.54.64.72,1.05s.26.87.26,1.38-.09.95-.26,1.36c-.17.41-.41.77-.72,1.06-.31.3-.67.53-1.09.69s-.88.25-1.38.25-.95-.08-1.36-.25-.78-.4-1.08-.69c-.3-.3-.54-.65-.71-1.06-.17-.41-.26-.87-.26-1.36ZM31.27,593.98c0,.34.05.66.16.94.1.29.25.53.45.74.19.21.43.37.69.49.27.12.56.18.89.18s.62-.06.89-.18c.27-.12.5-.28.7-.49.19-.21.34-.46.45-.74.1-.28.16-.6.16-.94s-.05-.64-.16-.92c-.11-.28-.25-.53-.45-.74s-.42-.38-.69-.5-.57-.18-.9-.18-.63.06-.9.18c-.27.12-.5.29-.69.5-.19.21-.34.46-.45.74s-.16.59-.16.92Z" />
      <path
        d="M38.32,592.86h1.04v.72h.02c.12-.25.29-.46.5-.61.22-.16.47-.23.76-.23.04,0,.09,0,.14,0,.05,0,.09.01.13.02v.99c-.07-.02-.13-.03-.18-.04-.05,0-.1,0-.15,0-.25,0-.44.04-.59.13-.15.09-.27.2-.35.32s-.14.25-.17.39c-.03.13-.04.24-.04.31v2.31h-1.08v-4.32Z" />
      <path
        d="M46.37,597.18h-1.03v-.65h-.02c-.15.25-.36.44-.63.58-.27.13-.55.2-.86.2-.33,0-.63-.06-.89-.18-.26-.12-.48-.29-.67-.5-.18-.21-.32-.45-.42-.73-.1-.28-.15-.58-.15-.9s.05-.61.15-.89c.1-.28.25-.52.43-.72s.41-.36.67-.48c.26-.12.54-.18.85-.18.2,0,.38.02.53.07.16.04.29.1.41.17s.22.14.3.22.15.15.21.23h.03v-3.03h1.08v6.8ZM42.82,595c0,.17.03.34.08.5.05.17.13.32.23.45.1.13.23.24.39.32s.34.13.55.13c.2,0,.38-.04.53-.12s.29-.19.4-.32c.11-.13.2-.28.25-.45.06-.17.09-.33.09-.5s-.03-.34-.09-.5c-.06-.17-.14-.32-.25-.45-.11-.13-.24-.24-.4-.32s-.33-.13-.53-.13c-.21,0-.39.04-.55.12-.16.08-.29.19-.39.32-.1.13-.18.28-.23.45-.05.17-.08.33-.08.5Z" />
      <path
        d="M52.15,595.07v.14s0,.1,0,.14h-3.28c.01.16.05.3.12.43.07.13.16.24.27.33.11.09.24.17.39.22.14.05.29.08.45.08.27,0,.5-.05.68-.15.19-.1.34-.24.46-.41l.72.58c-.43.58-1.04.86-1.85.86-.34,0-.65-.05-.93-.16s-.53-.25-.73-.45-.37-.43-.49-.71-.18-.6-.18-.95.06-.66.18-.95c.12-.29.28-.53.48-.73.2-.2.45-.36.72-.47.28-.11.58-.17.9-.17.3,0,.58.05.83.15.25.1.48.25.66.44s.33.44.44.73.16.63.16,1.02ZM51.07,594.59c0-.14-.02-.27-.06-.4s-.1-.24-.18-.33c-.08-.1-.19-.17-.32-.23-.13-.06-.28-.09-.45-.09-.32,0-.6.1-.82.29-.22.2-.35.45-.37.75h2.21Z" />
      <path
        d="M53.56,592.86h1.04v.72h.02c.12-.25.29-.46.5-.61.22-.16.47-.23.76-.23.04,0,.09,0,.13,0,.05,0,.09.01.13.02v.99c-.07-.02-.13-.03-.18-.04-.05,0-.1,0-.15,0-.25,0-.44.04-.59.13-.15.09-.27.2-.35.32-.08.13-.14.25-.17.39-.03.13-.04.24-.04.31v2.31h-1.08v-4.32Z" />
      <path
        d="M62.37,592.73c.28,0,.52.05.72.15.2.1.37.23.49.39.13.16.22.35.28.56.06.21.09.43.09.65v2.7h-1.08v-2.39c0-.13,0-.26-.03-.4s-.06-.26-.12-.37c-.06-.11-.14-.2-.25-.27-.1-.07-.24-.11-.42-.11s-.31.04-.43.11c-.12.07-.22.17-.3.28-.08.11-.13.24-.17.38-.04.14-.05.28-.05.42v2.36h-1.08v-2.61c0-.27-.06-.49-.19-.67-.13-.18-.33-.27-.61-.27-.16,0-.3.03-.42.1-.12.07-.22.16-.29.27s-.13.23-.17.37c-.04.14-.06.28-.06.43v2.38h-1.08v-4.32h1.03v.69h.02c.05-.11.11-.21.19-.31.08-.1.18-.18.29-.26.11-.08.24-.14.38-.18.14-.05.3-.07.48-.07.34,0,.62.08.84.23.22.15.39.35.51.59.14-.26.34-.47.58-.61.24-.14.52-.21.85-.21Z" />
      <path
        d="M68.26,596.63h-.03c-.11.19-.28.35-.52.47-.24.12-.51.18-.82.18-.17,0-.36-.02-.54-.07s-.36-.12-.52-.23-.29-.24-.4-.41-.16-.38-.16-.63c0-.32.09-.58.27-.77.18-.19.42-.34.71-.44s.61-.17.96-.2c.35-.03.69-.05,1.03-.05v-.11c0-.27-.1-.47-.29-.6-.2-.13-.43-.19-.7-.19-.23,0-.45.05-.66.14s-.38.21-.52.35l-.56-.66c.25-.23.53-.4.85-.51.32-.11.65-.17.98-.17.38,0,.7.05.95.16s.45.25.59.42c.14.17.24.37.3.59.06.22.09.43.09.65v2.63h-1.01v-.55ZM68.24,595.21h-.24c-.17,0-.36,0-.55.02-.19.02-.37.05-.53.1-.16.05-.3.12-.41.22-.11.09-.16.22-.16.38,0,.1.02.19.07.26s.1.12.18.17.15.07.24.09.18.03.27.03c.37,0,.65-.1.85-.3.19-.2.29-.47.29-.81v-.15Z" />
      <path
        d="M75.28,597.18h-1.03v-.65h-.02c-.15.25-.36.44-.63.58-.27.13-.55.2-.86.2-.33,0-.63-.06-.89-.18-.26-.12-.48-.29-.67-.5-.18-.21-.32-.45-.42-.73-.1-.28-.15-.58-.15-.9s.05-.61.15-.89c.1-.28.25-.52.43-.72s.41-.36.67-.48c.26-.12.54-.18.85-.18.2,0,.38.02.53.07.16.04.29.1.41.17s.22.14.3.22.15.15.21.23h.03v-3.03h1.08v6.8ZM71.73,595c0,.17.03.34.08.5.05.17.13.32.23.45.1.13.23.24.39.32s.34.13.55.13c.2,0,.38-.04.53-.12s.29-.19.4-.32c.11-.13.2-.28.25-.45.06-.17.09-.33.09-.5s-.03-.34-.09-.5c-.06-.17-.14-.32-.25-.45-.11-.13-.24-.24-.4-.32s-.33-.13-.53-.13c-.21,0-.39.04-.55.12-.16.08-.29.19-.39.32-.1.13-.18.28-.23.45-.05.17-.08.33-.08.5Z" />
      <path
        d="M81.07,595.07v.14s0,.1,0,.14h-3.28c.01.16.05.3.12.43.07.13.16.24.27.33.11.09.24.17.39.22.14.05.29.08.45.08.27,0,.5-.05.68-.15.19-.1.34-.24.46-.41l.72.58c-.43.58-1.04.86-1.85.86-.34,0-.65-.05-.93-.16s-.53-.25-.73-.45-.37-.43-.49-.71-.18-.6-.18-.95.06-.66.18-.95c.12-.29.28-.53.48-.73.2-.2.45-.36.72-.47.28-.11.58-.17.9-.17.3,0,.58.05.83.15.25.1.48.25.66.44s.33.44.44.73.16.63.16,1.02ZM79.99,594.59c0-.14-.02-.27-.06-.4s-.1-.24-.18-.33c-.08-.1-.19-.17-.32-.23-.13-.06-.28-.09-.45-.09-.32,0-.6.1-.82.29-.22.2-.35.45-.37.75h2.21Z" />
    </g>
    <g class="text-one">
      <path
        d="M25.23,611.3h-.81v-.76h.91l.16-1.1h-.81v-.76h.91l.27-1.88h.79l-.27,1.88h.93l.27-1.88h.78l-.27,1.88h.81v.76h-.92l-.15,1.1h.81v.76h-.9l-.28,1.88h-.78l.27-1.88h-.94l-.27,1.88h-.78l.27-1.88ZM26.28,609.45l-.15,1.1h.93l.15-1.1h-.93Z" />
      <path
        d="M30.36,606.81h2.21c.3,0,.59.03.87.09s.53.17.75.31.39.33.53.57c.13.23.2.52.2.85,0,.46-.13.84-.39,1.13s-.62.49-1.07.59l1.7,2.83h-1.37l-1.48-2.7h-.83v2.7h-1.13v-6.37ZM32.42,609.55c.16,0,.32-.01.49-.04s.31-.07.44-.14c.13-.07.24-.16.32-.28s.13-.28.13-.47c0-.17-.04-.32-.12-.43-.08-.11-.18-.2-.3-.27s-.26-.11-.41-.14c-.15-.02-.3-.04-.45-.04h-1.03v1.79h.93Z" />
      <path
        d="M40.37,611.07v.14s0,.1,0,.14h-3.28c.01.16.05.3.12.43.07.13.16.24.27.33.11.09.24.17.39.22.14.05.29.08.45.08.27,0,.5-.05.68-.15.19-.1.34-.24.46-.41l.72.58c-.43.58-1.04.86-1.85.86-.34,0-.65-.05-.93-.16s-.53-.25-.73-.45-.37-.43-.49-.71-.18-.6-.18-.95.06-.66.18-.95c.12-.29.28-.53.48-.73.2-.2.45-.36.72-.47.28-.11.58-.17.9-.17.3,0,.58.05.83.15.25.1.48.25.66.44s.33.44.44.73.16.63.16,1.02ZM39.29,610.59c0-.14-.02-.27-.06-.4s-.1-.24-.18-.33c-.08-.1-.19-.17-.32-.23-.13-.06-.28-.09-.45-.09-.32,0-.6.1-.82.29-.22.2-.35.45-.37.75h2.21Z" />
      <path
        d="M44.42,612.63h-.03c-.11.19-.28.35-.52.47s-.51.18-.82.18c-.17,0-.36-.02-.54-.07-.19-.04-.36-.12-.52-.23-.16-.1-.29-.24-.4-.41-.1-.17-.16-.38-.16-.63,0-.32.09-.58.27-.77.18-.19.42-.34.71-.44s.61-.17.96-.2c.35-.03.69-.05,1.03-.05v-.11c0-.27-.1-.47-.29-.6-.2-.13-.43-.19-.7-.19-.23,0-.45.05-.66.14-.21.1-.38.21-.52.35l-.56-.66c.25-.23.53-.4.85-.51.32-.11.65-.17.98-.17.38,0,.7.05.95.16s.45.25.59.42c.14.17.24.37.3.59.06.22.09.43.09.65v2.63h-1.01v-.55ZM44.4,611.21h-.24c-.17,0-.36,0-.55.02-.19.02-.37.05-.53.1-.16.05-.3.12-.4.22-.11.09-.16.22-.16.38,0,.1.02.19.07.26s.1.12.18.17c.07.04.15.07.24.09.09.02.18.03.27.03.37,0,.65-.1.85-.3.19-.2.29-.47.29-.81v-.15Z" />
      <path
        d="M51.44,613.18h-1.03v-.65h-.02c-.15.25-.36.44-.63.58-.27.13-.55.2-.86.2-.33,0-.63-.06-.89-.18s-.48-.29-.67-.5c-.18-.21-.32-.45-.42-.73-.1-.28-.15-.58-.15-.9s.05-.61.15-.89c.1-.28.25-.52.43-.72.19-.2.41-.36.67-.48.26-.12.54-.18.85-.18.2,0,.38.02.53.07.16.04.29.1.41.17.12.07.22.14.3.22s.15.15.21.23h.03v-3.03h1.08v6.8ZM47.89,611c0,.17.03.34.08.5.05.17.13.32.23.45s.23.24.39.32c.16.08.34.13.55.13.2,0,.38-.04.53-.12.16-.08.29-.19.4-.32.11-.13.19-.28.25-.45.06-.17.09-.33.09-.5s-.03-.34-.09-.5c-.06-.17-.14-.32-.25-.45-.11-.13-.24-.24-.4-.32-.16-.08-.33-.13-.53-.13-.21,0-.39.04-.55.12-.16.08-.29.19-.39.32s-.18.28-.23.45c-.05.17-.08.33-.08.5Z" />
      <path
        d="M52.51,608.86h1.2l1.21,3.14h.02l1.07-3.14h1.12l-2.04,5.25c-.08.2-.16.37-.25.53-.09.15-.2.28-.32.39s-.27.18-.45.24c-.17.05-.38.08-.62.08-.09,0-.18,0-.27-.01-.09,0-.19-.03-.28-.05l.09-.94c.07.02.14.04.21.05.07,0,.13.01.19.01.11,0,.21-.01.29-.04.08-.03.14-.07.2-.13.05-.06.1-.13.14-.21s.09-.18.13-.3l.22-.55-1.85-4.32Z" />
      <path d="M60.02,611.42h-2.16v-.92h2.16v.92Z" />
      <path
        d="M62.58,606.38v3.03h.03c.05-.07.12-.15.21-.23s.18-.15.3-.22c.12-.07.25-.12.41-.17.16-.05.33-.07.53-.07.31,0,.59.06.85.18.26.12.48.28.67.48s.33.44.43.72c.1.28.15.57.15.89s-.05.62-.15.9c-.1.28-.24.52-.42.73-.18.21-.41.37-.67.5s-.56.18-.89.18c-.31,0-.59-.07-.86-.2-.27-.13-.48-.32-.63-.58h-.02v.65h-1.03v-6.8h1.08ZM65.05,611c0-.17-.03-.33-.08-.5-.05-.17-.13-.31-.23-.45s-.23-.24-.39-.32c-.16-.08-.34-.12-.55-.12-.2,0-.38.04-.53.13-.16.08-.29.19-.4.32-.11.13-.19.28-.25.45-.06.17-.09.34-.09.5s.03.33.09.5c.06.17.14.31.25.45.11.13.24.24.4.32.16.08.33.12.53.12.21,0,.39-.04.55-.13s.29-.19.39-.32.18-.28.23-.45c.05-.17.08-.34.08-.5Z" />
      <path
        d="M71.49,613.18h-1.03v-.69h-.02c-.1.22-.26.41-.5.57s-.52.25-.84.25c-.28,0-.52-.05-.72-.15-.2-.1-.37-.23-.49-.39-.13-.16-.22-.35-.28-.56-.06-.21-.09-.43-.09-.65v-2.7h1.08v2.39c0,.13,0,.26.03.4.02.14.06.26.12.37.06.11.14.2.25.27.1.07.24.11.42.11s.32-.03.45-.1c.13-.07.23-.16.31-.27s.14-.23.18-.37.06-.28.06-.43v-2.38h1.08v4.32Z" />
      <path
        d="M72.99,607.39c0-.17.06-.33.19-.45.13-.13.29-.19.49-.19s.36.06.5.18c.13.12.2.28.2.46s-.07.34-.2.46c-.14.12-.3.18-.5.18s-.36-.06-.49-.19-.19-.28-.19-.45ZM73.15,608.86h1.08v4.32h-1.08v-4.32Z" />
      <path d="M75.89,606.38h1.08v6.8h-1.08v-6.8Z" />
      <path
        d="M78.06,609.72v-.86h.76v-1.25h1.06v1.25h1.08v.86h-1.08v2.01c0,.19.03.35.1.48.07.13.22.19.46.19.07,0,.15,0,.23-.02.08-.01.16-.04.23-.07l.04.85c-.1.04-.21.06-.34.09-.13.02-.26.03-.38.03-.29,0-.52-.04-.7-.12s-.32-.19-.43-.33c-.11-.14-.18-.3-.22-.49-.04-.18-.06-.38-.06-.59v-2.02h-.76Z" />
    </g>
    <g class="text-one">
      <path
        d="M25.23,627.3h-.81v-.76h.91l.16-1.1h-.81v-.76h.91l.27-1.88h.79l-.27,1.88h.93l.27-1.88h.78l-.27,1.88h.81v.76h-.92l-.15,1.1h.81v.76h-.9l-.28,1.88h-.78l.27-1.88h-.94l-.27,1.88h-.78l.27-1.88ZM26.28,625.45l-.15,1.1h.93l.15-1.1h-.93Z" />
      <path
        d="M30.36,622.81h2.26c.41,0,.83.05,1.25.16s.8.29,1.13.54c.34.25.61.58.82.98.21.41.31.91.31,1.51,0,.56-.1,1.04-.31,1.44s-.48.73-.82.99c-.34.26-.71.45-1.13.57s-.84.18-1.25.18h-2.26v-6.37ZM32.43,628.19c.29,0,.59-.03.88-.1.29-.07.56-.19.8-.35.24-.16.43-.39.58-.67.15-.28.22-.64.22-1.07,0-.46-.07-.83-.22-1.12-.15-.29-.34-.51-.58-.67s-.5-.27-.8-.33-.59-.09-.88-.09h-.95v4.41h.95Z" />
      <path
        d="M41.64,627.07v.14s0,.1,0,.14h-3.28c.01.16.05.3.12.43.07.13.16.24.27.33.11.09.24.17.39.22.14.05.29.08.45.08.27,0,.5-.05.68-.15.19-.1.34-.24.46-.41l.72.58c-.43.58-1.04.86-1.85.86-.34,0-.65-.05-.93-.16s-.53-.25-.73-.45-.37-.43-.49-.71-.18-.6-.18-.95.06-.66.18-.95c.12-.29.28-.53.48-.73.2-.2.45-.36.72-.47.28-.11.58-.17.9-.17.3,0,.58.05.83.15.25.1.48.25.66.44s.33.44.44.73.16.63.16,1.02ZM40.56,626.59c0-.14-.02-.27-.06-.4s-.1-.24-.18-.33c-.08-.1-.19-.17-.32-.23-.13-.06-.28-.09-.45-.09-.32,0-.6.1-.82.29-.22.2-.35.45-.37.75h2.21Z" />
      <path
        d="M45.43,626.01c-.1-.13-.23-.24-.4-.33-.17-.09-.35-.14-.55-.14-.17,0-.33.04-.48.11s-.22.19-.22.36.08.29.24.36c.16.07.39.14.7.21.16.04.33.08.49.14s.32.14.45.24.24.22.33.37c.08.15.13.33.13.54,0,.26-.05.49-.15.67s-.23.33-.4.45c-.17.11-.36.2-.58.25s-.45.08-.68.08c-.34,0-.66-.06-.98-.18-.32-.12-.58-.3-.79-.53l.71-.67c.12.16.28.28.47.39.19.1.41.15.64.15.08,0,.16,0,.24-.03.08-.02.16-.05.23-.09.07-.04.12-.09.17-.16s.06-.15.06-.24c0-.18-.08-.31-.25-.39-.17-.08-.41-.16-.74-.23-.16-.04-.32-.08-.47-.14-.15-.06-.29-.13-.41-.22-.12-.09-.22-.21-.29-.35-.07-.14-.11-.31-.11-.51,0-.24.05-.45.15-.62.1-.17.23-.32.39-.43.16-.11.35-.19.55-.25.2-.05.41-.08.63-.08.31,0,.62.05.91.16.3.11.53.27.71.5l-.7.62Z" />
      <path
        d="M47.32,623.39c0-.17.06-.33.19-.45s.29-.19.49-.19.36.06.5.18.2.28.2.46-.07.34-.2.46-.3.18-.5.18-.36-.06-.49-.19c-.13-.13-.19-.28-.19-.45ZM47.47,624.86h1.08v4.32h-1.08v-4.32Z" />
      <path
        d="M54.59,624.86v3.93c0,.39-.05.74-.14,1.06-.1.31-.24.58-.45.8-.2.22-.45.39-.76.51-.31.12-.67.18-1.09.18-.17,0-.36-.01-.55-.04-.19-.03-.39-.08-.58-.13-.19-.06-.37-.14-.54-.23s-.33-.19-.47-.31l.62-.84c.21.2.45.35.71.45.26.1.53.16.8.16s.48-.04.65-.11.32-.18.42-.31c.11-.13.18-.29.23-.47.04-.18.07-.38.07-.6v-.32h-.02c-.16.21-.36.37-.6.49-.24.11-.51.17-.81.17-.32,0-.62-.06-.88-.18-.26-.12-.49-.28-.67-.49-.18-.2-.33-.44-.43-.72-.1-.27-.15-.56-.15-.87s.05-.61.15-.88c.1-.28.24-.52.42-.72.18-.2.4-.37.67-.49s.55-.18.88-.18c.31,0,.59.06.85.19s.47.32.63.58h.02v-.65h1.03ZM52.28,625.62c-.2,0-.37.04-.53.11-.15.07-.28.17-.39.29s-.19.27-.24.44c-.06.17-.09.35-.09.54,0,.17.03.34.09.5.06.16.14.31.24.44.1.13.23.23.39.31.15.08.33.12.52.12s.38-.04.54-.11c.16-.08.29-.18.4-.3.11-.13.2-.27.26-.44.06-.16.09-.34.09-.52s-.03-.36-.09-.53c-.06-.17-.15-.31-.26-.44-.11-.13-.24-.22-.4-.3s-.33-.11-.53-.11Z" />
      <path
        d="M56.23,624.86h1.03v.69h.02c.1-.22.26-.41.5-.57.24-.17.52-.25.84-.25.28,0,.52.05.72.15.2.1.37.23.5.39.13.16.22.35.28.56.06.21.09.43.09.65v2.7h-1.08v-2.39c0-.13,0-.26-.03-.4-.02-.14-.06-.26-.12-.37-.06-.11-.14-.2-.25-.27-.1-.07-.24-.11-.42-.11s-.32.03-.45.1c-.13.07-.23.16-.31.27s-.14.23-.18.37c-.04.14-.06.28-.06.43v2.38h-1.08v-4.32Z" />
    </g>
    <g class="text-one">
      <path
        d="M25.23,643.3h-.81v-.76h.91l.16-1.1h-.81v-.76h.91l.27-1.88h.79l-.27,1.88h.93l.27-1.88h.78l-.27,1.88h.81v.76h-.92l-.15,1.1h.81v.76h-.9l-.28,1.88h-.78l.27-1.88h-.94l-.27,1.88h-.78l.27-1.88ZM26.28,641.45l-.15,1.1h.93l.15-1.1h-.93Z" />
      <path
        d="M34.95,640.3c-.17-.23-.39-.39-.66-.5-.27-.1-.53-.16-.79-.16-.33,0-.63.06-.9.18s-.5.29-.7.5c-.19.21-.34.46-.45.74s-.16.59-.16.92c0,.35.05.67.15.95.1.29.25.54.44.74s.42.37.68.48c.26.11.56.17.89.17s.65-.07.91-.2c.26-.14.48-.31.64-.54l.91.64c-.28.35-.63.63-1.04.82-.41.19-.88.29-1.43.29-.5,0-.96-.08-1.37-.25-.42-.17-.78-.4-1.08-.69-.3-.3-.53-.65-.7-1.06-.17-.41-.25-.87-.25-1.36s.09-.97.27-1.38.42-.76.73-1.05.67-.51,1.09-.67c.42-.16.88-.23,1.37-.23.2,0,.42.02.64.06s.44.1.64.18c.2.08.4.18.58.3.18.12.33.26.46.43l-.86.68Z" />
      <path
        d="M36.71,643c0-.34.06-.65.18-.93.12-.28.29-.52.5-.72.21-.2.46-.35.75-.46.29-.11.59-.16.92-.16s.63.05.92.16c.29.11.54.26.75.46.21.2.38.44.5.72.12.28.18.59.18.93s-.06.65-.18.94c-.12.28-.29.52-.5.72s-.46.36-.75.47c-.29.11-.59.17-.92.17s-.63-.06-.92-.17c-.29-.11-.54-.27-.75-.47-.21-.2-.38-.44-.5-.72-.12-.28-.18-.59-.18-.94ZM37.81,643c0,.17.03.34.08.5.05.17.13.32.23.45.1.13.23.24.39.32.16.08.34.13.56.13s.4-.04.56-.13.29-.19.39-.32c.1-.13.18-.28.23-.45.05-.17.08-.34.08-.5s-.03-.33-.08-.5c-.05-.17-.13-.31-.23-.45-.1-.13-.23-.24-.39-.32-.16-.08-.34-.12-.56-.12s-.4.04-.56.12c-.16.08-.29.19-.39.32-.1.13-.18.28-.23.45s-.08.33-.08.5Z" />
      <path
        d="M45.17,642.01c-.1-.13-.23-.24-.4-.33-.17-.09-.35-.14-.55-.14-.17,0-.33.04-.48.11s-.22.19-.22.36.08.29.24.36c.16.07.39.14.7.21.16.04.33.08.49.14s.32.14.45.24.24.22.33.37c.08.15.13.33.13.54,0,.26-.05.49-.15.67s-.23.33-.4.45c-.17.11-.36.2-.58.25s-.45.08-.68.08c-.34,0-.66-.06-.98-.18-.32-.12-.58-.3-.79-.53l.71-.67c.12.16.28.28.47.39.19.1.41.15.64.15.08,0,.16,0,.24-.03.08-.02.16-.05.23-.09.07-.04.12-.09.17-.16s.06-.15.06-.24c0-.18-.08-.31-.25-.39-.17-.08-.41-.16-.74-.23-.16-.04-.32-.08-.47-.14-.15-.06-.29-.13-.41-.22-.12-.09-.22-.21-.29-.35-.07-.14-.11-.31-.11-.51,0-.24.05-.45.15-.62.1-.17.23-.32.39-.43.16-.11.35-.19.55-.25.2-.05.41-.08.63-.08.31,0,.62.05.91.16.3.11.53.27.71.5l-.7.62Z" />
      <path
        d="M46.75,641.72v-.86h.76v-1.25h1.06v1.25h1.08v.86h-1.08v2.01c0,.19.03.35.1.48.07.13.22.19.46.19.07,0,.15,0,.23-.02.08-.01.16-.04.23-.07l.04.85c-.1.04-.21.06-.34.09-.13.02-.26.03-.38.03-.29,0-.52-.04-.7-.12-.18-.08-.32-.19-.43-.33-.1-.14-.18-.3-.22-.49s-.06-.38-.06-.59v-2.02h-.76Z" />
      <path
        d="M50.93,638.81h2.08c.37,0,.7.03.99.1s.55.17.76.32.37.34.49.58c.11.23.17.52.17.85,0,.35-.07.65-.2.89-.13.24-.31.43-.54.58-.23.15-.49.25-.79.32-.3.07-.62.1-.95.1h-.87v2.64h-1.13v-6.37ZM52.85,641.59c.19,0,.36-.01.53-.04.17-.03.32-.07.45-.14.13-.07.24-.16.32-.28.08-.12.12-.28.12-.47s-.04-.34-.12-.45c-.08-.12-.18-.21-.31-.27-.13-.07-.28-.11-.44-.13s-.33-.03-.51-.03h-.83v1.83h.79Z" />
      <path
        d="M60.6,643.07v.14s0,.1,0,.14h-3.28c.01.16.05.3.12.43.07.13.16.24.27.33.11.09.24.17.39.22.14.05.29.08.45.08.27,0,.5-.05.68-.15.19-.1.34-.24.46-.41l.72.58c-.43.58-1.04.86-1.85.86-.34,0-.65-.05-.93-.16s-.53-.25-.73-.45-.37-.43-.49-.71-.18-.6-.18-.95.06-.66.18-.95c.12-.29.28-.53.48-.73.2-.2.45-.36.72-.47.28-.11.58-.17.9-.17.3,0,.58.05.83.15.25.1.48.25.66.44s.33.44.44.73.16.63.16,1.02ZM59.52,642.59c0-.14-.02-.27-.06-.4s-.1-.24-.18-.33c-.08-.1-.19-.17-.32-.23-.13-.06-.28-.09-.45-.09-.32,0-.6.1-.82.29-.22.2-.35.45-.37.75h2.21Z" />
      <path
        d="M62,640.86h1.04v.72h.02c.12-.25.29-.46.5-.61.22-.16.47-.23.76-.23.04,0,.09,0,.13,0,.05,0,.09.01.13.02v.99c-.07-.02-.13-.03-.18-.04-.05,0-.1,0-.15,0-.25,0-.44.04-.59.13-.15.09-.27.2-.35.32-.08.13-.14.25-.17.39-.03.13-.04.24-.04.31v2.31h-1.08v-4.32Z" />
      <path
        d="M66.14,641.72h-.82v-.86h.82v-.64c0-.26.03-.51.09-.74.06-.24.15-.45.29-.63.14-.18.31-.32.54-.43.22-.1.5-.16.84-.16.12,0,.22,0,.3.01.08,0,.16.03.25.05l-.07.92c-.06-.02-.12-.03-.19-.04-.07-.01-.14-.02-.22-.02-.16,0-.28.03-.38.09-.1.06-.17.14-.22.23-.05.1-.09.2-.1.31-.02.11-.03.22-.03.33v.7h1v.86h-1v3.46h-1.08v-3.46Z" />
      <path
        d="M69.02,643c0-.34.06-.65.18-.93.12-.28.29-.52.5-.72.21-.2.46-.35.75-.46.29-.11.59-.16.92-.16s.63.05.92.16c.29.11.54.26.75.46.21.2.38.44.5.72.12.28.18.59.18.93s-.06.65-.18.94c-.12.28-.29.52-.5.72s-.46.36-.75.47c-.29.11-.59.17-.92.17s-.63-.06-.92-.17c-.29-.11-.54-.27-.75-.47-.21-.2-.38-.44-.5-.72-.12-.28-.18-.59-.18-.94ZM70.11,643c0,.17.03.34.08.5.05.17.13.32.23.45.1.13.23.24.39.32.16.08.34.13.56.13s.4-.04.56-.13.29-.19.39-.32c.1-.13.18-.28.23-.45.05-.17.08-.34.08-.5s-.03-.33-.08-.5c-.05-.17-.13-.31-.23-.45-.1-.13-.23-.24-.39-.32-.16-.08-.34-.12-.56-.12s-.4.04-.56.12c-.16.08-.29.19-.39.32-.1.13-.18.28-.23.45s-.08.33-.08.5Z" />
      <path
        d="M75.1,640.86h1.04v.72h.02c.12-.25.29-.46.5-.61.22-.16.47-.23.76-.23.04,0,.09,0,.14,0,.05,0,.09.01.13.02v.99c-.07-.02-.13-.03-.18-.04-.05,0-.1,0-.15,0-.25,0-.44.04-.59.13-.15.09-.27.2-.35.32s-.14.25-.17.39c-.03.13-.04.24-.04.31v2.31h-1.08v-4.32Z" />
      <path
        d="M83.92,640.73c.28,0,.52.05.72.15.2.1.37.23.5.39.13.16.22.35.28.56.06.21.09.43.09.65v2.7h-1.08v-2.39c0-.13,0-.26-.03-.4-.02-.14-.06-.26-.12-.37-.06-.11-.14-.2-.25-.27-.1-.07-.24-.11-.42-.11s-.31.04-.43.11c-.12.07-.22.17-.3.28-.08.11-.14.24-.17.38-.04.14-.05.28-.05.42v2.36h-1.08v-2.61c0-.27-.06-.49-.19-.67-.13-.18-.33-.27-.61-.27-.16,0-.3.03-.42.1-.12.07-.22.16-.29.27s-.13.23-.17.37c-.04.14-.06.28-.06.43v2.38h-1.08v-4.32h1.03v.69h.02c.05-.11.11-.21.19-.31.08-.1.18-.18.29-.26.11-.08.24-.14.38-.18.14-.05.3-.07.48-.07.34,0,.61.08.84.23.22.15.39.35.51.59.14-.26.34-.47.58-.61.24-.14.52-.21.85-.21Z" />
      <path
        d="M89.8,644.63h-.03c-.11.19-.28.35-.52.47s-.51.18-.82.18c-.17,0-.36-.02-.54-.07-.19-.04-.36-.12-.52-.23-.16-.1-.29-.24-.4-.41-.11-.17-.16-.38-.16-.63,0-.32.09-.58.27-.77.18-.19.42-.34.71-.44s.61-.17.96-.2c.35-.03.69-.05,1.03-.05v-.11c0-.27-.1-.47-.29-.6-.19-.13-.43-.19-.7-.19-.23,0-.45.05-.66.14s-.38.21-.52.35l-.56-.66c.25-.23.53-.4.85-.51.32-.11.65-.17.98-.17.38,0,.7.05.95.16.25.11.45.25.59.42.14.17.24.37.3.59.06.22.08.43.08.65v2.63h-1.01v-.55ZM89.79,643.21h-.24c-.17,0-.36,0-.55.02-.19.02-.37.05-.53.1-.16.05-.3.12-.41.22-.11.09-.16.22-.16.38,0,.1.02.19.07.26s.1.12.18.17c.07.04.15.07.24.09s.18.03.27.03c.37,0,.65-.1.85-.3.19-.2.29-.47.29-.81v-.15Z" />
      <path
        d="M92.43,640.86h1.03v.69h.02c.1-.22.26-.41.5-.57.24-.17.52-.25.84-.25.28,0,.52.05.72.15.2.1.37.23.5.39.13.16.22.35.28.56.06.21.09.43.09.65v2.7h-1.08v-2.39c0-.13,0-.26-.03-.4-.02-.14-.06-.26-.12-.37-.06-.11-.14-.2-.25-.27-.1-.07-.24-.11-.42-.11s-.32.03-.45.1c-.13.07-.23.16-.31.27s-.14.23-.18.37c-.04.14-.06.28-.06.43v2.38h-1.08v-4.32Z" />
      <path
        d="M100.97,642.06c-.08-.12-.21-.22-.38-.3-.17-.08-.34-.12-.51-.12-.2,0-.37.04-.52.12-.15.08-.27.19-.37.32-.1.13-.17.28-.22.45-.05.17-.07.33-.07.5s.03.33.08.5.13.31.23.45c.1.13.23.24.38.32.15.08.33.12.54.12.17,0,.34-.03.5-.1s.3-.16.41-.29l.67.68c-.18.19-.41.34-.69.45-.28.1-.58.16-.9.16s-.62-.05-.9-.15c-.29-.1-.53-.25-.75-.45-.21-.2-.38-.44-.5-.72-.12-.28-.18-.6-.18-.96s.06-.66.18-.94c.12-.28.29-.52.5-.72.21-.2.45-.35.73-.46.28-.11.58-.16.9-.16s.63.06.92.18.53.29.71.5l-.74.65Z" />
      <path
        d="M106.84,643.07v.14s0,.1,0,.14h-3.28c.01.16.05.3.12.43.07.13.16.24.27.33.11.09.24.17.39.22.14.05.29.08.45.08.27,0,.5-.05.68-.15.19-.1.34-.24.46-.41l.72.58c-.43.58-1.04.86-1.85.86-.34,0-.65-.05-.93-.16s-.53-.25-.73-.45-.37-.43-.49-.71-.18-.6-.18-.95.06-.66.18-.95c.12-.29.28-.53.48-.73.2-.2.45-.36.72-.47.28-.11.58-.17.9-.17.3,0,.58.05.83.15.25.1.48.25.66.44s.33.44.44.73.16.63.16,1.02ZM105.76,642.59c0-.14-.02-.27-.06-.4s-.1-.24-.18-.33c-.08-.1-.19-.17-.32-.23-.13-.06-.28-.09-.45-.09-.32,0-.6.1-.82.29-.22.2-.35.45-.37.75h2.21Z" />
    </g>
    <g class="text-one">
      <path
        d="M25.23,659.3h-.81v-.76h.91l.16-1.1h-.81v-.76h.91l.27-1.88h.79l-.27,1.88h.93l.27-1.88h.78l-.27,1.88h.81v.76h-.92l-.15,1.1h.81v.76h-.9l-.28,1.88h-.78l.27-1.88h-.94l-.27,1.88h-.78l.27-1.88ZM26.28,657.45l-.15,1.1h.93l.15-1.1h-.93Z" />
      <path d="M30.36,654.81h4.22v.99h-3.09v1.62h2.92v.95h-2.92v1.8h3.25v1.01h-4.38v-6.37Z" />
      <path
        d="M37.42,658.89l-1.56-2.03h1.3l.94,1.34.96-1.34h1.24l-1.55,2.03,1.76,2.29h-1.31l-1.12-1.58-1.13,1.58h-1.28l1.76-2.29Z" />
      <path
        d="M41.13,657.72v-.86h.76v-1.25h1.06v1.25h1.08v.86h-1.08v2.01c0,.19.03.35.1.48s.22.19.46.19c.07,0,.15,0,.23-.02.08-.01.16-.04.22-.07l.04.85c-.1.04-.21.06-.34.09-.13.02-.26.03-.38.03-.29,0-.52-.04-.7-.12-.18-.08-.32-.19-.43-.33-.1-.14-.18-.3-.22-.49s-.06-.38-.06-.59v-2.02h-.76Z" />
      <path
        d="M49.26,659.07v.14s0,.1,0,.14h-3.28c.01.16.05.3.12.43.07.13.16.24.27.33.11.09.24.17.39.22.14.05.29.08.45.08.27,0,.5-.05.68-.15.19-.1.34-.24.46-.41l.72.58c-.43.58-1.04.86-1.85.86-.34,0-.64-.05-.93-.16s-.53-.25-.73-.45-.37-.43-.49-.71c-.12-.28-.18-.6-.18-.95s.06-.66.18-.95c.12-.29.28-.53.48-.73s.45-.36.72-.47c.28-.11.58-.17.9-.17.3,0,.58.05.83.15.25.1.48.25.66.44.19.19.33.44.44.73.1.29.16.63.16,1.02ZM48.18,658.59c0-.14-.02-.27-.06-.4-.04-.13-.1-.24-.18-.33-.08-.1-.19-.17-.32-.23-.13-.06-.28-.09-.45-.09-.32,0-.6.1-.82.29-.23.2-.35.45-.37.75h2.21Z" />
      <path
        d="M50.67,656.86h1.04v.72h.02c.12-.25.29-.46.5-.61.22-.16.47-.23.76-.23.04,0,.09,0,.14,0,.05,0,.09.01.13.02v.99c-.07-.02-.13-.03-.18-.04-.05,0-.1,0-.15,0-.25,0-.44.04-.59.13-.15.09-.27.2-.35.32s-.14.25-.17.39c-.03.13-.04.24-.04.31v2.31h-1.08v-4.32Z" />
      <path
        d="M54.18,655.39c0-.17.06-.33.19-.45.13-.13.29-.19.49-.19s.36.06.5.18.2.28.2.46-.07.34-.2.46-.3.18-.5.18-.36-.06-.49-.19-.19-.28-.19-.45ZM54.33,656.86h1.08v4.32h-1.08v-4.32Z" />
      <path
        d="M56.8,659c0-.34.06-.65.18-.93.12-.28.29-.52.5-.72.21-.2.46-.35.75-.46s.59-.16.92-.16.63.05.92.16.54.26.75.46c.21.2.38.44.5.72.12.28.18.59.18.93s-.06.65-.18.94c-.12.28-.29.52-.5.72s-.46.36-.75.47c-.29.11-.59.17-.92.17s-.63-.06-.92-.17c-.29-.11-.54-.27-.75-.47s-.38-.44-.5-.72c-.12-.28-.18-.59-.18-.94ZM57.9,659c0,.17.03.34.08.5.05.17.13.32.23.45s.23.24.39.32c.16.08.34.13.56.13s.4-.04.56-.13.28-.19.39-.32c.1-.13.18-.28.23-.45.05-.17.08-.34.08-.5s-.03-.33-.08-.5c-.05-.17-.13-.31-.23-.45-.1-.13-.23-.24-.39-.32-.16-.08-.34-.12-.56-.12s-.4.04-.56.12c-.16.08-.29.19-.39.32s-.18.28-.23.45c-.05.17-.08.33-.08.5Z" />
      <path
        d="M62.89,656.86h1.04v.72h.02c.12-.25.29-.46.5-.61.22-.16.47-.23.76-.23.04,0,.09,0,.13,0,.05,0,.09.01.13.02v.99c-.07-.02-.13-.03-.18-.04-.05,0-.1,0-.15,0-.25,0-.44.04-.59.13-.15.09-.27.2-.35.32-.08.13-.14.25-.17.39-.03.13-.04.24-.04.31v2.31h-1.08v-4.32Z" />
    </g>
    <g class="text-one">
      <path
        d="M25.23,675.3h-.81v-.76h.91l.16-1.1h-.81v-.76h.91l.27-1.88h.79l-.27,1.88h.93l.27-1.88h.78l-.27,1.88h.81v.76h-.92l-.15,1.1h.81v.76h-.9l-.28,1.88h-.78l.27-1.88h-.94l-.27,1.88h-.78l.27-1.88ZM26.28,673.45l-.15,1.1h.93l.15-1.1h-.93Z" />
      <path d="M30.35,670.81h1.13v6.37h-1.13v-6.37Z" />
      <path
        d="M33.2,672.86h1.03v.69h.02c.1-.22.26-.41.5-.57.24-.17.52-.25.84-.25.28,0,.52.05.72.15.2.1.37.23.5.39.13.16.22.35.28.56.06.21.09.43.09.65v2.7h-1.08v-2.39c0-.13,0-.26-.03-.4-.02-.14-.06-.26-.12-.37-.06-.11-.14-.2-.25-.27-.1-.07-.24-.11-.42-.11s-.32.03-.45.1c-.13.07-.23.16-.31.27s-.14.23-.18.37c-.04.14-.06.28-.06.43v2.38h-1.08v-4.32Z" />
      <path
        d="M38.19,673.72v-.86h.76v-1.25h1.06v1.25h1.08v.86h-1.08v2.01c0,.19.03.35.1.48.07.13.22.19.46.19.07,0,.15,0,.23-.02.08-.01.16-.04.23-.07l.04.85c-.1.04-.21.06-.34.09-.13.02-.26.03-.38.03-.29,0-.52-.04-.7-.12s-.32-.19-.43-.33c-.11-.14-.18-.3-.22-.49-.04-.18-.06-.38-.06-.59v-2.02h-.76Z" />
      <path
        d="M46.32,675.07v.14s0,.1,0,.14h-3.29c.01.16.05.3.12.43.07.13.16.24.27.33.11.09.24.17.39.22.14.05.29.08.45.08.27,0,.5-.05.68-.15.19-.1.34-.24.46-.41l.72.58c-.43.58-1.04.86-1.85.86-.34,0-.65-.05-.93-.16-.28-.1-.53-.25-.73-.45-.21-.19-.37-.43-.49-.71-.12-.28-.18-.6-.18-.95s.06-.66.18-.95c.12-.29.28-.53.48-.73.2-.2.45-.36.72-.47.28-.11.58-.17.9-.17.3,0,.58.05.83.15.26.1.48.25.66.44.19.19.33.44.44.73.1.29.16.63.16,1.02ZM45.24,674.59c0-.14-.02-.27-.06-.4s-.1-.24-.18-.33c-.08-.1-.19-.17-.32-.23-.13-.06-.28-.09-.45-.09-.32,0-.6.1-.82.29-.23.2-.35.45-.37.75h2.21Z" />
      <path
        d="M47.72,672.86h1.04v.72h.02c.12-.25.29-.46.5-.61.22-.16.47-.23.76-.23.04,0,.09,0,.13,0,.05,0,.09.01.13.02v.99c-.07-.02-.13-.03-.18-.04-.05,0-.1,0-.15,0-.25,0-.44.04-.59.13-.15.09-.27.2-.35.32-.08.13-.14.25-.17.39-.03.13-.04.24-.04.31v2.31h-1.08v-4.32Z" />
      <path
        d="M51.24,671.39c0-.17.06-.33.19-.45s.29-.19.49-.19.36.06.5.18.2.28.2.46-.07.34-.2.46-.3.18-.5.18-.36-.06-.49-.19c-.13-.13-.19-.28-.19-.45ZM51.39,672.86h1.08v4.32h-1.08v-4.32Z" />
      <path
        d="M53.86,675c0-.34.06-.65.18-.93.12-.28.29-.52.5-.72.21-.2.46-.35.75-.46.29-.11.59-.16.92-.16s.63.05.92.16c.29.11.54.26.75.46.21.2.38.44.5.72.12.28.18.59.18.93s-.06.65-.18.94c-.12.28-.29.52-.5.72s-.46.36-.75.47c-.29.11-.59.17-.92.17s-.63-.06-.92-.17c-.29-.11-.54-.27-.75-.47-.21-.2-.38-.44-.5-.72-.12-.28-.18-.59-.18-.94ZM54.95,675c0,.17.03.34.08.5.05.17.13.32.23.45.1.13.23.24.39.32.16.08.34.13.56.13s.4-.04.56-.13.29-.19.39-.32c.1-.13.18-.28.23-.45.05-.17.08-.34.08-.5s-.03-.33-.08-.5c-.05-.17-.13-.31-.23-.45-.1-.13-.23-.24-.39-.32-.16-.08-.34-.12-.56-.12s-.4.04-.56.12c-.16.08-.29.19-.39.32-.1.13-.18.28-.23.45s-.08.33-.08.5Z" />
      <path
        d="M59.94,672.86h1.04v.72h.02c.12-.25.29-.46.5-.61.22-.16.47-.23.76-.23.04,0,.09,0,.14,0,.05,0,.09.01.13.02v.99c-.07-.02-.13-.03-.18-.04-.05,0-.1,0-.15,0-.25,0-.44.04-.59.13-.15.09-.27.2-.35.32s-.14.25-.17.39c-.03.13-.04.24-.04.31v2.31h-1.08v-4.32Z" />
    </g>
  </g>
  <g class="text_box-medium">
    <g class="text-one">
      <path
        d="M151.81,154.47c.73-.34,1.45-.67,2.18-1.07-.02.36-.02.9,0,1.36q.02.69-.52,1.01c-1.39.74-2.94,1.41-4.54,2.02-.34.15-.55.23-.65.32-.13.1-.21.15-.34.15-.1,0-.19-.06-.27-.27-.19-.55-.36-1.22-.52-1.97.63-.1,1.24-.27,1.97-.5l.61-.21v-4.56c-1.32,0-1.72.04-1.85.04-.21,0-.23-.02-.23-.23v-1.51c0-.23.02-.25.23-.25.13,0,.52.04,1.85.04v-3.7h-.13c-1.41,0-1.85.04-1.97.04-.19,0-.21-.02-.21-.23v-1.53c0-.23.02-.25.21-.25.13,0,.57.04,1.97.04h2.18c1.43,0,1.87-.04,1.97-.04.21,0,.23.02.23.25v1.53c0,.21-.02.23-.23.23-.1,0-.55-.04-1.95-.04v3.7c1.15,0,1.55-.04,1.68-.04.21,0,.21.02.21.25v1.51c0,.21,0,.23-.21.23-.13,0-.52-.04-1.68-.04v3.74ZM155.65,160.1c-2.08,0-2.79.04-2.92.04-.21,0-.23-.02-.23-.23v-1.49c0-.21.02-.23.23-.23.13,0,.84.04,2.92.04h3.19v-2.06h-1.3c-1.93,0-2.58.04-2.71.04-.21,0-.23-.02-.23-.23v-1.45c0-.21.02-.23.23-.23.13,0,.78.04,2.71.04h1.3v-1.8h-1.36c-1.91,0-2.6.04-2.73.04-.23,0-.25-.02-.25-.21,0-.13.04-.8.04-2.33v-4.66c0-1.49-.04-2.14-.04-2.29,0-.21.02-.23.25-.23.13,0,.82.04,2.73.04h5c1.93,0,2.6-.04,2.75-.04.21,0,.23.02.23.23,0,.13-.04.8-.04,2.29v4.66c0,1.53.04,2.2.04,2.33,0,.19-.02.21-.23.21-.15,0-.82-.04-2.75-.04h-1.53v1.8h1.6c1.91,0,2.58-.04,2.71-.04.21,0,.23.02.23.23v1.45c0,.21-.02.23-.23.23-.13,0-.8-.04-2.71-.04h-1.6v2.06h2.41c2.06,0,2.79-.04,2.9-.04.21,0,.23.02.23.23v1.49c0,.21-.02.23-.23.23-.1,0-.84-.04-2.9-.04h-7.71ZM158.84,146.81v-2.12h-2.33v2.12h2.33ZM158.84,150.78v-2.25h-2.33v2.25h2.33ZM160.94,144.69v2.12h2.48v-2.12h-2.48ZM163.42,148.53h-2.48v2.25h2.48v-2.25Z" />
      <path
        d="M174.37,143.74c0-.88-.02-1.32-.13-1.87.73.02,1.34.04,2.04.1.19.02.27.08.27.21s-.06.25-.08.34c-.04.13-.1.4-.1,1.2v.92h.27c1.68,0,2.2-.04,2.33-.04.23,0,.25.02.25.23v1.49c0,.21-.02.23-.25.23-.13,0-.65-.04-2.33-.04h-.04c.78,1.2,1.87,2.35,2.9,3.04-.29.38-.55.78-.73,1.24-.13.29-.21.44-.34.44-.1,0-.23-.1-.42-.31-.65-.67-1.24-1.43-1.72-2.33.04,2.64.1,4.56.1,4.96,0,.23-.02.25-.23.25h-1.6c-.21,0-.23-.02-.23-.25,0-.38.06-2.08.08-4.54-.59,1.15-1.43,2.2-2.52,3.21-.19.17-.31.25-.42.25-.15,0-.25-.15-.42-.46-.25-.48-.59-.95-.9-1.24,1.57-1.09,2.88-2.39,3.88-4.26h-.69c-1.7,0-2.25.04-2.37.04-.21,0-.23-.02-.23-.23v-1.49c0-.21.02-.23.23-.23.13,0,.67.04,2.37.04h1.03v-.9ZM170.76,158.96c-.27-.19-.25-.27-.13-.42.8-1.09,1.34-2.27,1.76-3.72.06-.23.1-.21.38-.1l1.32.5c.27.1.29.15.23.38-.48,1.64-1.07,2.92-1.89,4.18-.06.1-.1.15-.17.15s-.15-.02-.25-.11l-1.26-.86ZM177.88,157.73c0,.42.08.69.29.82.34.19.94.23,1.95.23,1.28,0,2.04-.02,2.5-.32.31-.23.5-.92.52-1.89.42.25.99.48,1.57.61.55.1.52.17.44.74-.19,1.36-.52,1.89-1.15,2.25-.78.44-1.87.53-4.07.53-1.93,0-3-.13-3.51-.46-.46-.31-.71-.71-.71-1.78v-2.35c0-.63-.04-1.16-.13-1.74.69,0,1.53.04,2.14.11.27.04.38.13.38.23,0,.13-.02.19-.08.34-.08.19-.15.48-.15.95v1.76ZM185.56,142.75c1.64,0,2.18-.04,2.33-.04.21,0,.23.02.23.23,0,.13-.04.86-.04,2.46v5.54c0,1.6.04,2.33.04,2.46,0,.23-.02.25-.23.25-.15,0-.69-.04-2.33-.04h-2.98c-1.03,0-1.6.02-1.93.02.76.71,1.45,1.49,2.04,2.37.1.17.1.23-.13.38l-1.22.76c-.13.08-.21.13-.27.13s-.1-.04-.17-.15c-.55-.96-1.3-1.99-2.1-2.73-.13-.15-.1-.23.1-.36l1.11-.65c0-.17.04-.9.04-2.44v-5.54c0-1.6-.04-2.31-.04-2.46,0-.21.02-.23.25-.23.13,0,.65.04,2.31.04h2.98ZM182.04,145.91h4.05v-1.43h-4.05v1.43ZM186.09,148.87v-1.41h-4.05v1.41h4.05ZM186.09,150.42h-4.05v1.47h4.05v-1.47ZM186.63,154.47c.25-.11.31-.08.44.08.88,1.11,1.66,2.31,2.29,3.78.06.17.04.23-.19.38l-1.41.82c-.13.08-.21.13-.27.13s-.1-.06-.15-.19c-.57-1.64-1.24-2.73-2.16-3.95-.15-.19-.13-.23.15-.38l1.3-.67Z" />
      <path
        d="M203.21,146.53c-.48,3.57-1.36,6.85-2.62,9.05-.9,1.58-1.99,2.42-3.57,2.42-1.85,0-3.72-1.97-3.72-5.4,0-2.02.86-3.95,2.37-5.46,1.76-1.76,3.99-2.69,6.82-2.69,5.04,0,8,3.11,8,7.29,0,3.91-2.2,6.36-6.47,7.64-.44.13-.63.04-.9-.38-.23-.36-.67-.84-1.47-1.32,3.55-.84,6.34-2.31,6.34-6.28,0-2.5-1.89-4.87-4.7-4.87h-.08ZM197.19,148.57c-1.01,1.13-1.64,2.54-1.64,3.88,0,1.93.78,3,1.43,3,.55,0,1.01-.27,1.57-1.28.92-1.7,1.87-4.72,2.23-7.52-1.47.29-2.65.88-3.59,1.91Z" />
      <path
        d="M225.49,150.92c-.13,2.35-.42,3.76-1.24,5.35-.84,1.64-2.35,3.17-3.7,3.97-.23.15-.44.25-.63.25-.15,0-.29-.06-.44-.21-.42-.42-1.13-.84-1.87-1.11,2.06-1.11,3.3-2.14,4.18-3.74.78-1.38.99-2.52,1.07-4.51h-3.99c-1.05,0-2.08.06-3.15.13-.19.02-.25-.13-.27-.4-.1-.59-.17-1.38-.17-2.02,1.18.11,2.35.11,3.57.11h9.43c1.64,0,2.86-.04,4.09-.13.21,0,.23.13.23.42.02.27.02,1.34,0,1.62,0,.27-.13.36-.31.36-1.09-.04-2.54-.08-3.99-.08h-2.81ZM221.33,146.05c-.97,0-1.81.04-2.98.08-.27,0-.34-.11-.36-.36-.06-.5-.08-1.26-.15-2.02,1.47.08,2.54.11,3.49.11h3.86c1.18,0,2.5-.02,3.55-.08.21,0,.25.13.25.4.04.5.04,1.03,0,1.53,0,.29-.04.4-.27.4-1.13-.04-2.37-.06-3.53-.06h-3.86ZM230.36,142.4c.1-.06.19-.04.29.06.61.57,1.28,1.49,1.78,2.44.06.12.06.23-.1.34l-.94.57c-.15.08-.25.04-.34-.11-.55-1.03-1.13-1.89-1.89-2.62l1.2-.67ZM232.35,141.22c.13-.08.19-.04.29.06.71.67,1.39,1.57,1.78,2.35.06.12.08.25-.1.38l-.88.57c-.19.1-.29.02-.36-.1-.48-.95-1.07-1.81-1.87-2.6l1.13-.65Z" />
      <path
        d="M251.83,147.82c1.03,0,2.2-.02,3.17-.06.25-.02.27.1.29.34.04.52.04,1.13,0,1.66-.02.27-.06.36-.36.34-.71,0-1.99-.02-3.02-.02h-.86c-.13,3-.59,4.77-1.62,6.47-1.05,1.74-2.75,3-4.96,3.91-.29.12-.46.19-.59.19s-.23-.06-.4-.23c-.63-.65-1.03-.94-1.74-1.26,2.98-.92,4.6-1.99,5.67-3.72.82-1.34,1.15-2.79,1.24-5.35h-4.47v.76c0,1.24,0,2.37.06,3.49.02.23-.13.27-.36.29-.55.04-1.24.04-1.81,0-.27-.02-.4-.06-.38-.29.06-1.09.1-2.12.1-3.44v-.8h-.63c-1.13,0-2.81.06-3.46.11-.17,0-.23-.13-.25-.4-.08-.44-.1-1.18-.15-2.04.88.06,2.25.11,3.86.11h.63v-1.53c0-1.34-.04-1.87-.25-3.09,1.09.1,2.12.21,2.56.34.23.04.31.15.31.29,0,.13-.06.27-.13.44-.15.38-.15.59-.15,2.02v1.53h4.51l.02-2.06c.02-1.18-.04-2.14-.19-2.88.8.08,1.95.21,2.46.36.29.06.38.17.38.34,0,.08-.02.21-.08.38-.15.4-.17.94-.17,1.85v1.99h.73ZM252.88,142.73c.1-.04.19-.04.29.08.57.61,1.18,1.55,1.62,2.54.06.15.04.23-.13.32l-.86.44c-.17.08-.27.04-.36-.12-.46-1.05-.99-1.93-1.7-2.73l1.13-.52ZM254.85,141.83c.13-.06.19-.04.29.08.67.71,1.28,1.66,1.62,2.46.06.13.06.27-.13.36l-.84.42c-.19.08-.27.02-.34-.11-.42-.99-.97-1.89-1.7-2.73l1.09-.48Z" />
      <path
        d="M269.74,155.48c0,1.45.02,2.69.06,4.37.02.27-.08.36-.31.36-.67.04-1.43.04-2.1,0-.23,0-.31-.08-.29-.34.02-1.51.08-2.88.08-4.3v-4.89c-1.85,1.55-4.09,3.15-5.77,4.03-.1.06-.21.08-.31.08-.17,0-.29-.06-.44-.21-.48-.48-1.18-.9-1.81-1.24,2.9-1.49,4.68-2.71,6.61-4.3,1.66-1.36,3.17-2.83,4.47-4.39.71-.84.99-1.26,1.32-2.16.94.52,1.87,1.09,2.33,1.47.13.08.17.21.17.31,0,.17-.13.36-.29.46-.36.23-.69.54-1.26,1.15-.82.99-1.6,1.81-2.46,2.65v6.95Z" />
      <path
        d="M281.06,144.69c.08-.1.19-.17.29-.17.08,0,.17.04.27.11,1.07.57,2.81,1.85,4.01,2.98.13.13.19.21.19.29s-.04.17-.13.27c-.31.42-1.01,1.26-1.3,1.57-.1.11-.17.17-.25.17s-.17-.06-.27-.17c-1.26-1.3-2.77-2.5-4.28-3.42.46-.57,1.07-1.22,1.47-1.64ZM282.89,155.75c2.56-1.32,3.93-2.2,6.05-3.91,2.56-2.08,3.97-3.42,5.75-5.71.13,1.05.31,1.76.59,2.46.06.15.1.27.1.4,0,.19-.1.36-.34.63-1.11,1.3-2.92,2.98-4.83,4.45-1.74,1.36-3.51,2.54-6.34,4.12-.94.57-1.22.78-1.41.97-.13.13-.25.21-.38.21-.1,0-.23-.08-.36-.23-.52-.59-1.18-1.45-1.68-2.33,1.07-.29,1.72-.48,2.83-1.05Z" />
      <path
        d="M310.51,156.38c0,.23-.13.34-.4.38s-.9.1-1.49.1c-.19,0-.27-.12-.27-.34,0-.76,0-1.8.02-2.56-1.87.96-2.54,1.78-2.54,2.79,0,.88.71,1.45,2.92,1.45,1.93,0,3.61-.19,5.23-.42.19-.02.27.04.29.23.1.48.19,1.22.19,1.72.02.25-.06.4-.23.4-1.81.23-3.17.27-5.21.27-3.44,0-5.27-1.03-5.27-3.46,0-2.02,1.26-3.48,4.43-5.12-.06-1.07-.31-1.49-1.26-1.45-.99.04-1.93.67-2.9,1.51-.9.88-1.43,1.49-2.1,2.29-.1.13-.17.19-.25.19-.06,0-.15-.06-.23-.15-.29-.29-.92-.95-1.2-1.39-.06-.08-.08-.15-.08-.19,0-.08.04-.15.15-.23,1.62-1.45,3.17-3.11,4.39-5.21-.99.04-2.12.06-3.36.06-.19,0-.25-.1-.29-.34-.06-.34-.15-1.11-.21-1.74,1.6.08,3.23.06,4.83-.02.23-.57.42-1.07.63-1.81.08-.36.15-.71.15-1.28.92.15,1.85.38,2.39.59.17.06.25.21.25.36,0,.11-.04.23-.15.31-.13.11-.25.29-.36.5-.13.29-.23.57-.48,1.13,1.28-.15,2.56-.36,3.82-.65.23-.04.29.02.34.21.1.42.19.9.21,1.51.02.21-.06.29-.36.34-1.57.23-3.38.46-4.91.63-.48.78-.94,1.55-1.57,2.33l.02.04c.67-.44,1.53-.65,2.1-.65,1.39,0,2.35.63,2.56,2.27.82-.38,2.02-.92,3.09-1.47.4-.21,1.07-.59,1.6-1.13.69.73,1.24,1.47,1.47,1.85.13.19.17.34.17.46,0,.17-.1.25-.31.29-.44.06-.86.17-1.28.31-1.36.48-2.73.95-4.51,1.68v3.38Z" />
    </g>
    <g class="text-one">
      <path
        d="M154.58,193.11c-.21,0-.23-.02-.23-.23,0-.13.02-.78.04-2.08-1.68.36-3.76.74-5.46.99-.34.04-.65.15-.76.21-.08.04-.21.13-.34.13s-.23-.13-.29-.34c-.19-.57-.29-1.07-.42-1.68.73-.02,1.32-.06,1.97-.15.13,0,.25-.02.38-.04v-6.59c-1.43.02-1.97.04-2.08.04-.21,0-.23-.02-.23-.23v-1.32c0-.21.02-.23.23-.23.13,0,.73.04,2.56.04h13.48c1.83,0,2.44-.04,2.56-.04.19,0,.21.02.21.23v1.32c0,.21-.02.23-.21.23-.13,0-.73-.04-2.56-.04h-7.12v7.03c0,1.62.04,2.39.04,2.52,0,.21-.02.23-.23.23h-1.55ZM160.5,174.63c2.08,0,2.81-.04,2.94-.04.21,0,.23.02.23.25,0,.13-.04.59-.04,1.72v2.2c0,1.13.04,1.6.04,1.72,0,.23-.02.25-.23.25-.13,0-.86-.04-2.94-.04h-7.64c-2.08,0-2.79.04-2.94.04-.21,0-.23-.02-.23-.25,0-.13.04-.59.04-1.72v-2.2c0-1.13-.04-1.6-.04-1.72,0-.23.02-.25.23-.25.15,0,.86.04,2.94.04h7.64ZM154.39,184.43v-1.11h-2.96v1.11h2.96ZM154.39,186.87v-1.09h-2.96v1.09h2.96ZM154.39,188.21h-2.96v1.45c.99-.15,2.02-.29,2.96-.46v-.99ZM151.81,177.07h9.74v-.88h-9.74v.88ZM161.55,178.33h-9.74v.9h9.74v-.9ZM162.98,184.56c.13,0,.27-.04.38-.08s.21-.08.31-.08c.15,0,.25.04.73.48.5.48.57.63.57.78,0,.17-.06.27-.21.38-.17.11-.31.36-.57.88-.46.92-1.01,1.78-1.7,2.54,1.03.65,2.27,1.11,3.72,1.43-.23.34-.52.8-.73,1.34-.21.57-.25.57-.8.4-1.41-.44-2.58-1.05-3.59-1.81-.92.71-1.97,1.34-3.17,1.85-.21.08-.34.15-.42.15-.15,0-.23-.15-.38-.48-.23-.5-.48-.9-.78-1.2,1.34-.4,2.46-.92,3.38-1.57-.82-.92-1.51-2.04-2.06-3.36-.34.02-.48.02-.55.02-.21,0-.23-.02-.23-.25v-1.22c0-.21.02-.23.23-.23.13,0,.65.04,2.31.04h3.55ZM159.58,186.18c.4.84.9,1.58,1.53,2.18.59-.63,1.07-1.36,1.45-2.18h-2.98Z" />
      <path
        d="M175.04,188.55c.44.88,1.03,1.34,1.89,1.7.78.25,2.06.38,3.88.38,2.69,0,5.92-.15,9.07-.44-.27.44-.44.97-.52,1.53q-.1.67-.78.69c-2.69.17-5.25.21-7.45.21s-3.88-.15-4.89-.57c-.97-.38-1.64-.92-2.2-1.83-.59.63-1.18,1.15-1.91,1.79-.23.19-.38.31-.48.44-.08.1-.13.15-.27.15-.1,0-.21-.08-.29-.25-.29-.55-.57-1.2-.86-1.93.52-.25.82-.42,1.22-.69.59-.38,1.05-.8,1.57-1.32v-4.66h-.86c-1.09,0-1.36.04-1.47.04-.23,0-.25-.02-.25-.25v-1.6c0-.21.02-.23.25-.23.1,0,.38.04,1.47.04h1.2c1.09,0,1.41-.04,1.51-.04.21,0,.23.02.23.23,0,.12-.04.73-.04,2.04v4.58ZM172.08,174.55c.13-.08.19-.11.25-.11s.13.02.21.11c.92.86,1.85,1.91,2.6,3.06.13.19.13.23-.13.42l-1.11.95c-.13.11-.21.17-.27.17s-.1-.04-.17-.15c-.78-1.28-1.68-2.39-2.58-3.3-.17-.15-.15-.21.08-.36l1.11-.8ZM184.18,181.68c.84,0,1.39-.04,1.51-.04.23,0,.25.02.25.23v1.05c0,.21-.02.23-.25.23-.13,0-.67-.04-1.51-.04h-.84v1.13c1.2,0,1.53-.02,1.68-.02.21,0,.23.02.23.23,0,.12-.04.44-.04,1.32v2.1c.23.02.42.02.63.02.48,0,.59-.11.59-.59v-7.12h-7.83v6.68c0,1.76.04,2.5.04,2.62,0,.23-.02.25-.23.25h-1.62c-.21,0-.23-.02-.23-.25,0-.13.04-.8.04-2.58v-5.67c0-1.6-.04-2.31-.04-2.46,0-.21.02-.23.23-.23.15,0,.8.04,2.65.04-.21-.52-.48-1.07-.73-1.51-1.83,0-2.5.04-2.6.04-.23,0-.25-.02-.25-.23v-1.3c0-.21.02-.23.25-.23.13,0,.84.04,2.94.04h2.29c0-.61-.04-1.11-.13-1.6.8.02,1.51.06,2.18.15.21.02.34.12.34.23,0,.17-.06.23-.15.36-.08.15-.1.31-.1.71v.15h2.65c2.04,0,2.75-.04,2.88-.04.21,0,.23.02.23.23v1.3c0,.21-.02.23-.23.23-.13,0-.82-.04-2.75-.04l-.06.15c-.15.36-.31.8-.57,1.36,1.78,0,2.48-.04,2.6-.04.21,0,.23.02.23.23,0,.13-.04.99-.04,2.65v3.02c0,1.28.06,2.54.06,3.21,0,.76-.13,1.26-.57,1.62-.42.34-1.11.48-2.31.48-.5,0-.55-.02-.61-.48l-.13-.67c-.23-.02-.63-.04-1.51-.04h-1.72c-1.15,0-1.51.04-1.64.04-.23,0-.25-.02-.25-.23,0-.13.04-.44.04-1.32v-1.28c0-.88-.04-1.2-.04-1.32,0-.21.02-.23.25-.23.13,0,.48.02,1.62.02v-1.13h-.59c-1.03,0-1.6.04-1.72.04-.21,0-.23-.02-.23-.23v-1.05c0-.21.02-.23.23-.23.13,0,.69.04,1.72.04h.59c-.02-.44-.04-.78-.1-1.22.63.02,1.22.06,1.76.13.19.02.27.08.27.21,0,.11-.06.19-.1.29-.06.15-.08.27-.08.59h.84ZM180.78,177.09c.23.46.48.99.67,1.51h2.14c.25-.55.46-1.09.61-1.51h-3.42ZM183.51,185.61h-2.06v1.57h2.06v-1.57Z" />
      <path
        d="M203.03,177.49c.19-.06.27-.06.31.17.1.52.17,1.15.19,1.7,0,.19-.08.23-.25.25-1.13.23-2.16.38-3.46.57-1.34,3.55-2.58,6.45-4.09,9.01-.08.15-.15.21-.23.21-.06,0-.15-.04-.25-.11-.48-.29-1.09-.73-1.45-1.07-.1-.08-.15-.15-.15-.23,0-.06.02-.15.1-.25,1.57-2.6,2.69-4.81,3.63-7.33-.8.04-1.45.04-2.1.04-.46,0-.63,0-1.15-.02-.21,0-.25-.06-.29-.34-.1-.4-.17-1.09-.21-1.79.86.06,1.34.08,1.95.08.82,0,1.45-.02,2.41-.11.25-.88.4-1.6.55-2.35.13-.73.13-1.05.13-1.7.9.13,1.81.25,2.46.44.21.04.34.17.34.32,0,.17-.06.27-.19.4-.13.17-.21.36-.34.78-.15.5-.31,1.16-.5,1.78.82-.08,1.78-.27,2.6-.46ZM203.62,183.11c-.02-.57-.04-.9-.17-1.49,1.03.1,1.57.19,2.29.4.19.04.29.15.29.34,0,.04-.04.19-.13.44s-.1.5-.08.86c0,1.24.06,2.14.23,3.57,1.51.61,2.54,1.07,3.78,1.95.21.15.23.23.13.44-.31.65-.61,1.18-.97,1.7-.06.11-.13.15-.19.15s-.13-.04-.21-.12c-.92-.8-1.7-1.26-2.56-1.76,0,2.1-1.51,3.06-3.91,3.06s-3.86-1.18-3.86-2.98,1.51-3.07,3.88-3.07c.4,0,.99.02,1.66.13-.13-1.34-.17-2.62-.19-3.61ZM202.13,188.4c-1.05,0-1.87.42-1.87,1.22,0,.67.59,1.01,1.78,1.01,1.13,0,1.83-.61,1.83-1.49,0-.19,0-.29-.02-.42-.5-.17-1.07-.31-1.72-.31ZM206.03,178.3c.13-.21.23-.23.44-.15,1.24.34,2.9,1.18,4.12,1.97.13.08.19.15.19.23,0,.06-.02.15-.08.25-.21.46-.59,1.11-.88,1.55-.06.11-.13.15-.19.15s-.1-.02-.19-.08c-1.24-.84-2.75-1.76-4.35-2.29.36-.63.67-1.26.94-1.64Z" />
      <path
        d="M227.38,179.98h-7.33c-1.43,0-2.41.04-3.15.13-.23,0-.31-.1-.31-.36-.06-.57-.1-1.55-.1-2.25,1.26.13,1.99.15,3.51.15h6.24c1.09,0,2.2-.04,3.32-.08.34,0,.44.08.42.36,0,1.11-.04,2.2-.04,3.32v5.02c0,1.53.06,3.21.08,3.8,0,.21-.08.27-.38.29-.59.04-1.26.04-1.85,0-.34-.02-.4-.04-.4-.36v-.84h-7.22c-1.32,0-2.44.06-3.44.08-.19,0-.27-.08-.29-.32-.06-.55-.1-1.3-.1-2.18.99.06,2.2.1,3.86.1h7.2v-6.87Z" />
      <path
        d="M247.21,176.81c.76,0,1.13-.02,1.45-.19.08-.06.15-.08.23-.08.13,0,.23.08.36.17.48.38.97.92,1.36,1.47.06.1.1.19.1.27,0,.13-.08.27-.27.42-.27.23-.55.55-.78.92-.86,1.47-1.68,2.65-2.69,3.93,2.02,1.49,3.88,3.13,5.82,5.08.1.11.17.21.17.29s-.04.19-.15.32c-.4.48-.88.99-1.41,1.43-.08.08-.17.12-.25.12-.1,0-.19-.06-.29-.17-1.76-2.06-3.57-3.72-5.46-5.21-2.37,2.48-4.77,4.26-7.05,5.54-.19.08-.34.17-.48.17-.13,0-.25-.06-.36-.19-.46-.57-1.07-.99-1.76-1.36,3.28-1.66,5.23-3.15,7.39-5.35,1.51-1.58,2.67-3.07,3.95-5.27l-5.42.02c-1.09,0-2.18.04-3.32.13-.17.02-.23-.13-.27-.36-.1-.44-.19-1.45-.19-2.18,1.13.08,2.18.08,3.55.08h5.77Z" />
      <path
        d="M263.24,180.61c2.56.8,4.6,1.62,6.68,2.86.23.13.34.27.23.55-.27.69-.61,1.34-.9,1.83-.08.15-.17.23-.27.23-.06,0-.15-.02-.23-.1-1.93-1.24-3.82-2.16-5.52-2.69v4.64c0,1.36.04,2.6.08,4.12.02.25-.08.32-.38.32-.61.04-1.26.04-1.87,0-.29,0-.4-.06-.4-.32.06-1.55.08-2.79.08-4.14v-10.33c0-1.58-.06-2.27-.21-3.11.97.06,2.02.17,2.62.34.29.06.4.19.4.36,0,.13-.06.29-.17.48-.15.27-.15.8-.15,1.97v3Z" />
      <path
        d="M284.55,178.81c-2.56.48-4.81.92-7.05,1.39-.8.19-1.01.23-1.32.34-.15.06-.29.17-.46.17-.15,0-.31-.13-.4-.32-.27-.57-.5-1.3-.78-2.27,1.07-.04,1.7-.12,3.34-.36,2.58-.38,7.2-1.07,12.62-1.78.31-.04.42.08.44.23.1.48.21,1.26.23,1.85,0,.25-.13.31-.4.31-.99.06-1.66.17-2.56.46-3.57,1.22-5.35,3.67-5.35,6.19,0,2.71,1.93,4.18,5.58,4.41.34,0,.46.08.46.32,0,.54-.08,1.28-.23,1.8-.06.32-.15.44-.4.44-3.7,0-7.75-2.12-7.75-6.49,0-2.98,1.49-5,4.03-6.66v-.04ZM288.71,181.08c.1-.08.19-.06.31.04.65.5,1.41,1.34,1.99,2.25.08.12.08.23-.06.34l-.88.65c-.15.11-.25.08-.36-.06-.63-.97-1.3-1.76-2.12-2.44l1.11-.78ZM290.58,179.71c.13-.08.19-.06.31.04.78.59,1.53,1.43,1.99,2.16.08.13.1.25-.06.38l-.84.65c-.17.12-.27.06-.36-.06-.57-.9-1.24-1.7-2.1-2.42l1.05-.76Z" />
      <path
        d="M302.8,190.46c0,1.68-1.36,3.02-3.04,3.02s-3.04-1.34-3.04-3.02,1.36-3.02,3.04-3.02,3.04,1.34,3.04,3.02ZM298.01,190.46c0,.99.76,1.74,1.74,1.74s1.74-.76,1.74-1.74-.76-1.74-1.74-1.74-1.74.76-1.74,1.74Z" />
    </g>
  </g>
  <g class="text_box-big">
    <g class="text-one">
      <path d="M123.71,392.36h3.58v8.13h9.41v-8.13h3.58v20.13h-3.58v-8.93h-9.41v8.93h-3.58v-20.13Z" />
      <path
        d="M144.99,394.21c0-.55.2-1.03.61-1.44s.92-.61,1.55-.61,1.15.19,1.58.58c.43.39.64.88.64,1.46s-.21,1.08-.64,1.46c-.43.39-.95.58-1.58.58s-1.14-.2-1.55-.61c-.41-.41-.61-.89-.61-1.44ZM145.47,398.84h3.41v13.65h-3.41v-13.65Z" />
      <path
        d="M167.76,398.84v12.43c0,1.23-.15,2.35-.46,3.34-.3,1-.77,1.84-1.41,2.53-.64.69-1.44,1.23-2.4,1.61-.97.38-2.11.57-3.44.57-.55,0-1.13-.05-1.75-.14-.62-.1-1.22-.24-1.82-.43-.6-.19-1.17-.43-1.72-.71-.55-.28-1.04-.61-1.48-.97l1.96-2.65c.66.63,1.41,1.1,2.25,1.44.83.33,1.68.5,2.53.5s1.5-.12,2.06-.36c.56-.24,1-.57,1.34-.98.33-.42.57-.91.71-1.48.14-.57.21-1.2.21-1.88v-1h-.06c-.49.67-1.12,1.18-1.89,1.54-.77.35-1.63.53-2.57.53-1.02,0-1.95-.19-2.79-.57-.83-.38-1.54-.89-2.12-1.54-.58-.64-1.03-1.4-1.35-2.26-.32-.86-.48-1.78-.48-2.74s.16-1.91.47-2.79c.31-.87.76-1.63,1.34-2.27.58-.64,1.28-1.16,2.1-1.54.82-.38,1.75-.57,2.77-.57.97,0,1.87.2,2.7.6.83.4,1.5,1.01,1.99,1.85h.06v-2.05h3.24ZM160.48,401.23c-.63,0-1.18.11-1.66.34s-.89.53-1.22.92c-.33.39-.59.85-.77,1.38s-.27,1.1-.27,1.7c0,.55.09,1.08.27,1.59s.44.97.77,1.38c.33.41.74.73,1.22.98.48.25,1.03.37,1.64.37s1.19-.12,1.69-.35c.5-.24.93-.55,1.28-.95.35-.4.62-.85.81-1.38.19-.52.28-1.06.28-1.63s-.09-1.14-.28-1.67c-.19-.53-.46-.99-.81-1.39-.35-.4-.77-.71-1.27-.94s-1.05-.34-1.68-.34Z" />
      <path
        d="M180.3,398.44c.89,0,1.65.16,2.29.47.63.31,1.16.73,1.56,1.24.41.51.71,1.1.9,1.76.19.66.28,1.35.28,2.05v8.53h-3.41v-7.51c0-.4-.03-.81-.08-1.24-.06-.43-.18-.81-.36-1.17-.18-.35-.44-.64-.77-.87-.33-.23-.77-.34-1.32-.34s-1.02.1-1.42.31c-.4.21-.73.49-1,.84-.27.35-.46.74-.6,1.18s-.2.88-.2,1.34v7.45h-3.41v-21.5h3.41v9.75h.06c.13-.28.33-.56.58-.84.26-.27.55-.52.9-.74.34-.22.73-.39,1.17-.53.44-.13.91-.2,1.42-.2Z" />
      <path d="M196.09,403.75h-6.82v-2.9h6.82v2.9Z" />
      <path
        d="M200.3,392.36h7.14c1.31,0,2.63.17,3.95.51,1.33.34,2.52.91,3.58,1.69,1.06.79,1.92,1.82,2.59,3.1.66,1.28,1,2.87,1,4.76,0,1.76-.33,3.28-1,4.55-.66,1.27-1.53,2.31-2.59,3.13-1.06.82-2.26,1.42-3.58,1.81-1.33.39-2.65.58-3.95.58h-7.14v-20.13ZM206.86,409.36c.93,0,1.86-.11,2.79-.33.93-.22,1.77-.59,2.52-1.11.75-.52,1.36-1.23,1.83-2.12.47-.89.71-2.02.71-3.38,0-1.44-.24-2.62-.71-3.53-.47-.91-1.09-1.62-1.83-2.13s-1.59-.86-2.52-1.05c-.93-.19-1.86-.28-2.79-.28h-2.99v13.93h2.99Z" />
      <path
        d="M235.73,405.84v.46c0,.15,0,.3-.03.45h-10.38c.04.49.17.94.38,1.35.22.41.51.76.87,1.05.36.29.77.53,1.22.7.46.17.93.26,1.42.26.85,0,1.57-.16,2.16-.47.59-.31,1.07-.74,1.45-1.29l2.27,1.82c-1.35,1.82-3.3,2.73-5.86,2.73-1.06,0-2.04-.17-2.93-.5-.89-.33-1.66-.8-2.32-1.41-.65-.61-1.17-1.35-1.54-2.23-.37-.88-.55-1.88-.55-3s.18-2.1.55-3,.88-1.67,1.52-2.3c.64-.63,1.41-1.13,2.29-1.48.88-.35,1.83-.53,2.86-.53.95,0,1.82.16,2.63.47.81.31,1.5.78,2.09,1.39.59.62,1.05,1.38,1.38,2.3.33.92.5,2,.5,3.23ZM232.32,404.3c0-.44-.06-.85-.19-1.25-.12-.4-.32-.75-.58-1.05-.27-.3-.6-.54-1.01-.73-.41-.18-.89-.27-1.44-.27-1.02,0-1.89.31-2.6.92s-1.1,1.41-1.18,2.37h7Z" />
      <path
        d="M247.36,402.48c-.3-.4-.72-.74-1.25-1.04-.53-.29-1.11-.44-1.73-.44-.55,0-1.05.11-1.51.34-.46.23-.68.61-.68,1.14s.25.91.75,1.12c.5.22,1.24.44,2.2.67.51.11,1.03.27,1.55.46.52.19,1,.44,1.42.75.43.31.77.7,1.04,1.17.27.46.4,1.03.4,1.69,0,.83-.16,1.54-.47,2.12-.31.58-.73,1.05-1.25,1.41-.52.36-1.13.62-1.82.78-.69.16-1.41.24-2.15.24-1.06,0-2.1-.19-3.1-.58-1.01-.39-1.84-.94-2.5-1.66l2.25-2.1c.38.49.87.9,1.48,1.22.61.32,1.28.48,2.02.48.25,0,.5-.03.75-.09.26-.06.49-.15.71-.27.22-.12.39-.29.53-.5.13-.21.2-.46.2-.77,0-.57-.26-.98-.78-1.22-.52-.25-1.3-.49-2.35-.74-.51-.11-1.01-.26-1.49-.44s-.92-.42-1.29-.71c-.38-.29-.68-.66-.91-1.09s-.34-.98-.34-1.62c0-.76.16-1.41.47-1.96.31-.55.73-1,1.24-1.35.51-.35,1.09-.61,1.73-.78.64-.17,1.31-.26,1.99-.26.99,0,1.95.17,2.89.51.94.34,1.68.86,2.23,1.56l-2.22,1.96Z" />
      <path
        d="M252.93,394.21c0-.55.2-1.03.61-1.44s.92-.61,1.55-.61,1.15.19,1.58.58c.43.39.64.88.64,1.46s-.21,1.08-.64,1.46c-.43.39-.95.58-1.58.58s-1.14-.2-1.55-.61c-.41-.41-.61-.89-.61-1.44ZM253.42,398.84h3.41v13.65h-3.41v-13.65Z" />
      <path
        d="M275.71,398.84v12.43c0,1.23-.15,2.35-.46,3.34-.3,1-.77,1.84-1.41,2.53-.64.69-1.44,1.23-2.4,1.61-.97.38-2.11.57-3.44.57-.55,0-1.13-.05-1.75-.14-.62-.1-1.22-.24-1.82-.43-.6-.19-1.17-.43-1.72-.71-.55-.28-1.04-.61-1.48-.97l1.96-2.65c.66.63,1.41,1.1,2.25,1.44.83.33,1.68.5,2.53.5s1.5-.12,2.06-.36c.56-.24,1-.57,1.34-.98.33-.42.57-.91.71-1.48.14-.57.21-1.2.21-1.88v-1h-.06c-.49.67-1.12,1.18-1.89,1.54-.77.35-1.63.53-2.57.53-1.02,0-1.95-.19-2.79-.57-.83-.38-1.54-.89-2.12-1.54-.58-.64-1.03-1.4-1.35-2.26-.32-.86-.48-1.78-.48-2.74s.16-1.91.47-2.79c.31-.87.76-1.63,1.34-2.27.58-.64,1.28-1.16,2.1-1.54.82-.38,1.75-.57,2.77-.57.97,0,1.87.2,2.7.6.83.4,1.5,1.01,1.99,1.85h.06v-2.05h3.24ZM268.43,401.23c-.63,0-1.18.11-1.66.34s-.89.53-1.22.92c-.33.39-.59.85-.77,1.38s-.27,1.1-.27,1.7c0,.55.09,1.08.27,1.59s.44.97.77,1.38c.33.41.74.73,1.22.98.48.25,1.03.37,1.64.37s1.19-.12,1.69-.35c.5-.24.93-.55,1.28-.95.35-.4.62-.85.81-1.38.19-.52.28-1.06.28-1.63s-.09-1.14-.28-1.67c-.19-.53-.46-.99-.81-1.39-.35-.4-.77-.71-1.27-.94s-1.05-.34-1.68-.34Z" />
      <path
        d="M280.66,398.84h3.24v2.19h.06c.3-.68.83-1.28,1.58-1.81.75-.52,1.63-.78,2.66-.78.89,0,1.65.16,2.29.47.63.31,1.16.73,1.56,1.24.41.51.71,1.1.9,1.76.19.66.28,1.35.28,2.05v8.53h-3.41v-7.56c0-.4-.03-.81-.09-1.25-.06-.44-.18-.83-.37-1.18-.19-.35-.45-.64-.78-.87s-.77-.34-1.32-.34-1.02.11-1.42.33c-.4.22-.73.5-.98.84s-.45.73-.58,1.18c-.13.45-.2.9-.2,1.35v7.51h-3.41v-13.65Z" />
    </g>
    <g class="text-one">
      <path d="M123.71,432.65h3.58v8.13h9.41v-8.13h3.58v20.13h-3.58v-8.93h-9.41v8.93h-3.58v-20.13Z" />
      <path
        d="M144.99,434.49c0-.55.2-1.03.61-1.44s.92-.61,1.55-.61,1.15.19,1.58.58c.43.39.64.88.64,1.46s-.21,1.08-.64,1.46c-.43.39-.95.58-1.58.58s-1.14-.2-1.55-.61c-.41-.41-.61-.89-.61-1.44ZM145.47,439.13h3.41v13.65h-3.41v-13.65Z" />
      <path
        d="M167.76,439.13v12.43c0,1.23-.15,2.35-.46,3.34-.3,1-.77,1.84-1.41,2.53-.64.69-1.44,1.23-2.4,1.61-.97.38-2.11.57-3.44.57-.55,0-1.13-.05-1.75-.14-.62-.1-1.22-.24-1.82-.43-.6-.19-1.17-.43-1.72-.71-.55-.28-1.04-.61-1.48-.97l1.96-2.65c.66.63,1.41,1.1,2.25,1.44.83.33,1.68.5,2.53.5s1.5-.12,2.06-.36c.56-.24,1-.57,1.34-.98.33-.42.57-.91.71-1.48.14-.57.21-1.2.21-1.88v-1h-.06c-.49.67-1.12,1.18-1.89,1.54-.77.35-1.63.53-2.57.53-1.02,0-1.95-.19-2.79-.57-.83-.38-1.54-.89-2.12-1.54-.58-.64-1.03-1.4-1.35-2.26-.32-.86-.48-1.78-.48-2.74s.16-1.91.47-2.79c.31-.87.76-1.63,1.34-2.27.58-.64,1.28-1.16,2.1-1.54.82-.38,1.75-.57,2.77-.57.97,0,1.87.2,2.7.6.83.4,1.5,1.01,1.99,1.85h.06v-2.05h3.24ZM160.48,441.52c-.63,0-1.18.11-1.66.34s-.89.53-1.22.92c-.33.39-.59.85-.77,1.38s-.27,1.1-.27,1.7c0,.55.09,1.08.27,1.59s.44.97.77,1.38c.33.41.74.73,1.22.98.48.25,1.03.37,1.64.37s1.19-.12,1.69-.35c.5-.24.93-.55,1.28-.95.35-.4.62-.85.81-1.38.19-.52.28-1.06.28-1.63s-.09-1.14-.28-1.67c-.19-.53-.46-.99-.81-1.39-.35-.4-.77-.71-1.27-.94s-1.05-.34-1.68-.34Z" />
      <path
        d="M180.3,438.73c.89,0,1.65.16,2.29.47.63.31,1.16.73,1.56,1.24.41.51.71,1.1.9,1.76.19.66.28,1.35.28,2.05v8.53h-3.41v-7.51c0-.4-.03-.81-.08-1.24-.06-.43-.18-.81-.36-1.17-.18-.35-.44-.64-.77-.87-.33-.23-.77-.34-1.32-.34s-1.02.1-1.42.31c-.4.21-.73.49-1,.84-.27.35-.46.74-.6,1.18s-.2.88-.2,1.34v7.45h-3.41v-21.5h3.41v9.75h.06c.13-.28.33-.56.58-.84.26-.27.55-.52.9-.74.34-.22.73-.39,1.17-.53.44-.13.91-.2,1.42-.2Z" />
      <path d="M196.09,444.03h-6.82v-2.9h6.82v2.9Z" />
      <path
        d="M214.83,437.37c-.53-.72-1.22-1.25-2.08-1.58-.85-.33-1.69-.5-2.5-.5-1.04,0-1.99.19-2.84.57-.85.38-1.59.9-2.2,1.56-.62.66-1.09,1.44-1.42,2.33-.33.89-.5,1.86-.5,2.9,0,1.1.16,2.1.48,3.01.32.91.78,1.69,1.38,2.35.6.65,1.31,1.16,2.15,1.52.83.36,1.77.54,2.82.54s2.04-.21,2.87-.64c.83-.43,1.51-.99,2.02-1.69l2.87,2.02c-.89,1.12-1.98,1.99-3.27,2.6-1.29.62-2.8.92-4.52.92-1.57,0-3.02-.26-4.34-.78-1.32-.52-2.45-1.25-3.4-2.19-.95-.94-1.69-2.06-2.22-3.36-.53-1.3-.8-2.73-.8-4.31s.28-3.07.84-4.37c.56-1.3,1.33-2.4,2.3-3.31.98-.91,2.13-1.61,3.46-2.1,1.33-.49,2.77-.74,4.32-.74.64,0,1.32.06,2.02.19.7.12,1.37.31,2.02.57.64.26,1.25.57,1.82.95.57.38,1.05.83,1.45,1.36l-2.73,2.16Z" />
      <path
        d="M219.63,445.9c0-1.08.19-2.06.58-2.94.39-.88.91-1.64,1.58-2.26.66-.63,1.45-1.11,2.36-1.45.91-.34,1.88-.51,2.9-.51s1.99.17,2.9.51c.91.34,1.7.82,2.36,1.45.66.63,1.19,1.38,1.58,2.26.39.88.58,1.86.58,2.94s-.19,2.07-.58,2.96-.91,1.65-1.58,2.29c-.66.64-1.45,1.13-2.36,1.49s-1.88.54-2.9.54-1.99-.18-2.9-.54-1.7-.86-2.36-1.49c-.66-.63-1.19-1.4-1.58-2.29-.39-.89-.58-1.88-.58-2.96ZM223.1,445.9c0,.53.08,1.06.24,1.59.16.53.4,1.01.73,1.42.32.42.73.76,1.22,1.02.49.27,1.08.4,1.76.4s1.27-.13,1.76-.4c.49-.27.9-.61,1.22-1.02.32-.42.56-.89.73-1.42.16-.53.24-1.06.24-1.59s-.08-1.06-.24-1.58c-.16-.52-.4-.99-.73-1.41-.32-.42-.73-.75-1.22-1.01s-1.08-.38-1.76-.38-1.27.13-1.76.38-.9.59-1.22,1.01c-.32.42-.56.89-.73,1.41-.16.52-.24,1.05-.24,1.58Z" />
      <path
        d="M246.11,442.77c-.3-.4-.72-.74-1.25-1.04-.53-.29-1.11-.44-1.73-.44-.55,0-1.05.11-1.51.34-.46.23-.68.61-.68,1.14s.25.91.75,1.12c.5.22,1.24.44,2.2.67.51.11,1.03.27,1.55.46.52.19,1,.44,1.42.75.43.31.77.7,1.04,1.17.27.46.4,1.03.4,1.69,0,.83-.16,1.54-.47,2.12-.31.58-.73,1.05-1.25,1.41-.52.36-1.13.62-1.82.78-.69.16-1.41.24-2.15.24-1.06,0-2.1-.19-3.1-.58-1.01-.39-1.84-.94-2.5-1.66l2.25-2.1c.38.49.87.9,1.48,1.22.61.32,1.28.48,2.02.48.25,0,.5-.03.75-.09.26-.06.49-.15.71-.27.22-.12.39-.29.53-.5.13-.21.2-.46.2-.77,0-.57-.26-.98-.78-1.22-.52-.25-1.3-.49-2.35-.74-.51-.11-1.01-.26-1.49-.44s-.92-.42-1.29-.71c-.38-.29-.68-.66-.91-1.09s-.34-.98-.34-1.62c0-.76.16-1.41.47-1.96.31-.55.73-1,1.24-1.35.51-.35,1.09-.61,1.73-.78.64-.17,1.31-.26,1.99-.26.99,0,1.95.17,2.89.51.94.34,1.68.86,2.23,1.56l-2.22,1.96Z" />
      <path
        d="M255.38,439.13v1.91h.09c.17-.27.39-.54.67-.81s.61-.52,1.01-.74c.4-.22.85-.4,1.35-.54s1.07-.21,1.69-.21c.97,0,1.86.19,2.67.55.81.37,1.52.88,2.1,1.52.59.64,1.04,1.4,1.37,2.27.32.87.48,1.81.48,2.82s-.16,1.95-.47,2.83c-.31.88-.76,1.65-1.34,2.3-.58.65-1.28,1.18-2.1,1.56-.82.39-1.76.58-2.8.58-.97,0-1.85-.2-2.66-.6-.81-.4-1.43-.94-1.86-1.62h-.06v8.65h-3.41v-20.48h3.27ZM263.34,445.9c0-.53-.08-1.06-.24-1.58-.16-.52-.4-.99-.73-1.41-.32-.42-.73-.75-1.22-1.01-.49-.26-1.07-.38-1.73-.38-.63,0-1.19.13-1.68.4-.49.27-.92.61-1.27,1.02-.35.42-.62.89-.8,1.42-.18.53-.27,1.06-.27,1.59s.09,1.06.27,1.58c.18.52.44.99.8,1.41.35.42.77.75,1.27,1.01.49.26,1.05.38,1.68.38.66,0,1.24-.13,1.73-.4.49-.27.9-.61,1.22-1.02.32-.42.56-.89.73-1.42.16-.53.24-1.06.24-1.59Z" />
      <path
        d="M279.44,451.04h-.09c-.34.61-.89,1.1-1.65,1.49s-1.62.58-2.59.58c-.55,0-1.12-.07-1.72-.21s-1.15-.38-1.65-.71c-.5-.33-.92-.77-1.25-1.31s-.5-1.21-.5-2c0-1.02.29-1.84.87-2.45.58-.61,1.32-1.07,2.23-1.39.91-.32,1.92-.54,3.03-.64,1.11-.1,2.19-.16,3.26-.16v-.34c0-.85-.31-1.48-.92-1.89-.62-.41-1.35-.61-2.2-.61-.72,0-1.41.15-2.08.46-.66.3-1.21.67-1.65,1.11l-1.76-2.08c.78-.72,1.67-1.26,2.69-1.62,1.01-.36,2.04-.54,3.09-.54,1.21,0,2.21.17,3,.51.79.34,1.41.79,1.86,1.34s.77,1.17.95,1.85c.18.68.27,1.37.27,2.05v8.3h-3.19v-1.73ZM279.38,446.55h-.77c-.55,0-1.13.02-1.73.07s-1.17.15-1.68.31c-.51.16-.94.39-1.28.68-.34.29-.51.7-.51,1.21,0,.32.07.59.21.81.14.22.33.39.55.53.23.13.48.23.77.28.28.06.57.09.85.09,1.18,0,2.07-.31,2.67-.94.61-.63.91-1.48.91-2.56v-.48Z" />
    </g>
    <g class="text-one">
      <path d="M123.71,472.93h3.58v8.13h9.41v-8.13h3.58v20.13h-3.58v-8.93h-9.41v8.93h-3.58v-20.13Z" />
      <path
        d="M144.62,486.18c0-1.08.19-2.06.58-2.94.39-.88.91-1.64,1.58-2.26.66-.63,1.45-1.11,2.36-1.45.91-.34,1.88-.51,2.9-.51s1.99.17,2.9.51c.91.34,1.7.82,2.36,1.45.66.63,1.19,1.38,1.58,2.26.39.88.58,1.86.58,2.94s-.19,2.07-.58,2.96-.91,1.65-1.58,2.29c-.66.64-1.45,1.13-2.36,1.49s-1.88.54-2.9.54-1.99-.18-2.9-.54-1.7-.86-2.36-1.49c-.66-.63-1.19-1.4-1.58-2.29-.39-.89-.58-1.88-.58-2.96ZM148.08,486.18c0,.53.08,1.06.24,1.59.16.53.4,1.01.73,1.42.32.42.73.76,1.22,1.02.49.27,1.08.4,1.76.4s1.27-.13,1.76-.4c.49-.27.9-.61,1.22-1.02.32-.42.56-.89.73-1.42.16-.53.24-1.06.24-1.59s-.08-1.06-.24-1.58c-.16-.52-.4-.99-.73-1.41-.32-.42-.73-.75-1.22-1.01s-1.08-.38-1.76-.38-1.27.13-1.76.38-.9.59-1.22,1.01c-.32.42-.56.89-.73,1.41-.16.52-.24,1.05-.24,1.58Z" />
      <path
        d="M176.07,493.07h-3.24v-2.19h-.06c-.3.68-.83,1.28-1.58,1.81-.75.52-1.63.78-2.66.78-.89,0-1.65-.16-2.29-.47-.64-.31-1.16-.73-1.56-1.24s-.71-1.1-.9-1.76c-.19-.66-.28-1.35-.28-2.05v-8.53h3.41v7.56c0,.4.03.82.09,1.25.06.44.18.83.37,1.18.19.35.45.64.78.87.33.23.77.34,1.32.34s1-.11,1.41-.33c.41-.22.74-.5,1-.84.26-.34.45-.73.58-1.18.13-.44.2-.9.2-1.35v-7.51h3.41v13.65Z" />
      <path
        d="M188.49,483.06c-.3-.4-.72-.74-1.25-1.04-.53-.29-1.11-.44-1.73-.44-.55,0-1.05.11-1.51.34-.46.23-.68.61-.68,1.14s.25.91.75,1.12c.5.22,1.24.44,2.2.67.51.11,1.03.27,1.55.46.52.19,1,.44,1.42.75.43.31.77.7,1.04,1.17.27.46.4,1.03.4,1.69,0,.83-.16,1.54-.47,2.12-.31.58-.73,1.05-1.25,1.41-.52.36-1.13.62-1.82.78-.69.16-1.41.24-2.15.24-1.06,0-2.1-.19-3.1-.58-1.01-.39-1.84-.94-2.5-1.66l2.25-2.1c.38.49.87.9,1.48,1.22.61.32,1.28.48,2.02.48.25,0,.5-.03.75-.09.26-.06.49-.15.71-.27.22-.12.39-.29.53-.5.13-.21.2-.46.2-.77,0-.57-.26-.98-.78-1.22-.52-.25-1.3-.49-2.35-.74-.51-.11-1.01-.26-1.49-.44s-.92-.42-1.29-.71c-.38-.29-.68-.66-.91-1.09s-.34-.98-.34-1.62c0-.76.16-1.41.47-1.96.31-.55.73-1,1.24-1.35.51-.35,1.09-.61,1.73-.78.64-.17,1.31-.26,1.99-.26.99,0,1.95.17,2.89.51.94.34,1.68.86,2.23,1.56l-2.22,1.96Z" />
      <path
        d="M207.52,486.41v.46c0,.15,0,.3-.03.45h-10.38c.04.49.17.94.38,1.35.22.41.51.76.87,1.05.36.29.77.53,1.22.7.46.17.93.26,1.42.26.85,0,1.57-.16,2.16-.47.59-.31,1.07-.74,1.45-1.29l2.27,1.82c-1.35,1.82-3.3,2.73-5.86,2.73-1.06,0-2.04-.17-2.93-.5-.89-.33-1.66-.8-2.32-1.41-.65-.61-1.17-1.35-1.54-2.23-.37-.88-.55-1.88-.55-3s.18-2.1.55-3,.88-1.67,1.52-2.3c.64-.63,1.41-1.13,2.29-1.48.88-.35,1.83-.53,2.86-.53.95,0,1.82.16,2.63.47.81.31,1.5.78,2.09,1.39.59.62,1.05,1.38,1.38,2.3.33.92.5,2,.5,3.23ZM204.11,484.88c0-.44-.06-.85-.19-1.25-.12-.4-.32-.75-.58-1.05-.27-.3-.6-.54-1.01-.73-.41-.18-.89-.27-1.44-.27-1.02,0-1.89.31-2.6.92s-1.1,1.41-1.18,2.37h7Z" />
    </g>
  </g>
  <g class="text_box-hd">
    <path class="text-h"
      d="M235.33,483.22h1.8v4.08h4.72v-4.08h1.8v10.1h-1.8v-4.48h-4.72v4.48h-1.8v-10.1Z" />
    <path class="text-h"
      d="M260.49,483.22h1.8v4.08h4.72v-4.08h1.8v10.1h-1.8v-4.48h-4.72v4.48h-1.8v-10.1Z" />
    <path class="text-h"
      d="M284.97,483.22h1.8v4.08h4.72v-4.08h1.8v10.1h-1.8v-4.48h-4.72v4.48h-1.8v-10.1Z" />
    <g class="text-arrow_box">
      <g class="text-arrow_text">
        <path
          d="M280.04,485.33c-.27-.36-.61-.63-1.04-.79s-.85-.25-1.26-.25c-.52,0-1,.1-1.43.29-.43.19-.8.45-1.11.79-.31.33-.55.72-.71,1.17s-.25.93-.25,1.46c0,.55.08,1.06.24,1.51.16.46.39.85.69,1.18.3.33.66.58,1.08.76.42.18.89.27,1.41.27s1.02-.11,1.44-.32c.42-.21.76-.5,1.01-.85l1.44,1.01c-.45.56-.99,1-1.64,1.31-.65.31-1.4.46-2.27.46-.79,0-1.52-.13-2.18-.39-.66-.26-1.23-.63-1.71-1.1-.48-.47-.85-1.03-1.11-1.68-.27-.65-.4-1.37-.4-2.16s.14-1.54.42-2.19c.28-.65.67-1.21,1.16-1.66.49-.46,1.07-.81,1.73-1.06.67-.25,1.39-.37,2.17-.37.32,0,.66.03,1.01.09.35.06.69.16,1.01.29.32.13.63.29.91.48.29.19.53.42.73.69l-1.37,1.08Z" />
        <path class="text-arrow"
          d="M276.39,508.54v-10.09c-.44.61-1.23,1.37-1.95,1.9l-.71-1.28c1.26-.98,2.55-2.44,3.4-3.72.84,1.28,2.14,2.74,3.4,3.72l-.71,1.28c-.73-.53-1.51-1.28-1.95-1.9v10.09h-1.46Z" />
      </g>
      <g class="text-arrow_text">
        <path
          d="M247.95,483.22h3.58c.66,0,1.32.09,1.98.26.67.17,1.27.45,1.8.85.53.39.97.91,1.3,1.56.33.64.5,1.44.5,2.39,0,.88-.17,1.65-.5,2.28s-.77,1.16-1.3,1.57c-.53.41-1.13.71-1.8.91-.67.19-1.33.29-1.98.29h-3.58v-10.1ZM251.24,491.75c.47,0,.93-.05,1.4-.16.47-.11.89-.29,1.26-.56.38-.26.68-.62.92-1.06.24-.45.36-1.01.36-1.7,0-.72-.12-1.31-.36-1.77-.24-.46-.54-.81-.92-1.07-.38-.26-.8-.43-1.26-.53-.47-.09-.93-.14-1.4-.14h-1.5v6.99h1.5Z" />
        <path class="text-arrow"
          d="M251.15,508.79v-10.09c-.44.61-1.23,1.37-1.95,1.9l-.71-1.28c1.26-.98,2.55-2.44,3.4-3.72.84,1.28,2.14,2.74,3.4,3.72l-.71,1.28c-.73-.53-1.51-1.28-1.95-1.9v10.09h-1.46Z" />
      </g>
    </g>
  </g>
</svg>