<?xml version="1.0" encoding="utf-8"?>
<svg xmlns="http://www.w3.org/2000/svg" version="1.1" viewBox="0 0 1920 1060">
  <defs>
    <style>
      /* TOPアニメーション 文字 ------- */
      .text_box-medium{fill:#1b1b1b;}
      .text-one{opacity:0;animation:text_bg 1s forwards;transform:translate(0,20px);}
      .text-one:nth-of-type(1){animation-delay:1.4s;}
      .text-one:nth-of-type(2){animation-delay:1.8s;}
      .text-one:nth-of-type(3){animation-delay:2.3s;}
      .text-one:nth-of-type(4){animation-delay:2.6s;}
      .text-one:nth-of-type(5){animation-delay:2.8s;}
      .text-one:nth-of-type(6){animation-delay:3.7s;}
      @keyframes text_bg{
      100%{opacity:1;transform:translate(0,0);}
      }
    </style>
  </defs>
  <g class="text_box-medium">
    <g class="text-one">
      <path
        d="M1150.03,384.63c2.1-.96,4.14-1.92,6.24-3.06-.06,1.02-.06,2.58,0,3.9q.06,1.98-1.5,2.88c-3.96,2.1-8.4,4.02-12.96,5.76-.96.42-1.56.66-1.86.9-.36.3-.6.42-.96.42-.3,0-.54-.18-.78-.78-.54-1.56-1.02-3.48-1.5-5.64,1.8-.3,3.54-.78,5.64-1.44l1.74-.6v-13.02c-3.78,0-4.92.12-5.28.12-.6,0-.66-.06-.66-.66v-4.32c0-.66.06-.72.66-.72.36,0,1.5.12,5.28.12v-10.56h-.36c-4.02,0-5.28.12-5.64.12-.54,0-.6-.06-.6-.66v-4.38c0-.66.06-.72.6-.72.36,0,1.62.12,5.64.12h6.24c4.08,0,5.34-.12,5.64-.12.6,0,.66.06.66.72v4.38c0,.6-.06.66-.66.66-.3,0-1.56-.12-5.58-.12v10.56c3.3,0,4.44-.12,4.8-.12.6,0,.6.06.6.72v4.32c0,.6,0,.66-.6.66-.36,0-1.5-.12-4.8-.12v10.68ZM1161,400.71c-5.94,0-7.98.12-8.34.12-.6,0-.66-.06-.66-.66v-4.26c0-.6.06-.66.66-.66.36,0,2.4.12,8.34.12h9.12v-5.88h-3.72c-5.52,0-7.38.12-7.74.12-.6,0-.66-.06-.66-.66v-4.14c0-.6.06-.66.66-.66.36,0,2.22.12,7.74.12h3.72v-5.16h-3.9c-5.46,0-7.44.12-7.8.12-.66,0-.72-.06-.72-.6,0-.36.12-2.28.12-6.66v-13.32c0-4.26-.12-6.12-.12-6.54,0-.6.06-.66.72-.66.36,0,2.34.12,7.8.12h14.28c5.52,0,7.44-.12,7.86-.12.6,0,.66.06.66.66,0,.36-.12,2.28-.12,6.54v13.32c0,4.38.12,6.3.12,6.66,0,.54-.06.6-.66.6-.42,0-2.34-.12-7.86-.12h-4.38v5.16h4.56c5.46,0,7.38-.12,7.74-.12.6,0,.66.06.66.66v4.14c0,.6-.06.66-.66.66-.36,0-2.28-.12-7.74-.12h-4.56v5.88h6.9c5.88,0,7.98-.12,8.28-.12.6,0,.66.06.66.66v4.26c0,.6-.06.66-.66.66-.3,0-2.4-.12-8.28-.12h-22.02ZM1170.12,362.73v-6.06h-6.66v6.06h6.66ZM1170.12,374.07v-6.42h-6.66v6.42h6.66ZM1176.12,356.67v6.06h7.08v-6.06h-7.08ZM1183.2,367.65h-7.08v6.42h7.08v-6.42Z" />
      <path
        d="M1213.75,353.97c0-2.52-.06-3.78-.36-5.34,2.1.06,3.84.12,5.82.3.54.06.78.24.78.6s-.18.72-.24.96c-.12.36-.3,1.14-.3,3.42v2.64h.78c4.8,0,6.3-.12,6.66-.12.66,0,.72.06.72.66v4.26c0,.6-.06.66-.72.66-.36,0-1.86-.12-6.66-.12h-.12c2.22,3.42,5.34,6.72,8.28,8.7-.84,1.08-1.56,2.22-2.1,3.54-.36.84-.6,1.26-.96,1.26-.3,0-.66-.3-1.2-.9-1.86-1.92-3.54-4.08-4.92-6.66.12,7.56.3,13.02.3,14.16,0,.66-.06.72-.66.72h-4.56c-.6,0-.66-.06-.66-.72,0-1.08.18-5.94.24-12.96-1.68,3.3-4.08,6.3-7.2,9.18-.54.48-.9.72-1.2.72-.42,0-.72-.42-1.2-1.32-.72-1.38-1.68-2.7-2.58-3.54,4.5-3.12,8.22-6.84,11.1-12.18h-1.98c-4.86,0-6.42.12-6.78.12-.6,0-.66-.06-.66-.66v-4.26c0-.6.06-.66.66-.66.36,0,1.92.12,6.78.12h2.94v-2.58ZM1203.43,397.47c-.78-.54-.72-.78-.36-1.2,2.28-3.12,3.84-6.48,5.04-10.62.18-.66.3-.6,1.08-.3l3.78,1.44c.78.3.84.42.66,1.08-1.38,4.68-3.06,8.34-5.4,11.94-.18.3-.3.42-.48.42s-.42-.06-.72-.3l-3.6-2.46ZM1223.76,393.93c0,1.2.24,1.98.84,2.34.96.54,2.7.66,5.58.66,3.66,0,5.82-.06,7.14-.9.9-.66,1.44-2.64,1.5-5.4,1.2.72,2.82,1.38,4.5,1.74,1.56.3,1.5.48,1.26,2.1-.54,3.9-1.5,5.4-3.3,6.42-2.22,1.26-5.34,1.5-11.64,1.5-5.52,0-8.58-.36-10.02-1.32-1.32-.9-2.04-2.04-2.04-5.1v-6.72c0-1.8-.12-3.3-.36-4.98,1.98,0,4.38.12,6.12.3.78.12,1.08.36,1.08.66,0,.36-.06.54-.24.96-.24.54-.42,1.38-.42,2.7v5.04ZM1245.72,351.15c4.68,0,6.24-.12,6.66-.12.6,0,.66.06.66.66,0,.36-.12,2.46-.12,7.02v15.84c0,4.56.12,6.66.12,7.02,0,.66-.06.72-.66.72-.42,0-1.98-.12-6.66-.12h-8.52c-2.94,0-4.56.06-5.52.06,2.16,2.04,4.14,4.26,5.82,6.78.3.48.3.66-.36,1.08l-3.48,2.16c-.36.24-.6.36-.78.36s-.3-.12-.48-.42c-1.56-2.76-3.72-5.7-6-7.8-.36-.42-.3-.66.3-1.02l3.18-1.86c0-.48.12-2.58.12-6.96v-15.84c0-4.56-.12-6.6-.12-7.02,0-.6.06-.66.72-.66.36,0,1.86.12,6.6.12h8.52ZM1235.64,360.15h11.58v-4.08h-11.58v4.08ZM1247.22,368.61v-4.02h-11.58v4.02h11.58ZM1247.22,373.05h-11.58v4.2h11.58v-4.2ZM1248.78,384.63c.72-.3.9-.24,1.26.24,2.52,3.18,4.74,6.6,6.54,10.8.18.48.12.66-.54,1.08l-4.02,2.34c-.36.24-.6.36-.78.36s-.3-.18-.42-.54c-1.62-4.68-3.54-7.8-6.18-11.28-.42-.54-.36-.66.42-1.08l3.72-1.92Z" />
      <path
        d="M1295.21,361.95c-1.38,10.2-3.9,19.56-7.5,25.86-2.58,4.5-5.7,6.9-10.2,6.9-5.28,0-10.62-5.64-10.62-15.42,0-5.76,2.46-11.28,6.78-15.6,5.04-5.04,11.4-7.68,19.5-7.68,14.4,0,22.86,8.88,22.86,20.82,0,11.16-6.3,18.18-18.48,21.84-1.26.36-1.8.12-2.58-1.08-.66-1.02-1.92-2.4-4.2-3.78,10.14-2.4,18.12-6.6,18.12-17.94,0-7.14-5.4-13.92-13.44-13.92h-.24ZM1277.99,367.77c-2.88,3.24-4.68,7.26-4.68,11.1,0,5.52,2.22,8.58,4.08,8.58,1.56,0,2.88-.78,4.5-3.66,2.64-4.86,5.34-13.5,6.36-21.48-4.2.84-7.56,2.52-10.26,5.46Z" />
      <path
        d="M1357.94,374.49c-.36,6.72-1.2,10.74-3.54,15.3-2.4,4.68-6.72,9.06-10.56,11.34-.66.42-1.26.72-1.8.72-.42,0-.84-.18-1.26-.6-1.2-1.2-3.24-2.4-5.34-3.18,5.88-3.18,9.42-6.12,11.94-10.68,2.22-3.96,2.82-7.2,3.06-12.9h-11.4c-3,0-5.94.18-9,.36-.54.06-.72-.36-.78-1.14-.3-1.68-.48-3.96-.48-5.76,3.36.3,6.72.3,10.2.3h26.94c4.68,0,8.16-.12,11.7-.36.6,0,.66.36.66,1.2.06.78.06,3.84,0,4.62,0,.78-.36,1.02-.9,1.02-3.12-.12-7.26-.24-11.4-.24h-8.04ZM1346.06,360.57c-2.76,0-5.16.12-8.52.24-.78,0-.96-.3-1.02-1.02-.18-1.44-.24-3.6-.42-5.76,4.2.24,7.26.3,9.96.3h11.04c3.36,0,7.14-.06,10.14-.24.6,0,.72.36.72,1.14.12,1.44.12,2.94,0,4.38,0,.84-.12,1.14-.78,1.14-3.24-.12-6.78-.18-10.08-.18h-11.04ZM1371.86,350.13c.3-.18.54-.12.84.18,1.74,1.62,3.66,4.26,5.1,6.96.18.36.18.66-.3.96l-2.7,1.62c-.42.24-.72.12-.96-.3-1.56-2.94-3.24-5.4-5.4-7.5l3.42-1.92ZM1377.56,346.77c.36-.24.54-.12.84.18,2.04,1.92,3.96,4.5,5.1,6.72.18.36.24.72-.3,1.08l-2.52,1.62c-.54.3-.84.06-1.02-.3-1.38-2.7-3.06-5.16-5.34-7.44l3.24-1.86Z" />
      <path
        d="M1432.33,365.61c2.94,0,6.3-.06,9.06-.18.72-.06.78.3.84.96.12,1.5.12,3.24,0,4.74-.06.78-.18,1.02-1.02.96-2.04,0-5.7-.06-8.64-.06h-2.46c-.36,8.58-1.68,13.62-4.62,18.48-3,4.98-7.86,8.58-14.16,11.16-.84.36-1.32.54-1.68.54s-.66-.18-1.14-.66c-1.8-1.86-2.94-2.7-4.98-3.6,8.52-2.64,13.14-5.7,16.2-10.62,2.34-3.84,3.3-7.98,3.54-15.3h-12.78v2.16c0,3.54,0,6.78.18,9.96.06.66-.36.78-1.02.84-1.56.12-3.54.12-5.16,0-.78-.06-1.14-.18-1.08-.84.18-3.12.3-6.06.3-9.84v-2.28h-1.8c-3.24,0-8.04.18-9.9.3-.48,0-.66-.36-.72-1.14-.24-1.26-.3-3.36-.42-5.82,2.52.18,6.42.3,11.04.3h1.8v-4.38c0-3.84-.12-5.34-.72-8.82,3.12.3,6.06.6,7.32.96.66.12.9.42.9.84,0,.36-.18.78-.36,1.26-.42,1.08-.42,1.68-.42,5.76v4.38h12.9l.06-5.88c.06-3.36-.12-6.12-.54-8.22,2.28.24,5.58.6,7.02,1.02.84.18,1.08.48,1.08.96,0,.24-.06.6-.24,1.08-.42,1.14-.48,2.7-.48,5.28v5.7h2.1ZM1435.33,351.09c.3-.12.54-.12.84.24,1.62,1.74,3.36,4.44,4.62,7.26.18.42.12.66-.36.9l-2.46,1.26c-.48.24-.78.12-1.02-.36-1.32-3-2.82-5.52-4.86-7.8l3.24-1.5ZM1440.97,348.51c.36-.18.54-.12.84.24,1.92,2.04,3.66,4.74,4.62,7.02.18.36.18.78-.36,1.02l-2.4,1.2c-.54.24-.78.06-.96-.3-1.2-2.82-2.76-5.4-4.86-7.8l3.12-1.38Z" />
      <path
        d="M1482.33,387.51c0,4.14.06,7.68.18,12.48.06.78-.24,1.02-.9,1.02-1.92.12-4.08.12-6,0-.66,0-.9-.24-.84-.96.06-4.32.24-8.22.24-12.3v-13.98c-5.28,4.44-11.7,9-16.5,11.52-.3.18-.6.24-.9.24-.48,0-.84-.18-1.26-.6-1.38-1.38-3.36-2.58-5.16-3.54,8.28-4.26,13.38-7.74,18.9-12.3,4.74-3.9,9.06-8.1,12.78-12.54,2.04-2.4,2.82-3.6,3.78-6.18,2.7,1.5,5.34,3.12,6.66,4.2.36.24.48.6.48.9,0,.48-.36,1.02-.84,1.32-1.02.66-1.98,1.56-3.6,3.3-2.34,2.82-4.56,5.16-7.02,7.56v19.86Z" />
      <path
        d="M1513.36,356.67c.24-.3.54-.48.84-.48.24,0,.48.12.78.3,3.06,1.62,8.04,5.28,11.46,8.52.36.36.54.6.54.84s-.12.48-.36.78c-.9,1.2-2.88,3.6-3.72,4.5-.3.3-.48.48-.72.48s-.48-.18-.78-.48c-3.6-3.72-7.92-7.14-12.24-9.78,1.32-1.62,3.06-3.48,4.2-4.68ZM1518.58,388.29c7.32-3.78,11.22-6.3,17.28-11.16,7.32-5.94,11.34-9.78,16.44-16.32.36,3,.9,5.04,1.68,7.02.18.42.3.78.3,1.14,0,.54-.3,1.02-.96,1.8-3.18,3.72-8.34,8.52-13.8,12.72-4.98,3.9-10.02,7.26-18.12,11.76-2.7,1.62-3.48,2.22-4.02,2.76-.36.36-.72.6-1.08.6-.3,0-.66-.24-1.02-.66-1.5-1.68-3.36-4.14-4.8-6.66,3.06-.84,4.92-1.38,8.1-3Z" />
      <path
        d="M1596.36,390.09c0,.66-.36.96-1.14,1.08-.78.12-2.58.3-4.26.3-.54,0-.78-.36-.78-.96,0-2.16,0-5.16.06-7.32-5.34,2.76-7.26,5.1-7.26,7.98,0,2.52,2.04,4.14,8.34,4.14,5.52,0,10.32-.54,14.94-1.2.54-.06.78.12.84.66.3,1.38.54,3.48.54,4.92.06.72-.18,1.14-.66,1.14-5.16.66-9.06.78-14.88.78-9.84,0-15.06-2.94-15.06-9.9,0-5.76,3.6-9.96,12.66-14.64-.18-3.06-.9-4.26-3.6-4.14-2.82.12-5.52,1.92-8.28,4.32-2.58,2.52-4.08,4.26-6,6.54-.3.36-.48.54-.72.54-.18,0-.42-.18-.66-.42-.84-.84-2.64-2.7-3.42-3.96-.18-.24-.24-.42-.24-.54,0-.24.12-.42.42-.66,4.62-4.14,9.06-8.88,12.54-14.88-2.82.12-6.06.18-9.6.18-.54,0-.72-.3-.84-.96-.18-.96-.42-3.18-.6-4.98,4.56.24,9.24.18,13.8-.06.66-1.62,1.2-3.06,1.8-5.16.24-1.02.42-2.04.42-3.66,2.64.42,5.28,1.08,6.84,1.68.48.18.72.6.72,1.02,0,.3-.12.66-.42.9-.36.3-.72.84-1.02,1.44-.36.84-.66,1.62-1.38,3.24,3.66-.42,7.32-1.02,10.92-1.86.66-.12.84.06.96.6.3,1.2.54,2.58.6,4.32.06.6-.18.84-1.02.96-4.5.66-9.66,1.32-14.04,1.8-1.38,2.22-2.7,4.44-4.5,6.66l.06.12c1.92-1.26,4.38-1.86,6-1.86,3.96,0,6.72,1.8,7.32,6.48,2.34-1.08,5.76-2.64,8.82-4.2,1.14-.6,3.06-1.68,4.56-3.24,1.98,2.1,3.54,4.2,4.2,5.28.36.54.48.96.48,1.32,0,.48-.3.72-.9.84-1.26.18-2.46.48-3.66.9-3.9,1.38-7.8,2.7-12.9,4.8v9.66Z" />
    </g>
    <g class="text-one">
      <path
        d="M1157.94,495.59c-.6,0-.66-.06-.66-.66,0-.36.06-2.22.12-5.94-4.8,1.02-10.74,2.1-15.6,2.82-.96.12-1.86.42-2.16.6-.24.12-.6.36-.96.36s-.66-.36-.84-.96c-.54-1.62-.84-3.06-1.2-4.8,2.1-.06,3.78-.18,5.64-.42.36,0,.72-.06,1.08-.12v-18.84c-4.08.06-5.64.12-5.94.12-.6,0-.66-.06-.66-.66v-3.78c0-.6.06-.66.66-.66.36,0,2.1.12,7.32.12h38.52c5.22,0,6.96-.12,7.32-.12.54,0,.6.06.6.66v3.78c0,.6-.06.66-.6.66-.36,0-2.1-.12-7.32-.12h-20.34v20.1c0,4.62.12,6.84.12,7.2,0,.6-.06.66-.66.66h-4.44ZM1174.86,442.79c5.94,0,8.04-.12,8.4-.12.6,0,.66.06.66.72,0,.36-.12,1.68-.12,4.92v6.3c0,3.24.12,4.56.12,4.92,0,.66-.06.72-.66.72-.36,0-2.46-.12-8.4-.12h-21.84c-5.94,0-7.98.12-8.4.12-.6,0-.66-.06-.66-.72,0-.36.12-1.68.12-4.92v-6.3c0-3.24-.12-4.56-.12-4.92,0-.66.06-.72.66-.72.42,0,2.46.12,8.4.12h21.84ZM1157.4,470.81v-3.18h-8.46v3.18h8.46ZM1157.4,477.77v-3.12h-8.46v3.12h8.46ZM1157.4,481.61h-8.46v4.14c2.82-.42,5.76-.84,8.46-1.32v-2.82ZM1150.03,449.75h27.84v-2.52h-27.84v2.52ZM1177.86,453.35h-27.84v2.58h27.84v-2.58ZM1181.94,471.17c.36,0,.78-.12,1.08-.24.3-.12.6-.24.9-.24.42,0,.72.12,2.1,1.38,1.44,1.38,1.62,1.8,1.62,2.22,0,.48-.18.78-.6,1.08-.48.3-.9,1.02-1.62,2.52-1.32,2.64-2.88,5.1-4.86,7.26,2.94,1.86,6.48,3.18,10.62,4.08-.66.96-1.5,2.28-2.1,3.84-.6,1.62-.72,1.62-2.28,1.14-4.02-1.26-7.38-3-10.26-5.16-2.64,2.04-5.64,3.84-9.06,5.28-.6.24-.96.42-1.2.42-.42,0-.66-.42-1.08-1.38-.66-1.44-1.38-2.58-2.22-3.42,3.84-1.14,7.02-2.64,9.66-4.5-2.34-2.64-4.32-5.82-5.88-9.6-.96.06-1.38.06-1.56.06-.6,0-.66-.06-.66-.72v-3.48c0-.6.06-.66.66-.66.36,0,1.86.12,6.6.12h10.14ZM1172.22,475.79c1.14,2.4,2.58,4.5,4.38,6.24,1.68-1.8,3.06-3.9,4.14-6.24h-8.52Z" />
      <path
        d="M1215.67,482.57c1.26,2.52,2.94,3.84,5.4,4.86,2.22.72,5.88,1.08,11.1,1.08,7.68,0,16.92-.42,25.92-1.26-.78,1.26-1.26,2.76-1.5,4.38q-.3,1.92-2.22,1.98c-7.68.48-15,.6-21.3.6s-11.1-.42-13.98-1.62c-2.76-1.08-4.68-2.64-6.3-5.22-1.68,1.8-3.36,3.3-5.46,5.1-.66.54-1.08.9-1.38,1.26-.24.3-.36.42-.78.42-.3,0-.6-.24-.84-.72-.84-1.56-1.62-3.42-2.46-5.52,1.5-.72,2.34-1.2,3.48-1.98,1.68-1.08,3-2.28,4.5-3.78v-13.32h-2.46c-3.12,0-3.9.12-4.2.12-.66,0-.72-.06-.72-.72v-4.56c0-.6.06-.66.72-.66.3,0,1.08.12,4.2.12h3.42c3.12,0,4.02-.12,4.32-.12.6,0,.66.06.66.66,0,.36-.12,2.1-.12,5.82v13.08ZM1207.21,442.55c.36-.24.54-.3.72-.3s.36.06.6.3c2.64,2.46,5.28,5.46,7.44,8.76.36.54.36.66-.36,1.2l-3.18,2.7c-.36.3-.6.48-.78.48s-.3-.12-.48-.42c-2.22-3.66-4.8-6.84-7.38-9.42-.48-.42-.42-.6.24-1.02l3.18-2.28ZM1241.77,462.95c2.4,0,3.96-.12,4.32-.12.66,0,.72.06.72.66v3c0,.6-.06.66-.72.66-.36,0-1.92-.12-4.32-.12h-2.4v3.24c3.42,0,4.38-.06,4.8-.06.6,0,.66.06.66.66,0,.36-.12,1.26-.12,3.78v6c.66.06,1.2.06,1.8.06,1.38,0,1.68-.3,1.68-1.68v-20.34h-22.38v19.08c0,5.04.12,7.14.12,7.5,0,.66-.06.72-.66.72h-4.62c-.6,0-.66-.06-.66-.72,0-.36.12-2.28.12-7.38v-16.2c0-4.56-.12-6.6-.12-7.02,0-.6.06-.66.66-.66.42,0,2.28.12,7.56.12-.6-1.5-1.38-3.06-2.1-4.32-5.22,0-7.14.12-7.44.12-.66,0-.72-.06-.72-.66v-3.72c0-.6.06-.66.72-.66.36,0,2.4.12,8.4.12h6.54c0-1.74-.12-3.18-.36-4.56,2.28.06,4.32.18,6.24.42.6.06.96.36.96.66,0,.48-.18.66-.42,1.02-.24.42-.3.9-.3,2.04v.42h7.56c5.82,0,7.86-.12,8.22-.12.6,0,.66.06.66.66v3.72c0,.6-.06.66-.66.66-.36,0-2.34-.12-7.86-.12l-.18.42c-.42,1.02-.9,2.28-1.62,3.9,5.1,0,7.08-.12,7.44-.12.6,0,.66.06.66.66,0,.36-.12,2.82-.12,7.56v8.64c0,3.66.18,7.26.18,9.18,0,2.16-.36,3.6-1.62,4.62-1.2.96-3.18,1.38-6.6,1.38-1.44,0-1.56-.06-1.74-1.38l-.36-1.92c-.66-.06-1.8-.12-4.32-.12h-4.92c-3.3,0-4.32.12-4.68.12-.66,0-.72-.06-.72-.66,0-.36.12-1.26.12-3.78v-3.66c0-2.52-.12-3.42-.12-3.78,0-.6.06-.66.72-.66.36,0,1.38.06,4.62.06v-3.24h-1.68c-2.94,0-4.56.12-4.92.12-.6,0-.66-.06-.66-.66v-3c0-.6.06-.66.66-.66.36,0,1.98.12,4.92.12h1.68c-.06-1.26-.12-2.22-.3-3.48,1.8.06,3.48.18,5.04.36.54.06.78.24.78.6,0,.3-.18.54-.3.84-.18.42-.24.78-.24,1.68h2.4ZM1232.05,449.81c.66,1.32,1.38,2.82,1.92,4.32h6.12c.72-1.56,1.32-3.12,1.74-4.32h-9.78ZM1239.85,474.17h-5.88v4.5h5.88v-4.5Z" />
      <path
        d="M1294.71,450.95c.54-.18.78-.18.9.48.3,1.5.48,3.3.54,4.86,0,.54-.24.66-.72.72-3.24.66-6.18,1.08-9.9,1.62-3.84,10.14-7.38,18.42-11.7,25.74-.24.42-.42.6-.66.6-.18,0-.42-.12-.72-.3-1.38-.84-3.12-2.1-4.14-3.06-.3-.24-.42-.42-.42-.66,0-.18.06-.42.3-.72,4.5-7.44,7.68-13.74,10.38-20.94-2.28.12-4.14.12-6,.12-1.32,0-1.8,0-3.3-.06-.6,0-.72-.18-.84-.96-.3-1.14-.48-3.12-.6-5.1,2.46.18,3.84.24,5.58.24,2.34,0,4.14-.06,6.9-.3.72-2.52,1.14-4.56,1.56-6.72.36-2.1.36-3,.36-4.86,2.58.36,5.16.72,7.02,1.26.6.12.96.48.96.9,0,.48-.18.78-.54,1.14-.36.48-.6,1.02-.96,2.22-.42,1.44-.9,3.3-1.44,5.1,2.34-.24,5.1-.78,7.44-1.32ZM1296.39,467.03c-.06-1.62-.12-2.58-.48-4.26,2.94.3,4.5.54,6.54,1.14.54.12.84.42.84.96,0,.12-.12.54-.36,1.26s-.3,1.44-.24,2.46c0,3.54.18,6.12.66,10.2,4.32,1.74,7.26,3.06,10.8,5.58.6.42.66.66.36,1.26-.9,1.86-1.74,3.36-2.76,4.86-.18.3-.36.42-.54.42s-.36-.12-.6-.36c-2.64-2.28-4.86-3.6-7.32-5.04,0,6-4.32,8.76-11.16,8.76s-11.04-3.36-11.04-8.52,4.32-8.76,11.1-8.76c1.14,0,2.82.06,4.74.36-.36-3.84-.48-7.5-.54-10.32ZM1292.13,482.15c-3,0-5.34,1.2-5.34,3.48,0,1.92,1.68,2.88,5.1,2.88,3.24,0,5.22-1.74,5.22-4.26,0-.54,0-.84-.06-1.2-1.44-.48-3.06-.9-4.92-.9ZM1303.29,453.29c.36-.6.66-.66,1.26-.42,3.54.96,8.28,3.36,11.76,5.64.36.24.54.42.54.66,0,.18-.06.42-.24.72-.6,1.32-1.68,3.18-2.52,4.44-.18.3-.36.42-.54.42s-.3-.06-.54-.24c-3.54-2.4-7.86-5.04-12.42-6.54,1.02-1.8,1.92-3.6,2.7-4.68Z" />
      <path
        d="M1363.2,458.09h-20.94c-4.08,0-6.9.12-9,.36-.66,0-.9-.3-.9-1.02-.18-1.62-.3-4.44-.3-6.42,3.6.36,5.7.42,10.02.42h17.82c3.12,0,6.3-.12,9.48-.24.96,0,1.26.24,1.2,1.02,0,3.18-.12,6.3-.12,9.48v14.34c0,4.38.18,9.18.24,10.86,0,.6-.24.78-1.08.84-1.68.12-3.6.12-5.28,0-.96-.06-1.14-.12-1.14-1.02v-2.4h-20.64c-3.78,0-6.96.18-9.84.24-.54,0-.78-.24-.84-.9-.18-1.56-.3-3.72-.3-6.24,2.82.18,6.3.3,11.04.3h20.58v-19.62Z" />
      <path
        d="M1418.79,449.03c2.16,0,3.24-.06,4.14-.54.24-.18.42-.24.66-.24.36,0,.66.24,1.02.48,1.38,1.08,2.76,2.64,3.9,4.2.18.3.3.54.3.78,0,.36-.24.78-.78,1.2-.78.66-1.56,1.56-2.22,2.64-2.46,4.2-4.8,7.56-7.68,11.22,5.76,4.26,11.1,8.94,16.62,14.52.3.3.48.6.48.84s-.12.54-.42.9c-1.14,1.38-2.52,2.82-4.02,4.08-.24.24-.48.36-.72.36-.3,0-.54-.18-.84-.48-5.04-5.88-10.2-10.62-15.6-14.88-6.78,7.08-13.62,12.18-20.16,15.84-.54.24-.96.48-1.38.48-.36,0-.72-.18-1.02-.54-1.32-1.62-3.06-2.82-5.04-3.9,9.36-4.74,14.94-9,21.12-15.3,4.32-4.5,7.62-8.76,11.28-15.06l-15.48.06c-3.12,0-6.24.12-9.48.36-.48.06-.66-.36-.78-1.02-.3-1.26-.54-4.14-.54-6.24,3.24.24,6.24.24,10.14.24h16.5Z" />
      <path
        d="M1463.16,459.89c7.32,2.28,13.14,4.62,19.08,8.16.66.36.96.78.66,1.56-.78,1.98-1.74,3.84-2.58,5.22-.24.42-.48.66-.78.66-.18,0-.42-.06-.66-.3-5.52-3.54-10.92-6.18-15.78-7.68v13.26c0,3.9.12,7.44.24,11.76.06.72-.24.9-1.08.9-1.74.12-3.6.12-5.34,0-.84,0-1.14-.18-1.14-.9.18-4.44.24-7.98.24-11.82v-29.52c0-4.5-.18-6.48-.6-8.88,2.76.18,5.76.48,7.5.96.84.18,1.14.54,1.14,1.02,0,.36-.18.84-.48,1.38-.42.78-.42,2.28-.42,5.64v8.58Z" />
      <path
        d="M1522.61,454.73c-7.32,1.38-13.74,2.64-20.16,3.96-2.28.54-2.88.66-3.78.96-.42.18-.84.48-1.32.48-.42,0-.9-.36-1.14-.9-.78-1.62-1.44-3.72-2.22-6.48,3.06-.12,4.86-.36,9.54-1.02,7.38-1.08,20.58-3.06,36.06-5.1.9-.12,1.2.24,1.26.66.3,1.38.6,3.6.66,5.28,0,.72-.36.9-1.14.9-2.82.18-4.74.48-7.32,1.32-10.2,3.48-15.3,10.5-15.3,17.7,0,7.74,5.52,11.94,15.96,12.6.96,0,1.32.24,1.32.9,0,1.56-.24,3.66-.66,5.16-.18.9-.42,1.26-1.14,1.26-10.56,0-22.14-6.06-22.14-18.54,0-8.52,4.26-14.28,11.52-19.02v-.12ZM1534.49,461.21c.3-.24.54-.18.9.12,1.86,1.44,4.02,3.84,5.7,6.42.24.36.24.66-.18.96l-2.52,1.86c-.42.3-.72.24-1.02-.18-1.8-2.76-3.72-5.04-6.06-6.96l3.18-2.22ZM1539.83,457.31c.36-.24.54-.18.9.12,2.22,1.68,4.38,4.08,5.7,6.18.24.36.3.72-.18,1.08l-2.4,1.86c-.48.36-.78.18-1.02-.18-1.62-2.58-3.54-4.86-6-6.9l3-2.16Z" />
      <path
        d="M1574.75,488.03c0,4.8-3.9,8.64-8.7,8.64s-8.7-3.84-8.7-8.64,3.9-8.64,8.7-8.64,8.7,3.84,8.7,8.64ZM1561.07,488.03c0,2.82,2.16,4.98,4.98,4.98s4.98-2.16,4.98-4.98-2.16-4.98-4.98-4.98-4.98,2.16-4.98,4.98Z" />
    </g>
  </g>
</svg>