<?xml version="1.0" encoding="utf-8"?>
<svg xmlns="http://www.w3.org/2000/svg" version="1.1" viewBox="0 0 375.25 176.75">
  <defs>
    <style>
      /* TOPアニメーション 文字 ------- */
      .text_box-small{fill:#231815;}
      .text-one{opacity:0;animation:text_bg 1s forwards;animation-delay:1.4s;}
      .text-one{transform:translate(0,20px);}
      .text-one:nth-of-type(1){animation-delay:1.4s;}
      .text-one:nth-of-type(2){animation-delay:1.8s;}
      .text-one:nth-of-type(3){animation-delay:2.3s;}
      .text-one:nth-of-type(4){animation-delay:2.6s;}
      .text-one:nth-of-type(5){animation-delay:2.8s;}
      .text-one:nth-of-type(6){animation-delay:3.0s;}
      @keyframes text_bg{
      100%{opacity:1;transform:translate(0,0);}
      }
    </style>
  </defs>
  <g class="text_box-small">
    <g class="text-one">
      <path
        d="M25.23,51.3h-.81v-.76h.91l.16-1.1h-.81v-.76h.91l.27-1.88h.79l-.27,1.88h.93l.27-1.88h.78l-.27,1.88h.81v.76h-.92l-.15,1.1h.81v.76h-.9l-.28,1.88h-.78l.27-1.88h-.94l-.27,1.88h-.78l.27-1.88ZM26.28,49.45l-.15,1.1h.93l.15-1.1h-.93Z" />
      <path
        d="M30.04,49.98c0-.51.09-.97.26-1.38s.41-.76.71-1.05.66-.51,1.08-.67c.42-.16.87-.23,1.36-.23s.96.08,1.38.23c.42.16.78.38,1.09.67s.54.64.72,1.05.26.87.26,1.38-.09.95-.26,1.36-.41.77-.72,1.06c-.31.3-.67.53-1.09.69s-.88.25-1.38.25-.95-.08-1.36-.25-.78-.4-1.08-.69c-.3-.3-.54-.65-.71-1.06-.17-.41-.26-.87-.26-1.36ZM31.27,49.98c0,.34.05.66.16.94.1.29.25.53.45.74.19.21.43.37.69.49.27.12.56.18.89.18s.62-.06.89-.18.5-.28.7-.49c.19-.21.34-.46.45-.74.1-.28.16-.6.16-.94s-.05-.64-.16-.92c-.11-.28-.25-.53-.45-.74s-.42-.38-.69-.5-.57-.18-.9-.18-.63.06-.9.18-.5.29-.69.5-.34.46-.45.74-.16.59-.16.92h.01Z" />
      <path
        d="M38.32,48.86h1.04v.72h.02c.12-.25.29-.46.5-.61.22-.16.47-.23.76-.23h.14s.09.01.13.02v.99c-.07-.02-.13-.03-.18-.04h-.15c-.25,0-.44.04-.59.13s-.27.2-.35.32-.14.25-.17.39c-.03.13-.04.24-.04.31v2.31h-1.08v-4.32h-.03Z" />
      <path
        d="M46.37,53.18h-1.03v-.65h-.02c-.15.25-.36.44-.63.58-.27.13-.55.2-.86.2-.33,0-.63-.06-.89-.18s-.48-.29-.67-.5c-.18-.21-.32-.45-.42-.73-.1-.28-.15-.58-.15-.9s.05-.61.15-.89c.1-.28.25-.52.43-.72s.41-.36.67-.48.54-.18.85-.18c.2,0,.38.02.53.07.16.04.29.1.41.17s.22.14.3.22.15.15.21.23h.03v-3.03h1.08v6.8h.01ZM42.82,51c0,.17.03.34.08.5.05.17.13.32.23.45s.23.24.39.32.34.13.55.13.38-.04.53-.12.29-.19.4-.32.2-.28.25-.45c.06-.17.09-.33.09-.5s-.03-.34-.09-.5c-.06-.17-.14-.32-.25-.45s-.24-.24-.4-.32-.33-.13-.53-.13c-.21,0-.39.04-.55.12s-.29.19-.39.32-.18.28-.23.45-.08.33-.08.5Z" />
      <path
        d="M52.15,51.07v.28h-3.28c0,.16.05.3.12.43s.16.24.27.33.24.17.39.22c.14.05.29.08.45.08.27,0,.5-.05.68-.15.19-.1.34-.24.46-.41l.72.58c-.43.58-1.04.86-1.85.86-.34,0-.65-.05-.93-.16s-.53-.25-.73-.45-.37-.43-.49-.71-.18-.6-.18-.95.06-.66.18-.95c.12-.29.28-.53.48-.73.2-.2.45-.36.72-.47.28-.11.58-.17.9-.17.3,0,.58.05.83.15.25.1.48.25.66.44s.33.44.44.73.16.63.16,1.02v.03ZM51.07,50.59c0-.14-.02-.27-.06-.4s-.1-.24-.18-.33c-.08-.1-.19-.17-.32-.23s-.28-.09-.45-.09c-.32,0-.6.1-.82.29-.22.2-.35.45-.37.75h2.21,0Z" />
      <path
        d="M53.56,48.86h1.04v.72h.02c.12-.25.29-.46.5-.61.22-.16.47-.23.76-.23h.13s.09.01.13.02v.99c-.07-.02-.13-.03-.18-.04h-.15c-.25,0-.44.04-.59.13s-.27.2-.35.32c-.08.13-.14.25-.17.39-.03.13-.04.24-.04.31v2.31h-1.08v-4.32h-.02Z" />
      <path
        d="M62.37,48.73c.28,0,.52.05.72.15.2.1.37.23.49.39.13.16.22.35.28.56.06.21.09.43.09.65v2.7h-1.08v-2.39c0-.13,0-.26-.03-.4s-.06-.26-.12-.37c-.06-.11-.14-.2-.25-.27-.1-.07-.24-.11-.42-.11s-.31.04-.43.11-.22.17-.3.28c-.08.11-.13.24-.17.38-.04.14-.05.28-.05.42v2.36h-1.08v-2.61c0-.27-.06-.49-.19-.67-.13-.18-.33-.27-.61-.27-.16,0-.3.03-.42.1-.12.07-.22.16-.29.27s-.13.23-.17.37c-.04.14-.06.28-.06.43v2.38h-1.08v-4.32h1.03v.69h.02c.05-.11.11-.21.19-.31.08-.1.18-.18.29-.26s.24-.14.38-.18c.14-.05.3-.07.48-.07.34,0,.62.08.84.23.22.15.39.35.51.59.14-.26.34-.47.58-.61s.52-.21.85-.21h0Z" />
      <path
        d="M68.26,52.63h-.03c-.11.19-.28.35-.52.47s-.51.18-.82.18c-.17,0-.36-.02-.54-.07s-.36-.12-.52-.23-.29-.24-.4-.41-.16-.38-.16-.63c0-.32.09-.58.27-.77s.42-.34.71-.44.61-.17.96-.2.69-.05,1.03-.05v-.11c0-.27-.1-.47-.29-.6-.2-.13-.43-.19-.7-.19-.23,0-.45.05-.66.14s-.38.21-.52.35l-.56-.66c.25-.23.53-.4.85-.51s.65-.17.98-.17c.38,0,.7.05.95.16s.45.25.59.42.24.37.3.59c.06.22.09.43.09.65v2.63h-1.01v-.55h0ZM68.24,51.21h-.24c-.17,0-.36,0-.55.02s-.37.05-.53.1c-.16.05-.3.12-.41.22-.11.09-.16.22-.16.38,0,.1.02.19.07.26s.1.12.18.17.15.07.24.09.18.03.27.03c.37,0,.65-.1.85-.3.19-.2.29-.47.29-.81v-.15h0Z" />
      <path
        d="M75.28,53.18h-1.03v-.65h-.02c-.15.25-.36.44-.63.58-.27.13-.55.2-.86.2-.33,0-.63-.06-.89-.18s-.48-.29-.67-.5c-.18-.21-.32-.45-.42-.73-.1-.28-.15-.58-.15-.9s.05-.61.15-.89.25-.52.43-.72.41-.36.67-.48c.26-.12.54-.18.85-.18.2,0,.38.02.53.07.16.04.29.1.41.17s.22.14.3.22.15.15.21.23h.03v-3.03h1.08v6.8h0ZM71.73,51c0,.17.03.34.08.5.05.17.13.32.23.45.1.13.23.24.39.32s.34.13.55.13.38-.04.53-.12.29-.19.4-.32.2-.28.25-.45c.06-.17.09-.33.09-.5s-.03-.34-.09-.5c-.06-.17-.14-.32-.25-.45s-.24-.24-.4-.32-.33-.13-.53-.13c-.21,0-.39.04-.55.12s-.29.19-.39.32-.18.28-.23.45-.08.33-.08.5Z" />
      <path
        d="M81.07,51.07v.28h-3.28c.01.16.05.3.12.43s.16.24.27.33c.11.09.24.17.39.22.14.05.29.08.45.08.27,0,.5-.05.68-.15.19-.1.34-.24.46-.41l.72.58c-.43.58-1.04.86-1.85.86-.34,0-.65-.05-.93-.16s-.53-.25-.73-.45-.37-.43-.49-.71-.18-.6-.18-.95.06-.66.18-.95c.12-.29.28-.53.48-.73.2-.2.45-.36.72-.47.28-.11.58-.17.9-.17.3,0,.58.05.83.15.25.1.48.25.66.44s.33.44.44.73.16.63.16,1.02v.03ZM79.99,50.59c0-.14-.02-.27-.06-.4s-.1-.24-.18-.33c-.08-.1-.19-.17-.32-.23s-.28-.09-.45-.09c-.32,0-.6.1-.82.29-.22.2-.35.45-.37.75h2.21-.01Z" />
    </g>
    <g class="text-one">
      <path
        d="M25.23,67.3h-.81v-.76h.91l.16-1.1h-.81v-.76h.91l.27-1.88h.79l-.27,1.88h.93l.27-1.88h.78l-.27,1.88h.81v.76h-.92l-.15,1.1h.81v.76h-.9l-.28,1.88h-.78l.27-1.88h-.94l-.27,1.88h-.78l.27-1.88ZM26.28,65.45l-.15,1.1h.93l.15-1.1h-.93Z" />
      <path
        d="M30.36,62.81h2.21c.3,0,.59.03.87.09s.53.17.75.31.39.33.53.57c.13.23.2.52.2.85,0,.46-.13.84-.39,1.13s-.62.49-1.07.59l1.7,2.83h-1.37l-1.48-2.7h-.83v2.7h-1.13v-6.37h0ZM32.42,65.55c.16,0,.32-.01.49-.04s.31-.07.44-.14c.13-.07.24-.16.32-.28s.13-.28.13-.47c0-.17-.04-.32-.12-.43-.08-.11-.18-.2-.3-.27s-.26-.11-.41-.14c-.15-.02-.3-.04-.45-.04h-1.03v1.79h.93v.02Z" />
      <path
        d="M40.37,67.07v.28h-3.28c0,.16.05.3.12.43s.16.24.27.33.24.17.39.22c.14.05.29.08.45.08.27,0,.5-.05.68-.15.19-.1.34-.24.46-.41l.72.58c-.43.58-1.04.86-1.85.86-.34,0-.65-.05-.93-.16s-.53-.25-.73-.45-.37-.43-.49-.71-.18-.6-.18-.95.06-.66.18-.95c.12-.29.28-.53.48-.73.2-.2.45-.36.72-.47.28-.11.58-.17.9-.17.3,0,.58.05.83.15.25.1.48.25.66.44s.33.44.44.73.16.63.16,1.02v.03ZM39.29,66.59c0-.14-.02-.27-.06-.4s-.1-.24-.18-.33c-.08-.1-.19-.17-.32-.23s-.28-.09-.45-.09c-.32,0-.6.1-.82.29-.22.2-.35.45-.37.75h2.21,0Z" />
      <path
        d="M44.42,68.63h-.03c-.11.19-.28.35-.52.47s-.51.18-.82.18c-.17,0-.36-.02-.54-.07-.19-.04-.36-.12-.52-.23-.16-.1-.29-.24-.4-.41-.1-.17-.16-.38-.16-.63,0-.32.09-.58.27-.77s.42-.34.71-.44.61-.17.96-.2.69-.05,1.03-.05v-.11c0-.27-.1-.47-.29-.6-.2-.13-.43-.19-.7-.19-.23,0-.45.05-.66.14-.21.1-.38.21-.52.35l-.56-.66c.25-.23.53-.4.85-.51s.65-.17.98-.17c.38,0,.7.05.95.16s.45.25.59.42.24.37.3.59c.06.22.09.43.09.65v2.63h-1.01v-.55h0ZM44.4,67.21h-.24c-.17,0-.36,0-.55.02s-.37.05-.53.1-.3.12-.4.22c-.11.09-.16.22-.16.38,0,.1.02.19.07.26s.1.12.18.17c.07.04.15.07.24.09s.18.03.27.03c.37,0,.65-.1.85-.3.19-.2.29-.47.29-.81v-.15h-.02Z" />
      <path
        d="M51.44,69.18h-1.03v-.65h-.02c-.15.25-.36.44-.63.58-.27.13-.55.2-.86.2-.33,0-.63-.06-.89-.18s-.48-.29-.67-.5c-.18-.21-.32-.45-.42-.73-.1-.28-.15-.58-.15-.9s.05-.61.15-.89c.1-.28.25-.52.43-.72.19-.2.41-.36.67-.48s.54-.18.85-.18c.2,0,.38.02.53.07.16.04.29.1.41.17s.22.14.3.22.15.15.21.23h.03v-3.03h1.08v6.8h.01ZM47.89,67c0,.17.03.34.08.5.05.17.13.32.23.45s.23.24.39.32.34.13.55.13.38-.04.53-.12c.16-.08.29-.19.4-.32s.19-.28.25-.45.09-.33.09-.5-.03-.34-.09-.5c-.06-.17-.14-.32-.25-.45s-.24-.24-.4-.32-.33-.13-.53-.13c-.21,0-.39.04-.55.12s-.29.19-.39.32-.18.28-.23.45-.08.33-.08.5Z" />
      <path
        d="M52.51,64.86h1.2l1.21,3.14h.02l1.07-3.14h1.12l-2.04,5.25c-.08.2-.16.37-.25.53-.09.15-.2.28-.32.39s-.27.18-.45.24c-.17.05-.38.08-.62.08-.09,0-.18,0-.27-.01-.09,0-.19-.03-.28-.05l.09-.94c.07.02.14.04.21.05.07,0,.13.01.19.01.11,0,.21-.01.29-.04.08-.03.14-.07.2-.13.05-.06.1-.13.14-.21s.09-.18.13-.3l.22-.55-1.85-4.32h-.01Z" />
      <path d="M60.02,67.42h-2.16v-.92h2.16v.92Z" />
      <path
        d="M62.58,62.38v3.03h.03c.05-.07.12-.15.21-.23s.18-.15.3-.22c.12-.07.25-.12.41-.17s.33-.07.53-.07c.31,0,.59.06.85.18s.48.28.67.48.33.44.43.72c.1.28.15.57.15.89s-.05.62-.15.9-.24.52-.42.73c-.18.21-.41.37-.67.5s-.56.18-.89.18c-.31,0-.59-.07-.86-.2s-.48-.32-.63-.58h-.02v.65h-1.03v-6.8h1.09ZM65.05,67c0-.17-.03-.33-.08-.5s-.13-.31-.23-.45-.23-.24-.39-.32c-.16-.08-.34-.12-.55-.12s-.38.04-.53.13c-.16.08-.29.19-.4.32s-.19.28-.25.45-.09.34-.09.5.03.33.09.5.14.31.25.45c.11.13.24.24.4.32s.33.12.53.12c.21,0,.39-.04.55-.13s.29-.19.39-.32.18-.28.23-.45.08-.34.08-.5Z" />
      <path
        d="M71.49,69.18h-1.03v-.69h-.02c-.1.22-.26.41-.5.57s-.52.25-.84.25c-.28,0-.52-.05-.72-.15-.2-.1-.37-.23-.49-.39-.13-.16-.22-.35-.28-.56s-.09-.43-.09-.65v-2.7h1.08v2.39c0,.13,0,.26.03.4.02.14.06.26.12.37.06.11.14.2.25.27.1.07.24.11.42.11s.32-.03.45-.1c.13-.07.23-.16.31-.27s.14-.23.18-.37.06-.28.06-.43v-2.38h1.08v4.32h-.01Z" />
      <path
        d="M72.99,63.39c0-.17.06-.33.19-.45.13-.13.29-.19.49-.19s.36.06.5.18c.13.12.2.28.2.46s-.07.34-.2.46c-.14.12-.3.18-.5.18s-.36-.06-.49-.19-.19-.28-.19-.45ZM73.15,64.86h1.08v4.32h-1.08v-4.32Z" />
      <path d="M75.89,62.38h1.08v6.8h-1.08v-6.8Z" />
      <path
        d="M78.06,65.72v-.86h.76v-1.25h1.06v1.25h1.08v.86h-1.08v2.01c0,.19.03.35.1.48s.22.19.46.19c.07,0,.15,0,.23-.02.08-.01.16-.04.23-.07l.04.85c-.1.04-.21.06-.34.09-.13.02-.26.03-.38.03-.29,0-.52-.04-.7-.12s-.32-.19-.43-.33-.18-.3-.22-.49c-.04-.18-.06-.38-.06-.59v-2.02h-.76,0Z" />
    </g>
    <g class="text-one">
      <path
        d="M25.23,83.3h-.81v-.76h.91l.16-1.1h-.81v-.76h.91l.27-1.88h.79l-.27,1.88h.93l.27-1.88h.78l-.27,1.88h.81v.76h-.92l-.15,1.1h.81v.76h-.9l-.28,1.88h-.78l.27-1.88h-.94l-.27,1.88h-.78l.27-1.88ZM26.28,81.45l-.15,1.1h.93l.15-1.1h-.93Z" />
      <path
        d="M30.36,78.81h2.26c.41,0,.83.05,1.25.16s.8.29,1.13.54c.34.25.61.58.82.98.21.41.31.91.31,1.51,0,.56-.1,1.04-.31,1.44s-.48.73-.82.99-.71.45-1.13.57-.84.18-1.25.18h-2.26v-6.37h0ZM32.43,84.19c.29,0,.59-.03.88-.1.29-.07.56-.19.8-.35.24-.16.43-.39.58-.67.15-.28.22-.64.22-1.07,0-.46-.07-.83-.22-1.12s-.34-.51-.58-.67-.5-.27-.8-.33-.59-.09-.88-.09h-.95v4.41h.95Z" />
      <path
        d="M41.64,83.07v.28h-3.28c0,.16.05.3.12.43s.16.24.27.33.24.17.39.22c.14.05.29.08.45.08.27,0,.5-.05.68-.15.19-.1.34-.24.46-.41l.72.58c-.43.58-1.04.86-1.85.86-.34,0-.65-.05-.93-.16s-.53-.25-.73-.45-.37-.43-.49-.71-.18-.6-.18-.95.06-.66.18-.95c.12-.29.28-.53.48-.73.2-.2.45-.36.72-.47.28-.11.58-.17.9-.17.3,0,.58.05.83.15.25.1.48.25.66.44s.33.44.44.73.16.63.16,1.02v.03ZM40.56,82.59c0-.14-.02-.27-.06-.4s-.1-.24-.18-.33c-.08-.1-.19-.17-.32-.23s-.28-.09-.45-.09c-.32,0-.6.1-.82.29-.22.2-.35.45-.37.75h2.21,0Z" />
      <path
        d="M45.43,82.01c-.1-.13-.23-.24-.4-.33-.17-.09-.35-.14-.55-.14-.17,0-.33.04-.48.11s-.22.19-.22.36.08.29.24.36.39.14.7.21c.16.04.33.08.49.14s.32.14.45.24.24.22.33.37c.08.15.13.33.13.54,0,.26-.05.49-.15.67s-.23.33-.4.45c-.17.11-.36.2-.58.25s-.45.08-.68.08c-.34,0-.66-.06-.98-.18s-.58-.3-.79-.53l.71-.67c.12.16.28.28.47.39.19.1.41.15.64.15.08,0,.16,0,.24-.03.08-.02.16-.05.23-.09.07-.04.12-.09.17-.16s.06-.15.06-.24c0-.18-.08-.31-.25-.39s-.41-.16-.74-.23c-.16-.04-.32-.08-.47-.14s-.29-.13-.41-.22c-.12-.09-.22-.21-.29-.35-.07-.14-.11-.31-.11-.51,0-.24.05-.45.15-.62.1-.17.23-.32.39-.43s.35-.19.55-.25c.2-.05.41-.08.63-.08.31,0,.62.05.91.16.3.11.53.27.71.5l-.7.62h0Z" />
      <path
        d="M47.32,79.39c0-.17.06-.33.19-.45s.29-.19.49-.19.36.06.5.18.2.28.2.46-.07.34-.2.46-.3.18-.5.18-.36-.06-.49-.19-.19-.28-.19-.45ZM47.47,80.86h1.08v4.32h-1.08v-4.32Z" />
      <path
        d="M54.59,80.86v3.93c0,.39-.05.74-.14,1.06-.1.31-.24.58-.45.8-.2.22-.45.39-.76.51-.31.12-.67.18-1.09.18-.17,0-.36-.01-.55-.04-.19-.03-.39-.08-.58-.13-.19-.06-.37-.14-.54-.23s-.33-.19-.47-.31l.62-.84c.21.2.45.35.71.45.26.1.53.16.8.16s.48-.04.65-.11.32-.18.42-.31c.11-.13.18-.29.23-.47.04-.18.07-.38.07-.6v-.32h-.02c-.16.21-.36.37-.6.49-.24.11-.51.17-.81.17-.32,0-.62-.06-.88-.18-.26-.12-.49-.28-.67-.49-.18-.2-.33-.44-.43-.72-.1-.27-.15-.56-.15-.87s.05-.61.15-.88c.1-.28.24-.52.42-.72.18-.2.4-.37.67-.49s.55-.18.88-.18c.31,0,.59.06.85.19s.47.32.63.58h.02v-.65h1.03v.02ZM52.28,81.62c-.2,0-.37.04-.53.11-.15.07-.28.17-.39.29s-.19.27-.24.44c-.06.17-.09.35-.09.54,0,.17.03.34.09.5s.14.31.24.44c.1.13.23.23.39.31.15.08.33.12.52.12s.38-.04.54-.11c.16-.08.29-.18.4-.3.11-.13.2-.27.26-.44.06-.16.09-.34.09-.52s-.03-.36-.09-.53c-.06-.17-.15-.31-.26-.44-.11-.13-.24-.22-.4-.3s-.33-.11-.53-.11h0Z" />
      <path
        d="M56.23,80.86h1.03v.69h.02c.1-.22.26-.41.5-.57.24-.17.52-.25.84-.25.28,0,.52.05.72.15.2.1.37.23.5.39.13.16.22.35.28.56.06.21.09.43.09.65v2.7h-1.08v-2.39c0-.13,0-.26-.03-.4-.02-.14-.06-.26-.12-.37-.06-.11-.14-.2-.25-.27-.1-.07-.24-.11-.42-.11s-.32.03-.45.1c-.13.07-.23.16-.31.27s-.14.23-.18.37-.06.28-.06.43v2.38h-1.08v-4.32h0Z" />
    </g>
    <g class="text-one">
      <path
        d="M25.23,99.3h-.81v-.76h.91l.16-1.1h-.81v-.76h.91l.27-1.88h.79l-.27,1.88h.93l.27-1.88h.78l-.27,1.88h.81v.76h-.92l-.15,1.1h.81v.76h-.9l-.28,1.88h-.78l.27-1.88h-.94l-.27,1.88h-.78l.27-1.88ZM26.28,97.45l-.15,1.1h.93l.15-1.1h-.93Z" />
      <path
        d="M34.95,96.3c-.17-.23-.39-.39-.66-.5-.27-.1-.53-.16-.79-.16-.33,0-.63.06-.9.18s-.5.29-.7.5c-.19.21-.34.46-.45.74s-.16.59-.16.92c0,.35.05.67.15.95.1.29.25.54.44.74.19.2.42.37.68.48.26.11.56.17.89.17s.65-.07.91-.2c.26-.14.48-.31.64-.54l.91.64c-.28.35-.63.63-1.04.82s-.88.29-1.43.29c-.5,0-.96-.08-1.37-.25-.42-.17-.78-.4-1.08-.69-.3-.3-.53-.65-.7-1.06s-.25-.87-.25-1.36.09-.97.27-1.38.42-.76.73-1.05.67-.51,1.09-.67.88-.23,1.37-.23c.2,0,.42.02.64.06s.44.1.64.18.4.18.58.3.33.26.46.43l-.86.68h0Z" />
      <path
        d="M36.71,99c0-.34.06-.65.18-.93.12-.28.29-.52.5-.72.21-.2.46-.35.75-.46.29-.11.59-.16.92-.16s.63.05.92.16c.29.11.54.26.75.46s.38.44.5.72c.12.28.18.59.18.93s-.06.65-.18.94c-.12.28-.29.52-.5.72s-.46.36-.75.47-.59.17-.92.17-.63-.06-.92-.17c-.29-.11-.54-.27-.75-.47-.21-.2-.38-.44-.5-.72-.12-.28-.18-.59-.18-.94ZM37.81,99c0,.17.03.34.08.5.05.17.13.32.23.45s.23.24.39.32.34.13.56.13.4-.04.56-.13.29-.19.39-.32.18-.28.23-.45.08-.34.08-.5-.03-.33-.08-.5c-.05-.17-.13-.31-.23-.45-.1-.13-.23-.24-.39-.32s-.34-.12-.56-.12-.4.04-.56.12-.29.19-.39.32-.18.28-.23.45-.08.33-.08.5Z" />
      <path
        d="M45.17,98.01c-.1-.13-.23-.24-.4-.33-.17-.09-.35-.14-.55-.14-.17,0-.33.04-.48.11s-.22.19-.22.36.08.29.24.36.39.14.7.21c.16.04.33.08.49.14s.32.14.45.24.24.22.33.37c.08.15.13.33.13.54,0,.26-.05.49-.15.67s-.23.33-.4.45c-.17.11-.36.2-.58.25s-.45.08-.68.08c-.34,0-.66-.06-.98-.18s-.58-.3-.79-.53l.71-.67c.12.16.28.28.47.39.19.1.41.15.64.15.08,0,.16,0,.24-.03.08-.02.16-.05.23-.09.07-.04.12-.09.17-.16s.06-.15.06-.24c0-.18-.08-.31-.25-.39s-.41-.16-.74-.23c-.16-.04-.32-.08-.47-.14s-.29-.13-.41-.22c-.12-.09-.22-.21-.29-.35-.07-.14-.11-.31-.11-.51,0-.24.05-.45.15-.62.1-.17.23-.32.39-.43s.35-.19.55-.25c.2-.05.41-.08.63-.08.31,0,.62.05.91.16.3.11.53.27.71.5l-.7.62h0Z" />
      <path
        d="M46.75,97.72v-.86h.76v-1.25h1.06v1.25h1.08v.86h-1.08v2.01c0,.19.03.35.1.48s.22.19.46.19c.07,0,.15,0,.23-.02.08-.01.16-.04.23-.07l.04.85c-.1.04-.21.06-.34.09-.13.02-.26.03-.38.03-.29,0-.52-.04-.7-.12s-.32-.19-.43-.33c-.1-.14-.18-.3-.22-.49s-.06-.38-.06-.59v-2.02h-.76.01Z" />
      <path
        d="M50.93,94.81h2.08c.37,0,.7.03.99.1s.55.17.76.32.37.34.49.58c.11.23.17.52.17.85,0,.35-.07.65-.2.89s-.31.43-.54.58-.49.25-.79.32-.62.1-.95.1h-.87v2.64h-1.13v-6.37h0ZM52.85,97.59c.19,0,.36-.01.53-.04.17-.03.32-.07.45-.14s.24-.16.32-.28c.08-.12.12-.28.12-.47s-.04-.34-.12-.45c-.08-.12-.18-.21-.31-.27-.13-.07-.28-.11-.44-.13s-.33-.03-.51-.03h-.83v1.83h.79v-.02Z" />
      <path
        d="M60.6,99.07v.28h-3.28c0,.16.05.3.12.43s.16.24.27.33.24.17.39.22c.14.05.29.08.45.08.27,0,.5-.05.68-.15.19-.1.34-.24.46-.41l.72.58c-.43.58-1.04.86-1.85.86-.34,0-.65-.05-.93-.16s-.53-.25-.73-.45-.37-.43-.49-.71-.18-.6-.18-.95.06-.66.18-.95c.12-.29.28-.53.48-.73.2-.2.45-.36.72-.47.28-.11.58-.17.9-.17.3,0,.58.05.83.15.25.1.48.25.66.44s.33.44.44.73.16.63.16,1.02v.03ZM59.52,98.59c0-.14-.02-.27-.06-.4s-.1-.24-.18-.33c-.08-.1-.19-.17-.32-.23s-.28-.09-.45-.09c-.32,0-.6.1-.82.29-.22.2-.35.45-.37.75h2.21,0Z" />
      <path
        d="M62,96.86h1.04v.72h.02c.12-.25.29-.46.5-.61.22-.16.47-.23.76-.23h.13c.05,0,.09.01.13.02v.99c-.07-.02-.13-.03-.18-.04h-.15c-.25,0-.44.04-.59.13s-.27.2-.35.32c-.08.13-.14.25-.17.39-.03.13-.04.24-.04.31v2.31h-1.08v-4.32h-.02Z" />
      <path
        d="M66.14,97.72h-.82v-.86h.82v-.64c0-.26.03-.51.09-.74.06-.24.15-.45.29-.63s.31-.32.54-.43c.22-.1.5-.16.84-.16.12,0,.22,0,.3.01.08,0,.16.03.25.05l-.07.92c-.06-.02-.12-.03-.19-.04-.07-.01-.14-.02-.22-.02-.16,0-.28.03-.38.09s-.17.14-.22.23c-.05.1-.09.2-.1.31-.02.11-.03.22-.03.33v.7h1v.86h-1v3.46h-1.08v-3.46l-.02.02Z" />
      <path
        d="M69.02,99c0-.34.06-.65.18-.93.12-.28.29-.52.5-.72.21-.2.46-.35.75-.46.29-.11.59-.16.92-.16s.63.05.92.16.54.26.75.46.38.44.5.72c.12.28.18.59.18.93s-.06.65-.18.94c-.12.28-.29.52-.5.72s-.46.36-.75.47-.59.17-.92.17-.63-.06-.92-.17-.54-.27-.75-.47c-.21-.2-.38-.44-.5-.72-.12-.28-.18-.59-.18-.94ZM70.11,99c0,.17.03.34.08.5.05.17.13.32.23.45.1.13.23.24.39.32.16.08.34.13.56.13s.4-.04.56-.13.29-.19.39-.32.18-.28.23-.45.08-.34.08-.5-.03-.33-.08-.5-.13-.31-.23-.45c-.1-.13-.23-.24-.39-.32-.16-.08-.34-.12-.56-.12s-.4.04-.56.12c-.16.08-.29.19-.39.32s-.18.28-.23.45-.08.33-.08.5Z" />
      <path
        d="M75.1,96.86h1.04v.72h.02c.12-.25.29-.46.5-.61.22-.16.47-.23.76-.23h.14c.05,0,.09.01.13.02v.99c-.07-.02-.13-.03-.18-.04h-.15c-.25,0-.44.04-.59.13-.15.09-.27.2-.35.32s-.14.25-.17.39c-.03.13-.04.24-.04.31v2.31h-1.08v-4.32h-.03Z" />
      <path
        d="M83.92,96.73c.28,0,.52.05.72.15.2.1.37.23.5.39.13.16.22.35.28.56s.09.43.09.65v2.7h-1.08v-2.39c0-.13,0-.26-.03-.4-.02-.14-.06-.26-.12-.37-.06-.11-.14-.2-.25-.27-.1-.07-.24-.11-.42-.11s-.31.04-.43.11-.22.17-.3.28c-.08.11-.14.24-.17.38-.04.14-.05.28-.05.42v2.36h-1.08v-2.61c0-.27-.06-.49-.19-.67-.13-.18-.33-.27-.61-.27-.16,0-.3.03-.42.1-.12.07-.22.16-.29.27s-.13.23-.17.37-.06.28-.06.43v2.38h-1.08v-4.32h1.03v.69h.02c.05-.11.11-.21.19-.31s.18-.18.29-.26.24-.14.38-.18c.14-.05.3-.07.48-.07.34,0,.61.08.84.23.22.15.39.35.51.59.14-.26.34-.47.58-.61.24-.14.52-.21.85-.21h0Z" />
      <path
        d="M89.8,100.63h-.03c-.11.19-.28.35-.52.47s-.51.18-.82.18c-.17,0-.36-.02-.54-.07-.19-.04-.36-.12-.52-.23-.16-.1-.29-.24-.4-.41s-.16-.38-.16-.63c0-.32.09-.58.27-.77s.42-.34.71-.44.61-.17.96-.2.69-.05,1.03-.05v-.11c0-.27-.1-.47-.29-.6s-.43-.19-.7-.19c-.23,0-.45.05-.66.14s-.38.21-.52.35l-.56-.66c.25-.23.53-.4.85-.51s.65-.17.98-.17c.38,0,.7.05.95.16s.45.25.59.42.24.37.3.59c.06.22.08.43.08.65v2.63h-1.01v-.55h.01ZM89.79,99.21h-.24c-.17,0-.36,0-.55.02s-.37.05-.53.1c-.16.05-.3.12-.41.22-.11.09-.16.22-.16.38,0,.1.02.19.07.26s.1.12.18.17c.07.04.15.07.24.09s.18.03.27.03c.37,0,.65-.1.85-.3.19-.2.29-.47.29-.81v-.15h0Z" />
      <path
        d="M92.43,96.86h1.03v.69h.02c.1-.22.26-.41.5-.57.24-.17.52-.25.84-.25.28,0,.52.05.72.15.2.1.37.23.5.39.13.16.22.35.28.56s.09.43.09.65v2.7h-1.08v-2.39c0-.13,0-.26-.03-.4-.02-.14-.06-.26-.12-.37-.06-.11-.14-.2-.25-.27-.1-.07-.24-.11-.42-.11s-.32.03-.45.1c-.13.07-.23.16-.31.27s-.14.23-.18.37-.06.28-.06.43v2.38h-1.08v-4.32h0Z" />
      <path
        d="M100.97,98.06c-.08-.12-.21-.22-.38-.3s-.34-.12-.51-.12c-.2,0-.37.04-.52.12-.15.08-.27.19-.37.32-.1.13-.17.28-.22.45s-.07.33-.07.5.03.33.08.5.13.31.23.45c.1.13.23.24.38.32.15.08.33.12.54.12.17,0,.34-.03.5-.1s.3-.16.41-.29l.67.68c-.18.19-.41.34-.69.45-.28.1-.58.16-.9.16s-.62-.05-.9-.15c-.29-.1-.53-.25-.75-.45-.21-.2-.38-.44-.5-.72-.12-.28-.18-.6-.18-.96s.06-.66.18-.94.29-.52.5-.72c.21-.2.45-.35.73-.46.28-.11.58-.16.9-.16s.63.06.92.18.53.29.71.5l-.74.65-.02-.03Z" />
      <path
        d="M106.84,99.07v.28h-3.28c.01.16.05.3.12.43s.16.24.27.33c.11.09.24.17.39.22.14.05.29.08.45.08.27,0,.5-.05.68-.15.19-.1.34-.24.46-.41l.72.58c-.43.58-1.04.86-1.85.86-.34,0-.65-.05-.93-.16s-.53-.25-.73-.45-.37-.43-.49-.71-.18-.6-.18-.95.06-.66.18-.95c.12-.29.28-.53.48-.73.2-.2.45-.36.72-.47.28-.11.58-.17.9-.17.3,0,.58.05.83.15.25.1.48.25.66.44s.33.44.44.73.16.63.16,1.02v.03ZM105.76,98.59c0-.14-.02-.27-.06-.4s-.1-.24-.18-.33c-.08-.1-.19-.17-.32-.23s-.28-.09-.45-.09c-.32,0-.6.1-.82.29-.22.2-.35.45-.37.75h2.21-.01Z" />
    </g>
    <g class="text-one">
      <path
        d="M25.23,115.3h-.81v-.76h.91l.16-1.1h-.81v-.76h.91l.27-1.88h.79l-.27,1.88h.93l.27-1.88h.78l-.27,1.88h.81v.76h-.92l-.15,1.1h.81v.76h-.9l-.28,1.88h-.78l.27-1.88h-.94l-.27,1.88h-.78l.27-1.88ZM26.28,113.45l-.15,1.1h.93l.15-1.1h-.93Z" />
      <path d="M30.36,110.81h4.22v.99h-3.09v1.62h2.92v.95h-2.92v1.8h3.25v1.01h-4.38s0-6.37,0-6.37Z" />
      <path
        d="M37.42,114.89l-1.56-2.03h1.3l.94,1.34.96-1.34h1.24l-1.55,2.03,1.76,2.29h-1.31l-1.12-1.58-1.13,1.58h-1.28l1.76-2.29h0Z" />
      <path
        d="M41.13,113.72v-.86h.76v-1.25h1.06v1.25h1.08v.86h-1.08v2.01c0,.19.03.35.1.48s.22.19.46.19c.07,0,.15,0,.23-.02.08-.01.16-.04.22-.07l.04.85c-.1.04-.21.06-.34.09-.13.02-.26.03-.38.03-.29,0-.52-.04-.7-.12s-.32-.19-.43-.33c-.1-.14-.18-.3-.22-.49s-.06-.38-.06-.59v-2.02h-.76.02Z" />
      <path
        d="M49.26,115.07v.28h-3.28c0,.16.05.3.12.43s.16.24.27.33.24.17.39.22c.14.05.29.08.45.08.27,0,.5-.05.68-.15.19-.1.34-.24.46-.41l.72.58c-.43.58-1.04.86-1.85.86-.34,0-.64-.05-.93-.16s-.53-.25-.73-.45-.37-.43-.49-.71c-.12-.28-.18-.6-.18-.95s.06-.66.18-.95c.12-.29.28-.53.48-.73s.45-.36.72-.47c.28-.11.58-.17.9-.17.3,0,.58.05.83.15.25.1.48.25.66.44.19.19.33.44.44.73.1.29.16.63.16,1.02v.03ZM48.18,114.59c0-.14-.02-.27-.06-.4s-.1-.24-.18-.33c-.08-.1-.19-.17-.32-.23s-.28-.09-.45-.09c-.32,0-.6.1-.82.29-.23.2-.35.45-.37.75h2.21,0Z" />
      <path
        d="M50.67,112.86h1.04v.72h.02c.12-.25.29-.46.5-.61.22-.16.47-.23.76-.23h.14s.09.01.13.02v.99c-.07-.02-.13-.03-.18-.04h-.15c-.25,0-.44.04-.59.13s-.27.2-.35.32-.14.25-.17.39c-.03.13-.04.24-.04.31v2.31h-1.08v-4.32h-.03Z" />
      <path
        d="M54.18,111.39c0-.17.06-.33.19-.45.13-.13.29-.19.49-.19s.36.06.5.18.2.28.2.46-.07.34-.2.46-.3.18-.5.18-.36-.06-.49-.19-.19-.28-.19-.45ZM54.33,112.86h1.08v4.32h-1.08v-4.32Z" />
      <path
        d="M56.8,115c0-.34.06-.65.18-.93.12-.28.29-.52.5-.72.21-.2.46-.35.75-.46s.59-.16.92-.16.63.05.92.16.54.26.75.46.38.44.5.72c.12.28.18.59.18.93s-.06.65-.18.94c-.12.28-.29.52-.5.72s-.46.36-.75.47-.59.17-.92.17-.63-.06-.92-.17c-.29-.11-.54-.27-.75-.47s-.38-.44-.5-.72c-.12-.28-.18-.59-.18-.94ZM57.9,115c0,.17.03.34.08.5.05.17.13.32.23.45s.23.24.39.32.34.13.56.13.4-.04.56-.13.28-.19.39-.32c.1-.13.18-.28.23-.45s.08-.34.08-.5-.03-.33-.08-.5c-.05-.17-.13-.31-.23-.45-.1-.13-.23-.24-.39-.32s-.34-.12-.56-.12-.4.04-.56.12-.29.19-.39.32-.18.28-.23.45-.08.33-.08.5Z" />
      <path
        d="M62.89,112.86h1.04v.72h.02c.12-.25.29-.46.5-.61.22-.16.47-.23.76-.23h.13c.05,0,.09.01.13.02v.99c-.07-.02-.13-.03-.18-.04h-.15c-.25,0-.44.04-.59.13-.15.09-.27.2-.35.32-.08.13-.14.25-.17.39-.03.13-.04.24-.04.31v2.31h-1.08v-4.32h-.02Z" />
    </g>
    <g class="text-one">
      <path
        d="M25.23,131.3h-.81v-.76h.91l.16-1.1h-.81v-.76h.91l.27-1.88h.79l-.27,1.88h.93l.27-1.88h.78l-.27,1.88h.81v.76h-.92l-.15,1.1h.81v.76h-.9l-.28,1.88h-.78l.27-1.88h-.94l-.27,1.88h-.78l.27-1.88ZM26.28,129.45l-.15,1.1h.93l.15-1.1h-.93Z" />
      <path d="M30.35,126.81h1.13v6.37h-1.13v-6.37Z" />
      <path
        d="M33.2,128.86h1.03v.69h.02c.1-.22.26-.41.5-.57.24-.17.52-.25.84-.25.28,0,.52.05.72.15.2.1.37.23.5.39.13.16.22.35.28.56.06.21.09.43.09.65v2.7h-1.08v-2.39c0-.13,0-.26-.03-.4-.02-.14-.06-.26-.12-.37-.06-.11-.14-.2-.25-.27-.1-.07-.24-.11-.42-.11s-.32.03-.45.1c-.13.07-.23.16-.31.27s-.14.23-.18.37-.06.28-.06.43v2.38h-1.08v-4.32h0Z" />
      <path
        d="M38.19,129.72v-.86h.76v-1.25h1.06v1.25h1.08v.86h-1.08v2.01c0,.19.03.35.1.48s.22.19.46.19c.07,0,.15,0,.23-.02.08-.01.16-.04.23-.07l.04.85c-.1.04-.21.06-.34.09-.13.02-.26.03-.38.03-.29,0-.52-.04-.7-.12s-.32-.19-.43-.33-.18-.3-.22-.49c-.04-.18-.06-.38-.06-.59v-2.02h-.76.01Z" />
      <path
        d="M46.32,131.07v.28h-3.29c0,.16.05.3.12.43s.16.24.27.33.24.17.39.22c.14.05.29.08.45.08.27,0,.5-.05.68-.15.19-.1.34-.24.46-.41l.72.58c-.43.58-1.04.86-1.85.86-.34,0-.65-.05-.93-.16-.28-.1-.53-.25-.73-.45-.21-.19-.37-.43-.49-.71-.12-.28-.18-.6-.18-.95s.06-.66.18-.95c.12-.29.28-.53.48-.73.2-.2.45-.36.72-.47.28-.11.58-.17.9-.17.3,0,.58.05.83.15.26.1.48.25.66.44.19.19.33.44.44.73.1.29.16.63.16,1.02v.03ZM45.24,130.59c0-.14-.02-.27-.06-.4s-.1-.24-.18-.33c-.08-.1-.19-.17-.32-.23s-.28-.09-.45-.09c-.32,0-.6.1-.82.29-.23.2-.35.45-.37.75h2.21,0Z" />
      <path
        d="M47.72,128.86h1.04v.72h.02c.12-.25.29-.46.5-.61.22-.16.47-.23.76-.23h.13s.09.01.13.02v.99c-.07-.02-.13-.03-.18-.04h-.15c-.25,0-.44.04-.59.13s-.27.2-.35.32c-.08.13-.14.25-.17.39-.03.13-.04.24-.04.31v2.31h-1.08v-4.32h-.02Z" />
      <path
        d="M51.24,127.39c0-.17.06-.33.19-.45s.29-.19.49-.19.36.06.5.18.2.28.2.46-.07.34-.2.46-.3.18-.5.18-.36-.06-.49-.19-.19-.28-.19-.45ZM51.39,128.86h1.08v4.32h-1.08v-4.32Z" />
      <path
        d="M53.86,131c0-.34.06-.65.18-.93.12-.28.29-.52.5-.72.21-.2.46-.35.75-.46.29-.11.59-.16.92-.16s.63.05.92.16c.29.11.54.26.75.46s.38.44.5.72c.12.28.18.59.18.93s-.06.65-.18.94c-.12.28-.29.52-.5.72s-.46.36-.75.47-.59.17-.92.17-.63-.06-.92-.17c-.29-.11-.54-.27-.75-.47-.21-.2-.38-.44-.5-.72-.12-.28-.18-.59-.18-.94ZM54.95,131c0,.17.03.34.08.5.05.17.13.32.23.45s.23.24.39.32.34.13.56.13.4-.04.56-.13.29-.19.39-.32.18-.28.23-.45.08-.34.08-.5-.03-.33-.08-.5c-.05-.17-.13-.31-.23-.45-.1-.13-.23-.24-.39-.32s-.34-.12-.56-.12-.4.04-.56.12-.29.19-.39.32-.18.28-.23.45-.08.33-.08.5Z" />
      <path
        d="M59.94,128.86h1.04v.72h.02c.12-.25.29-.46.5-.61.22-.16.47-.23.76-.23h.14s.09.01.13.02v.99c-.07-.02-.13-.03-.18-.04h-.15c-.25,0-.44.04-.59.13s-.27.2-.35.32-.14.25-.17.39c-.03.13-.04.24-.04.31v2.31h-1.08v-4.32h-.03Z" />
    </g>
  </g>
</svg>