<?xml version="1.0" encoding="utf-8"?>
<svg xmlns="http://www.w3.org/2000/svg" version="1.1" viewBox="0 0 1920 1060">
  <defs>
    <style>
      /* TOPアニメーション 文字 ------- */
      .text_box-small {
      fill: #1c1c1c;
      }
      .text_box-medium {
      fill: #1b1b1b;
      }
      .text_box-big {
      fill: #040000;
      }
      .text_box-hd {
      fill: #1b1b1b;
      }
      .text-h, .text-arrow_text, .text-one {
      opacity: 0;
      animation: text_bg 1s forwards;
      animation-delay: 7.5s;
      }
      .text-h {
      transform: translate(0, 20px);
      }
      .text-arrow {
      opacity: 0;
      animation: fadeIn 1s forwards;
      animation-delay: 8.5s;
      }
      .text-arrow_box {
      transform: translate(0, 0px);
      animation: text_arrow 1s forwards;
      animation-delay: 8.5s;
      }
      .text-arrow_text {
      transform: translate(0, 20px);
      }
      .text-one {
      transform: translate(0, 20px);
      }
      .text-one:nth-of-type(1) {
      animation-delay: 7.5s;
      }
      .text-one:nth-of-type(2) {
      animation-delay: 7.9s;
      }
      .text-one:nth-of-type(3) {
      animation-delay: 8.4s;
      }
      .text-one:nth-of-type(4) {
      animation-delay: 8.7s;
      }
      .text-one:nth-of-type(5) {
      animation-delay: 8.9s;
      }
      .text-one:nth-of-type(6) {
      animation-delay: 9.82s;
      }

      @keyframes text_bg {
      100% {
      opacity: 1;
      transform: translate(0, 0);
      }
      }
      @keyframes text_arrow {
      100% {
      transform: translate(0, -20px);
      }
      }
      @keyframes fadeIn {
      100% {
      opacity: 1;
      }
      }
</style>
  </defs>
  <g class="text_box-small">
    <g class="text-one">
      <path
        d="M1129.98,787.49h-1.8v-1.68h2.02l.36-2.44h-1.8v-1.68h2.02l.6-4.18h1.76l-.6,4.18h2.06l.6-4.18h1.74l-.6,4.18h1.8v1.68h-2.04l-.34,2.44h1.8v1.68h-2l-.62,4.18h-1.74l.6-4.18h-2.08l-.6,4.18h-1.74l.6-4.18ZM1132.3,783.37l-.34,2.44h2.06l.34-2.44h-2.06Z" />
      <path
        d="M1140.75,784.55c0-1.13.19-2.16.57-3.07.38-.91.91-1.69,1.58-2.33.67-.64,1.47-1.13,2.4-1.48.93-.35,1.94-.52,3.03-.52s2.13.17,3.06.52c.93.35,1.74.84,2.42,1.48.68.64,1.21,1.42,1.59,2.33.38.91.57,1.94.57,3.07s-.19,2.12-.57,3.03c-.38.91-.91,1.7-1.59,2.36-.68.66-1.49,1.17-2.42,1.54-.93.37-1.95.55-3.06.55s-2.1-.18-3.03-.55c-.93-.37-1.73-.88-2.4-1.54-.67-.66-1.2-1.45-1.58-2.36-.38-.91-.57-1.92-.57-3.03ZM1143.49,784.55c0,.76.12,1.46.35,2.09.23.63.57,1.18,1,1.65.43.47.95.83,1.54,1.09.59.26,1.25.39,1.97.39s1.38-.13,1.98-.39c.6-.26,1.12-.62,1.55-1.09.43-.47.77-1.02,1-1.65.23-.63.35-1.33.35-2.09s-.12-1.41-.35-2.04-.56-1.17-.99-1.64c-.43-.47-.94-.83-1.54-1.1-.6-.27-1.27-.4-2-.4s-1.4.13-1.99.4c-.59.27-1.1.63-1.53,1.1-.43.47-.76,1.01-.99,1.64-.23.63-.35,1.31-.35,2.04Z" />
      <path
        d="M1159.25,782.07h2.3v1.6h.04c.27-.56.64-1.01,1.12-1.36.48-.35,1.04-.52,1.68-.52.09,0,.19,0,.3,0,.11,0,.2.02.28.05v2.2c-.16-.04-.3-.07-.41-.08-.11-.01-.22-.02-.33-.02-.55,0-.99.1-1.32.3-.33.2-.59.44-.78.72-.19.28-.31.57-.38.86-.07.29-.1.53-.1.7v5.14h-2.4v-9.6Z" />
      <path
        d="M1177.22,791.67h-2.28v-1.44h-.04c-.33.56-.8.99-1.39,1.28-.59.29-1.23.44-1.91.44-.73,0-1.39-.14-1.97-.41-.58-.27-1.07-.64-1.48-1.1-.41-.46-.72-1-.94-1.62-.22-.62-.33-1.28-.33-1.99s.11-1.37.34-1.98c.23-.61.55-1.15.96-1.6.41-.45.91-.81,1.48-1.07.57-.26,1.2-.39,1.88-.39.44,0,.83.05,1.18.15.35.1.65.22.91.37.26.15.48.31.67.48.19.17.34.34.46.5h.06v-6.74h2.4v15.12ZM1169.32,786.83c0,.37.06.75.17,1.12.11.37.28.71.51,1,.23.29.51.53.86.72.35.19.75.28,1.22.28.44,0,.83-.09,1.18-.27.35-.18.64-.42.89-.71.25-.29.43-.62.56-.99.13-.37.19-.74.19-1.11s-.06-.75-.19-1.12c-.13-.37-.31-.71-.56-1-.25-.29-.54-.53-.89-.72-.35-.19-.74-.28-1.18-.28-.47,0-.87.09-1.22.27-.35.18-.63.42-.86.71-.23.29-.4.62-.51.99-.11.37-.17.74-.17,1.11Z" />
      <path
        d="M1190.16,786.99v.32c0,.11,0,.21-.02.32h-7.3c.03.35.12.66.27.95.15.29.36.53.61.74.25.21.54.37.86.49.32.12.65.18,1,.18.6,0,1.11-.11,1.52-.33.41-.22.75-.52,1.02-.91l1.6,1.28c-.95,1.28-2.32,1.92-4.12,1.92-.75,0-1.43-.12-2.06-.35-.63-.23-1.17-.56-1.63-.99-.46-.43-.82-.95-1.08-1.57-.26-.62-.39-1.32-.39-2.11s.13-1.48.39-2.11c.26-.63.62-1.17,1.07-1.62.45-.45.99-.79,1.61-1.04.62-.25,1.29-.37,2.01-.37.67,0,1.28.11,1.85.33.57.22,1.06.55,1.47.98.41.43.74.97.97,1.62.23.65.35,1.4.35,2.27ZM1187.76,785.91c0-.31-.04-.6-.13-.88-.09-.28-.22-.53-.41-.74-.19-.21-.42-.38-.71-.51-.29-.13-.62-.19-1.01-.19-.72,0-1.33.22-1.83.65-.5.43-.78.99-.83,1.67h4.92Z" />
      <path
        d="M1193.37,782.07h2.3v1.6h.04c.27-.56.64-1.01,1.12-1.36.48-.35,1.04-.52,1.68-.52.09,0,.19,0,.3,0,.11,0,.2.02.28.05v2.2c-.16-.04-.3-.07-.41-.08-.11-.01-.22-.02-.33-.02-.55,0-.99.1-1.32.3-.33.2-.59.44-.78.72-.19.28-.31.57-.38.86-.07.29-.1.53-.1.7v5.14h-2.4v-9.6Z" />
      <path
        d="M1213.04,781.79c.63,0,1.16.11,1.61.33.45.22.81.51,1.1.87.29.36.5.77.63,1.24.13.47.2.95.2,1.44v6h-2.4v-5.32c0-.28-.02-.57-.06-.88-.04-.31-.13-.58-.26-.83-.13-.25-.32-.45-.55-.61-.23-.16-.54-.24-.93-.24s-.69.08-.96.24c-.27.16-.49.37-.66.62-.17.25-.3.54-.38.85-.08.31-.12.62-.12.93v5.24h-2.4v-5.8c0-.6-.14-1.1-.43-1.49-.29-.39-.74-.59-1.35-.59-.36,0-.67.08-.94.23-.27.15-.48.35-.65.59-.17.24-.29.52-.38.83-.09.31-.13.63-.13.95v5.28h-2.4v-9.6h2.28v1.54h.04c.11-.24.25-.47.43-.68.18-.21.39-.41.64-.58.25-.17.53-.31.85-.41.32-.1.67-.15,1.06-.15.75,0,1.37.17,1.86.5.49.33.87.77,1.14,1.32.32-.59.75-1.04,1.28-1.35.53-.31,1.16-.47,1.88-.47Z" />
      <path
        d="M1226.21,790.45h-.06c-.24.43-.63.78-1.16,1.05-.53.27-1.14.41-1.82.41-.39,0-.79-.05-1.21-.15-.42-.1-.81-.27-1.16-.5-.35-.23-.65-.54-.88-.92-.23-.38-.35-.85-.35-1.41,0-.72.2-1.29.61-1.72.41-.43.93-.75,1.57-.98.64-.23,1.35-.38,2.13-.45.78-.07,1.54-.11,2.29-.11v-.24c0-.6-.22-1.04-.65-1.33-.43-.29-.95-.43-1.55-.43-.51,0-.99.11-1.46.32-.47.21-.85.47-1.16.78l-1.24-1.46c.55-.51,1.18-.89,1.89-1.14.71-.25,1.44-.38,2.17-.38.85,0,1.56.12,2.11.36.55.24.99.55,1.31.94.32.39.54.82.67,1.3.13.48.19.96.19,1.44v5.84h-2.24v-1.22ZM1226.17,787.29h-.54c-.39,0-.79.02-1.22.05-.43.03-.82.11-1.18.22-.36.11-.66.27-.9.48-.24.21-.36.49-.36.85,0,.23.05.42.15.57.1.15.23.28.39.37.16.09.34.16.54.2.2.04.4.06.6.06.83,0,1.45-.22,1.88-.66.43-.44.64-1.04.64-1.8v-.34Z" />
      <path
        d="M1241.91,791.67h-2.28v-1.44h-.04c-.33.56-.8.99-1.39,1.28-.59.29-1.23.44-1.91.44-.73,0-1.39-.14-1.97-.41-.58-.27-1.07-.64-1.48-1.1-.41-.46-.72-1-.94-1.62-.22-.62-.33-1.28-.33-1.99s.11-1.37.34-1.98c.23-.61.55-1.15.96-1.6.41-.45.91-.81,1.48-1.07.57-.26,1.2-.39,1.88-.39.44,0,.83.05,1.18.15.35.1.65.22.91.37.26.15.48.31.67.48.19.17.34.34.46.5h.06v-6.74h2.4v15.12ZM1234.01,786.83c0,.37.06.75.17,1.12.11.37.28.71.51,1,.23.29.51.53.86.72.35.19.75.28,1.22.28.44,0,.83-.09,1.18-.27.35-.18.64-.42.89-.71.25-.29.43-.62.56-.99.13-.37.19-.74.19-1.11s-.06-.75-.19-1.12c-.13-.37-.31-.71-.56-1-.25-.29-.54-.53-.89-.72-.35-.19-.74-.28-1.18-.28-.47,0-.87.09-1.22.27-.35.18-.63.42-.86.71-.23.29-.4.62-.51.99-.11.37-.17.74-.17,1.11Z" />
      <path
        d="M1254.85,786.99v.32c0,.11,0,.21-.02.32h-7.3c.03.35.12.66.27.95.15.29.36.53.61.74.25.21.54.37.86.49.32.12.65.18,1,.18.6,0,1.11-.11,1.52-.33.41-.22.75-.52,1.02-.91l1.6,1.28c-.95,1.28-2.32,1.92-4.12,1.92-.75,0-1.43-.12-2.06-.35-.63-.23-1.17-.56-1.63-.99-.46-.43-.82-.95-1.08-1.57-.26-.62-.39-1.32-.39-2.11s.13-1.48.39-2.11c.26-.63.62-1.17,1.07-1.62.45-.45.99-.79,1.61-1.04.62-.25,1.29-.37,2.01-.37.67,0,1.28.11,1.85.33.57.22,1.06.55,1.47.98.41.43.74.97.97,1.62.23.65.35,1.4.35,2.27ZM1252.45,785.91c0-.31-.04-.6-.13-.88-.09-.28-.22-.53-.41-.74-.19-.21-.42-.38-.71-.51-.29-.13-.62-.19-1.01-.19-.72,0-1.33.22-1.83.65-.5.43-.78.99-.83,1.67h4.92Z" />
    </g>
    <g class="text-one">
      <path
        d="M1129.98,823.49h-1.8v-1.68h2.02l.36-2.44h-1.8v-1.68h2.02l.6-4.18h1.76l-.6,4.18h2.06l.6-4.18h1.74l-.6,4.18h1.8v1.68h-2.04l-.34,2.44h1.8v1.68h-2l-.62,4.18h-1.74l.6-4.18h-2.08l-.6,4.18h-1.74l.6-4.18ZM1132.3,819.37l-.34,2.44h2.06l.34-2.44h-2.06Z" />
      <path
        d="M1141.45,813.51h4.92c.67,0,1.31.07,1.94.21.63.14,1.18.37,1.67.69.49.32.88.74,1.17,1.26.29.52.44,1.15.44,1.9,0,1.03-.29,1.86-.87,2.51-.58.65-1.37,1.08-2.37,1.31l3.78,6.28h-3.04l-3.28-6h-1.84v6h-2.52v-14.16ZM1146.03,819.61c.36,0,.72-.03,1.08-.08.36-.05.68-.15.97-.3.29-.15.52-.36.71-.63.19-.27.28-.62.28-1.05,0-.39-.09-.7-.26-.95-.17-.25-.39-.44-.66-.59-.27-.15-.57-.25-.91-.3-.34-.05-.67-.08-.99-.08h-2.28v3.98h2.06Z" />
      <path
        d="M1163.78,822.99v.32c0,.11,0,.21-.02.32h-7.3c.03.35.12.66.27.95.15.29.36.53.61.74.25.21.54.37.86.49.32.12.65.18,1,.18.6,0,1.11-.11,1.52-.33.41-.22.75-.52,1.02-.91l1.6,1.28c-.95,1.28-2.32,1.92-4.12,1.92-.75,0-1.43-.12-2.06-.35-.63-.23-1.17-.56-1.63-.99-.46-.43-.82-.95-1.08-1.57-.26-.62-.39-1.32-.39-2.11s.13-1.48.39-2.11c.26-.63.62-1.17,1.07-1.62.45-.45.99-.79,1.61-1.04.62-.25,1.29-.37,2.01-.37.67,0,1.28.11,1.85.33.57.22,1.06.55,1.47.98.41.43.74.97.97,1.62.23.65.35,1.4.35,2.27ZM1161.38,821.91c0-.31-.04-.6-.13-.88-.09-.28-.22-.53-.41-.74-.19-.21-.42-.38-.71-.51-.29-.13-.62-.19-1.01-.19-.72,0-1.33.22-1.83.65-.5.43-.78.99-.83,1.67h4.92Z" />
      <path
        d="M1172.86,826.45h-.06c-.24.43-.63.78-1.16,1.05-.53.27-1.14.41-1.82.41-.39,0-.79-.05-1.21-.15-.42-.1-.81-.27-1.16-.5-.35-.23-.65-.54-.88-.92-.23-.38-.35-.85-.35-1.41,0-.72.2-1.29.61-1.72.41-.43.93-.75,1.57-.98.64-.23,1.35-.38,2.13-.45.78-.07,1.54-.11,2.29-.11v-.24c0-.6-.22-1.04-.65-1.33-.43-.29-.95-.43-1.55-.43-.51,0-.99.11-1.46.32-.47.21-.85.47-1.16.78l-1.24-1.46c.55-.51,1.18-.89,1.89-1.14.71-.25,1.44-.38,2.17-.38.85,0,1.56.12,2.11.36.55.24.99.55,1.31.94.32.39.54.82.67,1.3.13.48.19.96.19,1.44v5.84h-2.24v-1.22ZM1172.82,823.29h-.54c-.39,0-.79.02-1.22.05-.43.03-.82.11-1.18.22-.36.11-.66.27-.9.48-.24.21-.36.49-.36.85,0,.23.05.42.15.57.1.15.23.28.39.37.16.09.34.16.54.2.2.04.4.06.6.06.83,0,1.45-.22,1.88-.66.43-.44.64-1.04.64-1.8v-.34Z" />
      <path
        d="M1188.56,827.67h-2.28v-1.44h-.04c-.33.56-.8.99-1.39,1.28-.59.29-1.23.44-1.91.44-.73,0-1.39-.14-1.97-.41-.58-.27-1.07-.64-1.48-1.1-.41-.46-.72-1-.94-1.62-.22-.62-.33-1.28-.33-1.99s.11-1.37.34-1.98c.23-.61.55-1.15.96-1.6.41-.45.91-.81,1.48-1.07.57-.26,1.2-.39,1.88-.39.44,0,.83.05,1.18.15.35.1.65.22.91.37.26.15.48.31.67.48.19.17.34.34.46.5h.06v-6.74h2.4v15.12ZM1180.66,822.83c0,.37.06.75.17,1.12.11.37.28.71.51,1,.23.29.51.53.86.72.35.19.75.28,1.22.28.44,0,.83-.09,1.18-.27.35-.18.64-.42.89-.71.25-.29.43-.62.56-.99.13-.37.19-.74.19-1.11s-.06-.75-.19-1.12c-.13-.37-.31-.71-.56-1-.25-.29-.54-.53-.89-.72-.35-.19-.74-.28-1.18-.28-.47,0-.87.09-1.22.27-.35.18-.63.42-.86.71-.23.29-.4.62-.51.99-.11.37-.17.74-.17,1.11Z" />
      <path
        d="M1191.02,818.07h2.66l2.68,6.98h.04l2.38-6.98h2.5l-4.54,11.66c-.17.44-.36.83-.56,1.17-.2.34-.44.63-.72.86-.28.23-.61.41-.99.53-.38.12-.84.18-1.37.18-.2,0-.4,0-.61-.03-.21-.02-.42-.06-.63-.11l.2-2.08c.16.05.32.09.47.11s.3.03.43.03c.25,0,.47-.03.64-.09.17-.06.32-.15.44-.28.12-.13.23-.28.32-.47.09-.19.19-.41.3-.66l.48-1.22-4.12-9.6Z" />
      <path d="M1207.8,823.77h-4.8v-2.04h4.8v2.04Z" />
      <path
        d="M1213.59,812.55v6.74h.06c.12-.16.27-.33.46-.5.19-.17.41-.33.67-.48.26-.15.56-.27.91-.37s.74-.15,1.18-.15c.68,0,1.31.13,1.88.39.57.26,1.07.62,1.48,1.07.41.45.73.99.96,1.6.23.61.34,1.27.34,1.98s-.11,1.37-.33,1.99c-.22.62-.53,1.16-.94,1.62s-.9.83-1.48,1.1c-.58.27-1.24.41-1.97.41-.68,0-1.32-.15-1.91-.44-.59-.29-1.06-.72-1.39-1.28h-.04v1.44h-2.28v-15.12h2.4ZM1219.09,822.83c0-.37-.06-.74-.17-1.11-.11-.37-.28-.7-.51-.99-.23-.29-.51-.53-.86-.71-.35-.18-.75-.27-1.22-.27-.44,0-.83.09-1.18.28-.35.19-.64.43-.89.72-.25.29-.43.63-.56,1-.13.37-.19.75-.19,1.12s.06.74.19,1.11c.13.37.31.7.56.99.25.29.54.53.89.71.35.18.74.27,1.18.27.47,0,.87-.09,1.22-.28.35-.19.63-.43.86-.72.23-.29.4-.63.51-1,.11-.37.17-.75.17-1.12Z" />
      <path
        d="M1233.49,827.67h-2.28v-1.54h-.04c-.21.48-.58.9-1.11,1.27-.53.37-1.15.55-1.87.55-.63,0-1.16-.11-1.61-.33-.45-.22-.81-.51-1.1-.87-.29-.36-.5-.77-.63-1.24-.13-.47-.2-.95-.2-1.44v-6h2.4v5.32c0,.28.02.57.06.88.04.31.13.58.26.83.13.25.32.45.55.61.23.16.54.24.93.24s.7-.08.99-.23c.29-.15.52-.35.7-.59.18-.24.32-.52.41-.83.09-.31.14-.63.14-.95v-5.28h2.4v9.6Z" />
      <path
        d="M1236.91,814.81c0-.39.14-.72.43-1.01.29-.29.65-.43,1.09-.43s.81.14,1.11.41c.3.27.45.62.45,1.03s-.15.76-.45,1.03c-.3.27-.67.41-1.11.41s-.8-.14-1.09-.43c-.29-.29-.43-.62-.43-1.01ZM1237.25,818.07h2.4v9.6h-2.4v-9.6Z" />
      <path d="M1243.42,812.55h2.4v15.12h-2.4v-15.12Z" />
      <path
        d="M1248.35,819.99v-1.92h1.68v-2.78h2.36v2.78h2.4v1.92h-2.4v4.46c0,.43.08.78.23,1.06.15.28.5.42,1.03.42.16,0,.33-.02.52-.05.19-.03.35-.08.5-.15l.08,1.88c-.21.08-.47.14-.76.19-.29.05-.57.07-.84.07-.64,0-1.16-.09-1.56-.27-.4-.18-.72-.43-.95-.74-.23-.31-.39-.67-.48-1.08-.09-.41-.13-.84-.13-1.31v-4.48h-1.68Z" />
    </g>
    <g class="text-one">
      <path
        d="M1129.98,859.49h-1.8v-1.68h2.02l.36-2.44h-1.8v-1.68h2.02l.6-4.18h1.76l-.6,4.18h2.06l.6-4.18h1.74l-.6,4.18h1.8v1.68h-2.04l-.34,2.44h1.8v1.68h-2l-.62,4.18h-1.74l.6-4.18h-2.08l-.6,4.18h-1.74l.6-4.18ZM1132.3,855.37l-.34,2.44h2.06l.34-2.44h-2.06Z" />
      <path
        d="M1141.45,849.51h5.02c.92,0,1.85.12,2.78.36s1.77.64,2.52,1.19c.75.55,1.35,1.28,1.82,2.18.47.9.7,2.02.7,3.35,0,1.24-.23,2.31-.7,3.2-.47.89-1.07,1.63-1.82,2.2-.75.57-1.59,1-2.52,1.27-.93.27-1.86.41-2.78.41h-5.02v-14.16ZM1146.07,861.47c.65,0,1.31-.08,1.96-.23.65-.15,1.24-.41,1.77-.78.53-.37.96-.86,1.29-1.49.33-.63.5-1.42.5-2.38,0-1.01-.17-1.84-.5-2.48-.33-.64-.76-1.14-1.29-1.5-.53-.36-1.12-.61-1.77-.74-.65-.13-1.31-.2-1.96-.2h-2.1v9.8h2.1Z" />
      <path
        d="M1166.61,858.99v.32c0,.11,0,.21-.02.32h-7.3c.03.35.12.66.27.95.15.29.36.53.61.74.25.21.54.37.86.49.32.12.65.18,1,.18.6,0,1.11-.11,1.52-.33.41-.22.75-.52,1.02-.91l1.6,1.28c-.95,1.28-2.32,1.92-4.12,1.92-.75,0-1.43-.12-2.06-.35-.63-.23-1.17-.56-1.63-.99-.46-.43-.82-.95-1.08-1.57-.26-.62-.39-1.32-.39-2.11s.13-1.48.39-2.11c.26-.63.62-1.17,1.07-1.62.45-.45.99-.79,1.61-1.04.62-.25,1.29-.37,2.01-.37.67,0,1.28.11,1.85.33.57.22,1.06.55,1.47.98.41.43.74.97.97,1.62.23.65.35,1.4.35,2.27ZM1164.21,857.91c0-.31-.04-.6-.13-.88-.09-.28-.22-.53-.41-.74-.19-.21-.42-.38-.71-.51-.29-.13-.62-.19-1.01-.19-.72,0-1.33.22-1.83.65-.5.43-.78.99-.83,1.67h4.92Z" />
      <path
        d="M1175.12,856.63c-.21-.28-.51-.52-.88-.73-.37-.21-.78-.31-1.22-.31-.39,0-.74.08-1.06.24-.32.16-.48.43-.48.8s.18.64.53.79c.35.15.87.31,1.55.47.36.08.72.19,1.09.32.37.13.7.31,1,.53.3.22.54.49.73.82.19.33.28.72.28,1.19,0,.59-.11,1.08-.33,1.49-.22.41-.51.74-.88.99-.37.25-.79.44-1.28.55-.49.11-.99.17-1.51.17-.75,0-1.47-.14-2.18-.41-.71-.27-1.29-.66-1.76-1.17l1.58-1.48c.27.35.61.63,1.04.86.43.23.9.34,1.42.34.17,0,.35-.02.53-.06.18-.04.35-.1.5-.19.15-.09.28-.2.37-.35.09-.15.14-.33.14-.54,0-.4-.18-.69-.55-.86-.37-.17-.92-.35-1.65-.52-.36-.08-.71-.18-1.05-.31-.34-.13-.64-.29-.91-.5-.27-.21-.48-.46-.64-.77-.16-.31-.24-.69-.24-1.14,0-.53.11-.99.33-1.38.22-.39.51-.7.87-.95.36-.25.77-.43,1.22-.55.45-.12.92-.18,1.4-.18.69,0,1.37.12,2.03.36.66.24,1.18.61,1.57,1.1l-1.56,1.38Z" />
      <path
        d="M1179.42,850.81c0-.39.14-.72.43-1.01.29-.29.65-.43,1.09-.43s.81.14,1.11.41c.3.27.45.62.45,1.03s-.15.76-.45,1.03c-.3.27-.67.41-1.11.41s-.8-.14-1.09-.43c-.29-.29-.43-.62-.43-1.01ZM1179.76,854.07h2.4v9.6h-2.4v-9.6Z" />
      <path
        d="M1195.65,854.07v8.74c0,.87-.11,1.65-.32,2.35-.21.7-.54,1.29-.99,1.78-.45.49-1.01.86-1.69,1.13-.68.27-1.49.4-2.42.4-.39,0-.8-.03-1.23-.1-.43-.07-.86-.17-1.28-.3s-.82-.3-1.21-.5c-.39-.2-.73-.43-1.04-.68l1.38-1.86c.47.44.99.78,1.58,1.01.59.23,1.18.35,1.78.35s1.06-.08,1.45-.25c.39-.17.71-.4.94-.69s.4-.64.5-1.04c.1-.4.15-.84.15-1.33v-.7h-.04c-.35.47-.79.83-1.33,1.08-.54.25-1.14.37-1.81.37-.72,0-1.37-.13-1.96-.4-.59-.27-1.08-.63-1.49-1.08-.41-.45-.72-.98-.95-1.59-.23-.61-.34-1.25-.34-1.93s.11-1.35.33-1.96c.22-.61.53-1.15.94-1.6.41-.45.9-.81,1.48-1.08.58-.27,1.23-.4,1.95-.4.68,0,1.31.14,1.9.42.59.28,1.05.71,1.4,1.3h.04v-1.44h2.28ZM1190.53,855.75c-.44,0-.83.08-1.17.24-.34.16-.63.38-.86.65-.23.27-.41.59-.54.97-.13.37-.19.77-.19,1.2,0,.39.06.76.19,1.12.13.36.31.68.54.97.23.29.52.51.86.69.34.17.72.26,1.15.26s.84-.08,1.19-.25c.35-.17.65-.39.9-.67.25-.28.44-.6.57-.97.13-.37.2-.75.2-1.15s-.07-.8-.2-1.18c-.13-.37-.32-.7-.57-.98-.25-.28-.54-.5-.89-.66-.35-.16-.74-.24-1.18-.24Z" />
      <path
        d="M1199.38,854.07h2.28v1.54h.04c.21-.48.58-.9,1.11-1.27.53-.37,1.15-.55,1.87-.55.63,0,1.16.11,1.61.33.45.22.81.51,1.1.87.29.36.5.77.63,1.24.13.47.2.95.2,1.44v6h-2.4v-5.32c0-.28-.02-.57-.06-.88-.04-.31-.13-.58-.26-.83-.13-.25-.32-.45-.55-.61-.23-.16-.54-.24-.93-.24s-.72.08-1,.23c-.28.15-.51.35-.69.59-.18.24-.32.52-.41.83-.09.31-.14.63-.14.95v5.28h-2.4v-9.6Z" />
    </g>
    <g class="text-one">
      <path
        d="M1129.98,895.49h-1.8v-1.68h2.02l.36-2.44h-1.8v-1.68h2.02l.6-4.18h1.76l-.6,4.18h2.06l.6-4.18h1.74l-.6,4.18h1.8v1.68h-2.04l-.34,2.44h1.8v1.68h-2l-.62,4.18h-1.74l.6-4.18h-2.08l-.6,4.18h-1.74l.6-4.18ZM1132.3,891.37l-.34,2.44h2.06l.34-2.44h-2.06Z" />
      <path
        d="M1151.65,888.83c-.37-.51-.86-.88-1.46-1.11-.6-.23-1.19-.35-1.76-.35-.73,0-1.4.13-2,.4-.6.27-1.12.63-1.55,1.1-.43.47-.77,1.01-1,1.64s-.35,1.31-.35,2.04c0,.77.11,1.48.34,2.12.23.64.55,1.19.97,1.65.42.46.92.82,1.51,1.07.59.25,1.25.38,1.98.38s1.43-.15,2.02-.45c.59-.3,1.06-.7,1.42-1.19l2.02,1.42c-.63.79-1.39,1.4-2.3,1.83-.91.43-1.97.65-3.18.65-1.11,0-2.12-.18-3.05-.55-.93-.37-1.72-.88-2.39-1.54-.67-.66-1.19-1.45-1.56-2.36-.37-.91-.56-1.92-.56-3.03s.2-2.16.59-3.07c.39-.91.93-1.69,1.62-2.33.69-.64,1.5-1.13,2.43-1.48.93-.35,1.95-.52,3.04-.52.45,0,.93.04,1.42.13.49.09.97.22,1.42.4s.88.4,1.28.67c.4.27.74.59,1.02.96l-1.92,1.52Z" />
      <path
        d="M1155.67,894.83c0-.76.14-1.45.41-2.07.27-.62.64-1.15,1.11-1.59.47-.44,1.02-.78,1.66-1.02.64-.24,1.32-.36,2.04-.36s1.4.12,2.04.36c.64.24,1.19.58,1.66,1.02.47.44.84.97,1.11,1.59.27.62.41,1.31.41,2.07s-.14,1.45-.41,2.08c-.27.63-.64,1.16-1.11,1.61s-1.02.8-1.66,1.05c-.64.25-1.32.38-2.04.38s-1.4-.13-2.04-.38c-.64-.25-1.19-.6-1.66-1.05s-.84-.98-1.11-1.61c-.27-.63-.41-1.32-.41-2.08ZM1158.11,894.83c0,.37.06.75.17,1.12.11.37.28.71.51,1,.23.29.51.53.86.72.35.19.76.28,1.24.28s.89-.09,1.24-.28c.35-.19.63-.43.86-.72.23-.29.4-.63.51-1,.11-.37.17-.75.17-1.12s-.06-.74-.17-1.11c-.11-.37-.28-.7-.51-.99-.23-.29-.51-.53-.86-.71-.35-.18-.76-.27-1.24-.27s-.89.09-1.24.27c-.35.18-.63.42-.86.71-.23.29-.4.62-.51.99-.11.37-.17.74-.17,1.11Z" />
      <path
        d="M1174.56,892.63c-.21-.28-.51-.52-.88-.73-.37-.21-.78-.31-1.22-.31-.39,0-.74.08-1.06.24-.32.16-.48.43-.48.8s.18.64.53.79c.35.15.87.31,1.55.47.36.08.72.19,1.09.32.37.13.7.31,1,.53.3.22.54.49.73.82.19.33.28.72.28,1.19,0,.59-.11,1.08-.33,1.49-.22.41-.51.74-.88.99-.37.25-.79.44-1.28.55-.49.11-.99.17-1.51.17-.75,0-1.47-.14-2.18-.41-.71-.27-1.29-.66-1.76-1.17l1.58-1.48c.27.35.61.63,1.04.86.43.23.9.34,1.42.34.17,0,.35-.02.53-.06.18-.04.35-.1.5-.19.15-.09.28-.2.37-.35.09-.15.14-.33.14-.54,0-.4-.18-.69-.55-.86-.37-.17-.92-.35-1.65-.52-.36-.08-.71-.18-1.05-.31-.34-.13-.64-.29-.91-.5-.27-.21-.48-.46-.64-.77-.16-.31-.24-.69-.24-1.14,0-.53.11-.99.33-1.38.22-.39.51-.7.87-.95.36-.25.77-.43,1.22-.55.45-.12.92-.18,1.4-.18.69,0,1.37.12,2.03.36.66.24,1.18.61,1.57,1.1l-1.56,1.38Z" />
      <path
        d="M1178.19,891.99v-1.92h1.68v-2.78h2.36v2.78h2.4v1.92h-2.4v4.46c0,.43.08.78.23,1.06.15.28.5.42,1.03.42.16,0,.33-.02.52-.05.19-.03.35-.08.5-.15l.08,1.88c-.21.08-.47.14-.76.19-.29.05-.57.07-.84.07-.64,0-1.16-.09-1.56-.27-.4-.18-.72-.43-.95-.74-.23-.31-.39-.67-.48-1.08-.09-.41-.13-.84-.13-1.31v-4.48h-1.68Z" />
      <path
        d="M1187.57,885.51h4.62c.81,0,1.55.07,2.2.22.65.15,1.21.39,1.68.72.47.33.83.76,1.08,1.28.25.52.38,1.15.38,1.88,0,.79-.15,1.45-.44,1.98-.29.53-.69.96-1.19,1.29-.5.33-1.08.56-1.75.71-.67.15-1.37.22-2.12.22h-1.94v5.86h-2.52v-14.16ZM1191.85,891.69c.41,0,.81-.03,1.18-.09.37-.06.71-.17,1-.32.29-.15.53-.36.7-.63.17-.27.26-.61.26-1.04s-.09-.75-.26-1.01c-.17-.26-.4-.46-.69-.61-.29-.15-.61-.24-.98-.29-.37-.05-.74-.07-1.13-.07h-1.84v4.06h1.76Z" />
      <path
        d="M1209.12,894.99v.32c0,.11,0,.21-.02.32h-7.3c.03.35.12.66.27.95.15.29.36.53.61.74.25.21.54.37.86.49.32.12.65.18,1,.18.6,0,1.11-.11,1.52-.33.41-.22.75-.52,1.02-.91l1.6,1.28c-.95,1.28-2.32,1.92-4.12,1.92-.75,0-1.43-.12-2.06-.35-.63-.23-1.17-.56-1.63-.99-.46-.43-.82-.95-1.08-1.57-.26-.62-.39-1.32-.39-2.11s.13-1.48.39-2.11c.26-.63.62-1.17,1.07-1.62.45-.45.99-.79,1.61-1.04.62-.25,1.29-.37,2.01-.37.67,0,1.28.11,1.85.33.57.22,1.06.55,1.47.98.41.43.74.97.97,1.62.23.65.35,1.4.35,2.27ZM1206.72,893.91c0-.31-.04-.6-.13-.88-.09-.28-.22-.53-.41-.74-.19-.21-.42-.38-.71-.51-.29-.13-.62-.19-1.01-.19-.72,0-1.33.22-1.83.65-.5.43-.78.99-.83,1.67h4.92Z" />
      <path
        d="M1212.32,890.07h2.3v1.6h.04c.27-.56.64-1.01,1.12-1.36.48-.35,1.04-.52,1.68-.52.09,0,.19,0,.3,0,.11,0,.2.02.28.05v2.2c-.16-.04-.3-.07-.41-.08-.11-.01-.22-.02-.33-.02-.55,0-.99.1-1.32.3-.33.2-.59.44-.78.72-.19.28-.31.57-.38.86-.07.29-.1.53-.1.7v5.14h-2.4v-9.6Z" />
      <path
        d="M1221.65,891.99h-1.82v-1.92h1.82v-1.42c0-.57.06-1.12.19-1.65.13-.53.34-.99.64-1.39.3-.4.7-.72,1.19-.95.49-.23,1.11-.35,1.86-.35.27,0,.49.01.67.03.18.02.36.06.55.11l-.16,2.04c-.13-.04-.28-.07-.43-.1-.15-.03-.32-.04-.49-.04-.35,0-.63.07-.84.2-.21.13-.38.31-.49.52-.11.21-.19.45-.23.7-.04.25-.06.5-.06.74v1.56h2.22v1.92h-2.22v7.68h-2.4v-7.68Z" />
      <path
        d="M1228.13,894.83c0-.76.14-1.45.41-2.07.27-.62.64-1.15,1.11-1.59.47-.44,1.02-.78,1.66-1.02.64-.24,1.32-.36,2.04-.36s1.4.12,2.04.36c.64.24,1.19.58,1.66,1.02.47.44.84.97,1.11,1.59.27.62.41,1.31.41,2.07s-.14,1.45-.41,2.08c-.27.63-.64,1.16-1.11,1.61s-1.02.8-1.66,1.05c-.64.25-1.32.38-2.04.38s-1.4-.13-2.04-.38c-.64-.25-1.19-.6-1.66-1.05s-.84-.98-1.11-1.61c-.27-.63-.41-1.32-.41-2.08ZM1230.57,894.83c0,.37.06.75.17,1.12.11.37.28.71.51,1,.23.29.51.53.86.72.35.19.76.28,1.24.28s.89-.09,1.24-.28c.35-.19.63-.43.86-.72.23-.29.4-.63.51-1,.11-.37.17-.75.17-1.12s-.06-.74-.17-1.11c-.11-.37-.28-.7-.51-.99-.23-.29-.51-.53-.86-.71-.35-.18-.76-.27-1.24-.27s-.89.09-1.24.27c-.35.18-.63.42-.86.71-.23.29-.4.62-.51.99-.11.37-.17.74-.17,1.11Z" />
      <path
        d="M1241.75,890.07h2.3v1.6h.04c.27-.56.64-1.01,1.12-1.36.48-.35,1.04-.52,1.68-.52.09,0,.19,0,.3,0,.11,0,.2.02.28.05v2.2c-.16-.04-.3-.07-.41-.08-.11-.01-.22-.02-.33-.02-.55,0-.99.1-1.32.3-.33.2-.59.44-.78.72-.19.28-.31.57-.38.86-.07.29-.1.53-.1.7v5.14h-2.4v-9.6Z" />
      <path
        d="M1261.42,889.79c.63,0,1.16.11,1.61.33.45.22.81.51,1.1.87.29.36.5.77.63,1.24.13.47.2.95.2,1.44v6h-2.4v-5.32c0-.28-.02-.57-.06-.88-.04-.31-.13-.58-.26-.83-.13-.25-.32-.45-.55-.61-.23-.16-.54-.24-.93-.24s-.69.08-.96.24c-.27.16-.49.37-.66.62-.17.25-.3.54-.38.85-.08.31-.12.62-.12.93v5.24h-2.4v-5.8c0-.6-.14-1.1-.43-1.49-.29-.39-.74-.59-1.35-.59-.36,0-.67.08-.94.23-.27.15-.48.35-.65.59-.17.24-.29.52-.38.83-.09.31-.13.63-.13.95v5.28h-2.4v-9.6h2.28v1.54h.04c.11-.24.25-.47.43-.68.18-.21.39-.41.64-.58.25-.17.53-.31.85-.41.32-.1.67-.15,1.06-.15.75,0,1.37.17,1.86.5.49.33.87.77,1.14,1.32.32-.59.75-1.04,1.28-1.35.53-.31,1.16-.47,1.88-.47Z" />
      <path
        d="M1274.59,898.45h-.06c-.24.43-.63.78-1.16,1.05-.53.27-1.14.41-1.82.41-.39,0-.79-.05-1.21-.15-.42-.1-.81-.27-1.16-.5-.35-.23-.65-.54-.88-.92-.23-.38-.35-.85-.35-1.41,0-.72.2-1.29.61-1.72.41-.43.93-.75,1.57-.98.64-.23,1.35-.38,2.13-.45.78-.07,1.54-.11,2.29-.11v-.24c0-.6-.22-1.04-.65-1.33-.43-.29-.95-.43-1.55-.43-.51,0-.99.11-1.46.32-.47.21-.85.47-1.16.78l-1.24-1.46c.55-.51,1.18-.89,1.89-1.14.71-.25,1.44-.38,2.17-.38.85,0,1.56.12,2.11.36.55.24.99.55,1.31.94.32.39.54.82.67,1.3.13.48.19.96.19,1.44v5.84h-2.24v-1.22ZM1274.55,895.29h-.54c-.39,0-.79.02-1.22.05-.43.03-.82.11-1.18.22-.36.11-.66.27-.9.48-.24.21-.36.49-.36.85,0,.23.05.42.15.57.1.15.23.28.39.37.16.09.34.16.54.2.2.04.4.06.6.06.83,0,1.45-.22,1.88-.66.43-.44.64-1.04.64-1.8v-.34Z" />
      <path
        d="M1280.5,890.07h2.28v1.54h.04c.21-.48.58-.9,1.11-1.27.53-.37,1.15-.55,1.87-.55.63,0,1.16.11,1.61.33.45.22.81.51,1.1.87.29.36.5.77.63,1.24.13.47.2.95.2,1.44v6h-2.4v-5.32c0-.28-.02-.57-.06-.88-.04-.31-.13-.58-.26-.83-.13-.25-.32-.45-.55-.61-.23-.16-.54-.24-.93-.24s-.72.08-1,.23c-.28.15-.51.35-.69.59-.18.24-.32.52-.41.83-.09.31-.14.63-.14.95v5.28h-2.4v-9.6Z" />
      <path
        d="M1299.59,892.73c-.19-.27-.47-.49-.84-.67-.37-.18-.75-.27-1.14-.27-.44,0-.83.09-1.16.27-.33.18-.61.42-.83.71-.22.29-.38.62-.49.99-.11.37-.16.74-.16,1.11s.06.74.17,1.11.28.7.51.99c.23.29.51.53.85.71.34.18.74.27,1.19.27.37,0,.75-.07,1.12-.22.37-.15.67-.36.9-.64l1.5,1.52c-.4.43-.91.76-1.53.99-.62.23-1.29.35-2.01.35s-1.38-.11-2.01-.34c-.63-.23-1.19-.56-1.66-1-.47-.44-.85-.97-1.12-1.6-.27-.63-.41-1.34-.41-2.14s.14-1.47.41-2.1c.27-.63.64-1.16,1.11-1.6.47-.44,1.01-.78,1.63-1.02.62-.24,1.28-.36,1.99-.36s1.39.13,2.05.4c.66.27,1.18.63,1.57,1.1l-1.64,1.44Z" />
      <path
        d="M1312.72,894.99v.32c0,.11,0,.21-.02.32h-7.3c.03.35.12.66.27.95.15.29.36.53.61.74.25.21.54.37.86.49.32.12.65.18,1,.18.6,0,1.11-.11,1.52-.33.41-.22.75-.52,1.02-.91l1.6,1.28c-.95,1.28-2.32,1.92-4.12,1.92-.75,0-1.43-.12-2.06-.35-.63-.23-1.17-.56-1.63-.99-.46-.43-.82-.95-1.08-1.57-.26-.62-.39-1.32-.39-2.11s.13-1.48.39-2.11c.26-.63.62-1.17,1.07-1.62.45-.45.99-.79,1.61-1.04.62-.25,1.29-.37,2.01-.37.67,0,1.28.11,1.85.33.57.22,1.06.55,1.47.98.41.43.74.97.97,1.62.23.65.35,1.4.35,2.27ZM1310.32,893.91c0-.31-.04-.6-.13-.88-.09-.28-.22-.53-.41-.74-.19-.21-.42-.38-.71-.51-.29-.13-.62-.19-1.01-.19-.72,0-1.33.22-1.83.65-.5.43-.78.99-.83,1.67h4.92Z" />
    </g>
    <g class="text-one">
      <path
        d="M1129.98,931.49h-1.8v-1.68h2.02l.36-2.44h-1.8v-1.68h2.02l.6-4.18h1.76l-.6,4.18h2.06l.6-4.18h1.74l-.6,4.18h1.8v1.68h-2.04l-.34,2.44h1.8v1.68h-2l-.62,4.18h-1.74l.6-4.18h-2.08l-.6,4.18h-1.74l.6-4.18ZM1132.3,927.37l-.34,2.44h2.06l.34-2.44h-2.06Z" />
      <path d="M1141.45,921.51h9.38v2.2h-6.86v3.6h6.5v2.12h-6.5v4h7.22v2.24h-9.74v-14.16Z" />
      <path
        d="M1157.25,930.57l-3.46-4.5h2.88l2.08,2.98,2.14-2.98h2.76l-3.44,4.5,3.92,5.1h-2.92l-2.5-3.5-2.52,3.5h-2.84l3.9-5.1Z" />
      <path
        d="M1165.64,927.99v-1.92h1.68v-2.78h2.36v2.78h2.4v1.92h-2.4v4.46c0,.43.08.78.23,1.06.15.28.5.42,1.03.42.16,0,.33-.02.52-.05.19-.03.35-.08.5-.15l.08,1.88c-.21.08-.47.14-.76.19-.29.05-.57.07-.84.07-.64,0-1.16-.09-1.56-.27-.4-.18-.72-.43-.95-.74-.23-.31-.39-.67-.48-1.08-.09-.41-.13-.84-.13-1.31v-4.48h-1.68Z" />
      <path
        d="M1183.79,930.99v.32c0,.11,0,.21-.02.32h-7.3c.03.35.12.66.27.95.15.29.36.53.61.74.25.21.54.37.86.49.32.12.65.18,1,.18.6,0,1.11-.11,1.52-.33.41-.22.75-.52,1.02-.91l1.6,1.28c-.95,1.28-2.32,1.92-4.12,1.92-.75,0-1.43-.12-2.06-.35-.63-.23-1.17-.56-1.63-.99-.46-.43-.82-.95-1.08-1.57-.26-.62-.39-1.32-.39-2.11s.13-1.48.39-2.11c.26-.63.62-1.17,1.07-1.62.45-.45.99-.79,1.61-1.04.62-.25,1.29-.37,2.01-.37.67,0,1.28.11,1.85.33.57.22,1.06.55,1.47.98.41.43.74.97.97,1.62.23.65.35,1.4.35,2.27ZM1181.39,929.91c0-.31-.04-.6-.13-.88-.09-.28-.22-.53-.41-.74-.19-.21-.42-.38-.71-.51-.29-.13-.62-.19-1.01-.19-.72,0-1.33.22-1.83.65-.5.43-.78.99-.83,1.67h4.92Z" />
      <path
        d="M1187,926.07h2.3v1.6h.04c.27-.56.64-1.01,1.12-1.36.48-.35,1.04-.52,1.68-.52.09,0,.19,0,.3,0,.11,0,.2.02.28.05v2.2c-.16-.04-.3-.07-.41-.08-.11-.01-.22-.02-.33-.02-.55,0-.99.1-1.32.3-.33.2-.59.44-.78.72-.19.28-.31.57-.38.86-.07.29-.1.53-.1.7v5.14h-2.4v-9.6Z" />
      <path
        d="M1194.9,922.81c0-.39.14-.72.43-1.01.29-.29.65-.43,1.09-.43s.81.14,1.11.41c.3.27.45.62.45,1.03s-.15.76-.45,1.03c-.3.27-.67.41-1.11.41s-.8-.14-1.09-.43c-.29-.29-.43-.62-.43-1.01ZM1195.24,926.07h2.4v9.6h-2.4v-9.6Z" />
      <path
        d="M1200.8,930.83c0-.76.14-1.45.41-2.07.27-.62.64-1.15,1.11-1.59.47-.44,1.02-.78,1.66-1.02.64-.24,1.32-.36,2.04-.36s1.4.12,2.04.36c.64.24,1.19.58,1.66,1.02.47.44.84.97,1.11,1.59.27.62.41,1.31.41,2.07s-.14,1.45-.41,2.08c-.27.63-.64,1.16-1.11,1.61s-1.02.8-1.66,1.05c-.64.25-1.32.38-2.04.38s-1.4-.13-2.04-.38c-.64-.25-1.19-.6-1.66-1.05s-.84-.98-1.11-1.61c-.27-.63-.41-1.32-.41-2.08ZM1203.24,930.83c0,.37.06.75.17,1.12.11.37.28.71.51,1,.23.29.51.53.86.72.35.19.76.28,1.24.28s.89-.09,1.24-.28c.35-.19.63-.43.86-.72.23-.29.4-.63.51-1,.11-.37.17-.75.17-1.12s-.06-.74-.17-1.11c-.11-.37-.28-.7-.51-.99-.23-.29-.51-.53-.86-.71-.35-.18-.76-.27-1.24-.27s-.89.09-1.24.27c-.35.18-.63.42-.86.71-.23.29-.4.62-.51.99-.11.37-.17.74-.17,1.11Z" />
      <path
        d="M1214.42,926.07h2.3v1.6h.04c.27-.56.64-1.01,1.12-1.36.48-.35,1.04-.52,1.68-.52.09,0,.19,0,.3,0,.11,0,.2.02.28.05v2.2c-.16-.04-.3-.07-.41-.08-.11-.01-.22-.02-.33-.02-.55,0-.99.1-1.32.3-.33.2-.59.44-.78.72-.19.28-.31.57-.38.86-.07.29-.1.53-.1.7v5.14h-2.4v-9.6Z" />
    </g>
    <g class="text-one">
      <path
        d="M1129.98,967.49h-1.8v-1.68h2.02l.36-2.44h-1.8v-1.68h2.02l.6-4.18h1.76l-.6,4.18h2.06l.6-4.18h1.74l-.6,4.18h1.8v1.68h-2.04l-.34,2.44h1.8v1.68h-2l-.62,4.18h-1.74l.6-4.18h-2.08l-.6,4.18h-1.74l.6-4.18ZM1132.3,963.37l-.34,2.44h2.06l.34-2.44h-2.06Z" />
      <path d="M1141.44,957.51h2.52v14.16h-2.52v-14.16Z" />
      <path
        d="M1147.87,962.07h2.28v1.54h.04c.21-.48.58-.9,1.11-1.27.53-.37,1.15-.55,1.87-.55.63,0,1.16.11,1.61.33.45.22.81.51,1.1.87.29.36.5.77.63,1.24.13.47.2.95.2,1.44v6h-2.4v-5.32c0-.28-.02-.57-.06-.88-.04-.31-.13-.58-.26-.83-.13-.25-.32-.45-.55-.61-.23-.16-.54-.24-.93-.24s-.72.08-1,.23c-.28.15-.51.35-.69.59-.18.24-.32.52-.41.83-.09.31-.14.63-.14.95v5.28h-2.4v-9.6Z" />
      <path
        d="M1159.04,963.99v-1.92h1.68v-2.78h2.36v2.78h2.4v1.92h-2.4v4.46c0,.43.08.78.23,1.06.15.28.5.42,1.03.42.16,0,.33-.02.52-.05.19-.03.35-.08.5-.15l.08,1.88c-.21.08-.47.14-.76.19-.29.05-.57.07-.84.07-.64,0-1.16-.09-1.56-.27-.4-.18-.72-.43-.95-.74-.23-.31-.39-.67-.48-1.08-.09-.41-.13-.84-.13-1.31v-4.48h-1.68Z" />
      <path
        d="M1177.2,966.99v.32c0,.11,0,.21-.02.32h-7.3c.03.35.12.66.27.95.15.29.36.53.61.74.25.21.54.37.86.49.32.12.65.18,1,.18.6,0,1.11-.11,1.52-.33.41-.22.75-.52,1.02-.91l1.6,1.28c-.95,1.28-2.32,1.92-4.12,1.92-.75,0-1.43-.12-2.06-.35-.63-.23-1.17-.56-1.63-.99-.46-.43-.82-.95-1.08-1.57-.26-.62-.39-1.32-.39-2.11s.13-1.48.39-2.11c.26-.63.62-1.17,1.07-1.62.45-.45.99-.79,1.61-1.04.62-.25,1.29-.37,2.01-.37.67,0,1.28.11,1.85.33.57.22,1.06.55,1.47.98.41.43.74.97.97,1.62.23.65.35,1.4.35,2.27ZM1174.8,965.91c0-.31-.04-.6-.13-.88-.09-.28-.22-.53-.41-.74-.19-.21-.42-.38-.71-.51-.29-.13-.62-.19-1.01-.19-.72,0-1.33.22-1.83.65-.5.43-.78.99-.83,1.67h4.92Z" />
      <path
        d="M1180.41,962.07h2.3v1.6h.04c.27-.56.64-1.01,1.12-1.36.48-.35,1.04-.52,1.68-.52.09,0,.19,0,.3,0,.11,0,.2.02.28.05v2.2c-.16-.04-.3-.07-.41-.08-.11-.01-.22-.02-.33-.02-.55,0-.99.1-1.32.3-.33.2-.59.44-.78.72-.19.28-.31.57-.38.86-.07.29-.1.53-.1.7v5.14h-2.4v-9.6Z" />
      <path
        d="M1188.3,958.81c0-.39.14-.72.43-1.01.29-.29.65-.43,1.09-.43s.81.14,1.11.41c.3.27.45.62.45,1.03s-.15.76-.45,1.03c-.3.27-.67.41-1.11.41s-.8-.14-1.09-.43c-.29-.29-.43-.62-.43-1.01ZM1188.64,962.07h2.4v9.6h-2.4v-9.6Z" />
      <path
        d="M1194.21,966.83c0-.76.14-1.45.41-2.07.27-.62.64-1.15,1.11-1.59.47-.44,1.02-.78,1.66-1.02.64-.24,1.32-.36,2.04-.36s1.4.12,2.04.36c.64.24,1.19.58,1.66,1.02.47.44.84.97,1.11,1.59.27.62.41,1.31.41,2.07s-.14,1.45-.41,2.08c-.27.63-.64,1.16-1.11,1.61s-1.02.8-1.66,1.05c-.64.25-1.32.38-2.04.38s-1.4-.13-2.04-.38c-.64-.25-1.19-.6-1.66-1.05s-.84-.98-1.11-1.61c-.27-.63-.41-1.32-.41-2.08ZM1196.65,966.83c0,.37.06.75.17,1.12.11.37.28.71.51,1,.23.29.51.53.86.72.35.19.76.28,1.24.28s.89-.09,1.24-.28c.35-.19.63-.43.86-.72.23-.29.4-.63.51-1,.11-.37.17-.75.17-1.12s-.06-.74-.17-1.11c-.11-.37-.28-.7-.51-.99-.23-.29-.51-.53-.86-.71-.35-.18-.76-.27-1.24-.27s-.89.09-1.24.27c-.35.18-.63.42-.86.71-.23.29-.4.62-.51.99-.11.37-.17.74-.17,1.11Z" />
      <path
        d="M1207.82,962.07h2.3v1.6h.04c.27-.56.64-1.01,1.12-1.36.48-.35,1.04-.52,1.68-.52.09,0,.19,0,.3,0,.11,0,.2.02.28.05v2.2c-.16-.04-.3-.07-.41-.08-.11-.01-.22-.02-.33-.02-.55,0-.99.1-1.32.3-.33.2-.59.44-.78.72-.19.28-.31.57-.38.86-.07.29-.1.53-.1.7v5.14h-2.4v-9.6Z" />
    </g>
  </g>
  <g class="text_box-medium">
    <g class="text-one">
      <path
        d="M1150.03,384.63c2.1-.96,4.14-1.92,6.24-3.06-.06,1.02-.06,2.58,0,3.9q.06,1.98-1.5,2.88c-3.96,2.1-8.4,4.02-12.96,5.76-.96.42-1.56.66-1.86.9-.36.3-.6.42-.96.42-.3,0-.54-.18-.78-.78-.54-1.56-1.02-3.48-1.5-5.64,1.8-.3,3.54-.78,5.64-1.44l1.74-.6v-13.02c-3.78,0-4.92.12-5.28.12-.6,0-.66-.06-.66-.66v-4.32c0-.66.06-.72.66-.72.36,0,1.5.12,5.28.12v-10.56h-.36c-4.02,0-5.28.12-5.64.12-.54,0-.6-.06-.6-.66v-4.38c0-.66.06-.72.6-.72.36,0,1.62.12,5.64.12h6.24c4.08,0,5.34-.12,5.64-.12.6,0,.66.06.66.72v4.38c0,.6-.06.66-.66.66-.3,0-1.56-.12-5.58-.12v10.56c3.3,0,4.44-.12,4.8-.12.6,0,.6.06.6.72v4.32c0,.6,0,.66-.6.66-.36,0-1.5-.12-4.8-.12v10.68ZM1161,400.71c-5.94,0-7.98.12-8.34.12-.6,0-.66-.06-.66-.66v-4.26c0-.6.06-.66.66-.66.36,0,2.4.12,8.34.12h9.12v-5.88h-3.72c-5.52,0-7.38.12-7.74.12-.6,0-.66-.06-.66-.66v-4.14c0-.6.06-.66.66-.66.36,0,2.22.12,7.74.12h3.72v-5.16h-3.9c-5.46,0-7.44.12-7.8.12-.66,0-.72-.06-.72-.6,0-.36.12-2.28.12-6.66v-13.32c0-4.26-.12-6.12-.12-6.54,0-.6.06-.66.72-.66.36,0,2.34.12,7.8.12h14.28c5.52,0,7.44-.12,7.86-.12.6,0,.66.06.66.66,0,.36-.12,2.28-.12,6.54v13.32c0,4.38.12,6.3.12,6.66,0,.54-.06.6-.66.6-.42,0-2.34-.12-7.86-.12h-4.38v5.16h4.56c5.46,0,7.38-.12,7.74-.12.6,0,.66.06.66.66v4.14c0,.6-.06.66-.66.66-.36,0-2.28-.12-7.74-.12h-4.56v5.88h6.9c5.88,0,7.98-.12,8.28-.12.6,0,.66.06.66.66v4.26c0,.6-.06.66-.66.66-.3,0-2.4-.12-8.28-.12h-22.02ZM1170.12,362.73v-6.06h-6.66v6.06h6.66ZM1170.12,374.07v-6.42h-6.66v6.42h6.66ZM1176.12,356.67v6.06h7.08v-6.06h-7.08ZM1183.2,367.65h-7.08v6.42h7.08v-6.42Z" />
      <path
        d="M1213.75,353.97c0-2.52-.06-3.78-.36-5.34,2.1.06,3.84.12,5.82.3.54.06.78.24.78.6s-.18.72-.24.96c-.12.36-.3,1.14-.3,3.42v2.64h.78c4.8,0,6.3-.12,6.66-.12.66,0,.72.06.72.66v4.26c0,.6-.06.66-.72.66-.36,0-1.86-.12-6.66-.12h-.12c2.22,3.42,5.34,6.72,8.28,8.7-.84,1.08-1.56,2.22-2.1,3.54-.36.84-.6,1.26-.96,1.26-.3,0-.66-.3-1.2-.9-1.86-1.92-3.54-4.08-4.92-6.66.12,7.56.3,13.02.3,14.16,0,.66-.06.72-.66.72h-4.56c-.6,0-.66-.06-.66-.72,0-1.08.18-5.94.24-12.96-1.68,3.3-4.08,6.3-7.2,9.18-.54.48-.9.72-1.2.72-.42,0-.72-.42-1.2-1.32-.72-1.38-1.68-2.7-2.58-3.54,4.5-3.12,8.22-6.84,11.1-12.18h-1.98c-4.86,0-6.42.12-6.78.12-.6,0-.66-.06-.66-.66v-4.26c0-.6.06-.66.66-.66.36,0,1.92.12,6.78.12h2.94v-2.58ZM1203.43,397.47c-.78-.54-.72-.78-.36-1.2,2.28-3.12,3.84-6.48,5.04-10.62.18-.66.3-.6,1.08-.3l3.78,1.44c.78.3.84.42.66,1.08-1.38,4.68-3.06,8.34-5.4,11.94-.18.3-.3.42-.48.42s-.42-.06-.72-.3l-3.6-2.46ZM1223.76,393.93c0,1.2.24,1.98.84,2.34.96.54,2.7.66,5.58.66,3.66,0,5.82-.06,7.14-.9.9-.66,1.44-2.64,1.5-5.4,1.2.72,2.82,1.38,4.5,1.74,1.56.3,1.5.48,1.26,2.1-.54,3.9-1.5,5.4-3.3,6.42-2.22,1.26-5.34,1.5-11.64,1.5-5.52,0-8.58-.36-10.02-1.32-1.32-.9-2.04-2.04-2.04-5.1v-6.72c0-1.8-.12-3.3-.36-4.98,1.98,0,4.38.12,6.12.3.78.12,1.08.36,1.08.66,0,.36-.06.54-.24.96-.24.54-.42,1.38-.42,2.7v5.04ZM1245.72,351.15c4.68,0,6.24-.12,6.66-.12.6,0,.66.06.66.66,0,.36-.12,2.46-.12,7.02v15.84c0,4.56.12,6.66.12,7.02,0,.66-.06.72-.66.72-.42,0-1.98-.12-6.66-.12h-8.52c-2.94,0-4.56.06-5.52.06,2.16,2.04,4.14,4.26,5.82,6.78.3.48.3.66-.36,1.08l-3.48,2.16c-.36.24-.6.36-.78.36s-.3-.12-.48-.42c-1.56-2.76-3.72-5.7-6-7.8-.36-.42-.3-.66.3-1.02l3.18-1.86c0-.48.12-2.58.12-6.96v-15.84c0-4.56-.12-6.6-.12-7.02,0-.6.06-.66.72-.66.36,0,1.86.12,6.6.12h8.52ZM1235.64,360.15h11.58v-4.08h-11.58v4.08ZM1247.22,368.61v-4.02h-11.58v4.02h11.58ZM1247.22,373.05h-11.58v4.2h11.58v-4.2ZM1248.78,384.63c.72-.3.9-.24,1.26.24,2.52,3.18,4.74,6.6,6.54,10.8.18.48.12.66-.54,1.08l-4.02,2.34c-.36.24-.6.36-.78.36s-.3-.18-.42-.54c-1.62-4.68-3.54-7.8-6.18-11.28-.42-.54-.36-.66.42-1.08l3.72-1.92Z" />
      <path
        d="M1295.21,361.95c-1.38,10.2-3.9,19.56-7.5,25.86-2.58,4.5-5.7,6.9-10.2,6.9-5.28,0-10.62-5.64-10.62-15.42,0-5.76,2.46-11.28,6.78-15.6,5.04-5.04,11.4-7.68,19.5-7.68,14.4,0,22.86,8.88,22.86,20.82,0,11.16-6.3,18.18-18.48,21.84-1.26.36-1.8.12-2.58-1.08-.66-1.02-1.92-2.4-4.2-3.78,10.14-2.4,18.12-6.6,18.12-17.94,0-7.14-5.4-13.92-13.44-13.92h-.24ZM1277.99,367.77c-2.88,3.24-4.68,7.26-4.68,11.1,0,5.52,2.22,8.58,4.08,8.58,1.56,0,2.88-.78,4.5-3.66,2.64-4.86,5.34-13.5,6.36-21.48-4.2.84-7.56,2.52-10.26,5.46Z" />
      <path
        d="M1357.94,374.49c-.36,6.72-1.2,10.74-3.54,15.3-2.4,4.68-6.72,9.06-10.56,11.34-.66.42-1.26.72-1.8.72-.42,0-.84-.18-1.26-.6-1.2-1.2-3.24-2.4-5.34-3.18,5.88-3.18,9.42-6.12,11.94-10.68,2.22-3.96,2.82-7.2,3.06-12.9h-11.4c-3,0-5.94.18-9,.36-.54.06-.72-.36-.78-1.14-.3-1.68-.48-3.96-.48-5.76,3.36.3,6.72.3,10.2.3h26.94c4.68,0,8.16-.12,11.7-.36.6,0,.66.36.66,1.2.06.78.06,3.84,0,4.62,0,.78-.36,1.02-.9,1.02-3.12-.12-7.26-.24-11.4-.24h-8.04ZM1346.06,360.57c-2.76,0-5.16.12-8.52.24-.78,0-.96-.3-1.02-1.02-.18-1.44-.24-3.6-.42-5.76,4.2.24,7.26.3,9.96.3h11.04c3.36,0,7.14-.06,10.14-.24.6,0,.72.36.72,1.14.12,1.44.12,2.94,0,4.38,0,.84-.12,1.14-.78,1.14-3.24-.12-6.78-.18-10.08-.18h-11.04ZM1371.86,350.13c.3-.18.54-.12.84.18,1.74,1.62,3.66,4.26,5.1,6.96.18.36.18.66-.3.96l-2.7,1.62c-.42.24-.72.12-.96-.3-1.56-2.94-3.24-5.4-5.4-7.5l3.42-1.92ZM1377.56,346.77c.36-.24.54-.12.84.18,2.04,1.92,3.96,4.5,5.1,6.72.18.36.24.72-.3,1.08l-2.52,1.62c-.54.3-.84.06-1.02-.3-1.38-2.7-3.06-5.16-5.34-7.44l3.24-1.86Z" />
      <path
        d="M1432.33,365.61c2.94,0,6.3-.06,9.06-.18.72-.06.78.3.84.96.12,1.5.12,3.24,0,4.74-.06.78-.18,1.02-1.02.96-2.04,0-5.7-.06-8.64-.06h-2.46c-.36,8.58-1.68,13.62-4.62,18.48-3,4.98-7.86,8.58-14.16,11.16-.84.36-1.32.54-1.68.54s-.66-.18-1.14-.66c-1.8-1.86-2.94-2.7-4.98-3.6,8.52-2.64,13.14-5.7,16.2-10.62,2.34-3.84,3.3-7.98,3.54-15.3h-12.78v2.16c0,3.54,0,6.78.18,9.96.06.66-.36.78-1.02.84-1.56.12-3.54.12-5.16,0-.78-.06-1.14-.18-1.08-.84.18-3.12.3-6.06.3-9.84v-2.28h-1.8c-3.24,0-8.04.18-9.9.3-.48,0-.66-.36-.72-1.14-.24-1.26-.3-3.36-.42-5.82,2.52.18,6.42.3,11.04.3h1.8v-4.38c0-3.84-.12-5.34-.72-8.82,3.12.3,6.06.6,7.32.96.66.12.9.42.9.84,0,.36-.18.78-.36,1.26-.42,1.08-.42,1.68-.42,5.76v4.38h12.9l.06-5.88c.06-3.36-.12-6.12-.54-8.22,2.28.24,5.58.6,7.02,1.02.84.18,1.08.48,1.08.96,0,.24-.06.6-.24,1.08-.42,1.14-.48,2.7-.48,5.28v5.7h2.1ZM1435.33,351.09c.3-.12.54-.12.84.24,1.62,1.74,3.36,4.44,4.62,7.26.18.42.12.66-.36.9l-2.46,1.26c-.48.24-.78.12-1.02-.36-1.32-3-2.82-5.52-4.86-7.8l3.24-1.5ZM1440.97,348.51c.36-.18.54-.12.84.24,1.92,2.04,3.66,4.74,4.62,7.02.18.36.18.78-.36,1.02l-2.4,1.2c-.54.24-.78.06-.96-.3-1.2-2.82-2.76-5.4-4.86-7.8l3.12-1.38Z" />
      <path
        d="M1482.33,387.51c0,4.14.06,7.68.18,12.48.06.78-.24,1.02-.9,1.02-1.92.12-4.08.12-6,0-.66,0-.9-.24-.84-.96.06-4.32.24-8.22.24-12.3v-13.98c-5.28,4.44-11.7,9-16.5,11.52-.3.18-.6.24-.9.24-.48,0-.84-.18-1.26-.6-1.38-1.38-3.36-2.58-5.16-3.54,8.28-4.26,13.38-7.74,18.9-12.3,4.74-3.9,9.06-8.1,12.78-12.54,2.04-2.4,2.82-3.6,3.78-6.18,2.7,1.5,5.34,3.12,6.66,4.2.36.24.48.6.48.9,0,.48-.36,1.02-.84,1.32-1.02.66-1.98,1.56-3.6,3.3-2.34,2.82-4.56,5.16-7.02,7.56v19.86Z" />
      <path
        d="M1513.36,356.67c.24-.3.54-.48.84-.48.24,0,.48.12.78.3,3.06,1.62,8.04,5.28,11.46,8.52.36.36.54.6.54.84s-.12.48-.36.78c-.9,1.2-2.88,3.6-3.72,4.5-.3.3-.48.48-.72.48s-.48-.18-.78-.48c-3.6-3.72-7.92-7.14-12.24-9.78,1.32-1.62,3.06-3.48,4.2-4.68ZM1518.58,388.29c7.32-3.78,11.22-6.3,17.28-11.16,7.32-5.94,11.34-9.78,16.44-16.32.36,3,.9,5.04,1.68,7.02.18.42.3.78.3,1.14,0,.54-.3,1.02-.96,1.8-3.18,3.72-8.34,8.52-13.8,12.72-4.98,3.9-10.02,7.26-18.12,11.76-2.7,1.62-3.48,2.22-4.02,2.76-.36.36-.72.6-1.08.6-.3,0-.66-.24-1.02-.66-1.5-1.68-3.36-4.14-4.8-6.66,3.06-.84,4.92-1.38,8.1-3Z" />
      <path
        d="M1596.36,390.09c0,.66-.36.96-1.14,1.08-.78.12-2.58.3-4.26.3-.54,0-.78-.36-.78-.96,0-2.16,0-5.16.06-7.32-5.34,2.76-7.26,5.1-7.26,7.98,0,2.52,2.04,4.14,8.34,4.14,5.52,0,10.32-.54,14.94-1.2.54-.06.78.12.84.66.3,1.38.54,3.48.54,4.92.06.72-.18,1.14-.66,1.14-5.16.66-9.06.78-14.88.78-9.84,0-15.06-2.94-15.06-9.9,0-5.76,3.6-9.96,12.66-14.64-.18-3.06-.9-4.26-3.6-4.14-2.82.12-5.52,1.92-8.28,4.32-2.58,2.52-4.08,4.26-6,6.54-.3.36-.48.54-.72.54-.18,0-.42-.18-.66-.42-.84-.84-2.64-2.7-3.42-3.96-.18-.24-.24-.42-.24-.54,0-.24.12-.42.42-.66,4.62-4.14,9.06-8.88,12.54-14.88-2.82.12-6.06.18-9.6.18-.54,0-.72-.3-.84-.96-.18-.96-.42-3.18-.6-4.98,4.56.24,9.24.18,13.8-.06.66-1.62,1.2-3.06,1.8-5.16.24-1.02.42-2.04.42-3.66,2.64.42,5.28,1.08,6.84,1.68.48.18.72.6.72,1.02,0,.3-.12.66-.42.9-.36.3-.72.84-1.02,1.44-.36.84-.66,1.62-1.38,3.24,3.66-.42,7.32-1.02,10.92-1.86.66-.12.84.06.96.6.3,1.2.54,2.58.6,4.32.06.6-.18.84-1.02.96-4.5.66-9.66,1.32-14.04,1.8-1.38,2.22-2.7,4.44-4.5,6.66l.06.12c1.92-1.26,4.38-1.86,6-1.86,3.96,0,6.72,1.8,7.32,6.48,2.34-1.08,5.76-2.64,8.82-4.2,1.14-.6,3.06-1.68,4.56-3.24,1.98,2.1,3.54,4.2,4.2,5.28.36.54.48.96.48,1.32,0,.48-.3.72-.9.84-1.26.18-2.46.48-3.66.9-3.9,1.38-7.8,2.7-12.9,4.8v9.66Z" />
    </g>
    <g class="text-one">
      <path
        d="M1157.94,495.59c-.6,0-.66-.06-.66-.66,0-.36.06-2.22.12-5.94-4.8,1.02-10.74,2.1-15.6,2.82-.96.12-1.86.42-2.16.6-.24.12-.6.36-.96.36s-.66-.36-.84-.96c-.54-1.62-.84-3.06-1.2-4.8,2.1-.06,3.78-.18,5.64-.42.36,0,.72-.06,1.08-.12v-18.84c-4.08.06-5.64.12-5.94.12-.6,0-.66-.06-.66-.66v-3.78c0-.6.06-.66.66-.66.36,0,2.1.12,7.32.12h38.52c5.22,0,6.96-.12,7.32-.12.54,0,.6.06.6.66v3.78c0,.6-.06.66-.6.66-.36,0-2.1-.12-7.32-.12h-20.34v20.1c0,4.62.12,6.84.12,7.2,0,.6-.06.66-.66.66h-4.44ZM1174.86,442.79c5.94,0,8.04-.12,8.4-.12.6,0,.66.06.66.72,0,.36-.12,1.68-.12,4.92v6.3c0,3.24.12,4.56.12,4.92,0,.66-.06.72-.66.72-.36,0-2.46-.12-8.4-.12h-21.84c-5.94,0-7.98.12-8.4.12-.6,0-.66-.06-.66-.72,0-.36.12-1.68.12-4.92v-6.3c0-3.24-.12-4.56-.12-4.92,0-.66.06-.72.66-.72.42,0,2.46.12,8.4.12h21.84ZM1157.4,470.81v-3.18h-8.46v3.18h8.46ZM1157.4,477.77v-3.12h-8.46v3.12h8.46ZM1157.4,481.61h-8.46v4.14c2.82-.42,5.76-.84,8.46-1.32v-2.82ZM1150.03,449.75h27.84v-2.52h-27.84v2.52ZM1177.86,453.35h-27.84v2.58h27.84v-2.58ZM1181.94,471.17c.36,0,.78-.12,1.08-.24.3-.12.6-.24.9-.24.42,0,.72.12,2.1,1.38,1.44,1.38,1.62,1.8,1.62,2.22,0,.48-.18.78-.6,1.08-.48.3-.9,1.02-1.62,2.52-1.32,2.64-2.88,5.1-4.86,7.26,2.94,1.86,6.48,3.18,10.62,4.08-.66.96-1.5,2.28-2.1,3.84-.6,1.62-.72,1.62-2.28,1.14-4.02-1.26-7.38-3-10.26-5.16-2.64,2.04-5.64,3.84-9.06,5.28-.6.24-.96.42-1.2.42-.42,0-.66-.42-1.08-1.38-.66-1.44-1.38-2.58-2.22-3.42,3.84-1.14,7.02-2.64,9.66-4.5-2.34-2.64-4.32-5.82-5.88-9.6-.96.06-1.38.06-1.56.06-.6,0-.66-.06-.66-.72v-3.48c0-.6.06-.66.66-.66.36,0,1.86.12,6.6.12h10.14ZM1172.22,475.79c1.14,2.4,2.58,4.5,4.38,6.24,1.68-1.8,3.06-3.9,4.14-6.24h-8.52Z" />
      <path
        d="M1215.67,482.57c1.26,2.52,2.94,3.84,5.4,4.86,2.22.72,5.88,1.08,11.1,1.08,7.68,0,16.92-.42,25.92-1.26-.78,1.26-1.26,2.76-1.5,4.38q-.3,1.92-2.22,1.98c-7.68.48-15,.6-21.3.6s-11.1-.42-13.98-1.62c-2.76-1.08-4.68-2.64-6.3-5.22-1.68,1.8-3.36,3.3-5.46,5.1-.66.54-1.08.9-1.38,1.26-.24.3-.36.42-.78.42-.3,0-.6-.24-.84-.72-.84-1.56-1.62-3.42-2.46-5.52,1.5-.72,2.34-1.2,3.48-1.98,1.68-1.08,3-2.28,4.5-3.78v-13.32h-2.46c-3.12,0-3.9.12-4.2.12-.66,0-.72-.06-.72-.72v-4.56c0-.6.06-.66.72-.66.3,0,1.08.12,4.2.12h3.42c3.12,0,4.02-.12,4.32-.12.6,0,.66.06.66.66,0,.36-.12,2.1-.12,5.82v13.08ZM1207.21,442.55c.36-.24.54-.3.72-.3s.36.06.6.3c2.64,2.46,5.28,5.46,7.44,8.76.36.54.36.66-.36,1.2l-3.18,2.7c-.36.3-.6.48-.78.48s-.3-.12-.48-.42c-2.22-3.66-4.8-6.84-7.38-9.42-.48-.42-.42-.6.24-1.02l3.18-2.28ZM1241.77,462.95c2.4,0,3.96-.12,4.32-.12.66,0,.72.06.72.66v3c0,.6-.06.66-.72.66-.36,0-1.92-.12-4.32-.12h-2.4v3.24c3.42,0,4.38-.06,4.8-.06.6,0,.66.06.66.66,0,.36-.12,1.26-.12,3.78v6c.66.06,1.2.06,1.8.06,1.38,0,1.68-.3,1.68-1.68v-20.34h-22.38v19.08c0,5.04.12,7.14.12,7.5,0,.66-.06.72-.66.72h-4.62c-.6,0-.66-.06-.66-.72,0-.36.12-2.28.12-7.38v-16.2c0-4.56-.12-6.6-.12-7.02,0-.6.06-.66.66-.66.42,0,2.28.12,7.56.12-.6-1.5-1.38-3.06-2.1-4.32-5.22,0-7.14.12-7.44.12-.66,0-.72-.06-.72-.66v-3.72c0-.6.06-.66.72-.66.36,0,2.4.12,8.4.12h6.54c0-1.74-.12-3.18-.36-4.56,2.28.06,4.32.18,6.24.42.6.06.96.36.96.66,0,.48-.18.66-.42,1.02-.24.42-.3.9-.3,2.04v.42h7.56c5.82,0,7.86-.12,8.22-.12.6,0,.66.06.66.66v3.72c0,.6-.06.66-.66.66-.36,0-2.34-.12-7.86-.12l-.18.42c-.42,1.02-.9,2.28-1.62,3.9,5.1,0,7.08-.12,7.44-.12.6,0,.66.06.66.66,0,.36-.12,2.82-.12,7.56v8.64c0,3.66.18,7.26.18,9.18,0,2.16-.36,3.6-1.62,4.62-1.2.96-3.18,1.38-6.6,1.38-1.44,0-1.56-.06-1.74-1.38l-.36-1.92c-.66-.06-1.8-.12-4.32-.12h-4.92c-3.3,0-4.32.12-4.68.12-.66,0-.72-.06-.72-.66,0-.36.12-1.26.12-3.78v-3.66c0-2.52-.12-3.42-.12-3.78,0-.6.06-.66.72-.66.36,0,1.38.06,4.62.06v-3.24h-1.68c-2.94,0-4.56.12-4.92.12-.6,0-.66-.06-.66-.66v-3c0-.6.06-.66.66-.66.36,0,1.98.12,4.92.12h1.68c-.06-1.26-.12-2.22-.3-3.48,1.8.06,3.48.18,5.04.36.54.06.78.24.78.6,0,.3-.18.54-.3.84-.18.42-.24.78-.24,1.68h2.4ZM1232.05,449.81c.66,1.32,1.38,2.82,1.92,4.32h6.12c.72-1.56,1.32-3.12,1.74-4.32h-9.78ZM1239.85,474.17h-5.88v4.5h5.88v-4.5Z" />
      <path
        d="M1294.71,450.95c.54-.18.78-.18.9.48.3,1.5.48,3.3.54,4.86,0,.54-.24.66-.72.72-3.24.66-6.18,1.08-9.9,1.62-3.84,10.14-7.38,18.42-11.7,25.74-.24.42-.42.6-.66.6-.18,0-.42-.12-.72-.3-1.38-.84-3.12-2.1-4.14-3.06-.3-.24-.42-.42-.42-.66,0-.18.06-.42.3-.72,4.5-7.44,7.68-13.74,10.38-20.94-2.28.12-4.14.12-6,.12-1.32,0-1.8,0-3.3-.06-.6,0-.72-.18-.84-.96-.3-1.14-.48-3.12-.6-5.1,2.46.18,3.84.24,5.58.24,2.34,0,4.14-.06,6.9-.3.72-2.52,1.14-4.56,1.56-6.72.36-2.1.36-3,.36-4.86,2.58.36,5.16.72,7.02,1.26.6.12.96.48.96.9,0,.48-.18.78-.54,1.14-.36.48-.6,1.02-.96,2.22-.42,1.44-.9,3.3-1.44,5.1,2.34-.24,5.1-.78,7.44-1.32ZM1296.39,467.03c-.06-1.62-.12-2.58-.48-4.26,2.94.3,4.5.54,6.54,1.14.54.12.84.42.84.96,0,.12-.12.54-.36,1.26s-.3,1.44-.24,2.46c0,3.54.18,6.12.66,10.2,4.32,1.74,7.26,3.06,10.8,5.58.6.42.66.66.36,1.26-.9,1.86-1.74,3.36-2.76,4.86-.18.3-.36.42-.54.42s-.36-.12-.6-.36c-2.64-2.28-4.86-3.6-7.32-5.04,0,6-4.32,8.76-11.16,8.76s-11.04-3.36-11.04-8.52,4.32-8.76,11.1-8.76c1.14,0,2.82.06,4.74.36-.36-3.84-.48-7.5-.54-10.32ZM1292.13,482.15c-3,0-5.34,1.2-5.34,3.48,0,1.92,1.68,2.88,5.1,2.88,3.24,0,5.22-1.74,5.22-4.26,0-.54,0-.84-.06-1.2-1.44-.48-3.06-.9-4.92-.9ZM1303.29,453.29c.36-.6.66-.66,1.26-.42,3.54.96,8.28,3.36,11.76,5.64.36.24.54.42.54.66,0,.18-.06.42-.24.72-.6,1.32-1.68,3.18-2.52,4.44-.18.3-.36.42-.54.42s-.3-.06-.54-.24c-3.54-2.4-7.86-5.04-12.42-6.54,1.02-1.8,1.92-3.6,2.7-4.68Z" />
      <path
        d="M1363.2,458.09h-20.94c-4.08,0-6.9.12-9,.36-.66,0-.9-.3-.9-1.02-.18-1.62-.3-4.44-.3-6.42,3.6.36,5.7.42,10.02.42h17.82c3.12,0,6.3-.12,9.48-.24.96,0,1.26.24,1.2,1.02,0,3.18-.12,6.3-.12,9.48v14.34c0,4.38.18,9.18.24,10.86,0,.6-.24.78-1.08.84-1.68.12-3.6.12-5.28,0-.96-.06-1.14-.12-1.14-1.02v-2.4h-20.64c-3.78,0-6.96.18-9.84.24-.54,0-.78-.24-.84-.9-.18-1.56-.3-3.72-.3-6.24,2.82.18,6.3.3,11.04.3h20.58v-19.62Z" />
      <path
        d="M1418.79,449.03c2.16,0,3.24-.06,4.14-.54.24-.18.42-.24.66-.24.36,0,.66.24,1.02.48,1.38,1.08,2.76,2.64,3.9,4.2.18.3.3.54.3.78,0,.36-.24.78-.78,1.2-.78.66-1.56,1.56-2.22,2.64-2.46,4.2-4.8,7.56-7.68,11.22,5.76,4.26,11.1,8.94,16.62,14.52.3.3.48.6.48.84s-.12.54-.42.9c-1.14,1.38-2.52,2.82-4.02,4.08-.24.24-.48.36-.72.36-.3,0-.54-.18-.84-.48-5.04-5.88-10.2-10.62-15.6-14.88-6.78,7.08-13.62,12.18-20.16,15.84-.54.24-.96.48-1.38.48-.36,0-.72-.18-1.02-.54-1.32-1.62-3.06-2.82-5.04-3.9,9.36-4.74,14.94-9,21.12-15.3,4.32-4.5,7.62-8.76,11.28-15.06l-15.48.06c-3.12,0-6.24.12-9.48.36-.48.06-.66-.36-.78-1.02-.3-1.26-.54-4.14-.54-6.24,3.24.24,6.24.24,10.14.24h16.5Z" />
      <path
        d="M1463.16,459.89c7.32,2.28,13.14,4.62,19.08,8.16.66.36.96.78.66,1.56-.78,1.98-1.74,3.84-2.58,5.22-.24.42-.48.66-.78.66-.18,0-.42-.06-.66-.3-5.52-3.54-10.92-6.18-15.78-7.68v13.26c0,3.9.12,7.44.24,11.76.06.72-.24.9-1.08.9-1.74.12-3.6.12-5.34,0-.84,0-1.14-.18-1.14-.9.18-4.44.24-7.98.24-11.82v-29.52c0-4.5-.18-6.48-.6-8.88,2.76.18,5.76.48,7.5.96.84.18,1.14.54,1.14,1.02,0,.36-.18.84-.48,1.38-.42.78-.42,2.28-.42,5.64v8.58Z" />
      <path
        d="M1522.61,454.73c-7.32,1.38-13.74,2.64-20.16,3.96-2.28.54-2.88.66-3.78.96-.42.18-.84.48-1.32.48-.42,0-.9-.36-1.14-.9-.78-1.62-1.44-3.72-2.22-6.48,3.06-.12,4.86-.36,9.54-1.02,7.38-1.08,20.58-3.06,36.06-5.1.9-.12,1.2.24,1.26.66.3,1.38.6,3.6.66,5.28,0,.72-.36.9-1.14.9-2.82.18-4.74.48-7.32,1.32-10.2,3.48-15.3,10.5-15.3,17.7,0,7.74,5.52,11.94,15.96,12.6.96,0,1.32.24,1.32.9,0,1.56-.24,3.66-.66,5.16-.18.9-.42,1.26-1.14,1.26-10.56,0-22.14-6.06-22.14-18.54,0-8.52,4.26-14.28,11.52-19.02v-.12ZM1534.49,461.21c.3-.24.54-.18.9.12,1.86,1.44,4.02,3.84,5.7,6.42.24.36.24.66-.18.96l-2.52,1.86c-.42.3-.72.24-1.02-.18-1.8-2.76-3.72-5.04-6.06-6.96l3.18-2.22ZM1539.83,457.31c.36-.24.54-.18.9.12,2.22,1.68,4.38,4.08,5.7,6.18.24.36.3.72-.18,1.08l-2.4,1.86c-.48.36-.78.18-1.02-.18-1.62-2.58-3.54-4.86-6-6.9l3-2.16Z" />
      <path
        d="M1574.75,488.03c0,4.8-3.9,8.64-8.7,8.64s-8.7-3.84-8.7-8.64,3.9-8.64,8.7-8.64,8.7,3.84,8.7,8.64ZM1561.07,488.03c0,2.82,2.16,4.98,4.98,4.98s4.98-2.16,4.98-4.98-2.16-4.98-4.98-4.98-4.98,2.16-4.98,4.98Z" />
    </g>
  </g>
  <g class="text_box-hd">
    <path class="text-h"
      d="M618.56,713.22h5.25v11.91h13.79v-11.91h5.25v29.5h-5.25v-13.08h-13.79v13.08h-5.25v-29.5Z" />
    <path class="text-h"
      d="M692,713.22h5.25v11.91h13.79v-11.91h5.25v29.5h-5.25v-13.08h-13.79v13.08h-5.25v-29.5Z" />
    <path class="text-h"
      d="M763.45,713.22h5.25v11.91h13.79v-11.91h5.25v29.5h-5.25v-13.08h-13.79v13.08h-5.25v-29.5Z" />
    <g class="text-arrow_box">
      <g class="text-arrow_text">
        <path
          d="M655.39,712.93h10.46c1.92,0,3.85.25,5.79.75,1.94.5,3.69,1.33,5.25,2.48,1.56,1.15,2.82,2.67,3.79,4.54.97,1.87,1.46,4.2,1.46,6.98,0,2.58-.49,4.81-1.46,6.67-.97,1.86-2.24,3.39-3.79,4.58-1.56,1.19-3.31,2.08-5.25,2.65-1.94.57-3.87.85-5.79.85h-10.46v-29.5ZM665.01,737.84c1.36,0,2.72-.16,4.08-.48,1.36-.32,2.59-.86,3.69-1.62,1.1-.76,1.99-1.8,2.69-3.1.69-1.31,1.04-2.96,1.04-4.96,0-2.11-.35-3.83-1.04-5.17-.69-1.33-1.59-2.37-2.69-3.12-1.1-.75-2.33-1.26-3.69-1.54-1.36-.28-2.72-.42-4.08-.42h-4.37v20.41h4.37Z" />
        <path class="text-arrow"
          d="M664.73,787.59v-29.45c-1.29,1.79-3.58,4-5.71,5.54l-2.08-3.75c3.67-2.87,7.46-7.12,9.91-10.87,2.46,3.75,6.25,8,9.91,10.87l-2.08,3.75c-2.12-1.54-4.42-3.75-5.71-5.54v29.45h-4.25Z" />
      </g>
      <g class="text-arrow_text">
        <path
          d="M749.08,719.84c-.78-1.06-1.79-1.83-3.04-2.31-1.25-.49-2.47-.73-3.67-.73-1.53,0-2.92.28-4.17.83-1.25.56-2.33,1.32-3.23,2.29-.9.97-1.6,2.11-2.08,3.42-.49,1.31-.73,2.72-.73,4.25,0,1.61.24,3.08.71,4.42.47,1.33,1.15,2.48,2.02,3.44.87.96,1.92,1.7,3.15,2.23,1.22.53,2.6.79,4.12.79s2.99-.31,4.21-.94c1.22-.62,2.21-1.45,2.96-2.48l4.21,2.96c-1.31,1.64-2.9,2.91-4.79,3.81-1.89.9-4.1,1.35-6.62,1.35-2.31,0-4.42-.38-6.35-1.15-1.93-.76-3.59-1.83-4.98-3.21-1.39-1.37-2.47-3.01-3.25-4.92-.78-1.9-1.17-4.01-1.17-6.31s.41-4.49,1.23-6.39c.82-1.9,1.94-3.52,3.37-4.85,1.43-1.33,3.12-2.36,5.06-3.08,1.94-.72,4.05-1.08,6.33-1.08.94,0,1.93.09,2.96.27,1.03.18,2.01.46,2.96.83.94.38,1.83.84,2.67,1.4.83.56,1.54,1.22,2.12,2l-4,3.17Z" />
        <path class="text-arrow"
          d="M738.42,787.59v-29.45c-1.29,1.79-3.58,4-5.71,5.54l-2.08-3.75c3.67-2.87,7.46-7.12,9.91-10.87,2.46,3.75,6.25,8,9.91,10.87l-2.08,3.75c-2.12-1.54-4.42-3.75-5.71-5.54v29.45h-4.25Z" />
      </g>
    </g>
  </g>
  <g class="text_box-big">
    <g class="text-one">
      <path
        d="M292.74,448h10.46v23.74h27.48v-23.74h10.46v58.77h-10.46v-26.07h-27.48v26.07h-10.46v-58.77Z" />
      <path
        d="M354.83,453.39c0-1.6.59-3,1.78-4.19,1.19-1.19,2.7-1.78,4.52-1.78s3.36.57,4.61,1.7c1.25,1.13,1.87,2.56,1.87,4.28s-.62,3.14-1.87,4.28c-1.25,1.13-2.78,1.7-4.61,1.7s-3.33-.59-4.52-1.78c-1.19-1.19-1.78-2.59-1.78-4.19ZM356.24,466.93h9.96v39.85h-9.96v-39.85Z" />
      <path
        d="M421.33,466.93v36.28c0,3.6-.44,6.85-1.33,9.75-.89,2.91-2.26,5.37-4.11,7.39-1.85,2.02-4.19,3.58-7.01,4.69-2.82,1.11-6.17,1.66-10.04,1.66-1.61,0-3.31-.14-5.11-.42-1.8-.28-3.57-.69-5.31-1.25-1.74-.55-3.42-1.25-5.02-2.08-1.61-.83-3.04-1.77-4.32-2.82l5.73-7.72c1.94,1.83,4.12,3.22,6.56,4.19,2.43.97,4.9,1.45,7.39,1.45s4.39-.35,6.02-1.04c1.63-.7,2.93-1.65,3.9-2.87.97-1.22,1.66-2.67,2.08-4.33.42-1.67.62-3.5.62-5.5v-2.92h-.17c-1.44,1.96-3.28,3.45-5.52,4.49-2.24,1.03-4.75,1.55-7.51,1.55-2.99,0-5.7-.55-8.14-1.66-2.44-1.11-4.5-2.6-6.18-4.48-1.69-1.88-3-4.08-3.94-6.6-.94-2.52-1.41-5.19-1.41-8.01s.46-5.59,1.37-8.14c.91-2.54,2.21-4.76,3.9-6.64,1.69-1.88,3.74-3.38,6.14-4.48,2.41-1.11,5.11-1.66,8.09-1.66,2.82,0,5.45.58,7.89,1.74,2.43,1.16,4.37,2.96,5.81,5.4h.17v-5.98h9.46ZM400.07,473.9c-1.83,0-3.44.33-4.86.99-1.41.66-2.6,1.56-3.57,2.69-.97,1.13-1.72,2.47-2.24,4.01-.53,1.54-.79,3.2-.79,4.96,0,1.6.26,3.14.79,4.63.53,1.49,1.27,2.83,2.24,4.01.97,1.19,2.16,2.14,3.57,2.85,1.41.72,3,1.08,4.77,1.08s3.47-.34,4.94-1.03c1.47-.69,2.71-1.61,3.74-2.77,1.02-1.16,1.81-2.5,2.37-4.01.55-1.52.83-3.1.83-4.76s-.28-3.34-.83-4.88c-.55-1.54-1.34-2.9-2.37-4.05-1.02-1.16-2.26-2.07-3.69-2.73-1.44-.66-3.07-.99-4.9-.99Z" />
      <path
        d="M457.93,465.76c2.6,0,4.83.46,6.68,1.37,1.85.91,3.38,2.12,4.57,3.61,1.19,1.49,2.06,3.21,2.61,5.15.55,1.94.83,3.93.83,5.98v24.9h-9.96v-21.92c0-1.16-.08-2.37-.25-3.61-.17-1.25-.51-2.38-1.04-3.4-.53-1.02-1.27-1.87-2.24-2.53-.97-.66-2.26-1-3.86-1s-2.99.3-4.15.91c-1.16.61-2.13,1.43-2.91,2.45-.78,1.02-1.36,2.17-1.74,3.45-.39,1.27-.58,2.57-.58,3.9v21.75h-9.96v-62.76h9.96v28.47h.17c.39-.83.95-1.65,1.7-2.45.75-.8,1.62-1.52,2.61-2.16,1-.64,2.13-1.15,3.4-1.54,1.27-.39,2.66-.58,4.15-.58Z" />
      <path d="M504,481.25h-19.92v-8.47h19.92v8.47Z" />
      <path
        d="M516.29,448h20.84c3.82,0,7.66.5,11.54,1.49,3.87,1,7.36,2.64,10.46,4.94,3.1,2.3,5.62,5.31,7.55,9.05,1.94,3.74,2.91,8.37,2.91,13.9,0,5.15-.97,9.57-2.91,13.28-1.94,3.71-4.46,6.75-7.55,9.13-3.1,2.38-6.59,4.14-10.46,5.27-3.87,1.14-7.72,1.7-11.54,1.7h-20.84v-58.77ZM535.47,497.64c2.71,0,5.42-.32,8.14-.95,2.71-.64,5.16-1.71,7.35-3.24,2.19-1.52,3.97-3.58,5.35-6.18,1.38-2.6,2.08-5.89,2.08-9.88,0-4.2-.69-7.64-2.08-10.29-1.38-2.66-3.17-4.73-5.35-6.23-2.19-1.49-4.64-2.52-7.35-3.07-2.71-.55-5.42-.83-8.14-.83h-8.72v40.68h8.72Z" />
      <path
        d="M619.72,487.35v1.33c0,.44-.03.89-.08,1.33h-30.3c.11,1.44.48,2.75,1.12,3.94.64,1.19,1.48,2.21,2.53,3.07,1.05.86,2.24,1.54,3.57,2.03,1.33.5,2.71.75,4.15.75,2.49,0,4.59-.46,6.31-1.37,1.71-.91,3.13-2.17,4.23-3.78l6.64,5.31c-3.93,5.31-9.63,7.97-17.1,7.97-3.1,0-5.95-.49-8.55-1.45-2.6-.97-4.86-2.34-6.77-4.11-1.91-1.77-3.4-3.94-4.48-6.52-1.08-2.57-1.62-5.49-1.62-8.76s.54-6.13,1.62-8.76c1.08-2.63,2.56-4.87,4.44-6.72,1.88-1.85,4.11-3.29,6.68-4.32,2.57-1.02,5.35-1.54,8.34-1.54,2.77,0,5.33.46,7.68,1.37,2.35.91,4.39,2.27,6.1,4.07,1.71,1.8,3.06,4.04,4.03,6.72.97,2.68,1.45,5.83,1.45,9.42ZM609.76,482.86c0-1.27-.18-2.49-.54-3.65-.36-1.16-.93-2.19-1.7-3.07-.78-.88-1.76-1.59-2.95-2.12-1.19-.53-2.59-.79-4.19-.79-2.99,0-5.52.9-7.6,2.7-2.08,1.8-3.22,4.11-3.44,6.93h20.42Z" />
      <path
        d="M653.67,477.55c-.89-1.16-2.1-2.17-3.65-3.03-1.55-.86-3.24-1.29-5.06-1.29-1.61,0-3.07.33-4.4,1s-1.99,1.77-1.99,3.32.73,2.64,2.2,3.28c1.47.64,3.61,1.29,6.43,1.95,1.49.33,3,.78,4.52,1.33,1.52.55,2.91,1.29,4.15,2.2,1.25.91,2.25,2.05,3.03,3.4.77,1.36,1.16,3,1.16,4.94,0,2.44-.46,4.5-1.37,6.18-.91,1.69-2.13,3.06-3.65,4.11-1.52,1.05-3.29,1.81-5.31,2.28-2.02.47-4.11.71-6.27.71-3.1,0-6.12-.57-9.05-1.7-2.93-1.13-5.37-2.75-7.3-4.86l6.56-6.14c1.11,1.44,2.54,2.63,4.32,3.57,1.77.94,3.74,1.41,5.89,1.41.72,0,1.45-.08,2.2-.25.75-.17,1.44-.43,2.08-.79.64-.36,1.15-.84,1.54-1.45.39-.61.58-1.36.58-2.24,0-1.66-.76-2.85-2.28-3.57-1.52-.72-3.81-1.44-6.85-2.16-1.49-.33-2.95-.76-4.36-1.29-1.41-.53-2.67-1.22-3.78-2.08-1.11-.86-1.99-1.92-2.66-3.2-.66-1.27-1-2.85-1-4.73,0-2.21.46-4.12,1.37-5.73.91-1.6,2.12-2.92,3.61-3.94,1.49-1.02,3.18-1.78,5.06-2.28,1.88-.5,3.82-.75,5.81-.75,2.88,0,5.69.5,8.43,1.49,2.74,1,4.91,2.52,6.52,4.57l-6.48,5.73Z" />
      <path
        d="M669.94,453.39c0-1.6.59-3,1.78-4.19,1.19-1.19,2.7-1.78,4.52-1.78s3.36.57,4.61,1.7c1.25,1.13,1.87,2.56,1.87,4.28s-.62,3.14-1.87,4.28c-1.25,1.13-2.78,1.7-4.61,1.7s-3.33-.59-4.52-1.78c-1.19-1.19-1.78-2.59-1.78-4.19ZM671.35,466.93h9.96v39.85h-9.96v-39.85Z" />
      <path
        d="M736.43,466.93v36.28c0,3.6-.44,6.85-1.33,9.75-.89,2.91-2.26,5.37-4.11,7.39-1.85,2.02-4.19,3.58-7.01,4.69-2.82,1.11-6.17,1.66-10.04,1.66-1.61,0-3.31-.14-5.11-.42-1.8-.28-3.57-.69-5.31-1.25-1.74-.55-3.42-1.25-5.02-2.08-1.61-.83-3.04-1.77-4.32-2.82l5.73-7.72c1.94,1.83,4.12,3.22,6.56,4.19,2.43.97,4.9,1.45,7.39,1.45s4.39-.35,6.02-1.04c1.63-.7,2.93-1.65,3.9-2.87.97-1.22,1.66-2.67,2.08-4.33.42-1.67.62-3.5.62-5.5v-2.92h-.17c-1.44,1.96-3.28,3.45-5.52,4.49-2.24,1.03-4.75,1.55-7.51,1.55-2.99,0-5.7-.55-8.14-1.66-2.44-1.11-4.5-2.6-6.18-4.48-1.69-1.88-3-4.08-3.94-6.6-.94-2.52-1.41-5.19-1.41-8.01s.46-5.59,1.37-8.14c.91-2.54,2.21-4.76,3.9-6.64,1.69-1.88,3.74-3.38,6.14-4.48,2.41-1.11,5.11-1.66,8.09-1.66,2.82,0,5.45.58,7.89,1.74,2.43,1.16,4.37,2.96,5.81,5.4h.17v-5.98h9.46ZM715.18,473.9c-1.83,0-3.45.33-4.86.99-1.41.66-2.6,1.56-3.57,2.69-.97,1.13-1.72,2.47-2.24,4.01-.53,1.54-.79,3.2-.79,4.96,0,1.6.26,3.14.79,4.63.53,1.49,1.27,2.83,2.24,4.01.97,1.19,2.16,2.14,3.57,2.85,1.41.72,3,1.08,4.77,1.08s3.47-.34,4.94-1.03c1.47-.69,2.71-1.61,3.74-2.77,1.02-1.16,1.81-2.5,2.37-4.01.55-1.52.83-3.1.83-4.76s-.28-3.34-.83-4.88c-.55-1.54-1.34-2.9-2.37-4.05-1.02-1.16-2.26-2.07-3.69-2.73-1.44-.66-3.07-.99-4.9-.99Z" />
      <path
        d="M750.88,466.93h9.46v6.39h.17c.88-1.99,2.42-3.75,4.61-5.27,2.19-1.52,4.77-2.28,7.76-2.28,2.6,0,4.83.46,6.68,1.37,1.85.91,3.38,2.12,4.57,3.61,1.19,1.49,2.06,3.21,2.61,5.15.55,1.94.83,3.93.83,5.98v24.9h-9.96v-22.08c0-1.16-.08-2.38-.25-3.65-.17-1.27-.53-2.42-1.08-3.45-.55-1.02-1.32-1.87-2.28-2.53-.97-.66-2.26-1-3.86-1s-2.99.32-4.15.95c-1.16.64-2.12,1.45-2.86,2.45-.75,1-1.32,2.15-1.7,3.45-.39,1.3-.58,2.61-.58,3.94v21.92h-9.96v-39.85Z" />
    </g>
    <g class="text-one">
      <path
        d="M292.74,565.6h10.46v23.74h27.48v-23.74h10.46v58.77h-10.46v-26.07h-27.48v26.07h-10.46v-58.77Z" />
      <path
        d="M354.83,571c0-1.6.59-3,1.78-4.19,1.19-1.19,2.7-1.78,4.52-1.78s3.36.57,4.61,1.7c1.25,1.13,1.87,2.56,1.87,4.27s-.62,3.14-1.87,4.28c-1.25,1.13-2.78,1.7-4.61,1.7s-3.33-.59-4.52-1.78c-1.19-1.19-1.78-2.59-1.78-4.19ZM356.24,584.53h9.96v39.85h-9.96v-39.85Z" />
      <path
        d="M421.33,584.53v36.28c0,3.6-.44,6.85-1.33,9.75-.89,2.91-2.26,5.37-4.11,7.39-1.85,2.02-4.19,3.58-7.01,4.69-2.82,1.11-6.17,1.66-10.04,1.66-1.61,0-3.31-.14-5.11-.42-1.8-.28-3.57-.69-5.31-1.25-1.74-.55-3.42-1.25-5.02-2.08-1.61-.83-3.04-1.77-4.32-2.82l5.73-7.72c1.94,1.83,4.12,3.22,6.56,4.19,2.43.97,4.9,1.45,7.39,1.45s4.39-.35,6.02-1.04c1.63-.69,2.93-1.65,3.9-2.87.97-1.22,1.66-2.67,2.08-4.33.42-1.67.62-3.5.62-5.5v-2.92h-.17c-1.44,1.96-3.28,3.45-5.52,4.49-2.24,1.03-4.75,1.55-7.51,1.55-2.99,0-5.7-.55-8.14-1.66-2.44-1.11-4.5-2.6-6.18-4.48-1.69-1.88-3-4.08-3.94-6.6-.94-2.52-1.41-5.19-1.41-8.01s.46-5.59,1.37-8.14c.91-2.55,2.21-4.76,3.9-6.64,1.69-1.88,3.74-3.37,6.14-4.48,2.41-1.11,5.11-1.66,8.09-1.66,2.82,0,5.45.58,7.89,1.74,2.43,1.16,4.37,2.96,5.81,5.4h.17v-5.98h9.46ZM400.07,591.5c-1.83,0-3.44.33-4.86.99-1.41.66-2.6,1.56-3.57,2.69-.97,1.13-1.72,2.47-2.24,4.01-.53,1.54-.79,3.2-.79,4.96,0,1.6.26,3.14.79,4.63.53,1.49,1.27,2.83,2.24,4.01.97,1.19,2.16,2.14,3.57,2.85,1.41.72,3,1.08,4.77,1.08s3.47-.34,4.94-1.03c1.47-.69,2.71-1.61,3.74-2.77,1.02-1.16,1.81-2.5,2.37-4.01.55-1.52.83-3.1.83-4.76s-.28-3.34-.83-4.88c-.55-1.54-1.34-2.89-2.37-4.05-1.02-1.16-2.26-2.07-3.69-2.73-1.44-.66-3.07-.99-4.9-.99Z" />
      <path
        d="M457.93,583.36c2.6,0,4.83.46,6.68,1.37,1.85.91,3.38,2.12,4.57,3.61,1.19,1.49,2.06,3.21,2.61,5.15.55,1.94.83,3.93.83,5.98v24.9h-9.96v-21.92c0-1.16-.08-2.37-.25-3.61-.17-1.25-.51-2.38-1.04-3.4-.53-1.02-1.27-1.87-2.24-2.53-.97-.66-2.26-1-3.86-1s-2.99.3-4.15.91c-1.16.61-2.13,1.43-2.91,2.45-.78,1.02-1.36,2.17-1.74,3.44-.39,1.27-.58,2.57-.58,3.9v21.75h-9.96v-62.76h9.96v28.47h.17c.39-.83.95-1.65,1.7-2.45.75-.8,1.62-1.52,2.61-2.16,1-.64,2.13-1.15,3.4-1.54,1.27-.39,2.66-.58,4.15-.58Z" />
      <path d="M504,598.85h-19.92v-8.47h19.92v8.47Z" />
      <path
        d="M558.71,579.38c-1.55-2.1-3.57-3.64-6.06-4.61-2.49-.97-4.93-1.45-7.31-1.45-3.04,0-5.81.55-8.3,1.66-2.49,1.11-4.64,2.63-6.43,4.57-1.8,1.94-3.18,4.21-4.15,6.81-.97,2.6-1.45,5.42-1.45,8.47,0,3.21.47,6.14,1.41,8.8.94,2.66,2.28,4.94,4.03,6.85,1.74,1.91,3.83,3.39,6.27,4.44,2.43,1.05,5.17,1.58,8.22,1.58s5.95-.62,8.38-1.87c2.43-1.25,4.4-2.89,5.89-4.94l8.38,5.89c-2.6,3.27-5.78,5.8-9.55,7.6-3.76,1.8-8.16,2.7-13.2,2.7-4.59,0-8.81-.76-12.66-2.28-3.85-1.52-7.15-3.65-9.92-6.39-2.77-2.74-4.93-6-6.47-9.8-1.55-3.79-2.32-7.98-2.32-12.58s.82-8.95,2.45-12.74c1.63-3.79,3.87-7.01,6.72-9.67,2.85-2.66,6.21-4.7,10.09-6.14,3.87-1.44,8.08-2.16,12.62-2.16,1.88,0,3.85.18,5.89.54,2.05.36,4.01.91,5.89,1.66,1.88.75,3.65,1.67,5.31,2.78,1.66,1.11,3.07,2.44,4.23,3.98l-7.97,6.31Z" />
      <path
        d="M572.74,604.28c0-3.15.57-6.02,1.7-8.59,1.13-2.57,2.67-4.77,4.61-6.6,1.94-1.83,4.23-3.24,6.89-4.23,2.66-1,5.48-1.49,8.47-1.49s5.81.5,8.47,1.49c2.66,1,4.95,2.41,6.89,4.23,1.94,1.83,3.47,4.03,4.61,6.6,1.13,2.57,1.7,5.44,1.7,8.59s-.57,6.03-1.7,8.63c-1.13,2.6-2.67,4.83-4.61,6.68-1.94,1.85-4.23,3.31-6.89,4.36-2.66,1.05-5.48,1.58-8.47,1.58s-5.81-.53-8.47-1.58c-2.66-1.05-4.95-2.5-6.89-4.36-1.94-1.85-3.47-4.08-4.61-6.68-1.13-2.6-1.7-5.48-1.7-8.63ZM582.87,604.28c0,1.55.23,3.1.71,4.65.47,1.55,1.18,2.93,2.12,4.15.94,1.22,2.13,2.21,3.57,2.99,1.44.78,3.15,1.16,5.15,1.16s3.71-.39,5.15-1.16c1.44-.77,2.63-1.77,3.57-2.99.94-1.22,1.65-2.6,2.12-4.15.47-1.55.71-3.1.71-4.65s-.24-3.08-.71-4.61c-.47-1.52-1.18-2.89-2.12-4.11-.94-1.22-2.13-2.2-3.57-2.95-1.44-.75-3.15-1.12-5.15-1.12s-3.71.37-5.15,1.12c-1.44.75-2.63,1.73-3.57,2.95-.94,1.22-1.65,2.59-2.12,4.11-.47,1.52-.71,3.06-.71,4.61Z" />
      <path
        d="M650.02,595.15c-.89-1.16-2.1-2.17-3.65-3.03-1.55-.86-3.24-1.29-5.06-1.29-1.61,0-3.07.33-4.4,1-1.33.66-1.99,1.77-1.99,3.32s.73,2.64,2.2,3.28c1.47.64,3.61,1.29,6.43,1.95,1.49.33,3,.78,4.52,1.33,1.52.55,2.91,1.29,4.15,2.2,1.25.91,2.25,2.05,3.03,3.4.77,1.36,1.16,3,1.16,4.94,0,2.44-.46,4.5-1.37,6.18-.91,1.69-2.13,3.06-3.65,4.11-1.52,1.05-3.29,1.81-5.31,2.28-2.02.47-4.11.71-6.27.71-3.1,0-6.12-.57-9.05-1.7-2.93-1.13-5.37-2.75-7.31-4.86l6.56-6.14c1.11,1.44,2.54,2.63,4.32,3.57,1.77.94,3.74,1.41,5.89,1.41.72,0,1.45-.08,2.2-.25.75-.17,1.44-.43,2.08-.79.64-.36,1.15-.84,1.54-1.45.39-.61.58-1.36.58-2.24,0-1.66-.76-2.85-2.28-3.57-1.52-.72-3.81-1.44-6.85-2.16-1.49-.33-2.95-.76-4.36-1.29-1.41-.53-2.67-1.22-3.78-2.08-1.11-.86-1.99-1.92-2.66-3.2-.66-1.27-1-2.85-1-4.73,0-2.21.46-4.12,1.37-5.73.91-1.6,2.12-2.92,3.61-3.94,1.49-1.02,3.18-1.78,5.06-2.28,1.88-.5,3.82-.75,5.81-.75,2.88,0,5.69.5,8.43,1.49,2.74,1,4.91,2.52,6.52,4.57l-6.47,5.73Z" />
      <path
        d="M677.08,584.53v5.56h.25c.5-.77,1.15-1.56,1.95-2.37.8-.8,1.78-1.52,2.95-2.16,1.16-.64,2.48-1.16,3.94-1.58,1.47-.42,3.11-.62,4.94-.62,2.82,0,5.42.54,7.8,1.62,2.38,1.08,4.43,2.56,6.14,4.44,1.71,1.88,3.04,4.1,3.98,6.64.94,2.55,1.41,5.29,1.41,8.22s-.46,5.69-1.37,8.26c-.91,2.57-2.21,4.81-3.9,6.72-1.69,1.91-3.74,3.43-6.14,4.57-2.41,1.13-5.13,1.7-8.18,1.7-2.82,0-5.41-.58-7.76-1.74-2.35-1.16-4.16-2.74-5.44-4.73h-.17v25.24h-9.96v-59.77h9.55ZM700.33,604.28c0-1.55-.24-3.08-.71-4.61-.47-1.52-1.18-2.89-2.12-4.11-.94-1.22-2.13-2.2-3.57-2.95-1.44-.75-3.13-1.12-5.06-1.12-1.83,0-3.46.39-4.9,1.16-1.44.78-2.67,1.77-3.69,2.99-1.02,1.22-1.8,2.6-2.32,4.15-.53,1.55-.79,3.1-.79,4.65s.26,3.09.79,4.61c.53,1.52,1.3,2.89,2.32,4.11,1.02,1.22,2.25,2.2,3.69,2.95,1.44.75,3.07,1.12,4.9,1.12,1.94,0,3.62-.39,5.06-1.16,1.44-.77,2.63-1.77,3.57-2.99.94-1.22,1.65-2.6,2.12-4.15.47-1.55.71-3.1.71-4.65Z" />
      <path
        d="M747.31,619.31h-.25c-1,1.77-2.6,3.22-4.81,4.36-2.21,1.13-4.73,1.7-7.55,1.7-1.61,0-3.28-.21-5.02-.62-1.74-.41-3.35-1.11-4.81-2.08-1.47-.97-2.68-2.24-3.65-3.82-.97-1.58-1.45-3.53-1.45-5.85,0-2.99.84-5.37,2.53-7.14,1.69-1.77,3.86-3.13,6.52-4.07,2.66-.94,5.6-1.56,8.84-1.87,3.24-.3,6.4-.46,9.5-.46v-1c0-2.49-.9-4.33-2.7-5.52-1.8-1.19-3.94-1.78-6.43-1.78-2.1,0-4.12.44-6.06,1.33-1.94.89-3.54,1.97-4.81,3.24l-5.15-6.06c2.27-2.1,4.88-3.68,7.84-4.73,2.96-1.05,5.96-1.58,9.01-1.58,3.54,0,6.46.5,8.76,1.49,2.3,1,4.11,2.3,5.44,3.9,1.33,1.61,2.25,3.4,2.78,5.4.53,1.99.79,3.98.79,5.98v24.24h-9.3v-5.06ZM747.14,606.19h-2.24c-1.61,0-3.29.07-5.06.21-1.77.14-3.4.44-4.9.91-1.49.47-2.74,1.14-3.74,1.99-1,.86-1.49,2.03-1.49,3.53,0,.94.21,1.73.62,2.37.41.64.95,1.15,1.62,1.54.66.39,1.41.66,2.24.83.83.17,1.66.25,2.49.25,3.43,0,6.03-.91,7.8-2.74,1.77-1.83,2.66-4.32,2.66-7.47v-1.41Z" />
    </g>
    <g class="text-one">
      <path
        d="M292.74,683.2h10.46v23.74h27.48v-23.74h10.46v58.77h-10.46v-26.07h-27.48v26.07h-10.46v-58.77Z" />
      <path
        d="M353.75,721.88c0-3.15.57-6.02,1.7-8.59,1.13-2.57,2.67-4.77,4.61-6.6,1.94-1.83,4.23-3.24,6.89-4.23,2.66-1,5.48-1.49,8.47-1.49s5.81.5,8.47,1.49c2.66,1,4.95,2.41,6.89,4.23,1.94,1.83,3.47,4.03,4.61,6.6,1.13,2.57,1.7,5.44,1.7,8.59s-.57,6.03-1.7,8.63c-1.13,2.6-2.67,4.83-4.61,6.68-1.94,1.85-4.23,3.31-6.89,4.36-2.66,1.05-5.48,1.58-8.47,1.58s-5.81-.53-8.47-1.58c-2.66-1.05-4.95-2.5-6.89-4.36-1.94-1.85-3.47-4.08-4.61-6.68-1.13-2.6-1.7-5.48-1.7-8.63ZM363.88,721.88c0,1.55.23,3.1.71,4.65.47,1.55,1.18,2.93,2.12,4.15.94,1.22,2.13,2.21,3.57,2.99,1.44.78,3.15,1.16,5.15,1.16s3.71-.39,5.15-1.16c1.44-.77,2.63-1.77,3.57-2.99.94-1.22,1.65-2.6,2.12-4.15.47-1.55.71-3.1.71-4.65s-.24-3.08-.71-4.61c-.47-1.52-1.18-2.89-2.12-4.11-.94-1.22-2.13-2.2-3.57-2.95-1.44-.75-3.15-1.12-5.15-1.12s-3.71.37-5.15,1.12c-1.44.75-2.63,1.73-3.57,2.95-.94,1.22-1.65,2.59-2.12,4.11-.47,1.52-.71,3.06-.71,4.61Z" />
      <path
        d="M445.56,741.97h-9.46v-6.39h-.17c-.89,1.99-2.42,3.75-4.61,5.27-2.19,1.52-4.77,2.28-7.76,2.28-2.6,0-4.83-.46-6.68-1.37-1.85-.91-3.38-2.12-4.57-3.61-1.19-1.49-2.06-3.21-2.61-5.15-.55-1.94-.83-3.93-.83-5.98v-24.9h9.96v22.08c0,1.16.08,2.38.25,3.65.17,1.27.53,2.42,1.08,3.45.55,1.02,1.31,1.87,2.28,2.53.97.66,2.25,1,3.86,1s2.92-.32,4.11-.95c1.19-.64,2.16-1.45,2.91-2.45.75-1,1.31-2.14,1.7-3.45.39-1.3.58-2.61.58-3.94v-21.92h9.96v39.85Z" />
      <path
        d="M481.84,712.75c-.89-1.16-2.1-2.17-3.65-3.03-1.55-.86-3.24-1.29-5.06-1.29-1.61,0-3.07.33-4.4,1-1.33.66-1.99,1.77-1.99,3.32s.73,2.64,2.2,3.28c1.47.64,3.61,1.29,6.43,1.95,1.49.33,3,.78,4.52,1.33,1.52.55,2.91,1.29,4.15,2.2,1.25.91,2.25,2.05,3.03,3.4.77,1.36,1.16,3,1.16,4.94,0,2.44-.46,4.5-1.37,6.18-.91,1.69-2.13,3.06-3.65,4.11-1.52,1.05-3.29,1.81-5.31,2.28-2.02.47-4.11.71-6.27.71-3.1,0-6.12-.57-9.05-1.7-2.93-1.13-5.37-2.75-7.31-4.86l6.56-6.14c1.11,1.44,2.54,2.63,4.32,3.57,1.77.94,3.74,1.41,5.89,1.41.72,0,1.45-.08,2.2-.25.75-.17,1.44-.43,2.08-.79.64-.36,1.15-.84,1.54-1.45.39-.61.58-1.36.58-2.24,0-1.66-.76-2.85-2.28-3.57-1.52-.72-3.81-1.44-6.85-2.16-1.49-.33-2.95-.76-4.36-1.29-1.41-.53-2.67-1.22-3.78-2.08-1.11-.86-1.99-1.92-2.66-3.2-.66-1.27-1-2.85-1-4.73,0-2.21.46-4.12,1.37-5.73.91-1.6,2.12-2.92,3.61-3.94,1.49-1.02,3.18-1.78,5.06-2.28,1.88-.5,3.82-.75,5.81-.75,2.88,0,5.69.5,8.43,1.49,2.74,1,4.91,2.52,6.52,4.57l-6.47,5.73Z" />
      <path
        d="M537.37,722.55v1.33c0,.44-.03.89-.08,1.33h-30.3c.11,1.44.48,2.75,1.12,3.94.64,1.19,1.48,2.21,2.53,3.07,1.05.86,2.24,1.54,3.57,2.03,1.33.5,2.71.75,4.15.75,2.49,0,4.59-.46,6.31-1.37,1.71-.91,3.13-2.17,4.23-3.78l6.64,5.31c-3.93,5.31-9.63,7.97-17.1,7.97-3.1,0-5.95-.49-8.55-1.45-2.6-.97-4.86-2.34-6.77-4.11-1.91-1.77-3.4-3.94-4.48-6.52-1.08-2.57-1.62-5.49-1.62-8.76s.54-6.13,1.62-8.76c1.08-2.63,2.56-4.87,4.44-6.72,1.88-1.85,4.11-3.29,6.68-4.32,2.57-1.02,5.35-1.54,8.34-1.54,2.77,0,5.33.46,7.68,1.37,2.35.91,4.39,2.27,6.1,4.07,1.71,1.8,3.06,4.04,4.03,6.72.97,2.68,1.45,5.82,1.45,9.42ZM527.41,718.07c0-1.27-.18-2.49-.54-3.65-.36-1.16-.93-2.19-1.7-3.07-.78-.88-1.76-1.59-2.95-2.12-1.19-.53-2.59-.79-4.19-.79-2.99,0-5.52.9-7.6,2.7-2.08,1.8-3.22,4.11-3.44,6.93h20.42Z" />
    </g>
  </g>
</svg>